<?xml version="1.0" encoding="utf-8"?>
<!-- Generator: Adobe Illustrator 25.0.0, SVG Export Plug-In . SVG Version: 6.00 Build 0)  -->
<svg version="1.1" xmlns="http://www.w3.org/2000/svg" xmlns:xlink="http://www.w3.org/1999/xlink" x="0px" y="0px"
	 viewBox="0 0 265.6 127.4" style="enable-background:new 0 0 265.6 127.4;" xml:space="preserve">
<style type="text/css">
	.st0{display:none;}
	.st1{display:inline;fill:#FFFFFF;}
	.st2{fill:none;stroke:#566790;stroke-width:0.5;stroke-miterlimit:10;}
	.st3{fill:none;stroke:#566790;stroke-width:0.5;stroke-miterlimit:10;stroke-dasharray:1.0236,1.0236;}
	.st4{fill:none;stroke:#566790;stroke-width:0.5;stroke-miterlimit:10;stroke-dasharray:1.0139,1.0139;}
	.st5{fill:#4A4A49;}
	.st6{opacity:0.9;}
	.st7{fill:url(#SVGID_1_);}
	.st8{fill:#FFFFFF;}
	.st9{opacity:0.9;fill:url(#SVGID_2_);}
	.st10{opacity:0.9;fill:url(#SVGID_3_);}
	.st11{fill:#B8292E;}
	.st12{opacity:0.9;fill:url(#SVGID_4_);}
	.st13{opacity:0.9;fill:url(#SVGID_5_);}
	.st14{fill:#FFFFFF;stroke:#FFFFFF;stroke-miterlimit:10;}
	.st15{fill:none;stroke:#F7A400;stroke-miterlimit:10;stroke-dasharray:2,2,2,2,2,2;}
</style>
<g id="guides" class="st0">
</g>
<g id="baseline_grid" class="st0">
</g>
<g id="styles" class="st0">
	<rect x="-395.1" y="124.1" class="st1" width="200" height="264"/>
</g>
<g id="content">
	<g>
		<g>
			<g>
				<line class="st2" x1="150.5" y1="5.2" x2="150.5" y2="5.7"/>
				<line class="st3" x1="150.5" y1="6.7" x2="150.5" y2="18.5"/>
				<line class="st2" x1="150.5" y1="19" x2="150.5" y2="19.5"/>
			</g>
		</g>
		<g>
			<g>
				<line class="st2" x1="150.5" y1="73.9" x2="150.5" y2="74.4"/>
				<line class="st4" x1="150.5" y1="75.4" x2="150.5" y2="117.5"/>
				<line class="st2" x1="150.5" y1="118" x2="150.5" y2="118.5"/>
			</g>
		</g>
	</g>
	<g>
		<path class="st5" d="M12.9,84l-0.5,1.4h-0.6l1.6-4.6h0.7l1.6,4.6H15L14.5,84H12.9z M14.4,83.5l-0.5-1.3c-0.1-0.3-0.2-0.6-0.2-0.8
			h0c-0.1,0.3-0.1,0.6-0.2,0.8L13,83.5H14.4z"/>
		<path class="st5" d="M17.7,83.1c0-0.4,0-0.7,0-1h0.5l0,0.7h0c0.2-0.4,0.5-0.7,0.9-0.7c0.1,0,0.1,0,0.2,0v0.6c-0.1,0-0.1,0-0.2,0
			c-0.4,0-0.7,0.3-0.8,0.8c0,0.1,0,0.2,0,0.3v1.8h-0.6V83.1z"/>
		<path class="st5" d="M22.9,83.7c0,1.2-0.9,1.8-1.6,1.8c-0.9,0-1.6-0.7-1.6-1.7c0-1.1,0.7-1.7,1.6-1.7C22.3,82,22.9,82.7,22.9,83.7
			z M20.3,83.8c0,0.7,0.4,1.3,1,1.3c0.6,0,1-0.5,1-1.3c0-0.6-0.3-1.3-1-1.3C20.6,82.5,20.3,83.2,20.3,83.8z"/>
		<path class="st5" d="M23.7,80.6h0.6v2.1h0c0.2-0.4,0.6-0.6,1.1-0.6c0.8,0,1.4,0.7,1.4,1.7c0,1.2-0.8,1.8-1.5,1.8
			c-0.5,0-0.9-0.2-1.1-0.6h0l0,0.5h-0.5c0-0.2,0-0.6,0-0.9V80.6z M24.3,84.1c0,0.1,0,0.1,0,0.2c0.1,0.4,0.5,0.7,0.9,0.7
			c0.6,0,1-0.5,1-1.3c0-0.7-0.3-1.2-1-1.2c-0.4,0-0.8,0.3-0.9,0.7c0,0.1,0,0.2,0,0.3V84.1z"/>
		<path class="st5" d="M30.3,84.5c0,0.3,0,0.6,0,0.9h-0.5l0-0.5h0c-0.2,0.3-0.5,0.6-1.1,0.6c-0.5,0-1.1-0.3-1.1-1.4v-1.9h0.6v1.8
			c0,0.6,0.2,1.1,0.7,1.1c0.4,0,0.7-0.3,0.8-0.6c0-0.1,0.1-0.2,0.1-0.3v-2h0.6V84.5z"/>
		<path class="st5" d="M31.2,84.8c0.2,0.1,0.5,0.2,0.8,0.2c0.4,0,0.6-0.2,0.6-0.5c0-0.3-0.2-0.4-0.6-0.6c-0.6-0.2-0.9-0.5-0.9-0.9
			c0-0.5,0.4-1,1.1-1c0.3,0,0.6,0.1,0.8,0.2L33,82.7c-0.1-0.1-0.4-0.2-0.7-0.2c-0.4,0-0.5,0.2-0.5,0.5c0,0.3,0.2,0.4,0.6,0.6
			c0.6,0.2,0.9,0.5,0.9,1c0,0.6-0.5,1-1.2,1c-0.4,0-0.7-0.1-0.9-0.2L31.2,84.8z"/>
		<path class="st5" d="M34.7,81.3v0.8h0.9v0.5h-0.9v1.8c0,0.4,0.1,0.6,0.5,0.6c0.2,0,0.3,0,0.3,0l0,0.5c-0.1,0-0.3,0.1-0.5,0.1
			c-0.3,0-0.5-0.1-0.6-0.3c-0.2-0.2-0.2-0.5-0.2-0.9v-1.8h-0.5v-0.5h0.5v-0.6L34.7,81.3z"/>
		<path class="st5" d="M6.3,89h2.8v0.9H7.3v1.1H9v0.8H7.3v1.8h-1V89z"/>
		<path class="st5" d="M13.1,91.9c0,1.2-0.9,1.8-1.8,1.8c-1,0-1.7-0.6-1.7-1.7c0-1.1,0.7-1.8,1.8-1.8C12.5,90.2,13.1,90.9,13.1,91.9
			z M10.7,91.9c0,0.6,0.2,1,0.7,1c0.4,0,0.7-0.4,0.7-1c0-0.5-0.2-1-0.7-1C10.9,90.9,10.7,91.4,10.7,91.9z"/>
		<path class="st5" d="M13.8,91.4c0-0.5,0-0.8,0-1.1h0.9l0,0.6h0c0.2-0.5,0.6-0.7,0.9-0.7c0.1,0,0.1,0,0.2,0v1c-0.1,0-0.2,0-0.3,0
			c-0.4,0-0.6,0.2-0.7,0.5c0,0.1,0,0.1,0,0.2v1.7h-1V91.4z"/>
		<path class="st5" d="M17.2,92.3c0,0.4,0.5,0.6,0.9,0.6c0.4,0,0.6,0,0.9-0.1l0.1,0.7c-0.3,0.1-0.8,0.2-1.2,0.2
			c-1.1,0-1.8-0.7-1.8-1.7c0-0.8,0.5-1.8,1.7-1.8c1.1,0,1.5,0.8,1.5,1.7c0,0.2,0,0.3,0,0.4H17.2z M18.4,91.5c0-0.3-0.1-0.7-0.6-0.7
			c-0.4,0-0.6,0.4-0.6,0.7H18.4z"/>
		<path class="st5" d="M22.5,93.5c-0.2,0.1-0.5,0.2-0.9,0.2c-1.1,0-1.8-0.7-1.8-1.7c0-1,0.7-1.8,1.9-1.8c0.3,0,0.6,0,0.8,0.1
			l-0.2,0.8C22.2,91,22,91,21.7,91c-0.5,0-0.9,0.4-0.9,0.9c0,0.6,0.4,0.9,0.9,0.9c0.2,0,0.4,0,0.6-0.1L22.5,93.5z"/>
		<path class="st5" d="M25.8,92.8c0,0.3,0,0.6,0.1,0.8h-0.9l-0.1-0.3h0c-0.2,0.3-0.6,0.4-1,0.4c-0.7,0-1.1-0.5-1.1-1
			c0-0.9,0.8-1.3,2-1.3v0c0-0.2-0.1-0.4-0.6-0.4c-0.3,0-0.7,0.1-0.9,0.3l-0.2-0.7c0.2-0.1,0.7-0.3,1.3-0.3c1.1,0,1.5,0.7,1.5,1.4
			V92.8z M24.8,92c-0.5,0-1,0.1-1,0.5c0,0.3,0.2,0.4,0.4,0.4c0.3,0,0.5-0.2,0.5-0.4c0-0.1,0-0.1,0-0.2V92z"/>
		<path class="st5" d="M26.6,92.7c0.2,0.1,0.6,0.2,0.9,0.2c0.3,0,0.4-0.1,0.4-0.3c0-0.2-0.1-0.3-0.5-0.4c-0.7-0.2-1-0.6-1-1
			c0-0.6,0.5-1.1,1.4-1.1c0.4,0,0.7,0.1,0.9,0.2l-0.2,0.7c-0.1-0.1-0.4-0.2-0.7-0.2c-0.3,0-0.4,0.1-0.4,0.3s0.1,0.2,0.5,0.4
			c0.6,0.2,0.9,0.5,0.9,1c0,0.6-0.5,1.1-1.4,1.1c-0.4,0-0.8-0.1-1.1-0.2L26.6,92.7z"/>
		<path class="st5" d="M30.8,89.4v0.9h0.7V91h-0.7v1.2c0,0.4,0.1,0.6,0.4,0.6c0.1,0,0.2,0,0.3,0l0,0.8c-0.1,0-0.4,0.1-0.7,0.1
			c-0.3,0-0.6-0.1-0.8-0.3c-0.2-0.2-0.3-0.5-0.3-1V91h-0.4v-0.8h0.4v-0.6L30.8,89.4z"/>
		<path class="st5" d="M33.2,89.3c0,0.3-0.2,0.5-0.6,0.5c-0.3,0-0.5-0.2-0.5-0.5c0-0.3,0.2-0.5,0.6-0.5C33,88.8,33.2,89,33.2,89.3z
			 M32.1,93.6v-3.3h1v3.3H32.1z"/>
		<path class="st5" d="M34,91.3c0-0.4,0-0.8,0-1.1h0.9l0,0.5h0c0.1-0.2,0.5-0.5,1-0.5c0.7,0,1.2,0.5,1.2,1.4v2h-1v-1.8
			c0-0.4-0.1-0.7-0.5-0.7c-0.3,0-0.5,0.2-0.5,0.4c0,0.1,0,0.2,0,0.3v1.9h-1V91.3z"/>
		<path class="st5" d="M41.1,93.1c0,0.6-0.1,1.2-0.5,1.5c-0.4,0.3-0.9,0.4-1.4,0.4c-0.4,0-0.9-0.1-1.2-0.3l0.2-0.8
			c0.2,0.1,0.6,0.3,1,0.3c0.5,0,0.9-0.3,0.9-0.9v-0.2h0c-0.2,0.3-0.5,0.4-0.9,0.4c-0.8,0-1.4-0.7-1.4-1.6c0-1.1,0.7-1.8,1.5-1.8
			c0.5,0,0.7,0.2,0.9,0.5h0l0-0.4h0.9c0,0.2,0,0.5,0,1V93.1z M40.1,91.6c0-0.1,0-0.1,0-0.2C40,91.2,39.8,91,39.5,91
			c-0.4,0-0.7,0.3-0.7,0.9c0,0.5,0.2,0.9,0.7,0.9c0.3,0,0.5-0.2,0.6-0.4c0-0.1,0-0.2,0-0.3V91.6z"/>
		<path class="st5" d="M10.2,101.8c-0.1-0.1-0.3-0.3-0.4-0.4c-0.4,0.4-0.8,0.5-1.3,0.5c-0.9,0-1.4-0.6-1.4-1.3
			c0-0.6,0.4-1.1,0.9-1.3v0c-0.2-0.3-0.4-0.6-0.4-1c0-0.6,0.4-1.1,1.2-1.1c0.6,0,1,0.4,1,1c0,0.5-0.3,0.9-1,1.2v0
			c0.4,0.5,0.8,0.9,1.1,1.3c0.2-0.3,0.4-0.8,0.4-1.3h0.5c-0.1,0.7-0.3,1.3-0.7,1.7c0.2,0.3,0.5,0.5,0.8,0.8H10.2z M9.5,101
			c-0.3-0.3-0.8-0.9-1.3-1.5c-0.3,0.2-0.6,0.5-0.6,0.9c0,0.5,0.4,0.9,0.9,0.9C8.9,101.4,9.2,101.2,9.5,101z M8.1,98.2
			c0,0.3,0.2,0.6,0.3,0.8c0.5-0.3,0.8-0.5,0.8-0.9c0-0.3-0.2-0.6-0.5-0.6C8.3,97.5,8.1,97.8,8.1,98.2z"/>
		<path class="st5" d="M12.8,97.2c0.4-0.1,0.9-0.1,1.4-0.1c0.9,0,1.5,0.2,1.9,0.5c0.5,0.4,0.8,0.9,0.8,1.7c0,0.9-0.3,1.5-0.8,1.9
			c-0.5,0.4-1.2,0.6-2.1,0.6c-0.5,0-0.9,0-1.2-0.1V97.2z M13.8,101c0.1,0,0.2,0,0.4,0c0.9,0,1.6-0.5,1.6-1.6c0-1-0.6-1.5-1.5-1.5
			c-0.2,0-0.4,0-0.5,0V101z"/>
		<path class="st5" d="M18.3,100.4c0,0.4,0.5,0.6,0.9,0.6c0.4,0,0.6,0,0.9-0.1l0.1,0.7c-0.3,0.1-0.8,0.2-1.2,0.2
			c-1.1,0-1.8-0.7-1.8-1.7c0-0.8,0.5-1.8,1.7-1.8c1.1,0,1.5,0.8,1.5,1.7c0,0.2,0,0.3,0,0.4H18.3z M19.5,99.7c0-0.3-0.1-0.7-0.6-0.7
			c-0.4,0-0.6,0.4-0.6,0.7H19.5z"/>
		<path class="st5" d="M23.6,101.7c-0.2,0.1-0.5,0.2-0.9,0.2c-1.1,0-1.8-0.7-1.8-1.7c0-1,0.7-1.8,1.9-1.8c0.3,0,0.6,0,0.8,0.1
			l-0.2,0.8c-0.1-0.1-0.3-0.1-0.6-0.1c-0.5,0-0.9,0.4-0.9,0.9c0,0.6,0.4,0.9,0.9,0.9c0.2,0,0.4,0,0.6-0.1L23.6,101.7z"/>
		<path class="st5" d="M25.3,97.5c0,0.3-0.2,0.5-0.6,0.5c-0.3,0-0.5-0.2-0.5-0.5c0-0.3,0.2-0.5,0.6-0.5C25,97,25.3,97.2,25.3,97.5z
			 M24.2,101.8v-3.3h1v3.3H24.2z"/>
		<path class="st5" d="M26.1,100.9c0.2,0.1,0.6,0.2,0.9,0.2c0.3,0,0.4-0.1,0.4-0.3c0-0.2-0.1-0.3-0.5-0.4c-0.7-0.2-1-0.6-1-1
			c0-0.6,0.5-1.1,1.4-1.1c0.4,0,0.7,0.1,0.9,0.2l-0.2,0.7c-0.1-0.1-0.4-0.2-0.7-0.2c-0.3,0-0.4,0.1-0.4,0.3s0.1,0.2,0.5,0.4
			c0.6,0.2,0.9,0.5,0.9,1c0,0.6-0.5,1.1-1.4,1.1c-0.4,0-0.8-0.1-1.1-0.2L26.1,100.9z"/>
		<path class="st5" d="M30.1,97.5c0,0.3-0.2,0.5-0.6,0.5c-0.3,0-0.5-0.2-0.5-0.5c0-0.3,0.2-0.5,0.6-0.5C29.9,97,30.1,97.2,30.1,97.5
			z M29,101.8v-3.3h1v3.3H29z"/>
		<path class="st5" d="M34.2,100.1c0,1.2-0.9,1.8-1.8,1.8c-1,0-1.7-0.6-1.7-1.7c0-1.1,0.7-1.8,1.8-1.8
			C33.5,98.4,34.2,99.1,34.2,100.1z M31.8,100.1c0,0.6,0.2,1,0.7,1c0.4,0,0.7-0.4,0.7-1c0-0.5-0.2-1-0.7-1
			C32,99.1,31.8,99.6,31.8,100.1z"/>
		<path class="st5" d="M34.8,99.5c0-0.4,0-0.8,0-1.1h0.9l0,0.5h0c0.1-0.2,0.5-0.5,1-0.5c0.7,0,1.2,0.5,1.2,1.4v2h-1v-1.8
			c0-0.4-0.1-0.7-0.5-0.7c-0.3,0-0.5,0.2-0.5,0.4c0,0.1,0,0.2,0,0.3v1.9h-1V99.5z"/>
		<path class="st5" d="M40.4,99.6v0.7h-1.8v-0.7H40.4z"/>
		<path class="st5" d="M12.6,107.7c0-0.4,0-0.8,0-1.1h0.9l0,0.5h0c0.1-0.2,0.4-0.5,1-0.5c0.4,0,0.8,0.2,0.9,0.6h0
			c0.1-0.2,0.3-0.3,0.4-0.4c0.2-0.1,0.4-0.2,0.6-0.2c0.6,0,1.1,0.5,1.1,1.5v2h-1v-1.8c0-0.5-0.2-0.8-0.5-0.8c-0.2,0-0.4,0.2-0.5,0.4
			c0,0.1,0,0.2,0,0.3v2h-1v-1.9c0-0.4-0.1-0.7-0.5-0.7c-0.3,0-0.4,0.2-0.5,0.4c0,0.1,0,0.2,0,0.3v1.9h-1V107.7z"/>
		<path class="st5" d="M21.2,109.1c0,0.3,0,0.6,0.1,0.8h-0.9l-0.1-0.3h0c-0.2,0.3-0.6,0.4-1,0.4c-0.7,0-1.1-0.5-1.1-1
			c0-0.9,0.8-1.3,2-1.3v0c0-0.2-0.1-0.4-0.6-0.4c-0.3,0-0.7,0.1-0.9,0.3l-0.2-0.7c0.2-0.1,0.7-0.3,1.3-0.3c1.1,0,1.5,0.7,1.5,1.4
			V109.1z M20.2,108.4c-0.5,0-1,0.1-1,0.5c0,0.3,0.2,0.4,0.4,0.4c0.3,0,0.5-0.2,0.5-0.4c0-0.1,0-0.1,0-0.2V108.4z"/>
		<path class="st5" d="M23.1,108L23.1,108c0.1-0.1,0.2-0.3,0.3-0.4l0.7-1h1.2l-1.2,1.4l1.4,2h-1.3l-0.8-1.4l-0.3,0.3v1h-1v-4.8h1
			V108z"/>
		<path class="st5" d="M26.8,105.7c0,0.3-0.2,0.5-0.6,0.5c-0.3,0-0.5-0.2-0.5-0.5c0-0.3,0.2-0.5,0.6-0.5
			C26.6,105.2,26.8,105.4,26.8,105.7z M25.8,109.9v-3.3h1v3.3H25.8z"/>
		<path class="st5" d="M27.6,107.7c0-0.4,0-0.8,0-1.1h0.9l0,0.5h0c0.1-0.2,0.5-0.5,1-0.5c0.7,0,1.2,0.5,1.2,1.4v2h-1v-1.8
			c0-0.4-0.1-0.7-0.5-0.7c-0.3,0-0.5,0.2-0.5,0.4c0,0.1,0,0.2,0,0.3v1.9h-1V107.7z"/>
		<path class="st5" d="M34.8,109.5c0,0.6-0.1,1.2-0.5,1.5c-0.4,0.3-0.9,0.4-1.4,0.4c-0.4,0-0.9-0.1-1.2-0.3l0.2-0.8
			c0.2,0.1,0.6,0.3,1,0.3c0.5,0,0.9-0.3,0.9-0.9v-0.2h0c-0.2,0.3-0.5,0.4-0.9,0.4c-0.8,0-1.4-0.7-1.4-1.6c0-1.1,0.7-1.8,1.5-1.8
			c0.5,0,0.7,0.2,0.9,0.5h0l0-0.4h0.9c0,0.2,0,0.5,0,1V109.5z M33.7,108c0-0.1,0-0.1,0-0.2c-0.1-0.3-0.3-0.5-0.6-0.5
			c-0.4,0-0.7,0.3-0.7,0.9c0,0.5,0.2,0.9,0.7,0.9c0.3,0,0.5-0.2,0.6-0.4c0-0.1,0-0.2,0-0.3V108z"/>
		<path class="st5" d="M6.8,113.5h2.8v0.9H7.9v1.1h1.7v0.8H7.9v1.8h-1V113.5z"/>
		<path class="st5" d="M10.4,115.9c0-0.5,0-0.8,0-1.1h0.9l0,0.6h0c0.2-0.5,0.6-0.7,0.9-0.7c0.1,0,0.1,0,0.2,0v1c-0.1,0-0.2,0-0.3,0
			c-0.4,0-0.6,0.2-0.7,0.5c0,0.1,0,0.1,0,0.2v1.7h-1V115.9z"/>
		<path class="st5" d="M15.7,117.3c0,0.3,0,0.6,0.1,0.8h-0.9l-0.1-0.3h0c-0.2,0.3-0.6,0.4-1,0.4c-0.7,0-1.1-0.5-1.1-1
			c0-0.9,0.8-1.3,2-1.3v0c0-0.2-0.1-0.4-0.6-0.4c-0.3,0-0.7,0.1-0.9,0.3L13,115c0.2-0.1,0.7-0.3,1.3-0.3c1.1,0,1.5,0.7,1.5,1.4
			V117.3z M14.7,116.5c-0.5,0-1,0.1-1,0.5c0,0.3,0.2,0.4,0.4,0.4c0.3,0,0.5-0.2,0.5-0.4c0-0.1,0-0.1,0-0.2V116.5z"/>
		<path class="st5" d="M16.6,115.9c0-0.4,0-0.8,0-1.1h0.9l0,0.5h0c0.1-0.2,0.4-0.5,1-0.5c0.4,0,0.8,0.2,0.9,0.6h0
			c0.1-0.2,0.3-0.3,0.4-0.4c0.2-0.1,0.4-0.2,0.6-0.2c0.6,0,1.1,0.5,1.1,1.5v2h-1v-1.8c0-0.5-0.2-0.8-0.5-0.8c-0.2,0-0.4,0.2-0.5,0.4
			c0,0.1,0,0.2,0,0.3v2h-1v-1.9c0-0.4-0.1-0.7-0.5-0.7c-0.3,0-0.4,0.2-0.5,0.4c0,0.1,0,0.2,0,0.3v1.9h-1V115.9z"/>
		<path class="st5" d="M23.2,116.8c0,0.4,0.5,0.6,0.9,0.6c0.4,0,0.6,0,0.9-0.1l0.1,0.7c-0.3,0.1-0.8,0.2-1.2,0.2
			c-1.1,0-1.8-0.7-1.8-1.7c0-0.8,0.5-1.8,1.7-1.8c1.1,0,1.5,0.8,1.5,1.7c0,0.2,0,0.3,0,0.4H23.2z M24.5,116.1c0-0.3-0.1-0.7-0.6-0.7
			c-0.4,0-0.6,0.4-0.6,0.7H24.5z"/>
		<path class="st5" d="M26.7,114.8l0.3,1.4c0.1,0.3,0.1,0.7,0.2,1.1h0c0.1-0.4,0.2-0.8,0.2-1.1l0.4-1.4h0.8l0.3,1.3
			c0.1,0.4,0.2,0.8,0.2,1.1h0c0-0.4,0.1-0.8,0.2-1.1l0.3-1.3h1l-1,3.3h-1l-0.3-1.2c-0.1-0.3-0.1-0.6-0.2-1h0c-0.1,0.4-0.1,0.7-0.2,1
			l-0.3,1.2h-1l-1-3.3H26.7z"/>
		<path class="st5" d="M34.5,116.4c0,1.2-0.9,1.8-1.8,1.8c-1,0-1.7-0.6-1.7-1.7c0-1.1,0.7-1.8,1.8-1.8
			C33.8,114.7,34.5,115.4,34.5,116.4z M32.1,116.5c0,0.6,0.2,1,0.7,1c0.4,0,0.7-0.4,0.7-1c0-0.5-0.2-1-0.7-1
			C32.3,115.5,32.1,116,32.1,116.5z"/>
		<path class="st5" d="M35.1,115.9c0-0.5,0-0.8,0-1.1H36l0,0.6h0c0.2-0.5,0.6-0.7,0.9-0.7c0.1,0,0.1,0,0.2,0v1c-0.1,0-0.2,0-0.3,0
			c-0.4,0-0.6,0.2-0.7,0.5c0,0.1,0,0.1,0,0.2v1.7h-1V115.9z"/>
		<path class="st5" d="M38.8,116.2L38.8,116.2c0.1-0.1,0.2-0.3,0.3-0.4l0.7-1h1.2l-1.2,1.4l1.4,2h-1.3l-0.8-1.4l-0.3,0.3v1h-1v-4.8
			h1V116.2z"/>
	</g>
	<g>
		<path class="st5" d="M50.6,83.5h-1.7v1.1h1.9v0.9h-2.9v-4.6h2.8v0.9h-1.8v1h1.7V83.5z"/>
		<path class="st5" d="M51.5,84.5c0.2,0.1,0.6,0.2,0.9,0.2c0.3,0,0.4-0.1,0.4-0.3c0-0.2-0.1-0.3-0.5-0.4c-0.7-0.2-1-0.6-1-1
			c0-0.6,0.5-1.1,1.4-1.1c0.4,0,0.7,0.1,0.9,0.2l-0.2,0.7c-0.1-0.1-0.4-0.2-0.7-0.2c-0.3,0-0.4,0.1-0.4,0.3s0.1,0.2,0.5,0.4
			c0.6,0.2,0.9,0.5,0.9,1c0,0.6-0.5,1.1-1.4,1.1c-0.4,0-0.8-0.1-1.1-0.2L51.5,84.5z"/>
		<path class="st5" d="M55.6,81.2v0.9h0.7v0.8h-0.7v1.2c0,0.4,0.1,0.6,0.4,0.6c0.1,0,0.2,0,0.3,0l0,0.8c-0.1,0-0.4,0.1-0.7,0.1
			c-0.3,0-0.6-0.1-0.8-0.3c-0.2-0.2-0.3-0.5-0.3-1v-1.4h-0.4v-0.8h0.4v-0.6L55.6,81.2z"/>
		<path class="st5" d="M59.7,84.6c0,0.3,0,0.6,0.1,0.8h-0.9l-0.1-0.3h0c-0.2,0.3-0.6,0.4-1,0.4c-0.7,0-1.1-0.5-1.1-1
			c0-0.9,0.8-1.3,2-1.3v0c0-0.2-0.1-0.4-0.6-0.4c-0.3,0-0.7,0.1-0.9,0.3l-0.2-0.7c0.2-0.1,0.7-0.3,1.3-0.3c1.1,0,1.5,0.7,1.5,1.4
			V84.6z M58.7,83.8c-0.5,0-1,0.1-1,0.5c0,0.3,0.2,0.4,0.4,0.4c0.3,0,0.5-0.2,0.5-0.4c0-0.1,0-0.1,0-0.2V83.8z"/>
		<path class="st5" d="M60.5,80.6h1v1.9h0c0.2-0.3,0.5-0.5,1-0.5c0.8,0,1.4,0.7,1.4,1.7c0,1.2-0.8,1.8-1.5,1.8c-0.4,0-0.8-0.1-1-0.5
			h0l0,0.5h-0.9c0-0.2,0-0.6,0-1V80.6z M61.6,84c0,0.1,0,0.1,0,0.2c0.1,0.3,0.3,0.5,0.6,0.5c0.4,0,0.7-0.3,0.7-0.9
			c0-0.5-0.2-0.9-0.7-0.9c-0.3,0-0.5,0.2-0.6,0.5c0,0.1,0,0.1,0,0.2V84z"/>
		<path class="st5" d="M64.6,80.6h1v4.8h-1V80.6z"/>
		<path class="st5" d="M67.5,81.2c0,0.3-0.2,0.5-0.6,0.5c-0.3,0-0.5-0.2-0.5-0.5c0-0.3,0.2-0.5,0.6-0.5
			C67.3,80.6,67.5,80.9,67.5,81.2z M66.5,85.4v-3.3h1v3.3H66.5z"/>
		<path class="st5" d="M68.3,84.5c0.2,0.1,0.6,0.2,0.9,0.2c0.3,0,0.4-0.1,0.4-0.3c0-0.2-0.1-0.3-0.5-0.4c-0.7-0.2-1-0.6-1-1
			c0-0.6,0.5-1.1,1.4-1.1c0.4,0,0.7,0.1,0.9,0.2l-0.2,0.7c-0.1-0.1-0.4-0.2-0.7-0.2c-0.3,0-0.4,0.1-0.4,0.3s0.1,0.2,0.5,0.4
			c0.6,0.2,0.9,0.5,0.9,1c0,0.6-0.5,1.1-1.4,1.1c-0.4,0-0.8-0.1-1.1-0.2L68.3,84.5z"/>
		<path class="st5" d="M71.3,80.6h1v1.9h0c0.1-0.1,0.2-0.3,0.4-0.3c0.2-0.1,0.3-0.1,0.5-0.1c0.7,0,1.2,0.5,1.2,1.5v1.9h-1v-1.8
			c0-0.4-0.1-0.7-0.5-0.7c-0.3,0-0.4,0.2-0.5,0.4c0,0.1,0,0.1,0,0.2v2h-1V80.6z"/>
		<path class="st5" d="M76.1,84.1c0,0.4,0.5,0.6,0.9,0.6c0.4,0,0.6,0,0.9-0.1l0.1,0.7c-0.3,0.1-0.8,0.2-1.2,0.2
			c-1.1,0-1.8-0.7-1.8-1.7c0-0.8,0.5-1.8,1.7-1.8c1.1,0,1.5,0.8,1.5,1.7c0,0.2,0,0.3,0,0.4H76.1z M77.3,83.4c0-0.3-0.1-0.7-0.6-0.7
			c-0.4,0-0.6,0.4-0.6,0.7H77.3z"/>
		<path class="st5" d="M82.1,80.6v3.8c0,0.4,0,0.8,0,1h-0.9l0-0.5h0c-0.2,0.4-0.6,0.6-1,0.6c-0.8,0-1.4-0.7-1.4-1.7
			c0-1.1,0.7-1.8,1.5-1.8c0.4,0,0.7,0.1,0.9,0.4h0v-1.8H82.1z M81.1,83.5c0-0.1,0-0.1,0-0.2c-0.1-0.3-0.3-0.5-0.6-0.5
			c-0.5,0-0.7,0.4-0.7,0.9c0,0.6,0.3,0.9,0.7,0.9c0.3,0,0.5-0.2,0.6-0.5c0-0.1,0-0.2,0-0.2V83.5z"/>
		<path class="st5" d="M48.7,92.1l-0.5,1.4h-0.6l1.6-4.6h0.7l1.6,4.6h-0.6l-0.5-1.4H48.7z M50.2,91.7l-0.5-1.3
			c-0.1-0.3-0.2-0.6-0.2-0.8h0c-0.1,0.3-0.1,0.6-0.2,0.8l-0.5,1.3H50.2z"/>
		<path class="st5" d="M54.5,93.5c-0.2,0.1-0.5,0.2-0.9,0.2c-1,0-1.6-0.7-1.6-1.7c0-1,0.7-1.8,1.8-1.8c0.4,0,0.7,0.1,0.8,0.2
			l-0.1,0.5c-0.1-0.1-0.4-0.2-0.7-0.2c-0.8,0-1.2,0.6-1.2,1.2c0,0.8,0.5,1.2,1.1,1.2c0.3,0,0.6-0.1,0.7-0.2L54.5,93.5z"/>
		<path class="st5" d="M55.9,89.5v0.8h0.9v0.5h-0.9v1.8c0,0.4,0.1,0.6,0.5,0.6c0.2,0,0.3,0,0.3,0l0,0.5c-0.1,0-0.3,0.1-0.5,0.1
			c-0.3,0-0.5-0.1-0.6-0.3c-0.2-0.2-0.2-0.5-0.2-0.9v-1.8h-0.5v-0.5h0.5v-0.6L55.9,89.5z"/>
		<path class="st5" d="M58.1,89.4c0,0.2-0.1,0.4-0.4,0.4c-0.2,0-0.4-0.2-0.4-0.4s0.1-0.4,0.4-0.4C57.9,89,58.1,89.2,58.1,89.4z
			 M57.4,93.6v-3.3H58v3.3H57.4z"/>
		<path class="st5" d="M62,91.9c0,1.2-0.9,1.8-1.6,1.8c-0.9,0-1.6-0.7-1.6-1.7c0-1.1,0.7-1.7,1.6-1.7C61.4,90.2,62,90.9,62,91.9z
			 M59.4,91.9c0,0.7,0.4,1.3,1,1.3c0.6,0,1-0.5,1-1.3c0-0.6-0.3-1.3-1-1.3C59.7,90.7,59.4,91.3,59.4,91.9z"/>
		<path class="st5" d="M62.8,91.2c0-0.3,0-0.6,0-0.9h0.5l0,0.5h0c0.2-0.3,0.5-0.6,1.1-0.6c0.5,0,1.2,0.3,1.2,1.4v2H65v-1.9
			c0-0.5-0.2-1-0.8-1c-0.4,0-0.7,0.3-0.8,0.6c0,0.1,0,0.2,0,0.3v2h-0.6V91.2z"/>
		<path class="st5" d="M68,89.1c0.3,0,0.7-0.1,1.1-0.1c0.6,0,1,0.1,1.3,0.4c0.2,0.2,0.4,0.6,0.4,1c0,0.4-0.1,0.7-0.4,1
			c-0.3,0.3-0.8,0.5-1.4,0.5c-0.2,0-0.3,0-0.5,0v1.8H68V89.1z M68.6,91.3c0.1,0,0.3,0,0.5,0c0.7,0,1.2-0.4,1.2-1
			c0-0.6-0.4-0.9-1.1-0.9c-0.3,0-0.5,0-0.6,0V91.3z"/>
		<path class="st5" d="M71.6,88.8h0.6v4.8h-0.6V88.8z"/>
		<path class="st5" d="M75.5,92.8c0,0.3,0,0.6,0,0.8h-0.5l0-0.4h0c-0.2,0.3-0.5,0.5-1,0.5c-0.7,0-1-0.5-1-0.9c0-0.8,0.7-1.2,2-1.2
			v-0.1c0-0.3-0.1-0.8-0.8-0.8c-0.3,0-0.6,0.1-0.9,0.2l-0.1-0.4c0.3-0.2,0.7-0.3,1.1-0.3c1,0,1.3,0.7,1.3,1.3V92.8z M75,91.9
			c-0.7,0-1.4,0.1-1.4,0.7c0,0.4,0.3,0.6,0.6,0.6c0.4,0,0.7-0.3,0.8-0.6c0-0.1,0-0.1,0-0.2V91.9z"/>
		<path class="st5" d="M76.5,91.2c0-0.3,0-0.6,0-0.9H77l0,0.5h0c0.2-0.3,0.5-0.6,1.1-0.6c0.5,0,1.2,0.3,1.2,1.4v2h-0.6v-1.9
			c0-0.5-0.2-1-0.8-1c-0.4,0-0.7,0.3-0.8,0.6c0,0.1,0,0.2,0,0.3v2h-0.6V91.2z"/>
		<path class="st5" d="M80.2,93c0.2,0.1,0.5,0.2,0.8,0.2c0.4,0,0.6-0.2,0.6-0.5c0-0.3-0.2-0.4-0.6-0.6c-0.6-0.2-0.9-0.5-0.9-0.9
			c0-0.5,0.4-1,1.1-1c0.3,0,0.6,0.1,0.8,0.2L82,90.9c-0.1-0.1-0.4-0.2-0.7-0.2c-0.4,0-0.5,0.2-0.5,0.5c0,0.3,0.2,0.4,0.6,0.6
			c0.6,0.2,0.9,0.5,0.9,1c0,0.6-0.5,1-1.2,1c-0.4,0-0.7-0.1-0.9-0.2L80.2,93z"/>
	</g>
	<g>
		<path class="st5" d="M87.4,80.9c0.3-0.1,0.8-0.1,1.4-0.1c0.6,0,1.1,0.1,1.4,0.4c0.3,0.2,0.5,0.6,0.5,1.1s-0.1,0.8-0.4,1.1
			c-0.4,0.3-0.9,0.5-1.5,0.5c-0.1,0-0.3,0-0.4,0v1.7h-1V80.9z M88.5,83c0.1,0,0.2,0,0.3,0c0.6,0,0.9-0.3,0.9-0.7
			c0-0.4-0.3-0.7-0.8-0.7c-0.2,0-0.3,0-0.4,0V83z"/>
		<path class="st5" d="M91.4,83.2c0-0.5,0-0.8,0-1.1h0.9l0,0.6h0c0.2-0.5,0.6-0.7,0.9-0.7c0.1,0,0.1,0,0.2,0v1c-0.1,0-0.2,0-0.3,0
			c-0.4,0-0.6,0.2-0.7,0.5c0,0.1,0,0.1,0,0.2v1.7h-1V83.2z"/>
		<path class="st5" d="M94.8,84.1c0,0.4,0.5,0.6,0.9,0.6c0.4,0,0.6,0,0.9-0.1l0.1,0.7c-0.3,0.1-0.8,0.2-1.2,0.2
			c-1.1,0-1.8-0.7-1.8-1.7c0-0.8,0.5-1.8,1.7-1.8c1.1,0,1.5,0.8,1.5,1.7c0,0.2,0,0.3,0,0.4H94.8z M96,83.4c0-0.3-0.1-0.7-0.6-0.7
			c-0.4,0-0.6,0.4-0.6,0.7H96z"/>
		<path class="st5" d="M99,83.4v0.4h-1.7v-0.4H99z"/>
		<path class="st5" d="M102.1,84.6c0,0.3,0,0.6,0,0.8h-0.5l0-0.4h0c-0.2,0.3-0.5,0.5-1,0.5c-0.7,0-1-0.5-1-0.9c0-0.8,0.7-1.2,2-1.2
			v-0.1c0-0.3-0.1-0.8-0.8-0.8c-0.3,0-0.6,0.1-0.9,0.2l-0.1-0.4c0.3-0.2,0.7-0.3,1.1-0.3c1,0,1.3,0.7,1.3,1.3V84.6z M101.5,83.7
			c-0.7,0-1.4,0.1-1.4,0.7c0,0.4,0.3,0.6,0.6,0.6c0.4,0,0.7-0.3,0.8-0.6c0-0.1,0-0.1,0-0.2V83.7z"/>
		<path class="st5" d="M103,83.1c0-0.4,0-0.7,0-1h0.5l0,0.7h0c0.2-0.4,0.5-0.7,0.9-0.7c0.1,0,0.1,0,0.2,0v0.6c-0.1,0-0.1,0-0.2,0
			c-0.4,0-0.7,0.3-0.8,0.8c0,0.1,0,0.2,0,0.3v1.8H103V83.1z"/>
		<path class="st5" d="M105.2,83.1c0-0.4,0-0.7,0-1h0.5l0,0.7h0c0.2-0.4,0.5-0.7,0.9-0.7c0.1,0,0.1,0,0.2,0v0.6c-0.1,0-0.1,0-0.2,0
			c-0.4,0-0.7,0.3-0.8,0.8c0,0.1,0,0.2,0,0.3v1.8h-0.6V83.1z"/>
		<path class="st5" d="M109.8,84.6c0,0.3,0,0.6,0,0.8h-0.5l0-0.4h0c-0.2,0.3-0.5,0.5-1,0.5c-0.7,0-1-0.5-1-0.9c0-0.8,0.7-1.2,2-1.2
			v-0.1c0-0.3-0.1-0.8-0.8-0.8c-0.3,0-0.6,0.1-0.9,0.2l-0.1-0.4c0.3-0.2,0.7-0.3,1.1-0.3c1,0,1.3,0.7,1.3,1.3V84.6z M109.2,83.7
			c-0.7,0-1.4,0.1-1.4,0.7c0,0.4,0.3,0.6,0.6,0.6c0.4,0,0.7-0.3,0.8-0.6c0-0.1,0-0.1,0-0.2V83.7z"/>
		<path class="st5" d="M110.8,83c0-0.3,0-0.6,0-0.9h0.5l0,0.5h0c0.2-0.3,0.5-0.6,1.1-0.6c0.5,0,1.2,0.3,1.2,1.4v2H113v-1.9
			c0-0.5-0.2-1-0.8-1c-0.4,0-0.7,0.3-0.8,0.6c0,0.1,0,0.2,0,0.3v2h-0.6V83z"/>
		<path class="st5" d="M117.4,84.9c0,0.8-0.2,1.2-0.5,1.5c-0.3,0.3-0.8,0.4-1.2,0.4c-0.4,0-0.8-0.1-1.1-0.3l0.2-0.5
			c0.2,0.1,0.6,0.3,1,0.3c0.6,0,1.1-0.3,1.1-1.2v-0.4h0c-0.2,0.3-0.5,0.6-1.1,0.6c-0.8,0-1.4-0.7-1.4-1.6c0-1.1,0.7-1.7,1.5-1.7
			c0.6,0,0.9,0.3,1,0.6h0l0-0.5h0.5c0,0.2,0,0.5,0,0.9V84.9z M116.8,83.4c0-0.1,0-0.2,0-0.3c-0.1-0.4-0.4-0.6-0.8-0.6
			c-0.6,0-1,0.5-1,1.2c0,0.6,0.3,1.2,1,1.2c0.4,0,0.7-0.2,0.8-0.6c0-0.1,0-0.2,0-0.3V83.4z"/>
		<path class="st5" d="M118.7,83.9c0,0.8,0.5,1.1,1.1,1.1c0.4,0,0.7-0.1,0.9-0.2l0.1,0.4c-0.2,0.1-0.6,0.2-1.1,0.2
			c-1,0-1.6-0.7-1.6-1.7c0-1,0.6-1.8,1.5-1.8c1.1,0,1.4,0.9,1.4,1.5c0,0.1,0,0.2,0,0.3H118.7z M120.4,83.4c0-0.4-0.2-1-0.8-1
			c-0.6,0-0.9,0.6-0.9,1H120.4z"/>
		<path class="st5" d="M124.6,80.6v4c0,0.3,0,0.6,0,0.9h-0.5l0-0.6h0c-0.2,0.4-0.6,0.6-1.1,0.6c-0.8,0-1.4-0.7-1.4-1.7
			c0-1.1,0.7-1.8,1.5-1.8c0.5,0,0.8,0.2,1,0.5h0v-2H124.6z M124,83.5c0-0.1,0-0.2,0-0.3c-0.1-0.4-0.4-0.7-0.9-0.7
			c-0.6,0-1,0.5-1,1.3c0,0.7,0.3,1.2,1,1.2c0.4,0,0.8-0.3,0.9-0.7c0-0.1,0-0.2,0-0.3V83.5z"/>
		<path class="st5" d="M92.6,89H95v0.5h-1.9V91h1.7v0.5h-1.7v2.1h-0.6V89z"/>
		<path class="st5" d="M96.5,89.4c0,0.2-0.1,0.4-0.4,0.4c-0.2,0-0.4-0.2-0.4-0.4s0.1-0.4,0.4-0.4C96.4,89,96.5,89.2,96.5,89.4z
			 M95.9,93.6v-3.3h0.6v3.3H95.9z"/>
		<path class="st5" d="M97.5,91.2c0-0.3,0-0.6,0-0.9H98l0,0.5h0c0.2-0.3,0.5-0.6,1.1-0.6c0.5,0,1.2,0.3,1.2,1.4v2h-0.6v-1.9
			c0-0.5-0.2-1-0.8-1c-0.4,0-0.7,0.3-0.8,0.6c0,0.1,0,0.2,0,0.3v2h-0.6V91.2z"/>
		<path class="st5" d="M103.6,92.8c0,0.3,0,0.6,0,0.8h-0.5l0-0.4h0c-0.2,0.3-0.5,0.5-1,0.5c-0.7,0-1-0.5-1-0.9c0-0.8,0.7-1.2,2-1.2
			v-0.1c0-0.3-0.1-0.8-0.8-0.8c-0.3,0-0.6,0.1-0.9,0.2l-0.1-0.4c0.3-0.2,0.7-0.3,1.1-0.3c1,0,1.3,0.7,1.3,1.3V92.8z M103,91.9
			c-0.7,0-1.4,0.1-1.4,0.7c0,0.4,0.3,0.6,0.6,0.6c0.4,0,0.7-0.3,0.8-0.6c0-0.1,0-0.1,0-0.2V91.9z"/>
		<path class="st5" d="M104.5,91.2c0-0.3,0-0.6,0-0.9h0.5l0,0.5h0c0.2-0.3,0.5-0.6,1.1-0.6c0.5,0,1.2,0.3,1.2,1.4v2h-0.6v-1.9
			c0-0.5-0.2-1-0.8-1c-0.4,0-0.7,0.3-0.8,0.6c0,0.1,0,0.2,0,0.3v2h-0.6V91.2z"/>
		<path class="st5" d="M110.7,93.5c-0.2,0.1-0.5,0.2-0.9,0.2c-1,0-1.6-0.7-1.6-1.7c0-1,0.7-1.8,1.8-1.8c0.4,0,0.7,0.1,0.8,0.2
			l-0.1,0.5c-0.1-0.1-0.4-0.2-0.7-0.2c-0.8,0-1.2,0.6-1.2,1.2c0,0.8,0.5,1.2,1.1,1.2c0.3,0,0.6-0.1,0.7-0.2L110.7,93.5z"/>
		<path class="st5" d="M112,89.4c0,0.2-0.1,0.4-0.4,0.4c-0.2,0-0.4-0.2-0.4-0.4s0.1-0.4,0.4-0.4C111.9,89,112,89.2,112,89.4z
			 M111.4,93.6v-3.3h0.6v3.3H111.4z"/>
		<path class="st5" d="M113,91.2c0-0.3,0-0.6,0-0.9h0.5l0,0.5h0c0.2-0.3,0.5-0.6,1.1-0.6c0.5,0,1.2,0.3,1.2,1.4v2h-0.6v-1.9
			c0-0.5-0.2-1-0.8-1c-0.4,0-0.7,0.3-0.8,0.6c0,0.1,0,0.2,0,0.3v2H113V91.2z"/>
		<path class="st5" d="M119.6,93.1c0,0.8-0.2,1.2-0.5,1.5c-0.3,0.3-0.8,0.4-1.2,0.4c-0.4,0-0.8-0.1-1.1-0.3l0.2-0.5
			c0.2,0.1,0.6,0.3,1,0.3c0.6,0,1.1-0.3,1.1-1.2V93h0c-0.2,0.3-0.5,0.6-1.1,0.6c-0.8,0-1.4-0.7-1.4-1.6c0-1.1,0.7-1.7,1.5-1.7
			c0.6,0,0.9,0.3,1,0.6h0l0-0.5h0.5c0,0.2,0,0.5,0,0.9V93.1z M119,91.6c0-0.1,0-0.2,0-0.3c-0.1-0.4-0.4-0.6-0.8-0.6
			c-0.6,0-1,0.5-1,1.2c0,0.6,0.3,1.2,1,1.2c0.4,0,0.7-0.2,0.8-0.6c0-0.1,0-0.2,0-0.3V91.6z"/>
	</g>
	<g>
		<path class="st5" d="M172.7,84.6l-0.4,1.3h-1.2l1.5-5h1.5l1.6,5h-1.2l-0.4-1.3H172.7z M174,83.7l-0.3-1.1c-0.1-0.3-0.2-0.7-0.3-1
			h0c-0.1,0.3-0.1,0.7-0.2,1l-0.3,1.1H174z"/>
		<path class="st5" d="M176.4,83.4c0-0.5,0-0.8,0-1.2h1l0.1,0.5h0c0.1-0.2,0.5-0.6,1.1-0.6c0.7,0,1.3,0.5,1.3,1.6v2.2h-1.1v-2
			c0-0.5-0.2-0.8-0.6-0.8c-0.3,0-0.5,0.2-0.6,0.4c0,0.1,0,0.2,0,0.3v2.1h-1.1V83.4z"/>
		<path class="st5" d="M182.1,81.2v1h0.8v0.8h-0.8v1.3c0,0.4,0.1,0.6,0.4,0.6c0.2,0,0.2,0,0.3,0l0,0.9c-0.1,0.1-0.4,0.1-0.7,0.1
			c-0.4,0-0.7-0.1-0.9-0.3c-0.2-0.2-0.3-0.6-0.3-1.1v-1.5h-0.5v-0.8h0.5v-0.7L182.1,81.2z"/>
		<path class="st5" d="M184.7,81.2c0,0.3-0.2,0.6-0.6,0.6c-0.4,0-0.6-0.3-0.6-0.6c0-0.3,0.2-0.6,0.6-0.6
			C184.5,80.6,184.7,80.9,184.7,81.2z M183.6,85.9v-3.7h1.1v3.7H183.6z"/>
		<path class="st5" d="M188.4,85.8c-0.2,0.1-0.6,0.2-1,0.2c-1.2,0-1.9-0.7-1.9-1.9c0-1.1,0.7-1.9,2.1-1.9c0.3,0,0.6,0.1,0.9,0.1
			l-0.2,0.8c-0.1-0.1-0.3-0.1-0.6-0.1c-0.6,0-1,0.4-1,1c0,0.7,0.4,1,1,1c0.3,0,0.5,0,0.7-0.1L188.4,85.8z"/>
		<path class="st5" d="M190.2,81.2c0,0.3-0.2,0.6-0.6,0.6c-0.4,0-0.6-0.3-0.6-0.6c0-0.3,0.2-0.6,0.6-0.6
			C189.9,80.6,190.2,80.9,190.2,81.2z M189,85.9v-3.7h1.1v3.7H189z"/>
		<path class="st5" d="M191.1,83.5c0-0.5,0-0.9,0-1.2h1l0.1,0.5h0c0.3-0.4,0.7-0.6,1.2-0.6c0.8,0,1.5,0.7,1.5,1.9c0,1.3-0.8,2-1.7,2
			c-0.4,0-0.8-0.2-1-0.4h0v1.8h-1.1V83.5z M192.2,84.3c0,0.1,0,0.2,0,0.2c0.1,0.3,0.3,0.5,0.7,0.5c0.5,0,0.8-0.4,0.8-1
			c0-0.6-0.3-1-0.8-1c-0.3,0-0.6,0.2-0.7,0.6c0,0.1,0,0.1,0,0.2V84.3z"/>
		<path class="st5" d="M198.6,85c0,0.3,0,0.7,0.1,0.9h-1l-0.1-0.4h0c-0.2,0.3-0.6,0.4-1,0.4c-0.7,0-1.2-0.5-1.2-1.1
			c0-1,0.9-1.4,2.2-1.4v0c0-0.2-0.1-0.5-0.7-0.5c-0.4,0-0.8,0.1-1,0.3l-0.2-0.7c0.3-0.1,0.8-0.3,1.4-0.3c1.2,0,1.6,0.7,1.6,1.6V85z
			 M197.5,84.2c-0.6,0-1.1,0.1-1.1,0.6c0,0.3,0.2,0.4,0.4,0.4c0.3,0,0.5-0.2,0.6-0.4c0-0.1,0-0.1,0-0.2V84.2z"/>
		<path class="st5" d="M200.8,81.2v1h0.8v0.8h-0.8v1.3c0,0.4,0.1,0.6,0.4,0.6c0.2,0,0.2,0,0.3,0l0,0.9c-0.1,0.1-0.4,0.1-0.7,0.1
			c-0.4,0-0.7-0.1-0.9-0.3c-0.2-0.2-0.3-0.6-0.3-1.1v-1.5h-0.5v-0.8h0.5v-0.7L200.8,81.2z"/>
		<path class="st5" d="M205.9,84c0,1.3-1,2-1.9,2c-1.1,0-1.9-0.7-1.9-1.9c0-1.2,0.8-1.9,2-1.9C205.1,82.1,205.9,82.9,205.9,84z
			 M203.2,84.1c0,0.6,0.3,1.1,0.7,1.1c0.4,0,0.7-0.4,0.7-1.1c0-0.5-0.2-1.1-0.7-1.1C203.4,83,203.2,83.5,203.2,84.1z"/>
		<path class="st5" d="M206.6,83.4c0-0.5,0-0.9,0-1.2h1l0,0.7h0c0.2-0.5,0.6-0.8,1-0.8c0.1,0,0.2,0,0.2,0v1.1c-0.1,0-0.2,0-0.3,0
			c-0.4,0-0.7,0.2-0.8,0.6c0,0.1,0,0.2,0,0.3v1.9h-1.1V83.4z"/>
		<path class="st5" d="M210.3,82.2l0.5,1.8c0.1,0.2,0.1,0.5,0.2,0.7h0c0-0.2,0.1-0.5,0.2-0.7l0.5-1.8h1.2l-0.9,2.4
			c-0.5,1.5-0.9,2-1.3,2.4c-0.4,0.3-0.8,0.5-1.1,0.5l-0.2-1c0.1,0,0.3-0.1,0.5-0.2c0.2-0.1,0.4-0.3,0.5-0.5c0-0.1,0.1-0.1,0.1-0.2
			c0,0,0-0.1,0-0.2l-1.3-3.4H210.3z"/>
		<path class="st5" d="M182.7,93.6l-0.4,1.3h-1.2l1.5-5h1.5l1.6,5h-1.2l-0.4-1.3H182.7z M184,92.7l-0.3-1.1c-0.1-0.3-0.2-0.7-0.3-1
			h0c-0.1,0.3-0.1,0.7-0.2,1l-0.3,1.1H184z"/>
		<path class="st5" d="M189.2,94.8c-0.2,0.1-0.6,0.2-1,0.2c-1.2,0-1.9-0.7-1.9-1.9c0-1.1,0.7-1.9,2.1-1.9c0.3,0,0.6,0.1,0.9,0.1
			l-0.2,0.8c-0.1-0.1-0.3-0.1-0.6-0.1c-0.6,0-1,0.4-1,1c0,0.7,0.4,1,1,1c0.3,0,0.5,0,0.7-0.1L189.2,94.8z"/>
		<path class="st5" d="M191.1,90.2v1h0.8v0.8h-0.8v1.3c0,0.4,0.1,0.6,0.4,0.6c0.2,0,0.2,0,0.3,0l0,0.9c-0.1,0.1-0.4,0.1-0.7,0.1
			c-0.4,0-0.7-0.1-0.9-0.3c-0.2-0.2-0.3-0.6-0.3-1.1v-1.5h-0.5v-0.8h0.5v-0.7L191.1,90.2z"/>
		<path class="st5" d="M193.7,90.2c0,0.3-0.2,0.6-0.6,0.6c-0.4,0-0.6-0.3-0.6-0.6c0-0.3,0.2-0.6,0.6-0.6
			C193.5,89.6,193.7,89.9,193.7,90.2z M192.6,94.9v-3.7h1.1v3.7H192.6z"/>
		<path class="st5" d="M198.2,93c0,1.3-1,2-1.9,2c-1.1,0-1.9-0.7-1.9-1.9c0-1.2,0.8-1.9,2-1.9C197.5,91.1,198.2,91.9,198.2,93z
			 M195.6,93.1c0,0.6,0.3,1.1,0.7,1.1c0.4,0,0.7-0.4,0.7-1.1c0-0.5-0.2-1.1-0.7-1.1C195.8,92,195.6,92.5,195.6,93.1z"/>
		<path class="st5" d="M198.9,92.4c0-0.5,0-0.8,0-1.2h1l0.1,0.5h0c0.1-0.2,0.5-0.6,1.1-0.6c0.7,0,1.3,0.5,1.3,1.6v2.2h-1.1v-2
			c0-0.5-0.2-0.8-0.6-0.8c-0.3,0-0.5,0.2-0.6,0.4c0,0.1,0,0.2,0,0.3v2.1h-1.1V92.4z"/>
	</g>
	<g>
		<path class="st5" d="M229.3,80.9c0.4-0.1,0.9-0.1,1.5-0.1c0.7,0,1.3,0.1,1.6,0.4c0.3,0.2,0.5,0.6,0.5,1.1c0,0.6-0.5,1.1-0.9,1.2v0
			c0.4,0.1,0.5,0.5,0.7,0.9c0.2,0.6,0.3,1.2,0.4,1.4h-1.2c-0.1-0.1-0.2-0.6-0.3-1.2c-0.1-0.6-0.4-0.8-0.8-0.8h-0.3v2h-1.1V80.9z
			 M230.4,83.1h0.4c0.6,0,0.9-0.3,0.9-0.7c0-0.5-0.3-0.7-0.8-0.7c-0.3,0-0.4,0-0.5,0V83.1z"/>
		<path class="st5" d="M234.5,84.4c0,0.5,0.5,0.7,1,0.7c0.4,0,0.7-0.1,1-0.2l0.1,0.8c-0.4,0.2-0.8,0.2-1.3,0.2c-1.2,0-2-0.7-2-1.9
			c0-0.9,0.6-2,1.9-2c1.2,0,1.6,0.9,1.6,1.8c0,0.2,0,0.4,0,0.4H234.5z M235.9,83.7c0-0.3-0.1-0.7-0.6-0.7c-0.5,0-0.7,0.4-0.7,0.7
			H235.9z"/>
		<path class="st5" d="M241.2,80.6v4.2c0,0.4,0,0.8,0,1.1h-1l0-0.5h0c-0.2,0.4-0.7,0.6-1.1,0.6c-0.9,0-1.6-0.7-1.6-1.9
			c0-1.2,0.8-2,1.6-2c0.5,0,0.8,0.2,1,0.4h0v-2H241.2z M240,83.8c0-0.1,0-0.1,0-0.2c-0.1-0.3-0.3-0.6-0.7-0.6c-0.5,0-0.8,0.5-0.8,1
			c0,0.6,0.3,1,0.8,1c0.3,0,0.6-0.2,0.7-0.5c0-0.1,0-0.2,0-0.3V83.8z"/>
		<path class="st5" d="M245.5,84.7c0,0.5,0,0.9,0,1.2h-1l-0.1-0.5h0c-0.1,0.2-0.5,0.6-1.1,0.6c-0.7,0-1.3-0.5-1.3-1.6v-2.2h1.1v2
			c0,0.5,0.2,0.9,0.6,0.9c0.3,0,0.5-0.2,0.6-0.4c0-0.1,0-0.1,0-0.2v-2.2h1.1V84.7z"/>
		<path class="st5" d="M249.2,85.8c-0.2,0.1-0.6,0.2-1,0.2c-1.2,0-1.9-0.7-1.9-1.9c0-1.1,0.7-1.9,2.1-1.9c0.3,0,0.6,0.1,0.9,0.1
			l-0.2,0.8c-0.1-0.1-0.3-0.1-0.6-0.1c-0.6,0-1,0.4-1,1c0,0.7,0.4,1,1,1c0.3,0,0.5,0,0.7-0.1L249.2,85.8z"/>
		<path class="st5" d="M250.7,84.4c0,0.5,0.5,0.7,1,0.7c0.4,0,0.7-0.1,1-0.2l0.1,0.8c-0.4,0.2-0.8,0.2-1.3,0.2c-1.2,0-2-0.7-2-1.9
			c0-0.9,0.6-2,1.9-2c1.2,0,1.6,0.9,1.6,1.8c0,0.2,0,0.4,0,0.4H250.7z M252.1,83.7c0-0.3-0.1-0.7-0.6-0.7c-0.5,0-0.7,0.4-0.7,0.7
			H252.1z"/>
		<path class="st5" d="M257.4,80.6v4.2c0,0.4,0,0.8,0,1.1h-1l0-0.5h0c-0.2,0.4-0.7,0.6-1.1,0.6c-0.9,0-1.6-0.7-1.6-1.9
			c0-1.2,0.8-2,1.6-2c0.5,0,0.8,0.2,1,0.4h0v-2H257.4z M256.2,83.8c0-0.1,0-0.1,0-0.2c-0.1-0.3-0.3-0.6-0.7-0.6
			c-0.5,0-0.8,0.5-0.8,1c0,0.6,0.3,1,0.8,1c0.3,0,0.6-0.2,0.7-0.5c0-0.1,0-0.2,0-0.3V83.8z"/>
		<path class="st5" d="M238.5,94.8c-0.2,0.1-0.7,0.2-1.3,0.2c-1.7,0-2.6-1.1-2.6-2.5c0-1.7,1.2-2.7,2.8-2.7c0.6,0,1,0.1,1.2,0.2
			l-0.2,0.9c-0.2-0.1-0.5-0.2-1-0.2c-0.9,0-1.6,0.5-1.6,1.7c0,1,0.6,1.6,1.6,1.6c0.4,0,0.7-0.1,1-0.2L238.5,94.8z"/>
		<path class="st5" d="M239.2,92.4c0-0.5,0-0.9,0-1.2h1l0,0.7h0c0.2-0.5,0.6-0.8,1-0.8c0.1,0,0.2,0,0.2,0v1.1c-0.1,0-0.2,0-0.3,0
			c-0.4,0-0.7,0.2-0.8,0.6c0,0.1,0,0.2,0,0.3v1.9h-1.1V92.4z"/>
		<path class="st5" d="M243.3,90.2c0,0.3-0.2,0.6-0.6,0.6c-0.4,0-0.6-0.3-0.6-0.6c0-0.3,0.2-0.6,0.6-0.6
			C243,89.6,243.3,89.9,243.3,90.2z M242.1,94.9v-3.7h1.1v3.7H242.1z"/>
		<path class="st5" d="M244.1,93.9c0.2,0.1,0.6,0.3,1,0.3c0.3,0,0.5-0.1,0.5-0.3c0-0.2-0.1-0.3-0.5-0.4c-0.8-0.3-1.1-0.7-1-1.1
			c0-0.7,0.6-1.2,1.5-1.2c0.4,0,0.8,0.1,1,0.2l-0.2,0.8c-0.2-0.1-0.5-0.2-0.8-0.2c-0.3,0-0.4,0.1-0.4,0.3c0,0.2,0.1,0.3,0.6,0.4
			c0.7,0.2,1,0.6,1,1.1c0,0.7-0.5,1.2-1.6,1.2c-0.5,0-0.9-0.1-1.2-0.3L244.1,93.9z"/>
		<path class="st5" d="M248.6,90.2c0,0.3-0.2,0.6-0.6,0.6c-0.4,0-0.6-0.3-0.6-0.6c0-0.3,0.2-0.6,0.6-0.6
			C248.3,89.6,248.6,89.9,248.6,90.2z M247.4,94.9v-3.7h1.1v3.7H247.4z"/>
		<path class="st5" d="M249.4,93.9c0.2,0.1,0.6,0.3,1,0.3c0.3,0,0.5-0.1,0.5-0.3c0-0.2-0.1-0.3-0.5-0.4c-0.8-0.3-1.1-0.7-1-1.1
			c0-0.7,0.6-1.2,1.5-1.2c0.4,0,0.8,0.1,1,0.2l-0.2,0.8c-0.2-0.1-0.5-0.2-0.8-0.2c-0.3,0-0.4,0.1-0.4,0.3c0,0.2,0.1,0.3,0.6,0.4
			c0.7,0.2,1,0.6,1,1.1c0,0.7-0.5,1.2-1.6,1.2c-0.5,0-0.9-0.1-1.2-0.3L249.4,93.9z"/>
	</g>
	<g>
		<g class="st6">
			
				<image style="overflow:visible;opacity:0.2;" width="354" height="354" xlink:href="1306E8BF3BBD5C73.png"  transform="matrix(0.24 0 0 0.24 111.514 9.7946)">
			</image>
			<g>
				<g>
					<g>
						<g>
							
								<linearGradient id="SVGID_1_" gradientUnits="userSpaceOnUse" x1="683.7738" y1="-158.9143" x2="681.3022" y2="-49.1073" gradientTransform="matrix(-1.961531e-08 -1 1 -1.961531e-08 307.4572 730.2389)">
								<stop  offset="0" style="stop-color:#F7A400"/>
								<stop  offset="1" style="stop-color:#3855A2"/>
							</linearGradient>
							<circle class="st7" cx="151.1" cy="46.5" r="25.4"/>
						</g>
					</g>
				</g>
			</g>
		</g>
		<g>
			<g>
				<path class="st8" d="M140.7,52.5l-4.4,4.4c-1,1-1,2.6,0,3.6c1,1,2.6,1,3.6,0l4.4-4.4C142.8,55.1,141.6,53.9,140.7,52.5z"/>
				<path class="st8" d="M152.6,31.9c-6.7,0-12.2,5.5-12.2,12.2s5.5,12.2,12.2,12.2c6.7,0,12.2-5.5,12.2-12.2S159.4,31.9,152.6,31.9
					z M159.4,50.3c-1,1.1-2.2,1.9-3.7,2.4c-0.4,0.1-0.8,0.3-1.2,0.3c-0.6,0.1-1.2,0.2-1.8,0.2c-0.6,0-1.2-0.1-1.8-0.2
					c-0.4-0.1-0.8-0.2-1.2-0.3c-1.4-0.5-2.7-1.3-3.7-2.4c-1.5-1.6-2.4-3.8-2.4-6.2c0-5.1,4.1-9.2,9.2-9.2c5.1,0,9.2,4.1,9.2,9.2
					C161.8,46.5,160.9,48.7,159.4,50.3z"/>
			</g>
			<path class="st8" d="M159.8,44.3l0-3.8c0-0.4-0.3-0.8-0.8-0.8l-3.8,0c-0.4,0-0.8,0.3-0.8,0.8c0,0.4,0.3,0.8,0.8,0.8l1.4,0
				l-3.8,3.8l-0.8-1.4c-0.2-0.3-0.4-0.5-0.7-0.5c-0.3-0.1-0.6,0-0.9,0.2l-4.3,3.9c-0.4,0.4-0.5,1-0.1,1.5c0.1,0.2,0.3,0.3,0.5,0.3
				c0.3,0.1,0.7,0,1-0.2l3.4-3l0.8,1.4c0.2,0.3,0.4,0.5,0.8,0.5c0.3,0,0.6-0.1,0.9-0.3l4.8-4.8l0,1.6c0,0.4,0.2,0.7,0.6,0.7
				c0.1,0,0.1,0,0.2,0C159.5,45.1,159.8,44.7,159.8,44.3z"/>
		</g>
	</g>
	<g>
		<g class="st6">
			
				<image style="overflow:visible;opacity:0.2;" width="289" height="288" xlink:href="1306E8BF3BBD5C71.png"  transform="matrix(0.24 0 0 0.24 -4.886 20.5946)">
			</image>
			<g>
				<g>
					<g>
						<g>
							
								<linearGradient id="SVGID_2_" gradientUnits="userSpaceOnUse" x1="682.0391" y1="-335.7347" x2="680.334" y2="-259.9844" gradientTransform="matrix(-1.961531e-08 -1 1 -1.961531e-08 307.4572 730.2389)">
								<stop  offset="0" style="stop-color:#F7A400"/>
								<stop  offset="1" style="stop-color:#3855A2"/>
							</linearGradient>
							<circle class="st9" cx="26.9" cy="49.4" r="17.5"/>
						</g>
					</g>
				</g>
			</g>
		</g>
		<g>
			<g>
				<path class="st8" d="M19.9,53.9L16.8,57c-0.7,0.7-0.7,1.8,0,2.5c0.7,0.7,1.8,0.7,2.5,0l3.1-3.1C21.5,55.7,20.6,54.9,19.9,53.9z"
					/>
				<path class="st8" d="M28.5,39.2c-4.8,0-8.7,3.9-8.7,8.7s3.9,8.7,8.7,8.7s8.7-3.9,8.7-8.7S33.3,39.2,28.5,39.2z M33.3,52.3
					c-0.7,0.8-1.6,1.4-2.6,1.7c-0.3,0.1-0.6,0.2-0.9,0.2c-0.4,0.1-0.9,0.1-1.3,0.1s-0.9,0-1.3-0.1c-0.3-0.1-0.6-0.1-0.9-0.2
					c-1-0.4-1.9-1-2.6-1.7c-1.1-1.2-1.7-2.7-1.7-4.4c0-3.6,2.9-6.5,6.5-6.5s6.5,2.9,6.5,6.5C35,49.6,34.4,51.1,33.3,52.3z"/>
			</g>
			<path class="st8" d="M33.6,48l0-2.7c0-0.3-0.2-0.6-0.6-0.6l-2.7,0c-0.3,0-0.6,0.2-0.6,0.6c0,0.3,0.2,0.6,0.6,0.6l1,0l-2.7,2.7
				l-0.5-1c-0.1-0.2-0.3-0.3-0.5-0.4c-0.2,0-0.4,0-0.6,0.2L24,50.2c-0.3,0.3-0.3,0.7-0.1,1c0.1,0.1,0.2,0.2,0.3,0.2
				c0.2,0.1,0.5,0,0.7-0.2l2.4-2.1l0.6,1c0.1,0.2,0.3,0.3,0.5,0.4c0.2,0,0.5,0,0.6-0.2l3.4-3.4l0,1.1c0,0.3,0.2,0.5,0.4,0.5
				c0,0,0.1,0,0.2,0C33.4,48.6,33.6,48.3,33.6,48z"/>
		</g>
	</g>
	<g>
		<g class="st6">
			
				<image style="overflow:visible;opacity:0.2;" width="288" height="288" xlink:href="1306E8BF3BBD5C77.png"  transform="matrix(0.24 0 0 0.24 71.914 20.5946)">
			</image>
			<g>
				<g>
					<g>
						<g>
							
								<linearGradient id="SVGID_3_" gradientUnits="userSpaceOnUse" x1="682.0391" y1="-258.9895" x2="680.334" y2="-183.2392" gradientTransform="matrix(-1.961531e-08 -1 1 -1.961531e-08 307.4572 730.2389)">
								<stop  offset="0" style="stop-color:#F7A400"/>
								<stop  offset="1" style="stop-color:#3855A2"/>
							</linearGradient>
							<circle class="st10" cx="103.6" cy="49.4" r="17.5"/>
						</g>
					</g>
				</g>
			</g>
		</g>
		<g>
			<path class="st8" d="M114.3,42.9H95.9c-0.2,0-0.4,0.2-0.4,0.4V46h7.2c0.5-0.8,1.4-1.3,2.5-1.3c1,0,1.9,0.5,2.5,1.3h4.5
				c0.7,0,1.3,0.6,1.3,1.3v4.9h0.9c0.2,0,0.4-0.2,0.4-0.4v-8.5C114.7,43.1,114.5,42.9,114.3,42.9z"/>
			<path class="st8" d="M112,46.9h-4.1h-5.7h-6.8h-1.8c-0.2,0-0.4,0.2-0.4,0.4v8.5c0,0.2,0.2,0.4,0.4,0.4H112c0.2,0,0.4-0.2,0.4-0.4
				v-3.6v-4.9C112.5,47.1,112.3,46.9,112,46.9z M95.9,53.2c-0.7,0-1.3-0.6-1.3-1.3c0-0.6,0.4-1.1,0.9-1.3c0.1-0.1,0.3-0.1,0.4-0.1
				c0.7,0,1.3,0.6,1.3,1.3c0,0.2,0,0.3-0.1,0.4C97,52.8,96.5,53.2,95.9,53.2z M102.9,54.5c-1.4,0-2.5-1-2.8-2.2
				c-0.1-0.2-0.1-0.4-0.1-0.7c0-1.5,1.1-2.7,2.5-2.9c0.1,0,0.3,0,0.4,0c1.2,0,2.2,0.7,2.7,1.8c0.2,0.4,0.2,0.7,0.2,1.2
				c0,0.2,0,0.5-0.1,0.7C105.4,53.6,104.3,54.5,102.9,54.5z M109.8,53c-0.5,0-0.9-0.3-1.2-0.7c-0.1-0.2-0.2-0.4-0.2-0.7
				c0-0.7,0.6-1.3,1.3-1.3s1.3,0.6,1.3,1.3c0,0.2-0.1,0.5-0.2,0.7C110.7,52.7,110.3,53,109.8,53z"/>
		</g>
	</g>
	<g>
		<path class="st11" d="M258.4,56.1l-13.1-22.7c-0.9-1.5-3.1-1.5-4,0l-13.1,22.7c-0.6,1,0.1,2.3,1.3,2.3H257
			C258.2,58.4,259,57.1,258.4,56.1z M243.3,54c-0.7,0-1.3-0.6-1.3-1.3c0-0.7,0.6-1.3,1.3-1.3s1.3,0.6,1.3,1.3
			C244.6,53.4,244,54,243.3,54z M244.6,48.2c0,0.7-0.6,1.3-1.3,1.3s-1.3-0.6-1.3-1.3v-7c0-0.7,0.6-1.3,1.3-1.3s1.3,0.6,1.3,1.3V48.2
			z"/>
	</g>
	<g>
		<g class="st6">
			
				<image style="overflow:visible;opacity:0.2;" width="289" height="288" xlink:href="1306E8BF3BBD5C70.png"  transform="matrix(0.24 0 0 0.24 33.514 20.5946)">
			</image>
			<g>
				<g>
					<g>
						<g>
							
								<linearGradient id="SVGID_4_" gradientUnits="userSpaceOnUse" x1="682.0391" y1="-297.3621" x2="680.334" y2="-221.6118" gradientTransform="matrix(-1.961531e-08 -1 1 -1.961531e-08 307.4572 730.2389)">
								<stop  offset="0" style="stop-color:#F7A400"/>
								<stop  offset="1" style="stop-color:#3855A2"/>
							</linearGradient>
							<circle class="st12" cx="65.2" cy="49.4" r="17.5"/>
						</g>
					</g>
				</g>
			</g>
		</g>
		<path class="st8" d="M76.4,52.4L72,48c-0.4-0.4-1-0.5-1.5-0.2c-0.6,0.4-0.6,1.2-0.1,1.7l2.5,2.6h-6.6c-0.6,0-1.2,0.1-1.8,0.2
			c0-0.3,0.1-0.6,0.1-1v-8.2l2.6,2.5c0.4,0.4,1.1,0.4,1.6,0c0.4-0.4,0.4-1.1,0-1.6l-4.5-4.5c-0.4-0.4-1.1-0.4-1.6,0l-4.5,4.5
			c-0.2,0.2-0.3,0.5-0.3,0.8s0.1,0.6,0.3,0.8c0.4,0.4,1.1,0.4,1.6,0l2.6-2.5v8.4c0,2.7-2.2,4.5-5,4.5c-0.6,0-1.1,0.6-1.1,1.1
			c0,0.6,0.5,1.1,1.1,1.1c2.5,0,4.7-1.1,6-2.9c0,0,0,0,0,0c0.7-0.6,1.7-1,2.8-1h6.7l-2.5,2.6c-0.4,0.4-0.4,1.1,0,1.6
			c0.2,0.2,0.5,0.3,0.8,0.3c0.3,0,0.6-0.1,0.8-0.3l4.5-4.5C76.8,53.6,76.8,52.9,76.4,52.4z"/>
	</g>
	<g>
		<g class="st6">
			
				<image style="overflow:visible;opacity:0.2;" width="332" height="332" xlink:href="1306E8BF3BBD5C7E.png"  transform="matrix(0.24 0 0 0.24 155.674 12.4346)">
			</image>
			<g>
				<g>
					<g>
						<g>
							
								<linearGradient id="SVGID_5_" gradientUnits="userSpaceOnUse" x1="686.105" y1="-220.9248" x2="683.8959" y2="-122.7738" gradientTransform="matrix(-1.961531e-08 -1 1 -1.961531e-08 307.4572 730.2389)">
								<stop  offset="0" style="stop-color:#F7A400"/>
								<stop  offset="1" style="stop-color:#3855A2"/>
							</linearGradient>
							<path class="st13" d="M169.9,46.5c0-12.5,10.1-22.7,22.7-22.7c12.5,0,22.7,8.4,22.7,21s-10.1,24.4-22.7,24.4
								C180.1,69.2,169.9,59,169.9,46.5z"/>
						</g>
					</g>
				</g>
			</g>
		</g>
		<g>
			<path class="st8" d="M186.5,47.7C186.5,47.7,186.5,47.7,186.5,47.7C186.5,47.7,186.5,47.7,186.5,47.7c0.1-0.1,0.2-0.2,0.2-0.3
				c0,0,0,0,0,0c0-0.1,0.1-0.2,0.1-0.4c0,0,0,0,0,0c0,0,0,0,0,0c0-0.1,0-0.2-0.1-0.4c0,0,0,0,0,0c-0.1-0.1-0.1-0.2-0.2-0.3
				c0,0,0,0,0,0c0,0,0,0,0,0l-3.4-3.4c-0.4-0.4-1-0.4-1.4,0c-0.4,0.4-0.4,1,0,1.4l1.7,1.7h-7.8c-0.6,0-1,0.5-1,1s0.5,1,1,1h7.8
				l-1.7,1.7c-0.4,0.4-0.4,1,0,1.4c0.4,0.4,1,0.4,1.4,0L186.5,47.7z"/>
			<g>
				<g>
					<path class="st14" d="M203.3,55.1h-0.9v-3.5c0-2-1.3-3.8-3.5-4.7c2.2-0.9,3.6-2.7,3.5-4.7v-4.3h0.9c0.5,0,0.9-0.4,0.9-0.8
						c0-0.4-0.4-0.8-0.9-0.8H190c-0.5,0-0.9,0.4-0.9,0.8c0,0.4,0.4,0.8,0.9,0.8h0.9v4.3c0,2,1.3,3.8,3.5,4.7
						c-2.2,0.9-3.6,2.7-3.5,4.7v3.5H190c-0.5,0-0.9,0.4-0.9,0.8c0,0.4,0.4,0.8,0.9,0.8h13.3c0.5,0,0.9-0.4,0.9-0.8
						C204.3,55.5,203.9,55.1,203.3,55.1z M192.9,42.2v-4.3h7.6v4.3c0.1,1.8-1.6,3.4-3.8,3.5C194.5,45.6,192.8,44.1,192.9,42.2z
						 M192.9,51.6c-0.1-1.8,1.6-3.4,3.8-3.5c2.2,0.1,3.9,1.7,3.8,3.5v3.5h-7.6V51.6z"/>
				</g>
				<rect x="192.9" y="41.8" class="st8" width="7.9" height="3.9"/>
				<rect x="192.7" y="52.5" class="st8" width="7.9" height="2.8"/>
			</g>
		</g>
	</g>
	<line class="st15" x1="215.3" y1="44.8" x2="234.7" y2="44.8"/>
</g>
</svg>
