<?xml version="1.0" encoding="utf-8"?>
<!-- Generator: Adobe Illustrator 25.0.0, SVG Export Plug-In . SVG Version: 6.00 Build 0)  -->
<svg version="1.1" id="Layer_1" xmlns="http://www.w3.org/2000/svg" xmlns:xlink="http://www.w3.org/1999/xlink" x="0px" y="0px"
	 viewBox="0 0 124 125" style="enable-background:new 0 0 124 125;" xml:space="preserve">
<style type="text/css">
	.st0{fill:#F6A400;}
	.st1{fill:#FFFFFF;}
</style>
<circle class="st0" cx="62.3" cy="62.3" r="58.3"/>
<g>
	<path class="st1" d="M98.4,35.8L77,30l-2.4,8.8c-0.9-0.4-1.7-0.9-2.5-1.4c-0.6-0.4-1.4-0.7-2.2-0.7c-1.5-0.1-3,0.8-3.7,2.2
		c-1.3,2.5,0,5.3,2.6,6c0.4,0.1,0.9,0.1,1.3,0.1c0.9-0.1,2,0,2.9,0.1l-2.4,8.8l8.7,2.4c0.1-0.9,0.1-1.8,0.1-2.7c0-0.4,0-0.9,0.1-1.3
		c0.7-2.6,3.6-3.8,6-2.6c1.3,0.7,2.2,2.2,2.2,3.6c0,0.9-0.3,1.6-0.7,2.3c-0.5,0.7-0.9,1.6-1.3,2.4l8.7,2.4l5.8-21.4
		C100.6,37.6,99.8,36.1,98.4,35.8z"/>
	<path class="st1" d="M44.6,70.2c-0.3,0.7-0.3,1.5-0.1,2.4c0.3,1.5,1.6,2.6,3,3c2.7,0.6,5.1-1.4,5.1-4c0-0.5-0.1-0.9-0.2-1.3
		c-0.3-0.9-0.5-1.9-0.7-2.8h9v-9c-0.9,0.1-1.8,0.3-2.6,0.7c-0.4,0.1-0.8,0.2-1.3,0.2c-2.6,0-4.7-2.4-4-5.1c0.3-1.5,1.6-2.7,3-3
		c0.8-0.2,1.6-0.1,2.4,0.1c0.9,0.3,1.8,0.5,2.6,0.7v-9.1H38.7c-1.4,0-2.5,1.1-2.5,2.5v22.2h9.1C45.1,68.3,44.9,69.2,44.6,70.2z"/>
	<path class="st1" d="M78.7,64.6c0.3-0.7,0.3-1.6,0.1-2.4c-0.4-1.4-1.6-2.6-3-2.9c-2.7-0.6-5.1,1.4-5.1,4c0,0.5,0.1,0.9,0.2,1.3
		c0.3,0.9,0.5,1.8,0.7,2.8h-7.6v5.3c0.3-0.1,0.7-0.1,1.1-0.1c2.2,0,4.3,1,5.6,2.7c1.3,1.8,1.9,4,1.3,6.1c-0.6,2.5-2.6,4.5-5.1,5.2
		C66.2,86.8,65.6,87,65,87c-0.3,0-0.7,0-1.1-0.1v5.2h19.2c1.4,0,2.5-1.1,2.5-2.5V67.4H78C78.2,66.4,78.4,65.5,78.7,64.6z"/>
	<path class="st1" d="M66.1,83.7c1.4-0.4,2.6-1.6,3-3c0.6-2.7-1.4-5.1-4-5.1c-0.5,0-0.9,0.1-1.3,0.2c-0.9,0.3-1.8,0.5-2.8,0.7v-6.1
		h-5.3c0.1,0.3,0.1,0.7,0.1,1.1c0,4-3.2,7.2-7.2,7.2c-0.5,0-1.1-0.1-1.7-0.2c-2.6-0.6-4.6-2.6-5.3-5.1c-0.3-0.9-0.3-2-0.1-2.9h-5.3
		v19.2c0,1.4,1.1,2.5,2.5,2.5h22.2V83c0.9,0.1,1.9,0.4,2.8,0.7C64.4,83.9,65.3,84,66.1,83.7z"/>
</g>
</svg>
