<?xml version="1.0" encoding="utf-8"?>
<!-- Generator: Adobe Illustrator 25.0.0, SVG Export Plug-In . SVG Version: 6.00 Build 0)  -->
<svg version="1.1" id="Layer_1" xmlns="http://www.w3.org/2000/svg" xmlns:xlink="http://www.w3.org/1999/xlink" x="0px" y="0px"
	 viewBox="0 0 124 125" style="enable-background:new 0 0 124 125;" xml:space="preserve">
<style type="text/css">
	.st0{fill:#F6A400;}
	.st1{fill:#FFFFFF;}
</style>
<circle class="st0" cx="62.3" cy="62.3" r="58.3"/>
<g>
	<g>
		<path class="st1" d="M78.9,87.9H64.6V40H78l-6.1,15.5c-0.4,1,0.1,2.1,1.1,2.5c1,0.4,2.1-0.1,2.5-1.1l5.3-13.5l5.3,13.5
			c0.4,1,1.5,1.5,2.5,1.1c1-0.4,1.5-1.5,1.1-2.5c0,0,0,0,0,0l-7.2-18.1c-0.3-0.7-1-1.2-1.8-1.2H64.6v-2.6c0-1.4-1.2-2.6-2.6-2.6
			s-2.6,1.2-2.6,2.6v2.6H43.3c-0.8,0-1.5,0.5-1.8,1.2l-7.2,18.1c-0.4,1,0.1,2.1,1.1,2.5c1,0.4,2.1-0.1,2.5-1.1l5.3-13.5l5.3,13.5
			c0.4,1,1.5,1.5,2.5,1.1c1-0.4,1.5-1.5,1.1-2.5c0,0,0,0,0,0L46.2,40h13.3v47.8H45.3c-1.4,0-2.6,1.2-2.6,2.6s1.2,2.6,2.6,2.6h33.6
			c1.4,0,2.6-1.2,2.6-2.6S80.3,87.9,78.9,87.9z"/>
		<path class="st1" d="M55.5,62.4c0-0.2-0.1-0.4-0.3-0.4c0,0,0,0-0.1,0H31.4c-0.2,0-0.3,0.2-0.3,0.3c0,0,0,0,0,0.1
			c1.6,6.7,8.4,10.9,15.1,9.3C50.8,70.6,54.4,67,55.5,62.4z"/>
		<path class="st1" d="M92.7,62H68.9c-0.2,0-0.3,0.2-0.3,0.3c0,0,0,0,0,0.1c1.6,6.7,8.4,10.9,15.1,9.3c4.6-1.1,8.2-4.7,9.3-9.3
			C93,62.2,92.9,62.1,92.7,62C92.7,62,92.7,62,92.7,62z"/>
	</g>
</g>
</svg>
