<?xml version="1.0" encoding="utf-8"?>
<!-- Generator: Adobe Illustrator 25.0.0, SVG Export Plug-In . SVG Version: 6.00 Build 0)  -->
<svg version="1.1" xmlns="http://www.w3.org/2000/svg" xmlns:xlink="http://www.w3.org/1999/xlink" x="0px" y="0px"
	 viewBox="0 0 322.8 327.9" style="enable-background:new 0 0 322.8 327.9;" xml:space="preserve">
<style type="text/css">
	.st0{fill:#FFFFFF;}
	.st1{opacity:0.1;}
	.st2{fill:url(#SVGID_1_);}
	.st3{fill:url(#SVGID_2_);}
	.st4{fill:url(#SVGID_3_);}
	.st5{fill:url(#SVGID_4_);}
	.st6{fill:url(#SVGID_5_);}
	.st7{fill:url(#SVGID_6_);}
	.st8{fill:url(#SVGID_7_);}
	.st9{fill:url(#SVGID_8_);}
	.st10{fill:url(#SVGID_9_);}
	.st11{fill:url(#SVGID_10_);}
	.st12{fill:#566790;}
	.st13{fill:none;stroke:url(#SVGID_11_);stroke-width:2;stroke-miterlimit:10;stroke-dasharray:1,3;}
	.st14{fill:none;stroke:#F7A400;stroke-linecap:round;stroke-miterlimit:10;}
	.st15{fill:none;stroke:#F7A400;stroke-miterlimit:10;}
	.st16{fill:none;stroke:url(#SVGID_12_);stroke-width:2;stroke-miterlimit:10;stroke-dasharray:1,3;}
	.st17{fill:none;stroke:url(#SVGID_13_);stroke-width:2;stroke-miterlimit:10;stroke-dasharray:1,3;}
	.st18{fill:none;stroke:#3855A2;stroke-linecap:round;stroke-miterlimit:10;}
	.st19{fill:none;stroke:#3855A2;stroke-miterlimit:10;}
	.st20{fill:#3855A2;}
	.st21{fill-rule:evenodd;clip-rule:evenodd;fill:#FFFFFF;}
</style>
<g id="guides">
</g>
<g id="baseline_grid">
</g>
<g id="styles">
	<rect x="-395.1" y="124.1" class="st0" width="200" height="264"/>
</g>
<g id="content">
	<g>
		<g class="st1">
			<g>
				<linearGradient id="SVGID_1_" gradientUnits="userSpaceOnUse" x1="152.7231" y1="240.2576" x2="291.6499" y2="240.2576">
					<stop  offset="0" style="stop-color:#F7A400"/>
					<stop  offset="1" style="stop-color:#3855A2"/>
				</linearGradient>
				<path class="st2" d="M178.8,291.6c7.7,2.5,15.8,2.6,23.5,0.1c41.4-13.2,74.3-45.7,87.9-86.8c0.5-1.5,0.9-2.9,1.4-4.4
					c-9.1,7.8-20.7,12.1-32.8,12.1c-5.3,0-10.5-0.9-15.4-2.5c-11.8-3.9-21.8-12.2-27.8-23c-7,15.2-20.3,27-36.3,32.1
					c-20,6.4-31.1,27.8-24.7,47.8C158.2,278.5,167.3,287.7,178.8,291.6L178.8,291.6z"/>
				<linearGradient id="SVGID_2_" gradientUnits="userSpaceOnUse" x1="43.6978" y1="238.6091" x2="165.2252" y2="238.6091">
					<stop  offset="0" style="stop-color:#F7A400"/>
					<stop  offset="1" style="stop-color:#3855A2"/>
				</linearGradient>
				<path class="st3" d="M112.7,195.9c-4.7-6.6-11.3-11.4-18.9-13.9c-11.5-3.8-24.3-1.9-34.2,5.2c-17.1,12.2-21,36.1-8.8,53.1
					c16.8,23.5,40.2,40.7,67.7,49.9c15.2,5.1,30.9,7.4,46.7,6.9c-10.3-6.2-18-15.9-21.7-27.6c-5.4-17.1-1.2-35.9,10.9-49
					c-4-0.5-8-1.4-11.9-2.7C130.4,213.9,120.1,206.3,112.7,195.9z"/>
				<linearGradient id="SVGID_3_" gradientUnits="userSpaceOnUse" x1="202.129" y1="124.1753" x2="297.5436" y2="124.1753">
					<stop  offset="0" style="stop-color:#F7A400"/>
					<stop  offset="1" style="stop-color:#3855A2"/>
				</linearGradient>
				<path class="st4" d="M247.4,197.8c3.8,1.3,7.7,1.9,11.8,1.9c21,0.1,38.2-16.8,38.3-37.8l0-2.8C297,114.3,275,73.6,238.3,48.6
					c4.7,11.1,5.2,23.5,1.4,35.1c-5.7,17.1-20.1,29.7-37.6,33.2c12.5,11.5,19.5,27.6,19.3,44.9C221.4,178.2,231.9,192.6,247.4,197.8
					L247.4,197.8z"/>
				<linearGradient id="SVGID_4_" gradientUnits="userSpaceOnUse" x1="78.377" y1="66.8307" x2="230.3921" y2="66.8307">
					<stop  offset="0" style="stop-color:#F7A400"/>
					<stop  offset="1" style="stop-color:#3855A2"/>
				</linearGradient>
				<path class="st5" d="M204.3,31.8c-42.9-14.2-90.5-6.1-125.9,21.3c6.7-0.5,13.4,0.3,19.8,2.4c5,1.6,9.6,4.1,13.9,7.2
					c14.5,10.6,22,28.3,19.9,46c14.7-8.3,32-10,48.3-4.6c19.9,6.6,41.5-4.2,48.1-24.1S224.2,38.5,204.3,31.8z"/>
				<linearGradient id="SVGID_5_" gradientUnits="userSpaceOnUse" x1="25.3614" y1="135.6568" x2="120.5253" y2="135.6568">
					<stop  offset="0" style="stop-color:#F7A400"/>
					<stop  offset="1" style="stop-color:#3855A2"/>
				</linearGradient>
				<path class="st6" d="M97.5,170.7c1.8,0.6,3.5,1.3,5.1,2c-2.1-10.2-1.4-20.7,1.9-30.7c2-6.1,5-11.9,8.9-17
					c12.1-16.8,8.4-40.6-8.3-52.9c-3.2-2.4-6.8-4.2-10.6-5.5C78.8,61.5,61.6,67,51.8,80.3l-1.6,2.2c-7.7,10.9-13.7,22.9-18,35.6
					c-9.5,28.7-9.2,59.8,1,88.4c2.8-11.6,9.6-21.9,19.4-29C65.6,168.3,82.4,165.7,97.5,170.7z"/>
			</g>
		</g>
		<g>
			<linearGradient id="SVGID_6_" gradientUnits="userSpaceOnUse" x1="552.3094" y1="70.0256" x2="100.1112" y2="294.1699">
				<stop  offset="0" style="stop-color:#F7A400"/>
				<stop  offset="0.1313" style="stop-color:#E29933"/>
				<stop  offset="1" style="stop-color:#3855A2"/>
			</linearGradient>
			<path class="st7" d="M178.8,291.6c7.7,2.5,15.8,2.6,23.5,0.1c41.4-13.2,74.3-45.7,87.9-86.8c0.5-1.5,0.9-2.9,1.4-4.4
				c-9.1,7.8-20.7,12.1-32.8,12.1c-5.3,0-10.5-0.9-15.4-2.5c-11.8-3.9-21.8-12.2-27.8-23c-7,15.2-20.3,27-36.3,32.1
				c-20,6.4-31.1,27.8-24.7,47.8C158.2,278.5,167.3,287.7,178.8,291.6L178.8,291.6z"/>
			<linearGradient id="SVGID_7_" gradientUnits="userSpaceOnUse" x1="533.9204" y1="32.927" x2="81.7223" y2="257.0713">
				<stop  offset="0" style="stop-color:#F7A400"/>
				<stop  offset="1" style="stop-color:#3855A2"/>
			</linearGradient>
			<path class="st8" d="M112.7,195.9c-4.7-6.6-11.3-11.4-18.9-13.9c-11.5-3.8-24.3-1.9-34.2,5.2c-17.1,12.2-21,36.1-8.8,53.1
				c16.8,23.5,40.2,40.7,67.7,49.9c15.2,5.1,30.9,7.4,46.7,6.9c-10.3-6.2-18-15.9-21.7-27.6c-5.4-17.1-1.2-35.9,10.9-49
				c-4-0.5-8-1.4-11.9-2.7C130.4,213.9,120.1,206.3,112.7,195.9z"/>
			<linearGradient id="SVGID_8_" gradientUnits="userSpaceOnUse" x1="514.8896" y1="-5.4665" x2="62.6915" y2="218.6778">
				<stop  offset="0" style="stop-color:#F7A400"/>
				<stop  offset="1" style="stop-color:#3855A2"/>
			</linearGradient>
			<path class="st9" d="M247.4,197.8c3.8,1.3,7.7,1.9,11.8,1.9c21,0.1,38.2-16.8,38.3-37.8l0-2.8C297,114.3,275,73.6,238.3,48.6
				c4.7,11.1,5.2,23.5,1.4,35.1c-5.7,17.1-20.1,29.7-37.6,33.2c12.5,11.5,19.5,27.6,19.3,44.9C221.4,178.2,231.9,192.6,247.4,197.8
				L247.4,197.8z"/>
			<linearGradient id="SVGID_9_" gradientUnits="userSpaceOnUse" x1="474.1727" y1="-87.6107" x2="21.9745" y2="136.5337">
				<stop  offset="0" style="stop-color:#F7A400"/>
				<stop  offset="1" style="stop-color:#3855A2"/>
			</linearGradient>
			<path class="st10" d="M204.3,31.8c-42.9-14.2-90.5-6.1-125.9,21.3c6.7-0.5,13.4,0.3,19.8,2.4c5,1.6,9.6,4.1,13.9,7.2
				c14.5,10.6,22,28.3,19.9,46c14.7-8.3,32-10,48.3-4.6c19.9,6.6,41.5-4.2,48.1-24.1S224.2,38.5,204.3,31.8z"/>
			<linearGradient id="SVGID_10_" gradientUnits="userSpaceOnUse" x1="480.1526" y1="-75.5465" x2="27.9544" y2="148.5979">
				<stop  offset="0" style="stop-color:#F7A400"/>
				<stop  offset="1" style="stop-color:#3855A2"/>
			</linearGradient>
			<path class="st11" d="M97.5,170.7c1.8,0.6,3.5,1.3,5.1,2c-2.1-10.2-1.4-20.7,1.9-30.7c2-6.1,5-11.9,8.9-17
				c12.1-16.8,8.4-40.6-8.3-52.9c-3.2-2.4-6.8-4.2-10.6-5.5C78.8,61.5,61.6,67,51.8,80.3l-1.6,2.2c-7.7,10.9-13.7,22.9-18,35.6
				c-9.5,28.7-9.2,59.8,1,88.4c2.8-11.6,9.6-21.9,19.4-29C65.6,168.3,82.4,165.7,97.5,170.7z"/>
		</g>
	</g>
	<g>
		<g>
			<path class="st0" d="M146.2,45.9v-6.7h0.9l2.2,3.4c0.5,0.8,0.9,1.5,1.2,2.2l0,0c-0.1-0.9-0.1-1.7-0.1-2.8v-2.8h0.8v6.7h-0.9
				l-2.1-3.4c-0.5-0.7-0.9-1.5-1.3-2.2l0,0c0,0.8,0.1,1.7,0.1,2.8v2.9H146.2z"/>
			<path class="st0" d="M153.4,43.6c0,1.2,0.8,1.7,1.7,1.7c0.6,0,1-0.1,1.3-0.2l0.1,0.6c-0.3,0.1-0.8,0.3-1.6,0.3
				c-1.5,0-2.4-1-2.4-2.4c0-1.5,0.9-2.6,2.3-2.6c1.6,0,2,1.4,2,2.3c0,0.2,0,0.3,0,0.4H153.4z M156,43c0-0.6-0.2-1.4-1.2-1.4
				c-0.9,0-1.3,0.8-1.3,1.4H156z"/>
			<path class="st0" d="M158.6,43.6c0,1.2,0.8,1.7,1.7,1.7c0.6,0,1-0.1,1.3-0.2l0.1,0.6c-0.3,0.1-0.8,0.3-1.6,0.3
				c-1.5,0-2.4-1-2.4-2.4c0-1.5,0.9-2.6,2.3-2.6c1.6,0,2,1.4,2,2.3c0,0.2,0,0.3,0,0.4H158.6z M161.2,43c0-0.6-0.2-1.4-1.2-1.4
				c-0.9,0-1.3,0.8-1.3,1.4H161.2z"/>
			<path class="st0" d="M167.5,38.8v5.8c0,0.4,0,0.9,0,1.2h-0.8l0-0.8h0c-0.3,0.5-0.9,0.9-1.6,0.9c-1.2,0-2.1-1-2.1-2.5
				c0-1.6,1-2.6,2.2-2.6c0.7,0,1.2,0.3,1.5,0.7h0v-2.9H167.5z M166.6,43c0-0.1,0-0.3,0-0.4c-0.1-0.6-0.6-1-1.3-1
				c-0.9,0-1.4,0.8-1.4,1.9c0,1,0.5,1.8,1.4,1.8c0.6,0,1.1-0.4,1.3-1c0-0.1,0-0.2,0-0.4V43z"/>
			<path class="st0" d="M169.1,45c0.3,0.2,0.7,0.3,1.2,0.3c0.6,0,0.9-0.3,0.9-0.7c0-0.4-0.2-0.6-0.9-0.9c-0.9-0.3-1.3-0.8-1.3-1.4
				c0-0.8,0.6-1.4,1.7-1.4c0.5,0,0.9,0.1,1.2,0.3l-0.2,0.6c-0.2-0.1-0.5-0.3-1-0.3c-0.5,0-0.8,0.3-0.8,0.7c0,0.4,0.3,0.6,0.9,0.8
				c0.8,0.3,1.3,0.7,1.3,1.5c0,0.8-0.7,1.4-1.8,1.4c-0.5,0-1-0.1-1.4-0.3L169.1,45z"/>
			<path class="st0" d="M135.3,53.8l-0.7,2.1h-0.9l2.3-6.7h1l2.3,6.7h-0.9l-0.7-2.1H135.3z M137.5,53.1l-0.7-1.9
				c-0.1-0.4-0.2-0.8-0.3-1.2h0c-0.1,0.4-0.2,0.8-0.3,1.2l-0.7,1.9H137.5z"/>
			<path class="st0" d="M140.3,55c0.3,0.2,0.7,0.3,1.2,0.3c0.6,0,0.9-0.3,0.9-0.7c0-0.4-0.2-0.6-0.9-0.9c-0.9-0.3-1.3-0.8-1.3-1.4
				c0-0.8,0.6-1.4,1.7-1.4c0.5,0,0.9,0.1,1.2,0.3l-0.2,0.6c-0.2-0.1-0.5-0.3-1-0.3c-0.5,0-0.8,0.3-0.8,0.7c0,0.4,0.3,0.6,0.9,0.8
				c0.8,0.3,1.3,0.7,1.3,1.5c0,0.8-0.7,1.4-1.8,1.4c-0.5,0-1-0.1-1.4-0.3L140.3,55z"/>
			<path class="st0" d="M144.5,55c0.3,0.2,0.7,0.3,1.2,0.3c0.6,0,0.9-0.3,0.9-0.7c0-0.4-0.2-0.6-0.9-0.9c-0.9-0.3-1.3-0.8-1.3-1.4
				c0-0.8,0.6-1.4,1.7-1.4c0.5,0,0.9,0.1,1.2,0.3l-0.2,0.6c-0.2-0.1-0.5-0.3-1-0.3c-0.5,0-0.8,0.3-0.8,0.7c0,0.4,0.3,0.6,0.9,0.8
				c0.8,0.3,1.3,0.7,1.3,1.5c0,0.8-0.7,1.4-1.8,1.4c-0.5,0-1-0.1-1.4-0.3L144.5,55z"/>
			<path class="st0" d="M149.3,53.6c0,1.2,0.8,1.7,1.7,1.7c0.6,0,1-0.1,1.3-0.2l0.1,0.6c-0.3,0.1-0.8,0.3-1.6,0.3
				c-1.5,0-2.4-1-2.4-2.4c0-1.5,0.9-2.6,2.3-2.6c1.6,0,2,1.4,2,2.3c0,0.2,0,0.3,0,0.4H149.3z M151.9,53c0-0.6-0.2-1.4-1.2-1.4
				c-0.9,0-1.3,0.8-1.3,1.4H151.9z"/>
			<path class="st0" d="M153.9,55c0.3,0.2,0.7,0.3,1.2,0.3c0.6,0,0.9-0.3,0.9-0.7c0-0.4-0.2-0.6-0.9-0.9c-0.9-0.3-1.3-0.8-1.3-1.4
				c0-0.8,0.6-1.4,1.7-1.4c0.5,0,0.9,0.1,1.2,0.3l-0.2,0.6c-0.2-0.1-0.5-0.3-1-0.3c-0.5,0-0.8,0.3-0.8,0.7c0,0.4,0.3,0.6,0.9,0.8
				c0.8,0.3,1.3,0.7,1.3,1.5c0,0.8-0.7,1.4-1.8,1.4c-0.5,0-1-0.1-1.4-0.3L153.9,55z"/>
			<path class="st0" d="M158,55c0.3,0.2,0.7,0.3,1.2,0.3c0.6,0,0.9-0.3,0.9-0.7c0-0.4-0.2-0.6-0.9-0.9c-0.9-0.3-1.3-0.8-1.3-1.4
				c0-0.8,0.6-1.4,1.7-1.4c0.5,0,0.9,0.1,1.2,0.3l-0.2,0.6c-0.2-0.1-0.5-0.3-1-0.3c-0.5,0-0.8,0.3-0.8,0.7c0,0.4,0.3,0.6,0.9,0.8
				c0.8,0.3,1.3,0.7,1.3,1.5c0,0.8-0.7,1.4-1.8,1.4c-0.5,0-1-0.1-1.4-0.3L158,55z"/>
			<path class="st0" d="M162.3,52.4c0-0.5,0-0.9,0-1.3h0.8l0,0.8h0c0.3-0.5,0.7-0.9,1.5-0.9c0.7,0,1.2,0.4,1.4,1h0
				c0.1-0.3,0.3-0.5,0.5-0.6c0.3-0.2,0.6-0.3,1.1-0.3c0.6,0,1.6,0.4,1.6,2.1v2.8h-0.9v-2.7c0-0.9-0.3-1.5-1-1.5
				c-0.5,0-0.9,0.4-1,0.8c0,0.1-0.1,0.3-0.1,0.4v3h-0.9V53c0-0.8-0.3-1.3-1-1.3c-0.5,0-0.9,0.4-1.1,0.9c-0.1,0.1-0.1,0.3-0.1,0.4
				v2.9h-0.9V52.4z"/>
			<path class="st0" d="M171.3,53.6c0,1.2,0.8,1.7,1.7,1.7c0.6,0,1-0.1,1.3-0.2l0.1,0.6c-0.3,0.1-0.8,0.3-1.6,0.3
				c-1.5,0-2.4-1-2.4-2.4c0-1.5,0.9-2.6,2.3-2.6c1.6,0,2,1.4,2,2.3c0,0.2,0,0.3,0,0.4H171.3z M173.9,53c0-0.6-0.2-1.4-1.2-1.4
				c-0.9,0-1.3,0.8-1.3,1.4H173.9z"/>
			<path class="st0" d="M176.1,52.4c0-0.5,0-0.9,0-1.3h0.8l0,0.8h0c0.2-0.5,0.8-0.9,1.6-0.9c0.7,0,1.7,0.4,1.7,2.1v2.9h-0.9v-2.8
				c0-0.8-0.3-1.4-1.1-1.4c-0.6,0-1,0.4-1.2,0.9c0,0.1-0.1,0.3-0.1,0.4v2.9h-0.9V52.4z"/>
			<path class="st0" d="M182.9,49.7v1.4h1.3v0.7h-1.3v2.6c0,0.6,0.2,0.9,0.7,0.9c0.2,0,0.4,0,0.5-0.1l0,0.7
				c-0.2,0.1-0.4,0.1-0.8,0.1c-0.4,0-0.7-0.1-0.9-0.4c-0.2-0.3-0.3-0.7-0.3-1.3v-2.6h-0.8v-0.7h0.8v-1.2L182.9,49.7z"/>
			<path class="st0" d="M142,65.9c-0.2-0.2-0.4-0.4-0.6-0.7c-0.6,0.5-1.2,0.8-2,0.8c-1.3,0-2.1-0.9-2.1-1.9c0-0.9,0.5-1.5,1.3-2v0
				c-0.3-0.4-0.6-0.9-0.6-1.4c0-0.8,0.6-1.7,1.7-1.7c0.8,0,1.5,0.6,1.5,1.4c0,0.7-0.4,1.3-1.5,1.8v0c0.6,0.7,1.2,1.4,1.6,1.9
				c0.3-0.5,0.5-1.1,0.6-2h0.8c-0.2,1.1-0.5,1.9-1,2.5c0.4,0.4,0.7,0.8,1.1,1.2H142z M140.9,64.7c-0.4-0.4-1.1-1.3-1.9-2.1
				c-0.4,0.2-0.9,0.7-0.9,1.4c0,0.8,0.6,1.4,1.4,1.4C140.1,65.4,140.6,65.1,140.9,64.7z M138.9,60.6c0,0.5,0.2,0.8,0.5,1.2
				c0.7-0.4,1.1-0.7,1.1-1.3c0-0.4-0.2-0.9-0.8-0.9C139.2,59.7,138.9,60.1,138.9,60.6z"/>
			<path class="st0" d="M147.4,63.8l-0.7,2.1h-0.9l2.3-6.7h1l2.3,6.7h-0.9l-0.7-2.1H147.4z M149.6,63.1l-0.7-1.9
				c-0.1-0.4-0.2-0.8-0.3-1.2h0c-0.1,0.4-0.2,0.8-0.3,1.2l-0.7,1.9H149.6z"/>
			<path class="st0" d="M152.6,62.4c0-0.5,0-0.9,0-1.3h0.8l0,0.8h0c0.2-0.5,0.8-0.9,1.6-0.9c0.7,0,1.7,0.4,1.7,2.1v2.9h-0.9v-2.8
				c0-0.8-0.3-1.4-1.1-1.4c-0.6,0-1,0.4-1.2,0.9c0,0.1-0.1,0.3-0.1,0.4v2.9h-0.9V62.4z"/>
			<path class="st0" d="M161.1,65.9l-0.1-0.6h0c-0.3,0.4-0.8,0.7-1.5,0.7c-1,0-1.5-0.7-1.5-1.4c0-1.2,1-1.8,2.9-1.8v-0.1
				c0-0.4-0.1-1.1-1.1-1.1c-0.4,0-0.9,0.1-1.3,0.4l-0.2-0.6c0.4-0.3,1-0.4,1.6-0.4c1.5,0,1.8,1,1.8,2v1.8c0,0.4,0,0.8,0.1,1.2H161.1
				z M160.9,63.4c-1,0-2,0.1-2,1.1c0,0.6,0.4,0.8,0.8,0.8c0.6,0,1-0.4,1.2-0.8c0-0.1,0.1-0.2,0.1-0.3V63.4z"/>
			<path class="st0" d="M163.4,58.8h0.9v7.1h-0.9V58.8z"/>
			<path class="st0" d="M166.3,61.1l1.1,2.9c0.1,0.3,0.2,0.7,0.3,1h0c0.1-0.3,0.2-0.7,0.3-1l1-2.8h0.9l-1.3,3.4
				c-0.6,1.7-1.1,2.5-1.7,3c-0.4,0.4-0.9,0.5-1.1,0.6l-0.2-0.7c0.2-0.1,0.5-0.2,0.8-0.4c0.2-0.2,0.5-0.5,0.7-1
				c0-0.1,0.1-0.2,0.1-0.2s0-0.1-0.1-0.2l-1.8-4.5H166.3z"/>
			<path class="st0" d="M170.8,65c0.3,0.2,0.7,0.3,1.2,0.3c0.6,0,0.9-0.3,0.9-0.7c0-0.4-0.2-0.6-0.9-0.9c-0.9-0.3-1.3-0.8-1.3-1.4
				c0-0.8,0.6-1.4,1.7-1.4c0.5,0,0.9,0.1,1.2,0.3l-0.2,0.6c-0.2-0.1-0.5-0.3-1-0.3c-0.5,0-0.8,0.3-0.8,0.7c0,0.4,0.3,0.6,0.9,0.8
				c0.8,0.3,1.3,0.7,1.3,1.5c0,0.8-0.7,1.4-1.8,1.4c-0.5,0-1-0.1-1.4-0.3L170.8,65z"/>
			<path class="st0" d="M176,59.7c0,0.3-0.2,0.5-0.6,0.5c-0.3,0-0.5-0.2-0.5-0.5c0-0.3,0.2-0.5,0.5-0.5
				C175.8,59.2,176,59.4,176,59.7z M175,65.9v-4.8h0.9v4.8H175z"/>
			<path class="st0" d="M177.5,65c0.3,0.2,0.7,0.3,1.2,0.3c0.6,0,0.9-0.3,0.9-0.7c0-0.4-0.2-0.6-0.9-0.9c-0.9-0.3-1.3-0.8-1.3-1.4
				c0-0.8,0.6-1.4,1.7-1.4c0.5,0,0.9,0.1,1.2,0.3l-0.2,0.6c-0.2-0.1-0.5-0.3-1-0.3c-0.5,0-0.8,0.3-0.8,0.7c0,0.4,0.3,0.6,0.9,0.8
				c0.8,0.3,1.3,0.7,1.3,1.5c0,0.8-0.7,1.4-1.8,1.4c-0.5,0-1-0.1-1.4-0.3L177.5,65z"/>
		</g>
	</g>
	<g>
		<g>
			<path class="st0" d="M236.4,129.5c0.4,0.2,1,0.4,1.6,0.4c0.9,0,1.4-0.5,1.4-1.1c0-0.6-0.4-1-1.3-1.3c-1.1-0.4-1.8-1-1.8-1.9
				c0-1,0.9-1.8,2.2-1.8c0.7,0,1.2,0.2,1.5,0.3l-0.2,0.7c-0.2-0.1-0.7-0.3-1.3-0.3c-0.9,0-1.3,0.5-1.3,1c0,0.6,0.4,0.9,1.3,1.3
				c1.1,0.4,1.7,1,1.7,2c0,1-0.8,1.9-2.4,1.9c-0.6,0-1.4-0.2-1.7-0.4L236.4,129.5z"/>
			<path class="st0" d="M242.7,124.3v1.4h1.3v0.7h-1.3v2.6c0,0.6,0.2,0.9,0.7,0.9c0.2,0,0.4,0,0.5-0.1l0,0.7
				c-0.2,0.1-0.4,0.1-0.8,0.1c-0.4,0-0.7-0.1-0.9-0.4c-0.2-0.3-0.3-0.7-0.3-1.3v-2.6h-0.8v-0.7h0.8v-1.2L242.7,124.3z"/>
			<path class="st0" d="M245.2,127.2c0-0.6,0-1.1,0-1.5h0.8l0,0.9h0c0.2-0.6,0.7-1.1,1.3-1.1c0.1,0,0.2,0,0.2,0v0.8
				c-0.1,0-0.2,0-0.3,0c-0.6,0-1.1,0.5-1.2,1.1c0,0.1,0,0.3,0,0.4v2.6h-0.9V127.2z"/>
			<path class="st0" d="M251.3,130.5l-0.1-0.6h0c-0.3,0.4-0.8,0.7-1.5,0.7c-1,0-1.5-0.7-1.5-1.4c0-1.2,1-1.8,2.9-1.8v-0.1
				c0-0.4-0.1-1.1-1.1-1.1c-0.4,0-0.9,0.1-1.3,0.4l-0.2-0.6c0.4-0.3,1-0.4,1.6-0.4c1.5,0,1.8,1,1.8,2v1.8c0,0.4,0,0.8,0.1,1.2H251.3
				z M251.2,128.1c-1,0-2,0.1-2,1.1c0,0.6,0.4,0.8,0.8,0.8c0.6,0,1-0.4,1.2-0.8c0-0.1,0.1-0.2,0.1-0.3V128.1z"/>
			<path class="st0" d="M254.7,124.3v1.4h1.3v0.7h-1.3v2.6c0,0.6,0.2,0.9,0.7,0.9c0.2,0,0.4,0,0.5-0.1l0,0.7
				c-0.2,0.1-0.4,0.1-0.8,0.1c-0.4,0-0.7-0.1-0.9-0.4c-0.2-0.3-0.3-0.7-0.3-1.3v-2.6h-0.8v-0.7h0.8v-1.2L254.7,124.3z"/>
			<path class="st0" d="M257.6,128.3c0,1.2,0.8,1.7,1.7,1.7c0.6,0,1-0.1,1.3-0.2l0.1,0.6c-0.3,0.1-0.8,0.3-1.6,0.3
				c-1.5,0-2.4-1-2.4-2.4c0-1.5,0.9-2.6,2.3-2.6c1.6,0,2,1.4,2,2.3c0,0.2,0,0.3,0,0.4H257.6z M260.2,127.7c0-0.6-0.2-1.4-1.2-1.4
				c-0.9,0-1.3,0.8-1.3,1.4H260.2z"/>
			<path class="st0" d="M266.5,125.7c0,0.4,0,0.7,0,1.3v2.8c0,1.1-0.2,1.8-0.7,2.2c-0.5,0.4-1.1,0.6-1.8,0.6c-0.6,0-1.2-0.1-1.6-0.4
				l0.2-0.7c0.3,0.2,0.8,0.4,1.4,0.4c0.9,0,1.6-0.5,1.6-1.7v-0.5h0c-0.3,0.4-0.8,0.8-1.5,0.8c-1.2,0-2.1-1-2.1-2.4
				c0-1.6,1.1-2.6,2.2-2.6c0.8,0,1.3,0.4,1.5,0.8h0l0-0.7H266.5z M265.6,127.6c0-0.1,0-0.3,0-0.4c-0.2-0.5-0.6-0.9-1.2-0.9
				c-0.8,0-1.4,0.7-1.4,1.8c0,0.9,0.5,1.7,1.4,1.7c0.5,0,1-0.3,1.2-0.9c0-0.1,0.1-0.3,0.1-0.5V127.6z"/>
			<path class="st0" d="M269.1,124.4c0,0.3-0.2,0.5-0.6,0.5c-0.3,0-0.5-0.2-0.5-0.5c0-0.3,0.2-0.5,0.5-0.5
				C268.9,123.8,269.1,124,269.1,124.4z M268.2,130.5v-4.8h0.9v4.8H268.2z"/>
			<path class="st0" d="M274.1,130.4c-0.2,0.1-0.7,0.3-1.4,0.3c-1.5,0-2.4-1-2.4-2.5c0-1.5,1-2.6,2.6-2.6c0.5,0,1,0.1,1.2,0.2
				l-0.2,0.7c-0.2-0.1-0.5-0.2-1-0.2c-1.1,0-1.7,0.8-1.7,1.8c0,1.1,0.7,1.8,1.7,1.8c0.5,0,0.8-0.1,1.1-0.2L274.1,130.4z"/>
			<path class="st0" d="M236.6,133.9c0.4-0.1,1-0.1,1.7-0.1c0.9,0,1.5,0.2,1.9,0.6c0.4,0.3,0.6,0.8,0.6,1.4c0,0.6-0.2,1.1-0.5,1.4
				c-0.5,0.5-1.2,0.7-2.1,0.7c-0.3,0-0.5,0-0.7-0.1v2.7h-0.9V133.9z M237.5,137.1c0.2,0.1,0.4,0.1,0.7,0.1c1,0,1.7-0.5,1.7-1.4
				c0-0.9-0.6-1.3-1.6-1.3c-0.4,0-0.7,0-0.8,0.1V137.1z"/>
			<path class="st0" d="M242.1,133.5h0.9v7.1h-0.9V133.5z"/>
			<path class="st0" d="M247.4,140.5l-0.1-0.6h0c-0.3,0.4-0.8,0.7-1.5,0.7c-1,0-1.5-0.7-1.5-1.4c0-1.2,1-1.8,2.9-1.8v-0.1
				c0-0.4-0.1-1.1-1.1-1.1c-0.4,0-0.9,0.1-1.3,0.4l-0.2-0.6c0.4-0.3,1-0.4,1.6-0.4c1.5,0,1.8,1,1.8,2v1.8c0,0.4,0,0.8,0.1,1.2H247.4
				z M247.2,138.1c-1,0-2,0.1-2,1.1c0,0.6,0.4,0.8,0.8,0.8c0.6,0,1-0.4,1.2-0.8c0-0.1,0.1-0.2,0.1-0.3V138.1z"/>
			<path class="st0" d="M249.7,137c0-0.5,0-0.9,0-1.3h0.8l0,0.8h0c0.2-0.5,0.8-0.9,1.6-0.9c0.7,0,1.7,0.4,1.7,2.1v2.9h-0.9v-2.8
				c0-0.8-0.3-1.4-1.1-1.4c-0.6,0-1,0.4-1.2,0.9c0,0.1-0.1,0.3-0.1,0.4v2.9h-0.9V137z"/>
			<path class="st0" d="M255.5,137c0-0.5,0-0.9,0-1.3h0.8l0,0.8h0c0.2-0.5,0.8-0.9,1.6-0.9c0.7,0,1.7,0.4,1.7,2.1v2.9h-0.9v-2.8
				c0-0.8-0.3-1.4-1.1-1.4c-0.6,0-1,0.4-1.2,0.9c0,0.1-0.1,0.3-0.1,0.4v2.9h-0.9V137z"/>
			<path class="st0" d="M262.2,134.4c0,0.3-0.2,0.5-0.6,0.5c-0.3,0-0.5-0.2-0.5-0.5c0-0.3,0.2-0.5,0.5-0.5
				C262,133.8,262.2,134,262.2,134.4z M261.2,140.5v-4.8h0.9v4.8H261.2z"/>
			<path class="st0" d="M263.7,137c0-0.5,0-0.9,0-1.3h0.8l0,0.8h0c0.2-0.5,0.8-0.9,1.6-0.9c0.7,0,1.7,0.4,1.7,2.1v2.9H267v-2.8
				c0-0.8-0.3-1.4-1.1-1.4c-0.6,0-1,0.4-1.2,0.9c0,0.1-0.1,0.3-0.1,0.4v2.9h-0.9V137z"/>
			<path class="st0" d="M273.7,135.7c0,0.4,0,0.7,0,1.3v2.8c0,1.1-0.2,1.8-0.7,2.2c-0.5,0.4-1.1,0.6-1.8,0.6c-0.6,0-1.2-0.1-1.6-0.4
				l0.2-0.7c0.3,0.2,0.8,0.4,1.4,0.4c0.9,0,1.6-0.5,1.6-1.7v-0.5h0c-0.3,0.4-0.8,0.8-1.5,0.8c-1.2,0-2.1-1-2.1-2.4
				c0-1.6,1.1-2.6,2.2-2.6c0.8,0,1.3,0.4,1.5,0.8h0l0-0.7H273.7z M272.8,137.6c0-0.1,0-0.3,0-0.4c-0.2-0.5-0.6-0.9-1.2-0.9
				c-0.8,0-1.4,0.7-1.4,1.8c0,0.9,0.5,1.7,1.4,1.7c0.5,0,1-0.3,1.2-0.9c0-0.1,0.1-0.3,0.1-0.5V137.6z"/>
		</g>
	</g>
	<g>
		<g>
			<path class="st0" d="M192,227.8c0.4-0.1,1.1-0.1,1.7-0.1c0.9,0,1.5,0.2,1.9,0.5c0.3,0.3,0.5,0.8,0.5,1.3c0,0.9-0.6,1.5-1.3,1.7v0
				c0.5,0.2,0.8,0.7,1,1.4c0.2,0.9,0.4,1.6,0.5,1.8h-0.9c-0.1-0.2-0.3-0.8-0.4-1.6c-0.2-0.9-0.6-1.3-1.3-1.3h-0.8v2.9H192V227.8z
				 M192.8,230.9h0.9c0.9,0,1.5-0.5,1.5-1.3c0-0.9-0.6-1.2-1.5-1.3c-0.4,0-0.7,0-0.9,0.1V230.9z"/>
			<path class="st0" d="M198,232.2c0,1.2,0.8,1.7,1.7,1.7c0.6,0,1-0.1,1.3-0.2l0.1,0.6c-0.3,0.1-0.8,0.3-1.6,0.3
				c-1.5,0-2.4-1-2.4-2.4c0-1.5,0.9-2.6,2.3-2.6c1.6,0,2,1.4,2,2.3c0,0.2,0,0.3,0,0.4H198z M200.6,231.6c0-0.6-0.2-1.4-1.2-1.4
				c-0.9,0-1.3,0.8-1.3,1.4H200.6z"/>
			<path class="st0" d="M202.6,233.6c0.3,0.2,0.7,0.3,1.2,0.3c0.6,0,0.9-0.3,0.9-0.7c0-0.4-0.2-0.6-0.9-0.9
				c-0.9-0.3-1.3-0.8-1.3-1.4c0-0.8,0.6-1.4,1.7-1.4c0.5,0,0.9,0.1,1.2,0.3l-0.2,0.6c-0.2-0.1-0.5-0.3-1-0.3c-0.5,0-0.8,0.3-0.8,0.7
				c0,0.4,0.3,0.6,0.9,0.8c0.8,0.3,1.3,0.7,1.3,1.5c0,0.8-0.7,1.4-1.8,1.4c-0.5,0-1-0.1-1.4-0.3L202.6,233.6z"/>
			<path class="st0" d="M211.3,232c0,1.8-1.2,2.6-2.4,2.6c-1.3,0-2.3-1-2.3-2.5c0-1.6,1.1-2.6,2.4-2.6
				C210.3,229.5,211.3,230.5,211.3,232z M207.4,232c0,1.1,0.6,1.9,1.5,1.9c0.8,0,1.5-0.8,1.5-1.9c0-0.8-0.4-1.9-1.4-1.9
				C207.9,230.2,207.4,231.1,207.4,232z"/>
			<path class="st0" d="M216.6,233.1c0,0.5,0,0.9,0,1.3h-0.8l0-0.8h0c-0.2,0.4-0.7,0.9-1.6,0.9c-0.8,0-1.7-0.4-1.7-2.1v-2.8h0.9v2.7
				c0,0.9,0.3,1.5,1.1,1.5c0.6,0,1-0.4,1.2-0.8c0-0.1,0.1-0.3,0.1-0.4v-3h0.9V233.1z"/>
			<path class="st0" d="M218.3,231.1c0-0.6,0-1.1,0-1.5h0.8l0,0.9h0c0.2-0.6,0.7-1.1,1.3-1.1c0.1,0,0.2,0,0.2,0v0.8
				c-0.1,0-0.2,0-0.3,0c-0.6,0-1.1,0.5-1.2,1.1c0,0.1,0,0.3,0,0.4v2.6h-0.9V231.1z"/>
			<path class="st0" d="M225.2,234.3c-0.2,0.1-0.7,0.3-1.4,0.3c-1.5,0-2.4-1-2.4-2.5c0-1.5,1-2.6,2.6-2.6c0.5,0,1,0.1,1.2,0.2
				l-0.2,0.7c-0.2-0.1-0.5-0.2-1-0.2c-1.1,0-1.7,0.8-1.7,1.8c0,1.1,0.7,1.8,1.7,1.8c0.5,0,0.8-0.1,1.1-0.2L225.2,234.3z"/>
			<path class="st0" d="M226.9,232.2c0,1.2,0.8,1.7,1.7,1.7c0.6,0,1-0.1,1.3-0.2l0.1,0.6c-0.3,0.1-0.8,0.3-1.6,0.3
				c-1.5,0-2.4-1-2.4-2.4c0-1.5,0.9-2.6,2.3-2.6c1.6,0,2,1.4,2,2.3c0,0.2,0,0.3,0,0.4H226.9z M229.5,231.6c0-0.6-0.2-1.4-1.2-1.4
				c-0.9,0-1.3,0.8-1.3,1.4H229.5z"/>
			<path class="st0" d="M190.3,241.5c0-0.9-0.1-2.1-0.1-2.9h0c-0.2,0.8-0.5,1.6-0.8,2.6l-1.2,3.3h-0.7l-1.1-3.2
				c-0.3-0.9-0.6-1.8-0.8-2.6h0c0,0.8-0.1,2-0.1,3l-0.2,2.9h-0.8l0.5-6.7h1.1l1.1,3.3c0.3,0.8,0.5,1.6,0.7,2.3h0
				c0.2-0.7,0.4-1.4,0.7-2.3l1.2-3.3h1.1l0.4,6.7h-0.8L190.3,241.5z"/>
			<path class="st0" d="M197.2,242c0,1.8-1.2,2.6-2.4,2.6c-1.3,0-2.3-1-2.3-2.5c0-1.6,1.1-2.6,2.4-2.6
				C196.3,239.5,197.2,240.5,197.2,242z M193.4,242c0,1.1,0.6,1.9,1.5,1.9c0.8,0,1.5-0.8,1.5-1.9c0-0.8-0.4-1.9-1.4-1.9
				C193.8,240.2,193.4,241.1,193.4,242z"/>
			<path class="st0" d="M198.5,244.5c0-0.3,0-0.8,0-1.2v-5.8h0.9v3h0c0.3-0.5,0.9-0.9,1.6-0.9c1.2,0,2,1,2,2.5
				c0,1.7-1.1,2.6-2.2,2.6c-0.7,0-1.3-0.3-1.6-0.9h0l0,0.8H198.5z M199.4,242.5c0,0.1,0,0.2,0,0.3c0.2,0.6,0.7,1,1.3,1
				c0.9,0,1.5-0.7,1.5-1.9c0-1-0.5-1.8-1.4-1.8c-0.6,0-1.2,0.4-1.3,1.1c0,0.1,0,0.2,0,0.4V242.5z"/>
			<path class="st0" d="M205.4,238.3c0,0.3-0.2,0.5-0.6,0.5c-0.3,0-0.5-0.2-0.5-0.5c0-0.3,0.2-0.5,0.5-0.5
				C205.2,237.7,205.4,238,205.4,238.3z M204.4,244.5v-4.8h0.9v4.8H204.4z"/>
			<path class="st0" d="M206.9,237.4h0.9v7.1h-0.9V237.4z"/>
			<path class="st0" d="M210.5,238.3c0,0.3-0.2,0.5-0.6,0.5c-0.3,0-0.5-0.2-0.5-0.5c0-0.3,0.2-0.5,0.5-0.5
				C210.3,237.7,210.5,238,210.5,238.3z M209.5,244.5v-4.8h0.9v4.8H209.5z"/>
			<path class="st0" d="M211.5,243.9l2.2-2.8c0.2-0.3,0.4-0.5,0.6-0.8v0h-2.6v-0.7h3.7l0,0.5l-2.2,2.8c-0.2,0.3-0.4,0.5-0.6,0.8v0
				h2.8v0.7h-3.9V243.9z"/>
			<path class="st0" d="M219.2,244.5l-0.1-0.6h0c-0.3,0.4-0.8,0.7-1.5,0.7c-1,0-1.5-0.7-1.5-1.4c0-1.2,1-1.8,2.9-1.8v-0.1
				c0-0.4-0.1-1.1-1.1-1.1c-0.4,0-0.9,0.1-1.3,0.4l-0.2-0.6c0.4-0.3,1-0.4,1.6-0.4c1.5,0,1.8,1,1.8,2v1.8c0,0.4,0,0.8,0.1,1.2H219.2
				z M219.1,242c-1,0-2,0.1-2,1.1c0,0.6,0.4,0.8,0.8,0.8c0.6,0,1-0.4,1.2-0.8c0-0.1,0.1-0.2,0.1-0.3V242z"/>
			<path class="st0" d="M222.6,238.2v1.4h1.3v0.7h-1.3v2.6c0,0.6,0.2,0.9,0.7,0.9c0.2,0,0.4,0,0.5-0.1l0,0.7
				c-0.2,0.1-0.4,0.1-0.8,0.1c-0.4,0-0.7-0.1-0.9-0.4c-0.2-0.3-0.3-0.7-0.3-1.3v-2.6H221v-0.7h0.8v-1.2L222.6,238.2z"/>
			<path class="st0" d="M226,238.3c0,0.3-0.2,0.5-0.6,0.5c-0.3,0-0.5-0.2-0.5-0.5c0-0.3,0.2-0.5,0.5-0.5
				C225.8,237.7,226,238,226,238.3z M225,244.5v-4.8h0.9v4.8H225z"/>
			<path class="st0" d="M232,242c0,1.8-1.2,2.6-2.4,2.6c-1.3,0-2.3-1-2.3-2.5c0-1.6,1.1-2.6,2.4-2.6C231,239.5,232,240.5,232,242z
				 M228.1,242c0,1.1,0.6,1.9,1.5,1.9c0.8,0,1.5-0.8,1.5-1.9c0-0.8-0.4-1.9-1.4-1.9C228.6,240.2,228.1,241.1,228.1,242z"/>
			<path class="st0" d="M233.3,240.9c0-0.5,0-0.9,0-1.3h0.8l0,0.8h0c0.2-0.5,0.8-0.9,1.6-0.9c0.7,0,1.7,0.4,1.7,2.1v2.9h-0.9v-2.8
				c0-0.8-0.3-1.4-1.1-1.4c-0.6,0-1,0.4-1.2,0.9c0,0.1-0.1,0.3-0.1,0.4v2.9h-0.9V240.9z"/>
		</g>
	</g>
	<g>
		<g>
			<path class="st0" d="M63.6,218.8v6.7h-0.9v-6.7H63.6z"/>
			<path class="st0" d="M65.3,222c0-0.5,0-0.9,0-1.3H66l0,0.8h0c0.3-0.5,0.7-0.9,1.5-0.9c0.7,0,1.2,0.4,1.4,1h0
				c0.1-0.3,0.3-0.5,0.5-0.6c0.3-0.2,0.6-0.3,1.1-0.3c0.6,0,1.6,0.4,1.6,2.1v2.8h-0.9v-2.7c0-0.9-0.3-1.5-1-1.5
				c-0.5,0-0.9,0.4-1,0.8c0,0.1-0.1,0.3-0.1,0.4v3h-0.9v-2.9c0-0.8-0.3-1.3-1-1.3c-0.5,0-0.9,0.4-1.1,0.9c-0.1,0.1-0.1,0.3-0.1,0.4
				v2.9h-0.9V222z"/>
			<path class="st0" d="M73.8,222.3c0-0.6,0-1.1,0-1.6h0.8l0,0.8h0c0.4-0.6,0.9-0.9,1.7-0.9c1.2,0,2,1,2,2.5c0,1.7-1.1,2.6-2.2,2.6
				c-0.6,0-1.2-0.3-1.5-0.8h0v2.6h-0.9V222.3z M74.7,223.6c0,0.1,0,0.2,0,0.4c0.2,0.6,0.7,1,1.3,1c0.9,0,1.5-0.8,1.5-1.9
				c0-1-0.5-1.8-1.4-1.8c-0.6,0-1.2,0.4-1.3,1.1c0,0.1-0.1,0.2-0.1,0.4V223.6z"/>
			<path class="st0" d="M79.7,218.4h0.9v7.1h-0.9V218.4z"/>
			<path class="st0" d="M82.7,223.3c0,1.2,0.8,1.7,1.7,1.7c0.6,0,1-0.1,1.3-0.2l0.1,0.6c-0.3,0.1-0.8,0.3-1.6,0.3
				c-1.5,0-2.4-1-2.4-2.4c0-1.5,0.9-2.6,2.3-2.6c1.6,0,2,1.4,2,2.3c0,0.2,0,0.3,0,0.4H82.7z M85.3,222.7c0-0.6-0.2-1.4-1.2-1.4
				c-0.9,0-1.3,0.8-1.3,1.4H85.3z"/>
			<path class="st0" d="M87.5,222c0-0.5,0-0.9,0-1.3h0.8l0,0.8h0c0.3-0.5,0.7-0.9,1.5-0.9c0.7,0,1.2,0.4,1.4,1h0
				c0.1-0.3,0.3-0.5,0.5-0.6c0.3-0.2,0.6-0.3,1.1-0.3c0.6,0,1.6,0.4,1.6,2.1v2.8h-0.9v-2.7c0-0.9-0.3-1.5-1-1.5
				c-0.5,0-0.9,0.4-1,0.8c0,0.1-0.1,0.3-0.1,0.4v3h-0.9v-2.9c0-0.8-0.3-1.3-1-1.3c-0.5,0-0.9,0.4-1.1,0.9c-0.1,0.1-0.1,0.3-0.1,0.4
				v2.9h-0.9V222z"/>
			<path class="st0" d="M96.5,223.3c0,1.2,0.8,1.7,1.7,1.7c0.6,0,1-0.1,1.3-0.2l0.1,0.6c-0.3,0.1-0.8,0.3-1.6,0.3
				c-1.5,0-2.4-1-2.4-2.4c0-1.5,0.9-2.6,2.3-2.6c1.6,0,2,1.4,2,2.3c0,0.2,0,0.3,0,0.4H96.5z M99.1,222.7c0-0.6-0.2-1.4-1.2-1.4
				c-0.9,0-1.3,0.8-1.3,1.4H99.1z"/>
			<path class="st0" d="M101.2,222c0-0.5,0-0.9,0-1.3h0.8l0,0.8h0c0.2-0.5,0.8-0.9,1.6-0.9c0.7,0,1.7,0.4,1.7,2.1v2.9h-0.9v-2.8
				c0-0.8-0.3-1.4-1.1-1.4c-0.6,0-1,0.4-1.2,0.9c0,0.1-0.1,0.3-0.1,0.4v2.9h-0.9V222z"/>
			<path class="st0" d="M108,219.3v1.4h1.3v0.7H108v2.6c0,0.6,0.2,0.9,0.7,0.9c0.2,0,0.4,0,0.5-0.1l0,0.7c-0.2,0.1-0.4,0.1-0.8,0.1
				c-0.4,0-0.7-0.1-0.9-0.4c-0.2-0.3-0.3-0.7-0.3-1.3v-2.6h-0.8v-0.7h0.8v-1.2L108,219.3z"/>
			<path class="st0" d="M113.2,225.5l-0.1-0.6h0c-0.3,0.4-0.8,0.7-1.5,0.7c-1,0-1.5-0.7-1.5-1.4c0-1.2,1-1.8,2.9-1.8v-0.1
				c0-0.4-0.1-1.1-1.1-1.1c-0.4,0-0.9,0.1-1.3,0.4l-0.2-0.6c0.4-0.3,1-0.4,1.6-0.4c1.5,0,1.8,1,1.8,2v1.8c0,0.4,0,0.8,0.1,1.2H113.2
				z M113,223.1c-1,0-2,0.1-2,1.1c0,0.6,0.4,0.8,0.8,0.8c0.6,0,1-0.4,1.2-0.8c0-0.1,0.1-0.2,0.1-0.3V223.1z"/>
			<path class="st0" d="M116.6,219.3v1.4h1.3v0.7h-1.3v2.6c0,0.6,0.2,0.9,0.7,0.9c0.2,0,0.4,0,0.5-0.1l0,0.7
				c-0.2,0.1-0.4,0.1-0.8,0.1c-0.4,0-0.7-0.1-0.9-0.4c-0.2-0.3-0.3-0.7-0.3-1.3v-2.6h-0.8v-0.7h0.8v-1.2L116.6,219.3z"/>
			<path class="st0" d="M120,219.3c0,0.3-0.2,0.5-0.6,0.5c-0.3,0-0.5-0.2-0.5-0.5c0-0.3,0.2-0.5,0.5-0.5
				C119.8,218.8,120,219,120,219.3z M119,225.5v-4.8h0.9v4.8H119z"/>
			<path class="st0" d="M125.9,223.1c0,1.8-1.2,2.6-2.4,2.6c-1.3,0-2.3-1-2.3-2.5c0-1.6,1.1-2.6,2.4-2.6
				C125,220.6,125.9,221.6,125.9,223.1z M122.1,223.1c0,1.1,0.6,1.9,1.5,1.9c0.8,0,1.5-0.8,1.5-1.9c0-0.8-0.4-1.9-1.4-1.9
				C122.5,221.3,122.1,222.2,122.1,223.1z"/>
			<path class="st0" d="M127.2,222c0-0.5,0-0.9,0-1.3h0.8l0,0.8h0c0.2-0.5,0.8-0.9,1.6-0.9c0.7,0,1.7,0.4,1.7,2.1v2.9h-0.9v-2.8
				c0-0.8-0.3-1.4-1.1-1.4c-0.6,0-1,0.4-1.2,0.9c0,0.1-0.1,0.3-0.1,0.4v2.9h-0.9V222z"/>
			<path class="st0" d="M73.3,235.5c-0.2-0.2-0.4-0.4-0.6-0.7c-0.6,0.5-1.2,0.8-2,0.8c-1.3,0-2.1-0.9-2.1-1.9c0-0.9,0.5-1.5,1.3-2v0
				c-0.3-0.4-0.6-0.9-0.6-1.4c0-0.8,0.6-1.7,1.7-1.7c0.8,0,1.5,0.6,1.5,1.4c0,0.7-0.4,1.3-1.5,1.8v0c0.6,0.7,1.2,1.4,1.6,1.9
				c0.3-0.5,0.5-1.1,0.6-2h0.8c-0.2,1.1-0.5,1.9-1,2.5c0.4,0.4,0.7,0.8,1.1,1.2H73.3z M72.3,234.4c-0.4-0.4-1.1-1.3-1.9-2.1
				c-0.4,0.2-0.9,0.7-0.9,1.4c0,0.8,0.6,1.4,1.4,1.4C71.4,235,71.9,234.7,72.3,234.4z M70.2,230.3c0,0.5,0.2,0.8,0.5,1.2
				c0.7-0.4,1.1-0.7,1.1-1.3c0-0.4-0.2-0.9-0.8-0.9C70.5,229.3,70.2,229.8,70.2,230.3z"/>
			<path class="st0" d="M83.3,232.6c0-0.9-0.1-2.1-0.1-2.9h0c-0.2,0.8-0.5,1.6-0.8,2.6l-1.2,3.3h-0.7l-1.1-3.2
				c-0.3-0.9-0.6-1.8-0.8-2.6h0c0,0.8-0.1,2-0.1,3l-0.2,2.9h-0.8l0.5-6.7h1.1l1.1,3.3c0.3,0.8,0.5,1.6,0.7,2.3h0
				c0.2-0.7,0.4-1.4,0.7-2.3l1.2-3.3h1.1l0.4,6.7h-0.8L83.3,232.6z"/>
			<path class="st0" d="M90.3,233.1c0,1.8-1.2,2.6-2.4,2.6c-1.3,0-2.3-1-2.3-2.5c0-1.6,1.1-2.6,2.4-2.6
				C89.3,230.6,90.3,231.6,90.3,233.1z M86.4,233.1c0,1.1,0.6,1.9,1.5,1.9c0.8,0,1.5-0.8,1.5-1.9c0-0.8-0.4-1.9-1.4-1.9
				C86.9,231.3,86.4,232.2,86.4,233.1z"/>
			<path class="st0" d="M91.6,232c0-0.5,0-0.9,0-1.3h0.8l0,0.8h0c0.2-0.5,0.8-0.9,1.6-0.9c0.7,0,1.7,0.4,1.7,2.1v2.9h-0.9v-2.8
				c0-0.8-0.3-1.4-1.1-1.4c-0.6,0-1,0.4-1.2,0.9c0,0.1-0.1,0.3-0.1,0.4v2.9h-0.9V232z"/>
			<path class="st0" d="M98.3,229.3c0,0.3-0.2,0.5-0.6,0.5c-0.3,0-0.5-0.2-0.5-0.5c0-0.3,0.2-0.5,0.5-0.5
				C98.1,228.8,98.3,229,98.3,229.3z M97.3,235.5v-4.8h0.9v4.8H97.3z"/>
			<path class="st0" d="M100.9,229.3v1.4h1.3v0.7h-1.3v2.6c0,0.6,0.2,0.9,0.7,0.9c0.2,0,0.4,0,0.5-0.1l0,0.7
				c-0.2,0.1-0.4,0.1-0.8,0.1c-0.4,0-0.7-0.1-0.9-0.4c-0.2-0.3-0.3-0.7-0.3-1.3v-2.6h-0.8v-0.7h0.8v-1.2L100.9,229.3z"/>
			<path class="st0" d="M107.7,233.1c0,1.8-1.2,2.6-2.4,2.6c-1.3,0-2.3-1-2.3-2.5c0-1.6,1.1-2.6,2.4-2.6
				C106.8,230.6,107.7,231.6,107.7,233.1z M103.9,233.1c0,1.1,0.6,1.9,1.5,1.9c0.8,0,1.5-0.8,1.5-1.9c0-0.8-0.4-1.9-1.4-1.9
				C104.4,231.3,103.9,232.2,103.9,233.1z"/>
			<path class="st0" d="M109.1,232.2c0-0.6,0-1.1,0-1.5h0.8l0,0.9h0c0.2-0.6,0.7-1.1,1.3-1.1c0.1,0,0.2,0,0.2,0v0.8
				c-0.1,0-0.2,0-0.3,0c-0.6,0-1.1,0.5-1.2,1.1c0,0.1,0,0.3,0,0.4v2.6h-0.9V232.2z"/>
			<path class="st0" d="M113.5,229.3c0,0.3-0.2,0.5-0.6,0.5c-0.3,0-0.5-0.2-0.5-0.5c0-0.3,0.2-0.5,0.5-0.5
				C113.3,228.8,113.5,229,113.5,229.3z M112.5,235.5v-4.8h0.9v4.8H112.5z"/>
			<path class="st0" d="M115.1,232c0-0.5,0-0.9,0-1.3h0.8l0,0.8h0c0.2-0.5,0.8-0.9,1.6-0.9c0.7,0,1.7,0.4,1.7,2.1v2.9h-0.9v-2.8
				c0-0.8-0.3-1.4-1.1-1.4c-0.6,0-1,0.4-1.2,0.9c0,0.1-0.1,0.3-0.1,0.4v2.9h-0.9V232z"/>
			<path class="st0" d="M125,230.7c0,0.4,0,0.7,0,1.3v2.8c0,1.1-0.2,1.8-0.7,2.2c-0.5,0.4-1.1,0.6-1.8,0.6c-0.6,0-1.2-0.1-1.6-0.4
				l0.2-0.7c0.3,0.2,0.8,0.4,1.4,0.4c0.9,0,1.6-0.5,1.6-1.7v-0.5h0c-0.3,0.4-0.8,0.8-1.5,0.8c-1.2,0-2.1-1-2.1-2.4
				c0-1.6,1.1-2.6,2.2-2.6c0.8,0,1.3,0.4,1.5,0.8h0l0-0.7H125z M124.1,232.6c0-0.1,0-0.3,0-0.4c-0.2-0.5-0.6-0.9-1.2-0.9
				c-0.8,0-1.4,0.7-1.4,1.8c0,0.9,0.5,1.7,1.4,1.7c0.5,0,1-0.3,1.2-0.9c0-0.1,0.1-0.3,0.1-0.5V232.6z"/>
		</g>
	</g>
	<g>
		<g>
			<path class="st0" d="M55.6,101.4c0,2.3-1.4,3.5-3.1,3.5c-1.8,0-3-1.4-3-3.4c0-2.1,1.3-3.5,3.1-3.5C54.4,98,55.6,99.4,55.6,101.4z
				 M50.3,101.5c0,1.4,0.8,2.7,2.1,2.7c1.4,0,2.2-1.3,2.2-2.8c0-1.3-0.7-2.7-2.1-2.7C51.1,98.7,50.3,100,50.3,101.5z"/>
			<path class="st0" d="M56.9,101.5c0-0.6,0-1.1,0-1.6h0.8l0,0.8h0c0.4-0.6,0.9-0.9,1.7-0.9c1.2,0,2,1,2,2.5c0,1.7-1.1,2.6-2.2,2.6
				c-0.6,0-1.2-0.3-1.5-0.8h0v2.6h-0.9V101.5z M57.7,102.8c0,0.1,0,0.2,0,0.4c0.2,0.6,0.7,1,1.3,1c0.9,0,1.5-0.8,1.5-1.9
				c0-1-0.5-1.8-1.4-1.8c-0.6,0-1.2,0.4-1.3,1.1c0,0.1-0.1,0.2-0.1,0.4V102.8z"/>
			<path class="st0" d="M63.3,102.5c0,1.2,0.8,1.7,1.7,1.7c0.6,0,1-0.1,1.3-0.2l0.1,0.6c-0.3,0.1-0.8,0.3-1.6,0.3
				c-1.5,0-2.4-1-2.4-2.4c0-1.5,0.9-2.6,2.3-2.6c1.6,0,2,1.4,2,2.3c0,0.2,0,0.3,0,0.4H63.3z M65.8,101.9c0-0.6-0.2-1.4-1.2-1.4
				c-0.9,0-1.3,0.8-1.3,1.4H65.8z"/>
			<path class="st0" d="M68,101.5c0-0.6,0-1.1,0-1.5h0.8l0,0.9h0c0.2-0.6,0.7-1.1,1.3-1.1c0.1,0,0.2,0,0.2,0v0.8c-0.1,0-0.2,0-0.3,0
				c-0.6,0-1.1,0.5-1.2,1.1c0,0.1,0,0.3,0,0.4v2.6H68V101.5z"/>
			<path class="st0" d="M74.1,104.8l-0.1-0.6h0c-0.3,0.4-0.8,0.7-1.5,0.7c-1,0-1.5-0.7-1.5-1.4c0-1.2,1-1.8,2.9-1.8v-0.1
				c0-0.4-0.1-1.1-1.1-1.1c-0.4,0-0.9,0.1-1.3,0.4l-0.2-0.6c0.4-0.3,1-0.4,1.6-0.4c1.5,0,1.8,1,1.8,2v1.8c0,0.4,0,0.8,0.1,1.2H74.1z
				 M74,102.3c-1,0-2,0.1-2,1.1c0,0.6,0.4,0.8,0.8,0.8c0.6,0,1-0.4,1.2-0.8c0-0.1,0.1-0.2,0.1-0.3V102.3z"/>
			<path class="st0" d="M77.5,98.6v1.4h1.3v0.7h-1.3v2.6c0,0.6,0.2,0.9,0.7,0.9c0.2,0,0.4,0,0.5-0.1l0,0.7c-0.2,0.1-0.4,0.1-0.8,0.1
				c-0.4,0-0.7-0.1-0.9-0.4c-0.2-0.3-0.3-0.7-0.3-1.3v-2.6h-0.8V100h0.8v-1.2L77.5,98.6z"/>
			<path class="st0" d="M81,98.6c0,0.3-0.2,0.5-0.6,0.5c-0.3,0-0.5-0.2-0.5-0.5c0-0.3,0.2-0.5,0.5-0.5C80.7,98.1,81,98.3,81,98.6z
				 M80,104.8V100h0.9v4.8H80z"/>
			<path class="st0" d="M86.9,102.3c0,1.8-1.2,2.6-2.4,2.6c-1.3,0-2.3-1-2.3-2.5c0-1.6,1.1-2.6,2.4-2.6
				C86,99.9,86.9,100.9,86.9,102.3z M83.1,102.4c0,1.1,0.6,1.9,1.5,1.9c0.8,0,1.5-0.8,1.5-1.9c0-0.8-0.4-1.9-1.4-1.9
				C83.5,100.5,83.1,101.5,83.1,102.4z"/>
			<path class="st0" d="M88.2,101.3c0-0.5,0-0.9,0-1.3h0.8l0,0.8h0c0.2-0.5,0.8-0.9,1.6-0.9c0.7,0,1.7,0.4,1.7,2.1v2.9h-0.9V102
				c0-0.8-0.3-1.4-1.1-1.4c-0.6,0-1,0.4-1.2,0.9c0,0.1-0.1,0.3-0.1,0.4v2.9h-0.9V101.3z"/>
			<path class="st0" d="M96.6,104.8l-0.1-0.6h0c-0.3,0.4-0.8,0.7-1.5,0.7c-1,0-1.5-0.7-1.5-1.4c0-1.2,1-1.8,2.9-1.8v-0.1
				c0-0.4-0.1-1.1-1.1-1.1c-0.4,0-0.9,0.1-1.3,0.4l-0.2-0.6c0.4-0.3,1-0.4,1.6-0.4c1.5,0,1.8,1,1.8,2v1.8c0,0.4,0,0.8,0.1,1.2H96.6z
				 M96.5,102.3c-1,0-2,0.1-2,1.1c0,0.6,0.4,0.8,0.8,0.8c0.6,0,1-0.4,1.2-0.8c0-0.1,0.1-0.2,0.1-0.3V102.3z"/>
			<path class="st0" d="M99,97.7h0.9v7.1H99V97.7z"/>
			<path class="st0" d="M49.3,108.1c0.4-0.1,1-0.1,1.7-0.1c0.9,0,1.5,0.2,1.9,0.6c0.4,0.3,0.6,0.8,0.6,1.4c0,0.6-0.2,1.1-0.5,1.4
				c-0.5,0.5-1.2,0.7-2.1,0.7c-0.3,0-0.5,0-0.7-0.1v2.7h-0.9V108.1z M50.1,111.4c0.2,0.1,0.4,0.1,0.7,0.1c1,0,1.7-0.5,1.7-1.4
				c0-0.9-0.6-1.3-1.6-1.3c-0.4,0-0.7,0-0.8,0.1V111.4z"/>
			<path class="st0" d="M55.2,112.5c0,1.2,0.8,1.7,1.7,1.7c0.6,0,1-0.1,1.3-0.2l0.1,0.6c-0.3,0.1-0.8,0.3-1.6,0.3
				c-1.5,0-2.4-1-2.4-2.4c0-1.5,0.9-2.6,2.3-2.6c1.6,0,2,1.4,2,2.3c0,0.2,0,0.3,0,0.4H55.2z M57.8,111.9c0-0.6-0.2-1.4-1.2-1.4
				c-0.9,0-1.3,0.8-1.3,1.4H57.8z"/>
			<path class="st0" d="M60.5,112.5c0,1.2,0.8,1.7,1.7,1.7c0.6,0,1-0.1,1.3-0.2l0.1,0.6c-0.3,0.1-0.8,0.3-1.6,0.3
				c-1.5,0-2.4-1-2.4-2.4c0-1.5,0.9-2.6,2.3-2.6c1.6,0,2,1.4,2,2.3c0,0.2,0,0.3,0,0.4H60.5z M63,111.9c0-0.6-0.2-1.4-1.2-1.4
				c-0.9,0-1.3,0.8-1.3,1.4H63z"/>
			<path class="st0" d="M65.2,111.5c0-0.6,0-1.1,0-1.5h0.8l0,0.9h0c0.2-0.6,0.7-1.1,1.3-1.1c0.1,0,0.2,0,0.2,0v0.8
				c-0.1,0-0.2,0-0.3,0c-0.6,0-1.1,0.5-1.2,1.1c0,0.1,0,0.3,0,0.4v2.6h-0.9V111.5z"/>
			<path class="st0" d="M71,108.2c0.4-0.1,1.1-0.1,1.7-0.1c0.9,0,1.5,0.2,1.9,0.5c0.3,0.3,0.5,0.8,0.5,1.3c0,0.9-0.6,1.5-1.3,1.7v0
				c0.5,0.2,0.8,0.7,1,1.4c0.2,0.9,0.4,1.6,0.5,1.8h-0.9c-0.1-0.2-0.3-0.8-0.4-1.6c-0.2-0.9-0.6-1.3-1.3-1.3h-0.8v2.9H71V108.2z
				 M71.9,111.2h0.9c0.9,0,1.5-0.5,1.5-1.3c0-0.9-0.6-1.2-1.5-1.3c-0.4,0-0.7,0-0.9,0.1V111.2z"/>
			<path class="st0" d="M77,112.5c0,1.2,0.8,1.7,1.7,1.7c0.6,0,1-0.1,1.3-0.2l0.1,0.6c-0.3,0.1-0.8,0.3-1.6,0.3
				c-1.5,0-2.4-1-2.4-2.4c0-1.5,0.9-2.6,2.3-2.6c1.6,0,2,1.4,2,2.3c0,0.2,0,0.3,0,0.4H77z M79.6,111.9c0-0.6-0.2-1.4-1.2-1.4
				c-0.9,0-1.3,0.8-1.3,1.4H79.6z"/>
			<path class="st0" d="M82.1,110l0.9,2.7c0.2,0.4,0.3,0.8,0.4,1.2h0c0.1-0.4,0.2-0.8,0.4-1.2l0.9-2.7h0.9l-1.9,4.8H83l-1.8-4.8
				H82.1z"/>
			<path class="st0" d="M87.7,108.6c0,0.3-0.2,0.5-0.6,0.5c-0.3,0-0.5-0.2-0.5-0.5c0-0.3,0.2-0.5,0.5-0.5
				C87.5,108.1,87.7,108.3,87.7,108.6z M86.8,114.8V110h0.9v4.8H86.8z"/>
			<path class="st0" d="M89.8,112.5c0,1.2,0.8,1.7,1.7,1.7c0.6,0,1-0.1,1.3-0.2l0.1,0.6c-0.3,0.1-0.8,0.3-1.6,0.3
				c-1.5,0-2.4-1-2.4-2.4c0-1.5,0.9-2.6,2.3-2.6c1.6,0,2,1.4,2,2.3c0,0.2,0,0.3,0,0.4H89.8z M92.4,111.9c0-0.6-0.2-1.4-1.2-1.4
				c-0.9,0-1.3,0.8-1.3,1.4H92.4z"/>
			<path class="st0" d="M94.9,110l0.6,2.5c0.1,0.5,0.3,1,0.4,1.5h0c0.1-0.5,0.3-1,0.4-1.5l0.8-2.5h0.7l0.7,2.4
				c0.2,0.6,0.3,1.1,0.4,1.6h0c0.1-0.5,0.2-1,0.4-1.6l0.7-2.4h0.9l-1.6,4.8h-0.8l-0.7-2.3c-0.2-0.5-0.3-1-0.4-1.6h0
				c-0.1,0.6-0.3,1.1-0.4,1.6l-0.8,2.3h-0.8L94,110H94.9z"/>
			<path class="st0" d="M52.7,124.8c-0.2-0.2-0.4-0.4-0.6-0.7c-0.6,0.5-1.2,0.8-2,0.8c-1.3,0-2.1-0.9-2.1-1.9c0-0.9,0.5-1.5,1.3-2v0
				c-0.3-0.4-0.6-0.9-0.6-1.4c0-0.8,0.6-1.7,1.7-1.7c0.8,0,1.5,0.6,1.5,1.4c0,0.7-0.4,1.3-1.5,1.8v0c0.6,0.7,1.2,1.4,1.6,1.9
				c0.3-0.5,0.5-1.1,0.6-2h0.8c-0.2,1.1-0.5,1.9-1,2.5c0.4,0.4,0.7,0.8,1.1,1.2H52.7z M51.6,123.6c-0.4-0.4-1.1-1.3-1.9-2.1
				c-0.4,0.2-0.9,0.7-0.9,1.4c0,0.8,0.6,1.4,1.4,1.4C50.8,124.2,51.3,124,51.6,123.6z M49.5,119.5c0,0.5,0.2,0.8,0.5,1.2
				c0.7-0.4,1.1-0.7,1.1-1.3c0-0.4-0.2-0.9-0.8-0.9C49.8,118.6,49.5,119,49.5,119.5z"/>
			<path class="st0" d="M60.5,121.6h-2.6v2.4h2.9v0.7H57v-6.7h3.6v0.7h-2.8v2.1h2.6V121.6z"/>
			<path class="st0" d="M62.4,120l0.9,2.7c0.2,0.4,0.3,0.8,0.4,1.2h0c0.1-0.4,0.2-0.8,0.4-1.2l0.9-2.7h0.9l-1.9,4.8h-0.8l-1.8-4.8
				H62.4z"/>
			<path class="st0" d="M69.8,124.8l-0.1-0.6h0c-0.3,0.4-0.8,0.7-1.5,0.7c-1,0-1.5-0.7-1.5-1.4c0-1.2,1-1.8,2.9-1.8v-0.1
				c0-0.4-0.1-1.1-1.1-1.1c-0.4,0-0.9,0.1-1.3,0.4l-0.2-0.6c0.4-0.3,1-0.4,1.6-0.4c1.5,0,1.8,1,1.8,2v1.8c0,0.4,0,0.8,0.1,1.2H69.8z
				 M69.7,122.3c-1,0-2,0.1-2,1.1c0,0.6,0.4,0.8,0.8,0.8c0.6,0,1-0.4,1.2-0.8c0-0.1,0.1-0.2,0.1-0.3V122.3z"/>
			<path class="st0" d="M72.1,117.7H73v7.1h-0.9V117.7z"/>
			<path class="st0" d="M78.7,123.5c0,0.5,0,0.9,0,1.3H78l0-0.8h0c-0.2,0.4-0.7,0.9-1.6,0.9c-0.8,0-1.7-0.4-1.7-2.1V120h0.9v2.7
				c0,0.9,0.3,1.5,1.1,1.5c0.6,0,1-0.4,1.2-0.8c0-0.1,0.1-0.3,0.1-0.4v-3h0.9V123.5z"/>
			<path class="st0" d="M83.1,124.8l-0.1-0.6h0c-0.3,0.4-0.8,0.7-1.5,0.7c-1,0-1.5-0.7-1.5-1.4c0-1.2,1-1.8,2.9-1.8v-0.1
				c0-0.4-0.1-1.1-1.1-1.1c-0.4,0-0.9,0.1-1.3,0.4l-0.2-0.6c0.4-0.3,1-0.4,1.6-0.4c1.5,0,1.8,1,1.8,2v1.8c0,0.4,0,0.8,0.1,1.2H83.1z
				 M82.9,122.3c-1,0-2,0.1-2,1.1c0,0.6,0.4,0.8,0.8,0.8c0.6,0,1-0.4,1.2-0.8c0-0.1,0.1-0.2,0.1-0.3V122.3z"/>
			<path class="st0" d="M86.5,118.6v1.4h1.3v0.7h-1.3v2.6c0,0.6,0.2,0.9,0.7,0.9c0.2,0,0.4,0,0.5-0.1l0,0.7
				c-0.2,0.1-0.4,0.1-0.8,0.1c-0.4,0-0.7-0.1-0.9-0.4c-0.2-0.3-0.3-0.7-0.3-1.3v-2.6h-0.8V120h0.8v-1.2L86.5,118.6z"/>
			<path class="st0" d="M89.9,118.6c0,0.3-0.2,0.5-0.6,0.5c-0.3,0-0.5-0.2-0.5-0.5c0-0.3,0.2-0.5,0.5-0.5
				C89.7,118.1,89.9,118.3,89.9,118.6z M88.9,124.8V120h0.9v4.8H88.9z"/>
			<path class="st0" d="M95.8,122.3c0,1.8-1.2,2.6-2.4,2.6c-1.3,0-2.3-1-2.3-2.5c0-1.6,1.1-2.6,2.4-2.6
				C94.9,119.9,95.8,120.9,95.8,122.3z M92,122.4c0,1.1,0.6,1.9,1.5,1.9c0.8,0,1.5-0.8,1.5-1.9c0-0.8-0.4-1.9-1.4-1.9
				C92.5,120.5,92,121.5,92,122.4z"/>
			<path class="st0" d="M97.2,121.3c0-0.5,0-0.9,0-1.3h0.8l0,0.8h0c0.2-0.5,0.8-0.9,1.6-0.9c0.7,0,1.7,0.4,1.7,2.1v2.9h-0.9V122
				c0-0.8-0.3-1.4-1.1-1.4c-0.6,0-1,0.4-1.2,0.9c0,0.1-0.1,0.3-0.1,0.4v2.9h-0.9V121.3z"/>
		</g>
	</g>
	<g>
		<path class="st12" d="M148.5,144.9L148.5,144.9c0,0.9-0.2,1.6-0.8,2.1s-1.3,0.7-2.3,0.7c-1,0-1.8-0.3-2.4-0.9s-0.9-1.4-0.9-2.4
			v-1.6c0-1,0.3-1.8,0.9-2.4c0.6-0.6,1.4-1,2.3-1c1,0,1.8,0.2,2.3,0.7c0.6,0.5,0.8,1.2,0.8,2.1l0,0h-1.6c0-0.5-0.1-0.9-0.4-1.2
			c-0.3-0.3-0.6-0.4-1.2-0.4c-0.5,0-0.9,0.2-1.1,0.6c-0.3,0.4-0.4,0.9-0.4,1.5v1.6c0,0.6,0.1,1.1,0.4,1.5c0.3,0.4,0.7,0.6,1.2,0.6
			c0.5,0,0.9-0.1,1.1-0.4c0.2-0.3,0.4-0.7,0.4-1.2H148.5z"/>
		<path class="st12" d="M149.6,144.5c0-0.9,0.3-1.6,0.8-2.2c0.5-0.6,1.2-0.9,2.1-0.9c0.9,0,1.6,0.3,2.1,0.9s0.8,1.3,0.8,2.2v0.1
			c0,0.9-0.3,1.7-0.8,2.2s-1.2,0.9-2.1,0.9c-0.9,0-1.6-0.3-2.1-0.9s-0.8-1.3-0.8-2.2V144.5z M151.2,144.7c0,0.6,0.1,1,0.3,1.3
			s0.5,0.5,0.9,0.5c0.4,0,0.7-0.2,0.9-0.5c0.2-0.3,0.3-0.8,0.3-1.3v-0.1c0-0.5-0.1-1-0.3-1.3c-0.2-0.3-0.5-0.5-0.9-0.5
			c-0.4,0-0.7,0.2-0.9,0.5c-0.2,0.3-0.3,0.8-0.3,1.3V144.7z"/>
		<path class="st12" d="M156.3,144.5c0-0.9,0.3-1.6,0.8-2.2c0.5-0.6,1.2-0.9,2.1-0.9c0.9,0,1.6,0.3,2.1,0.9s0.8,1.3,0.8,2.2v0.1
			c0,0.9-0.3,1.7-0.8,2.2s-1.2,0.9-2.1,0.9c-0.9,0-1.6-0.3-2.1-0.9s-0.8-1.3-0.8-2.2V144.5z M157.9,144.7c0,0.6,0.1,1,0.3,1.3
			s0.5,0.5,0.9,0.5c0.4,0,0.7-0.2,0.9-0.5c0.2-0.3,0.3-0.8,0.3-1.3v-0.1c0-0.5-0.1-1-0.3-1.3c-0.2-0.3-0.5-0.5-0.9-0.5
			c-0.4,0-0.7,0.2-0.9,0.5c-0.2,0.3-0.3,0.8-0.3,1.3V144.7z"/>
		<path class="st12" d="M166.4,143l-0.6,0c-0.2,0-0.4,0.1-0.6,0.2c-0.2,0.1-0.3,0.2-0.4,0.4v4.1h-1.6v-6.1h1.5l0.1,0.9
			c0.1-0.3,0.3-0.6,0.6-0.7s0.5-0.3,0.8-0.3c0.1,0,0.2,0,0.2,0s0.1,0,0.2,0L166.4,143z"/>
		<path class="st12" d="M167.3,144.7c0-1,0.2-1.7,0.6-2.3c0.4-0.6,1-0.9,1.7-0.9c0.3,0,0.6,0.1,0.8,0.2c0.2,0.1,0.5,0.3,0.6,0.6
			v-3.3h1.6v8.8h-1.4l-0.1-0.7c-0.2,0.3-0.4,0.5-0.7,0.6c-0.3,0.1-0.6,0.2-0.9,0.2c-0.7,0-1.3-0.3-1.7-0.8c-0.4-0.5-0.6-1.3-0.6-2.2
			V144.7z M168.9,144.8c0,0.5,0.1,0.9,0.3,1.3s0.5,0.5,0.9,0.5c0.2,0,0.4,0,0.6-0.1c0.2-0.1,0.3-0.2,0.4-0.4v-2.6
			c-0.1-0.2-0.3-0.3-0.4-0.4c-0.2-0.1-0.4-0.2-0.6-0.2c-0.4,0-0.7,0.2-0.9,0.5c-0.2,0.4-0.3,0.8-0.3,1.4V144.8z"/>
		<path class="st12" d="M176,140.1h-1.6v-1.2h1.6V140.1z M176,147.6h-1.6v-6.1h1.6V147.6z"/>
		<path class="st12" d="M179.1,141.6l0.1,0.9c0.2-0.3,0.5-0.6,0.7-0.7c0.3-0.2,0.6-0.3,1-0.3c0.6,0,1.1,0.2,1.4,0.6s0.5,1,0.5,1.9
			v3.7h-1.6v-3.7c0-0.4-0.1-0.7-0.2-0.9c-0.2-0.2-0.4-0.3-0.7-0.3c-0.2,0-0.5,0-0.6,0.1c-0.2,0.1-0.3,0.2-0.5,0.4v4.4h-1.6v-6.1
			H179.1z"/>
		<path class="st12" d="M187.9,147.6c-0.1-0.1-0.1-0.3-0.2-0.4s-0.1-0.3-0.1-0.5c-0.2,0.3-0.4,0.5-0.7,0.7c-0.3,0.2-0.6,0.3-1,0.3
			c-0.6,0-1.1-0.2-1.5-0.5c-0.3-0.3-0.5-0.8-0.5-1.3c0-0.6,0.2-1.1,0.7-1.4s1.1-0.5,2-0.5h0.9v-0.5c0-0.3-0.1-0.5-0.2-0.7
			s-0.4-0.2-0.7-0.2c-0.3,0-0.5,0.1-0.6,0.2c-0.1,0.1-0.2,0.3-0.2,0.5h-1.6l0,0c0-0.5,0.2-1,0.7-1.3s1.1-0.6,1.9-0.6
			c0.7,0,1.3,0.2,1.8,0.6s0.7,0.9,0.7,1.6v2.5c0,0.3,0,0.6,0.1,0.8c0,0.3,0.1,0.5,0.2,0.7H187.9z M186.4,146.5
			c0.3,0,0.5-0.1,0.8-0.2c0.2-0.1,0.4-0.3,0.5-0.5V145h-0.9c-0.3,0-0.6,0.1-0.8,0.3s-0.3,0.4-0.3,0.6c0,0.2,0.1,0.4,0.2,0.5
			S186.1,146.5,186.4,146.5z"/>
		<path class="st12" d="M192.6,140.1v1.5h1v1.2h-1v3.1c0,0.2,0,0.4,0.1,0.5s0.2,0.2,0.4,0.2c0.1,0,0.2,0,0.2,0s0.1,0,0.2,0l0.1,1.2
			c-0.2,0.1-0.3,0.1-0.5,0.1c-0.2,0-0.3,0-0.5,0c-0.6,0-1-0.2-1.3-0.5s-0.5-0.8-0.5-1.5v-3.1h-0.9v-1.2h0.9v-1.5H192.6z"/>
		<path class="st12" d="M196.6,140.1H195v-1.2h1.6V140.1z M196.6,147.6H195v-6.1h1.6V147.6z"/>
		<path class="st12" d="M198,144.5c0-0.9,0.3-1.6,0.8-2.2c0.5-0.6,1.2-0.9,2.1-0.9c0.9,0,1.6,0.3,2.1,0.9s0.8,1.3,0.8,2.2v0.1
			c0,0.9-0.3,1.7-0.8,2.2s-1.2,0.9-2.1,0.9c-0.9,0-1.6-0.3-2.1-0.9s-0.8-1.3-0.8-2.2V144.5z M199.6,144.7c0,0.6,0.1,1,0.3,1.3
			s0.5,0.5,0.9,0.5c0.4,0,0.7-0.2,0.9-0.5c0.2-0.3,0.3-0.8,0.3-1.3v-0.1c0-0.5-0.1-1-0.3-1.3c-0.2-0.3-0.5-0.5-0.9-0.5
			c-0.4,0-0.7,0.2-0.9,0.5c-0.2,0.3-0.3,0.8-0.3,1.3V144.7z"/>
		<path class="st12" d="M206.4,141.6l0.1,0.9c0.2-0.3,0.5-0.6,0.7-0.7c0.3-0.2,0.6-0.3,1-0.3c0.6,0,1.1,0.2,1.4,0.6s0.5,1,0.5,1.9
			v3.7h-1.6v-3.7c0-0.4-0.1-0.7-0.2-0.9c-0.2-0.2-0.4-0.3-0.7-0.3c-0.2,0-0.5,0-0.6,0.1c-0.2,0.1-0.3,0.2-0.5,0.4v4.4h-1.6v-6.1
			H206.4z"/>
		<path class="st12" d="M144.1,169.6h-1.6v-8.2h1.6V169.6z"/>
		<path class="st12" d="M147.4,163.6l0.1,0.9c0.2-0.3,0.5-0.6,0.7-0.7c0.3-0.2,0.6-0.3,1-0.3c0.6,0,1.1,0.2,1.4,0.6s0.5,1,0.5,1.9
			v3.7h-1.6v-3.7c0-0.4-0.1-0.7-0.2-0.9c-0.2-0.2-0.4-0.3-0.7-0.3c-0.2,0-0.5,0-0.6,0.1c-0.2,0.1-0.3,0.2-0.5,0.4v4.4h-1.6v-6.1
			H147.4z"/>
		<path class="st12" d="M153,169.6v-4.9h-0.9v-1.2h0.9v-0.7c0-0.7,0.2-1.2,0.6-1.6c0.4-0.4,0.9-0.6,1.7-0.6c0.1,0,0.3,0,0.4,0
			s0.3,0,0.5,0.1l-0.1,1.2c-0.1,0-0.2,0-0.3,0c-0.1,0-0.2,0-0.3,0c-0.3,0-0.5,0.1-0.6,0.2s-0.2,0.4-0.2,0.6v0.7h1.2v1.2h-1.2v4.9
			H153z"/>
		<path class="st12" d="M156.6,166.5c0-0.9,0.3-1.6,0.8-2.2c0.5-0.6,1.2-0.9,2.1-0.9c0.9,0,1.6,0.3,2.1,0.9s0.8,1.3,0.8,2.2v0.1
			c0,0.9-0.3,1.7-0.8,2.2s-1.2,0.9-2.1,0.9c-0.9,0-1.6-0.3-2.1-0.9s-0.8-1.3-0.8-2.2V166.5z M158.2,166.7c0,0.6,0.1,1,0.3,1.3
			s0.5,0.5,0.9,0.5c0.4,0,0.7-0.2,0.9-0.5c0.2-0.3,0.3-0.8,0.3-1.3v-0.1c0-0.5-0.1-1-0.3-1.3c-0.2-0.3-0.5-0.5-0.9-0.5
			c-0.4,0-0.7,0.2-0.9,0.5c-0.2,0.3-0.3,0.8-0.3,1.3V166.7z"/>
		<path class="st12" d="M166.7,165l-0.6,0c-0.2,0-0.4,0.1-0.6,0.2c-0.2,0.1-0.3,0.2-0.4,0.4v4.1h-1.6v-6.1h1.5l0.1,0.9
			c0.1-0.3,0.3-0.6,0.6-0.7s0.5-0.3,0.8-0.3c0.1,0,0.2,0,0.2,0s0.1,0,0.2,0L166.7,165z"/>
		<path class="st12" d="M169.3,163.6l0.1,0.8c0.2-0.3,0.4-0.5,0.7-0.7s0.6-0.2,1-0.2c0.4,0,0.7,0.1,1,0.3c0.3,0.2,0.5,0.4,0.6,0.8
			c0.2-0.3,0.4-0.6,0.7-0.8c0.3-0.2,0.7-0.3,1.1-0.3c0.6,0,1.1,0.2,1.4,0.6s0.5,1.1,0.5,1.9v3.6h-1.6V166c0-0.5-0.1-0.8-0.2-1
			s-0.4-0.3-0.7-0.3c-0.2,0-0.4,0.1-0.6,0.2s-0.3,0.2-0.4,0.4c0,0.1,0,0.1,0,0.2c0,0.1,0,0.1,0,0.2v4h-1.6V166c0-0.5-0.1-0.8-0.2-1
			c-0.1-0.2-0.4-0.3-0.7-0.3c-0.2,0-0.4,0-0.6,0.1c-0.2,0.1-0.3,0.2-0.4,0.4v4.4h-1.6v-6.1H169.3z"/>
		<path class="st12" d="M181.6,169.6c-0.1-0.1-0.1-0.3-0.2-0.4s-0.1-0.3-0.1-0.5c-0.2,0.3-0.4,0.5-0.7,0.7c-0.3,0.2-0.6,0.3-1,0.3
			c-0.6,0-1.1-0.2-1.5-0.5c-0.3-0.3-0.5-0.8-0.5-1.3c0-0.6,0.2-1.1,0.7-1.4s1.1-0.5,2-0.5h0.9v-0.5c0-0.3-0.1-0.5-0.2-0.7
			s-0.4-0.2-0.7-0.2c-0.3,0-0.5,0.1-0.6,0.2c-0.1,0.1-0.2,0.3-0.2,0.5H178l0,0c0-0.5,0.2-1,0.7-1.3s1.1-0.6,1.9-0.6
			c0.7,0,1.3,0.2,1.8,0.6s0.7,0.9,0.7,1.6v2.5c0,0.3,0,0.6,0.1,0.8c0,0.3,0.1,0.5,0.2,0.7H181.6z M180.1,168.5
			c0.3,0,0.5-0.1,0.8-0.2c0.2-0.1,0.4-0.3,0.5-0.5V167h-0.9c-0.3,0-0.6,0.1-0.8,0.3s-0.3,0.4-0.3,0.6c0,0.2,0.1,0.4,0.2,0.5
			S179.9,168.5,180.1,168.5z"/>
		<path class="st12" d="M186.4,162.1v1.5h1v1.2h-1v3.1c0,0.2,0,0.4,0.1,0.5s0.2,0.2,0.4,0.2c0.1,0,0.2,0,0.2,0s0.1,0,0.2,0l0.1,1.2
			c-0.2,0.1-0.3,0.1-0.5,0.1c-0.2,0-0.3,0-0.5,0c-0.6,0-1-0.2-1.3-0.5s-0.5-0.8-0.5-1.5v-3.1h-0.9v-1.2h0.9v-1.5H186.4z"/>
		<path class="st12" d="M190.4,162.1h-1.6v-1.2h1.6V162.1z M190.4,169.6h-1.6v-6.1h1.6V169.6z"/>
		<path class="st12" d="M191.7,166.5c0-0.9,0.3-1.6,0.8-2.2c0.5-0.6,1.2-0.9,2.1-0.9c0.9,0,1.6,0.3,2.1,0.9s0.8,1.3,0.8,2.2v0.1
			c0,0.9-0.3,1.7-0.8,2.2s-1.2,0.9-2.1,0.9c-0.9,0-1.6-0.3-2.1-0.9s-0.8-1.3-0.8-2.2V166.5z M193.3,166.7c0,0.6,0.1,1,0.3,1.3
			s0.5,0.5,0.9,0.5c0.4,0,0.7-0.2,0.9-0.5c0.2-0.3,0.3-0.8,0.3-1.3v-0.1c0-0.5-0.1-1-0.3-1.3c-0.2-0.3-0.5-0.5-0.9-0.5
			c-0.4,0-0.7,0.2-0.9,0.5c-0.2,0.3-0.3,0.8-0.3,1.3V166.7z"/>
		<path class="st12" d="M200.2,163.6l0.1,0.9c0.2-0.3,0.5-0.6,0.7-0.7c0.3-0.2,0.6-0.3,1-0.3c0.6,0,1.1,0.2,1.4,0.6s0.5,1,0.5,1.9
			v3.7h-1.6v-3.7c0-0.4-0.1-0.7-0.2-0.9c-0.2-0.2-0.4-0.3-0.7-0.3c-0.2,0-0.5,0-0.6,0.1c-0.2,0.1-0.3,0.2-0.5,0.4v4.4h-1.6v-6.1
			H200.2z"/>
		<path class="st12" d="M146.6,178.5L146.6,178.5l2.1-6h2.1v8.2h-1.6v-5.6l0,0l-2,5.6h-1.1l-2-5.6l0,0v5.6h-1.6v-8.2h2.2
			L146.6,178.5z"/>
		<path class="st12" d="M156.1,180.6c-0.1-0.1-0.1-0.3-0.2-0.4s-0.1-0.3-0.1-0.5c-0.2,0.3-0.4,0.5-0.7,0.7c-0.3,0.2-0.6,0.3-1,0.3
			c-0.6,0-1.1-0.2-1.5-0.5c-0.3-0.3-0.5-0.8-0.5-1.3c0-0.6,0.2-1.1,0.7-1.4s1.1-0.5,2-0.5h0.9v-0.5c0-0.3-0.1-0.5-0.2-0.7
			s-0.4-0.2-0.7-0.2c-0.3,0-0.5,0.1-0.6,0.2c-0.1,0.1-0.2,0.3-0.2,0.5h-1.6l0,0c0-0.5,0.2-1,0.7-1.3s1.1-0.6,1.9-0.6
			c0.7,0,1.3,0.2,1.8,0.6s0.7,0.9,0.7,1.6v2.5c0,0.3,0,0.6,0.1,0.8c0,0.3,0.1,0.5,0.2,0.7H156.1z M154.6,179.5
			c0.3,0,0.5-0.1,0.8-0.2c0.2-0.1,0.4-0.3,0.5-0.5V178h-0.9c-0.3,0-0.6,0.1-0.8,0.3s-0.3,0.4-0.3,0.6c0,0.2,0.1,0.4,0.2,0.5
			S154.3,179.5,154.6,179.5z"/>
		<path class="st12" d="M160.4,174.6l0.1,0.9c0.2-0.3,0.5-0.6,0.7-0.7c0.3-0.2,0.6-0.3,1-0.3c0.6,0,1.1,0.2,1.4,0.6s0.5,1,0.5,1.9
			v3.7h-1.6v-3.7c0-0.4-0.1-0.7-0.2-0.9c-0.2-0.2-0.4-0.3-0.7-0.3c-0.2,0-0.5,0-0.6,0.1c-0.2,0.1-0.3,0.2-0.5,0.4v4.4h-1.6v-6.1
			H160.4z"/>
		<path class="st12" d="M169.2,180.6c-0.1-0.1-0.1-0.3-0.2-0.4s-0.1-0.3-0.1-0.5c-0.2,0.3-0.4,0.5-0.7,0.7c-0.3,0.2-0.6,0.3-1,0.3
			c-0.6,0-1.1-0.2-1.5-0.5c-0.3-0.3-0.5-0.8-0.5-1.3c0-0.6,0.2-1.1,0.7-1.4s1.1-0.5,2-0.5h0.9v-0.5c0-0.3-0.1-0.5-0.2-0.7
			s-0.4-0.2-0.7-0.2c-0.3,0-0.5,0.1-0.6,0.2c-0.1,0.1-0.2,0.3-0.2,0.5h-1.6l0,0c0-0.5,0.2-1,0.7-1.3s1.1-0.6,1.9-0.6
			c0.7,0,1.3,0.2,1.8,0.6s0.7,0.9,0.7,1.6v2.5c0,0.3,0,0.6,0.1,0.8c0,0.3,0.1,0.5,0.2,0.7H169.2z M167.7,179.5
			c0.3,0,0.5-0.1,0.8-0.2c0.2-0.1,0.4-0.3,0.5-0.5V178H168c-0.3,0-0.6,0.1-0.8,0.3s-0.3,0.4-0.3,0.6c0,0.2,0.1,0.4,0.2,0.5
			S167.5,179.5,167.7,179.5z"/>
		<path class="st12" d="M171.8,177.7c0-1,0.2-1.7,0.6-2.3c0.4-0.6,1-0.9,1.8-0.9c0.3,0,0.6,0.1,0.9,0.2c0.3,0.2,0.5,0.4,0.7,0.7
			l0.1-0.8h1.4v6c0,0.8-0.3,1.4-0.8,1.8c-0.5,0.4-1.2,0.6-2.2,0.6c-0.3,0-0.6,0-1-0.1c-0.3-0.1-0.7-0.2-1-0.3l0.3-1.2
			c0.3,0.1,0.5,0.2,0.8,0.3c0.3,0.1,0.6,0.1,0.9,0.1c0.4,0,0.8-0.1,1-0.3s0.3-0.5,0.3-0.9v-0.6c-0.2,0.2-0.4,0.4-0.6,0.5
			c-0.2,0.1-0.5,0.2-0.8,0.2c-0.7,0-1.3-0.3-1.7-0.8c-0.4-0.5-0.6-1.3-0.6-2.2V177.7z M173.4,177.8c0,0.5,0.1,0.9,0.3,1.3
			s0.5,0.5,0.9,0.5c0.3,0,0.5,0,0.6-0.1c0.2-0.1,0.3-0.2,0.4-0.4v-2.6c-0.1-0.2-0.2-0.3-0.4-0.4c-0.2-0.1-0.4-0.2-0.6-0.2
			c-0.4,0-0.7,0.2-0.9,0.5s-0.3,0.8-0.3,1.4V177.8z"/>
		<path class="st12" d="M181.4,180.8c-0.9,0-1.6-0.3-2.1-0.8c-0.5-0.6-0.8-1.3-0.8-2.1v-0.2c0-0.9,0.2-1.7,0.7-2.2s1.2-0.9,2-0.9
			c0.8,0,1.4,0.2,1.9,0.7c0.4,0.5,0.7,1.2,0.7,2v0.8h-3.6l0,0c0,0.4,0.2,0.8,0.4,1s0.6,0.4,1,0.4c0.4,0,0.7,0,0.9-0.1
			c0.3-0.1,0.5-0.2,0.8-0.3l0.4,1c-0.2,0.2-0.6,0.4-1,0.5C182.3,180.7,181.9,180.8,181.4,180.8z M181.3,175.7
			c-0.3,0-0.6,0.1-0.8,0.3s-0.3,0.5-0.3,0.9l0,0h2v-0.1c0-0.4-0.1-0.6-0.2-0.8S181.6,175.7,181.3,175.7z"/>
		<path class="st12" d="M186.5,174.6l0.1,0.8c0.2-0.3,0.4-0.5,0.7-0.7s0.6-0.2,1-0.2c0.4,0,0.7,0.1,1,0.3c0.3,0.2,0.5,0.4,0.6,0.8
			c0.2-0.3,0.4-0.6,0.7-0.8c0.3-0.2,0.7-0.3,1.1-0.3c0.6,0,1.1,0.2,1.4,0.6s0.5,1.1,0.5,1.9v3.6h-1.6V177c0-0.5-0.1-0.8-0.2-1
			s-0.4-0.3-0.7-0.3c-0.2,0-0.4,0.1-0.6,0.2s-0.3,0.2-0.4,0.4c0,0.1,0,0.1,0,0.2c0,0.1,0,0.1,0,0.2v4h-1.6V177c0-0.5-0.1-0.8-0.2-1
			c-0.1-0.2-0.4-0.3-0.7-0.3c-0.2,0-0.4,0-0.6,0.1c-0.2,0.1-0.3,0.2-0.4,0.4v4.4H185v-6.1H186.5z"/>
		<path class="st12" d="M197.8,180.8c-0.9,0-1.6-0.3-2.1-0.8c-0.5-0.6-0.8-1.3-0.8-2.1v-0.2c0-0.9,0.2-1.7,0.7-2.2s1.2-0.9,2-0.9
			c0.8,0,1.4,0.2,1.9,0.7c0.4,0.5,0.7,1.2,0.7,2v0.8h-3.6l0,0c0,0.4,0.2,0.8,0.4,1s0.6,0.4,1,0.4c0.4,0,0.7,0,0.9-0.1
			c0.3-0.1,0.5-0.2,0.8-0.3l0.4,1c-0.2,0.2-0.6,0.4-1,0.5C198.8,180.7,198.3,180.8,197.8,180.8z M197.7,175.7
			c-0.3,0-0.6,0.1-0.8,0.3s-0.3,0.5-0.3,0.9l0,0h2v-0.1c0-0.4-0.1-0.6-0.2-0.8S198,175.7,197.7,175.7z"/>
		<path class="st12" d="M202.9,174.6l0.1,0.9c0.2-0.3,0.5-0.6,0.7-0.7c0.3-0.2,0.6-0.3,1-0.3c0.6,0,1.1,0.2,1.4,0.6s0.5,1,0.5,1.9
			v3.7H205v-3.7c0-0.4-0.1-0.7-0.2-0.9c-0.2-0.2-0.4-0.3-0.7-0.3c-0.2,0-0.5,0-0.6,0.1c-0.2,0.1-0.3,0.2-0.5,0.4v4.4h-1.6v-6.1
			H202.9z"/>
		<path class="st12" d="M210.1,173.1v1.5h1v1.2h-1v3.1c0,0.2,0,0.4,0.1,0.5s0.2,0.2,0.4,0.2c0.1,0,0.2,0,0.2,0s0.1,0,0.2,0l0.1,1.2
			c-0.2,0.1-0.3,0.1-0.5,0.1c-0.2,0-0.3,0-0.5,0c-0.6,0-1-0.2-1.3-0.5s-0.5-0.8-0.5-1.5v-3.1h-0.9v-1.2h0.9v-1.5H210.1z"/>
	</g>
	<g>
		<linearGradient id="SVGID_11_" gradientUnits="userSpaceOnUse" x1="206.0532" y1="216.729" x2="312.4357" y2="216.729">
			<stop  offset="0" style="stop-color:#F7A400"/>
			<stop  offset="1" style="stop-color:#3855A2"/>
		</linearGradient>
		<path class="st13" d="M308.4,125.3c1.8,8.2,12.2,59-19.6,112.2c-30.1,50.4-73.9,67.2-82.4,69.9"/>
		<g>
			<path class="st14" d="M205.7,307.7"/>
			<polyline class="st15" points="211,311.2 205.7,307.7 208,301.9 			"/>
		</g>
	</g>
	<g>
		<linearGradient id="SVGID_12_" gradientUnits="userSpaceOnUse" x1="8.8887" y1="221.1487" x2="122.7199" y2="221.1487">
			<stop  offset="0" style="stop-color:#F7A400"/>
			<stop  offset="1" style="stop-color:#3855A2"/>
		</linearGradient>
		<path class="st16" d="M122.4,309.2c-8.1-2.3-57.6-17.7-89-71C3.6,187.5,9.9,141.1,11.6,132.3"/>
		<g>
			<path class="st15" d="M11.7,131.6"/>
			<polyline class="st15" points="6.1,134.6 11.7,131.6 15.7,136.4 			"/>
		</g>
	</g>
	<g>
		
			<linearGradient id="SVGID_13_" gradientUnits="userSpaceOnUse" x1="53.7715" y1="32.0203" x2="263.8593" y2="32.0203" gradientTransform="matrix(0.9993 3.778128e-02 -3.778128e-02 0.9993 7.2587 -8.1716)">
			<stop  offset="0" style="stop-color:#F7A400"/>
			<stop  offset="1" style="stop-color:#3855A2"/>
		</linearGradient>
		<path class="st17" d="M59.7,45.4c6.4-5.4,46.7-38.1,108.5-34.6C226.9,14,262,45.1,268.4,51.4"/>
		<g>
			<path class="st18" d="M269,51.8"/>
			<polyline class="st19" points="269.6,45.5 269,51.8 262.7,52.5 			"/>
		</g>
	</g>
	<rect x="37.2" y="31.8" transform="matrix(0.757 0.6534 -0.6534 0.757 42.8285 -17.5868)" class="st0" width="15.6" height="34"/>
	
		<rect x="113.9" y="301.2" transform="matrix(0.3149 -0.9491 0.9491 0.3149 -214.1165 330.312)" class="st0" width="15.6" height="24.6"/>
	<rect x="303.9" y="111.3" class="st0" width="15.6" height="34"/>
	<g>
		<path class="st20" d="M276.8,61.8l-1.8,1.5l-0.8-1l4.9-4.1l1.6,1.9c0.5,0.6,0.7,1.1,0.7,1.7c0,0.6-0.3,1-0.7,1.4
			c-0.5,0.4-1,0.5-1.5,0.5c-0.6-0.1-1.1-0.4-1.5-1L276.8,61.8z M277.6,61.2l0.7,0.9c0.2,0.3,0.5,0.4,0.7,0.4c0.3,0,0.5-0.1,0.8-0.3
			c0.2-0.2,0.4-0.4,0.4-0.7c0-0.3-0.1-0.5-0.3-0.8l-0.7-0.9L277.6,61.2z"/>
		<path class="st20" d="M281.2,66.9l-2,1.5l-0.8-1l5.1-3.9l1.3,1.8c0.4,0.6,0.6,1.1,0.6,1.7s-0.3,1-0.7,1.3
			c-0.3,0.2-0.5,0.3-0.8,0.3c-0.3,0-0.6-0.1-0.9-0.3c0.1,0.4,0.2,0.7,0,1s-0.3,0.5-0.6,0.8l-0.4,0.3c-0.1,0.1-0.3,0.2-0.4,0.4
			c-0.1,0.2-0.2,0.3-0.2,0.5l-0.1,0.1l-0.8-1.1c0-0.2,0.1-0.3,0.2-0.5c0.2-0.2,0.3-0.3,0.5-0.4l0.4-0.3c0.3-0.2,0.4-0.4,0.4-0.7
			c0-0.2,0-0.5-0.2-0.8L281.2,66.9z M282,66.3l0.5,0.7c0.2,0.3,0.4,0.5,0.7,0.5c0.2,0,0.5,0,0.7-0.2c0.2-0.2,0.4-0.4,0.4-0.6
			c0-0.2-0.1-0.5-0.3-0.8l-0.6-0.7L282,66.3z"/>
		<path class="st20" d="M286.7,74.1l-1.3-2l-1.5,1l1.6,2.3l-0.8,0.6l-2.3-3.4l5.3-3.6l2.3,3.4l-0.8,0.6l-1.6-2.3l-1.3,0.9l1.3,2
			L286.7,74.1z"/>
		<path class="st20" d="M288.2,77.3l-2,1.2l-0.7-1.1l5.4-3.4l1.3,2.1c0.4,0.6,0.5,1.2,0.5,1.8c-0.1,0.6-0.4,1-0.9,1.3
			c-0.5,0.3-1,0.4-1.6,0.3c-0.5-0.2-1-0.5-1.4-1.2L288.2,77.3z M289,76.8l0.6,1c0.2,0.3,0.4,0.5,0.7,0.5c0.3,0.1,0.5,0,0.8-0.2
			c0.3-0.2,0.4-0.4,0.5-0.6c0.1-0.3,0-0.5-0.2-0.9l-0.6-1L289,76.8z"/>
		<path class="st20" d="M291.9,85.3l-1-1.8l-1.4,0.3l-0.7-1.2l6.6-1.3l0.7,1.1l-4.5,5l-0.7-1.2L291.9,85.3z M291.9,83.3l0.7,1.3
			l1.6-1.7l0,0L291.9,83.3z"/>
		<path class="st20" d="M295.1,88.7l-2.3,1.2l-0.6-1.1l5.7-2.9l1,2c0.3,0.6,0.4,1.2,0.3,1.8c-0.1,0.5-0.4,0.9-1,1.2
			c-0.3,0.1-0.6,0.2-0.9,0.2c-0.3,0-0.6-0.2-0.9-0.4c0.1,0.4,0,0.7-0.1,1c-0.2,0.3-0.4,0.5-0.7,0.7l-0.4,0.2
			c-0.2,0.1-0.3,0.2-0.5,0.3s-0.2,0.3-0.3,0.4l-0.1,0l-0.6-1.2c0-0.1,0.1-0.3,0.3-0.4c0.2-0.1,0.4-0.2,0.5-0.3l0.4-0.2
			c0.3-0.1,0.5-0.3,0.5-0.6c0.1-0.2,0-0.5-0.1-0.8L295.1,88.7z M296,88.3l0.4,0.8c0.2,0.3,0.4,0.5,0.6,0.6c0.2,0.1,0.5,0.1,0.7-0.1
			c0.3-0.1,0.4-0.3,0.5-0.6c0.1-0.2,0-0.5-0.1-0.8l-0.4-0.8L296,88.3z"/>
		<path class="st20" d="M299.3,96.8l-1-2.2l-1.7,0.8l1.2,2.6l-0.9,0.4l-1.7-3.7L301,92l1.7,3.7l-0.9,0.4l-1.2-2.6l-1.5,0.7l1,2.2
			L299.3,96.8z"/>
		<path class="st20" d="M297.6,100l5.9-2.4l0.9,2.1c0.3,0.7,0.3,1.4,0,2.1s-0.8,1.1-1.5,1.4l-1,0.4c-0.7,0.3-1.4,0.3-2.1,0
			c-0.7-0.3-1.1-0.8-1.4-1.5L297.6,100z M303.1,99.1l-4.1,1.7l0.4,0.9c0.2,0.4,0.4,0.6,0.8,0.8c0.4,0.1,0.8,0.1,1.3-0.1l1-0.4
			c0.5-0.2,0.8-0.5,1-0.8c0.2-0.4,0.2-0.7,0-1.1L303.1,99.1z"/>
		<path class="st20" d="M301.9,111.1l-0.4-1.2l3.2-3.9l0,0l-4.1,1.5l-0.4-1.2l6-2.2l0.4,1.2l-3.2,3.9l0,0l4.1-1.5l0.4,1.2
			L301.9,111.1z"/>
		<path class="st20" d="M306.3,115.7l-0.7-2.3l-1.7,0.5l0.8,2.7l-0.9,0.3l-1.2-3.9l6.1-1.9l1.2,3.9l-0.9,0.3l-0.8-2.7l-1.5,0.5
			l0.7,2.3L306.3,115.7z"/>
		<path class="st20" d="M306.7,121.4c0.2-0.1,0.4-0.2,0.5-0.4c0.1-0.2,0.2-0.5,0.2-1c0-0.8,0.1-1.4,0.3-1.8c0.2-0.4,0.5-0.7,1-0.9
			c0.5-0.1,1,0,1.4,0.3c0.4,0.3,0.7,0.8,0.9,1.5c0.2,0.7,0.2,1.3-0.1,1.8c-0.2,0.5-0.6,0.8-1.2,1l0,0l-0.3-1.2
			c0.3-0.1,0.5-0.2,0.6-0.5s0.1-0.5,0-0.9c-0.1-0.3-0.2-0.5-0.4-0.6c-0.2-0.1-0.4-0.2-0.6-0.1c-0.2,0.1-0.4,0.2-0.4,0.4
			c-0.1,0.2-0.1,0.6-0.2,1.1c0,0.7-0.1,1.3-0.3,1.8c-0.2,0.4-0.6,0.7-1.1,0.9c-0.5,0.1-1,0-1.4-0.3c-0.4-0.3-0.7-0.8-0.9-1.5
			c-0.2-0.7-0.2-1.3,0-1.8c0.2-0.6,0.6-0.9,1.3-1.1l0,0l0.3,1.2c-0.4,0.1-0.6,0.3-0.7,0.5c-0.1,0.3-0.1,0.6,0,0.9
			c0.1,0.3,0.2,0.6,0.4,0.7S306.5,121.5,306.7,121.4z"/>
		<path class="st20" d="M308.2,127.7c0.2-0.1,0.4-0.2,0.5-0.4s0.2-0.5,0.2-1c0.1-0.8,0.2-1.4,0.4-1.8c0.2-0.4,0.6-0.7,1.1-0.8
			c0.5-0.1,1,0,1.4,0.4c0.4,0.3,0.7,0.8,0.8,1.5c0.2,0.7,0.1,1.3-0.2,1.8c-0.3,0.5-0.7,0.8-1.2,0.9l0,0L311,127
			c0.3-0.1,0.5-0.2,0.7-0.4c0.1-0.2,0.2-0.5,0.1-0.8c-0.1-0.3-0.2-0.5-0.4-0.7c-0.2-0.1-0.4-0.2-0.6-0.1c-0.2,0-0.4,0.2-0.5,0.4
			c-0.1,0.2-0.2,0.6-0.2,1c0,0.7-0.2,1.3-0.4,1.7c-0.2,0.4-0.6,0.7-1.1,0.8c-0.5,0.1-1,0-1.4-0.3c-0.4-0.3-0.7-0.9-0.8-1.6
			c-0.1-0.7-0.1-1.3,0.1-1.8c0.2-0.6,0.7-0.9,1.3-1l0,0l0.3,1.2c-0.4,0.1-0.6,0.3-0.7,0.5c-0.1,0.3-0.1,0.6-0.1,0.9
			c0.1,0.3,0.2,0.6,0.4,0.7C307.7,127.7,307.9,127.7,308.2,127.7z"/>
	</g>
	<g>
		<path class="st20" d="M18.2,117l2.2,0.6l-0.4,1.2l-6.1-1.8l0.7-2.4c0.2-0.7,0.5-1.2,1-1.5c0.5-0.3,1-0.4,1.6-0.2
			c0.6,0.2,1,0.5,1.2,1c0.2,0.5,0.3,1.1,0.1,1.8L18.2,117z M17.3,116.8l0.3-1.1c0.1-0.3,0.1-0.6-0.1-0.9s-0.3-0.4-0.6-0.5
			c-0.3-0.1-0.6-0.1-0.8,0.1c-0.2,0.1-0.4,0.4-0.5,0.7l-0.3,1.1L17.3,116.8z"/>
		<path class="st20" d="M19.9,110.6l2.4,0.8l-0.4,1.2l-6.1-2l0.7-2.1c0.2-0.7,0.6-1.2,1-1.5c0.4-0.3,1-0.3,1.5-0.1
			c0.3,0.1,0.6,0.3,0.7,0.5c0.2,0.2,0.3,0.5,0.3,0.9c0.2-0.3,0.5-0.5,0.8-0.6c0.3-0.1,0.6,0,1,0.1l0.4,0.2c0.2,0.1,0.4,0.1,0.6,0.1
			c0.2,0,0.4,0,0.5-0.1l0.1,0l-0.4,1.3c-0.1,0.1-0.3,0.1-0.5,0.1c-0.2,0-0.4-0.1-0.6-0.2l-0.4-0.1c-0.3-0.1-0.6-0.1-0.8,0
			s-0.4,0.3-0.5,0.6L19.9,110.6z M19,110.3l0.3-0.9c0.1-0.3,0.1-0.6,0-0.8c-0.1-0.2-0.3-0.4-0.6-0.5c-0.3-0.1-0.5-0.1-0.7,0
			c-0.2,0.1-0.4,0.3-0.5,0.7l-0.3,0.9L19,110.3z"/>
		<path class="st20" d="M22.8,102l-0.9,2.2l1.7,0.7l1-2.6l0.9,0.4l-1.5,3.8l-6-2.3l1.5-3.8l0.9,0.4l-1,2.6l1.5,0.6l0.9-2.2L22.8,102
			z"/>
		<path class="st20" d="M24.6,98.9l2.1,0.9l-0.5,1.2l-5.9-2.5l1-2.2c0.3-0.7,0.7-1.1,1.2-1.4c0.5-0.2,1-0.2,1.6,0
			c0.6,0.2,0.9,0.6,1.1,1.2c0.2,0.5,0.1,1.1-0.2,1.8L24.6,98.9z M23.7,98.5l0.5-1.1c0.1-0.3,0.2-0.6,0.1-0.9
			c-0.1-0.2-0.3-0.4-0.6-0.5c-0.3-0.1-0.6-0.1-0.8-0.1s-0.5,0.3-0.6,0.6l-0.5,1.1L23.7,98.5z"/>
		<path class="st20" d="M29.1,91.4l-0.9,1.9l1.1,1l-0.6,1.2l-4.8-4.7l0.6-1.2l6.7,0.9l-0.6,1.2L29.1,91.4z M27.4,92.5l0.6-1.3
			l-2.3-0.4l0,0L27.4,92.5z"/>
		<path class="st20" d="M30.1,86.8l2.2,1.2l-0.6,1.1l-5.6-3l1.1-1.9c0.3-0.6,0.8-1.1,1.3-1.3c0.5-0.2,1-0.2,1.5,0.1
			c0.3,0.2,0.5,0.4,0.6,0.6c0.1,0.3,0.2,0.6,0.1,0.9c0.3-0.3,0.6-0.4,0.9-0.5c0.3,0,0.6,0.1,1,0.2l0.4,0.2c0.2,0.1,0.3,0.2,0.5,0.2
			c0.2,0.1,0.4,0,0.5,0l0.1,0L33.5,86c-0.1,0.1-0.3,0.1-0.5,0s-0.4-0.2-0.6-0.3L32,85.5c-0.3-0.2-0.5-0.2-0.8-0.1
			c-0.2,0.1-0.4,0.2-0.6,0.5L30.1,86.8z M29.3,86.3l0.4-0.8c0.2-0.3,0.2-0.6,0.2-0.8c0-0.2-0.2-0.4-0.5-0.6
			c-0.3-0.1-0.5-0.2-0.7-0.1c-0.2,0.1-0.4,0.3-0.6,0.6l-0.4,0.8L29.3,86.3z"/>
		<path class="st20" d="M34.4,78.8l-1.2,2l1.6,0.9l1.4-2.4l0.8,0.5L35,83.3l-5.5-3.3l2.1-3.5l0.8,0.5L31,79.5l1.4,0.8l1.2-2
			L34.4,78.8z"/>
		<path class="st20" d="M38,78.4l-5.4-3.5l1.2-1.9c0.4-0.7,1-1.1,1.7-1.2c0.7-0.1,1.4,0,2,0.4l0.9,0.6c0.7,0.4,1.1,1,1.2,1.7
			c0.1,0.7,0,1.4-0.4,2L38,78.4z M34.2,74.3l3.7,2.4l0.5-0.8c0.2-0.4,0.3-0.7,0.2-1.1c-0.1-0.4-0.4-0.7-0.8-1l-0.9-0.6
			c-0.4-0.3-0.8-0.4-1.2-0.3c-0.4,0-0.7,0.2-1,0.6L34.2,74.3z"/>
		<path class="st20" d="M44.8,68.5l-0.8,1l-5-0.4l0,0l3.5,2.5l-0.8,1l-5.2-3.8l0.8-1l5,0.4l0,0l-3.5-2.5l0.8-1L44.8,68.5z"/>
		<path class="st20" d="M46.1,62.3l-1.5,1.9l1.4,1.1l1.8-2.2l0.8,0.6L46,66.9l-5-4l2.5-3.2l0.8,0.6l-1.7,2.2l1.3,1l1.5-1.9
			L46.1,62.3z"/>
		<path class="st20" d="M50.6,58.8c-0.2-0.2-0.4-0.2-0.6-0.2c-0.2,0-0.5,0.2-0.9,0.4c-0.7,0.4-1.2,0.7-1.7,0.8
			c-0.5,0.1-0.9,0-1.3-0.4c-0.4-0.3-0.6-0.8-0.6-1.3c0-0.5,0.3-1.1,0.7-1.6c0.5-0.5,1-0.9,1.5-0.9c0.6-0.1,1,0.1,1.5,0.4l0,0
			l-0.8,0.9c-0.2-0.2-0.5-0.3-0.7-0.3s-0.5,0.2-0.7,0.4c-0.2,0.2-0.3,0.5-0.3,0.7s0.1,0.4,0.3,0.6c0.2,0.1,0.4,0.2,0.6,0.1
			s0.6-0.2,1-0.4c0.6-0.4,1.2-0.6,1.6-0.7c0.5-0.1,0.9,0.1,1.3,0.4c0.4,0.4,0.6,0.8,0.6,1.3c0,0.5-0.3,1.1-0.7,1.6
			c-0.4,0.5-1,0.9-1.5,1c-0.6,0.2-1.1,0-1.6-0.5l0,0l0.8-0.9c0.3,0.2,0.6,0.3,0.9,0.3c0.3-0.1,0.5-0.2,0.8-0.5
			c0.2-0.3,0.3-0.5,0.3-0.7C50.8,59.1,50.8,58.9,50.6,58.8z"/>
		<path class="st20" d="M54.9,54c-0.2-0.2-0.4-0.2-0.6-0.2c-0.2,0-0.5,0.1-0.9,0.4c-0.7,0.4-1.2,0.6-1.7,0.7
			c-0.5,0.1-0.9-0.1-1.3-0.4C50,54,49.8,53.6,49.9,53c0.1-0.5,0.3-1.1,0.8-1.5c0.5-0.5,1-0.8,1.6-0.9c0.6-0.1,1,0.1,1.5,0.5l0,0
			l-0.9,0.9c-0.2-0.2-0.5-0.3-0.7-0.3c-0.3,0-0.5,0.2-0.7,0.4c-0.2,0.2-0.3,0.5-0.3,0.7c0,0.2,0.1,0.4,0.2,0.6
			c0.2,0.1,0.4,0.2,0.6,0.2c0.2,0,0.6-0.2,1-0.4c0.6-0.4,1.2-0.6,1.7-0.6c0.5,0,0.9,0.1,1.3,0.5c0.4,0.4,0.6,0.8,0.5,1.4
			c-0.1,0.5-0.3,1-0.8,1.6c-0.5,0.5-1,0.8-1.6,0.9c-0.6,0.1-1.1,0-1.6-0.5l0,0l0.9-0.9c0.3,0.3,0.6,0.4,0.8,0.3
			c0.3,0,0.6-0.2,0.8-0.5c0.2-0.2,0.4-0.5,0.4-0.7C55.2,54.3,55.1,54.2,54.9,54z"/>
	</g>
	<g>
		<path class="st20" d="M122.3,308.4l-0.7,2.2l-1.2-0.4l2-6.1l2.3,0.8c0.7,0.2,1.2,0.6,1.5,1.1s0.3,1,0.1,1.6
			c-0.2,0.6-0.5,1-1.1,1.2c-0.5,0.2-1.1,0.2-1.8,0L122.3,308.4z M122.6,307.4l1.1,0.4c0.3,0.1,0.6,0.1,0.9,0
			c0.2-0.1,0.4-0.3,0.5-0.6c0.1-0.3,0.1-0.6,0-0.8c-0.1-0.2-0.3-0.4-0.7-0.5l-1.1-0.4L122.6,307.4z"/>
		<path class="st20" d="M128.8,310.1l-0.7,2.5l-1.2-0.3l1.7-6.2l2.1,0.6c0.7,0.2,1.2,0.5,1.5,0.9c0.3,0.4,0.4,0.9,0.2,1.5
			c-0.1,0.3-0.2,0.6-0.5,0.8c-0.2,0.2-0.5,0.3-0.9,0.4c0.3,0.2,0.5,0.5,0.6,0.8c0.1,0.3,0.1,0.6,0,1l-0.1,0.5c0,0.2-0.1,0.4-0.1,0.6
			c0,0.2,0,0.4,0.1,0.5l0,0.1l-1.3-0.3c-0.1-0.1-0.1-0.3-0.1-0.5c0-0.2,0.1-0.4,0.1-0.6l0.1-0.4c0.1-0.3,0.1-0.6-0.1-0.8
			c-0.1-0.2-0.3-0.4-0.6-0.5L128.8,310.1z M129,309.2l0.9,0.2c0.3,0.1,0.6,0.1,0.8,0c0.2-0.1,0.4-0.3,0.4-0.6
			c0.1-0.3,0.1-0.5-0.1-0.7c-0.1-0.2-0.4-0.4-0.7-0.5l-0.9-0.2L129,309.2z"/>
		<path class="st20" d="M137.6,312l-2.3-0.5l-0.4,1.8l2.8,0.6l-0.2,1l-4-0.9l1.4-6.2l4,0.9l-0.2,1l-2.7-0.6l-0.3,1.6l2.3,0.5
			L137.6,312z"/>
		<path class="st20" d="M141.1,313.2l-0.4,2.3l-1.3-0.2l1.1-6.3l2.4,0.4c0.7,0.1,1.3,0.4,1.6,0.8c0.4,0.4,0.5,1,0.4,1.6
			c-0.1,0.6-0.4,1.1-0.9,1.3c-0.5,0.3-1.1,0.4-1.8,0.3L141.1,313.2z M141.2,312.2l1.1,0.2c0.4,0.1,0.6,0,0.9-0.2s0.3-0.4,0.4-0.7
			c0.1-0.3,0-0.6-0.1-0.8c-0.1-0.2-0.4-0.4-0.8-0.4l-1.1-0.2L141.2,312.2z"/>
		<path class="st20" d="M149.7,315.4l-2.1-0.2l-0.6,1.3l-1.3-0.2l2.9-6.1l1.3,0.2l1.4,6.6l-1.3-0.2L149.7,315.4z M148.1,314.2
			l1.4,0.2L149,312l0,0L148.1,314.2z"/>
		<path class="st20" d="M154.4,314.6l-0.2,2.6l-1.3-0.1l0.4-6.4l2.2,0.1c0.7,0,1.3,0.2,1.7,0.6c0.4,0.4,0.6,0.8,0.5,1.4
			c0,0.3-0.1,0.6-0.3,0.8c-0.2,0.2-0.5,0.4-0.8,0.5c0.4,0.1,0.6,0.3,0.8,0.6c0.1,0.3,0.2,0.6,0.2,1l0,0.5c0,0.2,0,0.4,0,0.6
			s0.1,0.3,0.2,0.4l0,0.1l-1.3-0.1c-0.1-0.1-0.2-0.3-0.2-0.5c0-0.2,0-0.4,0-0.6l0-0.5c0-0.3-0.1-0.6-0.2-0.8s-0.4-0.3-0.7-0.3
			L154.4,314.6z M154.5,313.6l0.9,0.1c0.4,0,0.6,0,0.8-0.2c0.2-0.1,0.3-0.4,0.3-0.7c0-0.3-0.1-0.5-0.2-0.7c-0.2-0.2-0.4-0.3-0.8-0.3
			l-0.9-0.1L154.5,313.6z"/>
		<path class="st20" d="M163.5,314.7l-2.4,0l0,1.8l2.8,0l0,1l-4.1-0.1l0.1-6.4l4.1,0.1l0,1l-2.8,0l0,1.6l2.4,0L163.5,314.7z"/>
		<path class="st20" d="M165.9,317.5l-0.2-6.4l2.2-0.1c0.8,0,1.4,0.2,2,0.7c0.5,0.5,0.8,1.1,0.8,1.9l0,1.1c0,0.8-0.2,1.4-0.7,2
			c-0.5,0.5-1.1,0.8-1.9,0.8L165.9,317.5z M167,312.1l0.2,4.4l0.9,0c0.4,0,0.8-0.2,1-0.5c0.2-0.3,0.4-0.7,0.3-1.2l0-1.1
			c0-0.5-0.2-0.9-0.4-1.2c-0.3-0.3-0.6-0.4-1-0.4L167,312.1z"/>
		<path class="st20" d="M178.2,316.7l-1.3,0.1l-3-4.1l0,0l0.4,4.3l-1.3,0.1l-0.6-6.4l1.3-0.1l3,4.1l0,0l-0.4-4.3l1.3-0.1
			L178.2,316.7z"/>
		<path class="st20" d="M183.7,313.1l-2.3,0.3l0.3,1.8l2.8-0.4l0.1,1l-4.1,0.6l-0.9-6.3l4.1-0.6l0.1,1l-2.8,0.4l0.2,1.6l2.3-0.3
			L183.7,313.1z"/>
		<path class="st20" d="M189.4,313.2c0-0.2-0.2-0.4-0.4-0.5c-0.2-0.1-0.5-0.2-1-0.2c-0.8-0.1-1.4-0.2-1.8-0.4s-0.7-0.6-0.8-1.1
			c-0.1-0.5,0-1,0.4-1.4c0.4-0.4,0.9-0.7,1.5-0.8c0.7-0.1,1.3-0.1,1.8,0.2s0.8,0.7,0.9,1.3l0,0l-1.2,0.2c-0.1-0.3-0.2-0.5-0.4-0.7
			s-0.5-0.2-0.8-0.1c-0.3,0.1-0.5,0.2-0.7,0.4c-0.1,0.2-0.2,0.4-0.1,0.6c0,0.2,0.2,0.4,0.4,0.5c0.2,0.1,0.6,0.2,1,0.2
			c0.7,0.1,1.3,0.2,1.7,0.5s0.7,0.6,0.8,1.1c0.1,0.5,0,1-0.4,1.4c-0.4,0.4-0.9,0.7-1.6,0.8c-0.7,0.1-1.3,0.1-1.8-0.2s-0.9-0.7-1-1.4
			l0,0l1.2-0.2c0.1,0.4,0.2,0.6,0.5,0.8c0.3,0.1,0.6,0.2,0.9,0.1c0.3-0.1,0.6-0.2,0.7-0.4S189.5,313.4,189.4,313.2z"/>
		<path class="st20" d="M195.8,311.7c-0.1-0.2-0.2-0.4-0.4-0.5c-0.2-0.1-0.5-0.2-1-0.2c-0.8,0-1.4-0.2-1.8-0.4
			c-0.4-0.2-0.7-0.6-0.9-1.1c-0.1-0.5,0-1,0.3-1.4c0.3-0.4,0.8-0.7,1.5-0.9c0.7-0.2,1.3-0.1,1.8,0.1c0.5,0.2,0.8,0.6,0.9,1.2l0,0
			l-1.2,0.3c-0.1-0.3-0.2-0.5-0.5-0.6c-0.2-0.1-0.5-0.1-0.9-0.1c-0.3,0.1-0.5,0.2-0.7,0.4c-0.1,0.2-0.2,0.4-0.1,0.6
			c0.1,0.2,0.2,0.4,0.4,0.5c0.2,0.1,0.6,0.2,1,0.2c0.7,0,1.3,0.1,1.7,0.4c0.4,0.2,0.7,0.6,0.8,1.1c0.1,0.5,0,1-0.3,1.4
			c-0.3,0.4-0.9,0.7-1.5,0.9c-0.7,0.2-1.3,0.1-1.8-0.1c-0.6-0.2-0.9-0.7-1.1-1.3l0,0l1.2-0.3c0.1,0.4,0.3,0.6,0.5,0.7
			c0.3,0.1,0.6,0.1,0.9,0c0.3-0.1,0.6-0.2,0.7-0.4S195.9,312,195.8,311.7z"/>
	</g>
	<g>
		<path class="st21" d="M165.9,86.1c-0.3-0.3-0.8-0.3-1.1,0l-1.2,1.2l-1.2-1.2c-0.3-0.3-0.8-0.3-1.1,0c-0.3,0.3-0.3,0.8,0,1.1
			l1.2,1.2l-1.2,1.2c-0.3,0.3-0.3,0.8,0,1.1c0.1,0.1,0.3,0.2,0.5,0.2s0.4-0.1,0.5-0.2l1.2-1.2l1.2,1.2c0.1,0.1,0.3,0.2,0.5,0.2
			c0.2,0,0.4-0.1,0.5-0.2c0.3-0.3,0.3-0.8,0-1.1l-1.2-1.2l1.2-1.2C166.2,86.9,166.2,86.4,165.9,86.1z"/>
		<path class="st21" d="M165.6,79.4l-2.5,2.5l-1-1c-0.3-0.3-0.8-0.3-1.1,0c-0.3,0.3-0.3,0.8,0,1.1l1.5,1.5c0.1,0.1,0.3,0.2,0.5,0.2
			s0.4-0.1,0.5-0.2l3-3c0.3-0.3,0.3-0.8,0-1.1C166.4,79.1,165.9,79.1,165.6,79.4z"/>
		<path class="st21" d="M177.7,81h-8.2c-0.6,0-1.1,0.5-1.1,1.1c0,0.6,0.5,1.1,1.1,1.1h8.2c0.6,0,1.1-0.5,1.1-1.1
			C178.8,81.5,178.3,81,177.7,81z"/>
		<path class="st21" d="M165.6,73l-2.5,2.5l-1-1c-0.3-0.3-0.8-0.3-1.1,0c-0.3,0.3-0.3,0.8,0,1.1l1.5,1.5c0.1,0.1,0.3,0.2,0.5,0.2
			s0.4-0.1,0.5-0.2l3-3c0.3-0.3,0.3-0.8,0-1.1C166.4,72.7,165.9,72.7,165.6,73z"/>
		<path class="st21" d="M169.5,76.9h8.2c0.6,0,1.1-0.5,1.1-1.1s-0.5-1.1-1.1-1.1h-8.2c-0.6,0-1.1,0.5-1.1,1.1S168.9,76.9,169.5,76.9
			z"/>
		<path class="st21" d="M177.7,87.4h-8.2c-0.6,0-1.1,0.5-1.1,1.1s0.5,1.1,1.1,1.1h8.2c0.6,0,1.1-0.5,1.1-1.1S178.3,87.4,177.7,87.4z
			"/>
	</g>
	<g>
		<path class="st0" d="M260.6,161.9l-2.7,0.8c-0.1,0-0.2,0-0.3,0c-0.3,0-0.6-0.1-0.8-0.4c-0.1-0.1-0.1-0.2-0.1-0.3h-5.2
			c-0.2,0-0.4-0.2-0.4-0.4s0.2-0.4,0.4-0.4h5.2l0.5-1.8h-5.7c-0.2,0-0.4-0.2-0.4-0.4s0.2-0.4,0.4-0.4h6c0.1-0.1,0.2-0.3,0.3-0.4
			l1.4-1.4h-7.7c-0.2,0-0.4-0.2-0.4-0.4s0.2-0.4,0.4-0.4h8.6l2.1-2.1v-1.4c0-0.2-0.2-0.4-0.4-0.4h-12.5c-0.2,0-0.4,0.2-0.4,0.4V170
			c0,0.2,0.2,0.4,0.4,0.4h8.9v-2.7c0-0.7,0.6-1.3,1.3-1.3h2.7v-5.9l-0.9,0.9C261,161.7,260.8,161.8,260.6,161.9z M254.6,164.7h-3.1
			c-0.2,0-0.4-0.2-0.4-0.4c0-0.2,0.2-0.4,0.4-0.4h3.1c0.2,0,0.4,0.2,0.4,0.4C255,164.5,254.8,164.7,254.6,164.7z"/>
		<path class="st0" d="M259.5,167.4c-0.2,0-0.4,0.2-0.4,0.4v2.4v0.2l3.1-3.1h-0.4H259.5z"/>
		<path class="st0" d="M269.8,149.6c-0.3-0.3-0.7-0.5-1.2-0.5c-0.4,0-0.8,0.2-1.1,0.5l-5.4,5.4l-1.3,1.3l-0.4,0.4l-2,2
			c-0.1,0.1-0.1,0.1-0.1,0.2l-0.7,2.4l-0.1,0.4c0,0.1,0,0.1,0.1,0.1c0,0,0,0,0,0l0,0l2.7-0.8c0.1,0,0.1-0.1,0.2-0.1l1.6-1.6l7.5-7.5
			C270.2,151.2,270.3,150.3,269.8,149.6z"/>
	</g>
	<g>
		<path class="st0" d="M94.1,258.4l-3.2,3.2c-0.7,0.7-0.7,1.9,0,2.6c0.7,0.7,1.9,0.7,2.6,0l3.2-3.2
			C95.7,260.3,94.8,259.4,94.1,258.4z"/>
		<path class="st0" d="M102.9,243.4c-4.9,0-8.9,4-8.9,8.9c0,4.9,4,8.9,8.9,8.9s8.9-4,8.9-8.9C111.8,247.3,107.8,243.4,102.9,243.4z
			 M107.8,256.8c-0.7,0.8-1.6,1.4-2.7,1.8c-0.3,0.1-0.6,0.2-0.9,0.2c-0.4,0.1-0.9,0.1-1.3,0.1c-0.5,0-0.9,0-1.3-0.1
			c-0.3-0.1-0.6-0.1-0.9-0.2c-1-0.4-1.9-1-2.7-1.8c-1.1-1.2-1.8-2.8-1.8-4.5c0-3.7,3-6.7,6.7-6.7s6.7,3,6.7,6.7
			C109.5,254,108.9,255.6,107.8,256.8z"/>
		<path class="st0" d="M107.9,251.6l-2.7-2.7c-0.3-0.3-0.9-0.3-1.3,0c-0.3,0.3-0.3,0.9,0,1.3l1.2,1.2h-6.8c-0.5,0-0.9,0.4-0.9,0.9
			c0,0.5,0.4,0.9,0.9,0.9h6.8l-1.2,1.2c-0.3,0.3-0.3,0.9,0,1.3c0.2,0.2,0.4,0.3,0.6,0.3c0.2,0,0.5-0.1,0.6-0.3l2.7-2.7
			C108.3,252.5,108.3,252,107.9,251.6z"/>
	</g>
	<g>
		<path class="st0" d="M198.7,264.2c0.6,0,1.1-0.5,1.1-1.1c0-2.8,2.3-5,5.2-5h9.8l-1.2,1.2c-0.4,0.4-0.4,1.1,0,1.5
			c0.2,0.2,0.5,0.3,0.8,0.3s0.6-0.1,0.8-0.3l3.1-3.1c0.2-0.2,0.3-0.5,0.3-0.8c0-0.3-0.1-0.6-0.3-0.8l-3.1-3.1
			c-0.4-0.4-1.1-0.4-1.5,0s-0.4,1.1,0,1.5l1.2,1.2H205c-4.1,0-7.4,3.2-7.4,7.2C197.6,263.7,198.1,264.2,198.7,264.2z"/>
		<path class="st0" d="M215.1,262.8c-0.4-0.4-1.1-0.4-1.5,0c-0.4,0.4-0.4,1.1,0,1.5l1.2,1.2H205c-4.1,0-7.4,3.2-7.4,7.2
			c0,0.6,0.5,1.1,1.1,1.1s1.1-0.5,1.1-1.1c0-2.8,2.3-5,5.2-5h9.8l-1.2,1.2c-0.4,0.4-0.4,1.1,0,1.5c0.2,0.2,0.5,0.3,0.8,0.3
			s0.6-0.1,0.8-0.3l3.1-3.1c0.2-0.2,0.3-0.5,0.3-0.8s-0.1-0.6-0.3-0.8L215.1,262.8z"/>
	</g>
	<g>
		<path class="st0" d="M62.2,138h0.9c0.4,1.7,1.9,3,3.7,3c1.8,0,3.3-1.3,3.7-3h1.9c0.4,1.7,1.9,3,3.7,3c1.8,0,3.3-1.3,3.7-3h0.9
			c0.5,0,0.8-0.4,0.8-0.8c0-0.5-0.4-0.8-0.8-0.8h-0.9c-0.4-1.7-1.9-3-3.7-3c-1.8,0-3.3,1.3-3.7,3h-1.9c-0.4-1.7-1.9-3-3.7-3
			s-3.3,1.3-3.7,3h-0.9c-0.5,0-0.8,0.4-0.8,0.8C61.3,137.6,61.7,138,62.2,138z M74.2,136.3c0.3-0.7,1.1-1.3,1.9-1.3
			c0.9,0,1.6,0.5,1.9,1.3c0.1,0.3,0.2,0.5,0.2,0.8s-0.1,0.6-0.2,0.8c-0.3,0.7-1.1,1.3-1.9,1.3c-0.9,0-1.6-0.5-1.9-1.3
			c-0.1-0.3-0.2-0.5-0.2-0.8S74,136.5,74.2,136.3z M64.9,136.3c0.3-0.7,1.1-1.3,1.9-1.3s1.6,0.5,1.9,1.3c0.1,0.3,0.2,0.5,0.2,0.8
			s-0.1,0.6-0.2,0.8c-0.3,0.7-1.1,1.3-1.9,1.3s-1.6-0.5-1.9-1.3c-0.1-0.3-0.2-0.5-0.2-0.8S64.8,136.5,64.9,136.3z"/>
		<path class="st0" d="M81.2,143H68.5c-0.2,0-0.4,0.2-0.4,0.4v1.7h6.3c0.7,0,1.3,0.6,1.3,1.3v7.2h5.9v-10.1
			C81.6,143.2,81.4,143,81.2,143z"/>
		<path class="st0" d="M74,146H62.2c-0.5,0-0.8,0.4-0.8,0.8v6.7c0,0,0,0,0,0h13.5l0,0v-6.7C74.8,146.4,74.4,146,74,146z M72.1,152.3
			h-8c-0.4,0-0.6-0.3-0.6-0.6c0-0.4,0.3-0.6,0.6-0.6h8c0.4,0,0.6,0.3,0.6,0.6C72.7,152,72.4,152.3,72.1,152.3z M72.1,149.8h-8
			c-0.4,0-0.6-0.3-0.6-0.6c0-0.4,0.3-0.6,0.6-0.6h8c0.4,0,0.6,0.3,0.6,0.6C72.7,149.5,72.4,149.8,72.1,149.8z"/>
	</g>
	<g>
		<circle class="st12" cx="123.7" cy="145.3" r="2.2"/>
		<path class="st12" d="M133.2,144.4h-3.6l0.7-0.7c0.3-0.3,0.3-0.9,0-1.2c-0.3-0.3-0.9-0.3-1.2,0l-2.2,2.2c-0.1,0.1-0.1,0.1-0.1,0.2
			c0,0,0,0,0,0c0,0.1-0.1,0.1-0.1,0.2c0,0,0,0,0,0c0,0.1,0,0.1,0,0.2c0,0,0,0,0,0.1c0,0.1,0,0.2,0.1,0.2c0,0,0,0,0,0c0,0,0,0,0,0
			c0,0.1,0.1,0.1,0.1,0.2c0,0,0,0,0,0c0,0,0,0,0,0l2.2,2.2c0.2,0.2,0.4,0.3,0.6,0.3c0.2,0,0.4-0.1,0.6-0.3c0.3-0.3,0.3-0.9,0-1.2
			l-0.7-0.7h3.6c0.5,0,0.9-0.4,0.9-0.9C134.1,144.8,133.7,144.4,133.2,144.4z"/>
		<path class="st12" d="M120.6,145.4c0-0.1,0-0.2,0-0.2c0,0,0,0,0,0c0-0.1,0-0.1-0.1-0.2c0,0,0,0,0,0c0-0.1-0.1-0.1-0.1-0.2
			l-2.2-2.2c-0.3-0.3-0.9-0.3-1.2,0c-0.3,0.3-0.3,0.9,0,1.2l0.7,0.7h-3.6c-0.5,0-0.9,0.4-0.9,0.9c0,0.5,0.4,0.9,0.9,0.9h3.6
			l-0.7,0.7c-0.3,0.3-0.3,0.9,0,1.2c0.2,0.2,0.4,0.3,0.6,0.3c0.2,0,0.4-0.1,0.6-0.3l2.2-2.2c0,0,0,0,0,0c0,0,0,0,0,0
			c0-0.1,0.1-0.1,0.1-0.2c0,0,0,0,0,0c0,0,0,0,0,0C120.6,145.6,120.6,145.5,120.6,145.4C120.6,145.4,120.6,145.4,120.6,145.4z"/>
		<path class="st12" d="M123,142c0,0,0.1,0.1,0.1,0.1c0,0,0.1,0,0.1,0.1c0,0,0,0,0,0c0,0,0.1,0,0.1,0c0,0,0,0,0,0c0.1,0,0.1,0,0.2,0
			c0,0,0,0,0,0c0,0,0,0,0,0c0,0,0,0,0,0c0.1,0,0.1,0,0.2,0c0,0,0,0,0,0c0,0,0.1,0,0.1,0c0,0,0,0,0,0c0,0,0,0,0,0
			c0.1,0,0.1-0.1,0.2-0.1c0,0,0,0,0,0c0,0,0,0,0,0l2.2-2.2c0.3-0.3,0.3-0.9,0-1.2c-0.3-0.3-0.9-0.3-1.2,0l-0.7,0.7v-3.6
			c0-0.5-0.4-0.9-0.9-0.9s-0.9,0.4-0.9,0.9v3.6l-0.7-0.7c-0.3-0.3-0.9-0.3-1.2,0c-0.3,0.3-0.3,0.9,0,1.2L123,142z"/>
		<path class="st12" d="M124.3,148.6C124.3,148.6,124.2,148.6,124.3,148.6C124.2,148.6,124.2,148.6,124.3,148.6
			c-0.1-0.1-0.2-0.2-0.3-0.2c0,0,0,0,0,0c0,0,0,0,0,0c-0.1,0-0.1,0-0.2-0.1c0,0,0,0-0.1,0c-0.1,0-0.1,0-0.2,0c0,0,0,0,0,0
			c-0.1,0-0.1,0-0.2,0.1c0,0,0,0-0.1,0c-0.1,0-0.1,0.1-0.2,0.1l-2.2,2.2c-0.3,0.3-0.3,0.9,0,1.2c0.3,0.3,0.9,0.3,1.2,0l0.7-0.7v3.6
			c0,0.5,0.4,0.9,0.9,0.9s0.9-0.4,0.9-0.9v-3.6l0.7,0.7c0.2,0.2,0.4,0.3,0.6,0.3c0.2,0,0.4-0.1,0.6-0.3c0.3-0.3,0.3-0.9,0-1.2
			L124.3,148.6z"/>
	</g>
	<g>
		<path class="st12" d="M115.3,167.1h1.6c0.3,0.9,1.2,1.5,2.1,1.5s1.8-0.6,2.1-1.5H132c0.4,0,0.8-0.3,0.8-0.8s-0.3-0.8-0.8-0.8
			h-10.7c-0.3-0.9-1.2-1.5-2.1-1.5s-1.8,0.6-2.1,1.5h-1.6c-0.4,0-0.8,0.3-0.8,0.8S114.9,167.1,115.3,167.1z M119.1,165.6
			c0.4,0,0.8,0.3,0.8,0.8c0,0.4-0.3,0.8-0.8,0.8s-0.8-0.3-0.8-0.8C118.3,165.9,118.7,165.6,119.1,165.6z"/>
		<path class="st12" d="M132,177.7h-7.7c-0.3-0.9-1.2-1.5-2.1-1.5s-1.8,0.6-2.1,1.5h-4.7c-0.4,0-0.8,0.3-0.8,0.8s0.3,0.8,0.8,0.8
			h4.7c0.3,0.9,1.2,1.5,2.1,1.5s1.8-0.6,2.1-1.5h7.7c0.4,0,0.8-0.3,0.8-0.8S132.4,177.7,132,177.7z M122.1,179.2
			c-0.4,0-0.8-0.3-0.8-0.8c0-0.4,0.3-0.8,0.8-0.8c0.4,0,0.8,0.3,0.8,0.8C122.9,178.9,122.6,179.2,122.1,179.2z"/>
		<path class="st12" d="M132,171.6h-1.6c-0.3-0.9-1.2-1.5-2.1-1.5s-1.8,0.6-2.1,1.5h-10.7c-0.4,0-0.8,0.3-0.8,0.8s0.3,0.8,0.8,0.8
			h10.7c0.3,0.9,1.2,1.5,2.1,1.5s1.8-0.6,2.1-1.5h1.6c0.4,0,0.8-0.3,0.8-0.8S132.4,171.6,132,171.6z M128.2,173.1
			c-0.4,0-0.8-0.3-0.8-0.8c0-0.4,0.3-0.8,0.8-0.8s0.8,0.3,0.8,0.8C129,172.8,128.6,173.1,128.2,173.1z"/>
	</g>
</g>
</svg>
