<?xml version="1.0" encoding="UTF-8"?>
<svg id="Layer_1" data-name="Layer 1" xmlns="http://www.w3.org/2000/svg" version="1.1" viewBox="0 0 42.35 42.12">
  <defs>
    <style>
      .cls-1 {
        fill: #fff;
      }

      .cls-1, .cls-2 {
        stroke-width: 0px;
      }

      .cls-2 {
        fill: #f9a31a;
      }
    </style>
  </defs>
  <circle class="cls-2" cx="21.18" cy="21.12" r="20.11"/>
  <g>
    <path class="cls-1" d="M15.68,24.44l.73-.73c.12-.12.19-.27.21-.43.04-.27-.05-.53-.24-.72-.11-.11-.25-.19-.4-.23-.27-.07-.55,0-.75.2l-1.12,1.12-.89.89c-.31.33-.3.84.02,1.15.16.16.37.25.6.25.21,0,.41-.08.55-.23l1.28-1.28h0Z"/>
    <path class="cls-1" d="M21.32,17.9l-.11.11-1.55,1.55-.06.06-.6.6c-.3.3-.72.47-1.15.47-.05,0-.1,0-.15,0-.02,0-.04,0-.05,0-.89-.1-1.52-.91-1.41-1.79.04-.36.21-.7.47-.96l3.44-3.44c.09-.09.17-.17.26-.25-2.66-1.64-6.16-.81-7.8,1.85-1.38,2.24-1.04,5.12.82,6.98l.05.05,1.17-1.17c.3-.3.71-.46,1.13-.46.29,0,.57.07.82.21.13.07.25.16.36.27.21.21.36.47.43.76.03.13.05.25.05.38,0,.15-.01.31-.06.45.14-.04.28-.06.42-.06.91,0,1.65.72,1.66,1.63,0,.15-.01.31-.06.45.14-.04.28-.06.42-.06.91,0,1.65.72,1.66,1.63,0,.15-.01.31-.06.45.14-.04.28-.06.42-.06.91,0,1.65.72,1.66,1.63,0,.25-.04.49-.15.71.15.06.31.09.47.09.67,0,1.21-.55,1.21-1.22,0-.21-.05-.41-.15-.59.57.35,1.31.18,1.67-.39.25-.39.25-.89,0-1.29.18.1.38.16.59.16.67,0,1.21-.54,1.21-1.22,0-.32-.13-.63-.36-.86l-6.7-6.7Z"/>
    <path class="cls-1" d="M21.86,28.37s-.08,0-.13.01c-.16.03-.31.1-.43.21l-2.01,2.01c-.31.33-.3.84.02,1.15.16.16.37.25.6.25.21,0,.41-.08.55-.23l2.01-2.01c.12-.12.19-.27.21-.43.07-.47-.25-.9-.72-.97-.04,0-.08,0-.12,0Z"/>
    <path class="cls-1" d="M18.65,25.3c.07-.47-.25-.9-.72-.97-.04,0-.08,0-.12,0-.04,0-.08,0-.13.01-.16.03-.31.1-.43.21l-2.01,2.01c-.31.33-.3.84.02,1.15.16.16.37.25.6.25.21,0,.41-.08.55-.23l2.01-2.01c.12-.12.19-.27.21-.43Z"/>
    <path class="cls-1" d="M20.68,27.32c.07-.47-.25-.9-.72-.97-.04,0-.08,0-.12,0-.04,0-.08,0-.13.01-.16.03-.31.1-.43.21l-2.01,2.01c-.31.33-.3.84.02,1.15.16.16.37.25.6.25.21,0,.41-.08.55-.23l2.01-2.01c.12-.12.19-.27.21-.43Z"/>
    <path class="cls-1" d="M28.74,15.05c-2.08-2.08-5.4-2.22-7.65-.33-.13.11-.25.21-.36.33l-3.44,3.44c-.32.32-.32.83,0,1.15.32.31.83.31,1.15,0l2.98-2.98,1.03,1.03,5.81,5.81c.17-.13.33-.28.49-.43,2.21-2.21,2.22-5.8,0-8.01,0,0,0,0,0,0Z"/>
  </g>
</svg>