<?xml version="1.0" encoding="utf-8"?>
<!-- Generator: Adobe Illustrator 25.0.0, SVG Export Plug-In . SVG Version: 6.00 Build 0)  -->
<svg version="1.1" id="Layer_1" xmlns="http://www.w3.org/2000/svg" xmlns:xlink="http://www.w3.org/1999/xlink" x="0px" y="0px"
	 viewBox="0 0 500 500" style="enable-background:new 0 0 500 500;" xml:space="preserve">
<style type="text/css">
	.st0{fill:#335DAB;}
	.st1{fill:#FFFFFF;}
	.st2{fill:#2D2D2B;}
	.st3{fill:#F6A400;}
</style>
<rect x="0" y="0" class="st0" width="500" height="500"/>
<rect x="56.7" y="106.1" class="st1" width="383.1" height="333.9"/>
<g>
	<path class="st0" d="M173.1,175.2v9.5h9.2v-9.5h5.6v24.7h-5.6v-10.3h-9.2v10.3h-5.6v-24.7H173.1z"/>
	<path class="st0" d="M210.1,194.1c0,2.3,0.1,4.2,0.1,5.7h-4.8l-0.3-2.5H205c-0.7,1.1-2.4,2.9-5.6,2.9c-3.7,0-6.3-2.3-6.3-7.8v-10.5
		h5.6v9.6c0,2.6,0.8,4.2,2.8,4.2c1.5,0,2.5-1.1,2.8-1.9c0.1-0.3,0.2-0.7,0.2-1.2v-10.6h5.6V194.1z"/>
	<path class="st0" d="M215.3,187.6c0-2.2-0.1-4.1-0.1-5.7h4.7l0.2,2.4h0.1c0.8-1.2,2.4-2.9,5.4-2.9c2.3,0,4.1,1.2,4.9,3.1h0.1
		c0.7-1,1.5-1.7,2.3-2.2c1-0.5,2.1-0.9,3.4-0.9c3.4,0,6,2.4,6,7.8v10.5h-5.4v-9.7c0-2.6-0.8-4.1-2.6-4.1c-1.3,0-2.2,0.9-2.6,1.9
		c-0.1,0.4-0.2,1-0.2,1.4v10.5h-5.4v-10.1c0-2.2-0.8-3.8-2.6-3.8c-1.4,0-2.3,1.1-2.6,2c-0.2,0.4-0.2,1-0.2,1.4v10.4h-5.4V187.6z"/>
	<path class="st0" d="M262.3,195.5c0,1.7,0.1,3.3,0.3,4.3h-5l-0.3-1.8h-0.1c-1.2,1.4-3,2.2-5.1,2.2c-3.6,0-5.8-2.6-5.8-5.5
		c0-4.6,4.2-6.8,10.5-6.8v-0.2c0-1-0.5-2.3-3.3-2.3c-1.8,0-3.8,0.6-4.9,1.4l-1-3.6c1.2-0.7,3.7-1.6,6.9-1.6c6,0,7.8,3.5,7.8,7.8
		V195.5z M257,191.4c-2.9,0-5.2,0.7-5.2,2.8c0,1.4,1,2.1,2.2,2.1c1.4,0,2.5-0.9,2.9-2c0.1-0.3,0.1-0.6,0.1-1V191.4z"/>
	<path class="st0" d="M267.5,187.6c0-2.2-0.1-4.1-0.1-5.7h4.8l0.3,2.5h0.1c0.7-1.2,2.5-2.9,5.5-2.9c3.7,0,6.4,2.5,6.4,7.7v10.6h-5.6
		v-9.9c0-2.3-0.8-3.9-2.8-3.9c-1.5,0-2.5,1.1-2.9,2.1c-0.1,0.4-0.2,0.9-0.2,1.4v10.3h-5.6V187.6z"/>
	<path class="st0" d="M295.4,177c0,1.5-1.1,2.8-3,2.8c-1.8,0-2.9-1.2-2.9-2.8c0-1.6,1.2-2.8,3-2.8
		C294.3,174.2,295.4,175.4,295.4,177z M289.7,199.8v-17.9h5.6v17.9H289.7z"/>
	<path class="st0" d="M306.6,177.1v4.8h4v4.1h-4v6.5c0,2.2,0.5,3.1,2.2,3.1c0.8,0,1.1,0,1.6-0.1l0,4.2c-0.7,0.3-2,0.5-3.6,0.5
		c-1.8,0-3.3-0.6-4.2-1.5c-1-1.1-1.5-2.8-1.5-5.3V186h-2.4v-4.1h2.4v-3.3L306.6,177.1z"/>
	<path class="st0" d="M318.7,181.9l2.7,8.8c0.3,1,0.7,2.4,0.9,3.3h0.1c0.2-1,0.5-2.3,0.8-3.4l2.2-8.8h5.9l-4.2,11.8
		c-2.6,7.1-4.3,9.9-6.3,11.7c-1.9,1.7-4,2.3-5.3,2.5l-1.2-4.7c0.7-0.1,1.6-0.5,2.4-1c0.8-0.4,1.8-1.4,2.3-2.2
		c0.2-0.3,0.3-0.6,0.3-0.8c0-0.2,0-0.5-0.2-0.9l-6.6-16.4H318.7z"/>
	<path class="st2" d="M115.4,232.5h-2.5v-8.2h-9v8.2h-2.5v-18.6h2.5v8.4h9v-8.4h2.5V232.5z"/>
	<path class="st2" d="M128.1,230.4c-0.4,0.7-1,1.3-1.7,1.7c-0.7,0.4-1.5,0.6-2.4,0.6c-1.5,0-2.7-0.5-3.5-1.4s-1.3-2.5-1.3-4.5v-8.1
		h2.5v8.2c0,1.5,0.2,2.5,0.7,3c0.4,0.6,1.1,0.8,2,0.8c0.9,0,1.6-0.2,2.2-0.5s1-0.9,1.3-1.5v-9.9h2.5v13.8h-2.3L128.1,230.4z"/>
	<path class="st2" d="M136.4,218.7l0.2,1.8c0.5-0.7,1-1.2,1.7-1.5c0.7-0.4,1.5-0.5,2.4-0.5c0.9,0,1.7,0.2,2.4,0.6
		c0.7,0.4,1.2,1.1,1.5,1.9c0.4-0.8,1-1.4,1.7-1.9c0.7-0.5,1.5-0.7,2.5-0.7c1.4,0,2.5,0.5,3.3,1.4c0.8,1,1.2,2.4,1.2,4.4v8.3h-2.5
		v-8.3c0-1.4-0.2-2.3-0.7-2.9s-1.2-0.8-2.1-0.8c-0.9,0-1.6,0.3-2.1,0.9c-0.5,0.6-0.8,1.3-0.9,2.3v0.1v8.8h-2.5v-8.3
		c0-1.3-0.2-2.2-0.7-2.8c-0.5-0.6-1.2-0.9-2.1-0.9c-0.8,0-1.4,0.2-1.9,0.5c-0.5,0.3-0.9,0.8-1.1,1.3v10.2h-2.5v-13.8H136.4z"/>
	<path class="st2" d="M165.5,232.5c-0.1-0.4-0.2-0.8-0.2-1.1s-0.1-0.6-0.1-1c-0.5,0.7-1.1,1.2-1.8,1.7s-1.6,0.7-2.4,0.7
		c-1.4,0-2.5-0.4-3.3-1.1c-0.8-0.7-1.1-1.7-1.1-3c0-1.3,0.5-2.3,1.6-3.1c1.1-0.7,2.5-1.1,4.3-1.1h2.7V223c0-0.8-0.2-1.4-0.7-1.9
		c-0.5-0.5-1.2-0.7-2.1-0.7c-0.8,0-1.5,0.2-2,0.6s-0.8,0.9-0.8,1.5l-2.4,0l0-0.1c-0.1-1,0.4-1.9,1.4-2.8s2.3-1.2,3.9-1.2
		c1.6,0,2.8,0.4,3.8,1.2c1,0.8,1.4,1.9,1.4,3.4v6.6c0,0.5,0,1,0.1,1.4c0.1,0.5,0.1,0.9,0.3,1.4H165.5z M161.3,230.6
		c0.9,0,1.7-0.2,2.5-0.7c0.7-0.5,1.2-1,1.4-1.6v-2.2h-2.8c-1,0-1.8,0.3-2.4,0.8s-0.9,1.1-0.9,1.8c0,0.6,0.2,1.1,0.6,1.5
		C160,230.4,160.6,230.6,161.3,230.6z"/>
	<path class="st2" d="M173.6,218.7l0.2,2.1c0.5-0.7,1-1.3,1.7-1.7c0.7-0.4,1.5-0.6,2.4-0.6c1.5,0,2.6,0.4,3.5,1.3
		c0.8,0.9,1.2,2.2,1.2,4v8.7h-2.5v-8.7c0-1.2-0.2-2.1-0.7-2.6s-1.2-0.8-2.2-0.8c-0.8,0-1.4,0.2-2,0.5s-1,0.7-1.3,1.3v10.2h-2.5
		v-13.8H173.6z"/>
	<path class="st2" d="M200.8,228.8c0-0.6-0.2-1-0.6-1.4c-0.4-0.3-1.2-0.7-2.4-0.9c-1.6-0.3-2.9-0.8-3.7-1.5
		c-0.9-0.6-1.3-1.5-1.3-2.5c0-1.1,0.5-2.1,1.4-2.9c1-0.8,2.2-1.2,3.7-1.2c1.6,0,2.8,0.4,3.8,1.3c1,0.9,1.4,1.8,1.4,3l0,0.1h-2.4
		c0-0.6-0.3-1.1-0.8-1.6c-0.5-0.5-1.2-0.7-2-0.7c-0.9,0-1.5,0.2-2,0.6c-0.4,0.4-0.7,0.9-0.7,1.4c0,0.5,0.2,1,0.6,1.3
		c0.4,0.3,1.2,0.6,2.3,0.8c1.7,0.4,3,0.9,3.9,1.5s1.3,1.5,1.3,2.6c0,1.2-0.5,2.2-1.5,3c-1,0.8-2.3,1.2-3.9,1.2
		c-1.8,0-3.1-0.4-4.2-1.3c-1-0.9-1.5-1.9-1.4-3.1l0-0.1h2.4c0,0.9,0.4,1.5,1,2s1.3,0.6,2.2,0.6c0.9,0,1.6-0.2,2.1-0.6
		C200.5,229.8,200.8,229.3,200.8,228.8z"/>
	<path class="st2" d="M215.2,230.4c-0.4,0.7-1,1.3-1.7,1.7c-0.7,0.4-1.5,0.6-2.4,0.6c-1.5,0-2.7-0.5-3.5-1.4s-1.3-2.5-1.3-4.5v-8.1
		h2.5v8.2c0,1.5,0.2,2.5,0.7,3c0.4,0.6,1.1,0.8,2,0.8c0.9,0,1.6-0.2,2.2-0.5s1-0.9,1.3-1.5v-9.9h2.5v13.8h-2.3L215.2,230.4z"/>
	<path class="st2" d="M222.3,232.5v-11.9h-2.2v-1.9h2.2v-1.7c0-1.5,0.4-2.6,1.2-3.4c0.8-0.8,1.8-1.2,3.2-1.2c0.3,0,0.6,0,0.9,0.1
		s0.6,0.1,1,0.2l-0.3,1.9c-0.2,0-0.3-0.1-0.6-0.1s-0.4,0-0.7,0c-0.7,0-1.3,0.2-1.6,0.7s-0.5,1.1-0.5,1.9v1.7h2.5v1.9h-2.5v11.9
		H222.3z"/>
	<path class="st2" d="M230.9,232.5v-11.9h-2.2v-1.9h2.2v-1.7c0-1.5,0.4-2.6,1.2-3.4c0.8-0.8,1.8-1.2,3.2-1.2c0.3,0,0.6,0,0.9,0.1
		s0.6,0.1,1,0.2l-0.3,1.9c-0.2,0-0.3-0.1-0.6-0.1s-0.4,0-0.7,0c-0.7,0-1.3,0.2-1.6,0.7s-0.5,1.1-0.5,1.9v1.7h2.5v1.9h-2.5v11.9
		H230.9z"/>
	<path class="st2" d="M244.2,232.7c-2,0-3.5-0.6-4.6-1.9c-1.1-1.3-1.7-2.9-1.7-5v-0.6c0-2,0.6-3.6,1.7-4.9c1.1-1.3,2.5-1.9,4.2-1.9
		c1.8,0,3.2,0.6,4.2,1.7c0.9,1.1,1.4,2.7,1.4,4.6v1.3h-8.8l0,0.1c0,1.4,0.3,2.5,0.9,3.4c0.6,0.9,1.5,1.3,2.8,1.3
		c0.9,0,1.6-0.1,2.2-0.4c0.6-0.2,1.2-0.6,1.7-1l1,1.6c-0.5,0.5-1.1,0.9-2,1.2C246.3,232.6,245.3,232.7,244.2,232.7z M243.8,220.4
		c-0.9,0-1.6,0.3-2.2,1c-0.6,0.7-0.9,1.5-1.1,2.6l0,0.1h6.2v-0.2c0-1-0.2-1.8-0.7-2.5C245.5,220.7,244.8,220.4,243.8,220.4z"/>
	<path class="st2" d="M258.6,220.9l-1.3-0.1c-0.7,0-1.2,0.2-1.7,0.5c-0.5,0.3-0.8,0.8-1.1,1.3v9.9h-2.5v-13.8h2.2l0.2,2
		c0.4-0.7,0.9-1.3,1.4-1.7c0.6-0.4,1.2-0.6,2-0.6c0.2,0,0.4,0,0.5,0s0.3,0.1,0.4,0.1L258.6,220.9z"/>
	<path class="st2" d="M264,215.1h-2.5v-2.6h2.5V215.1z M264,232.5h-2.5v-13.8h2.5V232.5z"/>
	<path class="st2" d="M270.1,218.7l0.2,2.1c0.5-0.7,1-1.3,1.7-1.7s1.5-0.6,2.4-0.6c1.5,0,2.6,0.4,3.5,1.3c0.8,0.9,1.2,2.2,1.2,4v8.7
		h-2.5v-8.7c0-1.2-0.2-2.1-0.7-2.6c-0.5-0.5-1.2-0.8-2.2-0.8c-0.8,0-1.4,0.2-2,0.5c-0.5,0.3-1,0.7-1.3,1.3v10.2h-2.5v-13.8H270.1z"
		/>
	<path class="st2" d="M282.2,225.8c0-2.2,0.5-4,1.4-5.4c0.9-1.4,2.3-2,4-2c0.9,0,1.6,0.2,2.3,0.5s1.2,0.9,1.7,1.5l0.3-1.8h2v13.9
		c0,1.8-0.5,3.1-1.5,4.1c-1,0.9-2.5,1.4-4.5,1.4c-0.7,0-1.4-0.1-2.1-0.3c-0.8-0.2-1.4-0.4-2-0.7l0.4-2c0.5,0.3,1.1,0.5,1.8,0.6
		c0.7,0.2,1.4,0.2,2,0.2c1.2,0,2.1-0.3,2.7-0.8s0.8-1.4,0.8-2.5V231c-0.5,0.6-1,1-1.6,1.3c-0.6,0.3-1.4,0.4-2.2,0.4
		c-1.7,0-3-0.6-3.9-1.8s-1.4-2.8-1.4-4.8V225.8z M284.8,226.1c0,1.4,0.3,2.5,0.9,3.3c0.6,0.8,1.4,1.3,2.6,1.3c0.8,0,1.4-0.2,1.9-0.5
		c0.5-0.3,0.9-0.8,1.3-1.5v-6.4c-0.3-0.6-0.7-1.1-1.3-1.4c-0.5-0.3-1.1-0.5-1.9-0.5c-1.2,0-2.1,0.5-2.7,1.5c-0.6,1-0.9,2.3-0.9,3.9
		V226.1z"/>
	<path class="st2" d="M306.3,218.7l0.2,1.8c0.5-0.7,1-1.2,1.7-1.5s1.5-0.5,2.4-0.5c0.9,0,1.7,0.2,2.4,0.6s1.2,1.1,1.5,1.9
		c0.4-0.8,1-1.4,1.7-1.9c0.7-0.5,1.5-0.7,2.5-0.7c1.4,0,2.5,0.5,3.3,1.4c0.8,1,1.2,2.4,1.2,4.4v8.3h-2.5v-8.3c0-1.4-0.2-2.3-0.7-2.9
		c-0.5-0.6-1.2-0.8-2.1-0.8c-0.9,0-1.6,0.3-2.1,0.9s-0.8,1.3-0.9,2.3v0.1v8.8h-2.5v-8.3c0-1.3-0.2-2.2-0.7-2.8s-1.2-0.9-2.1-0.9
		c-0.8,0-1.4,0.2-1.9,0.5s-0.9,0.8-1.1,1.3v10.2H304v-13.8H306.3z"/>
	<path class="st2" d="M335.6,230.4c-0.4,0.7-1,1.3-1.7,1.7c-0.7,0.4-1.5,0.6-2.4,0.6c-1.5,0-2.7-0.5-3.5-1.4s-1.3-2.5-1.3-4.5v-8.1
		h2.5v8.2c0,1.5,0.2,2.5,0.7,3s1.1,0.8,2,0.8c0.9,0,1.6-0.2,2.2-0.5c0.6-0.4,1-0.9,1.3-1.5v-9.9h2.5v13.8h-2.3L335.6,230.4z"/>
	<path class="st2" d="M349.7,228.8c0-0.6-0.2-1-0.6-1.4c-0.4-0.3-1.2-0.7-2.4-0.9c-1.6-0.3-2.9-0.8-3.7-1.5
		c-0.9-0.6-1.3-1.5-1.3-2.5c0-1.1,0.5-2.1,1.4-2.9c1-0.8,2.2-1.2,3.7-1.2c1.6,0,2.8,0.4,3.8,1.3c1,0.9,1.4,1.8,1.4,3l0,0.1h-2.4
		c0-0.6-0.3-1.1-0.8-1.6c-0.5-0.5-1.2-0.7-2-0.7c-0.9,0-1.5,0.2-2,0.6c-0.4,0.4-0.7,0.9-0.7,1.4c0,0.5,0.2,1,0.6,1.3
		c0.4,0.3,1.2,0.6,2.3,0.8c1.7,0.4,3,0.9,3.9,1.5s1.3,1.5,1.3,2.6c0,1.2-0.5,2.2-1.5,3c-1,0.8-2.3,1.2-3.9,1.2
		c-1.8,0-3.1-0.4-4.2-1.3c-1-0.9-1.5-1.9-1.4-3.1l0-0.1h2.4c0,0.9,0.4,1.5,1,2s1.3,0.6,2.2,0.6c0.9,0,1.6-0.2,2.1-0.6
		C349.5,229.8,349.7,229.3,349.7,228.8z"/>
	<path class="st2" d="M358.9,215.3v3.3h2.6v1.9h-2.6v8.4c0,0.6,0.1,1.1,0.4,1.4s0.6,0.4,1.1,0.4c0.1,0,0.3,0,0.5-0.1
		c0.2,0,0.3-0.1,0.4-0.1l0.3,1.7c-0.2,0.2-0.5,0.3-0.8,0.4c-0.4,0.1-0.7,0.1-1.1,0.1c-1,0-1.8-0.3-2.4-0.9c-0.6-0.6-0.9-1.6-0.9-2.9
		v-8.4h-2.2v-1.9h2.2v-3.3H358.9z"/>
	<path class="st2" d="M382.4,226.1c0,2-0.5,3.6-1.4,4.8s-2.3,1.8-3.9,1.8c-0.9,0-1.7-0.2-2.4-0.5c-0.7-0.4-1.2-0.9-1.7-1.6l-0.4,1.9
		h-1.9v-19.9h2.5v7.7c0.4-0.6,1-1.1,1.6-1.4c0.6-0.3,1.4-0.5,2.3-0.5c1.7,0,3,0.7,4,2c1,1.4,1.4,3.2,1.4,5.4V226.1z M379.9,225.8
		c0-1.6-0.3-2.9-0.9-3.9c-0.6-1-1.5-1.5-2.7-1.5c-0.8,0-1.4,0.2-2,0.6c-0.5,0.4-1,0.9-1.3,1.5v6c0.3,0.7,0.7,1.2,1.3,1.6
		c0.5,0.4,1.2,0.6,2,0.6c1.2,0,2.1-0.4,2.6-1.3s0.9-2,0.9-3.3V225.8z"/>
	<path class="st2" d="M391.2,232.7c-2,0-3.5-0.6-4.6-1.9c-1.1-1.3-1.7-2.9-1.7-5v-0.6c0-2,0.6-3.6,1.7-4.9c1.1-1.3,2.5-1.9,4.2-1.9
		c1.8,0,3.2,0.6,4.2,1.7s1.4,2.7,1.4,4.6v1.3h-8.8l0,0.1c0,1.4,0.3,2.5,0.9,3.4c0.6,0.9,1.5,1.3,2.8,1.3c0.9,0,1.6-0.1,2.2-0.4
		c0.6-0.2,1.2-0.6,1.7-1l1,1.6c-0.5,0.5-1.1,0.9-2,1.2S392.4,232.7,391.2,232.7z M390.8,220.4c-0.9,0-1.6,0.3-2.2,1
		c-0.6,0.7-0.9,1.5-1.1,2.6l0,0.1h6.2v-0.2c0-1-0.2-1.8-0.7-2.5S391.9,220.4,390.8,220.4z"/>
	<path class="st2" d="M134.5,262.5c-0.1-0.4-0.2-0.8-0.2-1.1c0-0.3-0.1-0.6-0.1-1c-0.5,0.7-1.1,1.2-1.8,1.7
		c-0.8,0.4-1.6,0.7-2.4,0.7c-1.4,0-2.5-0.4-3.3-1.1c-0.8-0.7-1.1-1.7-1.1-3c0-1.3,0.5-2.3,1.6-3.1c1.1-0.7,2.5-1.1,4.3-1.1h2.7v-1.4
		c0-0.8-0.2-1.4-0.7-1.9s-1.2-0.7-2.1-0.7c-0.8,0-1.5,0.2-2,0.6s-0.8,0.9-0.8,1.5l-2.4,0l0-0.1c-0.1-1,0.4-1.9,1.4-2.8
		c1-0.8,2.3-1.2,3.9-1.2c1.6,0,2.8,0.4,3.8,1.2c1,0.8,1.4,1.9,1.4,3.4v6.6c0,0.5,0,1,0.1,1.4c0.1,0.5,0.1,0.9,0.3,1.4H134.5z
		 M130.4,260.7c0.9,0,1.7-0.2,2.5-0.7c0.7-0.5,1.2-1,1.4-1.6v-2.2h-2.8c-1,0-1.8,0.3-2.4,0.8c-0.6,0.5-0.9,1.1-0.9,1.8
		c0,0.6,0.2,1.1,0.6,1.5C129.1,260.5,129.6,260.7,130.4,260.7z"/>
	<path class="st2" d="M143.1,262.5h-2.5v-19.9h2.5V262.5z"/>
	<path class="st2" d="M149.7,262.5h-2.5v-19.9h2.5V262.5z"/>
	<path class="st2" d="M159.3,262.8c-2,0-3.5-0.6-4.6-1.9c-1.1-1.3-1.7-2.9-1.7-5v-0.6c0-2,0.6-3.6,1.7-4.9s2.5-1.9,4.2-1.9
		c1.8,0,3.2,0.6,4.2,1.7c0.9,1.1,1.4,2.7,1.4,4.6v1.3h-8.8l0,0.1c0,1.4,0.3,2.5,0.9,3.4c0.6,0.9,1.5,1.3,2.8,1.3
		c0.9,0,1.6-0.1,2.2-0.4c0.6-0.2,1.2-0.6,1.7-1l1,1.6c-0.5,0.5-1.1,0.9-2,1.2C161.4,262.6,160.4,262.8,159.3,262.8z M158.9,250.4
		c-0.9,0-1.6,0.3-2.2,1c-0.6,0.7-0.9,1.5-1.1,2.6l0,0.1h6.2v-0.2c0-1-0.2-1.8-0.7-2.5C160.7,250.8,159.9,250.4,158.9,250.4z"/>
	<path class="st2" d="M171.9,258.4l0.2,1h0.1l0.2-1l3.2-9.7h2.6l-5.1,13.8h-1.9l-5.1-13.8h2.6L171.9,258.4z"/>
	<path class="st2" d="M183.1,245.2h-2.5v-2.6h2.5V245.2z M183.1,262.5h-2.5v-13.8h2.5V262.5z"/>
	<path class="st2" d="M195.5,262.5c-0.1-0.4-0.2-0.8-0.2-1.1c0-0.3-0.1-0.6-0.1-1c-0.5,0.7-1.1,1.2-1.8,1.7
		c-0.8,0.4-1.6,0.7-2.4,0.7c-1.4,0-2.5-0.4-3.3-1.1c-0.8-0.7-1.1-1.7-1.1-3c0-1.3,0.5-2.3,1.6-3.1c1.1-0.7,2.5-1.1,4.3-1.1h2.7v-1.4
		c0-0.8-0.2-1.4-0.7-1.9s-1.2-0.7-2.1-0.7c-0.8,0-1.5,0.2-2,0.6s-0.8,0.9-0.8,1.5l-2.4,0l0-0.1c-0.1-1,0.4-1.9,1.4-2.8
		c1-0.8,2.3-1.2,3.9-1.2c1.6,0,2.8,0.4,3.8,1.2c1,0.8,1.4,1.9,1.4,3.4v6.6c0,0.5,0,1,0.1,1.4c0.1,0.5,0.1,0.9,0.3,1.4H195.5z
		 M191.3,260.7c0.9,0,1.7-0.2,2.5-0.7c0.7-0.5,1.2-1,1.4-1.6v-2.2h-2.8c-1,0-1.8,0.3-2.4,0.8c-0.6,0.5-0.9,1.1-0.9,1.8
		c0,0.6,0.2,1.1,0.6,1.5C190,260.5,190.5,260.7,191.3,260.7z"/>
	<path class="st2" d="M204.8,245.4v3.3h2.6v1.9h-2.6v8.4c0,0.6,0.1,1.1,0.4,1.4c0.3,0.3,0.6,0.4,1.1,0.4c0.1,0,0.3,0,0.5-0.1
		c0.2,0,0.3-0.1,0.4-0.1l0.3,1.7c-0.2,0.2-0.5,0.3-0.8,0.4c-0.4,0.1-0.7,0.1-1.1,0.1c-1,0-1.8-0.3-2.4-0.9c-0.6-0.6-0.9-1.6-0.9-2.9
		v-8.4h-2.2v-1.9h2.2v-3.3H204.8z"/>
	<path class="st2" d="M215.9,262.8c-2,0-3.5-0.6-4.6-1.9c-1.1-1.3-1.7-2.9-1.7-5v-0.6c0-2,0.6-3.6,1.7-4.9s2.5-1.9,4.2-1.9
		c1.8,0,3.2,0.6,4.2,1.7c0.9,1.1,1.4,2.7,1.4,4.6v1.3h-8.8l0,0.1c0,1.4,0.3,2.5,0.9,3.4c0.6,0.9,1.5,1.3,2.8,1.3
		c0.9,0,1.6-0.1,2.2-0.4c0.6-0.2,1.2-0.6,1.7-1l1,1.6c-0.5,0.5-1.1,0.9-2,1.2C218,262.6,217,262.8,215.9,262.8z M215.5,250.4
		c-0.9,0-1.6,0.3-2.2,1c-0.6,0.7-0.9,1.5-1.1,2.6l0,0.1h6.2v-0.2c0-1-0.2-1.8-0.7-2.5C217.2,250.8,216.5,250.4,215.5,250.4z"/>
	<path class="st2" d="M223.2,255.9c0-2.2,0.5-4,1.4-5.4c0.9-1.4,2.3-2,4-2c0.8,0,1.5,0.1,2.1,0.4c0.6,0.3,1.2,0.7,1.6,1.3v-7.6h2.5
		v19.9H233l-0.4-1.7c-0.5,0.7-1,1.2-1.7,1.5s-1.4,0.5-2.3,0.5c-1.7,0-3-0.6-4-1.8c-1-1.2-1.4-2.8-1.4-4.8V255.9z M225.8,256.1
		c0,1.4,0.3,2.5,0.9,3.3s1.5,1.3,2.7,1.3c0.7,0,1.4-0.2,1.9-0.5s0.9-0.8,1.2-1.4v-6.4c-0.3-0.6-0.7-1-1.3-1.4s-1.1-0.5-1.9-0.5
		c-1.2,0-2.1,0.5-2.7,1.5c-0.6,1-0.9,2.3-0.9,3.9V256.1z"/>
	<path class="st2" d="M248.7,257.5l0.3,1.8h0.1l0.3-1.8l2.8-8.8h2l2.8,8.8l0.4,2h0.1l0.4-2l2-8.8h2.6l-4,13.8h-2l-2.7-8.4l-0.5-2.2
		h-0.1l-0.5,2.2l-2.7,8.4h-2l-4-13.8h2.6L248.7,257.5z"/>
	<path class="st2" d="M267.4,250.6c0.5-0.7,1.1-1.2,1.8-1.5c0.7-0.4,1.5-0.6,2.3-0.6c1.5,0,2.6,0.4,3.4,1.3c0.8,0.9,1.2,2.2,1.2,4.1
		v8.6h-2.5v-8.7c0-1.1-0.2-2-0.7-2.5c-0.5-0.5-1.2-0.8-2.2-0.8c-0.7,0-1.4,0.1-2,0.4c-0.6,0.3-1,0.7-1.3,1.2v10.3h-2.5v-19.9h2.5
		V250.6z"/>
	<path class="st2" d="M285.5,262.8c-2,0-3.5-0.6-4.6-1.9c-1.1-1.3-1.7-2.9-1.7-5v-0.6c0-2,0.6-3.6,1.7-4.9c1.1-1.3,2.5-1.9,4.2-1.9
		c1.8,0,3.2,0.6,4.2,1.7c0.9,1.1,1.4,2.7,1.4,4.6v1.3h-8.8l0,0.1c0,1.4,0.3,2.5,0.9,3.4s1.5,1.3,2.8,1.3c0.9,0,1.6-0.1,2.2-0.4
		c0.6-0.2,1.2-0.6,1.7-1l1,1.6c-0.5,0.5-1.1,0.9-2,1.2C287.6,262.6,286.6,262.8,285.5,262.8z M285.1,250.4c-0.9,0-1.6,0.3-2.2,1
		c-0.6,0.7-0.9,1.5-1.1,2.6l0,0.1h6.2v-0.2c0-1-0.2-1.8-0.7-2.5C286.9,250.8,286.1,250.4,285.1,250.4z"/>
	<path class="st2" d="M300,250.9l-1.3-0.1c-0.7,0-1.2,0.2-1.7,0.5c-0.5,0.3-0.8,0.8-1.1,1.3v9.9h-2.5v-13.8h2.2l0.2,2
		c0.4-0.7,0.9-1.3,1.4-1.7c0.6-0.4,1.2-0.6,2-0.6c0.2,0,0.4,0,0.5,0c0.2,0,0.3,0.1,0.4,0.1L300,250.9z"/>
	<path class="st2" d="M308.3,262.8c-2,0-3.5-0.6-4.6-1.9c-1.1-1.3-1.7-2.9-1.7-5v-0.6c0-2,0.6-3.6,1.7-4.9c1.1-1.3,2.5-1.9,4.2-1.9
		c1.8,0,3.2,0.6,4.2,1.7c0.9,1.1,1.4,2.7,1.4,4.6v1.3h-8.8l0,0.1c0,1.4,0.3,2.5,0.9,3.4s1.5,1.3,2.8,1.3c0.9,0,1.6-0.1,2.2-0.4
		c0.6-0.2,1.2-0.6,1.7-1l1,1.6c-0.5,0.5-1.1,0.9-2,1.2C310.4,262.6,309.4,262.8,308.3,262.8z M307.9,250.4c-0.9,0-1.6,0.3-2.2,1
		c-0.6,0.7-0.9,1.5-1.1,2.6l0,0.1h6.2v-0.2c0-1-0.2-1.8-0.7-2.5C309.7,250.8,308.9,250.4,307.9,250.4z"/>
	<path class="st2" d="M320.9,258.4l0.2,1h0.1l0.2-1l3.2-9.7h2.6l-5.1,13.8h-1.9l-5.1-13.8h2.6L320.9,258.4z"/>
	<path class="st2" d="M335.1,262.8c-2,0-3.5-0.6-4.6-1.9c-1.1-1.3-1.7-2.9-1.7-5v-0.6c0-2,0.6-3.6,1.7-4.9c1.1-1.3,2.5-1.9,4.2-1.9
		c1.8,0,3.2,0.6,4.2,1.7c0.9,1.1,1.4,2.7,1.4,4.6v1.3h-8.8l0,0.1c0,1.4,0.3,2.5,0.9,3.4s1.5,1.3,2.8,1.3c0.9,0,1.6-0.1,2.2-0.4
		c0.6-0.2,1.2-0.6,1.7-1l1,1.6c-0.5,0.5-1.1,0.9-2,1.2C337.2,262.6,336.3,262.8,335.1,262.8z M334.7,250.4c-0.9,0-1.6,0.3-2.2,1
		c-0.6,0.7-0.9,1.5-1.1,2.6l0,0.1h6.2v-0.2c0-1-0.2-1.8-0.7-2.5C336.5,250.8,335.7,250.4,334.7,250.4z"/>
	<path class="st2" d="M349.6,250.9l-1.3-0.1c-0.7,0-1.2,0.2-1.7,0.5c-0.5,0.3-0.8,0.8-1.1,1.3v9.9h-2.5v-13.8h2.2l0.2,2
		c0.4-0.7,0.9-1.3,1.4-1.7c0.6-0.4,1.2-0.6,2-0.6c0.2,0,0.4,0,0.5,0c0.2,0,0.3,0.1,0.4,0.1L349.6,250.9z"/>
	<path class="st2" d="M361.4,245.2h-2.5v-2.6h2.5V245.2z M361.4,262.5h-2.5v-13.8h2.5V262.5z"/>
	<path class="st2" d="M368.8,245.4v3.3h2.6v1.9h-2.6v8.4c0,0.6,0.1,1.1,0.4,1.4c0.3,0.3,0.6,0.4,1.1,0.4c0.1,0,0.3,0,0.5-0.1
		c0.2,0,0.3-0.1,0.4-0.1l0.3,1.7c-0.2,0.2-0.5,0.3-0.8,0.4c-0.4,0.1-0.7,0.1-1.1,0.1c-1,0-1.8-0.3-2.4-0.9c-0.6-0.6-0.9-1.6-0.9-2.9
		v-8.4h-2.2v-1.9h2.2v-3.3H368.8z"/>
	<path class="st2" d="M137.2,285.5c0-2,0.6-3.7,1.7-5c1.1-1.3,2.6-2,4.5-2c1.9,0,3.4,0.7,4.5,2c1.1,1.3,1.7,3,1.7,5.1v0.3
		c0,2.1-0.6,3.7-1.7,5.1s-2.6,2-4.5,2s-3.4-0.7-4.5-2c-1.1-1.3-1.7-3-1.7-5V285.5z M139.7,285.8c0,1.5,0.3,2.7,0.9,3.6
		c0.6,1,1.5,1.4,2.7,1.4c1.2,0,2.1-0.5,2.7-1.4c0.6-1,0.9-2.2,0.9-3.6v-0.3c0-1.4-0.3-2.6-0.9-3.6s-1.5-1.4-2.7-1.4
		c-1.2,0-2.1,0.5-2.7,1.4c-0.6,1-0.9,2.2-0.9,3.6V285.8z"/>
	<path class="st2" d="M158.1,290.8c0.8,0,1.4-0.3,2-0.8c0.6-0.5,0.9-1.1,0.9-1.9h2.3l0,0.1c0,1.2-0.5,2.2-1.5,3.2
		c-1.1,0.9-2.3,1.4-3.7,1.4c-1.9,0-3.4-0.7-4.5-2s-1.6-3-1.6-4.9v-0.5c0-1.9,0.5-3.6,1.6-4.9c1.1-1.3,2.6-2,4.5-2
		c1.5,0,2.8,0.5,3.8,1.4c1,1,1.5,2.1,1.4,3.5l0,0.1H161c0-0.8-0.3-1.6-0.8-2.1c-0.5-0.6-1.2-0.9-2.1-0.9c-1.2,0-2.1,0.5-2.7,1.4
		c-0.6,1-0.8,2.1-0.8,3.5v0.5c0,1.4,0.3,2.6,0.8,3.5S156.9,290.8,158.1,290.8z"/>
	<path class="st2" d="M171.8,290.8c0.8,0,1.4-0.3,2-0.8c0.6-0.5,0.9-1.1,0.9-1.9h2.3l0,0.1c0,1.2-0.5,2.2-1.5,3.2
		c-1.1,0.9-2.3,1.4-3.7,1.4c-1.9,0-3.4-0.7-4.5-2s-1.6-3-1.6-4.9v-0.5c0-1.9,0.5-3.6,1.6-4.9c1.1-1.3,2.6-2,4.5-2
		c1.5,0,2.8,0.5,3.8,1.4c1,1,1.5,2.1,1.4,3.5l0,0.1h-2.3c0-0.8-0.3-1.6-0.8-2.1c-0.5-0.6-1.2-0.9-2.1-0.9c-1.2,0-2.1,0.5-2.7,1.4
		c-0.6,1-0.8,2.1-0.8,3.5v0.5c0,1.4,0.3,2.6,0.8,3.5S170.6,290.8,171.8,290.8z"/>
	<path class="st2" d="M188.8,290.5c-0.4,0.7-1,1.3-1.7,1.7c-0.7,0.4-1.5,0.6-2.4,0.6c-1.5,0-2.7-0.5-3.5-1.4s-1.3-2.5-1.3-4.5v-8.1
		h2.5v8.2c0,1.5,0.2,2.5,0.7,3c0.4,0.6,1.1,0.8,2,0.8c0.9,0,1.6-0.2,2.2-0.5c0.6-0.4,1-0.9,1.3-1.5v-9.9h2.5v13.8h-2.3L188.8,290.5z
		"/>
	<path class="st2" d="M201.4,281l-1.3-0.1c-0.7,0-1.2,0.2-1.7,0.5c-0.5,0.3-0.8,0.8-1.1,1.3v9.9h-2.5v-13.8h2.2l0.2,2
		c0.4-0.7,0.9-1.3,1.4-1.7c0.6-0.4,1.2-0.6,2-0.6c0.2,0,0.4,0,0.5,0c0.2,0,0.3,0.1,0.4,0.1L201.4,281z"/>
	<path class="st2" d="M212,288.8c0-0.6-0.2-1-0.6-1.4s-1.2-0.7-2.4-0.9c-1.6-0.3-2.9-0.8-3.7-1.5c-0.9-0.6-1.3-1.5-1.3-2.5
		c0-1.1,0.5-2.1,1.4-2.9c1-0.8,2.2-1.2,3.7-1.2c1.6,0,2.8,0.4,3.8,1.3c1,0.8,1.4,1.8,1.4,3l0,0.1h-2.4c0-0.6-0.3-1.1-0.8-1.6
		c-0.5-0.5-1.2-0.7-2-0.7c-0.9,0-1.5,0.2-2,0.6c-0.4,0.4-0.7,0.9-0.7,1.4c0,0.5,0.2,1,0.6,1.3c0.4,0.3,1.2,0.6,2.3,0.8
		c1.7,0.4,3,0.9,3.9,1.5c0.9,0.7,1.3,1.5,1.3,2.6c0,1.2-0.5,2.2-1.5,3c-1,0.8-2.3,1.2-3.9,1.2c-1.8,0-3.1-0.4-4.2-1.3
		c-1-0.9-1.5-1.9-1.4-3.1l0-0.1h2.4c0,0.9,0.4,1.5,1,2c0.6,0.4,1.3,0.6,2.2,0.6c0.9,0,1.6-0.2,2.1-0.6
		C211.8,289.9,212,289.4,212,288.8z"/>
	<path class="st2" d="M220.4,292.5h-2.5V290h2.5V292.5z"/>
	<path class="st2" d="M244.5,276h-6.1v16.6h-2.5V276h-6v-2h14.7V276z"/>
	<path class="st2" d="M249.3,280.6c0.5-0.7,1.1-1.2,1.8-1.5c0.7-0.4,1.5-0.6,2.3-0.6c1.5,0,2.6,0.4,3.4,1.3c0.8,0.9,1.2,2.2,1.2,4.1
		v8.6h-2.5v-8.7c0-1.1-0.2-2-0.7-2.5c-0.5-0.5-1.2-0.8-2.2-0.8c-0.8,0-1.4,0.1-2,0.4c-0.6,0.3-1,0.7-1.3,1.2v10.3h-2.5v-19.9h2.5
		V280.6z"/>
	<path class="st2" d="M267.3,292.8c-2,0-3.5-0.6-4.6-1.9c-1.1-1.3-1.7-2.9-1.7-5v-0.6c0-2,0.6-3.6,1.7-4.9c1.1-1.3,2.5-1.9,4.2-1.9
		c1.8,0,3.2,0.6,4.2,1.7c0.9,1.1,1.4,2.7,1.4,4.6v1.3h-8.8l0,0.1c0,1.4,0.3,2.5,0.9,3.4s1.5,1.3,2.8,1.3c0.9,0,1.6-0.1,2.2-0.4
		c0.6-0.2,1.2-0.6,1.7-1l1,1.6c-0.5,0.5-1.1,0.9-2,1.2C269.4,292.7,268.5,292.8,267.3,292.8z M266.9,280.5c-0.9,0-1.6,0.3-2.2,1
		c-0.6,0.7-0.9,1.5-1.1,2.6l0,0.1h6.2v-0.2c0-1-0.2-1.8-0.7-2.5C268.7,280.8,268,280.5,266.9,280.5z"/>
	<path class="st2" d="M281.3,285.9c0-2.2,0.5-4,1.4-5.4s2.3-2,4-2c0.9,0,1.6,0.2,2.3,0.5c0.7,0.4,1.2,0.9,1.7,1.5l0.3-1.8h2v13.9
		c0,1.8-0.5,3.1-1.5,4.1c-1,0.9-2.5,1.4-4.5,1.4c-0.7,0-1.4-0.1-2.1-0.3s-1.4-0.4-2-0.7l0.4-2c0.5,0.3,1.1,0.5,1.8,0.6
		c0.7,0.2,1.4,0.2,2,0.2c1.2,0,2.1-0.3,2.7-0.8s0.8-1.4,0.8-2.5v-1.6c-0.5,0.6-1,1-1.6,1.3c-0.6,0.3-1.4,0.4-2.2,0.4
		c-1.7,0-3-0.6-3.9-1.8c-0.9-1.2-1.4-2.8-1.4-4.8V285.9z M283.8,286.2c0,1.4,0.3,2.5,0.9,3.3c0.6,0.8,1.4,1.3,2.6,1.3
		c0.8,0,1.4-0.2,1.9-0.5c0.5-0.3,0.9-0.8,1.3-1.5v-6.4c-0.3-0.6-0.7-1.1-1.3-1.4c-0.5-0.3-1.1-0.5-1.9-0.5c-1.2,0-2.1,0.5-2.7,1.5
		c-0.6,1-0.9,2.3-0.9,3.9V286.2z"/>
	<path class="st2" d="M296,285.5c0-2,0.6-3.7,1.7-5c1.1-1.3,2.6-2,4.5-2c1.9,0,3.4,0.7,4.5,2s1.7,3,1.7,5.1v0.3
		c0,2.1-0.6,3.7-1.7,5.1s-2.6,2-4.5,2c-1.9,0-3.4-0.7-4.5-2c-1.1-1.3-1.7-3-1.7-5V285.5z M298.5,285.8c0,1.5,0.3,2.7,0.9,3.6
		s1.5,1.4,2.7,1.4c1.2,0,2.1-0.5,2.7-1.4c0.6-1,0.9-2.2,0.9-3.6v-0.3c0-1.4-0.3-2.6-0.9-3.6s-1.5-1.4-2.7-1.4
		c-1.2,0-2.1,0.5-2.7,1.4s-0.9,2.2-0.9,3.6V285.8z"/>
	<path class="st2" d="M319.9,292.5c-0.1-0.4-0.2-0.8-0.2-1.1c0-0.3-0.1-0.6-0.1-1c-0.5,0.7-1.1,1.2-1.8,1.7
		c-0.8,0.4-1.6,0.7-2.4,0.7c-1.4,0-2.5-0.4-3.3-1.1c-0.8-0.7-1.1-1.7-1.1-3c0-1.3,0.5-2.3,1.6-3.1c1.1-0.7,2.5-1.1,4.3-1.1h2.7v-1.4
		c0-0.8-0.2-1.4-0.7-1.9s-1.2-0.7-2.1-0.7c-0.8,0-1.5,0.2-2,0.6s-0.8,0.9-0.8,1.5l-2.4,0l0-0.1c-0.1-1,0.4-1.9,1.4-2.8
		c1-0.8,2.3-1.2,3.9-1.2c1.6,0,2.8,0.4,3.8,1.2c1,0.8,1.4,1.9,1.4,3.4v6.6c0,0.5,0,1,0.1,1.4c0.1,0.5,0.1,0.9,0.3,1.4H319.9z
		 M315.8,290.7c0.9,0,1.7-0.2,2.5-0.7s1.2-1,1.4-1.6v-2.2h-2.8c-1,0-1.8,0.3-2.4,0.8c-0.6,0.5-0.9,1.1-0.9,1.8
		c0,0.6,0.2,1.1,0.6,1.5C314.5,290.5,315,290.7,315.8,290.7z"/>
	<path class="st2" d="M328.5,292.5H326v-19.9h2.5V292.5z"/>
	<path class="st2" d="M338.3,285.5c0-2,0.6-3.7,1.7-5c1.1-1.3,2.6-2,4.5-2c1.9,0,3.4,0.7,4.5,2s1.7,3,1.7,5.1v0.3
		c0,2.1-0.6,3.7-1.7,5.1s-2.6,2-4.5,2c-1.9,0-3.4-0.7-4.5-2c-1.1-1.3-1.7-3-1.7-5V285.5z M340.8,285.8c0,1.5,0.3,2.7,0.9,3.6
		s1.5,1.4,2.7,1.4c1.2,0,2.1-0.5,2.7-1.4c0.6-1,0.9-2.2,0.9-3.6v-0.3c0-1.4-0.3-2.6-0.9-3.6s-1.5-1.4-2.7-1.4
		c-1.2,0-2.1,0.5-2.7,1.4s-0.9,2.2-0.9,3.6V285.8z"/>
	<path class="st2" d="M354.8,292.5v-11.9h-2.2v-1.9h2.2V277c0-1.5,0.4-2.6,1.2-3.4s1.8-1.2,3.2-1.2c0.3,0,0.6,0,0.9,0.1
		c0.3,0,0.6,0.1,1,0.2l-0.3,1.9c-0.2,0-0.3-0.1-0.6-0.1s-0.4,0-0.7,0c-0.7,0-1.3,0.2-1.6,0.7c-0.4,0.4-0.5,1.1-0.5,1.9v1.7h2.5v1.9
		h-2.5v11.9H354.8z"/>
	<path class="st2" d="M106.1,310.6c0.5-0.7,1.1-1.2,1.8-1.5c0.7-0.4,1.5-0.6,2.3-0.6c1.5,0,2.6,0.4,3.4,1.3c0.8,0.9,1.2,2.2,1.2,4.1
		v8.6h-2.5v-8.7c0-1.1-0.2-2-0.7-2.5c-0.5-0.5-1.2-0.8-2.2-0.8c-0.7,0-1.4,0.1-2,0.4c-0.6,0.3-1,0.7-1.3,1.2v10.3h-2.5v-19.9h2.5
		V310.6z"/>
	<path class="st2" d="M127.2,320.5c-0.4,0.7-1,1.3-1.7,1.7c-0.7,0.4-1.5,0.6-2.4,0.6c-1.5,0-2.7-0.5-3.5-1.4s-1.3-2.5-1.3-4.5v-8.1
		h2.5v8.2c0,1.5,0.2,2.5,0.7,3c0.4,0.6,1.1,0.8,2,0.8c0.9,0,1.6-0.2,2.2-0.5c0.6-0.4,1-0.9,1.3-1.5v-9.9h2.5v13.8h-2.3L127.2,320.5z
		"/>
	<path class="st2" d="M135.6,308.8l0.2,1.8c0.5-0.7,1-1.2,1.7-1.5c0.7-0.4,1.5-0.5,2.4-0.5c0.9,0,1.7,0.2,2.4,0.6
		c0.7,0.4,1.2,1.1,1.5,1.9c0.4-0.8,1-1.4,1.7-1.9s1.5-0.7,2.5-0.7c1.4,0,2.5,0.5,3.3,1.4s1.2,2.4,1.2,4.4v8.3H150v-8.3
		c0-1.4-0.2-2.3-0.7-2.9s-1.2-0.8-2.1-0.8c-0.9,0-1.6,0.3-2.1,0.9c-0.5,0.6-0.8,1.3-0.9,2.3v0.1v8.8h-2.5v-8.3
		c0-1.3-0.2-2.2-0.7-2.8c-0.5-0.6-1.2-0.9-2.1-0.9c-0.8,0-1.4,0.2-1.9,0.5c-0.5,0.3-0.9,0.8-1.1,1.3v10.2h-2.5v-13.8H135.6z"/>
	<path class="st2" d="M164.6,322.6c-0.1-0.4-0.2-0.8-0.2-1.1c0-0.3-0.1-0.6-0.1-1c-0.5,0.7-1.1,1.2-1.8,1.7
		c-0.8,0.4-1.6,0.7-2.4,0.7c-1.4,0-2.5-0.4-3.3-1.1c-0.8-0.7-1.1-1.7-1.1-3c0-1.3,0.5-2.3,1.6-3.1c1.1-0.7,2.5-1.1,4.3-1.1h2.7v-1.4
		c0-0.8-0.2-1.4-0.7-1.9s-1.2-0.7-2.1-0.7c-0.8,0-1.5,0.2-2,0.6s-0.8,0.9-0.8,1.5l-2.4,0l0-0.1c-0.1-1,0.4-1.9,1.4-2.8
		c1-0.8,2.3-1.2,3.9-1.2c1.6,0,2.8,0.4,3.8,1.2c1,0.8,1.4,1.9,1.4,3.4v6.6c0,0.5,0,1,0.1,1.4c0.1,0.5,0.1,0.9,0.3,1.4H164.6z
		 M160.5,320.8c0.9,0,1.7-0.2,2.5-0.7c0.7-0.5,1.2-1,1.4-1.6v-2.2h-2.8c-1,0-1.8,0.3-2.4,0.8c-0.6,0.5-0.9,1.1-0.9,1.8
		c0,0.6,0.2,1.1,0.6,1.5C159.2,320.6,159.7,320.8,160.5,320.8z"/>
	<path class="st2" d="M172.8,308.8l0.2,2.1c0.5-0.7,1-1.3,1.7-1.7c0.7-0.4,1.5-0.6,2.4-0.6c1.5,0,2.6,0.4,3.5,1.3
		c0.8,0.9,1.2,2.2,1.2,4v8.7h-2.5v-8.7c0-1.2-0.2-2.1-0.7-2.6c-0.5-0.5-1.2-0.8-2.2-0.8c-0.8,0-1.4,0.2-2,0.5s-1,0.7-1.3,1.3v10.2
		h-2.5v-13.8H172.8z"/>
	<path class="st2" d="M188.1,305.3h-2.5v-2.6h2.5V305.3z M188.1,322.6h-2.5v-13.8h2.5V322.6z"/>
	<path class="st2" d="M195.4,305.5v3.3h2.6v1.9h-2.6v8.4c0,0.6,0.1,1.1,0.4,1.4c0.3,0.3,0.6,0.4,1.1,0.4c0.1,0,0.3,0,0.5-0.1
		c0.2,0,0.3-0.1,0.4-0.1l0.3,1.7c-0.2,0.2-0.5,0.3-0.8,0.4c-0.4,0.1-0.7,0.1-1.1,0.1c-1,0-1.8-0.3-2.4-0.9c-0.6-0.6-0.9-1.6-0.9-2.9
		v-8.4h-2.2v-1.9h2.2v-3.3H195.4z"/>
	<path class="st2" d="M209.2,322.6c-0.1-0.4-0.2-0.8-0.2-1.1c0-0.3-0.1-0.6-0.1-1c-0.5,0.7-1.1,1.2-1.8,1.7
		c-0.8,0.4-1.6,0.7-2.4,0.7c-1.4,0-2.5-0.4-3.3-1.1c-0.8-0.7-1.1-1.7-1.1-3c0-1.3,0.5-2.3,1.6-3.1c1.1-0.7,2.5-1.1,4.3-1.1h2.7v-1.4
		c0-0.8-0.2-1.4-0.7-1.9s-1.2-0.7-2.1-0.7c-0.8,0-1.5,0.2-2,0.6s-0.8,0.9-0.8,1.5l-2.4,0l0-0.1c-0.1-1,0.4-1.9,1.4-2.8
		c1-0.8,2.3-1.2,3.9-1.2c1.6,0,2.8,0.4,3.8,1.2c1,0.8,1.4,1.9,1.4,3.4v6.6c0,0.5,0,1,0.1,1.4c0.1,0.5,0.1,0.9,0.3,1.4H209.2z
		 M205.1,320.8c0.9,0,1.7-0.2,2.5-0.7c0.7-0.5,1.2-1,1.4-1.6v-2.2h-2.8c-1,0-1.8,0.3-2.4,0.8c-0.6,0.5-0.9,1.1-0.9,1.8
		c0,0.6,0.2,1.1,0.6,1.5C203.7,320.6,204.3,320.8,205.1,320.8z"/>
	<path class="st2" d="M221.6,311l-1.3-0.1c-0.7,0-1.2,0.2-1.7,0.5c-0.5,0.3-0.8,0.8-1.1,1.3v9.9h-2.5v-13.8h2.2l0.2,2
		c0.4-0.7,0.9-1.3,1.4-1.7c0.6-0.4,1.2-0.6,2-0.6c0.2,0,0.4,0,0.5,0c0.2,0,0.3,0.1,0.4,0.1L221.6,311z"/>
	<path class="st2" d="M227,305.3h-2.5v-2.6h2.5V305.3z M227,322.6h-2.5v-13.8h2.5V322.6z"/>
	<path class="st2" d="M239.3,322.6c-0.1-0.4-0.2-0.8-0.2-1.1c0-0.3-0.1-0.6-0.1-1c-0.5,0.7-1.1,1.2-1.8,1.7
		c-0.8,0.4-1.6,0.7-2.4,0.7c-1.4,0-2.5-0.4-3.3-1.1c-0.8-0.7-1.1-1.7-1.1-3c0-1.3,0.5-2.3,1.6-3.1c1.1-0.7,2.5-1.1,4.3-1.1h2.7v-1.4
		c0-0.8-0.2-1.4-0.7-1.9s-1.2-0.7-2.1-0.7c-0.8,0-1.5,0.2-2,0.6s-0.8,0.9-0.8,1.5l-2.4,0l0-0.1c-0.1-1,0.4-1.9,1.4-2.8
		c1-0.8,2.3-1.2,3.9-1.2c1.6,0,2.8,0.4,3.8,1.2c1,0.8,1.4,1.9,1.4,3.4v6.6c0,0.5,0,1,0.1,1.4c0.1,0.5,0.1,0.9,0.3,1.4H239.3z
		 M235.1,320.8c0.9,0,1.7-0.2,2.5-0.7c0.7-0.5,1.2-1,1.4-1.6v-2.2h-2.8c-1,0-1.8,0.3-2.4,0.8c-0.6,0.5-0.9,1.1-0.9,1.8
		c0,0.6,0.2,1.1,0.6,1.5C233.8,320.6,234.4,320.8,235.1,320.8z"/>
	<path class="st2" d="M247.4,308.8l0.2,2.1c0.5-0.7,1-1.3,1.7-1.7c0.7-0.4,1.5-0.6,2.4-0.6c1.5,0,2.6,0.4,3.5,1.3
		c0.8,0.9,1.2,2.2,1.2,4v8.7h-2.5v-8.7c0-1.2-0.2-2.1-0.7-2.6c-0.5-0.5-1.2-0.8-2.2-0.8c-0.8,0-1.4,0.2-2,0.5
		c-0.5,0.3-1,0.7-1.3,1.3v10.2h-2.5v-13.8H247.4z"/>
	<path class="st2" d="M275,322.6c-0.1-0.4-0.2-0.8-0.2-1.1c0-0.3-0.1-0.6-0.1-1c-0.5,0.7-1.1,1.2-1.8,1.7c-0.8,0.4-1.6,0.7-2.4,0.7
		c-1.4,0-2.5-0.4-3.3-1.1c-0.8-0.7-1.1-1.7-1.1-3c0-1.3,0.5-2.3,1.6-3.1c1.1-0.7,2.5-1.1,4.3-1.1h2.7v-1.4c0-0.8-0.2-1.4-0.7-1.9
		s-1.2-0.7-2.1-0.7c-0.8,0-1.5,0.2-2,0.6s-0.8,0.9-0.8,1.5l-2.4,0l0-0.1c-0.1-1,0.4-1.9,1.4-2.8c1-0.8,2.3-1.2,3.9-1.2
		c1.6,0,2.8,0.4,3.8,1.2c1,0.8,1.4,1.9,1.4,3.4v6.6c0,0.5,0,1,0.1,1.4c0.1,0.5,0.1,0.9,0.3,1.4H275z M270.8,320.8
		c0.9,0,1.7-0.2,2.5-0.7s1.2-1,1.4-1.6v-2.2h-2.8c-1,0-1.8,0.3-2.4,0.8c-0.6,0.5-0.9,1.1-0.9,1.8c0,0.6,0.2,1.1,0.6,1.5
		C269.5,320.6,270.1,320.8,270.8,320.8z"/>
	<path class="st2" d="M286.4,320.9c0.8,0,1.5-0.3,2-0.8s0.9-1.1,0.9-1.9h2.3l0,0.1c0,1.2-0.5,2.2-1.5,3.2c-1.1,0.9-2.3,1.4-3.7,1.4
		c-1.9,0-3.4-0.7-4.5-2c-1.1-1.3-1.6-3-1.6-4.9v-0.5c0-1.9,0.5-3.6,1.6-4.9c1.1-1.3,2.6-2,4.5-2c1.5,0,2.8,0.5,3.8,1.4
		c1,1,1.5,2.1,1.4,3.5l0,0.1h-2.3c0-0.8-0.3-1.6-0.8-2.1c-0.5-0.6-1.2-0.9-2.1-0.9c-1.2,0-2.1,0.5-2.7,1.4c-0.6,1-0.8,2.1-0.8,3.5
		v0.5c0,1.4,0.3,2.6,0.8,3.5C284.2,320.4,285.1,320.9,286.4,320.9z"/>
	<path class="st2" d="M298.1,305.5v3.3h2.6v1.9h-2.6v8.4c0,0.6,0.1,1.1,0.4,1.4c0.3,0.3,0.6,0.4,1.1,0.4c0.1,0,0.3,0,0.5-0.1
		c0.2,0,0.3-0.1,0.4-0.1l0.3,1.7c-0.2,0.2-0.5,0.3-0.8,0.4c-0.4,0.1-0.7,0.1-1.1,0.1c-1,0-1.8-0.3-2.4-0.9c-0.6-0.6-0.9-1.6-0.9-2.9
		v-8.4h-2.2v-1.9h2.2v-3.3H298.1z"/>
	<path class="st2" d="M306.1,305.3h-2.5v-2.6h2.5V305.3z M306.1,322.6h-2.5v-13.8h2.5V322.6z"/>
	<path class="st2" d="M309.4,315.6c0-2,0.6-3.7,1.7-5c1.1-1.3,2.6-2,4.5-2c1.9,0,3.4,0.7,4.5,2s1.7,3,1.7,5.1v0.3
		c0,2.1-0.6,3.7-1.7,5.1s-2.6,2-4.5,2c-1.9,0-3.4-0.7-4.5-2c-1.1-1.3-1.7-3-1.7-5V315.6z M311.9,315.8c0,1.5,0.3,2.7,0.9,3.6
		s1.5,1.4,2.7,1.4c1.2,0,2.1-0.5,2.7-1.4c0.6-1,0.9-2.2,0.9-3.6v-0.3c0-1.4-0.3-2.6-0.9-3.6s-1.5-1.4-2.7-1.4
		c-1.2,0-2.1,0.5-2.7,1.4s-0.9,2.2-0.9,3.6V315.8z"/>
	<path class="st2" d="M327,308.8l0.2,2.1c0.5-0.7,1-1.3,1.7-1.7c0.7-0.4,1.5-0.6,2.4-0.6c1.5,0,2.6,0.4,3.5,1.3
		c0.8,0.9,1.2,2.2,1.2,4v8.7h-2.5v-8.7c0-1.2-0.2-2.1-0.7-2.6c-0.5-0.5-1.2-0.8-2.2-0.8c-0.8,0-1.4,0.2-2,0.5
		c-0.5,0.3-1,0.7-1.3,1.3v10.2h-2.5v-13.8H327z"/>
	<path class="st2" d="M348.9,305.3h-2.5v-2.6h2.5V305.3z M348.9,322.6h-2.5v-13.8h2.5V322.6z"/>
	<path class="st2" d="M360.7,318.9c0-0.6-0.2-1-0.6-1.4s-1.2-0.7-2.4-0.9c-1.6-0.3-2.9-0.8-3.7-1.5c-0.9-0.6-1.3-1.5-1.3-2.5
		c0-1.1,0.5-2.1,1.4-2.9c1-0.8,2.2-1.2,3.7-1.2c1.6,0,2.8,0.4,3.8,1.3c1,0.8,1.4,1.8,1.4,3l0,0.1h-2.4c0-0.6-0.3-1.1-0.8-1.6
		c-0.5-0.5-1.2-0.7-2-0.7c-0.9,0-1.5,0.2-2,0.6c-0.4,0.4-0.7,0.9-0.7,1.4c0,0.5,0.2,1,0.6,1.3c0.4,0.3,1.2,0.6,2.3,0.8
		c1.7,0.4,3,0.9,3.9,1.5c0.9,0.7,1.3,1.5,1.3,2.6c0,1.2-0.5,2.2-1.5,3c-1,0.8-2.3,1.2-3.9,1.2c-1.8,0-3.1-0.4-4.2-1.3
		c-1-0.9-1.5-1.9-1.4-3.1l0-0.1h2.4c0,0.9,0.4,1.5,1,2c0.6,0.4,1.3,0.6,2.2,0.6c0.9,0,1.6-0.2,2.1-0.6
		C360.5,319.9,360.7,319.5,360.7,318.9z"/>
	<path class="st2" d="M376.4,305.5v3.3h2.6v1.9h-2.6v8.4c0,0.6,0.1,1.1,0.4,1.4c0.3,0.3,0.6,0.4,1.1,0.4c0.1,0,0.3,0,0.5-0.1
		c0.2,0,0.3-0.1,0.4-0.1l0.3,1.7c-0.2,0.2-0.5,0.3-0.8,0.4c-0.4,0.1-0.7,0.1-1.1,0.1c-1,0-1.8-0.3-2.4-0.9c-0.6-0.6-0.9-1.6-0.9-2.9
		v-8.4h-2.2v-1.9h2.2v-3.3H376.4z"/>
	<path class="st2" d="M381.1,315.6c0-2,0.6-3.7,1.7-5c1.1-1.3,2.6-2,4.5-2c1.9,0,3.4,0.7,4.5,2s1.7,3,1.7,5.1v0.3
		c0,2.1-0.6,3.7-1.7,5.1s-2.6,2-4.5,2c-1.9,0-3.4-0.7-4.5-2c-1.1-1.3-1.7-3-1.7-5V315.6z M383.6,315.8c0,1.5,0.3,2.7,0.9,3.6
		s1.5,1.4,2.7,1.4c1.2,0,2.1-0.5,2.7-1.4c0.6-1,0.9-2.2,0.9-3.6v-0.3c0-1.4-0.3-2.6-0.9-3.6s-1.5-1.4-2.7-1.4
		c-1.2,0-2.1,0.5-2.7,1.4s-0.9,2.2-0.9,3.6V315.8z"/>
	<path class="st2" d="M99.9,346.2c0,2-0.5,3.6-1.4,4.8c-1,1.2-2.3,1.8-3.9,1.8c-0.9,0-1.6-0.1-2.2-0.4c-0.6-0.3-1.2-0.7-1.6-1.3v6.7
		h-2.5v-19.1h1.9l0.4,1.8c0.5-0.7,1-1.2,1.7-1.5s1.5-0.5,2.3-0.5c1.7,0,3,0.7,4,2s1.4,3.1,1.4,5.4V346.2z M97.4,346
		c0-1.6-0.3-2.9-0.9-3.9c-0.6-1-1.5-1.5-2.7-1.5c-0.7,0-1.3,0.2-1.8,0.5s-0.9,0.8-1.2,1.3v6.7c0.3,0.6,0.7,1,1.2,1.3
		c0.5,0.3,1.1,0.5,1.9,0.5c1.2,0,2.1-0.4,2.7-1.3c0.6-0.9,0.9-2,0.9-3.4V346z"/>
	<path class="st2" d="M109.5,341l-1.3-0.1c-0.7,0-1.2,0.2-1.7,0.5c-0.5,0.3-0.8,0.8-1.1,1.3v9.9H103v-13.8h2.2l0.2,2
		c0.4-0.7,0.9-1.3,1.4-1.7c0.6-0.4,1.2-0.6,2-0.6c0.2,0,0.4,0,0.5,0c0.2,0,0.3,0.1,0.4,0.1L109.5,341z"/>
	<path class="st2" d="M111.6,345.6c0-2,0.6-3.7,1.7-5c1.1-1.3,2.6-2,4.5-2c1.9,0,3.4,0.7,4.5,2c1.1,1.3,1.7,3,1.7,5.1v0.3
		c0,2.1-0.6,3.7-1.7,5.1s-2.6,2-4.5,2s-3.4-0.7-4.5-2c-1.1-1.3-1.7-3-1.7-5V345.6z M114.1,345.9c0,1.5,0.3,2.7,0.9,3.6
		c0.6,1,1.5,1.4,2.7,1.4c1.2,0,2.1-0.5,2.7-1.4c0.6-1,0.9-2.2,0.9-3.6v-0.3c0-1.4-0.3-2.6-0.9-3.6s-1.5-1.4-2.7-1.4
		c-1.2,0-2.1,0.5-2.7,1.4c-0.6,1-0.9,2.2-0.9,3.6V345.9z"/>
	<path class="st2" d="M130.5,335.5v3.3h2.6v1.9h-2.6v8.4c0,0.6,0.1,1.1,0.4,1.4c0.3,0.3,0.6,0.4,1.1,0.4c0.1,0,0.3,0,0.5-0.1
		c0.2,0,0.3-0.1,0.4-0.1l0.3,1.7c-0.2,0.2-0.5,0.3-0.8,0.4c-0.4,0.1-0.7,0.1-1.1,0.1c-1,0-1.8-0.3-2.4-0.9c-0.6-0.6-0.9-1.6-0.9-2.9
		v-8.4h-2.2v-1.9h2.2v-3.3H130.5z"/>
	<path class="st2" d="M141.5,352.9c-2,0-3.5-0.6-4.6-1.9c-1.1-1.3-1.7-2.9-1.7-5v-0.6c0-2,0.6-3.6,1.7-4.9s2.5-1.9,4.2-1.9
		c1.8,0,3.2,0.6,4.2,1.7c0.9,1.1,1.4,2.7,1.4,4.6v1.3h-8.8l0,0.1c0,1.4,0.3,2.5,0.9,3.4c0.6,0.9,1.5,1.3,2.8,1.3
		c0.9,0,1.6-0.1,2.2-0.4c0.6-0.2,1.2-0.6,1.7-1l1,1.6c-0.5,0.5-1.1,0.9-2,1.2C143.6,352.7,142.7,352.9,141.5,352.9z M141.1,340.5
		c-0.9,0-1.6,0.3-2.2,1c-0.6,0.7-0.9,1.5-1.1,2.6l0,0.1h6.2V344c0-1-0.2-1.8-0.7-2.5C142.9,340.9,142.2,340.5,141.1,340.5z"/>
	<path class="st2" d="M155,350.9c0.8,0,1.4-0.3,2-0.8c0.6-0.5,0.9-1.1,0.9-1.9h2.3l0,0.1c0,1.2-0.5,2.2-1.5,3.2
		c-1.1,0.9-2.3,1.4-3.7,1.4c-1.9,0-3.4-0.7-4.5-2s-1.6-3-1.6-4.9v-0.5c0-1.9,0.5-3.6,1.6-4.9c1.1-1.3,2.6-2,4.5-2
		c1.5,0,2.8,0.5,3.8,1.4c1,1,1.5,2.1,1.4,3.5l0,0.1h-2.3c0-0.8-0.3-1.6-0.8-2.1c-0.5-0.6-1.2-0.9-2.1-0.9c-1.2,0-2.1,0.5-2.7,1.4
		c-0.6,1-0.8,2.1-0.8,3.5v0.5c0,1.4,0.3,2.6,0.8,3.5S153.7,350.9,155,350.9z"/>
	<path class="st2" d="M166.7,335.5v3.3h2.6v1.9h-2.6v8.4c0,0.6,0.1,1.1,0.4,1.4c0.3,0.3,0.6,0.4,1.1,0.4c0.1,0,0.3,0,0.5-0.1
		c0.2,0,0.3-0.1,0.4-0.1l0.3,1.7c-0.2,0.2-0.5,0.3-0.8,0.4c-0.4,0.1-0.7,0.1-1.1,0.1c-1,0-1.8-0.3-2.4-0.9c-0.6-0.6-0.9-1.6-0.9-2.9
		v-8.4h-2.2v-1.9h2.2v-3.3H166.7z"/>
	<path class="st2" d="M181.2,352.6h-2.5v-19.9h2.5V352.6z"/>
	<path class="st2" d="M187.7,335.3h-2.5v-2.6h2.5V335.3z M187.7,352.6h-2.5v-13.8h2.5V352.6z"/>
	<path class="st2" d="M192.7,352.6v-11.9h-2.2v-1.9h2.2v-1.7c0-1.5,0.4-2.6,1.2-3.4c0.8-0.8,1.8-1.2,3.2-1.2c0.3,0,0.6,0,0.9,0.1
		s0.6,0.1,1,0.2l-0.3,1.9c-0.2,0-0.3-0.1-0.6-0.1s-0.4,0-0.7,0c-0.7,0-1.3,0.2-1.6,0.7c-0.4,0.4-0.5,1.1-0.5,1.9v1.7h2.5v1.9h-2.5
		v11.9H192.7z"/>
	<path class="st2" d="M205.9,352.9c-2,0-3.5-0.6-4.6-1.9c-1.1-1.3-1.7-2.9-1.7-5v-0.6c0-2,0.6-3.6,1.7-4.9s2.5-1.9,4.2-1.9
		c1.8,0,3.2,0.6,4.2,1.7c0.9,1.1,1.4,2.7,1.4,4.6v1.3h-8.8l0,0.1c0,1.4,0.3,2.5,0.9,3.4c0.6,0.9,1.5,1.3,2.8,1.3
		c0.9,0,1.6-0.1,2.2-0.4c0.6-0.2,1.2-0.6,1.7-1l1,1.6c-0.5,0.5-1.1,0.9-2,1.2C208,352.7,207.1,352.9,205.9,352.9z M205.5,340.5
		c-0.9,0-1.6,0.3-2.2,1c-0.6,0.7-0.9,1.5-1.1,2.6l0,0.1h6.2V344c0-1-0.2-1.8-0.7-2.5C207.3,340.9,206.6,340.5,205.5,340.5z"/>
	<path class="st2" d="M228.9,352.6c-0.1-0.4-0.2-0.8-0.2-1.1c0-0.3-0.1-0.6-0.1-1c-0.5,0.7-1.1,1.2-1.8,1.7
		c-0.8,0.4-1.6,0.7-2.4,0.7c-1.4,0-2.5-0.4-3.3-1.1c-0.8-0.7-1.1-1.7-1.1-3c0-1.3,0.5-2.3,1.6-3.1c1.1-0.7,2.5-1.1,4.3-1.1h2.7v-1.4
		c0-0.8-0.2-1.4-0.7-1.9s-1.2-0.7-2.1-0.7c-0.8,0-1.5,0.2-2,0.6s-0.8,0.9-0.8,1.5l-2.4,0l0-0.1c-0.1-1,0.4-1.9,1.4-2.8
		c1-0.8,2.3-1.2,3.9-1.2c1.6,0,2.8,0.4,3.8,1.2c1,0.8,1.4,1.9,1.4,3.4v6.6c0,0.5,0,1,0.1,1.4c0.1,0.5,0.1,0.9,0.3,1.4H228.9z
		 M224.7,350.8c0.9,0,1.7-0.2,2.5-0.7c0.7-0.5,1.2-1,1.4-1.6v-2.2h-2.8c-1,0-1.8,0.3-2.4,0.8c-0.6,0.5-0.9,1.1-0.9,1.8
		c0,0.6,0.2,1.1,0.6,1.5C223.4,350.6,223.9,350.8,224.7,350.8z"/>
	<path class="st2" d="M237,338.8l0.2,2.1c0.5-0.7,1-1.3,1.7-1.7c0.7-0.4,1.5-0.6,2.4-0.6c1.5,0,2.6,0.4,3.5,1.3
		c0.8,0.9,1.2,2.2,1.2,4v8.7h-2.5V344c0-1.2-0.2-2.1-0.7-2.6c-0.5-0.5-1.2-0.8-2.2-0.8c-0.8,0-1.4,0.2-2,0.5s-1,0.7-1.3,1.3v10.2
		h-2.5v-13.8H237z"/>
	<path class="st2" d="M249,346c0-2.2,0.5-4,1.4-5.4c0.9-1.4,2.3-2,4-2c0.8,0,1.5,0.1,2.2,0.4c0.6,0.3,1.2,0.7,1.6,1.3v-7.6h2.5v19.9
		h-1.9l-0.4-1.7c-0.5,0.7-1,1.2-1.7,1.5c-0.7,0.3-1.4,0.5-2.3,0.5c-1.7,0-3-0.6-4-1.8c-1-1.2-1.4-2.8-1.4-4.8V346z M251.5,346.2
		c0,1.4,0.3,2.5,0.9,3.3c0.6,0.8,1.5,1.3,2.7,1.3c0.7,0,1.4-0.2,1.9-0.5c0.5-0.3,0.9-0.8,1.2-1.4v-6.4c-0.3-0.6-0.7-1-1.3-1.4
		s-1.1-0.5-1.9-0.5c-1.2,0-2.1,0.5-2.7,1.5c-0.6,1-0.9,2.3-0.9,3.9V346.2z"/>
	<path class="st2" d="M273.4,340.7c0.5-0.7,1.1-1.2,1.8-1.5c0.7-0.4,1.5-0.6,2.3-0.6c1.5,0,2.6,0.4,3.4,1.3c0.8,0.9,1.2,2.2,1.2,4.1
		v8.6h-2.5V344c0-1.1-0.2-2-0.7-2.5c-0.5-0.5-1.2-0.8-2.2-0.8c-0.7,0-1.4,0.1-2,0.4c-0.6,0.3-1,0.7-1.3,1.2v10.3h-2.5v-19.9h2.5
		V340.7z"/>
	<path class="st2" d="M291.5,352.9c-2,0-3.5-0.6-4.6-1.9c-1.1-1.3-1.7-2.9-1.7-5v-0.6c0-2,0.6-3.6,1.7-4.9c1.1-1.3,2.5-1.9,4.2-1.9
		c1.8,0,3.2,0.6,4.2,1.7c0.9,1.1,1.4,2.7,1.4,4.6v1.3h-8.8l0,0.1c0,1.4,0.3,2.5,0.9,3.4s1.5,1.3,2.8,1.3c0.9,0,1.6-0.1,2.2-0.4
		c0.6-0.2,1.2-0.6,1.7-1l1,1.6c-0.5,0.5-1.1,0.9-2,1.2C293.6,352.7,292.6,352.9,291.5,352.9z M291.1,340.5c-0.9,0-1.6,0.3-2.2,1
		c-0.6,0.7-0.9,1.5-1.1,2.6l0,0.1h6.2V344c0-1-0.2-1.8-0.7-2.5C292.9,340.9,292.1,340.5,291.1,340.5z"/>
	<path class="st2" d="M307.9,352.6c-0.1-0.4-0.2-0.8-0.2-1.1c0-0.3-0.1-0.6-0.1-1c-0.5,0.7-1.1,1.2-1.8,1.7
		c-0.8,0.4-1.6,0.7-2.4,0.7c-1.4,0-2.5-0.4-3.3-1.1c-0.8-0.7-1.1-1.7-1.1-3c0-1.3,0.5-2.3,1.6-3.1c1.1-0.7,2.5-1.1,4.3-1.1h2.7v-1.4
		c0-0.8-0.2-1.4-0.7-1.9s-1.2-0.7-2.1-0.7c-0.8,0-1.5,0.2-2,0.6s-0.8,0.9-0.8,1.5l-2.4,0l0-0.1c-0.1-1,0.4-1.9,1.4-2.8
		c1-0.8,2.3-1.2,3.9-1.2c1.6,0,2.8,0.4,3.8,1.2c1,0.8,1.4,1.9,1.4,3.4v6.6c0,0.5,0,1,0.1,1.4c0.1,0.5,0.1,0.9,0.3,1.4H307.9z
		 M303.8,350.8c0.9,0,1.7-0.2,2.5-0.7s1.2-1,1.4-1.6v-2.2h-2.8c-1,0-1.8,0.3-2.4,0.8c-0.6,0.5-0.9,1.1-0.9,1.8
		c0,0.6,0.2,1.1,0.6,1.5C302.4,350.6,303,350.8,303.8,350.8z"/>
	<path class="st2" d="M316.5,352.6H314v-19.9h2.5V352.6z"/>
	<path class="st2" d="M323.9,335.5v3.3h2.6v1.9h-2.6v8.4c0,0.6,0.1,1.1,0.4,1.4c0.3,0.3,0.6,0.4,1.1,0.4c0.1,0,0.3,0,0.5-0.1
		c0.2,0,0.3-0.1,0.4-0.1l0.3,1.7c-0.2,0.2-0.5,0.3-0.8,0.4c-0.4,0.1-0.7,0.1-1.1,0.1c-1,0-1.8-0.3-2.4-0.9c-0.6-0.6-0.9-1.6-0.9-2.9
		v-8.4h-2.2v-1.9h2.2v-3.3H323.9z"/>
	<path class="st2" d="M331.7,340.7c0.5-0.7,1.1-1.2,1.8-1.5c0.7-0.4,1.5-0.6,2.3-0.6c1.5,0,2.6,0.4,3.4,1.3c0.8,0.9,1.2,2.2,1.2,4.1
		v8.6h-2.5V344c0-1.1-0.2-2-0.7-2.5c-0.5-0.5-1.2-0.8-2.2-0.8c-0.7,0-1.4,0.1-2,0.4c-0.6,0.3-1,0.7-1.3,1.2v10.3h-2.5v-19.9h2.5
		V340.7z"/>
	<path class="st2" d="M354.1,347.6l0.3,1.8h0.1l0.3-1.8l2.8-8.8h2l2.8,8.8l0.4,2h0.1l0.4-2l2-8.8h2.6l-4,13.8h-2l-2.7-8.4l-0.5-2.2
		h-0.1l-0.5,2.2l-2.7,8.4h-2l-4-13.8h2.6L354.1,347.6z"/>
	<path class="st2" d="M372.8,340.7c0.5-0.7,1.1-1.2,1.8-1.5c0.7-0.4,1.5-0.6,2.3-0.6c1.5,0,2.6,0.4,3.4,1.3c0.8,0.9,1.2,2.2,1.2,4.1
		v8.6H379V344c0-1.1-0.2-2-0.7-2.5c-0.5-0.5-1.2-0.8-2.2-0.8c-0.7,0-1.4,0.1-2,0.4c-0.6,0.3-1,0.7-1.3,1.2v10.3h-2.5v-19.9h2.5
		V340.7z"/>
	<path class="st2" d="M387.9,335.3h-2.5v-2.6h2.5V335.3z M387.9,352.6h-2.5v-13.8h2.5V352.6z"/>
	<path class="st2" d="M394.4,352.6h-2.5v-19.9h2.5V352.6z"/>
	<path class="st2" d="M404,352.9c-2,0-3.5-0.6-4.6-1.9c-1.1-1.3-1.7-2.9-1.7-5v-0.6c0-2,0.6-3.6,1.7-4.9c1.1-1.3,2.5-1.9,4.2-1.9
		c1.8,0,3.2,0.6,4.2,1.7c0.9,1.1,1.4,2.7,1.4,4.6v1.3h-8.8l0,0.1c0,1.4,0.3,2.5,0.9,3.4s1.5,1.3,2.8,1.3c0.9,0,1.6-0.1,2.2-0.4
		c0.6-0.2,1.2-0.6,1.7-1l1,1.6c-0.5,0.5-1.1,0.9-2,1.2C406.1,352.7,405.2,352.9,404,352.9z M403.6,340.5c-0.9,0-1.6,0.3-2.2,1
		c-0.6,0.7-0.9,1.5-1.1,2.6l0,0.1h6.2V344c0-1-0.2-1.8-0.7-2.5C405.4,340.9,404.7,340.5,403.6,340.5z"/>
	<path class="st2" d="M93.9,382.9c-2,0-3.5-0.6-4.6-1.9c-1.1-1.3-1.7-2.9-1.7-5v-0.6c0-2,0.6-3.6,1.7-4.9s2.5-1.9,4.2-1.9
		c1.8,0,3.2,0.6,4.2,1.7c0.9,1.1,1.4,2.7,1.4,4.6v1.3h-8.8l0,0.1c0,1.4,0.3,2.5,0.9,3.4c0.6,0.9,1.5,1.3,2.8,1.3
		c0.9,0,1.6-0.1,2.2-0.4c0.6-0.2,1.2-0.6,1.7-1l1,1.6c-0.5,0.5-1.1,0.9-2,1.2C96,382.8,95.1,382.9,93.9,382.9z M93.5,370.6
		c-0.9,0-1.6,0.3-2.2,1c-0.6,0.7-0.9,1.5-1.1,2.6l0,0.1h6.2v-0.2c0-1-0.2-1.8-0.7-2.5C95.3,370.9,94.6,370.6,93.5,370.6z"/>
	<path class="st2" d="M104.1,368.9l0.2,2.1c0.5-0.7,1-1.3,1.7-1.7c0.7-0.4,1.5-0.6,2.4-0.6c1.5,0,2.6,0.4,3.5,1.3
		c0.8,0.9,1.2,2.2,1.2,4v8.7h-2.5V374c0-1.2-0.2-2.1-0.7-2.6c-0.5-0.5-1.2-0.8-2.2-0.8c-0.8,0-1.4,0.2-2,0.5s-1,0.7-1.3,1.3v10.2
		h-2.5v-13.8H104.1z"/>
	<path class="st2" d="M124.8,379c0-0.6-0.2-1-0.6-1.4s-1.2-0.7-2.4-0.9c-1.6-0.3-2.9-0.8-3.7-1.5c-0.9-0.6-1.3-1.5-1.3-2.5
		c0-1.1,0.5-2.1,1.4-2.9c1-0.8,2.2-1.2,3.7-1.2c1.6,0,2.8,0.4,3.8,1.3c1,0.8,1.4,1.8,1.4,3l0,0.1h-2.4c0-0.6-0.3-1.1-0.8-1.6
		c-0.5-0.5-1.2-0.7-2-0.7c-0.9,0-1.5,0.2-2,0.6c-0.4,0.4-0.7,0.9-0.7,1.4c0,0.5,0.2,1,0.6,1.3c0.4,0.3,1.2,0.6,2.3,0.8
		c1.7,0.4,3,0.9,3.9,1.5c0.9,0.7,1.3,1.5,1.3,2.6c0,1.2-0.5,2.2-1.5,3c-1,0.8-2.3,1.2-3.9,1.2c-1.8,0-3.1-0.4-4.2-1.3
		c-1-0.9-1.5-1.9-1.4-3.1l0-0.1h2.4c0,0.9,0.4,1.5,1,2c0.6,0.4,1.3,0.6,2.2,0.6c0.9,0,1.6-0.2,2.1-0.6
		C124.5,380,124.8,379.5,124.8,379z"/>
	<path class="st2" d="M139.2,380.6c-0.4,0.7-1,1.3-1.7,1.7c-0.7,0.4-1.5,0.6-2.4,0.6c-1.5,0-2.7-0.5-3.5-1.4s-1.3-2.5-1.3-4.5v-8.1
		h2.5v8.2c0,1.5,0.2,2.5,0.7,3c0.4,0.6,1.1,0.8,2,0.8c0.9,0,1.6-0.2,2.2-0.5c0.6-0.4,1-0.9,1.3-1.5v-9.9h2.5v13.8h-2.3L139.2,380.6z
		"/>
	<path class="st2" d="M151.8,371.1l-1.3-0.1c-0.7,0-1.2,0.2-1.7,0.5c-0.5,0.3-0.8,0.8-1.1,1.3v9.9h-2.5v-13.8h2.2l0.2,2
		c0.4-0.7,0.9-1.3,1.4-1.7c0.6-0.4,1.2-0.6,2-0.6c0.2,0,0.4,0,0.5,0c0.2,0,0.3,0.1,0.4,0.1L151.8,371.1z"/>
	<path class="st2" d="M157.1,365.3h-2.5v-2.6h2.5V365.3z M157.1,382.7h-2.5v-13.8h2.5V382.7z"/>
	<path class="st2" d="M163.2,368.9l0.2,2.1c0.5-0.7,1-1.3,1.7-1.7c0.7-0.4,1.5-0.6,2.4-0.6c1.5,0,2.6,0.4,3.5,1.3
		c0.8,0.9,1.2,2.2,1.2,4v8.7h-2.5V374c0-1.2-0.2-2.1-0.7-2.6c-0.5-0.5-1.2-0.8-2.2-0.8c-0.8,0-1.4,0.2-2,0.5s-1,0.7-1.3,1.3v10.2
		H161v-13.8H163.2z"/>
	<path class="st2" d="M175.4,376c0-2.2,0.5-4,1.4-5.4s2.3-2,4-2c0.9,0,1.6,0.2,2.3,0.5c0.7,0.4,1.2,0.9,1.7,1.5l0.3-1.8h2v13.9
		c0,1.8-0.5,3.1-1.5,4.1c-1,0.9-2.5,1.4-4.5,1.4c-0.7,0-1.4-0.1-2.1-0.3s-1.4-0.4-2-0.7l0.4-2c0.5,0.3,1.1,0.5,1.8,0.6
		s1.4,0.2,2,0.2c1.2,0,2.1-0.3,2.7-0.8c0.6-0.6,0.8-1.4,0.8-2.5v-1.6c-0.5,0.6-1,1-1.6,1.3c-0.6,0.3-1.4,0.4-2.2,0.4
		c-1.7,0-3-0.6-3.9-1.8c-0.9-1.2-1.4-2.8-1.4-4.8V376z M177.9,376.3c0,1.4,0.3,2.5,0.9,3.3c0.6,0.8,1.4,1.3,2.6,1.3
		c0.8,0,1.4-0.2,1.9-0.5c0.5-0.3,0.9-0.8,1.3-1.5v-6.4c-0.3-0.6-0.7-1.1-1.3-1.4c-0.5-0.3-1.1-0.5-1.9-0.5c-1.2,0-2.1,0.5-2.7,1.5
		c-0.6,1-0.9,2.3-0.9,3.9V376.3z"/>
	<path class="st2" d="M203.7,371.1l-1.3-0.1c-0.7,0-1.2,0.2-1.7,0.5c-0.5,0.3-0.8,0.8-1.1,1.3v9.9h-2.5v-13.8h2.2l0.2,2
		c0.4-0.7,0.9-1.3,1.4-1.7c0.6-0.4,1.2-0.6,2-0.6c0.2,0,0.4,0,0.5,0c0.2,0,0.3,0.1,0.4,0.1L203.7,371.1z"/>
	<path class="st2" d="M212,382.9c-2,0-3.5-0.6-4.6-1.9c-1.1-1.3-1.7-2.9-1.7-5v-0.6c0-2,0.6-3.6,1.7-4.9s2.5-1.9,4.2-1.9
		c1.8,0,3.2,0.6,4.2,1.7c0.9,1.1,1.4,2.7,1.4,4.6v1.3h-8.8l0,0.1c0,1.4,0.3,2.5,0.9,3.4c0.6,0.9,1.5,1.3,2.8,1.3
		c0.9,0,1.6-0.1,2.2-0.4c0.6-0.2,1.2-0.6,1.7-1l1,1.6c-0.5,0.5-1.1,0.9-2,1.2C214.1,382.8,213.2,382.9,212,382.9z M211.6,370.6
		c-0.9,0-1.6,0.3-2.2,1c-0.6,0.7-0.9,1.5-1.1,2.6l0,0.1h6.2v-0.2c0-1-0.2-1.8-0.7-2.5C213.4,370.9,212.6,370.6,211.6,370.6z"/>
	<path class="st2" d="M228,379c0-0.6-0.2-1-0.6-1.4s-1.2-0.7-2.4-0.9c-1.6-0.3-2.9-0.8-3.7-1.5c-0.9-0.6-1.3-1.5-1.3-2.5
		c0-1.1,0.5-2.1,1.4-2.9c1-0.8,2.2-1.2,3.7-1.2c1.6,0,2.8,0.4,3.8,1.3c1,0.8,1.4,1.8,1.4,3l0,0.1h-2.4c0-0.6-0.3-1.1-0.8-1.6
		c-0.5-0.5-1.2-0.7-2-0.7c-0.9,0-1.5,0.2-2,0.6c-0.4,0.4-0.7,0.9-0.7,1.4c0,0.5,0.2,1,0.6,1.3c0.4,0.3,1.2,0.6,2.3,0.8
		c1.7,0.4,3,0.9,3.9,1.5c0.9,0.7,1.3,1.5,1.3,2.6c0,1.2-0.5,2.2-1.5,3c-1,0.8-2.3,1.2-3.9,1.2c-1.8,0-3.1-0.4-4.2-1.3
		c-1-0.9-1.5-1.9-1.4-3.1l0-0.1h2.4c0,0.9,0.4,1.5,1,2c0.6,0.4,1.3,0.6,2.2,0.6c0.9,0,1.6-0.2,2.1-0.6C227.7,380,228,379.5,228,379z
		"/>
	<path class="st2" d="M245.4,376.3c0,2-0.5,3.6-1.4,4.8c-1,1.2-2.3,1.8-3.9,1.8c-0.9,0-1.6-0.1-2.2-0.4c-0.6-0.3-1.2-0.7-1.6-1.3
		v6.7h-2.5v-19.1h1.9l0.4,1.8c0.5-0.7,1-1.2,1.7-1.5s1.5-0.5,2.3-0.5c1.7,0,3,0.7,4,2s1.4,3.1,1.4,5.4V376.3z M242.9,376
		c0-1.6-0.3-2.9-0.9-3.9c-0.6-1-1.5-1.5-2.7-1.5c-0.7,0-1.3,0.2-1.8,0.5s-0.9,0.8-1.2,1.3v6.7c0.3,0.6,0.7,1,1.2,1.3
		c0.5,0.3,1.1,0.5,1.9,0.5c1.2,0,2.1-0.4,2.7-1.3c0.6-0.9,0.9-2,0.9-3.4V376z"/>
	<path class="st2" d="M254.2,382.9c-2,0-3.5-0.6-4.6-1.9c-1.1-1.3-1.7-2.9-1.7-5v-0.6c0-2,0.6-3.6,1.7-4.9c1.1-1.3,2.5-1.9,4.2-1.9
		c1.8,0,3.2,0.6,4.2,1.7c0.9,1.1,1.4,2.7,1.4,4.6v1.3h-8.8l0,0.1c0,1.4,0.3,2.5,0.9,3.4s1.5,1.3,2.8,1.3c0.9,0,1.6-0.1,2.2-0.4
		c0.6-0.2,1.2-0.6,1.7-1l1,1.6c-0.5,0.5-1.1,0.9-2,1.2C256.3,382.8,255.3,382.9,254.2,382.9z M253.8,370.6c-0.9,0-1.6,0.3-2.2,1
		c-0.6,0.7-0.9,1.5-1.1,2.6l0,0.1h6.2v-0.2c0-1-0.2-1.8-0.7-2.5C255.6,370.9,254.8,370.6,253.8,370.6z"/>
	<path class="st2" d="M267.6,381c0.8,0,1.5-0.3,2-0.8s0.9-1.1,0.9-1.9h2.3l0,0.1c0,1.2-0.5,2.2-1.5,3.2c-1.1,0.9-2.3,1.4-3.7,1.4
		c-1.9,0-3.4-0.7-4.5-2c-1.1-1.3-1.6-3-1.6-4.9v-0.5c0-1.9,0.5-3.6,1.6-4.9c1.1-1.3,2.6-2,4.5-2c1.5,0,2.8,0.5,3.8,1.4
		c1,1,1.5,2.1,1.4,3.5l0,0.1h-2.3c0-0.8-0.3-1.6-0.8-2.1c-0.5-0.6-1.2-0.9-2.1-0.9c-1.2,0-2.1,0.5-2.7,1.4c-0.6,1-0.8,2.1-0.8,3.5
		v0.5c0,1.4,0.3,2.6,0.8,3.5C265.5,380.5,266.4,381,267.6,381z"/>
	<path class="st2" d="M279.3,365.5v3.3h2.6v1.9h-2.6v8.4c0,0.6,0.1,1.1,0.4,1.4c0.3,0.3,0.6,0.4,1.1,0.4c0.1,0,0.3,0,0.5-0.1
		c0.2,0,0.3-0.1,0.4-0.1l0.3,1.7c-0.2,0.2-0.5,0.3-0.8,0.4c-0.4,0.1-0.7,0.1-1.1,0.1c-1,0-1.8-0.3-2.4-0.9c-0.6-0.6-0.9-1.6-0.9-2.9
		v-8.4h-2.2v-1.9h2.2v-3.3H279.3z"/>
	<path class="st2" d="M292.2,382.7v-11.9H290v-1.9h2.2v-1.7c0-1.5,0.4-2.6,1.2-3.4s1.8-1.2,3.2-1.2c0.3,0,0.6,0,0.9,0.1
		c0.3,0,0.6,0.1,1,0.2l-0.3,1.9c-0.2,0-0.3-0.1-0.6-0.1s-0.4,0-0.7,0c-0.7,0-1.3,0.2-1.6,0.7c-0.4,0.4-0.5,1.1-0.5,1.9v1.7h2.5v1.9
		h-2.5v11.9H292.2z"/>
	<path class="st2" d="M299.1,375.6c0-2,0.6-3.7,1.7-5c1.1-1.3,2.6-2,4.5-2c1.9,0,3.4,0.7,4.5,2s1.7,3,1.7,5.1v0.3
		c0,2.1-0.6,3.7-1.7,5.1s-2.6,2-4.5,2c-1.9,0-3.4-0.7-4.5-2c-1.1-1.3-1.7-3-1.7-5V375.6z M301.6,375.9c0,1.5,0.3,2.7,0.9,3.6
		s1.5,1.4,2.7,1.4c1.2,0,2.1-0.5,2.7-1.4c0.6-1,0.9-2.2,0.9-3.6v-0.3c0-1.4-0.3-2.6-0.9-3.6s-1.5-1.4-2.7-1.4
		c-1.2,0-2.1,0.5-2.7,1.4s-0.9,2.2-0.9,3.6V375.9z"/>
	<path class="st2" d="M321.1,371.1l-1.3-0.1c-0.7,0-1.2,0.2-1.7,0.5c-0.5,0.3-0.8,0.8-1.1,1.3v9.9h-2.5v-13.8h2.2l0.2,2
		c0.4-0.7,0.9-1.3,1.4-1.7c0.6-0.4,1.2-0.6,2-0.6c0.2,0,0.4,0,0.5,0c0.2,0,0.3,0.1,0.4,0.1L321.1,371.1z"/>
	<path class="st2" d="M332.7,370.7c0.5-0.7,1.1-1.2,1.8-1.5c0.7-0.4,1.5-0.6,2.3-0.6c1.5,0,2.6,0.4,3.4,1.3c0.8,0.9,1.2,2.2,1.2,4.1
		v8.6h-2.5V374c0-1.1-0.2-2-0.7-2.5c-0.5-0.5-1.2-0.8-2.2-0.8c-0.7,0-1.4,0.1-2,0.4c-0.6,0.3-1,0.7-1.3,1.2v10.3h-2.5v-19.9h2.5
		V370.7z"/>
	<path class="st2" d="M353.8,380.6c-0.4,0.7-1,1.3-1.7,1.7c-0.7,0.4-1.5,0.6-2.4,0.6c-1.5,0-2.7-0.5-3.5-1.4S345,379,345,377v-8.1
		h2.5v8.2c0,1.5,0.2,2.5,0.7,3c0.4,0.6,1.1,0.8,2,0.8c0.9,0,1.6-0.2,2.2-0.5c0.6-0.4,1-0.9,1.3-1.5v-9.9h2.5v13.8H354L353.8,380.6z"
		/>
	<path class="st2" d="M362.1,368.9l0.2,1.8c0.5-0.7,1-1.2,1.7-1.5c0.7-0.4,1.5-0.5,2.4-0.5c0.9,0,1.7,0.2,2.4,0.6
		c0.7,0.4,1.2,1.1,1.5,1.9c0.4-0.8,1-1.4,1.7-1.9s1.5-0.7,2.5-0.7c1.4,0,2.5,0.5,3.3,1.4s1.2,2.4,1.2,4.4v8.3h-2.5v-8.3
		c0-1.4-0.2-2.3-0.7-2.9c-0.5-0.6-1.2-0.8-2.1-0.8c-0.9,0-1.6,0.3-2.1,0.9c-0.5,0.6-0.8,1.3-0.9,2.3v0.1v8.8h-2.5v-8.3
		c0-1.3-0.2-2.2-0.7-2.8s-1.2-0.9-2.1-0.9c-0.8,0-1.4,0.2-1.9,0.5c-0.5,0.3-0.9,0.8-1.1,1.3v10.2h-2.5v-13.8H362.1z"/>
	<path class="st2" d="M391.2,382.7c-0.1-0.4-0.2-0.8-0.2-1.1c0-0.3-0.1-0.6-0.1-1c-0.5,0.7-1.1,1.2-1.8,1.7
		c-0.8,0.4-1.6,0.7-2.4,0.7c-1.4,0-2.5-0.4-3.3-1.1c-0.8-0.7-1.1-1.7-1.1-3c0-1.3,0.5-2.3,1.6-3.1c1.1-0.7,2.5-1.1,4.3-1.1h2.7v-1.4
		c0-0.8-0.2-1.4-0.7-1.9s-1.2-0.7-2.1-0.7c-0.8,0-1.5,0.2-2,0.6s-0.8,0.9-0.8,1.5l-2.4,0l0-0.1c-0.1-1,0.4-1.9,1.4-2.8
		c1-0.8,2.3-1.2,3.9-1.2c1.6,0,2.8,0.4,3.8,1.2c1,0.8,1.4,1.9,1.4,3.4v6.6c0,0.5,0,1,0.1,1.4c0.1,0.5,0.1,0.9,0.3,1.4H391.2z
		 M387,380.8c0.9,0,1.7-0.2,2.5-0.7s1.2-1,1.4-1.6v-2.2h-2.8c-1,0-1.8,0.3-2.4,0.8c-0.6,0.5-0.9,1.1-0.9,1.8c0,0.6,0.2,1.1,0.6,1.5
		C385.7,380.7,386.3,380.8,387,380.8z"/>
	<path class="st2" d="M399.3,368.9l0.2,2.1c0.5-0.7,1-1.3,1.7-1.7c0.7-0.4,1.5-0.6,2.4-0.6c1.5,0,2.6,0.4,3.5,1.3
		c0.8,0.9,1.2,2.2,1.2,4v8.7h-2.5V374c0-1.2-0.2-2.1-0.7-2.6c-0.5-0.5-1.2-0.8-2.2-0.8c-0.8,0-1.4,0.2-2,0.5c-0.5,0.3-1,0.7-1.3,1.3
		v10.2h-2.5v-13.8H399.3z"/>
	<path class="st2" d="M219.1,406.3c0,2-0.5,3.6-1.4,4.8c-1,1.2-2.3,1.8-3.9,1.8c-0.9,0-1.7-0.2-2.4-0.5c-0.7-0.4-1.2-0.9-1.7-1.6
		l-0.4,1.9h-1.9v-19.9h2.5v7.7c0.4-0.6,1-1.1,1.6-1.4s1.4-0.5,2.3-0.5c1.7,0,3,0.7,4,2s1.4,3.2,1.4,5.4V406.3z M216.6,406.1
		c0-1.6-0.3-2.9-0.9-3.9s-1.5-1.5-2.7-1.5c-0.8,0-1.4,0.2-2,0.6c-0.5,0.4-1,0.9-1.3,1.5v6c0.3,0.7,0.7,1.2,1.3,1.6s1.2,0.6,2,0.6
		c1.2,0,2.1-0.4,2.6-1.3c0.6-0.8,0.9-2,0.9-3.3V406.1z"/>
	<path class="st2" d="M227.9,413c-2,0-3.5-0.6-4.6-1.9c-1.1-1.3-1.7-2.9-1.7-5v-0.6c0-2,0.6-3.6,1.7-4.9s2.5-1.9,4.2-1.9
		c1.8,0,3.2,0.6,4.2,1.7c0.9,1.1,1.4,2.7,1.4,4.6v1.3h-8.8l0,0.1c0,1.4,0.3,2.5,0.9,3.4c0.6,0.9,1.5,1.3,2.8,1.3
		c0.9,0,1.6-0.1,2.2-0.4c0.6-0.2,1.2-0.6,1.7-1l1,1.6c-0.5,0.5-1.1,0.9-2,1.2C230,412.8,229.1,413,227.9,413z M227.5,400.6
		c-0.9,0-1.6,0.3-2.2,1c-0.6,0.7-0.9,1.5-1.1,2.6l0,0.1h6.2v-0.2c0-1-0.2-1.8-0.7-2.5C229.3,401,228.5,400.6,227.5,400.6z"/>
	<path class="st2" d="M238.6,395.4h-2.5v-2.6h2.5V395.4z M238.6,412.7h-2.5v-13.8h2.5V412.7z"/>
	<path class="st2" d="M244.7,398.9l0.2,2.1c0.5-0.7,1-1.3,1.7-1.7c0.7-0.4,1.5-0.6,2.4-0.6c1.5,0,2.6,0.4,3.5,1.3
		c0.8,0.9,1.2,2.2,1.2,4v8.7h-2.5V404c0-1.2-0.2-2.1-0.7-2.6c-0.5-0.5-1.2-0.8-2.2-0.8c-0.8,0-1.4,0.2-2,0.5s-1,0.7-1.3,1.3v10.2
		h-2.5v-13.8H244.7z"/>
	<path class="st2" d="M256.9,406.1c0-2.2,0.5-4,1.4-5.4s2.3-2,4-2c0.9,0,1.6,0.2,2.3,0.5c0.7,0.4,1.2,0.9,1.7,1.5l0.3-1.8h2v13.9
		c0,1.8-0.5,3.1-1.5,4.1c-1,0.9-2.5,1.4-4.5,1.4c-0.7,0-1.4-0.1-2.1-0.3s-1.4-0.4-2-0.7l0.4-2c0.5,0.3,1.1,0.5,1.8,0.6
		c0.7,0.2,1.4,0.2,2,0.2c1.2,0,2.1-0.3,2.7-0.8s0.8-1.4,0.8-2.5v-1.6c-0.5,0.6-1,1-1.6,1.3c-0.6,0.3-1.4,0.4-2.2,0.4
		c-1.7,0-3-0.6-3.9-1.8c-0.9-1.2-1.4-2.8-1.4-4.8V406.1z M259.4,406.3c0,1.4,0.3,2.5,0.9,3.3c0.6,0.8,1.4,1.3,2.6,1.3
		c0.8,0,1.4-0.2,1.9-0.5c0.5-0.3,0.9-0.8,1.3-1.5v-6.4c-0.3-0.6-0.7-1.1-1.3-1.4c-0.5-0.3-1.1-0.5-1.9-0.5c-1.2,0-2.1,0.5-2.7,1.5
		c-0.6,1-0.9,2.3-0.9,3.9V406.3z"/>
	<path class="st2" d="M280.2,409c0-0.6-0.2-1-0.6-1.4s-1.2-0.7-2.4-0.9c-1.6-0.3-2.9-0.8-3.7-1.5c-0.9-0.6-1.3-1.5-1.3-2.5
		c0-1.1,0.5-2.1,1.4-2.9c1-0.8,2.2-1.2,3.7-1.2c1.6,0,2.8,0.4,3.8,1.3c1,0.8,1.4,1.8,1.4,3l0,0.1H280c0-0.6-0.3-1.1-0.8-1.6
		c-0.5-0.5-1.2-0.7-2-0.7c-0.9,0-1.5,0.2-2,0.6c-0.4,0.4-0.7,0.9-0.7,1.4c0,0.5,0.2,1,0.6,1.3c0.4,0.3,1.2,0.6,2.3,0.8
		c1.7,0.4,3,0.9,3.9,1.5c0.9,0.7,1.3,1.5,1.3,2.6c0,1.2-0.5,2.2-1.5,3c-1,0.8-2.3,1.2-3.9,1.2c-1.8,0-3.1-0.4-4.2-1.3
		c-1-0.9-1.5-1.9-1.4-3.1l0-0.1h2.4c0,0.9,0.4,1.5,1,2c0.6,0.4,1.3,0.6,2.2,0.6c0.9,0,1.6-0.2,2.1-0.6
		C279.9,410.1,280.2,409.6,280.2,409z"/>
	<path class="st2" d="M288.6,412.7H286v-2.6h2.5V412.7z"/>
</g>
<g>
	<circle class="st3" cx="248.3" cy="104.3" r="58.3"/>
	<g>
		<g>
			<path class="st1" d="M231,114.4l2.3-2.3c0.4-0.4,0.6-0.9,0.7-1.4c0.1-0.8-0.2-1.7-0.8-2.3c-0.4-0.4-0.8-0.6-1.3-0.7
				c-0.9-0.2-1.8,0-2.4,0.6l-3.6,3.6l-2.9,2.9c-1,1-1,2.7,0.1,3.7c0.5,0.5,1.2,0.8,1.9,0.8c0.7,0,1.3-0.3,1.8-0.7L231,114.4
				L231,114.4z"/>
			<path class="st1" d="M249,93.6l-0.4,0.4l-4.9,4.9l-0.2,0.2l-1.9,1.9c-1,1-2.3,1.5-3.7,1.5c-0.2,0-0.3,0-0.5,0c-0.1,0-0.1,0-0.2,0
				c-2.8-0.3-4.8-2.9-4.5-5.7c0.1-1.2,0.7-2.2,1.5-3l11-11c0.3-0.3,0.6-0.5,0.8-0.8c-8.5-5.2-19.6-2.6-24.9,5.9
				c-4.4,7.1-3.3,16.3,2.6,22.2l0.2,0.2l3.7-3.7c1-1,2.3-1.5,3.6-1.5c0.9,0,1.8,0.2,2.6,0.7c0.4,0.2,0.8,0.5,1.1,0.9
				c0.7,0.7,1.1,1.5,1.4,2.4c0.1,0.4,0.2,0.8,0.2,1.2c0,0.5,0,1-0.2,1.4c0.4-0.1,0.9-0.2,1.3-0.2c2.9,0,5.2,2.3,5.3,5.2
				c0,0.5,0,1-0.2,1.4c0.4-0.1,0.9-0.2,1.3-0.2c2.9,0,5.2,2.3,5.3,5.2c0,0.5,0,1-0.2,1.4c0.4-0.1,0.9-0.2,1.3-0.2
				c2.9,0,5.2,2.3,5.3,5.2c0,0.8-0.1,1.6-0.5,2.3c0.5,0.2,1,0.3,1.5,0.3c2.1,0,3.9-1.7,3.9-3.9c0-0.7-0.2-1.3-0.5-1.9
				c1.8,1.1,4.2,0.6,5.3-1.2c0.8-1.3,0.8-2.8,0-4.1c0.6,0.3,1.2,0.5,1.9,0.5c2.1,0,3.9-1.7,3.9-3.9c0-1-0.4-2-1.1-2.7L249,93.6z"/>
			<path class="st1" d="M250.7,127c-0.1,0-0.3,0-0.4,0c-0.5,0.1-1,0.3-1.4,0.7l-6.4,6.4c-1,1-1,2.7,0.1,3.7c0.5,0.5,1.2,0.8,1.9,0.8
				c0.7,0,1.3-0.3,1.8-0.7l6.4-6.4c0.4-0.4,0.6-0.9,0.7-1.4c0.2-1.5-0.8-2.9-2.3-3.1C251,127,250.8,127,250.7,127z"/>
			<path class="st1" d="M240.5,117.2c0.2-1.5-0.8-2.9-2.3-3.1c-0.1,0-0.3,0-0.4,0c-0.1,0-0.3,0-0.4,0c-0.5,0.1-1,0.3-1.4,0.7
				l-6.4,6.4c-1,1-1,2.7,0.1,3.7c0.5,0.5,1.2,0.8,1.9,0.8c0.7,0,1.3-0.3,1.8-0.7l6.4-6.4C240.1,118.2,240.4,117.7,240.5,117.2z"/>
			<path class="st1" d="M246.9,123.6c0.2-1.5-0.8-2.9-2.3-3.1c-0.1,0-0.3,0-0.4,0c-0.1,0-0.3,0-0.4,0c-0.5,0.1-1,0.3-1.4,0.7
				l-6.4,6.4c-1,1-1,2.7,0.1,3.7c0.5,0.5,1.2,0.8,1.9,0.8c0.7,0,1.3-0.3,1.8-0.7l6.4-6.4C246.6,124.6,246.8,124.1,246.9,123.6z"/>
			<path class="st1" d="M272.6,84.5c-6.6-6.6-17.2-7.1-24.4-1.1c-0.4,0.3-0.8,0.7-1.2,1.1l-11,11c-1,1-1,2.6,0,3.7c1,1,2.6,1,3.7,0
				l9.5-9.5l3.3,3.3l18.5,18.5c0.5-0.4,1.1-0.9,1.5-1.4C279.7,103,279.7,91.6,272.6,84.5C272.7,84.5,272.6,84.5,272.6,84.5z"/>
		</g>
	</g>
</g>
</svg>
