<?xml version="1.0" encoding="utf-8"?>
<!-- Generator: Adobe Illustrator 25.0.0, SVG Export Plug-In . SVG Version: 6.00 Build 0)  -->
<svg version="1.1" id="Layer_1" xmlns="http://www.w3.org/2000/svg" xmlns:xlink="http://www.w3.org/1999/xlink" x="0px" y="0px"
	 viewBox="0 0 86 85" style="enable-background:new 0 0 86 85;" xml:space="preserve">
<style type="text/css">
	.st0{fill:#4E618A;}
	.st1{fill:#FFFFFF;}
</style>
<path class="st0" d="M83.4,42.5C83.4,64.9,65.2,83,42.9,83S2.4,64.9,2.4,42.5S20.5,2,42.9,2S83.4,20.1,83.4,42.5"/>
<path class="st1" d="M42.6,35.6c-3.3,0-6.1,2.7-6.1,6.1c0,3.3,2.7,6.1,6.1,6.1c3.3,0,6.1-2.7,6.1-6.1C48.6,38.3,45.9,35.6,42.6,35.6
	"/>
<path class="st1" d="M50.7,35.6h9.1c1.1,0,2-0.9,2-2s-0.9-2-2-2h-4.2l10.7-10.7c0.8-0.8,0.8-2.1,0-2.9s-2.1-0.8-2.9,0L52.7,28.7
	v-4.2c0-1.1-0.9-2-2-2s-2,0.9-2,2v9.1C48.6,34.7,49.6,35.6,50.7,35.6"/>
<path class="st1" d="M29.6,31.5h-4.2c-1.1,0-2,0.9-2,2s0.9,2,2,2h9.1c1.1,0,2-0.9,2-2v-9.1c0-1.1-0.9-2-2-2s-2,0.9-2,2v4.2L21.8,18
	c-0.8-0.8-2.1-0.8-2.9,0s-0.8,2.1,0,2.9L29.6,31.5z"/>
<path class="st1" d="M55.5,51.7h4.2c1.1,0,2-0.9,2-2s-0.9-2-2-2h-9.1c-1.1,0-2,0.9-2,2v9.1c0,1.1,0.9,2,2,2s2-0.9,2-2v-4.2
	l10.7,10.7c0.4,0.4,0.9,0.6,1.4,0.6s1-0.2,1.4-0.6c0.8-0.8,0.8-2.1,0-2.9L55.5,51.7z"/>
<path class="st1" d="M34.5,47.7h-9.1c-1.1,0-2,0.9-2,2s0.9,2,2,2h4.2L19,62.4c-0.8,0.8-0.8,2.1,0,2.9c0.4,0.4,0.9,0.6,1.4,0.6
	s1-0.2,1.4-0.6l10.7-10.7v4.2c0,1.1,0.9,2,2,2s2-0.9,2-2v-9.1C36.5,48.6,35.6,47.7,34.5,47.7"/>
</svg>
