<?xml version="1.0" encoding="utf-8"?>
<!-- Generator: Adobe Illustrator 25.0.0, SVG Export Plug-In . SVG Version: 6.00 Build 0)  -->
<svg version="1.1" id="Layer_1" xmlns="http://www.w3.org/2000/svg" xmlns:xlink="http://www.w3.org/1999/xlink" x="0px" y="0px"
	 viewBox="0 0 86 85" style="enable-background:new 0 0 86 85;" xml:space="preserve">
<style type="text/css">
	.st0{fill:#4E618A;}
	.st1{fill:#FFFFFF;}
</style>
<path class="st0" d="M83.4,42.5C83.4,64.9,65.2,83,42.9,83S2.4,64.9,2.4,42.5S20.5,2,42.9,2S83.4,20.1,83.4,42.5"/>
<path class="st1" d="M47.5,46.8l7.7-7.6c0.8-0.8,2.2-0.8,3,0s0.8,2.2,0,3l-3.8,3.7c-0.5,0.5-0.5,1.3,0,1.8s1.3,0.5,1.7,0l4.7-5.1
	V26.5c0-1.7,1.4-3,3-3s3,1.4,3,3v17.6c0,0.8-0.3,1.6-0.9,2.1L54.7,57.8v9.1h-9.1V51.7C45.6,49.7,46.2,48.2,47.5,46.8"/>
<path class="st1" d="M37.7,46.8L30,39.2c-0.8-0.8-2.2-0.8-3,0s-0.8,2.2,0,3l3.8,3.7c0.5,0.5,0.5,1.3,0,1.8s-1.3,0.5-1.7,0l-4.7-5.1
	V26.5c0-1.7-1.4-3-3-3s-3,1.4-3,3v17.6c0,0.8,0.3,1.6,0.9,2.1l11.2,11.6v9.1h9.1V51.7C39.6,49.7,39.1,48.2,37.7,46.8"/>
<path class="st1" d="M51.7,27.5c0-5-4.1-9.1-9.1-9.1s-9.1,4.1-9.1,9.1s4.1,9.1,9.1,9.1S51.7,32.5,51.7,27.5"/>
</svg>
