<?xml version="1.0" encoding="utf-8"?>
<!-- Generator: Adobe Illustrator 25.0.0, SVG Export Plug-In . SVG Version: 6.00 Build 0)  -->
<svg version="1.1" id="Layer_1" xmlns="http://www.w3.org/2000/svg" xmlns:xlink="http://www.w3.org/1999/xlink" x="0px" y="0px"
	 viewBox="0 0 86 85" style="enable-background:new 0 0 86 85;" xml:space="preserve">
<style type="text/css">
	.st0{fill:#FFFFFF;stroke:#4E628B;stroke-miterlimit:10;stroke-dasharray:3.005,3.005;}
	.st1{fill:#4E618A;}
</style>
<circle class="st0" cx="43" cy="42" r="39.5"/>
<rect x="37" y="29.6" class="st1" width="6.1" height="20.5"/>
<rect x="44.8" y="29.6" class="st1" width="6.1" height="20.5"/>
<rect x="52.6" y="29.6" class="st1" width="6.1" height="20.5"/>
<path class="st1" d="M64.8,56.9h-44c-0.8,0-1.5,1.4-1.5,3.1c0,1.7,0.7,3.1,1.5,3.1h44c0.8,0,1.5-1.4,1.5-3.1
	C66.3,58.3,65.7,56.9,64.8,56.9"/>
<path class="st1" d="M24.8,58.2h36.1c0.8,0,1.5-1.4,1.5-3.1c0-1.7-0.7-3.1-1.5-3.1H24.8c-0.8,0-1.5,1.4-1.5,3.1S24,58.2,24.8,58.2"
	/>
<rect x="29.2" y="29.6" class="st1" width="6.1" height="20.5"/>
<path class="st1" d="M27.2,27.6h31.3c1.1,0,2-0.9,2-2s-0.9-2-2-2H43.8v-2.9h8.8v-5.9h-8.8v-0.5c0-0.8-0.7-1.5-1.5-1.5
	s-1.5,0.7-1.5,1.5v9.3H27.2c-1.1,0-2,0.9-2,2C25.3,26.7,26.2,27.6,27.2,27.6"/>
</svg>
