<?xml version="1.0" encoding="utf-8"?>
<!-- Generator: Adobe Illustrator 25.0.0, SVG Export Plug-In . SVG Version: 6.00 Build 0)  -->
<svg version="1.1" id="Layer_1" xmlns="http://www.w3.org/2000/svg" xmlns:xlink="http://www.w3.org/1999/xlink" x="0px" y="0px"
	 viewBox="0 0 86 85" style="enable-background:new 0 0 86 85;" xml:space="preserve">
<style type="text/css">
	.st0{fill:#4E618A;}
	.st1{fill:#FFFFFF;}
</style>
<path class="st0" d="M83.4,42.5C83.4,64.9,65.2,83,42.9,83S2.4,64.9,2.4,42.5S20.5,2,42.9,2S83.4,20.1,83.4,42.5"/>
<path class="st1" d="M43.6,54.8v1.5c0,0.8-0.7,1.5-1.5,1.5s-1.5-0.7-1.5-1.5v-1.5h-0.5c-0.8,0-1.5-0.7-1.5-1.5s0.7-1.5,1.5-1.5h3
	c0.9,0,1.6-0.7,1.6-1.5c0-0.9-0.7-1.5-1.6-1.5h-0.9c-2.5,0-4.6-2-4.6-4.5c0-2,1.3-3.6,3-4.3v-1.8c0-0.8,0.7-1.5,1.5-1.5
	s1.5,0.7,1.5,1.5v1.5h1.5c0.8,0,1.5,0.7,1.5,1.5s-0.7,1.5-1.5,1.5h-3c-0.9,0-1.6,0.7-1.6,1.5s0.7,1.5,1.6,1.5H43
	c2.5,0,4.6,2,4.6,4.5C47.7,52.5,45.9,54.5,43.6,54.8 M59.6,45.2l-7.9-15.6H33.5l-7.9,15.6c-2.4,5.6-0.9,11.5,2.9,15.4
	c2.5,2.6,6,4.3,10.1,4.3h8.1c4.1,0,7.6-1.7,10.1-4.3C60.5,56.7,62,50.8,59.6,45.2"/>
<path class="st1" d="M33.5,27.5h8.1L39.9,20c-0.2-0.9-1-1.6-2-1.6h-5.4c-0.6,0-1.1,0.6-1,1.2L33.5,27.5z"/>
<path class="st1" d="M47.7,27.5L47.7,27.5h4l2-9.9c0.1-0.6-0.4-1.2-1-1.2h-3c-1.1,0-2,0.9-2,2c0-1.1-0.9-2-2-2h-3
	c-0.6,0-1.1,0.6-1,1.2l2,9.9H47.7z"/>
</svg>
