<?xml version="1.0" encoding="utf-8"?>
<!-- Generator: Adobe Illustrator 25.0.0, SVG Export Plug-In . SVG Version: 6.00 Build 0)  -->
<svg version="1.1" id="Layer_1" xmlns="http://www.w3.org/2000/svg" xmlns:xlink="http://www.w3.org/1999/xlink" x="0px" y="0px"
	 viewBox="0 0 86 85" style="enable-background:new 0 0 86 85;" xml:space="preserve">
<style type="text/css">
	.st0{fill:#FAA419;}
	.st1{fill:#FFFFFF;}
</style>
<path class="st0" d="M83.4,42.5C83.4,64.9,65.2,83,42.9,83S2.4,64.9,2.4,42.5S20.5,2,42.9,2S83.4,20.1,83.4,42.5"/>
<path class="st1" d="M53,21.5L32.5,32.4c-0.4,0.2-0.7,0.7-0.7,1.2v7.1v7.1c0,0.5,0.3,1,0.7,1.2L53,59.8c1.6,0.9,3.6-0.4,3.6-2.4
	V40.7V23.9C56.6,21.9,54.6,20.7,53,21.5"/>
<path class="st1" d="M28.3,33h-9.4c-2,0-3.5,1.6-3.5,3.5v8.2c0,2,1.6,3.5,3.5,3.5h1.1V56c0,1.6,1.3,2.9,2.9,2.9S26,57.6,26,56v-7.7
	h2.4c0.7,0,1.2-0.5,1.2-1.2V34.2C29.5,33.6,29,33,28.3,33"/>
<path class="st1" d="M62.7,34l7.1-4.1c0.8-0.5,1.1-1.6,0.6-2.4c-0.5-0.8-1.6-1.1-2.4-0.6l-7.1,4.1c-0.8,0.5-1.1,1.6-0.6,2.4
	C60.8,34.2,61.8,34.4,62.7,34"/>
<path class="st1" d="M69.8,51.5l-7.1-4.1c-0.8-0.5-1.9-0.2-2.4,0.6c-0.5,0.8-0.2,1.9,0.6,2.4l7.1,4.1c0.8,0.5,1.9,0.2,2.4-0.6
	C70.9,53.1,70.7,52,69.8,51.5"/>
</svg>
