<?xml version="1.0" encoding="utf-8"?>
<!-- Generator: Adobe Illustrator 25.0.0, SVG Export Plug-In . SVG Version: 6.00 Build 0)  -->
<svg version="1.1" id="Layer_1" xmlns="http://www.w3.org/2000/svg" xmlns:xlink="http://www.w3.org/1999/xlink" x="0px" y="0px"
	 viewBox="0 0 86 85" style="enable-background:new 0 0 86 85;" xml:space="preserve">
<style type="text/css">
	.st0{fill:#FFFFFF;stroke:#4E628B;stroke-miterlimit:10;stroke-dasharray:3.005,3.005;}
	.st1{fill:#4E618A;}
</style>
<circle class="st0" cx="43" cy="42" r="39.5"/>
<path class="st1" d="M42.6,36.7c-3.1,0-5.6,2.5-5.6,5.6s2.5,5.6,5.6,5.6s5.6-2.5,5.6-5.6C48.2,39.2,45.7,36.7,42.6,36.7"/>
<path class="st1" d="M50.1,36.7h8.4c1,0,1.9-0.8,1.9-1.9S59.5,33,58.5,33h-3.9l9.9-9.9c0.7-0.7,0.7-1.9,0-2.6
	c-0.7-0.7-1.9-0.7-2.6,0L52,30.4v-3.9c0-1-0.8-1.9-1.9-1.9c-1,0-1.9,0.8-1.9,1.9v8.4C48.2,35.9,49.1,36.7,50.1,36.7"/>
<path class="st1" d="M30.7,33h-3.9c-1,0-1.9,0.8-1.9,1.9s0.8,1.9,1.9,1.9h8.4c1,0,1.9-0.8,1.9-1.9v-8.4c0-1-0.8-1.9-1.9-1.9
	c-1,0-1.9,0.8-1.9,1.9v3.9l-9.9-9.9c-0.7-0.7-1.9-0.7-2.6,0s-0.7,1.9,0,2.6L30.7,33z"/>
<path class="st1" d="M54.6,51.6h3.9c1,0,1.9-0.8,1.9-1.9s-0.8-1.9-1.9-1.9h-8.4c-1,0-1.9,0.8-1.9,1.9v8.4c0,1,0.8,1.9,1.9,1.9
	c1,0,1.9-0.8,1.9-1.9v-3.9l9.9,9.9c0.4,0.4,0.8,0.5,1.3,0.5s1-0.2,1.3-0.5c0.7-0.7,0.7-1.9,0-2.6L54.6,51.6z"/>
<path class="st1" d="M35.2,47.9h-8.4c-1,0-1.9,0.8-1.9,1.9c0,1,0.8,1.9,1.9,1.9h3.9l-9.9,9.9c-0.7,0.7-0.7,1.9,0,2.6
	c0.4,0.4,0.8,0.5,1.3,0.5s1-0.2,1.3-0.5l9.9-9.9v3.9c0,1,0.8,1.9,1.9,1.9c1,0,1.9-0.8,1.9-1.9v-8.4C37.1,48.7,36.2,47.9,35.2,47.9"
	/>
</svg>
