<?xml version="1.0" encoding="utf-8"?>
<!-- Generator: Adobe Illustrator 25.0.0, SVG Export Plug-In . SVG Version: 6.00 Build 0)  -->
<svg version="1.1" id="Layer_1" xmlns="http://www.w3.org/2000/svg" xmlns:xlink="http://www.w3.org/1999/xlink" x="0px" y="0px"
	 viewBox="0 0 86 85" style="enable-background:new 0 0 86 85;" xml:space="preserve">
<style type="text/css">
	.st0{fill:#FAA419;}
	.st1{fill:#FFFFFF;}
</style>
<path class="st0" d="M83.4,42.5C83.4,64.9,65.2,83,42.9,83S2.4,64.9,2.4,42.5S20.5,2,42.9,2S83.4,20.1,83.4,42.5"/>
<path class="st1" d="M30.3,23.5c1.1,0,2,0.9,2,2c0,1.1-0.9,2-2,2c-1.1,0-2-0.9-2-2C28.3,24.4,29.2,23.5,30.3,23.5 M20.2,27.5h4.4
	c0.8,2.4,3.1,4.1,5.7,4.1c2.6,0,4.9-1.7,5.7-4.1h28.7c1.1,0,2-0.9,2-2c0-1.1-0.9-2-2-2H36.1c-0.8-2.4-3.1-4.1-5.7-4.1
	c-2.6,0-4.9,1.7-5.7,4.1h-4.4c-1.1,0-2,0.9-2,2C18.2,26.6,19.1,27.5,20.2,27.5"/>
<path class="st1" d="M38.5,60c-1.1,0-2-0.9-2-2c0-1.1,0.9-2,2-2c1.1,0,2,0.9,2,2C40.5,59.1,39.6,60,38.5,60 M64.8,55.9H44.2
	c-0.8-2.4-3.1-4.1-5.7-4.1c-2.6,0-4.9,1.7-5.7,4.1H20.2c-1.1,0-2,0.9-2,2c0,1.1,0.9,2,2,2h12.5c0.8,2.4,3.1,4.1,5.7,4.1
	c2.6,0,4.9-1.7,5.7-4.1h20.6c1.1,0,2-0.9,2-2C66.8,56.8,65.9,55.9,64.8,55.9"/>
<path class="st1" d="M54.6,43.8c-1.1,0-2-0.9-2-2s0.9-2,2-2c1.1,0,2,0.9,2,2S55.8,43.8,54.6,43.8 M64.8,39.7h-4.4
	c-0.8-2.4-3.1-4.1-5.7-4.1s-4.9,1.7-5.7,4.1H20.2c-1.1,0-2,0.9-2,2c0,1.1,0.9,2,2,2h28.7c0.8,2.4,3.1,4.1,5.7,4.1s4.9-1.7,5.7-4.1
	h4.4c1.1,0,2-0.9,2-2C66.8,40.6,65.9,39.7,64.8,39.7"/>
</svg>
