<?xml version="1.0" encoding="utf-8"?>
<!-- Generator: Adobe Illustrator 25.0.0, SVG Export Plug-In . SVG Version: 6.00 Build 0)  -->
<svg version="1.1" id="Layer_1" xmlns="http://www.w3.org/2000/svg" xmlns:xlink="http://www.w3.org/1999/xlink" x="0px" y="0px"
	 viewBox="0 0 86 85" style="enable-background:new 0 0 86 85;" xml:space="preserve">
<style type="text/css">
	.st0{fill:#4E618A;}
	.st1{fill:#FFFFFF;}
</style>
<path class="st0" d="M83.4,42.5C83.4,64.9,65.2,83,42.9,83S2.4,64.9,2.4,42.5S20.5,2,42.9,2S83.4,20.1,83.4,42.5"/>
<path class="st1" d="M29.2,55.3c1,0,1.9-0.8,1.9-1.9V37.3l4.3,4.3c0.4,0.4,0.9,0.5,1.3,0.5c0.5,0,1-0.2,1.3-0.5
	c0.7-0.7,0.7-1.9,0-2.7l-7.5-7.5c-0.7-0.7-1.9-0.7-2.7,0l-7.5,7.5c-0.7,0.7-0.7,1.9,0,2.7c0.7,0.7,1.9,0.7,2.7,0l4.3-4.3v16.2
	C27.3,54.5,28.2,55.3,29.2,55.3"/>
<path class="st1" d="M56.9,31.4c-0.7-0.7-1.9-0.7-2.7,0l-7.5,7.5c-0.7,0.7-0.7,1.9,0,2.7c0.7,0.7,1.9,0.7,2.7,0l4.3-4.3v16.2
	c0,1,0.8,1.9,1.9,1.9s1.9-0.8,1.9-1.9V37.3l4.3,4.3c0.4,0.4,0.9,0.6,1.3,0.6c0.5,0,1-0.2,1.3-0.6c0.7-0.7,0.7-1.9,0-2.7L56.9,31.4z"
	/>
<path class="st1" d="M64.1,60H20.8c-0.5,0-0.9,0.6-0.9,1.2v2.5c0,0.7,0.4,1.2,0.9,1.2h43.3c0.5,0,0.9-0.6,0.9-1.2v-2.5
	C65,60.6,64.6,60,64.1,60"/>
<path class="st1" d="M64.1,18.6H20.8c-0.5,0-0.9,0.4-0.9,0.9V27c0,0.5,0.4,0.9,0.9,0.9h43.3c0.5,0,0.9-0.4,0.9-0.9v-7.5
	C65,19,64.6,18.6,64.1,18.6"/>
</svg>
