<?xml version="1.0" encoding="utf-8"?>
<!-- Generator: Adobe Illustrator 25.0.0, SVG Export Plug-In . SVG Version: 6.00 Build 0)  -->
<svg version="1.1" id="Layer_1" xmlns="http://www.w3.org/2000/svg" xmlns:xlink="http://www.w3.org/1999/xlink" x="0px" y="0px"
	 viewBox="0 0 86 85" style="enable-background:new 0 0 86 85;" xml:space="preserve">
<style type="text/css">
	.st0{fill:#FFFFFF;stroke:#4E628B;stroke-miterlimit:10;stroke-dasharray:3.005,3.005;}
	.st1{fill:#4E618A;}
</style>
<circle class="st0" cx="43" cy="42" r="39.5"/>
<path class="st1" d="M29.9,48.8l1.7-1.7c0.3-0.3,0.5-0.6,0.5-1c0.1-0.6-0.1-1.3-0.6-1.7c-0.3-0.3-0.6-0.5-1-0.5
	c-0.2,0-0.3-0.1-0.5-0.1c-0.5,0-1,0.2-1.3,0.5L26,47l-2,2c-0.7,0.7-0.7,2,0.1,2.8c0.4,0.4,0.9,0.6,1.4,0.6s1-0.2,1.3-0.5L29.9,48.8z
	"/>
<path class="st1" d="M43.3,33.2L43,33.5l-3.7,3.7l-0.1,0.1l-1.4,1.4c-0.7,0.7-1.7,1.1-2.7,1.1c-0.1,0-0.2,0-0.3,0h-0.1
	c-0.9-0.1-1.6-0.5-2.3-1.1c-1.5-1.5-1.5-4,0-5.5l8.2-8.2c0.2-0.2,0.4-0.4,0.6-0.6c-5.2-3.2-12.1-2.6-16.6,1.9
	c-5.3,5.3-5.3,13.8,0,19.1l0.1,0.1l2.8-2.8c0.7-0.7,1.7-1.1,2.7-1.1c0.7,0,1.4,0.2,1.9,0.5c0.3,0.2,0.6,0.4,0.9,0.6
	c0.5,0.5,0.9,1.1,1,1.8c0.1,0.3,0.1,0.6,0.1,0.9c0,0.4,0,0.7-0.1,1.1c0.3-0.1,0.7-0.1,1-0.1c1.1,0,2.1,0.4,2.8,1.2
	c0.7,0.7,1.1,1.7,1.2,2.7c0,0.4,0,0.7-0.1,1.1c0.3-0.1,0.7-0.1,1-0.1c1.1,0,2.1,0.4,2.8,1.2c0.7,0.7,1.1,1.7,1.2,2.7
	c0,0.4,0,0.7-0.1,1.1c0.3-0.1,0.7-0.1,1-0.1c1.1,0,2.1,0.4,2.8,1.2c0.7,0.7,1.1,1.7,1.2,2.7c0,0.6-0.1,1.2-0.3,1.7
	c0.4,0.1,0.7,0.2,1.1,0.2c0.7,0,1.5-0.3,2-0.9c0.9-0.9,1.1-2.4,0.5-3.5c0.5,0.3,1,0.4,1.5,0.4c0.7,0,1.5-0.3,2-0.9
	c1-1,1.1-2.5,0.4-3.6c0.4,0.3,0.9,0.4,1.4,0.4c0.7,0,1.5-0.3,2-0.9c1.1-1.1,1.1-3,0-4.1L43.3,33.2z"/>
<path class="st1" d="M44.6,58.1c-0.1,0-0.2,0-0.3,0c-0.4,0.1-0.7,0.2-1,0.5l-4.8,4.8c-0.7,0.7-0.7,2,0.1,2.8
	c0.4,0.4,0.9,0.6,1.4,0.6s1-0.2,1.3-0.5l4.8-4.8c0.3-0.3,0.5-0.6,0.5-1c0.1-0.6-0.1-1.3-0.6-1.7C45.7,58.4,45.1,58.1,44.6,58.1"/>
<path class="st1" d="M37,50.8c0.1-0.6-0.1-1.3-0.6-1.7c-0.4-0.4-0.9-0.6-1.4-0.6c-0.1,0-0.2,0-0.3,0c-0.4,0.1-0.7,0.2-1,0.5
	l-4.8,4.8c-0.7,0.7-0.7,2,0.1,2.8c0.4,0.4,0.9,0.6,1.4,0.6s1-0.2,1.3-0.5l4.8-4.8C36.7,51.6,36.9,51.2,37,50.8"/>
<path class="st1" d="M41.8,55.6c0.1-0.6-0.1-1.3-0.6-1.7c-0.4-0.4-0.9-0.6-1.4-0.6c-0.1,0-0.2,0-0.3,0c-0.4,0.1-0.7,0.2-1,0.5
	l-4.8,4.8c-0.7,0.7-0.7,2,0.1,2.8c0.4,0.4,0.9,0.6,1.4,0.6s1-0.2,1.3-0.5l4.8-4.8C41.6,56.4,41.7,56,41.8,55.6"/>
<path class="st1" d="M61,26.4c-2.6-2.6-6.1-4-9.6-4c-1.7,0-3.5,0.3-5.1,1c-1.3,0.5-2.5,1.2-3.6,2.2c-0.3,0.3-0.6,0.5-0.9,0.8
	l-8.2,8.2c-0.8,0.8-0.8,2,0,2.7c0.4,0.4,0.9,0.6,1.4,0.6s1-0.2,1.4-0.6l7.1-7.1l2.5,2.5l13.9,13.9c0.4-0.3,0.8-0.7,1.2-1
	C66.3,40.2,66.3,31.7,61,26.4"/>
</svg>
