<?xml version="1.0" encoding="utf-8"?>
<!-- Generator: Adobe Illustrator 25.0.0, SVG Export Plug-In . SVG Version: 6.00 Build 0)  -->
<svg version="1.1" id="Layer_1" xmlns="http://www.w3.org/2000/svg" xmlns:xlink="http://www.w3.org/1999/xlink" x="0px" y="0px"
	 viewBox="0 0 86 85" style="enable-background:new 0 0 86 85;" xml:space="preserve">
<style type="text/css">
	.st0{fill:#FFFFFF;stroke:#4E628B;stroke-miterlimit:10;stroke-dasharray:3.005,3.005;}
	.st1{fill:#4E628B;}
</style>
<circle class="st0" cx="43" cy="42" r="39.5"/>
<path class="st1" d="M42.4,47.5c-3,0-5.5-2.5-5.5-5.5s2.5-5.5,5.5-5.5s5.5,2.5,5.5,5.5S45.4,47.5,42.4,47.5 M57.6,43.3
	c0.5-0.8,0.5-1.9,0-2.7c-3.3-5.5-9-8.8-15.2-8.8c-6.3,0-12,3.3-15.2,8.8c-0.5,0.8-0.5,1.9,0,2.7c3.3,5.5,9,8.8,15.2,8.8
	C48.7,52.1,54.4,48.8,57.6,43.3"/>
<path class="st1" d="M53.9,31.8H63c0.8,0,1.4-0.6,1.4-1.4S63.8,29,63,29h-5.9l6.8-6.8c0.5-0.5,0.5-1.4,0-1.9c-0.5-0.5-1.4-0.5-2,0
	l-6.8,6.8v-5.9c0-0.8-0.6-1.4-1.4-1.4c-0.8,0-1.4,0.6-1.4,1.4v9.2C52.5,31.2,53.1,31.8,53.9,31.8"/>
<path class="st1" d="M20.3,30.5c0,0.8,0.6,1.4,1.4,1.4h9.2c0.8,0,1.4-0.6,1.4-1.4v-9.2c0-0.8-0.6-1.4-1.4-1.4s-1.4,0.6-1.4,1.4v5.9
	l-6.8-6.8c-0.5-0.5-1.4-0.5-2,0c-0.5,0.5-0.5,1.4,0,1.9l6.8,6.8h-5.9C20.9,29.1,20.3,29.7,20.3,30.5"/>
<path class="st1" d="M64.4,53.4c0-0.8-0.6-1.4-1.4-1.4h-9.2c-0.8,0-1.4,0.6-1.4,1.4v9.2c0,0.8,0.6,1.4,1.4,1.4
	c0.8,0,1.4-0.6,1.4-1.4v-5.9l6.8,6.8c0.3,0.3,0.6,0.4,1,0.4s0.7-0.1,1-0.4c0.5-0.5,0.5-1.4,0-1.9l-6.8-6.8H63
	C63.8,54.8,64.4,54.2,64.4,53.4"/>
<path class="st1" d="M30.9,52.1h-9.2c-0.8,0-1.4,0.6-1.4,1.4c0,0.8,0.6,1.4,1.4,1.4h5.9l-6.8,6.8c-0.5,0.5-0.5,1.4,0,1.9
	c0.3,0.3,0.6,0.4,1,0.4s0.7-0.1,1-0.4l6.8-6.8v5.9c0,0.8,0.6,1.4,1.4,1.4s1.4-0.6,1.4-1.4v-9.2C32.3,52.7,31.7,52.1,30.9,52.1"/>
</svg>
