<?xml version="1.0" encoding="utf-8"?>
<!-- Generator: Adobe Illustrator 25.0.0, SVG Export Plug-In . SVG Version: 6.00 Build 0)  -->
<svg version="1.1" id="Layer_1" xmlns="http://www.w3.org/2000/svg" xmlns:xlink="http://www.w3.org/1999/xlink" x="0px" y="0px"
	 viewBox="0 0 86 85" style="enable-background:new 0 0 86 85;" xml:space="preserve">
<style type="text/css">
	.st0{fill:#FFFFFF;stroke:#4E628B;stroke-miterlimit:10;stroke-dasharray:3.005,3.005;}
	.st1{fill:#4E618A;}
</style>
<circle class="st0" cx="43" cy="42" r="39.5"/>
<path class="st1" d="M28.4,49.6l-6.6,6.6c-1.5,1.5-1.5,3.9,0,5.4s3.9,1.5,5.4,0l6.6-6.6C31.7,53.5,29.9,51.6,28.4,49.6"/>
<path class="st1" d="M56.7,46.2c-1.5,1.6-3.4,2.9-5.5,3.7c-0.6,0.2-1.2,0.4-1.8,0.5c-0.9,0.2-1.8,0.3-2.8,0.3s-1.9-0.1-2.8-0.3
	c-0.6-0.1-1.2-0.3-1.8-0.5c-2.1-0.7-4-2-5.5-3.7c-2.3-2.5-3.7-5.8-3.7-9.4c0-7.6,6.2-13.9,13.9-13.9s13.9,6.2,13.9,13.9
	C60.4,40.4,59,43.7,56.7,46.2 M46.5,18.3C36.3,18.3,28,26.6,28,36.8s8.3,18.5,18.5,18.5S65,47,65,36.8S56.7,18.3,46.5,18.3"/>
<path class="st1" d="M57.1,35.5L51.5,30c-0.7-0.7-1.9-0.7-2.6,0c-0.7,0.7-0.7,1.9,0,2.6l2.4,2.4h-14c-1,0-1.8,0.8-1.8,1.8
	s0.8,1.8,1.8,1.8h14L48.9,41c-0.7,0.7-0.7,1.9,0,2.6c0.4,0.4,0.8,0.5,1.3,0.5s0.9-0.2,1.3-0.5l5.5-5.5
	C57.8,37.4,57.8,36.2,57.1,35.5"/>
</svg>
