<?xml version="1.0" encoding="utf-8"?>
<!-- Generator: Adobe Illustrator 25.0.0, SVG Export Plug-In . SVG Version: 6.00 Build 0)  -->
<svg version="1.1" id="Layer_1" xmlns="http://www.w3.org/2000/svg" xmlns:xlink="http://www.w3.org/1999/xlink" x="0px" y="0px"
	 viewBox="0 0 86 85" style="enable-background:new 0 0 86 85;" xml:space="preserve">
<style type="text/css">
	.st0{fill:#FFFFFF;stroke:#4E628B;stroke-miterlimit:10;stroke-dasharray:3.005,3.005;}
	.st1{fill:#4E618A;}
</style>
<circle class="st0" cx="43" cy="42" r="39.5"/>
<path class="st1" d="M47.3,46.3l7.4-7.3c0.8-0.8,2.1-0.8,2.9,0c0.8,0.8,0.8,2.1,0,2.9l-3.7,3.6c-0.5,0.5-0.5,1.2,0,1.7
	s1.2,0.5,1.7,0l4.6-4.9V26.7c0-1.6,1.3-2.9,2.9-2.9s2.9,1.3,2.9,2.9v16.9c0,0.8-0.3,1.5-0.8,2.1l-11,11.1v8.8h-8.8V51
	C45.5,49,46,47.6,47.3,46.3"/>
<path class="st1" d="M37.9,46.3L30.5,39c-0.8-0.8-2.1-0.8-2.9,0s-0.8,2.1,0,2.9l3.7,3.6c0.5,0.5,0.5,1.2,0,1.7s-1.2,0.5-1.7,0
	l-4.6-5V26.7c0-1.6-1.3-2.9-2.9-2.9s-2.9,1.3-2.9,2.9v16.9c0,0.8,0.3,1.5,0.8,2.1l10.8,11.2v8.8h8.8V51C39.6,49,39.1,47.6,37.9,46.3
	"/>
<path class="st1" d="M51.3,27.6c0-4.8-3.9-8.8-8.8-8.8c-4.8,0-8.8,3.9-8.8,8.8c0,4.8,3.9,8.8,8.8,8.8C47.4,36.4,51.3,32.5,51.3,27.6
	"/>
</svg>
