<?xml version="1.0" encoding="utf-8"?>
<!-- Generator: Adobe Illustrator 25.0.0, SVG Export Plug-In . SVG Version: 6.00 Build 0)  -->
<svg version="1.1" id="Layer_1" xmlns="http://www.w3.org/2000/svg" xmlns:xlink="http://www.w3.org/1999/xlink" x="0px" y="0px"
	 viewBox="0 0 86 85" style="enable-background:new 0 0 86 85;" xml:space="preserve">
<style type="text/css">
	.st0{fill:#FAA419;}
	.st1{fill:#FFFFFF;}
</style>
<path class="st0" d="M83.4,42.5C83.4,64.9,65.2,83,42.9,83S2.4,64.9,2.4,42.5S20.5,2,42.9,2S83.4,20.1,83.4,42.5"/>
<path class="st1" d="M42.5,49.9L42.5,49.9c4.5,0,8.1-3.6,8.1-8.1V24.6c0-4.4-3.6-8.1-8.1-8.1h0c-4.4,0-8.1,3.6-8.1,8.1v17.2
	C34.4,46.3,38,49.9,42.5,49.9"/>
<path class="st1" d="M56.7,41.3c0-0.8-0.7-1.5-1.5-1.5c-0.8,0-1.5,0.7-1.5,1.5c0,6.1-5,11.1-11.2,11.1c-6.1,0-11.1-5-11.1-11.1
	c0-0.8-0.7-1.5-1.5-1.5c-0.8,0-1.5,0.7-1.5,1.5c0,7.1,5.3,13,12.1,14V61h-4c-1.4,0-2.5,1.5-1.8,3c0.3,0.6,1,1,1.8,1h12.2
	c1.4,0,2.5-1.5,1.8-3c-0.3-0.6-1-1-1.8-1h-4.1v-5.7C51.4,54.3,56.7,48.4,56.7,41.3"/>
</svg>
