<?xml version="1.0" encoding="utf-8"?>
<!-- Generator: Adobe Illustrator 25.0.0, SVG Export Plug-In . SVG Version: 6.00 Build 0)  -->
<svg version="1.1" id="Layer_1" xmlns="http://www.w3.org/2000/svg" xmlns:xlink="http://www.w3.org/1999/xlink" x="0px" y="0px"
	 viewBox="0 0 86 85" style="enable-background:new 0 0 86 85;" xml:space="preserve">
<style type="text/css">
	.st0{fill:#FFFFFF;stroke:#4E628B;stroke-miterlimit:10;stroke-dasharray:3.005,3.005;}
	.st1{fill:#4E618A;}
</style>
<circle class="st0" cx="43" cy="42" r="39.5"/>
<path class="st1" d="M42,57.4c0-0.1,0-0.1-0.1-0.2c0-0.1,0-0.1-0.1-0.2l-0.1-0.1c0-0.1-0.1-0.1-0.2-0.2l0,0l-3.6-2.9V38.7l2.9,0.7
	V37v-1.6v-2.7l-2.9-1.4v-8c0-1.6-1.3-2.9-2.9-2.9c-1.6,0-2.9,1.3-2.9,2.9v8l-14.4,6.8c-0.4,0.2-0.7,0.5-0.9,0.8L16.7,39v0.1
	c0,0,0,0.1-0.1,0.2c-0.1,0.3-0.1,0.6,0,1l0,0c0,0.1,0,0.1,0.1,0.2c0,0.1,0,0.1,0.1,0.2c0.2,0.4,0.4,0.7,0.8,0.9l0.1,0.1h0.1
	c0,0,0.1,0,0.2,0.1c0.2,0.1,0.4,0.1,0.6,0.1c0.1,0,0.3,0,0.4,0l0,0l13.2-3.1v15.1l-3.6,2.9l0,0c-0.1,0.1-0.1,0.1-0.2,0.2l-0.1,0.1
	c0,0.1,0,0.1,0,0.2c0,0.1,0,0.1-0.1,0.2v0.1c0,0.1,0,0.2,0,0.3l0,0c0,0.1,0.1,0.1,0.1,0.2c0,0.1,0,0.1,0.1,0.2l0,0
	c0,0.1,0.1,0.1,0.2,0.1l0.1,0.1h0.1c0.1,0,0.2,0.1,0.3,0.1h0.1c0.1,0,0.2,0,0.3,0l0,0l5.6-1.8l5.5,1.8l0,0c0.1,0,0.2,0,0.3,0
	s0.2,0,0.4-0.1h0.1c0.1-0.1,0.2-0.1,0.3-0.2l0,0l0,0c0.1-0.1,0.1-0.2,0.2-0.3l0,0c0-0.1,0-0.2,0-0.3C42,57.4,42,57.4,42,57.4"/>
<path class="st1" d="M46.1,36.5c0.6-0.3,1.3-0.5,2-0.5l0,0c0.2,0,0.5,0,0.7,0h8.8c1.9,0,3.6,0.8,4.9,2.1v-6c0-1.1-0.9-2-2-2H45.9
	c-1.1,0-2,0.9-2,2v2v2v2c0.6-0.6,1.2-1.1,2-1.4C46,36.6,46,36.6,46.1,36.5"/>
<path class="st1" d="M59.1,51.6c-0.8,0-1.5-0.7-1.5-1.5s0.7-1.5,1.5-1.5s1.5,0.7,1.5,1.5C60.6,51,59.9,51.6,59.1,51.6 M47.4,51.6
	c-0.8,0-1.5-0.7-1.5-1.5s0.7-1.5,1.5-1.5s1.5,0.7,1.5,1.5C48.8,51,48.2,51.6,47.4,51.6 M46.9,42.8c0-0.8,0.5-1.5,1.2-1.8l0,0
	c0.2-0.1,0.5-0.2,0.8-0.2h8.8c0.9,0,1.7,0.6,1.9,1.5c0,0.1,0.1,0.3,0.1,0.5v2.9H46.9V42.8z M62.5,45.7v-2.9c0-2.7-2.2-4.9-4.9-4.9
	h-8.8c-1.1,0-2.1,0.4-2.9,1c-0.1,0.1-0.2,0.1-0.3,0.2c-0.4,0.3-0.7,0.7-0.9,1.1C44.2,41,44,41.8,44,42.8v2.9c-0.5,0-1,0.4-1,1v7.8
	c0,0.5,0.4,1,1,1h1V57c0,0.8,0.7,1.5,1.5,1.5S48,57.8,48,57v-1.5h10.7V57c0,0.8,0.7,1.5,1.5,1.5s1.5-0.7,1.5-1.5v-1.5h1
	c0.5,0,1-0.4,1-1v-7.8C63.5,46.2,63,45.8,62.5,45.7"/>
</svg>
