<?xml version="1.0" encoding="utf-8"?>
<!-- Generator: Adobe Illustrator 25.0.0, SVG Export Plug-In . SVG Version: 6.00 Build 0)  -->
<svg version="1.1" id="Layer_1" xmlns="http://www.w3.org/2000/svg" xmlns:xlink="http://www.w3.org/1999/xlink" x="0px" y="0px"
	 viewBox="0 0 86 85" style="enable-background:new 0 0 86 85;" xml:space="preserve">
<style type="text/css">
	.st0{fill:#FFFFFF;stroke:#4E628B;stroke-miterlimit:10;stroke-dasharray:3.005,3.005;}
	.st1{fill:#4E618A;}
</style>
<circle class="st0" cx="43" cy="42" r="39.5"/>
<path class="st1" d="M51.8,22.5l-18.7,9.9c-0.4,0.2-0.6,0.6-0.6,1.1V40v6.5c0,0.5,0.2,0.9,0.6,1.1l18.7,9.9c1.5,0.8,3.3-0.4,3.3-2.1
	V40V24.7C55,22.9,53.3,21.7,51.8,22.5"/>
<path class="st1" d="M29.3,33h-8.6c-1.8,0-3.2,1.4-3.2,3.2v7.5c0,1.8,1.4,3.2,3.2,3.2h1v7c0,1.5,1.2,2.7,2.7,2.7s2.7-1.2,2.7-2.7v-7
	h2.1c0.6,0,1.1-0.5,1.1-1.1V34.1C30.3,33.5,29.9,33,29.3,33"/>
<path class="st1" d="M67.4,38.4h-7.5c-0.9,0-1.6,1.3-1.6,2.9s0.7,2.9,1.6,2.9h7.5c0.9,0,1.6-1.3,1.6-2.9S68.3,38.4,67.4,38.4"/>
<path class="st1" d="M60.6,33.9l6.5-3.8c0.8-0.4,1-1.4,0.6-2.2c-0.4-0.8-1.4-1-2.2-0.6L59,31.1c-0.8,0.4-1,1.4-0.6,2.2
	C58.9,34,59.8,34.3,60.6,33.9"/>
<path class="st1" d="M67.1,49.9l-6.5-3.8c-0.8-0.4-1.8-0.2-2.2,0.6s-0.2,1.8,0.6,2.2l6.5,3.8c0.8,0.4,1.8,0.2,2.2-0.6
	C68.2,51.3,67.9,50.3,67.1,49.9"/>
</svg>
