<?xml version="1.0" encoding="utf-8"?>
<!-- Generator: Adobe Illustrator 25.0.0, SVG Export Plug-In . SVG Version: 6.00 Build 0)  -->
<svg version="1.1" id="Layer_1" xmlns="http://www.w3.org/2000/svg" xmlns:xlink="http://www.w3.org/1999/xlink" x="0px" y="0px"
	 viewBox="0 0 86 85" style="enable-background:new 0 0 86 85;" xml:space="preserve">
<style type="text/css">
	.st0{fill:#4E618A;}
	.st1{fill:#FFFFFF;}
</style>
<path class="st0" d="M83.4,42.5C83.4,64.9,65.2,83,42.9,83S2.4,64.9,2.4,42.5S20.5,2,42.9,2S83.4,20.1,83.4,42.5"/>
<path class="st1" d="M29,46.7l1.9-1.9c0.3-0.3,0.5-0.7,0.6-1.1c0.1-0.6-0.1-1.4-0.6-1.9c-0.3-0.3-0.7-0.5-1-0.6
	c-0.2,0-0.3-0.1-0.5-0.1c-0.5,0-1,0.2-1.4,0.6L25,44.7L22.7,47c-0.8,0.8-0.8,2.1,0.1,3c0.4,0.4,1,0.6,1.5,0.6c0.5,0,1-0.2,1.4-0.6
	L29,46.7z"/>
<path class="st1" d="M43.6,29.9l-0.3,0.3l-4,4l-0.1,0.1l-1.6,1.5c-0.8,0.8-1.8,1.2-3,1.2c-0.1,0-0.3,0-0.4,0c0,0-0.1,0-0.1,0
	c-0.9-0.1-1.8-0.5-2.4-1.2c-1.6-1.6-1.6-4.3,0-5.9l8.9-8.9c0.2-0.2,0.4-0.4,0.7-0.6c-5.6-3.5-13.1-2.8-18,2.1
	c-5.7,5.7-5.7,14.9,0,20.7l0.1,0.1l3-3c0.8-0.8,1.8-1.2,2.9-1.2c0.7,0,1.5,0.2,2.1,0.6c0.3,0.2,0.6,0.4,0.9,0.7
	c0.5,0.6,0.9,1.2,1.1,1.9c0.1,0.3,0.1,0.7,0.1,1c0,0.4,0,0.8-0.1,1.2c0.3-0.1,0.7-0.1,1.1-0.1c1.1,0,2.2,0.4,3,1.3
	c0.8,0.8,1.2,1.8,1.3,2.9c0,0.4,0,0.8-0.1,1.2c0.3-0.1,0.7-0.1,1.1-0.1c1.1,0,2.2,0.4,3,1.3c0.8,0.8,1.2,1.8,1.3,2.9
	c0,0.4,0,0.8-0.1,1.2c0.3-0.1,0.7-0.1,1.1-0.1c1.1,0,2.2,0.4,3,1.3c0.8,0.8,1.2,1.8,1.3,2.9c0,0.6-0.1,1.3-0.4,1.8
	c0.4,0.2,0.8,0.2,1.2,0.2c0.8,0,1.6-0.3,2.2-0.9c1-1,1.2-2.5,0.5-3.7c0.5,0.3,1.1,0.5,1.6,0.5c0.8,0,1.6-0.3,2.2-0.9
	c1.1-1.1,1.2-2.7,0.4-3.9c0.5,0.3,1,0.4,1.5,0.4c0.8,0,1.6-0.3,2.2-0.9c1.2-1.2,1.2-3.2,0-4.4L43.6,29.9z"/>
<path class="st1" d="M45,56.9c-0.1,0-0.2,0-0.3,0c-0.4,0.1-0.8,0.3-1.1,0.6l-5.2,5.2c-0.8,0.8-0.8,2.1,0.1,3c0.4,0.4,1,0.6,1.5,0.6
	c0.5,0,1-0.2,1.4-0.6l5.2-5.2c0.3-0.3,0.5-0.7,0.6-1.1c0.1-0.6-0.1-1.4-0.6-1.9C46.1,57.1,45.5,56.9,45,56.9"/>
<path class="st1" d="M36.7,49c0.1-0.6-0.1-1.4-0.6-1.9c-0.4-0.4-1-0.6-1.5-0.6c-0.1,0-0.2,0-0.3,0c-0.4,0.1-0.8,0.3-1.1,0.6
	l-5.2,5.2c-0.8,0.8-0.8,2.1,0.1,3c0.4,0.4,1,0.6,1.5,0.6c0.5,0,1-0.2,1.4-0.6l5.2-5.2C36.4,49.8,36.6,49.4,36.7,49"/>
<path class="st1" d="M41.9,54.2c0.1-0.6-0.1-1.4-0.6-1.9c-0.4-0.4-1-0.6-1.5-0.6c-0.1,0-0.2,0-0.3,0c-0.4,0.1-0.8,0.3-1.1,0.6
	l-5.2,5.2c-0.8,0.8-0.8,2.1,0.1,3c0.4,0.4,1,0.6,1.5,0.6c0.5,0,1-0.2,1.4-0.6l5.2-5.2C41.7,55,41.8,54.6,41.9,54.2"/>
<path class="st1" d="M62.7,22.6c-2.8-2.8-6.6-4.3-10.3-4.3c-1.9,0-3.7,0.4-5.5,1.1c-1.4,0.6-2.7,1.3-3.9,2.3
	c-0.3,0.3-0.6,0.6-0.9,0.9l-8.9,8.9c-0.8,0.8-0.8,2.1,0,3c0.4,0.4,0.9,0.6,1.5,0.6c0.5,0,1.1-0.2,1.5-0.6l7.7-7.7l2.6,2.6l15,15
	c0.4-0.3,0.9-0.7,1.3-1.1C68.4,37.5,68.4,28.3,62.7,22.6"/>
</svg>
