<?xml version="1.0" encoding="utf-8"?>
<!-- Generator: Adobe Illustrator 25.0.0, SVG Export Plug-In . SVG Version: 6.00 Build 0)  -->
<svg version="1.1" id="Layer_1" xmlns="http://www.w3.org/2000/svg" xmlns:xlink="http://www.w3.org/1999/xlink" x="0px" y="0px"
	 viewBox="0 0 86 85" style="enable-background:new 0 0 86 85;" xml:space="preserve">
<style type="text/css">
	.st0{fill:#FAA419;}
	.st1{fill:#FFFFFF;}
</style>
<path class="st0" d="M83.4,42.5C83.4,64.9,65.2,83,42.9,83S2.4,64.9,2.4,42.5S20.5,2,42.9,2S83.4,20.1,83.4,42.5"/>
<path class="st1" d="M21.1,42.5c1.4,0,2.5-1.1,2.5-2.5c0-6.5,5.3-11.6,12-11.6h22.7l-2.8,2.8c-1,1-1,2.6,0,3.6
	c0.5,0.5,1.1,0.7,1.8,0.7c0.6,0,1.3-0.2,1.8-0.7l7.1-7.1c0.5-0.5,0.7-1.1,0.7-1.8c0-0.7-0.3-1.3-0.7-1.8l-7.1-7.1c-1-1-2.6-1-3.6,0
	c-1,1-1,2.6,0,3.6l2.7,2.7H35.6c-9.5,0-17,7.3-17,16.6C18.6,41.4,19.7,42.5,21.1,42.5"/>
<path class="st1" d="M59.1,39.2c-1-1-2.6-1-3.6,0c-1,1-1,2.6,0,3.6l2.7,2.8H35.6c-9.5,0-17,7.3-17,16.6c0,1.4,1.1,2.5,2.5,2.5
	c1.4,0,2.5-1.1,2.5-2.5c0-6.5,5.3-11.6,12-11.6h22.7l-2.8,2.8c-1,1-1,2.6,0,3.6c0.5,0.5,1.1,0.7,1.8,0.7c0.6,0,1.3-0.2,1.8-0.7
	l7.1-7.1c0.5-0.5,0.7-1.1,0.7-1.8c0-0.7-0.3-1.3-0.7-1.8L59.1,39.2z"/>
</svg>
