<?xml version="1.0" encoding="utf-8"?>
<!-- Generator: Adobe Illustrator 25.0.0, SVG Export Plug-In . SVG Version: 6.00 Build 0)  -->
<svg version="1.1" id="Layer_1" xmlns="http://www.w3.org/2000/svg" xmlns:xlink="http://www.w3.org/1999/xlink" x="0px" y="0px"
	 viewBox="0 0 86 85" style="enable-background:new 0 0 86 85;" xml:space="preserve">
<style type="text/css">
	.st0{fill:#FFFFFF;stroke:#4E628B;stroke-miterlimit:10;stroke-dasharray:3.005,3.005;}
	.st1{fill:#4E618A;}
</style>
<circle class="st0" cx="43" cy="42" r="39.5"/>
<path class="st1" d="M43.1,50.6L43.1,50.6c4.5,0,8.2-3.7,8.2-8.2V25c0-4.5-3.7-8.2-8.2-8.2l0,0c-4.5,0-8.2,3.7-8.2,8.2v17.5
	C34.9,47,38.6,50.6,43.1,50.6"/>
<path class="st1" d="M57.4,41.9c0-0.8-0.7-1.5-1.5-1.5s-1.5,0.7-1.5,1.5c0,6.2-5.1,11.3-11.3,11.3s-11.2-5.1-11.2-11.3
	c0-0.8-0.7-1.5-1.5-1.5s-1.5,0.7-1.5,1.5c0,7.2,5.4,13.2,12.3,14.2v5.8h-4.1c-1.5,0-2.6,1.5-1.8,3.1c0.3,0.7,1,1,1.8,1h12.3
	c1.5,0,2.6-1.5,1.8-3.1c-0.3-0.7-1-1-1.8-1h-4.1v-5.8C52.1,55.1,57.4,49.1,57.4,41.9"/>
</svg>
