<?xml version="1.0" encoding="utf-8"?>
<!-- Generator: Adobe Illustrator 25.0.0, SVG Export Plug-In . SVG Version: 6.00 Build 0)  -->
<svg version="1.1" id="Layer_1" xmlns="http://www.w3.org/2000/svg" xmlns:xlink="http://www.w3.org/1999/xlink" x="0px" y="0px"
	 viewBox="0 0 86 85" style="enable-background:new 0 0 86 85;" xml:space="preserve">
<style type="text/css">
	.st0{fill:#FAA419;}
	.st1{fill:#FFFFFF;}
</style>
<path class="st0" d="M83.4,42.5C83.4,64.9,65.2,83,42.9,83S2.4,64.9,2.4,42.5S20.5,2,42.9,2S83.4,20.1,83.4,42.5"/>
<path class="st1" d="M43.1,59.8c0-0.1,0-0.1-0.1-0.2c0-0.1,0-0.1-0.1-0.2c0,0-0.1-0.1-0.1-0.1c-0.1-0.1-0.1-0.2-0.2-0.2c0,0,0,0,0,0
	l-3.9-3.3V39.2L42,40v-2.6v-1.8v-3l-3.3-1.5v-8.8c0-1.8-1.4-3.2-3.2-3.2c-1.8,0-3.2,1.4-3.2,3.2v8.8l-15.9,7.5
	c-0.4,0.2-0.8,0.5-1,0.9c0,0-0.1,0.1-0.1,0.1c0,0,0,0.1-0.1,0.1c0,0.1-0.1,0.1-0.1,0.2c-0.1,0.3-0.1,0.7,0,1.1c0,0,0,0,0,0
	c0,0.1,0,0.1,0.1,0.2c0,0.1,0,0.2,0.1,0.2c0.2,0.4,0.5,0.7,0.9,0.9c0,0,0.1,0.1,0.2,0.1c0,0,0.1,0,0.1,0.1c0.1,0,0.1,0.1,0.2,0.1
	c0.2,0.1,0.4,0.1,0.6,0.1c0.2,0,0.3,0,0.5-0.1h0l14.6-3.4v16.6l-3.9,3.3c0,0,0,0,0,0c-0.1,0.1-0.1,0.1-0.2,0.2c0,0-0.1,0.1-0.1,0.1
	c0,0.1,0,0.1-0.1,0.2c0,0.1-0.1,0.1-0.1,0.2c0,0,0,0.1,0,0.1c0,0.1,0,0.2,0,0.3c0,0,0,0,0,0c0,0.1,0.1,0.1,0.1,0.2
	c0,0.1,0.1,0.1,0.1,0.2c0,0,0,0,0,0c0.1,0.1,0.1,0.1,0.2,0.2c0,0,0.1,0.1,0.1,0.1c0,0,0.1,0,0.1,0c0.1,0,0.2,0.1,0.3,0.1
	c0,0,0.1,0,0.1,0c0.1,0,0.2,0,0.3,0c0,0,0,0,0,0l6.1-2l6.1,2l0,0c0.1,0,0.2,0.1,0.3,0.1c0.1,0,0.3,0,0.4-0.1c0,0,0.1,0,0.1-0.1
	c0.1-0.1,0.2-0.1,0.3-0.2c0,0,0,0,0,0c0,0,0,0,0,0c0.1-0.1,0.1-0.2,0.2-0.3c0,0,0,0,0,0c0-0.1,0-0.2,0-0.3
	C43.1,59.9,43.1,59.8,43.1,59.8"/>
<path class="st1" d="M47.6,36.8c0.7-0.3,1.4-0.5,2.2-0.6h0c0.2,0,0.5,0,0.8,0h9.7c2.1,0,4,0.9,5.4,2.3v-6.6c0-1.2-1-2.2-2.2-2.2
	H47.4c-1.2,0-2.2,1-2.2,2.2v2.2v2.2v2.2c0.6-0.6,1.3-1.2,2.2-1.5C47.5,36.9,47.5,36.9,47.6,36.8"/>
<path class="st1" d="M61.9,53.5c-0.9,0-1.6-0.7-1.6-1.6c0-0.9,0.7-1.6,1.6-1.6c0.9,0,1.6,0.7,1.6,1.6C63.6,52.7,62.8,53.5,61.9,53.5
	 M49,53.5c-0.9,0-1.6-0.7-1.6-1.6c0-0.9,0.7-1.6,1.6-1.6s1.6,0.7,1.6,1.6C50.6,52.7,49.9,53.5,49,53.5 M48.5,43.8
	c0-0.9,0.5-1.6,1.3-2h0c0.3-0.1,0.6-0.2,0.9-0.2h9.7c1,0,1.9,0.7,2.1,1.6c0,0.2,0.1,0.3,0.1,0.5V47h-14V43.8z M65.7,47v-3.2
	c0-3-2.4-5.4-5.4-5.4h-9.7c-1.2,0-2.3,0.4-3.2,1.1c-0.1,0.1-0.2,0.2-0.3,0.3c-0.4,0.3-0.7,0.7-1,1.2c-0.5,0.8-0.8,1.8-0.8,2.9V47
	c-0.6,0-1.1,0.5-1.1,1.1v8.6c0,0.6,0.5,1.1,1.1,1.1h1.1v1.6c0,0.9,0.7,1.6,1.6,1.6s1.6-0.7,1.6-1.6v-1.6h11.8v1.6
	c0,0.9,0.7,1.6,1.6,1.6c0.9,0,1.6-0.7,1.6-1.6v-1.6h1.1c0.6,0,1.1-0.5,1.1-1.1v-8.6C66.8,47.5,66.3,47,65.7,47"/>
</svg>
