<?xml version="1.0" encoding="utf-8"?>
<!-- Generator: Adobe Illustrator 25.0.0, SVG Export Plug-In . SVG Version: 6.00 Build 0)  -->
<svg version="1.1" id="Layer_1" xmlns="http://www.w3.org/2000/svg" xmlns:xlink="http://www.w3.org/1999/xlink" x="0px" y="0px"
	 viewBox="0 0 86 85" style="enable-background:new 0 0 86 85;" xml:space="preserve">
<style type="text/css">
	.st0{fill:#FFFFFF;stroke:#4E628B;stroke-miterlimit:10;stroke-dasharray:3.005,3.005;}
	.st1{fill:#4E618A;}
</style>
<circle class="st0" cx="43" cy="42" r="39.5"/>
<path class="st1" d="M44.2,53.5v1.4c0,0.8-0.6,1.4-1.4,1.4c-0.8,0-1.4-0.6-1.4-1.4v-1.4h-0.5c-0.8,0-1.4-0.6-1.4-1.4
	c0-0.8,0.6-1.4,1.4-1.4h2.8c0.8,0,1.4-0.6,1.4-1.4c0-0.8-0.6-1.4-1.4-1.4h-0.8c-2.3,0-4.2-1.9-4.2-4.2c0-1.8,1.2-3.4,2.8-4v-1.6
	c0-0.8,0.6-1.4,1.4-1.4c0.8,0,1.4,0.6,1.4,1.4v1.4h1.4c0.8,0,1.4,0.6,1.4,1.4c0,0.8-0.6,1.4-1.4,1.4H43c-0.8,0-1.5,0.6-1.5,1.4
	c0,0.8,0.7,1.4,1.5,1.4h0.8c2.3,0,4.2,1.9,4.2,4.2C47.9,51.5,46.3,53.3,44.2,53.5 M58.9,44.7l-7.3-14.4H34.8l-7.3,14.4
	c-2.2,5.2-0.8,10.7,2.6,14.2c2.3,2.4,5.6,3.9,9.3,3.9H47c3.8,0,7-1.5,9.3-3.9C59.8,55.3,61.1,49.8,58.9,44.7"/>
<path class="st1" d="M34.8,28.4h7.5l-1.5-6.9C40.6,20.6,39.9,20,39,20h-5c-0.6,0-1,0.6-0.9,1.1L34.8,28.4z"/>
<path class="st1" d="M47.9,28.4L47.9,28.4h3.7l1.9-9.2c0.1-0.6-0.3-1.1-0.9-1.1h-2.8c-1,0-1.9,0.8-1.9,1.9c0-1-0.8-1.9-1.9-1.9h-2.8
	c-0.6,0-1,0.5-0.9,1.1l1.8,9.2C44.1,28.4,47.9,28.4,47.9,28.4z"/>
</svg>
