<?xml version="1.0" encoding="utf-8"?>
<!-- Generator: Adobe Illustrator 25.0.0, SVG Export Plug-In . SVG Version: 6.00 Build 0)  -->
<svg version="1.1" id="Layer_1" xmlns="http://www.w3.org/2000/svg" xmlns:xlink="http://www.w3.org/1999/xlink" x="0px" y="0px"
	 viewBox="0 0 86 85" style="enable-background:new 0 0 86 85;" xml:space="preserve">
<style type="text/css">
	.st0{fill:#FAA419;}
	.st1{fill:#FFFFFF;}
</style>
<path class="st0" d="M83.4,42.5C83.4,64.9,65.2,83,42.9,83S2.4,64.9,2.4,42.5S20.5,2,42.9,2S83.4,20.1,83.4,42.5"/>
<path class="st1" d="M65.3,57.6h-46c-0.8,0-1.5,1.2-1.5,2.7c0,1.5,0.7,2.7,1.5,2.7h46c0.8,0,1.5-1.2,1.5-2.7
	C66.9,58.8,66.2,57.6,65.3,57.6"/>
<path class="st1" d="M23.4,57.9h37.8c0.8,0,1.5-1.2,1.5-2.7s-0.7-2.7-1.5-2.7H23.4c-0.8,0-1.5,1.2-1.5,2.7S22.6,57.9,23.4,57.9"/>
<rect x="28" y="29" class="st1" width="5.4" height="21.5"/>
<rect x="36.2" y="29" class="st1" width="5.4" height="21.5"/>
<rect x="44.4" y="29" class="st1" width="5.4" height="21.5"/>
<rect x="52.6" y="29" class="st1" width="5.4" height="21.5"/>
<path class="st1" d="M26,26.9h32.7c1.1,0,2-0.9,2-2c0-1.1-0.9-2-2-2H43.4v-3.1h9.2v-6.1h-9.2v-0.5c0-0.8-0.7-1.5-1.5-1.5
	s-1.5,0.7-1.5,1.5v9.7H26c-1.1,0-2,0.9-2,2C23.9,26,24.9,26.9,26,26.9"/>
</svg>
