<?xml version="1.0" encoding="utf-8"?>
<!-- Generator: Adobe Illustrator 25.0.0, SVG Export Plug-In . SVG Version: 6.00 Build 0)  -->
<svg version="1.1" id="Layer_1" xmlns="http://www.w3.org/2000/svg" xmlns:xlink="http://www.w3.org/1999/xlink" x="0px" y="0px"
	 viewBox="0 0 86 85" style="enable-background:new 0 0 86 85;" xml:space="preserve">
<style type="text/css">
	.st0{fill:#FAA419;}
	.st1{fill:#FFFFFF;}
</style>
<path class="st0" d="M83.4,42.5C83.4,64.9,65.2,83,42.9,83S2.4,64.9,2.4,42.5S20.5,2,42.9,2S83.4,20.1,83.4,42.5"/>
<path class="st1" d="M26.9,48.9L19.8,56c-1.6,1.6-1.6,4.2,0,5.8c1.6,1.6,4.2,1.6,5.8,0l7.2-7.2C30.5,53.1,28.5,51.1,26.9,48.9"/>
<path class="st1" d="M40.5,35.1h-4c-0.5,0-1,0.4-1,1v4.9c1.3,2.4,3.4,4.4,6,5.5V36.1C41.5,35.6,41.1,35.1,40.5,35.1"/>
<path class="st1" d="M56.5,29.1h-4c-0.5,0-1,0.5-1,1v16.4c2.6-1.1,4.7-3.1,6-5.5V30.1C57.5,29.6,57,29.1,56.5,29.1"/>
<path class="st1" d="M48.5,32.1h-4c-0.5,0-1,0.4-1,1v14.1c1,0.2,2,0.4,3,0.4c1,0,2-0.1,3-0.4V33.1C49.5,32.6,49,32.1,48.5,32.1"/>
<path class="st1" d="M57.5,45.3c-1.6,1.8-3.7,3.1-6,3.9c-0.7,0.2-1.3,0.4-2,0.6c-1,0.2-2,0.3-3,0.3s-2-0.1-3-0.3
	c-0.7-0.1-1.3-0.3-2-0.6c-2.3-0.8-4.4-2.2-6-3.9c-2.5-2.7-4-6.2-4-10.1c0-8.3,6.7-15,15-15s15,6.7,15,15
	C61.4,39,59.9,42.6,57.5,45.3 M46.5,15.2c-11,0-19.9,8.9-19.9,19.9s8.9,19.9,19.9,19.9s19.9-8.9,19.9-19.9S57.5,15.2,46.5,15.2"/>
</svg>
