<?xml version="1.0" encoding="utf-8"?>
<!-- Generator: Adobe Illustrator 25.0.0, SVG Export Plug-In . SVG Version: 6.00 Build 0)  -->
<svg version="1.1" id="Layer_1" xmlns="http://www.w3.org/2000/svg" xmlns:xlink="http://www.w3.org/1999/xlink" x="0px" y="0px"
	 viewBox="0 0 86 85" style="enable-background:new 0 0 86 85;" xml:space="preserve">
<style type="text/css">
	.st0{fill:#FAA419;}
	.st1{fill:#FFFFFF;}
</style>
<g>
	<path class="st0" d="M83.4,42.5C83.4,64.9,65.2,83,42.9,83S2.4,64.9,2.4,42.5S20.5,2,42.9,2S83.4,20.1,83.4,42.5"/>
	<path class="st1" d="M42.9,37.4c-2.8,0-5.1,2.3-5.1,5.1c0,2.8,2.3,5.1,5.1,5.1c2.8,0,5.1-2.3,5.1-5.1
		C47.9,39.7,45.7,37.4,42.9,37.4"/>
	<path class="st1" d="M42.9,34.4c1.7,0,3-1.4,3-3V21.2c0-1.7-1.4-3-3-3c-1.7,0-3,1.4-3,3v10.1C39.8,33,41.2,34.4,42.9,34.4"/>
	<path class="st1" d="M36.9,36.5c1.2-1.2,1.2-3.2,0-4.4L23.8,19.1c-1.2-1.2-3.2-1.2-4.4,0c-1.2,1.2-1.2,3.1,0,4.4l13.1,13.1
		C33.8,37.7,35.7,37.7,36.9,36.5"/>
	<path class="st1" d="M31.8,39.5h-6.1c-1.7,0-3,1.4-3,3v0c0,1.7,1.4,3,3,3h6.1c1.7,0,3-1.4,3-3v0C34.8,40.8,33.4,39.5,31.8,39.5"/>
	<path class="st1" d="M32.8,48.4l-9.4,9.4c-1.1,1.1-1.1,3,0,4.1c1.1,1.1,3,1.1,4.1,0l9.4-9.4c1.1-1.1,1.1-3,0-4.1
		C35.8,47.3,34,47.3,32.8,48.4"/>
	<path class="st1" d="M42.9,50.6c-1.7,0-3,1.4-3,3v10.1c0,1.7,1.4,3,3,3s3-1.4,3-3V53.6C45.9,51.9,44.6,50.6,42.9,50.6"/>
	<path class="st1" d="M53,48.4c-1.1-1.1-3-1.1-4.1,0c-1.1,1.1-1.1,3,0,4.1l5.2,5.2c1.1,1.1,3,1.1,4.1,0c1.1-1.1,1.1-3,0-4.1L53,48.4
		z"/>
	<path class="st1" d="M64,39.5h-9.7c-1.8,0-3.2,1.4-3.2,3s1.4,3,3.2,3H64c1.8,0,3.2-1.4,3.2-3S65.7,39.5,64,39.5"/>
	<path class="st1" d="M52.8,36.6l3.4-3.3c1.1-1.1,1.1-3,0-4.1c-1.1-1.1-3-1.1-4.1,0l-3.3,3.3c-1.1,1.1-1.1,3,0,4.1
		C49.9,37.7,51.7,37.7,52.8,36.6"/>
</g>
</svg>
