<?xml version="1.0" encoding="utf-8"?>
<!-- Generator: Adobe Illustrator 25.0.0, SVG Export Plug-In . SVG Version: 6.00 Build 0)  -->
<svg version="1.1" id="Layer_1" xmlns="http://www.w3.org/2000/svg" xmlns:xlink="http://www.w3.org/1999/xlink" x="0px" y="0px"
	 viewBox="0 0 86 85" style="enable-background:new 0 0 86 85;" xml:space="preserve">
<style type="text/css">
	.st0{fill:#FFFFFF;stroke:#4E628B;stroke-miterlimit:10;stroke-dasharray:3.005,3.005;}
	.st1{fill:#4E618A;}
</style>
<circle class="st0" cx="43" cy="42" r="39.5"/>
<path class="st1" d="M61.9,33.6C60.5,24.3,52.4,17,42.7,17s-17.8,7.2-19.2,16.6c-2.3,0.3-4.2,2.3-4.2,4.8v8.7c0,2.7,2.2,4.9,4.9,4.9
	h3.9c1.1,0,1.9-0.9,1.9-1.9V35.5c0-1.1-0.9-1.9-1.9-1.9h-0.6C28.9,26.4,35.2,21,42.7,21S56.6,26.4,58,33.5h-0.7
	c-1.1,0-1.9,0.9-1.9,1.9V50c0,1.1,0.9,1.9,1.9,1.9h0.9c-0.5,3.3-3.4,5.8-6.8,5.8H48c-0.7-1.2-1.9-1.9-3.3-1.9
	c-2.1,0-3.9,1.7-3.9,3.9c0,2.1,1.7,3.9,3.9,3.9c1.4,0,2.7-0.8,3.3-1.9h3.4c5.6,0,10.2-4.3,10.7-9.8c2.2-0.5,3.9-2.4,3.9-4.8v-8.7
	C66,36,64.2,34,61.9,33.6"/>
</svg>
