<?xml version="1.0" encoding="utf-8"?>
<!-- Generator: Adobe Illustrator 25.0.0, SVG Export Plug-In . SVG Version: 6.00 Build 0)  -->
<svg version="1.1" id="Layer_1" xmlns="http://www.w3.org/2000/svg" xmlns:xlink="http://www.w3.org/1999/xlink" x="0px" y="0px"
	 viewBox="0 0 86 85" style="enable-background:new 0 0 86 85;" xml:space="preserve">
<style type="text/css">
	.st0{fill:#4E618A;}
	.st1{clip-path:url(#SVGID_2_);fill:#FFFFFF;}
	.st2{clip-path:url(#SVGID_2_);fill:none;stroke:#FFFFFF;stroke-miterlimit:10;}
</style>
<path class="st0" d="M83.4,42.5C83.4,64.9,65.2,83,42.9,83S2.4,64.9,2.4,42.5S20.5,2,42.9,2S83.4,20.1,83.4,42.5"/>
<g>
	<defs>
		<rect id="SVGID_1_" x="17.8" y="16" width="50.3" height="50.5"/>
	</defs>
	<clipPath id="SVGID_2_">
		<use xlink:href="#SVGID_1_"  style="overflow:visible;"/>
	</clipPath>
	<path class="st1" d="M34.9,22.6c2.7-1.1,5.6-1.7,8.5-1.7c3,0,5.8,0.6,8.5,1.7c2.6,1.1,5,2.7,7,4.7c0.5,0.5,1,1,1.4,1.6L53,29.9
		c-0.6,0-1,0.4-1,1c0,0.6,0.4,1,1,1l9.3-1.1c0.1,0,0.1,0,0.2,0c0,0,0,0,0,0c0,0,0,0,0.1,0c0,0,0,0,0,0c0.4-0.1,0.6-0.4,0.7-0.8
		c0,0,0-0.1,0-0.1l0-11.1c0-0.6-0.4-1-1-1c-0.6,0-1,0.4-1,1l0,8.2c-4.4-5-10.8-8.1-17.9-8.1c-13.2,0-23.9,10.8-23.9,23.9
		c0,0.6,0.4,1,1,1c0.6,0,1-0.4,1-1c0-3,0.6-5.8,1.7-8.5c1.1-2.6,2.7-5,4.7-7C29.9,25.2,32.2,23.7,34.9,22.6"/>
	<path class="st2" d="M34.9,22.6c2.7-1.1,5.6-1.7,8.5-1.7c3,0,5.8,0.6,8.5,1.7c2.6,1.1,5,2.7,7,4.7c0.5,0.5,1,1,1.4,1.6L53,29.9
		c-0.6,0-1,0.4-1,1c0,0.6,0.4,1,1,1l9.3-1.1c0.1,0,0.1,0,0.2,0c0,0,0,0,0,0c0,0,0,0,0.1,0c0,0,0,0,0,0c0.4-0.1,0.6-0.4,0.7-0.8
		c0,0,0-0.1,0-0.1l0-11.1c0-0.6-0.4-1-1-1c-0.6,0-1,0.4-1,1l0,8.2c-4.4-5-10.8-8.1-17.9-8.1c-13.2,0-23.9,10.8-23.9,23.9
		c0,0.6,0.4,1,1,1c0.6,0,1-0.4,1-1c0-3,0.6-5.8,1.7-8.5c1.1-2.6,2.7-5,4.7-7C29.9,25.2,32.2,23.7,34.9,22.6z"/>
	<path class="st1" d="M50.9,60c-2.7,1.1-5.6,1.7-8.5,1.7c-3,0-5.8-0.6-8.5-1.7c-2.6-1.1-5-2.7-7-4.7c-0.5-0.5-1-1-1.4-1.6l7.3-1.1
		c0.6,0,1-0.4,1-1c0-0.6-0.4-1-1-1l-9.3,1.1c-0.1,0-0.1,0-0.2,0c0,0,0,0,0,0c0,0,0,0-0.1,0c0,0,0,0,0,0c-0.4,0.1-0.6,0.4-0.7,0.8
		c0,0,0,0.1,0,0.1l0,11.1c0,0.6,0.4,1,1,1c0.6,0,1-0.4,1-1l0-8.2c4.4,5,10.8,8.1,17.9,8.1c13.2,0,23.9-10.8,23.9-23.9
		c0-0.6-0.4-1-1-1s-1,0.4-1,1c0,3-0.6,5.8-1.7,8.5c-1.1,2.6-2.7,5-4.7,7C55.9,57.3,53.6,58.9,50.9,60"/>
	<path class="st2" d="M50.9,60c-2.7,1.1-5.6,1.7-8.5,1.7c-3,0-5.8-0.6-8.5-1.7c-2.6-1.1-5-2.7-7-4.7c-0.5-0.5-1-1-1.4-1.6l7.3-1.1
		c0.6,0,1-0.4,1-1c0-0.6-0.4-1-1-1l-9.3,1.1c-0.1,0-0.1,0-0.2,0c0,0,0,0,0,0c0,0,0,0-0.1,0c0,0,0,0,0,0c-0.4,0.1-0.6,0.4-0.7,0.8
		c0,0,0,0.1,0,0.1l0,11.1c0,0.6,0.4,1,1,1c0.6,0,1-0.4,1-1l0-8.2c4.4,5,10.8,8.1,17.9,8.1c13.2,0,23.9-10.8,23.9-23.9
		c0-0.6-0.4-1-1-1s-1,0.4-1,1c0,3-0.6,5.8-1.7,8.5c-1.1,2.6-2.7,5-4.7,7C55.9,57.3,53.6,58.9,50.9,60z"/>
</g>
</svg>
