<?xml version="1.0" encoding="utf-8"?>
<!-- Generator: Adobe Illustrator 25.0.0, SVG Export Plug-In . SVG Version: 6.00 Build 0)  -->
<svg version="1.1" id="Layer_1" xmlns="http://www.w3.org/2000/svg" xmlns:xlink="http://www.w3.org/1999/xlink" x="0px" y="0px"
	 viewBox="0 0 86 85" style="enable-background:new 0 0 86 85;" xml:space="preserve">
<style type="text/css">
	.st0{fill:#FFFFFF;stroke:#4E628B;stroke-miterlimit:10;stroke-dasharray:3.005,3.005;}
	.st1{fill:#4E618A;}
</style>
<circle class="st0" cx="43" cy="42" r="39.5"/>
<path class="st1" d="M30.3,53.7c1,0,1.8-0.8,1.8-1.8V36.7l4.1,4.1c0.3,0.3,0.8,0.5,1.3,0.5s0.9-0.2,1.3-0.5c0.7-0.7,0.7-1.8,0-2.5
	l-7.1-7.1c-0.7-0.7-1.8-0.7-2.5,0l-7.1,7.1c-0.7,0.7-0.7,1.8,0,2.5s1.8,0.7,2.5,0l4.1-4.1v15.2C28.5,52.9,29.3,53.7,30.3,53.7"/>
<path class="st1" d="M56.4,31.1c-0.7-0.7-1.8-0.7-2.5,0l-7.1,7.1c-0.7,0.7-0.7,1.8,0,2.5s1.8,0.7,2.5,0l4.1-4.1v15.2
	c0,1,0.8,1.8,1.8,1.8s1.8-0.8,1.8-1.8V36.7l4.1,4.1c0.3,0.3,0.8,0.5,1.3,0.5s0.9-0.2,1.3-0.5c0.7-0.7,0.7-1.8,0-2.5L56.4,31.1z"/>
<path class="st1" d="M63.1,58.1H22.3c-0.5,0-0.9,0.6-0.9,1.4v2.8c0,0.8,0.4,1.4,0.9,1.4h40.8c0.5,0,0.9-0.6,0.9-1.4v-2.8
	C64,58.7,63.6,58.1,63.1,58.1"/>
<path class="st1" d="M63.1,19.1H22.3c-0.5,0-0.9,0.4-0.9,0.9v7.1c0,0.5,0.4,0.9,0.9,0.9h40.8c0.5,0,0.9-0.4,0.9-0.9V20
	C64,19.5,63.6,19.1,63.1,19.1"/>
</svg>
