<?xml version="1.0" encoding="UTF-8"?>
<svg id="Layer_1" data-name="Layer 1" xmlns="http://www.w3.org/2000/svg" version="1.1" viewBox="0 0 42.35 42.12">
  <defs>
    <style>
      .cls-1 {
        fill: #fff;
      }

      .cls-1, .cls-2 {
        stroke-width: 0px;
      }

      .cls-2 {
        fill: #f9a31a;
      }
    </style>
  </defs>
  <circle class="cls-2" cx="21.18" cy="21.12" r="20.11"/>
  <g>
    <path class="cls-1" d="M26.13,28.74h-4.19v-14.11h3.93l-1.8,4.56c-.12.29.03.62.32.74.29.12.62-.03.74-.32l1.58-3.99,1.58,3.99c.12.29.45.44.74.32s.44-.45.32-.74h0s-2.11-5.34-2.11-5.34c-.08-.22-.3-.36-.53-.36h-4.77v-.76c0-.42-.34-.76-.76-.76s-.76.34-.76.76v.76h-4.77c-.23,0-.45.14-.53.36l-2.11,5.34c-.12.29.03.62.32.74.29.12.62-.03.74-.32l1.58-3.99,1.58,3.99c.12.29.45.44.74.32.29-.12.44-.45.32-.74,0,0,0,0,0,0l-1.8-4.56h3.93v14.11h-4.19c-.42,0-.76.34-.76.76s.34.76.76.76h9.91c.42,0,.76-.34.76-.76s-.34-.76-.76-.76Z"/>
    <path class="cls-1" d="M19.24,21.24c.01-.05-.02-.11-.07-.12,0,0-.01,0-.02,0h-7c-.05,0-.1.04-.1.1,0,0,0,.01,0,.02.47,1.99,2.47,3.21,4.45,2.74,1.35-.32,2.41-1.38,2.74-2.74Z"/>
    <path class="cls-1" d="M30.2,21.12h-7c-.05,0-.1.04-.1.1,0,0,0,.01,0,.02.47,1.99,2.47,3.21,4.45,2.74,1.35-.32,2.41-1.38,2.74-2.74.01-.05-.02-.11-.07-.12,0,0-.01,0-.02,0Z"/>
  </g>
</svg>