<?xml version="1.0" encoding="utf-8"?>
<!-- Generator: Adobe Illustrator 25.0.0, SVG Export Plug-In . SVG Version: 6.00 Build 0)  -->
<svg version="1.1" id="Layer_1" xmlns="http://www.w3.org/2000/svg" xmlns:xlink="http://www.w3.org/1999/xlink" x="0px" y="0px"
	 viewBox="0 0 500 500" style="enable-background:new 0 0 500 500;" xml:space="preserve">
<style type="text/css">
	.st0{fill:#335DAB;}
	.st1{fill:#FFFFFF;}
	.st2{fill:#2D2D2B;}
	.st3{fill:#F6A400;}
</style>
<rect x="0" y="0" class="st0" width="500" height="500"/>
<rect x="56.7" y="106.1" class="st1" width="383.1" height="333.9"/>
<g>
	<path class="st0" d="M156.1,175.2v24.7h-5.6v-24.7H156.1z"/>
	<path class="st0" d="M161.5,187.6c0-2.2-0.1-4.1-0.1-5.7h4.7l0.2,2.4h0.1c0.8-1.2,2.4-2.9,5.4-2.9c2.3,0,4.1,1.2,4.9,3.1h0.1
		c0.7-1,1.5-1.7,2.3-2.2c1-0.5,2.1-0.9,3.4-0.9c3.4,0,6,2.4,6,7.8v10.5h-5.4v-9.7c0-2.6-0.8-4.1-2.6-4.1c-1.3,0-2.2,0.9-2.6,1.9
		c-0.1,0.4-0.2,1-0.2,1.4v10.5h-5.4v-10.1c0-2.2-0.8-3.8-2.6-3.8c-1.4,0-2.3,1.1-2.6,2c-0.2,0.4-0.2,1-0.2,1.4v10.4h-5.4V187.6z"/>
	<path class="st0" d="M193.6,187.9c0-2.3-0.1-4.3-0.1-6h4.8l0.3,2.5h0.1c1.3-1.9,3.4-2.9,6-2.9c3.9,0,7.4,3.4,7.4,9.1
		c0,6.5-4.1,9.6-8.1,9.6c-2.2,0-3.8-0.9-4.6-2h-0.1v8.9h-5.6V187.9z M199.2,192.1c0,0.4,0,0.8,0.1,1.2c0.4,1.5,1.6,2.6,3.3,2.6
		c2.4,0,3.8-2,3.8-5c0-2.9-1.3-5-3.8-5c-1.6,0-3,1.2-3.3,2.8c-0.1,0.3-0.1,0.7-0.1,1V192.1z"/>
	<path class="st0" d="M231.1,195.5c0,1.7,0.1,3.3,0.3,4.3h-5l-0.3-1.8H226c-1.2,1.4-3,2.2-5.1,2.2c-3.6,0-5.8-2.6-5.8-5.5
		c0-4.6,4.2-6.8,10.5-6.8v-0.2c0-1-0.5-2.3-3.3-2.3c-1.8,0-3.8,0.6-4.9,1.4l-1-3.6c1.2-0.7,3.7-1.6,6.9-1.6c6,0,7.8,3.5,7.8,7.8
		V195.5z M225.7,191.4c-2.9,0-5.2,0.7-5.2,2.8c0,1.4,1,2.1,2.2,2.1c1.4,0,2.5-0.9,2.9-2c0.1-0.3,0.1-0.6,0.1-1V191.4z"/>
	<path class="st0" d="M236.3,187.8c0-2.6,0-4.4-0.1-5.9h4.8l0.2,3.3h0.1c0.9-2.6,3.1-3.7,4.8-3.7c0.5,0,0.8,0,1.2,0.1v5.2
		c-0.4-0.1-0.9-0.1-1.5-0.1c-2,0-3.4,1.1-3.8,2.8c-0.1,0.4-0.1,0.8-0.1,1.2v9.1h-5.6V187.8z"/>
	<path class="st0" d="M257.1,177.1v4.8h4v4.1h-4v6.5c0,2.2,0.5,3.1,2.2,3.1c0.8,0,1.1,0,1.6-0.1l0,4.2c-0.7,0.3-2,0.5-3.6,0.5
		c-1.8,0-3.3-0.6-4.2-1.5c-1-1.1-1.5-2.8-1.5-5.3V186h-2.4v-4.1h2.4v-3.3L257.1,177.1z"/>
	<path class="st0" d="M270.8,177c0,1.5-1.1,2.8-3,2.8c-1.8,0-2.9-1.2-2.9-2.8c0-1.6,1.2-2.8,3-2.8
		C269.7,174.2,270.8,175.4,270.8,177z M265.1,199.8v-17.9h5.6v17.9H265.1z"/>
	<path class="st0" d="M290.7,195.5c0,1.7,0.1,3.3,0.3,4.3h-5l-0.3-1.8h-0.1c-1.2,1.4-3,2.2-5.1,2.2c-3.6,0-5.8-2.6-5.8-5.5
		c0-4.6,4.2-6.8,10.5-6.8v-0.2c0-1-0.5-2.3-3.3-2.3c-1.8,0-3.8,0.6-4.9,1.4l-1-3.6c1.2-0.7,3.7-1.6,6.9-1.6c6,0,7.8,3.5,7.8,7.8
		V195.5z M285.3,191.4c-2.9,0-5.2,0.7-5.2,2.8c0,1.4,1,2.1,2.2,2.1c1.4,0,2.5-0.9,2.9-2c0.1-0.3,0.1-0.6,0.1-1V191.4z"/>
	<path class="st0" d="M295.9,173.8h5.6v26h-5.6V173.8z"/>
	<path class="st0" d="M312.4,177c0,1.5-1.1,2.8-3,2.8c-1.8,0-2.9-1.2-2.9-2.8c0-1.6,1.2-2.8,3-2.8
		C311.2,174.2,312.3,175.4,312.4,177z M306.6,199.8v-17.9h5.6v17.9H306.6z"/>
	<path class="st0" d="M323.6,177.1v4.8h4v4.1h-4v6.5c0,2.2,0.5,3.1,2.2,3.1c0.8,0,1.1,0,1.6-0.1l0,4.2c-0.7,0.3-2,0.5-3.6,0.5
		c-1.8,0-3.3-0.6-4.2-1.5c-1-1.1-1.5-2.8-1.5-5.3V186h-2.4v-4.1h2.4v-3.3L323.6,177.1z"/>
	<path class="st0" d="M335.7,181.9l2.7,8.8c0.3,1,0.7,2.4,0.9,3.3h0.1c0.2-1,0.5-2.3,0.8-3.4l2.2-8.8h5.9l-4.2,11.8
		c-2.6,7.1-4.3,9.9-6.3,11.7c-1.9,1.7-4,2.3-5.3,2.5l-1.2-4.7c0.7-0.1,1.6-0.5,2.4-1c0.8-0.4,1.8-1.4,2.3-2.2
		c0.2-0.3,0.3-0.6,0.3-0.8c0-0.2,0-0.5-0.2-0.9l-6.6-16.4H335.7z"/>
	<path class="st2" d="M111.4,232.5h-2.5v-8.2h-9v8.2h-2.5v-18.6h2.5v8.4h9v-8.4h2.5V232.5z"/>
	<path class="st2" d="M124.1,230.4c-0.4,0.7-1,1.3-1.7,1.7c-0.7,0.4-1.5,0.6-2.4,0.6c-1.5,0-2.7-0.5-3.5-1.4s-1.3-2.5-1.3-4.5v-8.1
		h2.5v8.2c0,1.5,0.2,2.5,0.7,3c0.4,0.6,1.1,0.8,2,0.8c0.9,0,1.6-0.2,2.2-0.5s1-0.9,1.3-1.5v-9.9h2.5v13.8h-2.3L124.1,230.4z"/>
	<path class="st2" d="M132.5,218.7l0.2,1.8c0.5-0.7,1-1.2,1.7-1.5c0.7-0.4,1.5-0.5,2.4-0.5c0.9,0,1.7,0.2,2.4,0.6
		c0.7,0.4,1.2,1.1,1.5,1.9c0.4-0.8,1-1.4,1.7-1.9c0.7-0.5,1.5-0.7,2.5-0.7c1.4,0,2.5,0.5,3.3,1.4c0.8,1,1.2,2.4,1.2,4.4v8.3h-2.5
		v-8.3c0-1.4-0.2-2.3-0.7-2.9s-1.2-0.8-2.1-0.8c-0.9,0-1.6,0.3-2.1,0.9c-0.5,0.6-0.8,1.3-0.9,2.3v0.1v8.8h-2.5v-8.3
		c0-1.3-0.2-2.2-0.7-2.8c-0.5-0.6-1.2-0.9-2.1-0.9c-0.8,0-1.4,0.2-1.9,0.5c-0.5,0.3-0.9,0.8-1.1,1.3v10.2h-2.5v-13.8H132.5z"/>
	<path class="st2" d="M161.5,232.5c-0.1-0.4-0.2-0.8-0.2-1.1s-0.1-0.6-0.1-1c-0.5,0.7-1.1,1.2-1.8,1.7s-1.6,0.7-2.4,0.7
		c-1.4,0-2.5-0.4-3.3-1.1c-0.8-0.7-1.1-1.7-1.1-3c0-1.3,0.5-2.3,1.6-3.1c1.1-0.7,2.5-1.1,4.3-1.1h2.7V223c0-0.8-0.2-1.4-0.7-1.9
		c-0.5-0.5-1.2-0.7-2.1-0.7c-0.8,0-1.5,0.2-2,0.6s-0.8,0.9-0.8,1.5l-2.4,0l0-0.1c-0.1-1,0.4-1.9,1.4-2.8s2.3-1.2,3.9-1.2
		c1.6,0,2.8,0.4,3.8,1.2c1,0.8,1.4,1.9,1.4,3.4v6.6c0,0.5,0,1,0.1,1.4c0.1,0.5,0.1,0.9,0.3,1.4H161.5z M157.4,230.6
		c0.9,0,1.7-0.2,2.5-0.7c0.7-0.5,1.2-1,1.4-1.6v-2.2h-2.8c-1,0-1.8,0.3-2.4,0.8s-0.9,1.1-0.9,1.8c0,0.6,0.2,1.1,0.6,1.5
		C156,230.4,156.6,230.6,157.4,230.6z"/>
	<path class="st2" d="M169.6,218.7l0.2,2.1c0.5-0.7,1-1.3,1.7-1.7c0.7-0.4,1.5-0.6,2.4-0.6c1.5,0,2.6,0.4,3.5,1.3
		c0.8,0.9,1.2,2.2,1.2,4v8.7h-2.5v-8.7c0-1.2-0.2-2.1-0.7-2.6s-1.2-0.8-2.2-0.8c-0.8,0-1.4,0.2-2,0.5s-1,0.7-1.3,1.3v10.2h-2.5
		v-13.8H169.6z"/>
	<path class="st2" d="M185,215.1h-2.5v-2.6h2.5V215.1z M185,232.5h-2.5v-13.8h2.5V232.5z"/>
	<path class="st2" d="M192.3,215.3v3.3h2.6v1.9h-2.6v8.4c0,0.6,0.1,1.1,0.4,1.4s0.6,0.4,1.1,0.4c0.1,0,0.3,0,0.5-0.1
		c0.2,0,0.3-0.1,0.4-0.1l0.3,1.7c-0.2,0.2-0.5,0.3-0.8,0.4c-0.4,0.1-0.7,0.1-1.1,0.1c-1,0-1.8-0.3-2.4-0.9c-0.6-0.6-0.9-1.6-0.9-2.9
		v-8.4h-2.2v-1.9h2.2v-3.3H192.3z"/>
	<path class="st2" d="M206.1,232.5c-0.1-0.4-0.2-0.8-0.2-1.1s-0.1-0.6-0.1-1c-0.5,0.7-1.1,1.2-1.8,1.7s-1.6,0.7-2.4,0.7
		c-1.4,0-2.5-0.4-3.3-1.1c-0.8-0.7-1.1-1.7-1.1-3c0-1.3,0.5-2.3,1.6-3.1c1.1-0.7,2.5-1.1,4.3-1.1h2.7V223c0-0.8-0.2-1.4-0.7-1.9
		c-0.5-0.5-1.2-0.7-2.1-0.7c-0.8,0-1.5,0.2-2,0.6s-0.8,0.9-0.8,1.5l-2.4,0l0-0.1c-0.1-1,0.4-1.9,1.4-2.8s2.3-1.2,3.9-1.2
		c1.6,0,2.8,0.4,3.8,1.2c1,0.8,1.4,1.9,1.4,3.4v6.6c0,0.5,0,1,0.1,1.4c0.1,0.5,0.1,0.9,0.3,1.4H206.1z M201.9,230.6
		c0.9,0,1.7-0.2,2.5-0.7c0.7-0.5,1.2-1,1.4-1.6v-2.2H203c-1,0-1.8,0.3-2.4,0.8s-0.9,1.1-0.9,1.8c0,0.6,0.2,1.1,0.6,1.5
		C200.6,230.4,201.2,230.6,201.9,230.6z"/>
	<path class="st2" d="M218.5,220.9l-1.3-0.1c-0.7,0-1.2,0.2-1.7,0.5c-0.5,0.3-0.8,0.8-1.1,1.3v9.9H212v-13.8h2.2l0.2,2
		c0.4-0.7,0.9-1.3,1.4-1.7c0.6-0.4,1.2-0.6,2-0.6c0.2,0,0.4,0,0.5,0c0.2,0,0.3,0.1,0.4,0.1L218.5,220.9z"/>
	<path class="st2" d="M223.9,215.1h-2.5v-2.6h2.5V215.1z M223.9,232.5h-2.5v-13.8h2.5V232.5z"/>
	<path class="st2" d="M236.2,232.5c-0.1-0.4-0.2-0.8-0.2-1.1s-0.1-0.6-0.1-1c-0.5,0.7-1.1,1.2-1.8,1.7s-1.6,0.7-2.4,0.7
		c-1.4,0-2.5-0.4-3.3-1.1c-0.8-0.7-1.1-1.7-1.1-3c0-1.3,0.5-2.3,1.6-3.1c1.1-0.7,2.5-1.1,4.3-1.1h2.7V223c0-0.8-0.2-1.4-0.7-1.9
		c-0.5-0.5-1.2-0.7-2.1-0.7c-0.8,0-1.5,0.2-2,0.6s-0.8,0.9-0.8,1.5l-2.4,0l0-0.1c-0.1-1,0.4-1.9,1.4-2.8s2.3-1.2,3.9-1.2
		c1.6,0,2.8,0.4,3.8,1.2c1,0.8,1.4,1.9,1.4,3.4v6.6c0,0.5,0,1,0.1,1.4c0.1,0.5,0.1,0.9,0.3,1.4H236.2z M232,230.6
		c0.9,0,1.7-0.2,2.5-0.7c0.7-0.5,1.2-1,1.4-1.6v-2.2h-2.8c-1,0-1.8,0.3-2.4,0.8s-0.9,1.1-0.9,1.8c0,0.6,0.2,1.1,0.6,1.5
		C230.7,230.4,231.3,230.6,232,230.6z"/>
	<path class="st2" d="M244.3,218.7l0.2,2.1c0.5-0.7,1-1.3,1.7-1.7c0.7-0.4,1.5-0.6,2.4-0.6c1.5,0,2.6,0.4,3.5,1.3
		c0.8,0.9,1.2,2.2,1.2,4v8.7h-2.5v-8.7c0-1.2-0.2-2.1-0.7-2.6s-1.2-0.8-2.2-0.8c-0.8,0-1.4,0.2-2,0.5s-1,0.7-1.3,1.3v10.2h-2.5
		v-13.8H244.3z"/>
	<path class="st2" d="M271.9,232.5c-0.1-0.4-0.2-0.8-0.2-1.1s-0.1-0.6-0.1-1c-0.5,0.7-1.1,1.2-1.8,1.7s-1.6,0.7-2.4,0.7
		c-1.4,0-2.5-0.4-3.3-1.1c-0.8-0.7-1.1-1.7-1.1-3c0-1.3,0.5-2.3,1.6-3.1c1.1-0.7,2.5-1.1,4.3-1.1h2.7V223c0-0.8-0.2-1.4-0.7-1.9
		c-0.5-0.5-1.2-0.7-2.1-0.7c-0.8,0-1.5,0.2-2,0.6s-0.8,0.9-0.8,1.5l-2.4,0l0-0.1c-0.1-1,0.4-1.9,1.4-2.8s2.3-1.2,3.9-1.2
		c1.6,0,2.8,0.4,3.8,1.2c1,0.8,1.4,1.9,1.4,3.4v6.6c0,0.5,0,1,0.1,1.4c0.1,0.5,0.1,0.9,0.3,1.4H271.9z M267.7,230.6
		c0.9,0,1.7-0.2,2.5-0.7s1.2-1,1.4-1.6v-2.2h-2.8c-1,0-1.8,0.3-2.4,0.8c-0.6,0.5-0.9,1.1-0.9,1.8c0,0.6,0.2,1.1,0.6,1.5
		C266.4,230.4,267,230.6,267.7,230.6z"/>
	<path class="st2" d="M283.3,230.8c0.8,0,1.5-0.3,2-0.8c0.6-0.5,0.9-1.1,0.9-1.9h2.3l0,0.1c0,1.2-0.5,2.2-1.5,3.2
		c-1.1,0.9-2.3,1.4-3.7,1.4c-1.9,0-3.4-0.7-4.5-2c-1.1-1.3-1.6-3-1.6-4.9v-0.5c0-1.9,0.5-3.6,1.6-4.9s2.6-2,4.5-2
		c1.5,0,2.8,0.5,3.8,1.4c1,1,1.5,2.1,1.4,3.5l0,0.1h-2.3c0-0.8-0.3-1.6-0.8-2.1c-0.5-0.6-1.2-0.9-2.1-0.9c-1.2,0-2.1,0.5-2.7,1.4
		c-0.6,1-0.8,2.1-0.8,3.5v0.5c0,1.4,0.3,2.6,0.8,3.5C281.1,230.3,282,230.8,283.3,230.8z"/>
	<path class="st2" d="M295,215.3v3.3h2.6v1.9H295v8.4c0,0.6,0.1,1.1,0.4,1.4s0.6,0.4,1.1,0.4c0.1,0,0.3,0,0.5-0.1
		c0.2,0,0.3-0.1,0.4-0.1l0.3,1.7c-0.2,0.2-0.5,0.3-0.8,0.4c-0.4,0.1-0.7,0.1-1.1,0.1c-1,0-1.8-0.3-2.4-0.9c-0.6-0.6-0.9-1.6-0.9-2.9
		v-8.4h-2.2v-1.9h2.2v-3.3H295z"/>
	<path class="st2" d="M303,215.1h-2.5v-2.6h2.5V215.1z M303,232.5h-2.5v-13.8h2.5V232.5z"/>
	<path class="st2" d="M306.3,225.4c0-2,0.6-3.7,1.7-5s2.6-2,4.5-2c1.9,0,3.4,0.7,4.5,2s1.7,3,1.7,5.1v0.3c0,2.1-0.6,3.7-1.7,5.1
		s-2.6,2-4.5,2c-1.9,0-3.4-0.7-4.5-2c-1.1-1.3-1.7-3-1.7-5V225.4z M308.8,225.7c0,1.5,0.3,2.7,0.9,3.6c0.6,1,1.5,1.4,2.7,1.4
		c1.2,0,2.1-0.5,2.7-1.4c0.6-1,0.9-2.2,0.9-3.6v-0.3c0-1.4-0.3-2.6-0.9-3.6s-1.5-1.4-2.7-1.4c-1.2,0-2.1,0.5-2.7,1.4
		s-0.9,2.2-0.9,3.6V225.7z"/>
	<path class="st2" d="M323.9,218.7l0.2,2.1c0.5-0.7,1-1.3,1.7-1.7s1.5-0.6,2.4-0.6c1.5,0,2.6,0.4,3.5,1.3c0.8,0.9,1.2,2.2,1.2,4v8.7
		h-2.5v-8.7c0-1.2-0.2-2.1-0.7-2.6c-0.5-0.5-1.2-0.8-2.2-0.8c-0.8,0-1.4,0.2-2,0.5c-0.5,0.3-1,0.7-1.3,1.3v10.2h-2.5v-13.8H323.9z"
		/>
	<path class="st2" d="M345.3,218.7l0.2,1.8c0.5-0.7,1-1.2,1.7-1.5s1.5-0.5,2.4-0.5c0.9,0,1.7,0.2,2.4,0.6s1.2,1.1,1.5,1.9
		c0.4-0.8,1-1.4,1.7-1.9c0.7-0.5,1.5-0.7,2.5-0.7c1.4,0,2.5,0.5,3.3,1.4c0.8,1,1.2,2.4,1.2,4.4v8.3h-2.5v-8.3c0-1.4-0.2-2.3-0.7-2.9
		c-0.5-0.6-1.2-0.8-2.1-0.8c-0.9,0-1.6,0.3-2.1,0.9s-0.8,1.3-0.9,2.3v0.1v8.8h-2.5v-8.3c0-1.3-0.2-2.2-0.7-2.8s-1.2-0.9-2.1-0.9
		c-0.8,0-1.4,0.2-1.9,0.5s-0.9,0.8-1.1,1.3v10.2H343v-13.8H345.3z"/>
	<path class="st2" d="M374.6,230.4c-0.4,0.7-1,1.3-1.7,1.7c-0.7,0.4-1.5,0.6-2.4,0.6c-1.5,0-2.7-0.5-3.5-1.4s-1.3-2.5-1.3-4.5v-8.1
		h2.5v8.2c0,1.5,0.2,2.5,0.7,3s1.1,0.8,2,0.8c0.9,0,1.6-0.2,2.2-0.5c0.6-0.4,1-0.9,1.3-1.5v-9.9h2.5v13.8h-2.3L374.6,230.4z"/>
	<path class="st2" d="M388.7,228.8c0-0.6-0.2-1-0.6-1.4c-0.4-0.3-1.2-0.7-2.4-0.9c-1.6-0.3-2.9-0.8-3.7-1.5
		c-0.9-0.6-1.3-1.5-1.3-2.5c0-1.1,0.5-2.1,1.4-2.9c1-0.8,2.2-1.2,3.7-1.2c1.6,0,2.8,0.4,3.8,1.3c1,0.9,1.4,1.8,1.4,3l0,0.1h-2.4
		c0-0.6-0.3-1.1-0.8-1.6c-0.5-0.5-1.2-0.7-2-0.7c-0.9,0-1.5,0.2-2,0.6c-0.4,0.4-0.7,0.9-0.7,1.4c0,0.5,0.2,1,0.6,1.3
		c0.4,0.3,1.2,0.6,2.3,0.8c1.7,0.4,3,0.9,3.9,1.5s1.3,1.5,1.3,2.6c0,1.2-0.5,2.2-1.5,3c-1,0.8-2.3,1.2-3.9,1.2
		c-1.8,0-3.1-0.4-4.2-1.3c-1-0.9-1.5-1.9-1.4-3.1l0-0.1h2.4c0,0.9,0.4,1.5,1,2s1.3,0.6,2.2,0.6c0.9,0,1.6-0.2,2.1-0.6
		C388.5,229.8,388.7,229.3,388.7,228.8z"/>
	<path class="st2" d="M397.9,215.3v3.3h2.6v1.9h-2.6v8.4c0,0.6,0.1,1.1,0.4,1.4s0.6,0.4,1.1,0.4c0.1,0,0.3,0,0.5-0.1
		c0.2,0,0.3-0.1,0.4-0.1l0.3,1.7c-0.2,0.2-0.5,0.3-0.8,0.4c-0.4,0.1-0.7,0.1-1.1,0.1c-1,0-1.8-0.3-2.4-0.9c-0.6-0.6-0.9-1.6-0.9-2.9
		v-8.4h-2.2v-1.9h2.2v-3.3H397.9z"/>
	<path class="st2" d="M106.3,256.1c0,2-0.5,3.6-1.4,4.8c-1,1.2-2.3,1.8-3.9,1.8c-0.9,0-1.7-0.2-2.4-0.5c-0.7-0.4-1.2-0.9-1.7-1.6
		l-0.4,1.9h-1.9v-19.9h2.5v7.7c0.4-0.6,1-1.1,1.6-1.4s1.4-0.5,2.3-0.5c1.7,0,3,0.7,4,2s1.4,3.2,1.4,5.4V256.1z M103.8,255.9
		c0-1.6-0.3-2.9-0.9-3.9s-1.5-1.5-2.7-1.5c-0.8,0-1.4,0.2-2,0.6c-0.5,0.4-1,0.9-1.3,1.5v6c0.3,0.7,0.7,1.2,1.3,1.6s1.2,0.6,2,0.6
		c1.2,0,2.1-0.4,2.6-1.3c0.6-0.8,0.9-2,0.9-3.3V255.9z"/>
	<path class="st2" d="M115.1,262.8c-2,0-3.5-0.6-4.6-1.9c-1.1-1.3-1.7-2.9-1.7-5v-0.6c0-2,0.6-3.6,1.7-4.9s2.5-1.9,4.2-1.9
		c1.8,0,3.2,0.6,4.2,1.7c0.9,1.1,1.4,2.7,1.4,4.6v1.3h-8.8l0,0.1c0,1.4,0.3,2.5,0.9,3.4c0.6,0.9,1.5,1.3,2.8,1.3
		c0.9,0,1.6-0.1,2.2-0.4c0.6-0.2,1.2-0.6,1.7-1l1,1.6c-0.5,0.5-1.1,0.9-2,1.2C117.2,262.6,116.3,262.8,115.1,262.8z M114.7,250.4
		c-0.9,0-1.6,0.3-2.2,1c-0.6,0.7-0.9,1.5-1.1,2.6l0,0.1h6.2v-0.2c0-1-0.2-1.8-0.7-2.5C116.5,250.8,115.8,250.4,114.7,250.4z"/>
	<path class="st2" d="M135.1,260.8c0.8,0,1.4-0.3,2-0.8c0.6-0.5,0.9-1.1,0.9-1.9h2.3l0,0.1c0,1.2-0.5,2.2-1.5,3.2
		c-1.1,0.9-2.3,1.4-3.7,1.4c-1.9,0-3.4-0.7-4.5-2s-1.6-3-1.6-4.9v-0.5c0-1.9,0.5-3.6,1.6-4.9c1.1-1.3,2.6-2,4.5-2
		c1.5,0,2.8,0.5,3.8,1.4c1,1,1.5,2.1,1.4,3.5l0,0.1H138c0-0.8-0.3-1.6-0.8-2.1c-0.5-0.6-1.2-0.9-2.1-0.9c-1.2,0-2.1,0.5-2.7,1.4
		c-0.6,1-0.8,2.1-0.8,3.5v0.5c0,1.4,0.3,2.6,0.8,3.5S133.8,260.8,135.1,260.8z"/>
	<path class="st2" d="M151.7,262.5c-0.1-0.4-0.2-0.8-0.2-1.1c0-0.3-0.1-0.6-0.1-1c-0.5,0.7-1.1,1.2-1.8,1.7
		c-0.8,0.4-1.6,0.7-2.4,0.7c-1.4,0-2.5-0.4-3.3-1.1c-0.8-0.7-1.1-1.7-1.1-3c0-1.3,0.5-2.3,1.6-3.1c1.1-0.7,2.5-1.1,4.3-1.1h2.7v-1.4
		c0-0.8-0.2-1.4-0.7-1.9s-1.2-0.7-2.1-0.7c-0.8,0-1.5,0.2-2,0.6s-0.8,0.9-0.8,1.5l-2.4,0l0-0.1c-0.1-1,0.4-1.9,1.4-2.8
		c1-0.8,2.3-1.2,3.9-1.2c1.6,0,2.8,0.4,3.8,1.2c1,0.8,1.4,1.9,1.4,3.4v6.6c0,0.5,0,1,0.1,1.4c0.1,0.5,0.1,0.9,0.3,1.4H151.7z
		 M147.6,260.7c0.9,0,1.7-0.2,2.5-0.7c0.7-0.5,1.2-1,1.4-1.6v-2.2h-2.8c-1,0-1.8,0.3-2.4,0.8c-0.6,0.5-0.9,1.1-0.9,1.8
		c0,0.6,0.2,1.1,0.6,1.5C146.2,260.5,146.8,260.7,147.6,260.7z"/>
	<path class="st2" d="M164.1,250.9l-1.3-0.1c-0.7,0-1.2,0.2-1.7,0.5c-0.5,0.3-0.8,0.8-1.1,1.3v9.9h-2.5v-13.8h2.2l0.2,2
		c0.4-0.7,0.9-1.3,1.4-1.7c0.6-0.4,1.2-0.6,2-0.6c0.2,0,0.4,0,0.5,0c0.2,0,0.3,0.1,0.4,0.1L164.1,250.9z"/>
	<path class="st2" d="M173.3,250.9l-1.3-0.1c-0.7,0-1.2,0.2-1.7,0.5c-0.5,0.3-0.8,0.8-1.1,1.3v9.9h-2.5v-13.8h2.2l0.2,2
		c0.4-0.7,0.9-1.3,1.4-1.7c0.6-0.4,1.2-0.6,2-0.6c0.2,0,0.4,0,0.5,0c0.2,0,0.3,0.1,0.4,0.1L173.3,250.9z"/>
	<path class="st2" d="M178.6,245.2h-2.5v-2.6h2.5V245.2z M178.6,262.5h-2.5v-13.8h2.5V262.5z"/>
	<path class="st2" d="M188.2,262.8c-2,0-3.5-0.6-4.6-1.9c-1.1-1.3-1.7-2.9-1.7-5v-0.6c0-2,0.6-3.6,1.7-4.9s2.5-1.9,4.2-1.9
		c1.8,0,3.2,0.6,4.2,1.7c0.9,1.1,1.4,2.7,1.4,4.6v1.3h-8.8l0,0.1c0,1.4,0.3,2.5,0.9,3.4c0.6,0.9,1.5,1.3,2.8,1.3
		c0.9,0,1.6-0.1,2.2-0.4c0.6-0.2,1.2-0.6,1.7-1l1,1.6c-0.5,0.5-1.1,0.9-2,1.2C190.3,262.6,189.3,262.8,188.2,262.8z M187.8,250.4
		c-0.9,0-1.6,0.3-2.2,1c-0.6,0.7-0.9,1.5-1.1,2.6l0,0.1h6.2v-0.2c0-1-0.2-1.8-0.7-2.5C189.6,250.8,188.8,250.4,187.8,250.4z"/>
	<path class="st2" d="M195.6,255.9c0-2.2,0.5-4,1.4-5.4c0.9-1.4,2.3-2,4-2c0.8,0,1.5,0.1,2.1,0.4c0.6,0.3,1.2,0.7,1.6,1.3v-7.6h2.5
		v19.9h-1.9l-0.4-1.7c-0.5,0.7-1,1.2-1.7,1.5s-1.4,0.5-2.3,0.5c-1.7,0-3-0.6-4-1.8c-1-1.2-1.4-2.8-1.4-4.8V255.9z M198.1,256.1
		c0,1.4,0.3,2.5,0.9,3.3s1.5,1.3,2.7,1.3c0.7,0,1.4-0.2,1.9-0.5s0.9-0.8,1.2-1.4v-6.4c-0.3-0.6-0.7-1-1.3-1.4s-1.1-0.5-1.9-0.5
		c-1.2,0-2.1,0.5-2.7,1.5c-0.6,1-0.9,2.3-0.9,3.9V256.1z"/>
	<path class="st2" d="M216.9,255.5c0-2,0.6-3.7,1.7-5c1.1-1.3,2.6-2,4.5-2c1.9,0,3.4,0.7,4.5,2c1.1,1.3,1.7,3,1.7,5.1v0.3
		c0,2.1-0.6,3.7-1.7,5.1s-2.6,2-4.5,2s-3.4-0.7-4.5-2c-1.1-1.3-1.7-3-1.7-5V255.5z M219.4,255.8c0,1.5,0.3,2.7,0.9,3.6
		c0.6,1,1.5,1.4,2.7,1.4c1.2,0,2.1-0.5,2.7-1.4c0.6-1,0.9-2.2,0.9-3.6v-0.3c0-1.4-0.3-2.6-0.9-3.6s-1.5-1.4-2.7-1.4
		c-1.2,0-2.1,0.5-2.7,1.4c-0.6,1-0.9,2.2-0.9,3.6V255.8z"/>
	<path class="st2" d="M241.1,260.5c-0.4,0.7-1,1.3-1.7,1.7c-0.7,0.4-1.5,0.6-2.4,0.6c-1.5,0-2.7-0.5-3.5-1.4s-1.3-2.5-1.3-4.5v-8.1
		h2.5v8.2c0,1.5,0.2,2.5,0.7,3c0.4,0.6,1.1,0.8,2,0.8c0.9,0,1.6-0.2,2.2-0.5c0.6-0.4,1-0.9,1.3-1.5v-9.9h2.5v13.8h-2.3L241.1,260.5z
		"/>
	<path class="st2" d="M250.7,245.4v3.3h2.6v1.9h-2.6v8.4c0,0.6,0.1,1.1,0.4,1.4c0.3,0.3,0.6,0.4,1.1,0.4c0.1,0,0.3,0,0.5-0.1
		c0.2,0,0.3-0.1,0.4-0.1l0.3,1.7c-0.2,0.2-0.5,0.3-0.8,0.4s-0.7,0.1-1.1,0.1c-1,0-1.8-0.3-2.4-0.9c-0.6-0.6-0.9-1.6-0.9-2.9v-8.4
		H246v-1.9h2.2v-3.3H250.7z"/>
	<path class="st2" d="M261.9,255.5c0-2,0.6-3.7,1.7-5c1.1-1.3,2.6-2,4.5-2c1.9,0,3.4,0.7,4.5,2s1.7,3,1.7,5.1v0.3
		c0,2.1-0.6,3.7-1.7,5.1s-2.6,2-4.5,2c-1.9,0-3.4-0.7-4.5-2c-1.1-1.3-1.7-3-1.7-5V255.5z M264.4,255.8c0,1.5,0.3,2.7,0.9,3.6
		s1.5,1.4,2.7,1.4c1.2,0,2.1-0.5,2.7-1.4c0.6-1,0.9-2.2,0.9-3.6v-0.3c0-1.4-0.3-2.6-0.9-3.6s-1.5-1.4-2.7-1.4
		c-1.2,0-2.1,0.5-2.7,1.4s-0.9,2.2-0.9,3.6V255.8z"/>
	<path class="st2" d="M279.6,248.7l0.2,2.1c0.5-0.7,1-1.3,1.7-1.7c0.7-0.4,1.5-0.6,2.4-0.6c1.5,0,2.6,0.4,3.5,1.3
		c0.8,0.9,1.2,2.2,1.2,4v8.7H286v-8.7c0-1.2-0.2-2.1-0.7-2.6c-0.5-0.5-1.2-0.8-2.2-0.8c-0.8,0-1.4,0.2-2,0.5c-0.5,0.3-1,0.7-1.3,1.3
		v10.2h-2.5v-13.8H279.6z"/>
	<path class="st2" d="M302.2,245.4v3.3h2.6v1.9h-2.6v8.4c0,0.6,0.1,1.1,0.4,1.4c0.3,0.3,0.6,0.4,1.1,0.4c0.1,0,0.3,0,0.5-0.1
		c0.2,0,0.3-0.1,0.4-0.1l0.3,1.7c-0.2,0.2-0.5,0.3-0.8,0.4c-0.4,0.1-0.7,0.1-1.1,0.1c-1,0-1.8-0.3-2.4-0.9c-0.6-0.6-0.9-1.6-0.9-2.9
		v-8.4h-2.2v-1.9h2.2v-3.3H302.2z"/>
	<path class="st2" d="M310,250.6c0.5-0.7,1.1-1.2,1.8-1.5c0.7-0.4,1.5-0.6,2.3-0.6c1.5,0,2.6,0.4,3.4,1.3c0.8,0.9,1.2,2.2,1.2,4.1
		v8.6h-2.5v-8.7c0-1.1-0.2-2-0.7-2.5c-0.5-0.5-1.2-0.8-2.2-0.8c-0.7,0-1.4,0.1-2,0.4c-0.6,0.3-1,0.7-1.3,1.2v10.3h-2.5v-19.9h2.5
		V250.6z"/>
	<path class="st2" d="M328,262.8c-2,0-3.5-0.6-4.6-1.9c-1.1-1.3-1.7-2.9-1.7-5v-0.6c0-2,0.6-3.6,1.7-4.9c1.1-1.3,2.5-1.9,4.2-1.9
		c1.8,0,3.2,0.6,4.2,1.7c0.9,1.1,1.4,2.7,1.4,4.6v1.3h-8.8l0,0.1c0,1.4,0.3,2.5,0.9,3.4s1.5,1.3,2.8,1.3c0.9,0,1.6-0.1,2.2-0.4
		c0.6-0.2,1.2-0.6,1.7-1l1,1.6c-0.5,0.5-1.1,0.9-2,1.2C330.1,262.6,329.2,262.8,328,262.8z M327.6,250.4c-0.9,0-1.6,0.3-2.2,1
		c-0.6,0.7-0.9,1.5-1.1,2.6l0,0.1h6.2v-0.2c0-1-0.2-1.8-0.7-2.5C329.4,250.8,328.7,250.4,327.6,250.4z"/>
	<path class="st2" d="M354.3,256.1c0,2-0.5,3.6-1.4,4.8c-1,1.2-2.3,1.8-3.9,1.8c-0.9,0-1.7-0.2-2.4-0.5c-0.7-0.4-1.2-0.9-1.7-1.6
		l-0.4,1.9h-1.9v-19.9h2.5v7.7c0.4-0.6,1-1.1,1.6-1.4s1.4-0.5,2.3-0.5c1.7,0,3,0.7,4,2c1,1.4,1.4,3.2,1.4,5.4V256.1z M351.8,255.9
		c0-1.6-0.3-2.9-0.9-3.9c-0.6-1-1.5-1.5-2.7-1.5c-0.8,0-1.4,0.2-2,0.6c-0.5,0.4-1,0.9-1.3,1.5v6c0.3,0.7,0.7,1.2,1.3,1.6
		c0.5,0.4,1.2,0.6,2,0.6c1.2,0,2.1-0.4,2.6-1.3s0.9-2,0.9-3.3V255.9z"/>
	<path class="st2" d="M365.8,262.5c-0.1-0.4-0.2-0.8-0.2-1.1c0-0.3-0.1-0.6-0.1-1c-0.5,0.7-1.1,1.2-1.8,1.7
		c-0.8,0.4-1.6,0.7-2.4,0.7c-1.4,0-2.5-0.4-3.3-1.1c-0.8-0.7-1.1-1.7-1.1-3c0-1.3,0.5-2.3,1.6-3.1c1.1-0.7,2.5-1.1,4.3-1.1h2.7v-1.4
		c0-0.8-0.2-1.4-0.7-1.9s-1.2-0.7-2.1-0.7c-0.8,0-1.5,0.2-2,0.6s-0.8,0.9-0.8,1.5l-2.4,0l0-0.1c-0.1-1,0.4-1.9,1.4-2.8
		c1-0.8,2.3-1.2,3.9-1.2c1.6,0,2.8,0.4,3.8,1.2c1,0.8,1.4,1.9,1.4,3.4v6.6c0,0.5,0,1,0.1,1.4c0.1,0.5,0.1,0.9,0.3,1.4H365.8z
		 M361.6,260.7c0.9,0,1.7-0.2,2.5-0.7s1.2-1,1.4-1.6v-2.2h-2.8c-1,0-1.8,0.3-2.4,0.8c-0.6,0.5-0.9,1.1-0.9,1.8
		c0,0.6,0.2,1.1,0.6,1.5C360.3,260.5,360.9,260.7,361.6,260.7z"/>
	<path class="st2" d="M379.7,258.8c0-0.6-0.2-1-0.6-1.4s-1.2-0.7-2.4-0.9c-1.6-0.3-2.9-0.8-3.7-1.5c-0.9-0.6-1.3-1.5-1.3-2.5
		c0-1.1,0.5-2.1,1.4-2.9c1-0.8,2.2-1.2,3.7-1.2c1.6,0,2.8,0.4,3.8,1.3c1,0.8,1.4,1.8,1.4,3l0,0.1h-2.4c0-0.6-0.3-1.1-0.8-1.6
		c-0.5-0.5-1.2-0.7-2-0.7c-0.9,0-1.5,0.2-2,0.6c-0.4,0.4-0.7,0.9-0.7,1.4c0,0.5,0.2,1,0.6,1.3c0.4,0.3,1.2,0.6,2.3,0.8
		c1.7,0.4,3,0.9,3.9,1.5c0.9,0.7,1.3,1.5,1.3,2.6c0,1.2-0.5,2.2-1.5,3c-1,0.8-2.3,1.2-3.9,1.2c-1.8,0-3.1-0.4-4.2-1.3
		c-1-0.9-1.5-1.9-1.4-3.1l0-0.1h2.4c0,0.9,0.4,1.5,1,2c0.6,0.4,1.3,0.6,2.2,0.6c0.9,0,1.6-0.2,2.1-0.6
		C379.5,259.9,379.7,259.4,379.7,258.8z"/>
	<path class="st2" d="M388.1,245.2h-2.5v-2.6h2.5V245.2z M388.1,262.5h-2.5v-13.8h2.5V262.5z"/>
	<path class="st2" d="M400,258.8c0-0.6-0.2-1-0.6-1.4s-1.2-0.7-2.4-0.9c-1.6-0.3-2.9-0.8-3.7-1.5c-0.9-0.6-1.3-1.5-1.3-2.5
		c0-1.1,0.5-2.1,1.4-2.9c1-0.8,2.2-1.2,3.7-1.2c1.6,0,2.8,0.4,3.8,1.3c1,0.8,1.4,1.8,1.4,3l0,0.1h-2.4c0-0.6-0.3-1.1-0.8-1.6
		c-0.5-0.5-1.2-0.7-2-0.7c-0.9,0-1.5,0.2-2,0.6c-0.4,0.4-0.7,0.9-0.7,1.4c0,0.5,0.2,1,0.6,1.3c0.4,0.3,1.2,0.6,2.3,0.8
		c1.7,0.4,3,0.9,3.9,1.5c0.9,0.7,1.3,1.5,1.3,2.6c0,1.2-0.5,2.2-1.5,3c-1,0.8-2.3,1.2-3.9,1.2c-1.8,0-3.1-0.4-4.2-1.3
		c-1-0.9-1.5-1.9-1.4-3.1l0-0.1h2.4c0,0.9,0.4,1.5,1,2c0.6,0.4,1.3,0.6,2.2,0.6c0.9,0,1.6-0.2,2.1-0.6
		C399.7,259.9,400,259.4,400,258.8z"/>
	<path class="st2" d="M96.4,285.5c0-2,0.6-3.7,1.7-5c1.1-1.3,2.6-2,4.5-2c1.9,0,3.4,0.7,4.5,2c1.1,1.3,1.7,3,1.7,5.1v0.3
		c0,2.1-0.6,3.7-1.7,5.1s-2.6,2-4.5,2s-3.4-0.7-4.5-2c-1.1-1.3-1.7-3-1.7-5V285.5z M98.9,285.8c0,1.5,0.3,2.7,0.9,3.6
		c0.6,1,1.5,1.4,2.7,1.4c1.2,0,2.1-0.5,2.7-1.4c0.6-1,0.9-2.2,0.9-3.6v-0.3c0-1.4-0.3-2.6-0.9-3.6s-1.5-1.4-2.7-1.4
		c-1.2,0-2.1,0.5-2.7,1.4c-0.6,1-0.9,2.2-0.9,3.6V285.8z"/>
	<path class="st2" d="M112.9,292.5v-11.9h-2.2v-1.9h2.2V277c0-1.5,0.4-2.6,1.2-3.4c0.8-0.8,1.8-1.2,3.2-1.2c0.3,0,0.6,0,0.9,0.1
		s0.6,0.1,1,0.2l-0.3,1.9c-0.2,0-0.3-0.1-0.6-0.1s-0.4,0-0.7,0c-0.7,0-1.3,0.2-1.6,0.7c-0.4,0.4-0.5,1.1-0.5,1.9v1.7h2.5v1.9h-2.5
		v11.9H112.9z"/>
	<path class="st2" d="M129.2,278.7l0.2,2.1c0.5-0.7,1-1.3,1.7-1.7c0.7-0.4,1.5-0.6,2.4-0.6c1.5,0,2.6,0.4,3.5,1.3
		c0.8,0.9,1.2,2.2,1.2,4v8.7h-2.5v-8.7c0-1.2-0.2-2.1-0.7-2.6c-0.5-0.5-1.2-0.8-2.2-0.8c-0.8,0-1.4,0.2-2,0.5s-1,0.7-1.3,1.3v10.2
		h-2.5v-13.8H129.2z"/>
	<path class="st2" d="M147.5,292.8c-2,0-3.5-0.6-4.6-1.9c-1.1-1.3-1.7-2.9-1.7-5v-0.6c0-2,0.6-3.6,1.7-4.9s2.5-1.9,4.2-1.9
		c1.8,0,3.2,0.6,4.2,1.7c0.9,1.1,1.4,2.7,1.4,4.6v1.3h-8.8l0,0.1c0,1.4,0.3,2.5,0.9,3.4c0.6,0.9,1.5,1.3,2.8,1.3
		c0.9,0,1.6-0.1,2.2-0.4c0.6-0.2,1.2-0.6,1.7-1l1,1.6c-0.5,0.5-1.1,0.9-2,1.2C149.6,292.7,148.6,292.8,147.5,292.8z M147.1,280.5
		c-0.9,0-1.6,0.3-2.2,1c-0.6,0.7-0.9,1.5-1.1,2.6l0,0.1h6.2v-0.2c0-1-0.2-1.8-0.7-2.5C148.9,280.8,148.1,280.5,147.1,280.5z"/>
	<path class="st2" d="M161.2,292.8c-2,0-3.5-0.6-4.6-1.9c-1.1-1.3-1.7-2.9-1.7-5v-0.6c0-2,0.6-3.6,1.7-4.9s2.5-1.9,4.2-1.9
		c1.8,0,3.2,0.6,4.2,1.7c0.9,1.1,1.4,2.7,1.4,4.6v1.3h-8.8l0,0.1c0,1.4,0.3,2.5,0.9,3.4c0.6,0.9,1.5,1.3,2.8,1.3
		c0.9,0,1.6-0.1,2.2-0.4c0.6-0.2,1.2-0.6,1.7-1l1,1.6c-0.5,0.5-1.1,0.9-2,1.2C163.3,292.7,162.3,292.8,161.2,292.8z M160.8,280.5
		c-0.9,0-1.6,0.3-2.2,1c-0.6,0.7-0.9,1.5-1.1,2.6l0,0.1h6.2v-0.2c0-1-0.2-1.8-0.7-2.5C162.6,280.8,161.8,280.5,160.8,280.5z"/>
	<path class="st2" d="M168.6,285.9c0-2.2,0.5-4,1.4-5.4c0.9-1.4,2.3-2,4-2c0.8,0,1.5,0.1,2.1,0.4c0.6,0.3,1.2,0.7,1.6,1.3v-7.6h2.5
		v19.9h-1.9l-0.4-1.7c-0.5,0.7-1,1.2-1.7,1.5s-1.4,0.5-2.3,0.5c-1.7,0-3-0.6-4-1.8c-1-1.2-1.4-2.8-1.4-4.8V285.9z M171.1,286.2
		c0,1.4,0.3,2.5,0.9,3.3s1.5,1.3,2.7,1.3c0.7,0,1.4-0.2,1.9-0.5s0.9-0.8,1.2-1.4v-6.4c-0.3-0.6-0.7-1-1.3-1.4s-1.1-0.5-1.9-0.5
		c-1.2,0-2.1,0.5-2.7,1.5c-0.6,1-0.9,2.3-0.9,3.9V286.2z"/>
	<path class="st2" d="M192,288.8c0-0.6-0.2-1-0.6-1.4s-1.2-0.7-2.4-0.9c-1.6-0.3-2.9-0.8-3.7-1.5c-0.9-0.6-1.3-1.5-1.3-2.5
		c0-1.1,0.5-2.1,1.4-2.9c1-0.8,2.2-1.2,3.7-1.2c1.6,0,2.8,0.4,3.8,1.3c1,0.8,1.4,1.8,1.4,3l0,0.1h-2.4c0-0.6-0.3-1.1-0.8-1.6
		c-0.5-0.5-1.2-0.7-2-0.7c-0.9,0-1.5,0.2-2,0.6c-0.4,0.4-0.7,0.9-0.7,1.4c0,0.5,0.2,1,0.6,1.3c0.4,0.3,1.2,0.6,2.3,0.8
		c1.7,0.4,3,0.9,3.9,1.5c0.9,0.7,1.3,1.5,1.3,2.6c0,1.2-0.5,2.2-1.5,3c-1,0.8-2.3,1.2-3.9,1.2c-1.8,0-3.1-0.4-4.2-1.3
		c-1-0.9-1.5-1.9-1.4-3.1l0-0.1h2.4c0,0.9,0.4,1.5,1,2c0.6,0.4,1.3,0.6,2.2,0.6c0.9,0,1.6-0.2,2.1-0.6
		C191.8,289.9,192,289.4,192,288.8z"/>
	<path class="st2" d="M212.6,292.5c-0.1-0.4-0.2-0.8-0.2-1.1c0-0.3-0.1-0.6-0.1-1c-0.5,0.7-1.1,1.2-1.8,1.7
		c-0.8,0.4-1.6,0.7-2.4,0.7c-1.4,0-2.5-0.4-3.3-1.1c-0.8-0.7-1.1-1.7-1.1-3c0-1.3,0.5-2.3,1.6-3.1c1.1-0.7,2.5-1.1,4.3-1.1h2.7v-1.4
		c0-0.8-0.2-1.4-0.7-1.9s-1.2-0.7-2.1-0.7c-0.8,0-1.5,0.2-2,0.6s-0.8,0.9-0.8,1.5l-2.4,0l0-0.1c-0.1-1,0.4-1.9,1.4-2.8
		c1-0.8,2.3-1.2,3.9-1.2c1.6,0,2.8,0.4,3.8,1.2c1,0.8,1.4,1.9,1.4,3.4v6.6c0,0.5,0,1,0.1,1.4c0.1,0.5,0.1,0.9,0.3,1.4H212.6z
		 M208.4,290.7c0.9,0,1.7-0.2,2.5-0.7c0.7-0.5,1.2-1,1.4-1.6v-2.2h-2.8c-1,0-1.8,0.3-2.4,0.8c-0.6,0.5-0.9,1.1-0.9,1.8
		c0,0.6,0.2,1.1,0.6,1.5C207.1,290.5,207.7,290.7,208.4,290.7z"/>
	<path class="st2" d="M221.2,292.5h-2.5v-19.9h2.5V292.5z"/>
	<path class="st2" d="M224.5,285.5c0-2,0.6-3.7,1.7-5c1.1-1.3,2.6-2,4.5-2c1.9,0,3.4,0.7,4.5,2c1.1,1.3,1.7,3,1.7,5.1v0.3
		c0,2.1-0.6,3.7-1.7,5.1s-2.6,2-4.5,2s-3.4-0.7-4.5-2c-1.1-1.3-1.7-3-1.7-5V285.5z M227,285.8c0,1.5,0.3,2.7,0.9,3.6
		c0.6,1,1.5,1.4,2.7,1.4c1.2,0,2.1-0.5,2.7-1.4c0.6-1,0.9-2.2,0.9-3.6v-0.3c0-1.4-0.3-2.6-0.9-3.6s-1.5-1.4-2.7-1.4
		c-1.2,0-2.1,0.5-2.7,1.4c-0.6,1-0.9,2.2-0.9,3.6V285.8z"/>
	<path class="st2" d="M242.2,278.7l0.2,2.1c0.5-0.7,1-1.3,1.7-1.7c0.7-0.4,1.5-0.6,2.4-0.6c1.5,0,2.6,0.4,3.5,1.3
		c0.8,0.9,1.2,2.2,1.2,4v8.7h-2.5v-8.7c0-1.2-0.2-2.1-0.7-2.6c-0.5-0.5-1.2-0.8-2.2-0.8c-0.8,0-1.4,0.2-2,0.5s-1,0.7-1.3,1.3v10.2
		h-2.5v-13.8H242.2z"/>
	<path class="st2" d="M260.5,292.8c-2,0-3.5-0.6-4.6-1.9c-1.1-1.3-1.7-2.9-1.7-5v-0.6c0-2,0.6-3.6,1.7-4.9c1.1-1.3,2.5-1.9,4.2-1.9
		c1.8,0,3.2,0.6,4.2,1.7c0.9,1.1,1.4,2.7,1.4,4.6v1.3h-8.8l0,0.1c0,1.4,0.3,2.5,0.9,3.4s1.5,1.3,2.8,1.3c0.9,0,1.6-0.1,2.2-0.4
		c0.6-0.2,1.2-0.6,1.7-1l1,1.6c-0.5,0.5-1.1,0.9-2,1.2C262.6,292.7,261.6,292.8,260.5,292.8z M260.1,280.5c-0.9,0-1.6,0.3-2.2,1
		c-0.6,0.7-0.9,1.5-1.1,2.6l0,0.1h6.2v-0.2c0-1-0.2-1.8-0.7-2.5C261.9,280.8,261.1,280.5,260.1,280.5z"/>
	<path class="st2" d="M270.6,291.9l-1.9,3.9h-1.5l0.9-4v-2.1h2.5V291.9z"/>
	<path class="st2" d="M282.3,278.7l0.2,1.8c0.5-0.7,1-1.2,1.7-1.5c0.7-0.4,1.5-0.5,2.4-0.5c0.9,0,1.7,0.2,2.4,0.6
		c0.7,0.4,1.2,1.1,1.5,1.9c0.4-0.8,1-1.4,1.7-1.9s1.5-0.7,2.5-0.7c1.4,0,2.5,0.5,3.3,1.4s1.2,2.4,1.2,4.4v8.3h-2.5v-8.3
		c0-1.4-0.2-2.3-0.7-2.9c-0.5-0.6-1.2-0.8-2.1-0.8c-0.9,0-1.6,0.3-2.1,0.9c-0.5,0.6-0.8,1.3-0.9,2.3v0.1v8.8h-2.5v-8.3
		c0-1.3-0.2-2.2-0.7-2.8s-1.2-0.9-2.1-0.9c-0.8,0-1.4,0.2-1.9,0.5c-0.5,0.3-0.9,0.8-1.1,1.3v10.2h-2.5v-13.8H282.3z"/>
	<path class="st2" d="M311.4,292.5c-0.1-0.4-0.2-0.8-0.2-1.1c0-0.3-0.1-0.6-0.1-1c-0.5,0.7-1.1,1.2-1.8,1.7
		c-0.8,0.4-1.6,0.7-2.4,0.7c-1.4,0-2.5-0.4-3.3-1.1c-0.8-0.7-1.1-1.7-1.1-3c0-1.3,0.5-2.3,1.6-3.1c1.1-0.7,2.5-1.1,4.3-1.1h2.7v-1.4
		c0-0.8-0.2-1.4-0.7-1.9s-1.2-0.7-2.1-0.7c-0.8,0-1.5,0.2-2,0.6s-0.8,0.9-0.8,1.5l-2.4,0l0-0.1c-0.1-1,0.4-1.9,1.4-2.8
		c1-0.8,2.3-1.2,3.9-1.2c1.6,0,2.8,0.4,3.8,1.2c1,0.8,1.4,1.9,1.4,3.4v6.6c0,0.5,0,1,0.1,1.4c0.1,0.5,0.1,0.9,0.3,1.4H311.4z
		 M307.2,290.7c0.9,0,1.7-0.2,2.5-0.7s1.2-1,1.4-1.6v-2.2h-2.8c-1,0-1.8,0.3-2.4,0.8c-0.6,0.5-0.9,1.1-0.9,1.8
		c0,0.6,0.2,1.1,0.6,1.5C305.9,290.5,306.5,290.7,307.2,290.7z"/>
	<path class="st2" d="M321.1,286.2h-1.3v6.4h-2.5v-19.9h2.5v11.5h1.3l4.1-5.4h3l-5,6.4l5.4,7.4h-3L321.1,286.2z"/>
	<path class="st2" d="M333.4,275.2h-2.5v-2.6h2.5V275.2z M333.4,292.5h-2.5v-13.8h2.5V292.5z"/>
	<path class="st2" d="M339.5,278.7l0.2,2.1c0.5-0.7,1-1.3,1.7-1.7c0.7-0.4,1.5-0.6,2.4-0.6c1.5,0,2.6,0.4,3.5,1.3
		c0.8,0.9,1.2,2.2,1.2,4v8.7H346v-8.7c0-1.2-0.2-2.1-0.7-2.6c-0.5-0.5-1.2-0.8-2.2-0.8c-0.8,0-1.4,0.2-2,0.5c-0.5,0.3-1,0.7-1.3,1.3
		v10.2h-2.5v-13.8H339.5z"/>
	<path class="st2" d="M351.7,285.9c0-2.2,0.5-4,1.4-5.4s2.3-2,4-2c0.9,0,1.6,0.2,2.3,0.5c0.7,0.4,1.2,0.9,1.7,1.5l0.3-1.8h2v13.9
		c0,1.8-0.5,3.1-1.5,4.1c-1,0.9-2.5,1.4-4.5,1.4c-0.7,0-1.4-0.1-2.1-0.3s-1.4-0.4-2-0.7l0.4-2c0.5,0.3,1.1,0.5,1.8,0.6
		c0.7,0.2,1.4,0.2,2,0.2c1.2,0,2.1-0.3,2.7-0.8s0.8-1.4,0.8-2.5v-1.6c-0.5,0.6-1,1-1.6,1.3c-0.6,0.3-1.4,0.4-2.2,0.4
		c-1.7,0-3-0.6-3.9-1.8c-0.9-1.2-1.4-2.8-1.4-4.8V285.9z M354.2,286.2c0,1.4,0.3,2.5,0.9,3.3c0.6,0.8,1.4,1.3,2.6,1.3
		c0.8,0,1.4-0.2,1.9-0.5c0.5-0.3,0.9-0.8,1.3-1.5v-6.4c-0.3-0.6-0.7-1.1-1.3-1.4c-0.5-0.3-1.1-0.5-1.9-0.5c-1.2,0-2.1,0.5-2.7,1.5
		c-0.6,1-0.9,2.3-0.9,3.9V286.2z"/>
	<path class="st2" d="M375.7,278.7l0.2,2.1c0.5-0.7,1-1.3,1.7-1.7c0.7-0.4,1.5-0.6,2.4-0.6c1.5,0,2.6,0.4,3.5,1.3
		c0.8,0.9,1.2,2.2,1.2,4v8.7h-2.5v-8.7c0-1.2-0.2-2.1-0.7-2.6c-0.5-0.5-1.2-0.8-2.2-0.8c-0.8,0-1.4,0.2-2,0.5
		c-0.5,0.3-1,0.7-1.3,1.3v10.2h-2.5v-13.8H375.7z"/>
	<path class="st2" d="M387.7,285.5c0-2,0.6-3.7,1.7-5c1.1-1.3,2.6-2,4.5-2c1.9,0,3.4,0.7,4.5,2s1.7,3,1.7,5.1v0.3
		c0,2.1-0.6,3.7-1.7,5.1s-2.6,2-4.5,2c-1.9,0-3.4-0.7-4.5-2c-1.1-1.3-1.7-3-1.7-5V285.5z M390.2,285.8c0,1.5,0.3,2.7,0.9,3.6
		s1.5,1.4,2.7,1.4c1.2,0,2.1-0.5,2.7-1.4c0.6-1,0.9-2.2,0.9-3.6v-0.3c0-1.4-0.3-2.6-0.9-3.6s-1.5-1.4-2.7-1.4
		c-1.2,0-2.1,0.5-2.7,1.4s-0.9,2.2-0.9,3.6V285.8z"/>
	<path class="st2" d="M90.9,315.9c0-2.2,0.5-4,1.4-5.4c0.9-1.4,2.3-2,4-2c0.8,0,1.5,0.1,2.1,0.4c0.6,0.3,1.2,0.7,1.6,1.3v-7.6h2.5
		v19.9h-1.9l-0.4-1.7c-0.5,0.7-1,1.2-1.7,1.5s-1.4,0.5-2.3,0.5c-1.7,0-3-0.6-4-1.8c-1-1.2-1.4-2.8-1.4-4.8V315.9z M93.4,316.2
		c0,1.4,0.3,2.5,0.9,3.3s1.5,1.3,2.7,1.3c0.7,0,1.4-0.2,1.9-0.5s0.9-0.8,1.2-1.4v-6.4c-0.3-0.6-0.7-1-1.3-1.4s-1.1-0.5-1.9-0.5
		c-1.2,0-2.1,0.5-2.7,1.5c-0.6,1-0.9,2.3-0.9,3.9V316.2z"/>
	<path class="st2" d="M109,305.3h-2.5v-2.6h2.5V305.3z M109,322.6h-2.5v-13.8h2.5V322.6z"/>
	<path class="st2" d="M120.9,318.9c0-0.6-0.2-1-0.6-1.4s-1.2-0.7-2.4-0.9c-1.6-0.3-2.9-0.8-3.7-1.5c-0.9-0.6-1.3-1.5-1.3-2.5
		c0-1.1,0.5-2.1,1.4-2.9c1-0.8,2.2-1.2,3.7-1.2c1.6,0,2.8,0.4,3.8,1.3c1,0.8,1.4,1.8,1.4,3l0,0.1h-2.4c0-0.6-0.3-1.1-0.8-1.6
		c-0.5-0.5-1.2-0.7-2-0.7c-0.9,0-1.5,0.2-2,0.6c-0.4,0.4-0.7,0.9-0.7,1.4c0,0.5,0.2,1,0.6,1.3c0.4,0.3,1.2,0.6,2.3,0.8
		c1.7,0.4,3,0.9,3.9,1.5c0.9,0.7,1.3,1.5,1.3,2.6c0,1.2-0.5,2.2-1.5,3c-1,0.8-2.3,1.2-3.9,1.2c-1.8,0-3.1-0.4-4.2-1.3
		c-1-0.9-1.5-1.9-1.4-3.1l0-0.1h2.4c0,0.9,0.4,1.5,1,2c0.6,0.4,1.3,0.6,2.2,0.6c0.9,0,1.6-0.2,2.1-0.6
		C120.6,319.9,120.9,319.5,120.9,318.9z"/>
	<path class="st2" d="M130,305.5v3.3h2.6v1.9H130v8.4c0,0.6,0.1,1.1,0.4,1.4c0.3,0.3,0.6,0.4,1.1,0.4c0.1,0,0.3,0,0.5-0.1
		c0.2,0,0.3-0.1,0.4-0.1l0.3,1.7c-0.2,0.2-0.5,0.3-0.8,0.4c-0.4,0.1-0.7,0.1-1.1,0.1c-1,0-1.8-0.3-2.4-0.9c-0.6-0.6-0.9-1.6-0.9-2.9
		v-8.4h-2.2v-1.9h2.2v-3.3H130z"/>
	<path class="st2" d="M138,305.3h-2.5v-2.6h2.5V305.3z M138,322.6h-2.5v-13.8h2.5V322.6z"/>
	<path class="st2" d="M144.2,308.8l0.2,2.1c0.5-0.7,1-1.3,1.7-1.7c0.7-0.4,1.5-0.6,2.4-0.6c1.5,0,2.6,0.4,3.5,1.3
		c0.8,0.9,1.2,2.2,1.2,4v8.7h-2.5v-8.7c0-1.2-0.2-2.1-0.7-2.6c-0.5-0.5-1.2-0.8-2.2-0.8c-0.8,0-1.4,0.2-2,0.5s-1,0.7-1.3,1.3v10.2
		h-2.5v-13.8H144.2z"/>
	<path class="st2" d="M162.2,320.9c0.8,0,1.4-0.3,2-0.8c0.6-0.5,0.9-1.1,0.9-1.9h2.3l0,0.1c0,1.2-0.5,2.2-1.5,3.2
		c-1.1,0.9-2.3,1.4-3.7,1.4c-1.9,0-3.4-0.7-4.5-2s-1.6-3-1.6-4.9v-0.5c0-1.9,0.5-3.6,1.6-4.9c1.1-1.3,2.6-2,4.5-2
		c1.5,0,2.8,0.5,3.8,1.4c1,1,1.5,2.1,1.4,3.5l0,0.1h-2.3c0-0.8-0.3-1.6-0.8-2.1c-0.5-0.6-1.2-0.9-2.1-0.9c-1.2,0-2.1,0.5-2.7,1.4
		c-0.6,1-0.8,2.1-0.8,3.5v0.5c0,1.4,0.3,2.6,0.8,3.5S161,320.9,162.2,320.9z"/>
	<path class="st2" d="M173.9,305.5v3.3h2.6v1.9h-2.6v8.4c0,0.6,0.1,1.1,0.4,1.4c0.3,0.3,0.6,0.4,1.1,0.4c0.1,0,0.3,0,0.5-0.1
		c0.2,0,0.3-0.1,0.4-0.1l0.3,1.7c-0.2,0.2-0.5,0.3-0.8,0.4c-0.4,0.1-0.7,0.1-1.1,0.1c-1,0-1.8-0.3-2.4-0.9c-0.6-0.6-0.9-1.6-0.9-2.9
		v-8.4h-2.2v-1.9h2.2v-3.3H173.9z"/>
	<path class="st2" d="M182,305.3h-2.5v-2.6h2.5V305.3z M182,322.6h-2.5v-13.8h2.5V322.6z"/>
	<path class="st2" d="M185.2,315.6c0-2,0.6-3.7,1.7-5c1.1-1.3,2.6-2,4.5-2c1.9,0,3.4,0.7,4.5,2c1.1,1.3,1.7,3,1.7,5.1v0.3
		c0,2.1-0.6,3.7-1.7,5.1s-2.6,2-4.5,2s-3.4-0.7-4.5-2c-1.1-1.3-1.7-3-1.7-5V315.6z M187.7,315.8c0,1.5,0.3,2.7,0.9,3.6
		c0.6,1,1.5,1.4,2.7,1.4c1.2,0,2.1-0.5,2.7-1.4c0.6-1,0.9-2.2,0.9-3.6v-0.3c0-1.4-0.3-2.6-0.9-3.6s-1.5-1.4-2.7-1.4
		c-1.2,0-2.1,0.5-2.7,1.4c-0.6,1-0.9,2.2-0.9,3.6V315.8z"/>
	<path class="st2" d="M202.9,308.8l0.2,2.1c0.5-0.7,1-1.3,1.7-1.7c0.7-0.4,1.5-0.6,2.4-0.6c1.5,0,2.6,0.4,3.5,1.3
		c0.8,0.9,1.2,2.2,1.2,4v8.7h-2.5v-8.7c0-1.2-0.2-2.1-0.7-2.6c-0.5-0.5-1.2-0.8-2.2-0.8c-0.8,0-1.4,0.2-2,0.5s-1,0.7-1.3,1.3v10.2
		h-2.5v-13.8H202.9z"/>
	<path class="st2" d="M223.5,318.9c0-0.6-0.2-1-0.6-1.4s-1.2-0.7-2.4-0.9c-1.6-0.3-2.9-0.8-3.7-1.5c-0.9-0.6-1.3-1.5-1.3-2.5
		c0-1.1,0.5-2.1,1.4-2.9c1-0.8,2.2-1.2,3.7-1.2c1.6,0,2.8,0.4,3.8,1.3c1,0.8,1.4,1.8,1.4,3l0,0.1h-2.4c0-0.6-0.3-1.1-0.8-1.6
		c-0.5-0.5-1.2-0.7-2-0.7c-0.9,0-1.5,0.2-2,0.6c-0.4,0.4-0.7,0.9-0.7,1.4c0,0.5,0.2,1,0.6,1.3c0.4,0.3,1.2,0.6,2.3,0.8
		c1.7,0.4,3,0.9,3.9,1.5c0.9,0.7,1.3,1.5,1.3,2.6c0,1.2-0.5,2.2-1.5,3c-1,0.8-2.3,1.2-3.9,1.2c-1.8,0-3.1-0.4-4.2-1.3
		c-1-0.9-1.5-1.9-1.4-3.1l0-0.1h2.4c0,0.9,0.4,1.5,1,2c0.6,0.4,1.3,0.6,2.2,0.6c0.9,0,1.6-0.2,2.1-0.6
		C223.3,319.9,223.5,319.5,223.5,318.9z"/>
	<path class="st2" d="M235.1,315.6c0-2,0.6-3.7,1.7-5c1.1-1.3,2.6-2,4.5-2c1.9,0,3.4,0.7,4.5,2c1.1,1.3,1.7,3,1.7,5.1v0.3
		c0,2.1-0.6,3.7-1.7,5.1s-2.6,2-4.5,2s-3.4-0.7-4.5-2c-1.1-1.3-1.7-3-1.7-5V315.6z M237.6,315.8c0,1.5,0.3,2.7,0.9,3.6
		c0.6,1,1.5,1.4,2.7,1.4c1.2,0,2.1-0.5,2.7-1.4c0.6-1,0.9-2.2,0.9-3.6v-0.3c0-1.4-0.3-2.6-0.9-3.6s-1.5-1.4-2.7-1.4
		c-1.2,0-2.1,0.5-2.7,1.4c-0.6,1-0.9,2.2-0.9,3.6V315.8z"/>
	<path class="st2" d="M252.8,308.8l0.2,2.1c0.5-0.7,1-1.3,1.7-1.7c0.7-0.4,1.5-0.6,2.4-0.6c1.5,0,2.6,0.4,3.5,1.3
		c0.8,0.9,1.2,2.2,1.2,4v8.7h-2.5v-8.7c0-1.2-0.2-2.1-0.7-2.6c-0.5-0.5-1.2-0.8-2.2-0.8c-0.8,0-1.4,0.2-2,0.5
		c-0.5,0.3-1,0.7-1.3,1.3v10.2h-2.5v-13.8H252.8z"/>
	<path class="st2" d="M275.3,305.5v3.3h2.6v1.9h-2.6v8.4c0,0.6,0.1,1.1,0.4,1.4c0.3,0.3,0.6,0.4,1.1,0.4c0.1,0,0.3,0,0.5-0.1
		c0.2,0,0.3-0.1,0.4-0.1l0.3,1.7c-0.2,0.2-0.5,0.3-0.8,0.4c-0.4,0.1-0.7,0.1-1.1,0.1c-1,0-1.8-0.3-2.4-0.9c-0.6-0.6-0.9-1.6-0.9-2.9
		v-8.4h-2.2v-1.9h2.2v-3.3H275.3z"/>
	<path class="st2" d="M283.2,310.6c0.5-0.7,1.1-1.2,1.8-1.5c0.7-0.4,1.5-0.6,2.3-0.6c1.5,0,2.6,0.4,3.4,1.3c0.8,0.9,1.2,2.2,1.2,4.1
		v8.6h-2.5v-8.7c0-1.1-0.2-2-0.7-2.5c-0.5-0.5-1.2-0.8-2.2-0.8c-0.7,0-1.4,0.1-2,0.4c-0.6,0.3-1,0.7-1.3,1.2v10.3h-2.5v-19.9h2.5
		V310.6z"/>
	<path class="st2" d="M301.2,322.9c-2,0-3.5-0.6-4.6-1.9c-1.1-1.3-1.7-2.9-1.7-5v-0.6c0-2,0.6-3.6,1.7-4.9c1.1-1.3,2.5-1.9,4.2-1.9
		c1.8,0,3.2,0.6,4.2,1.7c0.9,1.1,1.4,2.7,1.4,4.6v1.3h-8.8l0,0.1c0,1.4,0.3,2.5,0.9,3.4s1.5,1.3,2.8,1.3c0.9,0,1.6-0.1,2.2-0.4
		c0.6-0.2,1.2-0.6,1.7-1l1,1.6c-0.5,0.5-1.1,0.9-2,1.2C303.3,322.7,302.4,322.9,301.2,322.9z M300.8,310.5c-0.9,0-1.6,0.3-2.2,1
		c-0.6,0.7-0.9,1.5-1.1,2.6l0,0.1h6.2V314c0-1-0.2-1.8-0.7-2.5C302.6,310.8,301.8,310.5,300.8,310.5z"/>
	<path class="st2" d="M327.4,316.2c0,2-0.5,3.6-1.4,4.8c-1,1.2-2.3,1.8-3.9,1.8c-0.9,0-1.7-0.2-2.4-0.5c-0.7-0.4-1.2-0.9-1.7-1.6
		l-0.4,1.9h-1.9v-19.9h2.5v7.7c0.4-0.6,1-1.1,1.6-1.4s1.4-0.5,2.3-0.5c1.7,0,3,0.7,4,2c1,1.4,1.4,3.2,1.4,5.4V316.2z M324.9,315.9
		c0-1.6-0.3-2.9-0.9-3.9c-0.6-1-1.5-1.5-2.7-1.5c-0.8,0-1.4,0.2-2,0.6c-0.5,0.4-1,0.9-1.3,1.5v6c0.3,0.7,0.7,1.2,1.3,1.6
		c0.5,0.4,1.2,0.6,2,0.6c1.2,0,2.1-0.4,2.6-1.3s0.9-2,0.9-3.3V315.9z"/>
	<path class="st2" d="M339,322.6c-0.1-0.4-0.2-0.8-0.2-1.1c0-0.3-0.1-0.6-0.1-1c-0.5,0.7-1.1,1.2-1.8,1.7c-0.8,0.4-1.6,0.7-2.4,0.7
		c-1.4,0-2.5-0.4-3.3-1.1c-0.8-0.7-1.1-1.7-1.1-3c0-1.3,0.5-2.3,1.6-3.1c1.1-0.7,2.5-1.1,4.3-1.1h2.7v-1.4c0-0.8-0.2-1.4-0.7-1.9
		s-1.2-0.7-2.1-0.7c-0.8,0-1.5,0.2-2,0.6s-0.8,0.9-0.8,1.5l-2.4,0l0-0.1c-0.1-1,0.4-1.9,1.4-2.8c1-0.8,2.3-1.2,3.9-1.2
		c1.6,0,2.8,0.4,3.8,1.2c1,0.8,1.4,1.9,1.4,3.4v6.6c0,0.5,0,1,0.1,1.4c0.1,0.5,0.1,0.9,0.3,1.4H339z M334.8,320.8
		c0.9,0,1.7-0.2,2.5-0.7s1.2-1,1.4-1.6v-2.2h-2.8c-1,0-1.8,0.3-2.4,0.8c-0.6,0.5-0.9,1.1-0.9,1.8c0,0.6,0.2,1.1,0.6,1.5
		C333.5,320.6,334.1,320.8,334.8,320.8z"/>
	<path class="st2" d="M352.9,318.9c0-0.6-0.2-1-0.6-1.4s-1.2-0.7-2.4-0.9c-1.6-0.3-2.9-0.8-3.7-1.5c-0.9-0.6-1.3-1.5-1.3-2.5
		c0-1.1,0.5-2.1,1.4-2.9c1-0.8,2.2-1.2,3.7-1.2c1.6,0,2.8,0.4,3.8,1.3c1,0.8,1.4,1.8,1.4,3l0,0.1h-2.4c0-0.6-0.3-1.1-0.8-1.6
		c-0.5-0.5-1.2-0.7-2-0.7c-0.9,0-1.5,0.2-2,0.6c-0.4,0.4-0.7,0.9-0.7,1.4c0,0.5,0.2,1,0.6,1.3c0.4,0.3,1.2,0.6,2.3,0.8
		c1.7,0.4,3,0.9,3.9,1.5c0.9,0.7,1.3,1.5,1.3,2.6c0,1.2-0.5,2.2-1.5,3c-1,0.8-2.3,1.2-3.9,1.2c-1.8,0-3.1-0.4-4.2-1.3
		c-1-0.9-1.5-1.9-1.4-3.1l0-0.1h2.4c0,0.9,0.4,1.5,1,2c0.6,0.4,1.3,0.6,2.2,0.6c0.9,0,1.6-0.2,2.1-0.6
		C352.6,319.9,352.9,319.5,352.9,318.9z"/>
	<path class="st2" d="M361.2,305.3h-2.5v-2.6h2.5V305.3z M361.2,322.6h-2.5v-13.8h2.5V322.6z"/>
	<path class="st2" d="M373.1,318.9c0-0.6-0.2-1-0.6-1.4s-1.2-0.7-2.4-0.9c-1.6-0.3-2.9-0.8-3.7-1.5c-0.9-0.6-1.3-1.5-1.3-2.5
		c0-1.1,0.5-2.1,1.4-2.9c1-0.8,2.2-1.2,3.7-1.2c1.6,0,2.8,0.4,3.8,1.3c1,0.8,1.4,1.8,1.4,3l0,0.1H373c0-0.6-0.3-1.1-0.8-1.6
		c-0.5-0.5-1.2-0.7-2-0.7c-0.9,0-1.5,0.2-2,0.6c-0.4,0.4-0.7,0.9-0.7,1.4c0,0.5,0.2,1,0.6,1.3c0.4,0.3,1.2,0.6,2.3,0.8
		c1.7,0.4,3,0.9,3.9,1.5c0.9,0.7,1.3,1.5,1.3,2.6c0,1.2-0.5,2.2-1.5,3c-1,0.8-2.3,1.2-3.9,1.2c-1.8,0-3.1-0.4-4.2-1.3
		c-1-0.9-1.5-1.9-1.4-3.1l0-0.1h2.4c0,0.9,0.4,1.5,1,2c0.6,0.4,1.3,0.6,2.2,0.6c0.9,0,1.6-0.2,2.1-0.6
		C372.9,319.9,373.1,319.5,373.1,318.9z"/>
	<path class="st2" d="M384.7,315.6c0-2,0.6-3.7,1.7-5c1.1-1.3,2.6-2,4.5-2c1.9,0,3.4,0.7,4.5,2s1.7,3,1.7,5.1v0.3
		c0,2.1-0.6,3.7-1.7,5.1s-2.6,2-4.5,2c-1.9,0-3.4-0.7-4.5-2c-1.1-1.3-1.7-3-1.7-5V315.6z M387.2,315.8c0,1.5,0.3,2.7,0.9,3.6
		s1.5,1.4,2.7,1.4c1.2,0,2.1-0.5,2.7-1.4c0.6-1,0.9-2.2,0.9-3.6v-0.3c0-1.4-0.3-2.6-0.9-3.6s-1.5-1.4-2.7-1.4
		c-1.2,0-2.1,0.5-2.7,1.4s-0.9,2.2-0.9,3.6V315.8z"/>
	<path class="st2" d="M401.2,322.6v-11.9H399v-1.9h2.2V307c0-1.5,0.4-2.6,1.2-3.4s1.8-1.2,3.2-1.2c0.3,0,0.6,0,0.9,0.1
		c0.3,0,0.6,0.1,1,0.2l-0.3,1.9c-0.2,0-0.3-0.1-0.6-0.1s-0.4,0-0.7,0c-0.7,0-1.3,0.2-1.6,0.7c-0.4,0.4-0.5,1.1-0.5,1.9v1.7h2.5v1.9
		h-2.5v11.9H401.2z"/>
	<path class="st2" d="M110.3,338.8l0.2,2.1c0.5-0.7,1-1.3,1.7-1.7c0.7-0.4,1.5-0.6,2.4-0.6c1.5,0,2.6,0.4,3.5,1.3
		c0.8,0.9,1.2,2.2,1.2,4v8.7h-2.5V344c0-1.2-0.2-2.1-0.7-2.6c-0.5-0.5-1.2-0.8-2.2-0.8c-0.8,0-1.4,0.2-2,0.5s-1,0.7-1.3,1.3v10.2
		H108v-13.8H110.3z"/>
	<path class="st2" d="M131.4,352.6c-0.1-0.4-0.2-0.8-0.2-1.1c0-0.3-0.1-0.6-0.1-1c-0.5,0.7-1.1,1.2-1.8,1.7
		c-0.8,0.4-1.6,0.7-2.4,0.7c-1.4,0-2.5-0.4-3.3-1.1c-0.8-0.7-1.1-1.7-1.1-3c0-1.3,0.5-2.3,1.6-3.1c1.1-0.7,2.5-1.1,4.3-1.1h2.7v-1.4
		c0-0.8-0.2-1.4-0.7-1.9s-1.2-0.7-2.1-0.7c-0.8,0-1.5,0.2-2,0.6s-0.8,0.9-0.8,1.5l-2.4,0l0-0.1c-0.1-1,0.4-1.9,1.4-2.8
		c1-0.8,2.3-1.2,3.9-1.2c1.6,0,2.8,0.4,3.8,1.2c1,0.8,1.4,1.9,1.4,3.4v6.6c0,0.5,0,1,0.1,1.4c0.1,0.5,0.1,0.9,0.3,1.4H131.4z
		 M127.2,350.8c0.9,0,1.7-0.2,2.5-0.7c0.7-0.5,1.2-1,1.4-1.6v-2.2h-2.8c-1,0-1.8,0.3-2.4,0.8c-0.6,0.5-0.9,1.1-0.9,1.8
		c0,0.6,0.2,1.1,0.6,1.5C125.9,350.6,126.4,350.8,127.2,350.8z"/>
	<path class="st2" d="M140.7,335.5v3.3h2.6v1.9h-2.6v8.4c0,0.6,0.1,1.1,0.4,1.4c0.3,0.3,0.6,0.4,1.1,0.4c0.1,0,0.3,0,0.5-0.1
		c0.2,0,0.3-0.1,0.4-0.1l0.3,1.7c-0.2,0.2-0.5,0.3-0.8,0.4c-0.4,0.1-0.7,0.1-1.1,0.1c-1,0-1.8-0.3-2.4-0.9c-0.6-0.6-0.9-1.6-0.9-2.9
		v-8.4H136v-1.9h2.2v-3.3H140.7z"/>
	<path class="st2" d="M148.8,335.3h-2.5v-2.6h2.5V335.3z M148.8,352.6h-2.5v-13.8h2.5V352.6z"/>
	<path class="st2" d="M152,345.6c0-2,0.6-3.7,1.7-5c1.1-1.3,2.6-2,4.5-2c1.9,0,3.4,0.7,4.5,2c1.1,1.3,1.7,3,1.7,5.1v0.3
		c0,2.1-0.6,3.7-1.7,5.1s-2.6,2-4.5,2s-3.4-0.7-4.5-2c-1.1-1.3-1.7-3-1.7-5V345.6z M154.6,345.9c0,1.5,0.3,2.7,0.9,3.6
		c0.6,1,1.5,1.4,2.7,1.4c1.2,0,2.1-0.5,2.7-1.4c0.6-1,0.9-2.2,0.9-3.6v-0.3c0-1.4-0.3-2.6-0.9-3.6s-1.5-1.4-2.7-1.4
		c-1.2,0-2.1,0.5-2.7,1.4c-0.6,1-0.9,2.2-0.9,3.6V345.9z"/>
	<path class="st2" d="M169.7,338.8l0.2,2.1c0.5-0.7,1-1.3,1.7-1.7c0.7-0.4,1.5-0.6,2.4-0.6c1.5,0,2.6,0.4,3.5,1.3
		c0.8,0.9,1.2,2.2,1.2,4v8.7h-2.5V344c0-1.2-0.2-2.1-0.7-2.6c-0.5-0.5-1.2-0.8-2.2-0.8c-0.8,0-1.4,0.2-2,0.5s-1,0.7-1.3,1.3v10.2
		h-2.5v-13.8H169.7z"/>
	<path class="st2" d="M190.8,352.6c-0.1-0.4-0.2-0.8-0.2-1.1c0-0.3-0.1-0.6-0.1-1c-0.5,0.7-1.1,1.2-1.8,1.7
		c-0.8,0.4-1.6,0.7-2.4,0.7c-1.4,0-2.5-0.4-3.3-1.1c-0.8-0.7-1.1-1.7-1.1-3c0-1.3,0.5-2.3,1.6-3.1c1.1-0.7,2.5-1.1,4.3-1.1h2.7v-1.4
		c0-0.8-0.2-1.4-0.7-1.9s-1.2-0.7-2.1-0.7c-0.8,0-1.5,0.2-2,0.6s-0.8,0.9-0.8,1.5l-2.4,0l0-0.1c-0.1-1,0.4-1.9,1.4-2.8
		c1-0.8,2.3-1.2,3.9-1.2c1.6,0,2.8,0.4,3.8,1.2c1,0.8,1.4,1.9,1.4,3.4v6.6c0,0.5,0,1,0.1,1.4c0.1,0.5,0.1,0.9,0.3,1.4H190.8z
		 M186.6,350.8c0.9,0,1.7-0.2,2.5-0.7c0.7-0.5,1.2-1,1.4-1.6v-2.2h-2.8c-1,0-1.8,0.3-2.4,0.8c-0.6,0.5-0.9,1.1-0.9,1.8
		c0,0.6,0.2,1.1,0.6,1.5C185.3,350.6,185.9,350.8,186.6,350.8z"/>
	<path class="st2" d="M199.4,352.6h-2.5v-19.9h2.5V352.6z"/>
	<path class="st2" d="M206,335.3h-2.5v-2.6h2.5V335.3z M206,352.6h-2.5v-13.8h2.5V352.6z"/>
	<path class="st2" d="M213.3,335.5v3.3h2.6v1.9h-2.6v8.4c0,0.6,0.1,1.1,0.4,1.4c0.3,0.3,0.6,0.4,1.1,0.4c0.1,0,0.3,0,0.5-0.1
		c0.2,0,0.3-0.1,0.4-0.1l0.3,1.7c-0.2,0.2-0.5,0.3-0.8,0.4c-0.4,0.1-0.7,0.1-1.1,0.1c-1,0-1.8-0.3-2.4-0.9c-0.6-0.6-0.9-1.6-0.9-2.9
		v-8.4h-2.2v-1.9h2.2v-3.3H213.3z"/>
	<path class="st2" d="M222.9,347.5l0.4,1.7h0.1l3.4-10.4h2.8l-5.8,15.9c-0.3,0.9-0.8,1.7-1.5,2.4c-0.7,0.7-1.5,1-2.6,1
		c-0.2,0-0.5,0-0.8-0.1c-0.3,0-0.6-0.1-0.7-0.1l0.3-2c-0.1,0,0.1,0,0.5,0c0.4,0,0.6,0,0.7,0c0.5,0,1-0.2,1.3-0.7
		c0.3-0.5,0.6-1,0.9-1.6l0.6-1.4l-5.1-13.5h2.8L222.9,347.5z"/>
	<path class="st2" d="M234,352l-1.9,3.9h-1.5l0.9-4v-2.1h2.5V352z"/>
	<path class="st2" d="M250,341l-1.3-0.1c-0.7,0-1.2,0.2-1.7,0.5c-0.5,0.3-0.8,0.8-1.1,1.3v9.9h-2.5v-13.8h2.2l0.2,2
		c0.4-0.7,0.9-1.3,1.4-1.7c0.6-0.4,1.2-0.6,2-0.6c0.2,0,0.4,0,0.5,0c0.2,0,0.3,0.1,0.4,0.1L250,341z"/>
	<path class="st2" d="M261.1,352.6c-0.1-0.4-0.2-0.8-0.2-1.1c0-0.3-0.1-0.6-0.1-1c-0.5,0.7-1.1,1.2-1.8,1.7
		c-0.8,0.4-1.6,0.7-2.4,0.7c-1.4,0-2.5-0.4-3.3-1.1c-0.8-0.7-1.1-1.7-1.1-3c0-1.3,0.5-2.3,1.6-3.1c1.1-0.7,2.5-1.1,4.3-1.1h2.7v-1.4
		c0-0.8-0.2-1.4-0.7-1.9s-1.2-0.7-2.1-0.7c-0.8,0-1.5,0.2-2,0.6s-0.8,0.9-0.8,1.5l-2.4,0l0-0.1c-0.1-1,0.4-1.9,1.4-2.8
		c1-0.8,2.3-1.2,3.9-1.2c1.6,0,2.8,0.4,3.8,1.2c1,0.8,1.4,1.9,1.4,3.4v6.6c0,0.5,0,1,0.1,1.4c0.1,0.5,0.1,0.9,0.3,1.4H261.1z
		 M256.9,350.8c0.9,0,1.7-0.2,2.5-0.7s1.2-1,1.4-1.6v-2.2H258c-1,0-1.8,0.3-2.4,0.8c-0.6,0.5-0.9,1.1-0.9,1.8c0,0.6,0.2,1.1,0.6,1.5
		C255.6,350.6,256.1,350.8,256.9,350.8z"/>
	<path class="st2" d="M272.4,350.9c0.8,0,1.5-0.3,2-0.8s0.9-1.1,0.9-1.9h2.3l0,0.1c0,1.2-0.5,2.2-1.5,3.2c-1.1,0.9-2.3,1.4-3.7,1.4
		c-1.9,0-3.4-0.7-4.5-2c-1.1-1.3-1.6-3-1.6-4.9v-0.5c0-1.9,0.5-3.6,1.6-4.9c1.1-1.3,2.6-2,4.5-2c1.5,0,2.8,0.5,3.8,1.4
		c1,1,1.5,2.1,1.4,3.5l0,0.1h-2.3c0-0.8-0.3-1.6-0.8-2.1c-0.5-0.6-1.2-0.9-2.1-0.9c-1.2,0-2.1,0.5-2.7,1.4c-0.6,1-0.8,2.1-0.8,3.5
		v0.5c0,1.4,0.3,2.6,0.8,3.5C270.3,350.5,271.2,350.9,272.4,350.9z"/>
	<path class="st2" d="M286.3,352.9c-2,0-3.5-0.6-4.6-1.9c-1.1-1.3-1.7-2.9-1.7-5v-0.6c0-2,0.6-3.6,1.7-4.9c1.1-1.3,2.5-1.9,4.2-1.9
		c1.8,0,3.2,0.6,4.2,1.7c0.9,1.1,1.4,2.7,1.4,4.6v1.3h-8.8l0,0.1c0,1.4,0.3,2.5,0.9,3.4s1.5,1.3,2.8,1.3c0.9,0,1.6-0.1,2.2-0.4
		c0.6-0.2,1.2-0.6,1.7-1l1,1.6c-0.5,0.5-1.1,0.9-2,1.2C288.4,352.7,287.5,352.9,286.3,352.9z M285.9,340.5c-0.9,0-1.6,0.3-2.2,1
		c-0.6,0.7-0.9,1.5-1.1,2.6l0,0.1h6.2V344c0-1-0.2-1.8-0.7-2.5C287.7,340.9,287,340.5,285.9,340.5z"/>
	<path class="st2" d="M296.5,352l-1.9,3.9h-1.5l0.9-4v-2.1h2.5V352z"/>
	<path class="st2" d="M305.5,346c0-2.2,0.5-4,1.4-5.4s2.3-2,4-2c0.9,0,1.6,0.2,2.3,0.5c0.7,0.4,1.2,0.9,1.7,1.5l0.3-1.8h2v13.9
		c0,1.8-0.5,3.1-1.5,4.1c-1,0.9-2.5,1.4-4.5,1.4c-0.7,0-1.4-0.1-2.1-0.3s-1.4-0.4-2-0.7l0.4-2c0.5,0.3,1.1,0.5,1.8,0.6
		c0.7,0.2,1.4,0.2,2,0.2c1.2,0,2.1-0.3,2.7-0.8s0.8-1.4,0.8-2.5v-1.6c-0.5,0.6-1,1-1.6,1.3c-0.6,0.3-1.4,0.4-2.2,0.4
		c-1.7,0-3-0.6-3.9-1.8c-0.9-1.2-1.4-2.8-1.4-4.8V346z M308,346.2c0,1.4,0.3,2.5,0.9,3.3c0.6,0.8,1.4,1.3,2.6,1.3
		c0.8,0,1.4-0.2,1.9-0.5c0.5-0.3,0.9-0.8,1.3-1.5v-6.4c-0.3-0.6-0.7-1.1-1.3-1.4c-0.5-0.3-1.1-0.5-1.9-0.5c-1.2,0-2.1,0.5-2.7,1.5
		c-0.6,1-0.9,2.3-0.9,3.9V346.2z"/>
	<path class="st2" d="M326.5,352.9c-2,0-3.5-0.6-4.6-1.9c-1.1-1.3-1.7-2.9-1.7-5v-0.6c0-2,0.6-3.6,1.7-4.9c1.1-1.3,2.5-1.9,4.2-1.9
		c1.8,0,3.2,0.6,4.2,1.7c0.9,1.1,1.4,2.7,1.4,4.6v1.3h-8.8l0,0.1c0,1.4,0.3,2.5,0.9,3.4s1.5,1.3,2.8,1.3c0.9,0,1.6-0.1,2.2-0.4
		c0.6-0.2,1.2-0.6,1.7-1l1,1.6c-0.5,0.5-1.1,0.9-2,1.2C328.6,352.7,327.6,352.9,326.5,352.9z M326.1,340.5c-0.9,0-1.6,0.3-2.2,1
		c-0.6,0.7-0.9,1.5-1.1,2.6l0,0.1h6.2V344c0-1-0.2-1.8-0.7-2.5C327.9,340.9,327.1,340.5,326.1,340.5z"/>
	<path class="st2" d="M336.7,338.8l0.2,2.1c0.5-0.7,1-1.3,1.7-1.7c0.7-0.4,1.5-0.6,2.4-0.6c1.5,0,2.6,0.4,3.5,1.3
		c0.8,0.9,1.2,2.2,1.2,4v8.7h-2.5V344c0-1.2-0.2-2.1-0.7-2.6c-0.5-0.5-1.2-0.8-2.2-0.8c-0.8,0-1.4,0.2-2,0.5c-0.5,0.3-1,0.7-1.3,1.3
		v10.2h-2.5v-13.8H336.7z"/>
	<path class="st2" d="M348.7,346c0-2.2,0.5-4,1.4-5.4s2.3-2,4-2c0.8,0,1.5,0.1,2.1,0.4c0.6,0.3,1.2,0.7,1.6,1.3v-7.6h2.5v19.9h-1.9
		l-0.4-1.7c-0.5,0.7-1,1.2-1.7,1.5s-1.4,0.5-2.3,0.5c-1.7,0-3-0.6-4-1.8c-1-1.2-1.4-2.8-1.4-4.8V346z M351.2,346.2
		c0,1.4,0.3,2.5,0.9,3.3s1.5,1.3,2.7,1.3c0.7,0,1.4-0.2,1.9-0.5c0.5-0.3,0.9-0.8,1.2-1.4v-6.4c-0.3-0.6-0.7-1-1.3-1.4
		c-0.5-0.3-1.1-0.5-1.9-0.5c-1.2,0-2.1,0.5-2.7,1.5c-0.6,1-0.9,2.3-0.9,3.9V346.2z"/>
	<path class="st2" d="M369.9,352.9c-2,0-3.5-0.6-4.6-1.9c-1.1-1.3-1.7-2.9-1.7-5v-0.6c0-2,0.6-3.6,1.7-4.9c1.1-1.3,2.5-1.9,4.2-1.9
		c1.8,0,3.2,0.6,4.2,1.7c0.9,1.1,1.4,2.7,1.4,4.6v1.3h-8.8l0,0.1c0,1.4,0.3,2.5,0.9,3.4s1.5,1.3,2.8,1.3c0.9,0,1.6-0.1,2.2-0.4
		c0.6-0.2,1.2-0.6,1.7-1l1,1.6c-0.5,0.5-1.1,0.9-2,1.2C372,352.7,371,352.9,369.9,352.9z M369.5,340.5c-0.9,0-1.6,0.3-2.2,1
		c-0.6,0.7-0.9,1.5-1.1,2.6l0,0.1h6.2V344c0-1-0.2-1.8-0.7-2.5C371.3,340.9,370.5,340.5,369.5,340.5z"/>
	<path class="st2" d="M384.3,341l-1.3-0.1c-0.7,0-1.2,0.2-1.7,0.5c-0.5,0.3-0.8,0.8-1.1,1.3v9.9h-2.5v-13.8h2.2l0.2,2
		c0.4-0.7,0.9-1.3,1.4-1.7c0.6-0.4,1.2-0.6,2-0.6c0.2,0,0.4,0,0.5,0c0.2,0,0.3,0.1,0.4,0.1L384.3,341z"/>
	<path class="st2" d="M389.2,352l-1.9,3.9h-1.5l0.9-4v-2.1h2.5V352z"/>
	<path class="st2" d="M119,371.1l-1.3-0.1c-0.7,0-1.2,0.2-1.7,0.5c-0.5,0.3-0.8,0.8-1.1,1.3v9.9h-2.5v-13.8h2.2l0.2,2
		c0.4-0.7,0.9-1.3,1.4-1.7c0.6-0.4,1.2-0.6,2-0.6c0.2,0,0.4,0,0.5,0c0.2,0,0.3,0.1,0.4,0.1L119,371.1z"/>
	<path class="st2" d="M127.3,382.9c-2,0-3.5-0.6-4.6-1.9c-1.1-1.3-1.7-2.9-1.7-5v-0.6c0-2,0.6-3.6,1.7-4.9s2.5-1.9,4.2-1.9
		c1.8,0,3.2,0.6,4.2,1.7c0.9,1.1,1.4,2.7,1.4,4.6v1.3h-8.8l0,0.1c0,1.4,0.3,2.5,0.9,3.4c0.6,0.9,1.5,1.3,2.8,1.3
		c0.9,0,1.6-0.1,2.2-0.4c0.6-0.2,1.2-0.6,1.7-1l1,1.6c-0.5,0.5-1.1,0.9-2,1.2C129.4,382.8,128.4,382.9,127.3,382.9z M126.9,370.6
		c-0.9,0-1.6,0.3-2.2,1c-0.6,0.7-0.9,1.5-1.1,2.6l0,0.1h6.2v-0.2c0-1-0.2-1.8-0.7-2.5C128.7,370.9,127.9,370.6,126.9,370.6z"/>
	<path class="st2" d="M138,382.7h-2.5v-19.9h2.5V382.7z"/>
	<path class="st2" d="M144.6,365.3H142v-2.6h2.5V365.3z M144.6,382.7H142v-13.8h2.5V382.7z"/>
	<path class="st2" d="M148,376c0-2.2,0.5-4,1.4-5.4s2.3-2,4-2c0.9,0,1.6,0.2,2.3,0.5c0.7,0.4,1.2,0.9,1.7,1.5l0.3-1.8h2v13.9
		c0,1.8-0.5,3.1-1.5,4.1c-1,0.9-2.5,1.4-4.5,1.4c-0.7,0-1.4-0.1-2.1-0.3s-1.4-0.4-2-0.7l0.4-2c0.5,0.3,1.1,0.5,1.8,0.6
		s1.4,0.2,2,0.2c1.2,0,2.1-0.3,2.7-0.8c0.6-0.6,0.8-1.4,0.8-2.5v-1.6c-0.5,0.6-1,1-1.6,1.3c-0.6,0.3-1.4,0.4-2.2,0.4
		c-1.7,0-3-0.6-3.9-1.8c-0.9-1.2-1.4-2.8-1.4-4.8V376z M150.5,376.3c0,1.4,0.3,2.5,0.9,3.3c0.6,0.8,1.4,1.3,2.6,1.3
		c0.8,0,1.4-0.2,1.9-0.5c0.5-0.3,0.9-0.8,1.3-1.5v-6.4c-0.3-0.6-0.7-1.1-1.3-1.4c-0.5-0.3-1.1-0.5-1.9-0.5c-1.2,0-2.1,0.5-2.7,1.5
		c-0.6,1-0.9,2.3-0.9,3.9V376.3z"/>
	<path class="st2" d="M166,365.3h-2.5v-2.6h2.5V365.3z M166,382.7h-2.5v-13.8h2.5V382.7z"/>
	<path class="st2" d="M169.3,375.6c0-2,0.6-3.7,1.7-5c1.1-1.3,2.6-2,4.5-2c1.9,0,3.4,0.7,4.5,2c1.1,1.3,1.7,3,1.7,5.1v0.3
		c0,2.1-0.6,3.7-1.7,5.1s-2.6,2-4.5,2s-3.4-0.7-4.5-2c-1.1-1.3-1.7-3-1.7-5V375.6z M171.8,375.9c0,1.5,0.3,2.7,0.9,3.6
		c0.6,1,1.5,1.4,2.7,1.4c1.2,0,2.1-0.5,2.7-1.4c0.6-1,0.9-2.2,0.9-3.6v-0.3c0-1.4-0.3-2.6-0.9-3.6s-1.5-1.4-2.7-1.4
		c-1.2,0-2.1,0.5-2.7,1.4c-0.6,1-0.9,2.2-0.9,3.6V375.9z"/>
	<path class="st2" d="M193.5,380.6c-0.4,0.7-1,1.3-1.7,1.7c-0.7,0.4-1.5,0.6-2.4,0.6c-1.5,0-2.7-0.5-3.5-1.4s-1.3-2.5-1.3-4.5v-8.1
		h2.5v8.2c0,1.5,0.2,2.5,0.7,3c0.4,0.6,1.1,0.8,2,0.8c0.9,0,1.6-0.2,2.2-0.5c0.6-0.4,1-0.9,1.3-1.5v-9.9h2.5v13.8h-2.3L193.5,380.6z
		"/>
	<path class="st2" d="M207.6,379c0-0.6-0.2-1-0.6-1.4s-1.2-0.7-2.4-0.9c-1.6-0.3-2.9-0.8-3.7-1.5c-0.9-0.6-1.3-1.5-1.3-2.5
		c0-1.1,0.5-2.1,1.4-2.9c1-0.8,2.2-1.2,3.7-1.2c1.6,0,2.8,0.4,3.8,1.3c1,0.8,1.4,1.8,1.4,3l0,0.1h-2.4c0-0.6-0.3-1.1-0.8-1.6
		c-0.5-0.5-1.2-0.7-2-0.7c-0.9,0-1.5,0.2-2,0.6c-0.4,0.4-0.7,0.9-0.7,1.4c0,0.5,0.2,1,0.6,1.3c0.4,0.3,1.2,0.6,2.3,0.8
		c1.7,0.4,3,0.9,3.9,1.5c0.9,0.7,1.3,1.5,1.3,2.6c0,1.2-0.5,2.2-1.5,3c-1,0.8-2.3,1.2-3.9,1.2c-1.8,0-3.1-0.4-4.2-1.3
		c-1-0.9-1.5-1.9-1.4-3.1l0-0.1h2.4c0,0.9,0.4,1.5,1,2c0.6,0.4,1.3,0.6,2.2,0.6c0.9,0,1.6-0.2,2.1-0.6
		C207.3,380,207.6,379.5,207.6,379z"/>
	<path class="st2" d="M231.5,376.3c0,2-0.5,3.6-1.4,4.8c-1,1.2-2.3,1.8-3.9,1.8c-0.9,0-1.7-0.2-2.4-0.5c-0.7-0.4-1.2-0.9-1.7-1.6
		l-0.4,1.9h-1.9v-19.9h2.5v7.7c0.4-0.6,1-1.1,1.6-1.4s1.4-0.5,2.3-0.5c1.7,0,3,0.7,4,2s1.4,3.2,1.4,5.4V376.3z M229,376
		c0-1.6-0.3-2.9-0.9-3.9s-1.5-1.5-2.7-1.5c-0.8,0-1.4,0.2-2,0.6c-0.5,0.4-1,0.9-1.3,1.5v6c0.3,0.7,0.7,1.2,1.3,1.6s1.2,0.6,2,0.6
		c1.2,0,2.1-0.4,2.6-1.3c0.6-0.8,0.9-2,0.9-3.3V376z"/>
	<path class="st2" d="M240.3,382.9c-2,0-3.5-0.6-4.6-1.9c-1.1-1.3-1.7-2.9-1.7-5v-0.6c0-2,0.6-3.6,1.7-4.9s2.5-1.9,4.2-1.9
		c1.8,0,3.2,0.6,4.2,1.7c0.9,1.1,1.4,2.7,1.4,4.6v1.3h-8.8l0,0.1c0,1.4,0.3,2.5,0.9,3.4c0.6,0.9,1.5,1.3,2.8,1.3
		c0.9,0,1.6-0.1,2.2-0.4c0.6-0.2,1.2-0.6,1.7-1l1,1.6c-0.5,0.5-1.1,0.9-2,1.2C242.4,382.8,241.4,382.9,240.3,382.9z M239.9,370.6
		c-0.9,0-1.6,0.3-2.2,1c-0.6,0.7-0.9,1.5-1.1,2.6l0,0.1h6.2v-0.2c0-1-0.2-1.8-0.7-2.5C241.6,370.9,240.9,370.6,239.9,370.6z"/>
	<path class="st2" d="M250.9,382.7h-2.5v-19.9h2.5V382.7z"/>
	<path class="st2" d="M257.5,365.3H255v-2.6h2.5V365.3z M257.5,382.7H255v-13.8h2.5V382.7z"/>
	<path class="st2" d="M267.1,382.9c-2,0-3.5-0.6-4.6-1.9c-1.1-1.3-1.7-2.9-1.7-5v-0.6c0-2,0.6-3.6,1.7-4.9c1.1-1.3,2.5-1.9,4.2-1.9
		c1.8,0,3.2,0.6,4.2,1.7c0.9,1.1,1.4,2.7,1.4,4.6v1.3h-8.8l0,0.1c0,1.4,0.3,2.5,0.9,3.4s1.5,1.3,2.8,1.3c0.9,0,1.6-0.1,2.2-0.4
		c0.6-0.2,1.2-0.6,1.7-1l1,1.6c-0.5,0.5-1.1,0.9-2,1.2C269.2,382.8,268.2,382.9,267.1,382.9z M266.7,370.6c-0.9,0-1.6,0.3-2.2,1
		c-0.6,0.7-0.9,1.5-1.1,2.6l0,0.1h6.2v-0.2c0-1-0.2-1.8-0.7-2.5C268.5,370.9,267.7,370.6,266.7,370.6z"/>
	<path class="st2" d="M276.1,382.7v-11.9h-2.2v-1.9h2.2v-1.7c0-1.5,0.4-2.6,1.2-3.4s1.8-1.2,3.2-1.2c0.3,0,0.6,0,0.9,0.1
		c0.3,0,0.6,0.1,1,0.2l-0.3,1.9c-0.2,0-0.3-0.1-0.6-0.1s-0.4,0-0.7,0c-0.7,0-1.3,0.2-1.6,0.7c-0.4,0.4-0.5,1.1-0.5,1.9v1.7h2.5v1.9
		h-2.5v11.9H276.1z"/>
	<path class="st2" d="M285.8,382.1l-1.9,3.9h-1.5l0.9-4v-2.1h2.5V382.1z"/>
	<path class="st2" d="M300.8,381c0.8,0,1.5-0.3,2-0.8s0.9-1.1,0.9-1.9h2.3l0,0.1c0,1.2-0.5,2.2-1.5,3.2c-1.1,0.9-2.3,1.4-3.7,1.4
		c-1.9,0-3.4-0.7-4.5-2c-1.1-1.3-1.6-3-1.6-4.9v-0.5c0-1.9,0.5-3.6,1.6-4.9c1.1-1.3,2.6-2,4.5-2c1.5,0,2.8,0.5,3.8,1.4
		c1,1,1.5,2.1,1.4,3.5l0,0.1h-2.3c0-0.8-0.3-1.6-0.8-2.1c-0.5-0.6-1.2-0.9-2.1-0.9c-1.2,0-2.1,0.5-2.7,1.4c-0.6,1-0.8,2.1-0.8,3.5
		v0.5c0,1.4,0.3,2.6,0.8,3.5C298.6,380.5,299.5,381,300.8,381z"/>
	<path class="st2" d="M311.7,382.7h-2.5v-19.9h2.5V382.7z"/>
	<path class="st2" d="M324,382.7c-0.1-0.4-0.2-0.8-0.2-1.1c0-0.3-0.1-0.6-0.1-1c-0.5,0.7-1.1,1.2-1.8,1.7c-0.8,0.4-1.6,0.7-2.4,0.7
		c-1.4,0-2.5-0.4-3.3-1.1c-0.8-0.7-1.1-1.7-1.1-3c0-1.3,0.5-2.3,1.6-3.1c1.1-0.7,2.5-1.1,4.3-1.1h2.7v-1.4c0-0.8-0.2-1.4-0.7-1.9
		s-1.2-0.7-2.1-0.7c-0.8,0-1.5,0.2-2,0.6s-0.8,0.9-0.8,1.5l-2.4,0l0-0.1c-0.1-1,0.4-1.9,1.4-2.8c1-0.8,2.3-1.2,3.9-1.2
		c1.6,0,2.8,0.4,3.8,1.2c1,0.8,1.4,1.9,1.4,3.4v6.6c0,0.5,0,1,0.1,1.4c0.1,0.5,0.1,0.9,0.3,1.4H324z M319.9,380.8
		c0.9,0,1.7-0.2,2.5-0.7s1.2-1,1.4-1.6v-2.2h-2.8c-1,0-1.8,0.3-2.4,0.8c-0.6,0.5-0.9,1.1-0.9,1.8c0,0.6,0.2,1.1,0.6,1.5
		C318.5,380.7,319.1,380.8,319.9,380.8z"/>
	<path class="st2" d="M337.9,379c0-0.6-0.2-1-0.6-1.4s-1.2-0.7-2.4-0.9c-1.6-0.3-2.9-0.8-3.7-1.5c-0.9-0.6-1.3-1.5-1.3-2.5
		c0-1.1,0.5-2.1,1.4-2.9c1-0.8,2.2-1.2,3.7-1.2c1.6,0,2.8,0.4,3.8,1.3c1,0.8,1.4,1.8,1.4,3l0,0.1h-2.4c0-0.6-0.3-1.1-0.8-1.6
		c-0.5-0.5-1.2-0.7-2-0.7c-0.9,0-1.5,0.2-2,0.6c-0.4,0.4-0.7,0.9-0.7,1.4c0,0.5,0.2,1,0.6,1.3c0.4,0.3,1.2,0.6,2.3,0.8
		c1.7,0.4,3,0.9,3.9,1.5c0.9,0.7,1.3,1.5,1.3,2.6c0,1.2-0.5,2.2-1.5,3c-1,0.8-2.3,1.2-3.9,1.2c-1.8,0-3.1-0.4-4.2-1.3
		c-1-0.9-1.5-1.9-1.4-3.1l0-0.1h2.4c0,0.9,0.4,1.5,1,2c0.6,0.4,1.3,0.6,2.2,0.6c0.9,0,1.6-0.2,2.1-0.6
		C337.7,380,337.9,379.5,337.9,379z"/>
	<path class="st2" d="M351.6,379c0-0.6-0.2-1-0.6-1.4s-1.2-0.7-2.4-0.9c-1.6-0.3-2.9-0.8-3.7-1.5c-0.9-0.6-1.3-1.5-1.3-2.5
		c0-1.1,0.5-2.1,1.4-2.9c1-0.8,2.2-1.2,3.7-1.2c1.6,0,2.8,0.4,3.8,1.3c1,0.8,1.4,1.8,1.4,3l0,0.1h-2.4c0-0.6-0.3-1.1-0.8-1.6
		c-0.5-0.5-1.2-0.7-2-0.7c-0.9,0-1.5,0.2-2,0.6c-0.4,0.4-0.7,0.9-0.7,1.4c0,0.5,0.2,1,0.6,1.3c0.4,0.3,1.2,0.6,2.3,0.8
		c1.7,0.4,3,0.9,3.9,1.5c0.9,0.7,1.3,1.5,1.3,2.6c0,1.2-0.5,2.2-1.5,3c-1,0.8-2.3,1.2-3.9,1.2c-1.8,0-3.1-0.4-4.2-1.3
		c-1-0.9-1.5-1.9-1.4-3.1l0-0.1h2.4c0,0.9,0.4,1.5,1,2c0.6,0.4,1.3,0.6,2.2,0.6c0.9,0,1.6-0.2,2.1-0.6
		C351.3,380,351.6,379.5,351.6,379z"/>
	<path class="st2" d="M363.1,375.6c0-2,0.6-3.7,1.7-5c1.1-1.3,2.6-2,4.5-2c1.9,0,3.4,0.7,4.5,2s1.7,3,1.7,5.1v0.3
		c0,2.1-0.6,3.7-1.7,5.1s-2.6,2-4.5,2c-1.9,0-3.4-0.7-4.5-2c-1.1-1.3-1.7-3-1.7-5V375.6z M365.7,375.9c0,1.5,0.3,2.7,0.9,3.6
		s1.5,1.4,2.7,1.4c1.2,0,2.1-0.5,2.7-1.4c0.6-1,0.9-2.2,0.9-3.6v-0.3c0-1.4-0.3-2.6-0.9-3.6s-1.5-1.4-2.7-1.4
		c-1.2,0-2.1,0.5-2.7,1.4s-0.9,2.2-0.9,3.6V375.9z"/>
	<path class="st2" d="M385.1,371.1l-1.3-0.1c-0.7,0-1.2,0.2-1.7,0.5c-0.5,0.3-0.8,0.8-1.1,1.3v9.9h-2.5v-13.8h2.2l0.2,2
		c0.4-0.7,0.9-1.3,1.4-1.7c0.6-0.4,1.2-0.6,2-0.6c0.2,0,0.4,0,0.5,0c0.2,0,0.3,0.1,0.4,0.1L385.1,371.1z"/>
	<path class="st2" d="M161.4,406.3c0,2-0.5,3.6-1.4,4.8c-1,1.2-2.3,1.8-3.9,1.8c-0.9,0-1.6-0.1-2.2-0.4c-0.6-0.3-1.2-0.7-1.6-1.3
		v6.7h-2.5v-19.1h1.9l0.4,1.8c0.5-0.7,1-1.2,1.7-1.5s1.5-0.5,2.3-0.5c1.7,0,3,0.7,4,2s1.4,3.1,1.4,5.4V406.3z M158.9,406.1
		c0-1.6-0.3-2.9-0.9-3.9c-0.6-1-1.5-1.5-2.7-1.5c-0.7,0-1.3,0.2-1.8,0.5s-0.9,0.8-1.2,1.3v6.7c0.3,0.6,0.7,1,1.2,1.3
		c0.5,0.3,1.1,0.5,1.9,0.5c1.2,0,2.1-0.4,2.7-1.3c0.6-0.9,0.9-2,0.9-3.4V406.1z"/>
	<path class="st2" d="M163.9,405.7c0-2,0.6-3.7,1.7-5c1.1-1.3,2.6-2,4.5-2c1.9,0,3.4,0.7,4.5,2c1.1,1.3,1.7,3,1.7,5.1v0.3
		c0,2.1-0.6,3.7-1.7,5.1s-2.6,2-4.5,2s-3.4-0.7-4.5-2c-1.1-1.3-1.7-3-1.7-5V405.7z M166.4,406c0,1.5,0.3,2.7,0.9,3.6
		c0.6,1,1.5,1.4,2.7,1.4c1.2,0,2.1-0.5,2.7-1.4c0.6-1,0.9-2.2,0.9-3.6v-0.3c0-1.4-0.3-2.6-0.9-3.6s-1.5-1.4-2.7-1.4
		c-1.2,0-2.1,0.5-2.7,1.4c-0.6,1-0.9,2.2-0.9,3.6V406z"/>
	<path class="st2" d="M182.1,412.7h-2.5v-19.9h2.5V412.7z"/>
	<path class="st2" d="M188.7,395.4h-2.5v-2.6h2.5V395.4z M188.7,412.7h-2.5v-13.8h2.5V412.7z"/>
	<path class="st2" d="M196,395.6v3.3h2.6v1.9H196v8.4c0,0.6,0.1,1.1,0.4,1.4c0.3,0.3,0.6,0.4,1.1,0.4c0.1,0,0.3,0,0.5-0.1
		c0.2,0,0.3-0.1,0.4-0.1l0.3,1.7c-0.2,0.2-0.5,0.3-0.8,0.4c-0.4,0.1-0.7,0.1-1.1,0.1c-1,0-1.8-0.3-2.4-0.9c-0.6-0.6-0.9-1.6-0.9-2.9
		v-8.4h-2.2v-1.9h2.2v-3.3H196z"/>
	<path class="st2" d="M204,395.4h-2.5v-2.6h2.5V395.4z M204,412.7h-2.5v-13.8h2.5V412.7z"/>
	<path class="st2" d="M213.4,411c0.8,0,1.4-0.3,2-0.8c0.6-0.5,0.9-1.1,0.9-1.9h2.3l0,0.1c0,1.2-0.5,2.2-1.5,3.2
		c-1.1,0.9-2.3,1.4-3.7,1.4c-1.9,0-3.4-0.7-4.5-2s-1.6-3-1.6-4.9v-0.5c0-1.9,0.5-3.6,1.6-4.9c1.1-1.3,2.6-2,4.5-2
		c1.5,0,2.8,0.5,3.8,1.4c1,1,1.5,2.1,1.4,3.5l0,0.1h-2.3c0-0.8-0.3-1.6-0.8-2.1c-0.5-0.6-1.2-0.9-2.1-0.9c-1.2,0-2.1,0.5-2.7,1.4
		c-0.6,1-0.8,2.1-0.8,3.5v0.5c0,1.4,0.3,2.6,0.8,3.5S212.1,411,213.4,411z"/>
	<path class="st2" d="M230.1,412.7c-0.1-0.4-0.2-0.8-0.2-1.1c0-0.3-0.1-0.6-0.1-1c-0.5,0.7-1.1,1.2-1.8,1.7
		c-0.8,0.4-1.6,0.7-2.4,0.7c-1.4,0-2.5-0.4-3.3-1.1c-0.8-0.7-1.1-1.7-1.1-3c0-1.3,0.5-2.3,1.6-3.1c1.1-0.7,2.5-1.1,4.3-1.1h2.7v-1.4
		c0-0.8-0.2-1.4-0.7-1.9s-1.2-0.7-2.1-0.7c-0.8,0-1.5,0.2-2,0.6s-0.8,0.9-0.8,1.5l-2.4,0l0-0.1c-0.1-1,0.4-1.9,1.4-2.8
		c1-0.8,2.3-1.2,3.9-1.2c1.6,0,2.8,0.4,3.8,1.2c1,0.8,1.4,1.9,1.4,3.4v6.6c0,0.5,0,1,0.1,1.4c0.1,0.5,0.1,0.9,0.3,1.4H230.1z
		 M225.9,410.9c0.9,0,1.7-0.2,2.5-0.7c0.7-0.5,1.2-1,1.4-1.6v-2.2H227c-1,0-1.8,0.3-2.4,0.8c-0.6,0.5-0.9,1.1-0.9,1.8
		c0,0.6,0.2,1.1,0.6,1.5C224.6,410.7,225.1,410.9,225.9,410.9z"/>
	<path class="st2" d="M238.7,412.7h-2.5v-19.9h2.5V412.7z"/>
	<path class="st2" d="M248.4,405.7c0-2,0.6-3.7,1.7-5c1.1-1.3,2.6-2,4.5-2c1.9,0,3.4,0.7,4.5,2s1.7,3,1.7,5.1v0.3
		c0,2.1-0.6,3.7-1.7,5.1s-2.6,2-4.5,2c-1.9,0-3.4-0.7-4.5-2c-1.1-1.3-1.7-3-1.7-5V405.7z M250.9,406c0,1.5,0.3,2.7,0.9,3.6
		s1.5,1.4,2.7,1.4c1.2,0,2.1-0.5,2.7-1.4c0.6-1,0.9-2.2,0.9-3.6v-0.3c0-1.4-0.3-2.6-0.9-3.6s-1.5-1.4-2.7-1.4
		c-1.2,0-2.1,0.5-2.7,1.4s-0.9,2.2-0.9,3.6V406z"/>
	<path class="st2" d="M275.6,406.3c0,2-0.5,3.6-1.4,4.8c-1,1.2-2.3,1.8-3.9,1.8c-0.9,0-1.6-0.1-2.2-0.4c-0.6-0.3-1.2-0.7-1.6-1.3
		v6.7h-2.5v-19.1h1.9l0.4,1.8c0.5-0.7,1-1.2,1.7-1.5s1.5-0.5,2.3-0.5c1.7,0,3,0.7,4,2s1.4,3.1,1.4,5.4V406.3z M273.1,406.1
		c0-1.6-0.3-2.9-0.9-3.9c-0.6-1-1.5-1.5-2.7-1.5c-0.7,0-1.3,0.2-1.8,0.5c-0.5,0.3-0.9,0.8-1.2,1.3v6.7c0.3,0.6,0.7,1,1.2,1.3
		c0.5,0.3,1.1,0.5,1.9,0.5c1.2,0,2.1-0.4,2.7-1.3c0.6-0.9,0.9-2,0.9-3.4V406.1z"/>
	<path class="st2" d="M281.4,395.4h-2.5v-2.6h2.5V395.4z M281.4,412.7h-2.5v-13.8h2.5V412.7z"/>
	<path class="st2" d="M287.5,398.9l0.2,2.1c0.5-0.7,1-1.3,1.7-1.7c0.7-0.4,1.5-0.6,2.4-0.6c1.5,0,2.6,0.4,3.5,1.3
		c0.8,0.9,1.2,2.2,1.2,4v8.7H294V404c0-1.2-0.2-2.1-0.7-2.6c-0.5-0.5-1.2-0.8-2.2-0.8c-0.8,0-1.4,0.2-2,0.5c-0.5,0.3-1,0.7-1.3,1.3
		v10.2h-2.5v-13.8H287.5z"/>
	<path class="st2" d="M299.6,405.7c0-2,0.6-3.7,1.7-5c1.1-1.3,2.6-2,4.5-2c1.9,0,3.4,0.7,4.5,2s1.7,3,1.7,5.1v0.3
		c0,2.1-0.6,3.7-1.7,5.1s-2.6,2-4.5,2c-1.9,0-3.4-0.7-4.5-2c-1.1-1.3-1.7-3-1.7-5V405.7z M302.1,406c0,1.5,0.3,2.7,0.9,3.6
		s1.5,1.4,2.7,1.4c1.2,0,2.1-0.5,2.7-1.4c0.6-1,0.9-2.2,0.9-3.6v-0.3c0-1.4-0.3-2.6-0.9-3.6s-1.5-1.4-2.7-1.4
		c-1.2,0-2.1,0.5-2.7,1.4s-0.9,2.2-0.9,3.6V406z"/>
	<path class="st2" d="M317.2,398.9l0.2,2.1c0.5-0.7,1-1.3,1.7-1.7c0.7-0.4,1.5-0.6,2.4-0.6c1.5,0,2.6,0.4,3.5,1.3
		c0.8,0.9,1.2,2.2,1.2,4v8.7h-2.5V404c0-1.2-0.2-2.1-0.7-2.6c-0.5-0.5-1.2-0.8-2.2-0.8c-0.8,0-1.4,0.2-2,0.5c-0.5,0.3-1,0.7-1.3,1.3
		v10.2H315v-13.8H317.2z"/>
	<path class="st2" d="M337.9,409c0-0.6-0.2-1-0.6-1.4s-1.2-0.7-2.4-0.9c-1.6-0.3-2.9-0.8-3.7-1.5c-0.9-0.6-1.3-1.5-1.3-2.5
		c0-1.1,0.5-2.1,1.4-2.9c1-0.8,2.2-1.2,3.7-1.2c1.6,0,2.8,0.4,3.8,1.3c1,0.8,1.4,1.8,1.4,3l0,0.1h-2.4c0-0.6-0.3-1.1-0.8-1.6
		c-0.5-0.5-1.2-0.7-2-0.7c-0.9,0-1.5,0.2-2,0.6c-0.4,0.4-0.7,0.9-0.7,1.4c0,0.5,0.2,1,0.6,1.3c0.4,0.3,1.2,0.6,2.3,0.8
		c1.7,0.4,3,0.9,3.9,1.5c0.9,0.7,1.3,1.5,1.3,2.6c0,1.2-0.5,2.2-1.5,3c-1,0.8-2.3,1.2-3.9,1.2c-1.8,0-3.1-0.4-4.2-1.3
		c-1-0.9-1.5-1.9-1.4-3.1l0-0.1h2.4c0,0.9,0.4,1.5,1,2c0.6,0.4,1.3,0.6,2.2,0.6c0.9,0,1.6-0.2,2.1-0.6
		C337.6,410.1,337.9,409.6,337.9,409z"/>
	<path class="st2" d="M346.2,412.7h-2.5v-2.6h2.5V412.7z"/>
</g>
<circle class="st3" cx="248.3" cy="104.3" r="58.3"/>
<g>
	<g>
		<path class="st1" d="M265.9,131.7h-15V81.3h14l-6.4,16.3c-0.4,1,0.1,2.2,1.1,2.6s2.2-0.1,2.6-1.1l5.6-14.3l5.6,14.3
			c0.4,1,1.6,1.6,2.6,1.2c1-0.4,1.6-1.6,1.2-2.6c0,0,0,0,0,0l-7.5-19.1c-0.3-0.8-1.1-1.3-1.9-1.3h-17v-2.7c0-1.5-1.2-2.7-2.7-2.7
			c-1.5,0-2.7,1.2-2.7,2.7v2.7h-17c-0.8,0-1.6,0.5-1.9,1.3L219,97.6c-0.4,1,0.1,2.2,1.1,2.6c1,0.4,2.2-0.1,2.6-1.1l5.6-14.3
			l5.6,14.3c0.4,1,1.6,1.6,2.6,1.2s1.6-1.6,1.2-2.6c0,0,0,0,0,0l-6.4-16.3h14v50.4h-15c-1.5,0-2.7,1.2-2.7,2.7s1.2,2.7,2.7,2.7h35.4
			c1.5,0,2.7-1.2,2.7-2.7S267.5,131.7,265.9,131.7z"/>
		<path class="st1" d="M241.3,104.9c0-0.2-0.1-0.4-0.3-0.4c0,0,0,0-0.1,0h-25c-0.2,0-0.3,0.2-0.3,0.4c0,0,0,0,0,0.1
			c1.7,7.1,8.8,11.5,15.9,9.8C236.4,113.5,240.2,109.8,241.3,104.9z"/>
		<path class="st1" d="M280.5,104.5h-25c-0.2,0-0.3,0.2-0.3,0.4c0,0,0,0,0,0.1c1.7,7.1,8.8,11.5,15.9,9.8c4.8-1.2,8.6-4.9,9.8-9.8
			C280.9,104.7,280.8,104.5,280.5,104.5C280.6,104.5,280.5,104.5,280.5,104.5z"/>
	</g>
</g>
</svg>
