<?xml version="1.0" encoding="utf-8"?>
<!-- Generator: Adobe Illustrator 25.0.0, SVG Export Plug-In . SVG Version: 6.00 Build 0)  -->
<svg version="1.1" id="Layer_1" xmlns="http://www.w3.org/2000/svg" xmlns:xlink="http://www.w3.org/1999/xlink" x="0px" y="0px"
	 viewBox="0 0 500 500" style="enable-background:new 0 0 500 500;" xml:space="preserve">
<style type="text/css">
	.st0{fill:#335DAB;}
	.st1{fill:#FFFFFF;}
	.st2{fill:#2D2D2B;}
	.st3{fill:#F6A400;}
</style>
<rect x="0" y="0" class="st0" width="500" height="500"/>
<rect x="56.7" y="106.1" class="st1" width="383.1" height="333.9"/>
<g>
	<path class="st0" d="M137,175.2v24.7h-5.6v-24.7H137z"/>
	<path class="st0" d="M142.4,187.6c0-2.2-0.1-4.1-0.1-5.7h4.8l0.3,2.5h0.1c0.7-1.2,2.5-2.9,5.5-2.9c3.7,0,6.4,2.5,6.4,7.7v10.6h-5.6
		v-9.9c0-2.3-0.8-3.9-2.8-3.9c-1.5,0-2.5,1.1-2.9,2.1c-0.1,0.4-0.2,0.9-0.2,1.4v10.3h-5.6V187.6z"/>
	<path class="st0" d="M181.9,173.8v20.6c0,2,0.1,4.1,0.1,5.3h-4.9l-0.2-2.6h-0.1c-1.1,2-3.3,3-5.6,3c-4.2,0-7.6-3.6-7.6-9.2
		c0-6,3.7-9.5,8-9.5c2.2,0,3.9,0.8,4.7,2h0.1v-9.7H181.9z M176.3,189.5c0-0.3,0-0.7-0.1-1c-0.3-1.5-1.5-2.7-3.3-2.7
		c-2.6,0-3.8,2.3-3.8,5.1c0,3,1.5,4.9,3.8,4.9c1.6,0,2.9-1.1,3.3-2.7c0.1-0.4,0.1-0.8,0.1-1.3V189.5z"/>
	<path class="st0" d="M191.4,192.6c0.1,2.3,2.5,3.4,5,3.4c1.9,0,3.4-0.3,4.9-0.8l0.7,3.8c-1.8,0.8-4.1,1.1-6.5,1.1
		c-6.1,0-9.5-3.5-9.5-9.1c0-4.5,2.8-9.5,9-9.5c5.8,0,8,4.5,8,8.9c0,1-0.1,1.8-0.2,2.2H191.4z M197.9,188.8c0-1.4-0.6-3.6-3.1-3.6
		c-2.3,0-3.3,2.2-3.4,3.6H197.9z"/>
	<path class="st0" d="M207.1,187.9c0-2.3-0.1-4.3-0.1-6h4.8l0.3,2.5h0.1c1.3-1.9,3.4-2.9,6-2.9c3.9,0,7.4,3.4,7.4,9.1
		c0,6.5-4.1,9.6-8.1,9.6c-2.2,0-3.8-0.9-4.6-2h-0.1v8.9h-5.6V187.9z M212.7,192.1c0,0.4,0,0.8,0.1,1.2c0.4,1.5,1.6,2.6,3.3,2.6
		c2.4,0,3.8-2,3.8-5c0-2.9-1.3-5-3.8-5c-1.6,0-3,1.2-3.3,2.8c-0.1,0.3-0.1,0.7-0.1,1V192.1z"/>
	<path class="st0" d="M234,192.6c0.1,2.3,2.5,3.4,5,3.4c1.9,0,3.4-0.3,4.9-0.8l0.7,3.8c-1.8,0.8-4.1,1.1-6.5,1.1
		c-6.1,0-9.5-3.5-9.5-9.1c0-4.5,2.8-9.5,9-9.5c5.8,0,8,4.5,8,8.9c0,1-0.1,1.8-0.2,2.2H234z M240.6,188.8c0-1.4-0.6-3.6-3.1-3.6
		c-2.3,0-3.3,2.2-3.4,3.6H240.6z"/>
	<path class="st0" d="M249.8,187.6c0-2.2-0.1-4.1-0.1-5.7h4.8l0.3,2.5h0.1c0.7-1.2,2.5-2.9,5.5-2.9c3.7,0,6.4,2.5,6.4,7.7v10.6h-5.6
		v-9.9c0-2.3-0.8-3.9-2.8-3.9c-1.5,0-2.5,1.1-2.9,2.1c-0.1,0.4-0.2,0.9-0.2,1.4v10.3h-5.6V187.6z"/>
	<path class="st0" d="M289.3,173.8v20.6c0,2,0.1,4.1,0.1,5.3h-4.9l-0.2-2.6h-0.1c-1.1,2-3.3,3-5.6,3c-4.2,0-7.6-3.6-7.6-9.2
		c0-6,3.7-9.5,8-9.5c2.2,0,3.9,0.8,4.7,2h0.1v-9.7H289.3z M283.7,189.5c0-0.3,0-0.7-0.1-1c-0.3-1.5-1.5-2.7-3.3-2.7
		c-2.6,0-3.8,2.3-3.8,5.1c0,3,1.5,4.9,3.8,4.9c1.6,0,2.9-1.1,3.3-2.7c0.1-0.4,0.1-0.8,0.1-1.3V189.5z"/>
	<path class="st0" d="M298.8,192.6c0.1,2.3,2.5,3.4,5,3.4c1.9,0,3.4-0.3,4.9-0.8l0.7,3.8c-1.8,0.8-4.1,1.1-6.5,1.1
		c-6.1,0-9.5-3.5-9.5-9.1c0-4.5,2.8-9.5,9-9.5c5.8,0,8,4.5,8,8.9c0,1-0.1,1.8-0.2,2.2H298.8z M305.3,188.8c0-1.4-0.6-3.6-3.1-3.6
		c-2.3,0-3.3,2.2-3.4,3.6H305.3z"/>
	<path class="st0" d="M314.5,187.6c0-2.2-0.1-4.1-0.1-5.7h4.8l0.3,2.5h0.1c0.7-1.2,2.5-2.9,5.5-2.9c3.7,0,6.4,2.5,6.4,7.7v10.6h-5.6
		v-9.9c0-2.3-0.8-3.9-2.8-3.9c-1.5,0-2.5,1.1-2.9,2.1c-0.1,0.4-0.2,0.9-0.2,1.4v10.3h-5.6V187.6z"/>
	<path class="st0" d="M350.1,199.3c-1,0.5-2.9,0.8-5,0.8c-5.8,0-9.5-3.5-9.5-9.1c0-5.2,3.6-9.5,10.2-9.5c1.5,0,3.1,0.3,4.2,0.7
		l-0.9,4.1c-0.7-0.3-1.6-0.5-3.1-0.5c-2.9,0-4.8,2.1-4.8,5c0,3.3,2.2,5,4.9,5c1.3,0,2.3-0.2,3.2-0.6L350.1,199.3z"/>
	<path class="st0" d="M358.2,192.6c0.1,2.3,2.5,3.4,5,3.4c1.9,0,3.4-0.3,4.9-0.8l0.7,3.8c-1.8,0.8-4.1,1.1-6.5,1.1
		c-6.1,0-9.5-3.5-9.5-9.1c0-4.5,2.8-9.5,9-9.5c5.8,0,8,4.5,8,8.9c0,1-0.1,1.8-0.2,2.2H358.2z M364.7,188.8c0-1.4-0.6-3.6-3.1-3.6
		c-2.3,0-3.3,2.2-3.4,3.6H364.7z"/>
	<path class="st2" d="M95.6,232.5h-2.5v-8.2h-9v8.2h-2.5v-18.6h2.5v8.4h9v-8.4h2.5V232.5z"/>
	<path class="st2" d="M108.4,230.4c-0.4,0.7-1,1.3-1.7,1.7c-0.7,0.4-1.5,0.6-2.4,0.6c-1.5,0-2.7-0.5-3.5-1.4s-1.3-2.5-1.3-4.5v-8.1
		h2.5v8.2c0,1.5,0.2,2.5,0.7,3c0.4,0.6,1.1,0.8,2,0.8c0.9,0,1.6-0.2,2.2-0.5s1-0.9,1.3-1.5v-9.9h2.5v13.8h-2.3L108.4,230.4z"/>
	<path class="st2" d="M116.7,218.7l0.2,1.8c0.5-0.7,1-1.2,1.7-1.5c0.7-0.4,1.5-0.5,2.4-0.5c0.9,0,1.7,0.2,2.4,0.6
		c0.7,0.4,1.2,1.1,1.5,1.9c0.4-0.8,1-1.4,1.7-1.9c0.7-0.5,1.5-0.7,2.5-0.7c1.4,0,2.5,0.5,3.3,1.4c0.8,1,1.2,2.4,1.2,4.4v8.3h-2.5
		v-8.3c0-1.4-0.2-2.3-0.7-2.9s-1.2-0.8-2.1-0.8c-0.9,0-1.6,0.3-2.1,0.9c-0.5,0.6-0.8,1.3-0.9,2.3v0.1v8.8h-2.5v-8.3
		c0-1.3-0.2-2.2-0.7-2.8c-0.5-0.6-1.2-0.9-2.1-0.9c-0.8,0-1.4,0.2-1.9,0.5c-0.5,0.3-0.9,0.8-1.1,1.3v10.2h-2.5v-13.8H116.7z"/>
	<path class="st2" d="M145.8,232.5c-0.1-0.4-0.2-0.8-0.2-1.1s-0.1-0.6-0.1-1c-0.5,0.7-1.1,1.2-1.8,1.7s-1.6,0.7-2.4,0.7
		c-1.4,0-2.5-0.4-3.3-1.1c-0.8-0.7-1.1-1.7-1.1-3c0-1.3,0.5-2.3,1.6-3.1c1.1-0.7,2.5-1.1,4.3-1.1h2.7V223c0-0.8-0.2-1.4-0.7-1.9
		c-0.5-0.5-1.2-0.7-2.1-0.7c-0.8,0-1.5,0.2-2,0.6s-0.8,0.9-0.8,1.5l-2.4,0l0-0.1c-0.1-1,0.4-1.9,1.4-2.8s2.3-1.2,3.9-1.2
		c1.6,0,2.8,0.4,3.8,1.2c1,0.8,1.4,1.9,1.4,3.4v6.6c0,0.5,0,1,0.1,1.4c0.1,0.5,0.1,0.9,0.3,1.4H145.8z M141.6,230.6
		c0.9,0,1.7-0.2,2.5-0.7c0.7-0.5,1.2-1,1.4-1.6v-2.2h-2.8c-1,0-1.8,0.3-2.4,0.8s-0.9,1.1-0.9,1.8c0,0.6,0.2,1.1,0.6,1.5
		C140.3,230.4,140.8,230.6,141.6,230.6z"/>
	<path class="st2" d="M153.9,218.7l0.2,2.1c0.5-0.7,1-1.3,1.7-1.7c0.7-0.4,1.5-0.6,2.4-0.6c1.5,0,2.6,0.4,3.5,1.3
		c0.8,0.9,1.2,2.2,1.2,4v8.7h-2.5v-8.7c0-1.2-0.2-2.1-0.7-2.6s-1.2-0.8-2.2-0.8c-0.8,0-1.4,0.2-2,0.5s-1,0.7-1.3,1.3v10.2h-2.5
		v-13.8H153.9z"/>
	<path class="st2" d="M169.2,215.1h-2.5v-2.6h2.5V215.1z M169.2,232.5h-2.5v-13.8h2.5V232.5z"/>
	<path class="st2" d="M176.6,215.3v3.3h2.6v1.9h-2.6v8.4c0,0.6,0.1,1.1,0.4,1.4s0.6,0.4,1.1,0.4c0.1,0,0.3,0,0.5-0.1
		c0.2,0,0.3-0.1,0.4-0.1l0.3,1.7c-0.2,0.2-0.5,0.3-0.8,0.4c-0.4,0.1-0.7,0.1-1.1,0.1c-1,0-1.8-0.3-2.4-0.9c-0.6-0.6-0.9-1.6-0.9-2.9
		v-8.4h-2.2v-1.9h2.2v-3.3H176.6z"/>
	<path class="st2" d="M190.4,232.5c-0.1-0.4-0.2-0.8-0.2-1.1s-0.1-0.6-0.1-1c-0.5,0.7-1.1,1.2-1.8,1.7s-1.6,0.7-2.4,0.7
		c-1.4,0-2.5-0.4-3.3-1.1c-0.8-0.7-1.1-1.7-1.1-3c0-1.3,0.5-2.3,1.6-3.1c1.1-0.7,2.5-1.1,4.3-1.1h2.7V223c0-0.8-0.2-1.4-0.7-1.9
		c-0.5-0.5-1.2-0.7-2.1-0.7c-0.8,0-1.5,0.2-2,0.6s-0.8,0.9-0.8,1.5l-2.4,0l0-0.1c-0.1-1,0.4-1.9,1.4-2.8s2.3-1.2,3.9-1.2
		c1.6,0,2.8,0.4,3.8,1.2c1,0.8,1.4,1.9,1.4,3.4v6.6c0,0.5,0,1,0.1,1.4c0.1,0.5,0.1,0.9,0.3,1.4H190.4z M186.2,230.6
		c0.9,0,1.7-0.2,2.5-0.7c0.7-0.5,1.2-1,1.4-1.6v-2.2h-2.8c-1,0-1.8,0.3-2.4,0.8s-0.9,1.1-0.9,1.8c0,0.6,0.2,1.1,0.6,1.5
		C184.9,230.4,185.4,230.6,186.2,230.6z"/>
	<path class="st2" d="M202.8,220.9l-1.3-0.1c-0.7,0-1.2,0.2-1.7,0.5c-0.5,0.3-0.8,0.8-1.1,1.3v9.9h-2.5v-13.8h2.2l0.2,2
		c0.4-0.7,0.9-1.3,1.4-1.7c0.6-0.4,1.2-0.6,2-0.6c0.2,0,0.4,0,0.5,0c0.2,0,0.3,0.1,0.4,0.1L202.8,220.9z"/>
	<path class="st2" d="M208.1,215.1h-2.5v-2.6h2.5V215.1z M208.1,232.5h-2.5v-13.8h2.5V232.5z"/>
	<path class="st2" d="M220.4,232.5c-0.1-0.4-0.2-0.8-0.2-1.1s-0.1-0.6-0.1-1c-0.5,0.7-1.1,1.2-1.8,1.7s-1.6,0.7-2.4,0.7
		c-1.4,0-2.5-0.4-3.3-1.1c-0.8-0.7-1.1-1.7-1.1-3c0-1.3,0.5-2.3,1.6-3.1c1.1-0.7,2.5-1.1,4.3-1.1h2.7V223c0-0.8-0.2-1.4-0.7-1.9
		c-0.5-0.5-1.2-0.7-2.1-0.7c-0.8,0-1.5,0.2-2,0.6s-0.8,0.9-0.8,1.5l-2.4,0l0-0.1c-0.1-1,0.4-1.9,1.4-2.8s2.3-1.2,3.9-1.2
		c1.6,0,2.8,0.4,3.8,1.2c1,0.8,1.4,1.9,1.4,3.4v6.6c0,0.5,0,1,0.1,1.4c0.1,0.5,0.1,0.9,0.3,1.4H220.4z M216.3,230.6
		c0.9,0,1.7-0.2,2.5-0.7c0.7-0.5,1.2-1,1.4-1.6v-2.2h-2.8c-1,0-1.8,0.3-2.4,0.8s-0.9,1.1-0.9,1.8c0,0.6,0.2,1.1,0.6,1.5
		C215,230.4,215.5,230.6,216.3,230.6z"/>
	<path class="st2" d="M228.6,218.7l0.2,2.1c0.5-0.7,1-1.3,1.7-1.7c0.7-0.4,1.5-0.6,2.4-0.6c1.5,0,2.6,0.4,3.5,1.3
		c0.8,0.9,1.2,2.2,1.2,4v8.7H235v-8.7c0-1.2-0.2-2.1-0.7-2.6s-1.2-0.8-2.2-0.8c-0.8,0-1.4,0.2-2,0.5s-1,0.7-1.3,1.3v10.2h-2.5v-13.8
		H228.6z"/>
	<path class="st2" d="M256.1,232.5c-0.1-0.4-0.2-0.8-0.2-1.1s-0.1-0.6-0.1-1c-0.5,0.7-1.1,1.2-1.8,1.7s-1.6,0.7-2.4,0.7
		c-1.4,0-2.5-0.4-3.3-1.1c-0.8-0.7-1.1-1.7-1.1-3c0-1.3,0.5-2.3,1.6-3.1c1.1-0.7,2.5-1.1,4.3-1.1h2.7V223c0-0.8-0.2-1.4-0.7-1.9
		c-0.5-0.5-1.2-0.7-2.1-0.7c-0.8,0-1.5,0.2-2,0.6s-0.8,0.9-0.8,1.5l-2.4,0l0-0.1c-0.1-1,0.4-1.9,1.4-2.8s2.3-1.2,3.9-1.2
		c1.6,0,2.8,0.4,3.8,1.2c1,0.8,1.4,1.9,1.4,3.4v6.6c0,0.5,0,1,0.1,1.4c0.1,0.5,0.1,0.9,0.3,1.4H256.1z M252,230.6
		c0.9,0,1.7-0.2,2.5-0.7s1.2-1,1.4-1.6v-2.2H253c-1,0-1.8,0.3-2.4,0.8s-0.9,1.1-0.9,1.8c0,0.6,0.2,1.1,0.6,1.5
		C250.7,230.4,251.2,230.6,252,230.6z"/>
	<path class="st2" d="M267.5,230.8c0.8,0,1.5-0.3,2-0.8c0.6-0.5,0.9-1.1,0.9-1.9h2.3l0,0.1c0,1.2-0.5,2.2-1.5,3.2
		c-1.1,0.9-2.3,1.4-3.7,1.4c-1.9,0-3.4-0.7-4.5-2c-1.1-1.3-1.6-3-1.6-4.9v-0.5c0-1.9,0.5-3.6,1.6-4.9s2.6-2,4.5-2
		c1.5,0,2.8,0.5,3.8,1.4c1,1,1.5,2.1,1.4,3.5l0,0.1h-2.3c0-0.8-0.3-1.6-0.8-2.1c-0.5-0.6-1.2-0.9-2.1-0.9c-1.2,0-2.1,0.5-2.7,1.4
		c-0.6,1-0.8,2.1-0.8,3.5v0.5c0,1.4,0.3,2.6,0.8,3.5C265.4,230.3,266.3,230.8,267.5,230.8z"/>
	<path class="st2" d="M279.2,215.3v3.3h2.6v1.9h-2.6v8.4c0,0.6,0.1,1.1,0.4,1.4s0.6,0.4,1.1,0.4c0.1,0,0.3,0,0.5-0.1
		c0.2,0,0.3-0.1,0.4-0.1l0.3,1.7c-0.2,0.2-0.5,0.3-0.8,0.4c-0.4,0.1-0.7,0.1-1.1,0.1c-1,0-1.8-0.3-2.4-0.9c-0.6-0.6-0.9-1.6-0.9-2.9
		v-8.4h-2.2v-1.9h2.2v-3.3H279.2z"/>
	<path class="st2" d="M287.2,215.1h-2.5v-2.6h2.5V215.1z M287.2,232.5h-2.5v-13.8h2.5V232.5z"/>
	<path class="st2" d="M290.5,225.4c0-2,0.6-3.7,1.7-5s2.6-2,4.5-2c1.9,0,3.4,0.7,4.5,2s1.7,3,1.7,5.1v0.3c0,2.1-0.6,3.7-1.7,5.1
		s-2.6,2-4.5,2c-1.9,0-3.4-0.7-4.5-2c-1.1-1.3-1.7-3-1.7-5V225.4z M293,225.7c0,1.5,0.3,2.7,0.9,3.6c0.6,1,1.5,1.4,2.7,1.4
		c1.2,0,2.1-0.5,2.7-1.4c0.6-1,0.9-2.2,0.9-3.6v-0.3c0-1.4-0.3-2.6-0.9-3.6s-1.5-1.4-2.7-1.4c-1.2,0-2.1,0.5-2.7,1.4
		s-0.9,2.2-0.9,3.6V225.7z"/>
	<path class="st2" d="M308.2,218.7l0.2,2.1c0.5-0.7,1-1.3,1.7-1.7s1.5-0.6,2.4-0.6c1.5,0,2.6,0.4,3.5,1.3c0.8,0.9,1.2,2.2,1.2,4v8.7
		h-2.5v-8.7c0-1.2-0.2-2.1-0.7-2.6c-0.5-0.5-1.2-0.8-2.2-0.8c-0.8,0-1.4,0.2-2,0.5c-0.5,0.3-1,0.7-1.3,1.3v10.2h-2.5v-13.8H308.2z"
		/>
	<path class="st2" d="M329.5,218.7l0.2,1.8c0.5-0.7,1-1.2,1.7-1.5s1.5-0.5,2.4-0.5c0.9,0,1.7,0.2,2.4,0.6s1.2,1.1,1.5,1.9
		c0.4-0.8,1-1.4,1.7-1.9c0.7-0.5,1.5-0.7,2.5-0.7c1.4,0,2.5,0.5,3.3,1.4c0.8,1,1.2,2.4,1.2,4.4v8.3h-2.5v-8.3c0-1.4-0.2-2.3-0.7-2.9
		c-0.5-0.6-1.2-0.8-2.1-0.8c-0.9,0-1.6,0.3-2.1,0.9s-0.8,1.3-0.9,2.3v0.1v8.8h-2.5v-8.3c0-1.3-0.2-2.2-0.7-2.8s-1.2-0.9-2.1-0.9
		c-0.8,0-1.4,0.2-1.9,0.5s-0.9,0.8-1.1,1.3v10.2h-2.5v-13.8H329.5z"/>
	<path class="st2" d="M358.9,230.4c-0.4,0.7-1,1.3-1.7,1.7c-0.7,0.4-1.5,0.6-2.4,0.6c-1.5,0-2.7-0.5-3.5-1.4s-1.3-2.5-1.3-4.5v-8.1
		h2.5v8.2c0,1.5,0.2,2.5,0.7,3s1.1,0.8,2,0.8c0.9,0,1.6-0.2,2.2-0.5c0.6-0.4,1-0.9,1.3-1.5v-9.9h2.5v13.8H359L358.9,230.4z"/>
	<path class="st2" d="M373,228.8c0-0.6-0.2-1-0.6-1.4c-0.4-0.3-1.2-0.7-2.4-0.9c-1.6-0.3-2.9-0.8-3.7-1.5c-0.9-0.6-1.3-1.5-1.3-2.5
		c0-1.1,0.5-2.1,1.4-2.9c1-0.8,2.2-1.2,3.7-1.2c1.6,0,2.8,0.4,3.8,1.3c1,0.9,1.4,1.8,1.4,3l0,0.1h-2.4c0-0.6-0.3-1.1-0.8-1.6
		c-0.5-0.5-1.2-0.7-2-0.7c-0.9,0-1.5,0.2-2,0.6c-0.4,0.4-0.7,0.9-0.7,1.4c0,0.5,0.2,1,0.6,1.3c0.4,0.3,1.2,0.6,2.3,0.8
		c1.7,0.4,3,0.9,3.9,1.5s1.3,1.5,1.3,2.6c0,1.2-0.5,2.2-1.5,3c-1,0.8-2.3,1.2-3.9,1.2c-1.8,0-3.1-0.4-4.2-1.3
		c-1-0.9-1.5-1.9-1.4-3.1l0-0.1h2.4c0,0.9,0.4,1.5,1,2s1.3,0.6,2.2,0.6c0.9,0,1.6-0.2,2.1-0.6C372.7,229.8,373,229.3,373,228.8z"/>
	<path class="st2" d="M382.1,215.3v3.3h2.6v1.9h-2.6v8.4c0,0.6,0.1,1.1,0.4,1.4s0.6,0.4,1.1,0.4c0.1,0,0.3,0,0.5-0.1
		c0.2,0,0.3-0.1,0.4-0.1l0.3,1.7c-0.2,0.2-0.5,0.3-0.8,0.4c-0.4,0.1-0.7,0.1-1.1,0.1c-1,0-1.8-0.3-2.4-0.9c-0.6-0.6-0.9-1.6-0.9-2.9
		v-8.4h-2.2v-1.9h2.2v-3.3H382.1z"/>
	<path class="st2" d="M405.7,226.1c0,2-0.5,3.6-1.4,4.8s-2.3,1.8-3.9,1.8c-0.9,0-1.7-0.2-2.4-0.5c-0.7-0.4-1.2-0.9-1.7-1.6l-0.4,1.9
		h-1.9v-19.9h2.5v7.7c0.4-0.6,1-1.1,1.6-1.4c0.6-0.3,1.4-0.5,2.3-0.5c1.7,0,3,0.7,4,2c1,1.4,1.4,3.2,1.4,5.4V226.1z M403.2,225.8
		c0-1.6-0.3-2.9-0.9-3.9c-0.6-1-1.5-1.5-2.7-1.5c-0.8,0-1.4,0.2-2,0.6c-0.5,0.4-1,0.9-1.3,1.5v6c0.3,0.7,0.7,1.2,1.3,1.6
		c0.5,0.4,1.2,0.6,2,0.6c1.2,0,2.1-0.4,2.6-1.3s0.9-2,0.9-3.3V225.8z"/>
	<path class="st2" d="M414.5,232.7c-2,0-3.5-0.6-4.6-1.9c-1.1-1.3-1.7-2.9-1.7-5v-0.6c0-2,0.6-3.6,1.7-4.9c1.1-1.3,2.5-1.9,4.2-1.9
		c1.8,0,3.2,0.6,4.2,1.7s1.4,2.7,1.4,4.6v1.3h-8.8l0,0.1c0,1.4,0.3,2.5,0.9,3.4c0.6,0.9,1.5,1.3,2.8,1.3c0.9,0,1.6-0.1,2.2-0.4
		c0.6-0.2,1.2-0.6,1.7-1l1,1.6c-0.5,0.5-1.1,0.9-2,1.2S415.6,232.7,414.5,232.7z M414.1,220.4c-0.9,0-1.6,0.3-2.2,1
		c-0.6,0.7-0.9,1.5-1.1,2.6l0,0.1h6.2v-0.2c0-1-0.2-1.8-0.7-2.5S415.1,220.4,414.1,220.4z"/>
	<path class="st2" d="M80.8,262.5c-0.1-0.4-0.2-0.8-0.2-1.1c0-0.3-0.1-0.6-0.1-1c-0.5,0.7-1.1,1.2-1.8,1.7c-0.8,0.4-1.6,0.7-2.4,0.7
		c-1.4,0-2.5-0.4-3.3-1.1c-0.8-0.7-1.1-1.7-1.1-3c0-1.3,0.5-2.3,1.6-3.1c1.1-0.7,2.5-1.1,4.3-1.1h2.7v-1.4c0-0.8-0.2-1.4-0.7-1.9
		s-1.2-0.7-2.1-0.7c-0.8,0-1.5,0.2-2,0.6s-0.8,0.9-0.8,1.5l-2.4,0l0-0.1c-0.1-1,0.4-1.9,1.4-2.8c1-0.8,2.3-1.2,3.9-1.2
		c1.6,0,2.8,0.4,3.8,1.2c1,0.8,1.4,1.9,1.4,3.4v6.6c0,0.5,0,1,0.1,1.4c0.1,0.5,0.1,0.9,0.3,1.4H80.8z M76.6,260.7
		c0.9,0,1.7-0.2,2.5-0.7c0.7-0.5,1.2-1,1.4-1.6v-2.2h-2.8c-1,0-1.8,0.3-2.4,0.8c-0.6,0.5-0.9,1.1-0.9,1.8c0,0.6,0.2,1.1,0.6,1.5
		C75.3,260.5,75.9,260.7,76.6,260.7z"/>
	<path class="st2" d="M95.5,260.5c-0.4,0.7-1,1.3-1.7,1.7c-0.7,0.4-1.5,0.6-2.4,0.6c-1.5,0-2.7-0.5-3.5-1.4s-1.3-2.5-1.3-4.5v-8.1
		h2.5v8.2c0,1.5,0.2,2.5,0.7,3c0.4,0.6,1.1,0.8,2,0.8c0.9,0,1.6-0.2,2.2-0.5c0.6-0.4,1-0.9,1.3-1.5v-9.9h2.5v13.8h-2.3L95.5,260.5z"
		/>
	<path class="st2" d="M105,245.4v3.3h2.6v1.9H105v8.4c0,0.6,0.1,1.1,0.4,1.4c0.3,0.3,0.6,0.4,1.1,0.4c0.1,0,0.3,0,0.5-0.1
		c0.2,0,0.3-0.1,0.4-0.1l0.3,1.7c-0.2,0.2-0.5,0.3-0.8,0.4c-0.4,0.1-0.7,0.1-1.1,0.1c-1,0-1.8-0.3-2.4-0.9c-0.6-0.6-0.9-1.6-0.9-2.9
		v-8.4h-2.2v-1.9h2.2v-3.3H105z"/>
	<path class="st2" d="M109.8,255.5c0-2,0.6-3.7,1.7-5c1.1-1.3,2.6-2,4.5-2c1.9,0,3.4,0.7,4.5,2c1.1,1.3,1.7,3,1.7,5.1v0.3
		c0,2.1-0.6,3.7-1.7,5.1s-2.6,2-4.5,2s-3.4-0.7-4.5-2c-1.1-1.3-1.7-3-1.7-5V255.5z M112.3,255.8c0,1.5,0.3,2.7,0.9,3.6
		c0.6,1,1.5,1.4,2.7,1.4c1.2,0,2.1-0.5,2.7-1.4c0.6-1,0.9-2.2,0.9-3.6v-0.3c0-1.4-0.3-2.6-0.9-3.6s-1.5-1.4-2.7-1.4
		c-1.2,0-2.1,0.5-2.7,1.4c-0.6,1-0.9,2.2-0.9,3.6V255.8z"/>
	<path class="st2" d="M127.4,248.7l0.2,2.1c0.5-0.7,1-1.3,1.7-1.7c0.7-0.4,1.5-0.6,2.4-0.6c1.5,0,2.6,0.4,3.5,1.3
		c0.8,0.9,1.2,2.2,1.2,4v8.7h-2.5v-8.7c0-1.2-0.2-2.1-0.7-2.6c-0.5-0.5-1.2-0.8-2.2-0.8c-0.8,0-1.4,0.2-2,0.5s-1,0.7-1.3,1.3v10.2
		h-2.5v-13.8H127.4z"/>
	<path class="st2" d="M139.5,255.5c0-2,0.6-3.7,1.7-5c1.1-1.3,2.6-2,4.5-2c1.9,0,3.4,0.7,4.5,2c1.1,1.3,1.7,3,1.7,5.1v0.3
		c0,2.1-0.6,3.7-1.7,5.1s-2.6,2-4.5,2s-3.4-0.7-4.5-2c-1.1-1.3-1.7-3-1.7-5V255.5z M142,255.8c0,1.5,0.3,2.7,0.9,3.6
		c0.6,1,1.5,1.4,2.7,1.4c1.2,0,2.1-0.5,2.7-1.4c0.6-1,0.9-2.2,0.9-3.6v-0.3c0-1.4-0.3-2.6-0.9-3.6s-1.5-1.4-2.7-1.4
		c-1.2,0-2.1,0.5-2.7,1.4c-0.6,1-0.9,2.2-0.9,3.6V255.8z"/>
	<path class="st2" d="M157.1,248.7l0.2,1.8c0.5-0.7,1-1.2,1.7-1.5c0.7-0.4,1.5-0.5,2.4-0.5c0.9,0,1.7,0.2,2.4,0.6
		c0.7,0.4,1.2,1.1,1.5,1.9c0.4-0.8,1-1.4,1.7-1.9s1.5-0.7,2.5-0.7c1.4,0,2.5,0.5,3.3,1.4s1.2,2.4,1.2,4.4v8.3h-2.5v-8.3
		c0-1.4-0.2-2.3-0.7-2.9s-1.2-0.8-2.1-0.8c-0.9,0-1.6,0.3-2.1,0.9c-0.5,0.6-0.8,1.3-0.9,2.3v0.1v8.8h-2.5v-8.3
		c0-1.3-0.2-2.2-0.7-2.8c-0.5-0.6-1.2-0.9-2.1-0.9c-0.8,0-1.4,0.2-1.9,0.5c-0.5,0.3-0.9,0.8-1.1,1.3v10.2h-2.5v-13.8H157.1z"/>
	<path class="st2" d="M177.1,255.5c0-2,0.6-3.7,1.7-5c1.1-1.3,2.6-2,4.5-2c1.9,0,3.4,0.7,4.5,2c1.1,1.3,1.7,3,1.7,5.1v0.3
		c0,2.1-0.6,3.7-1.7,5.1s-2.6,2-4.5,2s-3.4-0.7-4.5-2c-1.1-1.3-1.7-3-1.7-5V255.5z M179.6,255.8c0,1.5,0.3,2.7,0.9,3.6
		c0.6,1,1.5,1.4,2.7,1.4c1.2,0,2.1-0.5,2.7-1.4c0.6-1,0.9-2.2,0.9-3.6v-0.3c0-1.4-0.3-2.6-0.9-3.6s-1.5-1.4-2.7-1.4
		c-1.2,0-2.1,0.5-2.7,1.4c-0.6,1-0.9,2.2-0.9,3.6V255.8z"/>
	<path class="st2" d="M201.3,260.5c-0.4,0.7-1,1.3-1.7,1.7c-0.7,0.4-1.5,0.6-2.4,0.6c-1.5,0-2.7-0.5-3.5-1.4s-1.3-2.5-1.3-4.5v-8.1
		h2.5v8.2c0,1.5,0.2,2.5,0.7,3c0.4,0.6,1.1,0.8,2,0.8c0.9,0,1.6-0.2,2.2-0.5c0.6-0.4,1-0.9,1.3-1.5v-9.9h2.5v13.8h-2.3L201.3,260.5z
		"/>
	<path class="st2" d="M215.4,258.8c0-0.6-0.2-1-0.6-1.4s-1.2-0.7-2.4-0.9c-1.6-0.3-2.9-0.8-3.7-1.5c-0.9-0.6-1.3-1.5-1.3-2.5
		c0-1.1,0.5-2.1,1.4-2.9c1-0.8,2.2-1.2,3.7-1.2c1.6,0,2.8,0.4,3.8,1.3c1,0.8,1.4,1.8,1.4,3l0,0.1h-2.4c0-0.6-0.3-1.1-0.8-1.6
		c-0.5-0.5-1.2-0.7-2-0.7c-0.9,0-1.5,0.2-2,0.6c-0.4,0.4-0.7,0.9-0.7,1.4c0,0.5,0.2,1,0.6,1.3c0.4,0.3,1.2,0.6,2.3,0.8
		c1.7,0.4,3,0.9,3.9,1.5c0.9,0.7,1.3,1.5,1.3,2.6c0,1.2-0.5,2.2-1.5,3c-1,0.8-2.3,1.2-3.9,1.2c-1.8,0-3.1-0.4-4.2-1.3
		c-1-0.9-1.5-1.9-1.4-3.1l0-0.1h2.4c0,0.9,0.4,1.5,1,2c0.6,0.4,1.3,0.6,2.2,0.6c0.9,0,1.6-0.2,2.1-0.6
		C215.2,259.9,215.4,259.4,215.4,258.8z"/>
	<path class="st2" d="M228.6,262.5v-11.9h-2.2v-1.9h2.2V247c0-1.5,0.4-2.6,1.2-3.4c0.8-0.8,1.8-1.2,3.2-1.2c0.3,0,0.6,0,0.9,0.1
		s0.6,0.1,1,0.2l-0.3,1.9c-0.2,0-0.3-0.1-0.6-0.1s-0.4,0-0.7,0c-0.7,0-1.3,0.2-1.6,0.7c-0.4,0.4-0.5,1.1-0.5,1.9v1.7h2.5v1.9h-2.5
		v11.9H228.6z"/>
	<path class="st2" d="M242.7,250.9l-1.3-0.1c-0.7,0-1.2,0.2-1.7,0.5c-0.5,0.3-0.8,0.8-1.1,1.3v9.9h-2.5v-13.8h2.2l0.2,2
		c0.4-0.7,0.9-1.3,1.4-1.7c0.6-0.4,1.2-0.6,2-0.6c0.2,0,0.4,0,0.5,0c0.2,0,0.3,0.1,0.4,0.1L242.7,250.9z"/>
	<path class="st2" d="M244.7,255.5c0-2,0.6-3.7,1.7-5c1.1-1.3,2.6-2,4.5-2c1.9,0,3.4,0.7,4.5,2s1.7,3,1.7,5.1v0.3
		c0,2.1-0.6,3.7-1.7,5.1s-2.6,2-4.5,2c-1.9,0-3.4-0.7-4.5-2c-1.1-1.3-1.7-3-1.7-5V255.5z M247.2,255.8c0,1.5,0.3,2.7,0.9,3.6
		c0.6,1,1.5,1.4,2.7,1.4c1.2,0,2.1-0.5,2.7-1.4c0.6-1,0.9-2.2,0.9-3.6v-0.3c0-1.4-0.3-2.6-0.9-3.6s-1.5-1.4-2.7-1.4
		c-1.2,0-2.1,0.5-2.7,1.4c-0.6,1-0.9,2.2-0.9,3.6V255.8z"/>
	<path class="st2" d="M262.4,248.7l0.2,1.8c0.5-0.7,1-1.2,1.7-1.5c0.7-0.4,1.5-0.5,2.4-0.5c0.9,0,1.7,0.2,2.4,0.6
		c0.7,0.4,1.2,1.1,1.5,1.9c0.4-0.8,1-1.4,1.7-1.9s1.5-0.7,2.5-0.7c1.4,0,2.5,0.5,3.3,1.4s1.2,2.4,1.2,4.4v8.3h-2.5v-8.3
		c0-1.4-0.2-2.3-0.7-2.9c-0.5-0.6-1.2-0.8-2.1-0.8c-0.9,0-1.6,0.3-2.1,0.9c-0.5,0.6-0.8,1.3-0.9,2.3v0.1v8.8h-2.5v-8.3
		c0-1.3-0.2-2.2-0.7-2.8s-1.2-0.9-2.1-0.9c-0.8,0-1.4,0.2-1.9,0.5c-0.5,0.3-0.9,0.8-1.1,1.3v10.2h-2.5v-13.8H262.4z"/>
	<path class="st2" d="M293,245.4v3.3h2.6v1.9H293v8.4c0,0.6,0.1,1.1,0.4,1.4c0.3,0.3,0.6,0.4,1.1,0.4c0.1,0,0.3,0,0.5-0.1
		c0.2,0,0.3-0.1,0.4-0.1l0.3,1.7c-0.2,0.2-0.5,0.3-0.8,0.4c-0.4,0.1-0.7,0.1-1.1,0.1c-1,0-1.8-0.3-2.4-0.9c-0.6-0.6-0.9-1.6-0.9-2.9
		v-8.4h-2.2v-1.9h2.2v-3.3H293z"/>
	<path class="st2" d="M300.8,250.6c0.5-0.7,1.1-1.2,1.8-1.5c0.7-0.4,1.5-0.6,2.3-0.6c1.5,0,2.6,0.4,3.4,1.3c0.8,0.9,1.2,2.2,1.2,4.1
		v8.6H307v-8.7c0-1.1-0.2-2-0.7-2.5c-0.5-0.5-1.2-0.8-2.2-0.8c-0.7,0-1.4,0.1-2,0.4c-0.6,0.3-1,0.7-1.3,1.2v10.3h-2.5v-19.9h2.5
		V250.6z"/>
	<path class="st2" d="M318.8,262.8c-2,0-3.5-0.6-4.6-1.9c-1.1-1.3-1.7-2.9-1.7-5v-0.6c0-2,0.6-3.6,1.7-4.9c1.1-1.3,2.5-1.9,4.2-1.9
		c1.8,0,3.2,0.6,4.2,1.7c0.9,1.1,1.4,2.7,1.4,4.6v1.3h-8.8l0,0.1c0,1.4,0.3,2.5,0.9,3.4s1.5,1.3,2.8,1.3c0.9,0,1.6-0.1,2.2-0.4
		c0.6-0.2,1.2-0.6,1.7-1l1,1.6c-0.5,0.5-1.1,0.9-2,1.2C321,262.6,320,262.8,318.8,262.8z M318.5,250.4c-0.9,0-1.6,0.3-2.2,1
		c-0.6,0.7-0.9,1.5-1.1,2.6l0,0.1h6.2v-0.2c0-1-0.2-1.8-0.7-2.5C320.2,250.8,319.5,250.4,318.5,250.4z"/>
	<path class="st2" d="M345.1,256.1c0,2-0.5,3.6-1.4,4.8c-1,1.2-2.3,1.8-3.9,1.8c-0.9,0-1.6-0.1-2.2-0.4c-0.6-0.3-1.2-0.7-1.6-1.3
		v6.7h-2.5v-19.1h1.9l0.4,1.8c0.5-0.7,1-1.2,1.7-1.5s1.5-0.5,2.3-0.5c1.7,0,3,0.7,4,2s1.4,3.1,1.4,5.4V256.1z M342.5,255.9
		c0-1.6-0.3-2.9-0.9-3.9c-0.6-1-1.5-1.5-2.7-1.5c-0.7,0-1.3,0.2-1.8,0.5c-0.5,0.3-0.9,0.8-1.2,1.3v6.7c0.3,0.6,0.7,1,1.2,1.3
		c0.5,0.3,1.1,0.5,1.9,0.5c1.2,0,2.1-0.4,2.7-1.3c0.6-0.9,0.9-2,0.9-3.4V255.9z"/>
	<path class="st2" d="M347.6,255.5c0-2,0.6-3.7,1.7-5c1.1-1.3,2.6-2,4.5-2c1.9,0,3.4,0.7,4.5,2s1.7,3,1.7,5.1v0.3
		c0,2.1-0.6,3.7-1.7,5.1s-2.6,2-4.5,2c-1.9,0-3.4-0.7-4.5-2c-1.1-1.3-1.7-3-1.7-5V255.5z M350.1,255.8c0,1.5,0.3,2.7,0.9,3.6
		s1.5,1.4,2.7,1.4c1.2,0,2.1-0.5,2.7-1.4c0.6-1,0.9-2.2,0.9-3.6v-0.3c0-1.4-0.3-2.6-0.9-3.6s-1.5-1.4-2.7-1.4
		c-1.2,0-2.1,0.5-2.7,1.4s-0.9,2.2-0.9,3.6V255.8z"/>
	<path class="st2" d="M365.7,262.5h-2.5v-19.9h2.5V262.5z"/>
	<path class="st2" d="M372.3,245.2h-2.5v-2.6h2.5V245.2z M372.3,262.5h-2.5v-13.8h2.5V262.5z"/>
	<path class="st2" d="M379.7,245.4v3.3h2.6v1.9h-2.6v8.4c0,0.6,0.1,1.1,0.4,1.4c0.3,0.3,0.6,0.4,1.1,0.4c0.1,0,0.3,0,0.5-0.1
		c0.2,0,0.3-0.1,0.4-0.1l0.3,1.7c-0.2,0.2-0.5,0.3-0.8,0.4c-0.4,0.1-0.7,0.1-1.1,0.1c-1,0-1.8-0.3-2.4-0.9c-0.6-0.6-0.9-1.6-0.9-2.9
		v-8.4h-2.2v-1.9h2.2v-3.3H379.7z"/>
	<path class="st2" d="M387.7,245.2h-2.5v-2.6h2.5V245.2z M387.7,262.5h-2.5v-13.8h2.5V262.5z"/>
	<path class="st2" d="M397,260.8c0.8,0,1.5-0.3,2-0.8s0.9-1.1,0.9-1.9h2.3l0,0.1c0,1.2-0.5,2.2-1.5,3.2c-1.1,0.9-2.3,1.4-3.7,1.4
		c-1.9,0-3.4-0.7-4.5-2c-1.1-1.3-1.6-3-1.6-4.9v-0.5c0-1.9,0.5-3.6,1.6-4.9c1.1-1.3,2.6-2,4.5-2c1.5,0,2.8,0.5,3.8,1.4
		c1,1,1.5,2.1,1.4,3.5l0,0.1h-2.3c0-0.8-0.3-1.6-0.8-2.1c-0.5-0.6-1.2-0.9-2.1-0.9c-1.2,0-2.1,0.5-2.7,1.4c-0.6,1-0.8,2.1-0.8,3.5
		v0.5c0,1.4,0.3,2.6,0.8,3.5C394.9,260.3,395.8,260.8,397,260.8z"/>
	<path class="st2" d="M413.7,262.5c-0.1-0.4-0.2-0.8-0.2-1.1c0-0.3-0.1-0.6-0.1-1c-0.5,0.7-1.1,1.2-1.8,1.7
		c-0.8,0.4-1.6,0.7-2.4,0.7c-1.4,0-2.5-0.4-3.3-1.1c-0.8-0.7-1.1-1.7-1.1-3c0-1.3,0.5-2.3,1.6-3.1c1.1-0.7,2.5-1.1,4.3-1.1h2.7v-1.4
		c0-0.8-0.2-1.4-0.7-1.9s-1.2-0.7-2.1-0.7c-0.8,0-1.5,0.2-2,0.6s-0.8,0.9-0.8,1.5l-2.4,0l0-0.1c-0.1-1,0.4-1.9,1.4-2.8
		c1-0.8,2.3-1.2,3.9-1.2c1.6,0,2.8,0.4,3.8,1.2c1,0.8,1.4,1.9,1.4,3.4v6.6c0,0.5,0,1,0.1,1.4c0.1,0.5,0.1,0.9,0.3,1.4H413.7z
		 M409.5,260.7c0.9,0,1.7-0.2,2.5-0.7s1.2-1,1.4-1.6v-2.2h-2.8c-1,0-1.8,0.3-2.4,0.8c-0.6,0.5-0.9,1.1-0.9,1.8
		c0,0.6,0.2,1.1,0.6,1.5C408.2,260.5,408.8,260.7,409.5,260.7z"/>
	<path class="st2" d="M422.3,262.5h-2.5v-19.9h2.5V262.5z"/>
	<path class="st2" d="M428.3,261.9l-1.9,3.9h-1.5l0.9-4v-2.1h2.5V261.9z"/>
	<path class="st2" d="M101.1,292.8c-2,0-3.5-0.6-4.6-1.9c-1.1-1.3-1.7-2.9-1.7-5v-0.6c0-2,0.6-3.6,1.7-4.9s2.5-1.9,4.2-1.9
		c1.8,0,3.2,0.6,4.2,1.7c0.9,1.1,1.4,2.7,1.4,4.6v1.3h-8.8l0,0.1c0,1.4,0.3,2.5,0.9,3.4c0.6,0.9,1.5,1.3,2.8,1.3
		c0.9,0,1.6-0.1,2.2-0.4c0.6-0.2,1.2-0.6,1.7-1l1,1.6c-0.5,0.5-1.1,0.9-2,1.2C103.2,292.6,102.2,292.8,101.1,292.8z M100.7,280.5
		c-0.9,0-1.6,0.3-2.2,1c-0.6,0.7-0.9,1.5-1.1,2.6l0,0.1h6.2v-0.2c0-1-0.2-1.8-0.7-2.5C102.5,280.8,101.7,280.5,100.7,280.5z"/>
	<path class="st2" d="M114.5,290.8c0.8,0,1.4-0.3,2-0.8c0.6-0.5,0.9-1.1,0.9-1.9h2.3l0,0.1c0,1.2-0.5,2.2-1.5,3.2
		c-1.1,0.9-2.3,1.4-3.7,1.4c-1.9,0-3.4-0.7-4.5-2s-1.6-3-1.6-4.9v-0.5c0-1.9,0.5-3.6,1.6-4.9c1.1-1.3,2.6-2,4.5-2
		c1.5,0,2.8,0.5,3.8,1.4c1,1,1.5,2.1,1.4,3.5l0,0.1h-2.3c0-0.8-0.3-1.6-0.8-2.1c-0.5-0.6-1.2-0.9-2.1-0.9c-1.2,0-2.1,0.5-2.7,1.4
		c-0.6,1-0.8,2.1-0.8,3.5v0.5c0,1.4,0.3,2.6,0.8,3.5S113.3,290.8,114.5,290.8z"/>
	<path class="st2" d="M122.1,285.5c0-2,0.6-3.7,1.7-5c1.1-1.3,2.6-2,4.5-2c1.9,0,3.4,0.7,4.5,2c1.1,1.3,1.7,3,1.7,5.1v0.3
		c0,2.1-0.6,3.7-1.7,5.1s-2.6,2-4.5,2s-3.4-0.7-4.5-2c-1.1-1.3-1.7-3-1.7-5V285.5z M124.6,285.8c0,1.5,0.3,2.7,0.9,3.6
		c0.6,1,1.5,1.4,2.7,1.4c1.2,0,2.1-0.5,2.7-1.4c0.6-1,0.9-2.2,0.9-3.6v-0.3c0-1.4-0.3-2.6-0.9-3.6s-1.5-1.4-2.7-1.4
		c-1.2,0-2.1,0.5-2.7,1.4c-0.6,1-0.9,2.2-0.9,3.6V285.8z"/>
	<path class="st2" d="M139.8,278.7l0.2,2.1c0.5-0.7,1-1.3,1.7-1.7c0.7-0.4,1.5-0.6,2.4-0.6c1.5,0,2.6,0.4,3.5,1.3
		c0.8,0.9,1.2,2.2,1.2,4v8.7h-2.5v-8.7c0-1.2-0.2-2.1-0.7-2.6c-0.5-0.5-1.2-0.8-2.2-0.8c-0.8,0-1.4,0.2-2,0.5s-1,0.7-1.3,1.3v10.2
		h-2.5v-13.8H139.8z"/>
	<path class="st2" d="M151.8,285.5c0-2,0.6-3.7,1.7-5c1.1-1.3,2.6-2,4.5-2c1.9,0,3.4,0.7,4.5,2c1.1,1.3,1.7,3,1.7,5.1v0.3
		c0,2.1-0.6,3.7-1.7,5.1s-2.6,2-4.5,2s-3.4-0.7-4.5-2c-1.1-1.3-1.7-3-1.7-5V285.5z M154.3,285.8c0,1.5,0.3,2.7,0.9,3.6
		c0.6,1,1.5,1.4,2.7,1.4c1.2,0,2.1-0.5,2.7-1.4c0.6-1,0.9-2.2,0.9-3.6v-0.3c0-1.4-0.3-2.6-0.9-3.6s-1.5-1.4-2.7-1.4
		c-1.2,0-2.1,0.5-2.7,1.4c-0.6,1-0.9,2.2-0.9,3.6V285.8z"/>
	<path class="st2" d="M169.5,278.7l0.2,1.8c0.5-0.7,1-1.2,1.7-1.5c0.7-0.4,1.5-0.5,2.4-0.5c0.9,0,1.7,0.2,2.4,0.6
		c0.7,0.4,1.2,1.1,1.5,1.9c0.4-0.8,1-1.4,1.7-1.9s1.5-0.7,2.5-0.7c1.4,0,2.5,0.5,3.3,1.4s1.2,2.4,1.2,4.4v8.3h-2.5v-8.3
		c0-1.4-0.2-2.3-0.7-2.9s-1.2-0.8-2.1-0.8c-0.9,0-1.6,0.3-2.1,0.9c-0.5,0.6-0.8,1.3-0.9,2.3v0.1v8.8h-2.5v-8.3
		c0-1.3-0.2-2.2-0.7-2.8c-0.5-0.6-1.2-0.9-2.1-0.9c-0.8,0-1.4,0.2-1.9,0.5c-0.5,0.3-0.9,0.8-1.1,1.3v10.2h-2.5v-13.8H169.5z"/>
	<path class="st2" d="M192.8,275.2h-2.5v-2.6h2.5V275.2z M192.8,292.5h-2.5v-13.8h2.5V292.5z"/>
	<path class="st2" d="M202.1,290.8c0.8,0,1.4-0.3,2-0.8c0.6-0.5,0.9-1.1,0.9-1.9h2.3l0,0.1c0,1.2-0.5,2.2-1.5,3.2
		c-1.1,0.9-2.3,1.4-3.7,1.4c-1.9,0-3.4-0.7-4.5-2s-1.6-3-1.6-4.9v-0.5c0-1.9,0.5-3.6,1.6-4.9c1.1-1.3,2.6-2,4.5-2
		c1.5,0,2.8,0.5,3.8,1.4c1,1,1.5,2.1,1.4,3.5l0,0.1H205c0-0.8-0.3-1.6-0.8-2.1c-0.5-0.6-1.2-0.9-2.1-0.9c-1.2,0-2.1,0.5-2.7,1.4
		c-0.6,1-0.8,2.1-0.8,3.5v0.5c0,1.4,0.3,2.6,0.8,3.5S200.9,290.8,202.1,290.8z"/>
	<path class="st2" d="M212.5,291.9l-1.9,3.9h-1.5l0.9-4v-2.1h2.5V291.9z"/>
	<path class="st2" d="M224.2,278.7l0.2,1.8c0.5-0.7,1-1.2,1.7-1.5c0.7-0.4,1.5-0.5,2.4-0.5c0.9,0,1.7,0.2,2.4,0.6
		c0.7,0.4,1.2,1.1,1.5,1.9c0.4-0.8,1-1.4,1.7-1.9s1.5-0.7,2.5-0.7c1.4,0,2.5,0.5,3.3,1.4s1.2,2.4,1.2,4.4v8.3h-2.5v-8.3
		c0-1.4-0.2-2.3-0.7-2.9s-1.2-0.8-2.1-0.8c-0.9,0-1.6,0.3-2.1,0.9c-0.5,0.6-0.8,1.3-0.9,2.3v0.1v8.8h-2.5v-8.3
		c0-1.3-0.2-2.2-0.7-2.8c-0.5-0.6-1.2-0.9-2.1-0.9c-0.8,0-1.4,0.2-1.9,0.5c-0.5,0.3-0.9,0.8-1.1,1.3v10.2H222v-13.8H224.2z"/>
	<path class="st2" d="M247.5,275.2H245v-2.6h2.5V275.2z M247.5,292.5H245v-13.8h2.5V292.5z"/>
	<path class="st2" d="M254.1,292.5h-2.5v-19.9h2.5V292.5z"/>
	<path class="st2" d="M260.7,275.2h-2.5v-2.6h2.5V275.2z M260.7,292.5h-2.5v-13.8h2.5V292.5z"/>
	<path class="st2" d="M268.1,275.4v3.3h2.6v1.9h-2.6v8.4c0,0.6,0.1,1.1,0.4,1.4c0.3,0.3,0.6,0.4,1.1,0.4c0.1,0,0.3,0,0.5-0.1
		c0.2,0,0.3-0.1,0.4-0.1l0.3,1.7c-0.2,0.2-0.5,0.3-0.8,0.4c-0.4,0.1-0.7,0.1-1.1,0.1c-1,0-1.8-0.3-2.4-0.9c-0.6-0.6-0.9-1.6-0.9-2.9
		v-8.4h-2.2v-1.9h2.2v-3.3H268.1z"/>
	<path class="st2" d="M281.8,292.5c-0.1-0.4-0.2-0.8-0.2-1.1c0-0.3-0.1-0.6-0.1-1c-0.5,0.7-1.1,1.2-1.8,1.7
		c-0.8,0.4-1.6,0.7-2.4,0.7c-1.4,0-2.5-0.4-3.3-1.1c-0.8-0.7-1.1-1.7-1.1-3c0-1.3,0.5-2.3,1.6-3.1c1.1-0.7,2.5-1.1,4.3-1.1h2.7v-1.4
		c0-0.8-0.2-1.4-0.7-1.9s-1.2-0.7-2.1-0.7c-0.8,0-1.5,0.2-2,0.6s-0.8,0.9-0.8,1.5l-2.4,0l0-0.1c-0.1-1,0.4-1.9,1.4-2.8
		c1-0.8,2.3-1.2,3.9-1.2c1.6,0,2.8,0.4,3.8,1.2c1,0.8,1.4,1.9,1.4,3.4v6.6c0,0.5,0,1,0.1,1.4c0.1,0.5,0.1,0.9,0.3,1.4H281.8z
		 M277.7,290.7c0.9,0,1.7-0.2,2.5-0.7s1.2-1,1.4-1.6v-2.2h-2.8c-1,0-1.8,0.3-2.4,0.8c-0.6,0.5-0.9,1.1-0.9,1.8
		c0,0.6,0.2,1.1,0.6,1.5C276.4,290.5,276.9,290.7,277.7,290.7z"/>
	<path class="st2" d="M294.2,281l-1.3-0.1c-0.7,0-1.2,0.2-1.7,0.5c-0.5,0.3-0.8,0.8-1.1,1.3v9.9h-2.5v-13.8h2.2l0.2,2
		c0.4-0.7,0.9-1.3,1.4-1.7c0.6-0.4,1.2-0.6,2-0.6c0.2,0,0.4,0,0.5,0c0.2,0,0.3,0.1,0.4,0.1L294.2,281z"/>
	<path class="st2" d="M301.1,287.4l0.4,1.7h0.1l3.4-10.4h2.8l-5.8,15.9c-0.3,0.9-0.8,1.7-1.5,2.4s-1.5,1-2.6,1c-0.2,0-0.5,0-0.8-0.1
		s-0.6-0.1-0.7-0.1l0.3-2c-0.1,0,0.1,0,0.5,0c0.4,0,0.6,0,0.7,0c0.5,0,1-0.2,1.3-0.7s0.6-1,0.9-1.6l0.6-1.4l-5.1-13.5h2.8
		L301.1,287.4z"/>
	<path class="st2" d="M315.9,285.5c0-2,0.6-3.7,1.7-5c1.1-1.3,2.6-2,4.5-2c1.9,0,3.4,0.7,4.5,2s1.7,3,1.7,5.1v0.3
		c0,2.1-0.6,3.7-1.7,5.1s-2.6,2-4.5,2c-1.9,0-3.4-0.7-4.5-2c-1.1-1.3-1.7-3-1.7-5V285.5z M318.4,285.8c0,1.5,0.3,2.7,0.9,3.6
		s1.5,1.4,2.7,1.4c1.2,0,2.1-0.5,2.7-1.4c0.6-1,0.9-2.2,0.9-3.6v-0.3c0-1.4-0.3-2.6-0.9-3.6s-1.5-1.4-2.7-1.4
		c-1.2,0-2.1,0.5-2.7,1.4s-0.9,2.2-0.9,3.6V285.8z"/>
	<path class="st2" d="M337.9,281l-1.3-0.1c-0.7,0-1.2,0.2-1.7,0.5c-0.5,0.3-0.8,0.8-1.1,1.3v9.9h-2.5v-13.8h2.2l0.2,2
		c0.4-0.7,0.9-1.3,1.4-1.7c0.6-0.4,1.2-0.6,2-0.6c0.2,0,0.4,0,0.5,0c0.2,0,0.3,0.1,0.4,0.1L337.9,281z"/>
	<path class="st2" d="M346.4,285.5c0-2,0.6-3.7,1.7-5c1.1-1.3,2.6-2,4.5-2c1.9,0,3.4,0.7,4.5,2s1.7,3,1.7,5.1v0.3
		c0,2.1-0.6,3.7-1.7,5.1s-2.6,2-4.5,2c-1.9,0-3.4-0.7-4.5-2c-1.1-1.3-1.7-3-1.7-5V285.5z M348.9,285.8c0,1.5,0.3,2.7,0.9,3.6
		s1.5,1.4,2.7,1.4c1.2,0,2.1-0.5,2.7-1.4c0.6-1,0.9-2.2,0.9-3.6v-0.3c0-1.4-0.3-2.6-0.9-3.6s-1.5-1.4-2.7-1.4
		c-1.2,0-2.1,0.5-2.7,1.4s-0.9,2.2-0.9,3.6V285.8z"/>
	<path class="st2" d="M365.3,275.4v3.3h2.6v1.9h-2.6v8.4c0,0.6,0.1,1.1,0.4,1.4c0.3,0.3,0.6,0.4,1.1,0.4c0.1,0,0.3,0,0.5-0.1
		c0.2,0,0.3-0.1,0.4-0.1l0.3,1.7c-0.2,0.2-0.5,0.3-0.8,0.4c-0.4,0.1-0.7,0.1-1.1,0.1c-1,0-1.8-0.3-2.4-0.9c-0.6-0.6-0.9-1.6-0.9-2.9
		v-8.4h-2.2v-1.9h2.2v-3.3H365.3z"/>
	<path class="st2" d="M373.1,280.6c0.5-0.7,1.1-1.2,1.8-1.5c0.7-0.4,1.5-0.6,2.3-0.6c1.5,0,2.6,0.4,3.4,1.3c0.8,0.9,1.2,2.2,1.2,4.1
		v8.6h-2.5v-8.7c0-1.1-0.2-2-0.7-2.5c-0.5-0.5-1.2-0.8-2.2-0.8c-0.7,0-1.4,0.1-2,0.4c-0.6,0.3-1,0.7-1.3,1.2v10.3h-2.5v-19.9h2.5
		V280.6z"/>
	<path class="st2" d="M391.2,292.8c-2,0-3.5-0.6-4.6-1.9c-1.1-1.3-1.7-2.9-1.7-5v-0.6c0-2,0.6-3.6,1.7-4.9c1.1-1.3,2.5-1.9,4.2-1.9
		c1.8,0,3.2,0.6,4.2,1.7c0.9,1.1,1.4,2.7,1.4,4.6v1.3h-8.8l0,0.1c0,1.4,0.3,2.5,0.9,3.4s1.5,1.3,2.8,1.3c0.9,0,1.6-0.1,2.2-0.4
		c0.6-0.2,1.2-0.6,1.7-1l1,1.6c-0.5,0.5-1.1,0.9-2,1.2C393.3,292.6,392.3,292.8,391.2,292.8z M390.8,280.5c-0.9,0-1.6,0.3-2.2,1
		c-0.6,0.7-0.9,1.5-1.1,2.6l0,0.1h6.2v-0.2c0-1-0.2-1.8-0.7-2.5C392.6,280.8,391.8,280.5,390.8,280.5z"/>
	<path class="st2" d="M405.7,281l-1.3-0.1c-0.7,0-1.2,0.2-1.7,0.5c-0.5,0.3-0.8,0.8-1.1,1.3v9.9h-2.5v-13.8h2.2l0.2,2
		c0.4-0.7,0.9-1.3,1.4-1.7c0.6-0.4,1.2-0.6,2-0.6c0.2,0,0.4,0,0.5,0c0.2,0,0.3,0.1,0.4,0.1L405.7,281z"/>
	<path class="st2" d="M78.3,315.6c0-2,0.6-3.7,1.7-5c1.1-1.3,2.6-2,4.5-2c1.9,0,3.4,0.7,4.5,2c1.1,1.3,1.7,3,1.7,5.1v0.3
		c0,2.1-0.6,3.7-1.7,5.1s-2.6,2-4.5,2s-3.4-0.7-4.5-2c-1.1-1.3-1.7-3-1.7-5V315.6z M80.8,315.8c0,1.5,0.3,2.7,0.9,3.6
		c0.6,1,1.5,1.4,2.7,1.4c1.2,0,2.1-0.5,2.7-1.4c0.6-1,0.9-2.2,0.9-3.6v-0.3c0-1.4-0.3-2.6-0.9-3.6s-1.5-1.4-2.7-1.4
		c-1.2,0-2.1,0.5-2.7,1.4c-0.6,1-0.9,2.2-0.9,3.6V315.8z"/>
	<path class="st2" d="M105.5,316.2c0,2-0.5,3.6-1.4,4.8c-1,1.2-2.3,1.8-3.9,1.8c-0.9,0-1.7-0.2-2.4-0.5c-0.7-0.4-1.2-0.9-1.7-1.6
		l-0.4,1.9h-1.9v-19.9h2.5v7.7c0.4-0.6,1-1.1,1.6-1.4s1.4-0.5,2.3-0.5c1.7,0,3,0.7,4,2s1.4,3.2,1.4,5.4V316.2z M103,315.9
		c0-1.6-0.3-2.9-0.9-3.9s-1.5-1.5-2.7-1.5c-0.8,0-1.4,0.2-2,0.6c-0.5,0.4-1,0.9-1.3,1.5v6c0.3,0.7,0.7,1.2,1.3,1.6s1.2,0.6,2,0.6
		c1.2,0,2.1-0.4,2.6-1.3c0.6-0.8,0.9-2,0.9-3.3V315.9z"/>
	<path class="st2" d="M111.4,308.8v14.9c0,1.4-0.4,2.5-1.1,3.3c-0.7,0.8-1.7,1.2-3,1.2c-0.3,0-0.5,0-0.7-0.1s-0.4-0.1-0.7-0.2l0.2-2
		c0.1,0,0.3,0.1,0.5,0.1c0.2,0,0.4,0,0.5,0c0.6,0,1-0.2,1.3-0.6c0.3-0.4,0.5-1,0.5-1.8v-14.9H111.4z M111.4,305.2h-2.5v-2.5h2.5
		V305.2z"/>
	<path class="st2" d="M121,322.9c-2,0-3.5-0.6-4.6-1.9c-1.1-1.3-1.7-2.9-1.7-5v-0.6c0-2,0.6-3.6,1.7-4.9s2.5-1.9,4.2-1.9
		c1.8,0,3.2,0.6,4.2,1.7c0.9,1.1,1.4,2.7,1.4,4.6v1.3h-8.8l0,0.1c0,1.4,0.3,2.5,0.9,3.4c0.6,0.9,1.5,1.3,2.8,1.3
		c0.9,0,1.6-0.1,2.2-0.4c0.6-0.2,1.2-0.6,1.7-1l1,1.6c-0.5,0.5-1.1,0.9-2,1.2C123.1,322.7,122.2,322.9,121,322.9z M120.6,310.5
		c-0.9,0-1.6,0.3-2.2,1c-0.6,0.7-0.9,1.5-1.1,2.6l0,0.1h6.2V314c0-1-0.2-1.8-0.7-2.5C122.4,310.8,121.7,310.5,120.6,310.5z"/>
	<path class="st2" d="M134.5,320.9c0.8,0,1.4-0.3,2-0.8c0.6-0.5,0.9-1.1,0.9-1.9h2.3l0,0.1c0,1.2-0.5,2.2-1.5,3.2
		c-1.1,0.9-2.3,1.4-3.7,1.4c-1.9,0-3.4-0.7-4.5-2s-1.6-3-1.6-4.9v-0.5c0-1.9,0.5-3.6,1.6-4.9c1.1-1.3,2.6-2,4.5-2
		c1.5,0,2.8,0.5,3.8,1.4c1,1,1.5,2.1,1.4,3.5l0,0.1h-2.3c0-0.8-0.3-1.6-0.8-2.1c-0.5-0.6-1.2-0.9-2.1-0.9c-1.2,0-2.1,0.5-2.7,1.4
		c-0.6,1-0.8,2.1-0.8,3.5v0.5c0,1.4,0.3,2.6,0.8,3.5S133.2,320.9,134.5,320.9z"/>
	<path class="st2" d="M146.1,305.5v3.3h2.6v1.9h-2.6v8.4c0,0.6,0.1,1.1,0.4,1.4c0.3,0.3,0.6,0.4,1.1,0.4c0.1,0,0.3,0,0.5-0.1
		c0.2,0,0.3-0.1,0.4-0.1l0.3,1.7c-0.2,0.2-0.5,0.3-0.8,0.4c-0.4,0.1-0.7,0.1-1.1,0.1c-1,0-1.8-0.3-2.4-0.9c-0.6-0.6-0.9-1.6-0.9-2.9
		v-8.4h-2.2v-1.9h2.2v-3.3H146.1z"/>
	<path class="st2" d="M154.2,305.3h-2.5v-2.6h2.5V305.3z M154.2,322.6h-2.5v-13.8h2.5V322.6z"/>
	<path class="st2" d="M162.6,318.5l0.2,1h0.1l0.2-1l3.2-9.7h2.6l-5.1,13.8h-1.9l-5.1-13.8h2.6L162.6,318.5z"/>
	<path class="st2" d="M176.9,322.9c-2,0-3.5-0.6-4.6-1.9c-1.1-1.3-1.7-2.9-1.7-5v-0.6c0-2,0.6-3.6,1.7-4.9s2.5-1.9,4.2-1.9
		c1.8,0,3.2,0.6,4.2,1.7c0.9,1.1,1.4,2.7,1.4,4.6v1.3h-8.8l0,0.1c0,1.4,0.3,2.5,0.9,3.4c0.6,0.9,1.5,1.3,2.8,1.3
		c0.9,0,1.6-0.1,2.2-0.4c0.6-0.2,1.2-0.6,1.7-1l1,1.6c-0.5,0.5-1.1,0.9-2,1.2C179,322.7,178,322.9,176.9,322.9z M176.5,310.5
		c-0.9,0-1.6,0.3-2.2,1c-0.6,0.7-0.9,1.5-1.1,2.6l0,0.1h6.2V314c0-1-0.2-1.8-0.7-2.5C178.3,310.8,177.5,310.5,176.5,310.5z"/>
	<path class="st2" d="M192.9,318.9c0-0.6-0.2-1-0.6-1.4s-1.2-0.7-2.4-0.9c-1.6-0.3-2.9-0.8-3.7-1.5c-0.9-0.6-1.3-1.5-1.3-2.5
		c0-1.1,0.5-2.1,1.4-2.9c1-0.8,2.2-1.2,3.7-1.2c1.6,0,2.8,0.4,3.8,1.3c1,0.8,1.4,1.8,1.4,3l0,0.1h-2.4c0-0.6-0.3-1.1-0.8-1.6
		c-0.5-0.5-1.2-0.7-2-0.7c-0.9,0-1.5,0.2-2,0.6c-0.4,0.4-0.7,0.9-0.7,1.4c0,0.5,0.2,1,0.6,1.3c0.4,0.3,1.2,0.6,2.3,0.8
		c1.7,0.4,3,0.9,3.9,1.5c0.9,0.7,1.3,1.5,1.3,2.6c0,1.2-0.5,2.2-1.5,3c-1,0.8-2.3,1.2-3.9,1.2c-1.8,0-3.1-0.4-4.2-1.3
		c-1-0.9-1.5-1.9-1.4-3.1l0-0.1h2.4c0,0.9,0.4,1.5,1,2c0.6,0.4,1.3,0.6,2.2,0.6c0.9,0,1.6-0.2,2.1-0.6
		C192.6,319.9,192.9,319.5,192.9,318.9z"/>
	<path class="st2" d="M208.5,305.5v3.3h2.6v1.9h-2.6v8.4c0,0.6,0.1,1.1,0.4,1.4c0.3,0.3,0.6,0.4,1.1,0.4c0.1,0,0.3,0,0.5-0.1
		c0.2,0,0.3-0.1,0.4-0.1l0.3,1.7c-0.2,0.2-0.5,0.3-0.8,0.4c-0.4,0.1-0.7,0.1-1.1,0.1c-1,0-1.8-0.3-2.4-0.9c-0.6-0.6-0.9-1.6-0.9-2.9
		v-8.4h-2.2v-1.9h2.2v-3.3H208.5z"/>
	<path class="st2" d="M216.3,310.6c0.5-0.7,1.1-1.2,1.8-1.5c0.7-0.4,1.5-0.6,2.3-0.6c1.5,0,2.6,0.4,3.4,1.3c0.8,0.9,1.2,2.2,1.2,4.1
		v8.6h-2.5v-8.7c0-1.1-0.2-2-0.7-2.5c-0.5-0.5-1.2-0.8-2.2-0.8c-0.7,0-1.4,0.1-2,0.4c-0.6,0.3-1,0.7-1.3,1.2v10.3h-2.5v-19.9h2.5
		V310.6z"/>
	<path class="st2" d="M237.1,322.6c-0.1-0.4-0.2-0.8-0.2-1.1c0-0.3-0.1-0.6-0.1-1c-0.5,0.7-1.1,1.2-1.8,1.7
		c-0.8,0.4-1.6,0.7-2.4,0.7c-1.4,0-2.5-0.4-3.3-1.1c-0.8-0.7-1.1-1.7-1.1-3c0-1.3,0.5-2.3,1.6-3.1c1.1-0.7,2.5-1.1,4.3-1.1h2.7v-1.4
		c0-0.8-0.2-1.4-0.7-1.9s-1.2-0.7-2.1-0.7c-0.8,0-1.5,0.2-2,0.6s-0.8,0.9-0.8,1.5l-2.4,0l0-0.1c-0.1-1,0.4-1.9,1.4-2.8
		c1-0.8,2.3-1.2,3.9-1.2c1.6,0,2.8,0.4,3.8,1.2c1,0.8,1.4,1.9,1.4,3.4v6.6c0,0.5,0,1,0.1,1.4c0.1,0.5,0.1,0.9,0.3,1.4H237.1z
		 M233,320.7c0.9,0,1.7-0.2,2.5-0.7c0.7-0.5,1.2-1,1.4-1.6v-2.2H234c-1,0-1.8,0.3-2.4,0.8c-0.6,0.5-0.9,1.1-0.9,1.8
		c0,0.6,0.2,1.1,0.6,1.5C231.6,320.6,232.2,320.7,233,320.7z"/>
	<path class="st2" d="M246.5,305.5v3.3h2.6v1.9h-2.6v8.4c0,0.6,0.1,1.1,0.4,1.4c0.3,0.3,0.6,0.4,1.1,0.4c0.1,0,0.3,0,0.5-0.1
		c0.2,0,0.3-0.1,0.4-0.1l0.3,1.7c-0.2,0.2-0.5,0.3-0.8,0.4c-0.4,0.1-0.7,0.1-1.1,0.1c-1,0-1.8-0.3-2.4-0.9c-0.6-0.6-0.9-1.6-0.9-2.9
		v-8.4h-2.2v-1.9h2.2v-3.3H246.5z"/>
	<path class="st2" d="M266.8,322.6c-0.1-0.4-0.2-0.8-0.2-1.1c0-0.3-0.1-0.6-0.1-1c-0.5,0.7-1.1,1.2-1.8,1.7
		c-0.8,0.4-1.6,0.7-2.4,0.7c-1.4,0-2.5-0.4-3.3-1.1c-0.8-0.7-1.1-1.7-1.1-3c0-1.3,0.5-2.3,1.6-3.1c1.1-0.7,2.5-1.1,4.3-1.1h2.7v-1.4
		c0-0.8-0.2-1.4-0.7-1.9s-1.2-0.7-2.1-0.7c-0.8,0-1.5,0.2-2,0.6s-0.8,0.9-0.8,1.5l-2.4,0l0-0.1c-0.1-1,0.4-1.9,1.4-2.8
		c1-0.8,2.3-1.2,3.9-1.2c1.6,0,2.8,0.4,3.8,1.2c1,0.8,1.4,1.9,1.4,3.4v6.6c0,0.5,0,1,0.1,1.4c0.1,0.5,0.1,0.9,0.3,1.4H266.8z
		 M262.6,320.7c0.9,0,1.7-0.2,2.5-0.7s1.2-1,1.4-1.6v-2.2h-2.8c-1,0-1.8,0.3-2.4,0.8c-0.6,0.5-0.9,1.1-0.9,1.8
		c0,0.6,0.2,1.1,0.6,1.5C261.3,320.6,261.9,320.7,262.6,320.7z"/>
	<path class="st2" d="M274.9,308.8l0.2,2.1c0.5-0.7,1-1.3,1.7-1.7c0.7-0.4,1.5-0.6,2.4-0.6c1.5,0,2.6,0.4,3.5,1.3
		c0.8,0.9,1.2,2.2,1.2,4v8.7h-2.5v-8.7c0-1.2-0.2-2.1-0.7-2.6c-0.5-0.5-1.2-0.8-2.2-0.8c-0.8,0-1.4,0.2-2,0.5
		c-0.5,0.3-1,0.7-1.3,1.3v10.2h-2.5v-13.8H274.9z"/>
	<path class="st2" d="M291.7,317.5l0.4,1.7h0.1l3.4-10.4h2.8l-5.8,15.9c-0.3,0.9-0.8,1.7-1.5,2.4s-1.5,1-2.6,1c-0.2,0-0.5,0-0.8-0.1
		s-0.6-0.1-0.7-0.1l0.3-2c-0.1,0,0.1,0,0.5,0c0.4,0,0.6,0,0.7,0c0.5,0,1-0.2,1.3-0.7s0.6-1,0.9-1.6l0.6-1.4l-5.1-13.5h2.8
		L291.7,317.5z"/>
	<path class="st2" d="M315.6,322.6c-0.1-0.4-0.2-0.8-0.2-1.1c0-0.3-0.1-0.6-0.1-1c-0.5,0.7-1.1,1.2-1.8,1.7
		c-0.8,0.4-1.6,0.7-2.4,0.7c-1.4,0-2.5-0.4-3.3-1.1c-0.8-0.7-1.1-1.7-1.1-3c0-1.3,0.5-2.3,1.6-3.1c1.1-0.7,2.5-1.1,4.3-1.1h2.7v-1.4
		c0-0.8-0.2-1.4-0.7-1.9s-1.2-0.7-2.1-0.7c-0.8,0-1.5,0.2-2,0.6s-0.8,0.9-0.8,1.5l-2.4,0l0-0.1c-0.1-1,0.4-1.9,1.4-2.8
		c1-0.8,2.3-1.2,3.9-1.2c1.6,0,2.8,0.4,3.8,1.2c1,0.8,1.4,1.9,1.4,3.4v6.6c0,0.5,0,1,0.1,1.4c0.1,0.5,0.1,0.9,0.3,1.4H315.6z
		 M311.5,320.7c0.9,0,1.7-0.2,2.5-0.7s1.2-1,1.4-1.6v-2.2h-2.8c-1,0-1.8,0.3-2.4,0.8c-0.6,0.5-0.9,1.1-0.9,1.8
		c0,0.6,0.2,1.1,0.6,1.5C310.1,320.6,310.7,320.7,311.5,320.7z"/>
	<path class="st2" d="M327,320.9c0.8,0,1.5-0.3,2-0.8s0.9-1.1,0.9-1.9h2.3l0,0.1c0,1.2-0.5,2.2-1.5,3.2c-1.1,0.9-2.3,1.4-3.7,1.4
		c-1.9,0-3.4-0.7-4.5-2c-1.1-1.3-1.6-3-1.6-4.9v-0.5c0-1.9,0.5-3.6,1.6-4.9c1.1-1.3,2.6-2,4.5-2c1.5,0,2.8,0.5,3.8,1.4
		c1,1,1.5,2.1,1.4,3.5l0,0.1h-2.3c0-0.8-0.3-1.6-0.8-2.1c-0.5-0.6-1.2-0.9-2.1-0.9c-1.2,0-2.1,0.5-2.7,1.4c-0.6,1-0.8,2.1-0.8,3.5
		v0.5c0,1.4,0.3,2.6,0.8,3.5C324.8,320.4,325.7,320.9,327,320.9z"/>
	<path class="st2" d="M338.7,305.5v3.3h2.6v1.9h-2.6v8.4c0,0.6,0.1,1.1,0.4,1.4c0.3,0.3,0.6,0.4,1.1,0.4c0.1,0,0.3,0,0.5-0.1
		c0.2,0,0.3-0.1,0.4-0.1l0.3,1.7c-0.2,0.2-0.5,0.3-0.8,0.4c-0.4,0.1-0.7,0.1-1.1,0.1c-1,0-1.8-0.3-2.4-0.9c-0.6-0.6-0.9-1.6-0.9-2.9
		v-8.4H334v-1.9h2.2v-3.3H338.7z"/>
	<path class="st2" d="M343.4,315.6c0-2,0.6-3.7,1.7-5c1.1-1.3,2.6-2,4.5-2c1.9,0,3.4,0.7,4.5,2s1.7,3,1.7,5.1v0.3
		c0,2.1-0.6,3.7-1.7,5.1s-2.6,2-4.5,2c-1.9,0-3.4-0.7-4.5-2c-1.1-1.3-1.7-3-1.7-5V315.6z M345.9,315.8c0,1.5,0.3,2.7,0.9,3.6
		s1.5,1.4,2.7,1.4c1.2,0,2.1-0.5,2.7-1.4c0.6-1,0.9-2.2,0.9-3.6v-0.3c0-1.4-0.3-2.6-0.9-3.6s-1.5-1.4-2.7-1.4
		c-1.2,0-2.1,0.5-2.7,1.4s-0.9,2.2-0.9,3.6V315.8z"/>
	<path class="st2" d="M365.4,311l-1.3-0.1c-0.7,0-1.2,0.2-1.7,0.5c-0.5,0.3-0.8,0.8-1.1,1.3v9.9h-2.5v-13.8h2.2l0.2,2
		c0.4-0.7,0.9-1.3,1.4-1.7c0.6-0.4,1.2-0.6,2-0.6c0.2,0,0.4,0,0.5,0c0.2,0,0.3,0.1,0.4,0.1L365.4,311z"/>
	<path class="st2" d="M376.7,308.8l0.2,1.8c0.5-0.7,1-1.2,1.7-1.5c0.7-0.4,1.5-0.5,2.4-0.5c0.9,0,1.7,0.2,2.4,0.6
		c0.7,0.4,1.2,1.1,1.5,1.9c0.4-0.8,1-1.4,1.7-1.9s1.5-0.7,2.5-0.7c1.4,0,2.5,0.5,3.3,1.4s1.2,2.4,1.2,4.4v8.3h-2.5v-8.3
		c0-1.4-0.2-2.3-0.7-2.9c-0.5-0.6-1.2-0.8-2.1-0.8c-0.9,0-1.6,0.3-2.1,0.9c-0.5,0.6-0.8,1.3-0.9,2.3v0.1v8.8h-2.5v-8.3
		c0-1.3-0.2-2.2-0.7-2.8s-1.2-0.9-2.1-0.9c-0.8,0-1.4,0.2-1.9,0.5c-0.5,0.3-0.9,0.8-1.1,1.3v10.2h-2.5v-13.8H376.7z"/>
	<path class="st2" d="M405.8,322.6c-0.1-0.4-0.2-0.8-0.2-1.1c0-0.3-0.1-0.6-0.1-1c-0.5,0.7-1.1,1.2-1.8,1.7
		c-0.8,0.4-1.6,0.7-2.4,0.7c-1.4,0-2.5-0.4-3.3-1.1c-0.8-0.7-1.1-1.7-1.1-3c0-1.3,0.5-2.3,1.6-3.1c1.1-0.7,2.5-1.1,4.3-1.1h2.7v-1.4
		c0-0.8-0.2-1.4-0.7-1.9s-1.2-0.7-2.1-0.7c-0.8,0-1.5,0.2-2,0.6s-0.8,0.9-0.8,1.5l-2.4,0l0-0.1c-0.1-1,0.4-1.9,1.4-2.8
		c1-0.8,2.3-1.2,3.9-1.2c1.6,0,2.8,0.4,3.8,1.2c1,0.8,1.4,1.9,1.4,3.4v6.6c0,0.5,0,1,0.1,1.4c0.1,0.5,0.1,0.9,0.3,1.4H405.8z
		 M401.6,320.7c0.9,0,1.7-0.2,2.5-0.7s1.2-1,1.4-1.6v-2.2h-2.8c-1,0-1.8,0.3-2.4,0.8c-0.6,0.5-0.9,1.1-0.9,1.8
		c0,0.6,0.2,1.1,0.6,1.5C400.3,320.6,400.9,320.7,401.6,320.7z"/>
	<path class="st2" d="M415.9,317.5l0.4,1.7h0.1l3.4-10.4h2.8l-5.8,15.9c-0.3,0.9-0.8,1.7-1.5,2.4s-1.5,1-2.6,1c-0.2,0-0.5,0-0.8-0.1
		s-0.6-0.1-0.7-0.1l0.3-2c-0.1,0,0.1,0,0.5,0c0.4,0,0.6,0,0.7,0c0.5,0,1-0.2,1.3-0.7s0.6-1,0.9-1.6l0.6-1.4l-5.1-13.5h2.8
		L415.9,317.5z"/>
	<path class="st2" d="M96.7,340.7c0.5-0.7,1.1-1.2,1.8-1.5c0.7-0.4,1.5-0.6,2.3-0.6c1.5,0,2.6,0.4,3.4,1.3c0.8,0.9,1.2,2.2,1.2,4.1
		v8.6h-2.5V344c0-1.1-0.2-2-0.7-2.5c-0.5-0.5-1.2-0.8-2.2-0.8c-0.7,0-1.4,0.1-2,0.4c-0.6,0.3-1,0.7-1.3,1.2v10.3h-2.5v-19.9h2.5
		V340.7z"/>
	<path class="st2" d="M108.4,345.6c0-2,0.6-3.7,1.7-5c1.1-1.3,2.6-2,4.5-2c1.9,0,3.4,0.7,4.5,2c1.1,1.3,1.7,3,1.7,5.1v0.3
		c0,2.1-0.6,3.7-1.7,5.1s-2.6,2-4.5,2s-3.4-0.7-4.5-2c-1.1-1.3-1.7-3-1.7-5V345.6z M110.9,345.9c0,1.5,0.3,2.7,0.9,3.6
		c0.6,1,1.5,1.4,2.7,1.4c1.2,0,2.1-0.5,2.7-1.4c0.6-1,0.9-2.2,0.9-3.6v-0.3c0-1.4-0.3-2.6-0.9-3.6s-1.5-1.4-2.7-1.4
		c-1.2,0-2.1,0.5-2.7,1.4c-0.6,1-0.9,2.2-0.9,3.6V345.9z"/>
	<path class="st2" d="M126.6,352.6h-2.5v-19.9h2.5V352.6z"/>
	<path class="st2" d="M129.9,346c0-2.2,0.5-4,1.4-5.4c0.9-1.4,2.3-2,4-2c0.8,0,1.5,0.1,2.1,0.4c0.6,0.3,1.2,0.7,1.6,1.3v-7.6h2.5
		v19.9h-1.9l-0.4-1.7c-0.5,0.7-1,1.2-1.7,1.5s-1.4,0.5-2.3,0.5c-1.7,0-3-0.6-4-1.8c-1-1.2-1.4-2.8-1.4-4.8V346z M132.4,346.2
		c0,1.4,0.3,2.5,0.9,3.3s1.5,1.3,2.7,1.3c0.7,0,1.4-0.2,1.9-0.5s0.9-0.8,1.2-1.4v-6.4c-0.3-0.6-0.7-1-1.3-1.4s-1.1-0.5-1.9-0.5
		c-1.2,0-2.1,0.5-2.7,1.5c-0.6,1-0.9,2.3-0.9,3.9V346.2z"/>
	<path class="st2" d="M155.3,335.5v3.3h2.6v1.9h-2.6v8.4c0,0.6,0.1,1.1,0.4,1.4c0.3,0.3,0.6,0.4,1.1,0.4c0.1,0,0.3,0,0.5-0.1
		c0.2,0,0.3-0.1,0.4-0.1l0.3,1.7c-0.2,0.2-0.5,0.3-0.8,0.4c-0.4,0.1-0.7,0.1-1.1,0.1c-1,0-1.8-0.3-2.4-0.9c-0.6-0.6-0.9-1.6-0.9-2.9
		v-8.4h-2.2v-1.9h2.2v-3.3H155.3z"/>
	<path class="st2" d="M163.1,340.7c0.5-0.7,1.1-1.2,1.8-1.5c0.7-0.4,1.5-0.6,2.3-0.6c1.5,0,2.6,0.4,3.4,1.3c0.8,0.9,1.2,2.2,1.2,4.1
		v8.6h-2.5V344c0-1.1-0.2-2-0.7-2.5c-0.5-0.5-1.2-0.8-2.2-0.8c-0.7,0-1.4,0.1-2,0.4c-0.6,0.3-1,0.7-1.3,1.2v10.3h-2.5v-19.9h2.5
		V340.7z"/>
	<path class="st2" d="M183.9,352.6c-0.1-0.4-0.2-0.8-0.2-1.1c0-0.3-0.1-0.6-0.1-1c-0.5,0.7-1.1,1.2-1.8,1.7
		c-0.8,0.4-1.6,0.7-2.4,0.7c-1.4,0-2.5-0.4-3.3-1.1c-0.8-0.7-1.1-1.7-1.1-3c0-1.3,0.5-2.3,1.6-3.1c1.1-0.7,2.5-1.1,4.3-1.1h2.7v-1.4
		c0-0.8-0.2-1.4-0.7-1.9s-1.2-0.7-2.1-0.7c-0.8,0-1.5,0.2-2,0.6s-0.8,0.9-0.8,1.5l-2.4,0l0-0.1c-0.1-1,0.4-1.9,1.4-2.8
		c1-0.8,2.3-1.2,3.9-1.2c1.6,0,2.8,0.4,3.8,1.2c1,0.8,1.4,1.9,1.4,3.4v6.6c0,0.5,0,1,0.1,1.4c0.1,0.5,0.1,0.9,0.3,1.4H183.9z
		 M179.7,350.8c0.9,0,1.7-0.2,2.5-0.7c0.7-0.5,1.2-1,1.4-1.6v-2.2h-2.8c-1,0-1.8,0.3-2.4,0.8c-0.6,0.5-0.9,1.1-0.9,1.8
		c0,0.6,0.2,1.1,0.6,1.5C178.4,350.6,179,350.8,179.7,350.8z"/>
	<path class="st2" d="M193.3,335.5v3.3h2.6v1.9h-2.6v8.4c0,0.6,0.1,1.1,0.4,1.4c0.3,0.3,0.6,0.4,1.1,0.4c0.1,0,0.3,0,0.5-0.1
		c0.2,0,0.3-0.1,0.4-0.1l0.3,1.7c-0.2,0.2-0.5,0.3-0.8,0.4c-0.4,0.1-0.7,0.1-1.1,0.1c-1,0-1.8-0.3-2.4-0.9c-0.6-0.6-0.9-1.6-0.9-2.9
		v-8.4h-2.2v-1.9h2.2v-3.3H193.3z"/>
	<path class="st2" d="M210.6,350.9c0.8,0,1.4-0.3,2-0.8c0.6-0.5,0.9-1.1,0.9-1.9h2.3l0,0.1c0,1.2-0.5,2.2-1.5,3.2
		c-1.1,0.9-2.3,1.4-3.7,1.4c-1.9,0-3.4-0.7-4.5-2s-1.6-3-1.6-4.9v-0.5c0-1.9,0.5-3.6,1.6-4.9c1.1-1.3,2.6-2,4.5-2
		c1.5,0,2.8,0.5,3.8,1.4c1,1,1.5,2.1,1.4,3.5l0,0.1h-2.3c0-0.8-0.3-1.6-0.8-2.1c-0.5-0.6-1.2-0.9-2.1-0.9c-1.2,0-2.1,0.5-2.7,1.4
		c-0.6,1-0.8,2.1-0.8,3.5v0.5c0,1.4,0.3,2.6,0.8,3.5S209.3,350.9,210.6,350.9z"/>
	<path class="st2" d="M218.2,345.6c0-2,0.6-3.7,1.7-5c1.1-1.3,2.6-2,4.5-2c1.9,0,3.4,0.7,4.5,2c1.1,1.3,1.7,3,1.7,5.1v0.3
		c0,2.1-0.6,3.7-1.7,5.1s-2.6,2-4.5,2s-3.4-0.7-4.5-2c-1.1-1.3-1.7-3-1.7-5V345.6z M220.7,345.9c0,1.5,0.3,2.7,0.9,3.6
		c0.6,1,1.5,1.4,2.7,1.4c1.2,0,2.1-0.5,2.7-1.4c0.6-1,0.9-2.2,0.9-3.6v-0.3c0-1.4-0.3-2.6-0.9-3.6s-1.5-1.4-2.7-1.4
		c-1.2,0-2.1,0.5-2.7,1.4c-0.6,1-0.9,2.2-0.9,3.6V345.9z"/>
	<path class="st2" d="M235.8,338.8l0.2,1.8c0.5-0.7,1-1.2,1.7-1.5c0.7-0.4,1.5-0.5,2.4-0.5c0.9,0,1.7,0.2,2.4,0.6
		c0.7,0.4,1.2,1.1,1.5,1.9c0.4-0.8,1-1.4,1.7-1.9s1.5-0.7,2.5-0.7c1.4,0,2.5,0.5,3.3,1.4c0.8,1,1.2,2.4,1.2,4.4v8.3h-2.5v-8.3
		c0-1.4-0.2-2.3-0.7-2.9s-1.2-0.8-2.1-0.8c-0.9,0-1.6,0.3-2.1,0.9c-0.5,0.6-0.8,1.3-0.9,2.3v0.1v8.8h-2.5v-8.3
		c0-1.3-0.2-2.2-0.7-2.8c-0.5-0.6-1.2-0.9-2.1-0.9c-0.8,0-1.4,0.2-1.9,0.5c-0.5,0.3-0.9,0.8-1.1,1.3v10.2h-2.5v-13.8H235.8z"/>
	<path class="st2" d="M268.2,346.2c0,2-0.5,3.6-1.4,4.8c-1,1.2-2.3,1.8-3.9,1.8c-0.9,0-1.6-0.1-2.2-0.4c-0.6-0.3-1.2-0.7-1.6-1.3
		v6.7h-2.5v-19.1h1.9l0.4,1.8c0.5-0.7,1-1.2,1.7-1.5s1.5-0.5,2.3-0.5c1.7,0,3,0.7,4,2s1.4,3.1,1.4,5.4V346.2z M265.7,346
		c0-1.6-0.3-2.9-0.9-3.9c-0.6-1-1.5-1.5-2.7-1.5c-0.7,0-1.3,0.2-1.8,0.5c-0.5,0.3-0.9,0.8-1.2,1.3v6.7c0.3,0.6,0.7,1,1.2,1.3
		c0.5,0.3,1.1,0.5,1.9,0.5c1.2,0,2.1-0.4,2.7-1.3c0.6-0.9,0.9-2,0.9-3.4V346z"/>
	<path class="st2" d="M277.8,341l-1.3-0.1c-0.7,0-1.2,0.2-1.7,0.5c-0.5,0.3-0.8,0.8-1.1,1.3v9.9h-2.5v-13.8h2.2l0.2,2
		c0.4-0.7,0.9-1.3,1.4-1.7c0.6-0.4,1.2-0.6,2-0.6c0.2,0,0.4,0,0.5,0c0.2,0,0.3,0.1,0.4,0.1L277.8,341z"/>
	<path class="st2" d="M279.8,345.6c0-2,0.6-3.7,1.7-5c1.1-1.3,2.6-2,4.5-2c1.9,0,3.4,0.7,4.5,2s1.7,3,1.7,5.1v0.3
		c0,2.1-0.6,3.7-1.7,5.1s-2.6,2-4.5,2c-1.9,0-3.4-0.7-4.5-2c-1.1-1.3-1.7-3-1.7-5V345.6z M282.3,345.9c0,1.5,0.3,2.7,0.9,3.6
		s1.5,1.4,2.7,1.4c1.2,0,2.1-0.5,2.7-1.4c0.6-1,0.9-2.2,0.9-3.6v-0.3c0-1.4-0.3-2.6-0.9-3.6s-1.5-1.4-2.7-1.4
		c-1.2,0-2.1,0.5-2.7,1.4s-0.9,2.2-0.9,3.6V345.9z"/>
	<path class="st2" d="M297.5,338.8l0.2,1.8c0.5-0.7,1-1.2,1.7-1.5c0.7-0.4,1.5-0.5,2.4-0.5c0.9,0,1.7,0.2,2.4,0.6
		c0.7,0.4,1.2,1.1,1.5,1.9c0.4-0.8,1-1.4,1.7-1.9s1.5-0.7,2.5-0.7c1.4,0,2.5,0.5,3.3,1.4s1.2,2.4,1.2,4.4v8.3h-2.5v-8.3
		c0-1.4-0.2-2.3-0.7-2.9c-0.5-0.6-1.2-0.8-2.1-0.8c-0.9,0-1.6,0.3-2.1,0.9c-0.5,0.6-0.8,1.3-0.9,2.3v0.1v8.8h-2.5v-8.3
		c0-1.3-0.2-2.2-0.7-2.8s-1.2-0.9-2.1-0.9c-0.8,0-1.4,0.2-1.9,0.5c-0.5,0.3-0.9,0.8-1.1,1.3v10.2h-2.5v-13.8H297.5z"/>
	<path class="st2" d="M320.8,335.3h-2.5v-2.6h2.5V335.3z M320.8,352.6h-2.5v-13.8h2.5V352.6z"/>
	<path class="st2" d="M332.7,348.9c0-0.6-0.2-1-0.6-1.4s-1.2-0.7-2.4-0.9c-1.6-0.3-2.9-0.8-3.7-1.5c-0.9-0.6-1.3-1.5-1.3-2.5
		c0-1.1,0.5-2.1,1.4-2.9c1-0.8,2.2-1.2,3.7-1.2c1.6,0,2.8,0.4,3.8,1.3c1,0.8,1.4,1.8,1.4,3l0,0.1h-2.4c0-0.6-0.3-1.1-0.8-1.6
		c-0.5-0.5-1.2-0.7-2-0.7c-0.9,0-1.5,0.2-2,0.6c-0.4,0.4-0.7,0.9-0.7,1.4c0,0.5,0.2,1,0.6,1.3c0.4,0.3,1.2,0.6,2.3,0.8
		c1.7,0.4,3,0.9,3.9,1.5c0.9,0.7,1.3,1.5,1.3,2.6c0,1.2-0.5,2.2-1.5,3c-1,0.8-2.3,1.2-3.9,1.2c-1.8,0-3.1-0.4-4.2-1.3
		c-1-0.9-1.5-1.9-1.4-3.1l0-0.1h2.4c0,0.9,0.4,1.5,1,2c0.6,0.4,1.3,0.6,2.2,0.6c0.9,0,1.6-0.2,2.1-0.6
		C332.5,350,332.7,349.5,332.7,348.9z"/>
	<path class="st2" d="M344.1,352.9c-2,0-3.5-0.6-4.6-1.9c-1.1-1.3-1.7-2.9-1.7-5v-0.6c0-2,0.6-3.6,1.7-4.9c1.1-1.3,2.5-1.9,4.2-1.9
		c1.8,0,3.2,0.6,4.2,1.7c0.9,1.1,1.4,2.7,1.4,4.6v1.3h-8.8l0,0.1c0,1.4,0.3,2.5,0.9,3.4s1.5,1.3,2.8,1.3c0.9,0,1.6-0.1,2.2-0.4
		c0.6-0.2,1.2-0.6,1.7-1l1,1.6c-0.5,0.5-1.1,0.9-2,1.2C346.2,352.7,345.2,352.9,344.1,352.9z M343.7,340.5c-0.9,0-1.6,0.3-2.2,1
		c-0.6,0.7-0.9,1.5-1.1,2.6l0,0.1h6.2V344c0-1-0.2-1.8-0.7-2.5C345.5,340.9,344.7,340.5,343.7,340.5z"/>
	<path class="st2" d="M360,348.9c0-0.6-0.2-1-0.6-1.4s-1.2-0.7-2.4-0.9c-1.6-0.3-2.9-0.8-3.7-1.5c-0.9-0.6-1.3-1.5-1.3-2.5
		c0-1.1,0.5-2.1,1.4-2.9c1-0.8,2.2-1.2,3.7-1.2c1.6,0,2.8,0.4,3.8,1.3c1,0.8,1.4,1.8,1.4,3l0,0.1h-2.4c0-0.6-0.3-1.1-0.8-1.6
		c-0.5-0.5-1.2-0.7-2-0.7c-0.9,0-1.5,0.2-2,0.6c-0.4,0.4-0.7,0.9-0.7,1.4c0,0.5,0.2,1,0.6,1.3c0.4,0.3,1.2,0.6,2.3,0.8
		c1.7,0.4,3,0.9,3.9,1.5c0.9,0.7,1.3,1.5,1.3,2.6c0,1.2-0.5,2.2-1.5,3c-1,0.8-2.3,1.2-3.9,1.2c-1.8,0-3.1-0.4-4.2-1.3
		c-1-0.9-1.5-1.9-1.4-3.1l0-0.1h2.4c0,0.9,0.4,1.5,1,2c0.6,0.4,1.3,0.6,2.2,0.6c0.9,0,1.6-0.2,2.1-0.6
		C359.8,350,360,349.5,360,348.9z"/>
	<path class="st2" d="M375.7,335.5v3.3h2.6v1.9h-2.6v8.4c0,0.6,0.1,1.1,0.4,1.4c0.3,0.3,0.6,0.4,1.1,0.4c0.1,0,0.3,0,0.5-0.1
		c0.2,0,0.3-0.1,0.4-0.1l0.3,1.7c-0.2,0.2-0.5,0.3-0.8,0.4c-0.4,0.1-0.7,0.1-1.1,0.1c-1,0-1.8-0.3-2.4-0.9c-0.6-0.6-0.9-1.6-0.9-2.9
		v-8.4H371v-1.9h2.2v-3.3H375.7z"/>
	<path class="st2" d="M383.5,340.7c0.5-0.7,1.1-1.2,1.8-1.5c0.7-0.4,1.5-0.6,2.3-0.6c1.5,0,2.6,0.4,3.4,1.3c0.8,0.9,1.2,2.2,1.2,4.1
		v8.6h-2.5V344c0-1.1-0.2-2-0.7-2.5c-0.5-0.5-1.2-0.8-2.2-0.8c-0.7,0-1.4,0.1-2,0.4c-0.6,0.3-1,0.7-1.3,1.2v10.3H381v-19.9h2.5
		V340.7z"/>
	<path class="st2" d="M401.5,352.9c-2,0-3.5-0.6-4.6-1.9c-1.1-1.3-1.7-2.9-1.7-5v-0.6c0-2,0.6-3.6,1.7-4.9c1.1-1.3,2.5-1.9,4.2-1.9
		c1.8,0,3.2,0.6,4.2,1.7c0.9,1.1,1.4,2.7,1.4,4.6v1.3h-8.8l0,0.1c0,1.4,0.3,2.5,0.9,3.4s1.5,1.3,2.8,1.3c0.9,0,1.6-0.1,2.2-0.4
		c0.6-0.2,1.2-0.6,1.7-1l1,1.6c-0.5,0.5-1.1,0.9-2,1.2C403.6,352.7,402.7,352.9,401.5,352.9z M401.1,340.5c-0.9,0-1.6,0.3-2.2,1
		c-0.6,0.7-0.9,1.5-1.1,2.6l0,0.1h6.2V344c0-1-0.2-1.8-0.7-2.5C402.9,340.9,402.2,340.5,401.1,340.5z"/>
	<path class="st2" d="M102.4,382.7c-0.1-0.4-0.2-0.8-0.2-1.1c0-0.3-0.1-0.6-0.1-1c-0.5,0.7-1.1,1.2-1.8,1.7
		c-0.8,0.4-1.6,0.7-2.4,0.7c-1.4,0-2.5-0.4-3.3-1.1c-0.8-0.7-1.1-1.7-1.1-3c0-1.3,0.5-2.3,1.6-3.1c1.1-0.7,2.5-1.1,4.3-1.1h2.7v-1.4
		c0-0.8-0.2-1.4-0.7-1.9s-1.2-0.7-2.1-0.7c-0.8,0-1.5,0.2-2,0.6s-0.8,0.9-0.8,1.5l-2.4,0l0-0.1c-0.1-1,0.4-1.9,1.4-2.8
		c1-0.8,2.3-1.2,3.9-1.2c1.6,0,2.8,0.4,3.8,1.2c1,0.8,1.4,1.9,1.4,3.4v6.6c0,0.5,0,1,0.1,1.4c0.1,0.5,0.1,0.9,0.3,1.4H102.4z
		 M98.2,380.8c0.9,0,1.7-0.2,2.5-0.7c0.7-0.5,1.2-1,1.4-1.6v-2.2h-2.8c-1,0-1.8,0.3-2.4,0.8c-0.6,0.5-0.9,1.1-0.9,1.8
		c0,0.6,0.2,1.1,0.6,1.5C96.9,380.7,97.4,380.8,98.2,380.8z"/>
	<path class="st2" d="M120,376.3c0,2-0.5,3.6-1.4,4.8c-1,1.2-2.3,1.8-3.9,1.8c-0.9,0-1.7-0.2-2.4-0.5c-0.7-0.4-1.2-0.9-1.7-1.6
		l-0.4,1.9h-1.9v-19.9h2.5v7.7c0.4-0.6,1-1.1,1.6-1.4s1.4-0.5,2.3-0.5c1.7,0,3,0.7,4,2s1.4,3.2,1.4,5.4V376.3z M117.5,376
		c0-1.6-0.3-2.9-0.9-3.9s-1.5-1.5-2.7-1.5c-0.8,0-1.4,0.2-2,0.6c-0.5,0.4-1,0.9-1.3,1.5v6c0.3,0.7,0.7,1.2,1.3,1.6s1.2,0.6,2,0.6
		c1.2,0,2.1-0.4,2.6-1.3c0.6-0.8,0.9-2,0.9-3.3V376z"/>
	<path class="st2" d="M125.8,365.3h-2.5v-2.6h2.5V365.3z M125.8,382.7h-2.5v-13.8h2.5V382.7z"/>
	<path class="st2" d="M132.4,382.7h-2.5v-19.9h2.5V382.7z"/>
	<path class="st2" d="M139,365.3h-2.5v-2.6h2.5V365.3z M139,382.7h-2.5v-13.8h2.5V382.7z"/>
	<path class="st2" d="M146.3,365.5v3.3h2.6v1.9h-2.6v8.4c0,0.6,0.1,1.1,0.4,1.4c0.3,0.3,0.6,0.4,1.1,0.4c0.1,0,0.3,0,0.5-0.1
		c0.2,0,0.3-0.1,0.4-0.1l0.3,1.7c-0.2,0.2-0.5,0.3-0.8,0.4c-0.4,0.1-0.7,0.1-1.1,0.1c-1,0-1.8-0.3-2.4-0.9c-0.6-0.6-0.9-1.6-0.9-2.9
		v-8.4h-2.2v-1.9h2.2v-3.3H146.3z"/>
	<path class="st2" d="M155.9,377.6l0.4,1.7h0.1l3.4-10.4h2.8l-5.8,15.9c-0.3,0.9-0.8,1.7-1.5,2.4c-0.7,0.7-1.5,1-2.6,1
		c-0.2,0-0.5,0-0.8-0.1c-0.3,0-0.6-0.1-0.7-0.1l0.3-2c-0.1,0,0.1,0,0.5,0c0.4,0,0.6,0,0.7,0c0.5,0,1-0.2,1.3-0.7
		c0.3-0.5,0.6-1,0.9-1.6l0.6-1.4l-5.1-13.5h2.8L155.9,377.6z"/>
	<path class="st2" d="M174.8,365.5v3.3h2.6v1.9h-2.6v8.4c0,0.6,0.1,1.1,0.4,1.4c0.3,0.3,0.6,0.4,1.1,0.4c0.1,0,0.3,0,0.5-0.1
		c0.2,0,0.3-0.1,0.4-0.1l0.3,1.7c-0.2,0.2-0.5,0.3-0.8,0.4c-0.4,0.1-0.7,0.1-1.1,0.1c-1,0-1.8-0.3-2.4-0.9c-0.6-0.6-0.9-1.6-0.9-2.9
		v-8.4h-2.2v-1.9h2.2v-3.3H174.8z"/>
	<path class="st2" d="M179.5,375.6c0-2,0.6-3.7,1.7-5c1.1-1.3,2.6-2,4.5-2c1.9,0,3.4,0.7,4.5,2c1.1,1.3,1.7,3,1.7,5.1v0.3
		c0,2.1-0.6,3.7-1.7,5.1s-2.6,2-4.5,2s-3.4-0.7-4.5-2c-1.1-1.3-1.7-3-1.7-5V375.6z M182,375.9c0,1.5,0.3,2.7,0.9,3.6
		c0.6,1,1.5,1.4,2.7,1.4c1.2,0,2.1-0.5,2.7-1.4c0.6-1,0.9-2.2,0.9-3.6v-0.3c0-1.4-0.3-2.6-0.9-3.6s-1.5-1.4-2.7-1.4
		c-1.2,0-2.1,0.5-2.7,1.4c-0.6,1-0.9,2.2-0.9,3.6V375.9z"/>
	<path class="st2" d="M209.9,382.7c-0.1-0.4-0.2-0.8-0.2-1.1c0-0.3-0.1-0.6-0.1-1c-0.5,0.7-1.1,1.2-1.8,1.7
		c-0.8,0.4-1.6,0.7-2.4,0.7c-1.4,0-2.5-0.4-3.3-1.1c-0.8-0.7-1.1-1.7-1.1-3c0-1.3,0.5-2.3,1.6-3.1c1.1-0.7,2.5-1.1,4.3-1.1h2.7v-1.4
		c0-0.8-0.2-1.4-0.7-1.9s-1.2-0.7-2.1-0.7c-0.8,0-1.5,0.2-2,0.6s-0.8,0.9-0.8,1.5l-2.4,0l0-0.1c-0.1-1,0.4-1.9,1.4-2.8
		c1-0.8,2.3-1.2,3.9-1.2c1.6,0,2.8,0.4,3.8,1.2c1,0.8,1.4,1.9,1.4,3.4v6.6c0,0.5,0,1,0.1,1.4c0.1,0.5,0.1,0.9,0.3,1.4H209.9z
		 M205.7,380.8c0.9,0,1.7-0.2,2.5-0.7c0.7-0.5,1.2-1,1.4-1.6v-2.2h-2.8c-1,0-1.8,0.3-2.4,0.8c-0.6,0.5-0.9,1.1-0.9,1.8
		c0,0.6,0.2,1.1,0.6,1.5C204.4,380.7,205,380.8,205.7,380.8z"/>
	<path class="st2" d="M221.3,381c0.8,0,1.4-0.3,2-0.8c0.6-0.5,0.9-1.1,0.9-1.9h2.3l0,0.1c0,1.2-0.5,2.2-1.5,3.2
		c-1.1,0.9-2.3,1.4-3.7,1.4c-1.9,0-3.4-0.7-4.5-2s-1.6-3-1.6-4.9v-0.5c0-1.9,0.5-3.6,1.6-4.9c1.1-1.3,2.6-2,4.5-2
		c1.5,0,2.8,0.5,3.8,1.4c1,1,1.5,2.1,1.4,3.5l0,0.1h-2.3c0-0.8-0.3-1.6-0.8-2.1c-0.5-0.6-1.2-0.9-2.1-0.9c-1.2,0-2.1,0.5-2.7,1.4
		c-0.6,1-0.8,2.1-0.8,3.5v0.5c0,1.4,0.3,2.6,0.8,3.5S220,381,221.3,381z"/>
	<path class="st2" d="M232.9,365.5v3.3h2.6v1.9h-2.6v8.4c0,0.6,0.1,1.1,0.4,1.4c0.3,0.3,0.6,0.4,1.1,0.4c0.1,0,0.3,0,0.5-0.1
		c0.2,0,0.3-0.1,0.4-0.1l0.3,1.7c-0.2,0.2-0.5,0.3-0.8,0.4c-0.4,0.1-0.7,0.1-1.1,0.1c-1,0-1.8-0.3-2.4-0.9c-0.6-0.6-0.9-1.6-0.9-2.9
		v-8.4h-2.2v-1.9h2.2v-3.3H232.9z"/>
	<path class="st2" d="M247.5,365.3h-2.5v-2.6h2.5V365.3z M247.5,382.7h-2.5v-13.8h2.5V382.7z"/>
	<path class="st2" d="M253.6,368.9l0.2,2.1c0.5-0.7,1-1.3,1.7-1.7c0.7-0.4,1.5-0.6,2.4-0.6c1.5,0,2.6,0.4,3.5,1.3
		c0.8,0.9,1.2,2.2,1.2,4v8.7H260V374c0-1.2-0.2-2.1-0.7-2.6c-0.5-0.5-1.2-0.8-2.2-0.8c-0.8,0-1.4,0.2-2,0.5c-0.5,0.3-1,0.7-1.3,1.3
		v10.2h-2.5v-13.8H253.6z"/>
	<path class="st2" d="M281.1,382.7c-0.1-0.4-0.2-0.8-0.2-1.1c0-0.3-0.1-0.6-0.1-1c-0.5,0.7-1.1,1.2-1.8,1.7
		c-0.8,0.4-1.6,0.7-2.4,0.7c-1.4,0-2.5-0.4-3.3-1.1c-0.8-0.7-1.1-1.7-1.1-3c0-1.3,0.5-2.3,1.6-3.1c1.1-0.7,2.5-1.1,4.3-1.1h2.7v-1.4
		c0-0.8-0.2-1.4-0.7-1.9s-1.2-0.7-2.1-0.7c-0.8,0-1.5,0.2-2,0.6s-0.8,0.9-0.8,1.5l-2.4,0l0-0.1c-0.1-1,0.4-1.9,1.4-2.8
		c1-0.8,2.3-1.2,3.9-1.2c1.6,0,2.8,0.4,3.8,1.2c1,0.8,1.4,1.9,1.4,3.4v6.6c0,0.5,0,1,0.1,1.4c0.1,0.5,0.1,0.9,0.3,1.4H281.1z
		 M277,380.8c0.9,0,1.7-0.2,2.5-0.7s1.2-1,1.4-1.6v-2.2H278c-1,0-1.8,0.3-2.4,0.8c-0.6,0.5-0.9,1.1-0.9,1.8c0,0.6,0.2,1.1,0.6,1.5
		C275.7,380.7,276.2,380.8,277,380.8z"/>
	<path class="st2" d="M292.5,381c0.8,0,1.5-0.3,2-0.8s0.9-1.1,0.9-1.9h2.3l0,0.1c0,1.2-0.5,2.2-1.5,3.2c-1.1,0.9-2.3,1.4-3.7,1.4
		c-1.9,0-3.4-0.7-4.5-2c-1.1-1.3-1.6-3-1.6-4.9v-0.5c0-1.9,0.5-3.6,1.6-4.9c1.1-1.3,2.6-2,4.5-2c1.5,0,2.8,0.5,3.8,1.4
		c1,1,1.5,2.1,1.4,3.5l0,0.1h-2.3c0-0.8-0.3-1.6-0.8-2.1c-0.5-0.6-1.2-0.9-2.1-0.9c-1.2,0-2.1,0.5-2.7,1.4c-0.6,1-0.8,2.1-0.8,3.5
		v0.5c0,1.4,0.3,2.6,0.8,3.5C290.4,380.5,291.3,381,292.5,381z"/>
	<path class="st2" d="M306.2,381c0.8,0,1.5-0.3,2-0.8s0.9-1.1,0.9-1.9h2.3l0,0.1c0,1.2-0.5,2.2-1.5,3.2c-1.1,0.9-2.3,1.4-3.7,1.4
		c-1.9,0-3.4-0.7-4.5-2c-1.1-1.3-1.6-3-1.6-4.9v-0.5c0-1.9,0.5-3.6,1.6-4.9c1.1-1.3,2.6-2,4.5-2c1.5,0,2.8,0.5,3.8,1.4
		c1,1,1.5,2.1,1.4,3.5l0,0.1h-2.3c0-0.8-0.3-1.6-0.8-2.1c-0.5-0.6-1.2-0.9-2.1-0.9c-1.2,0-2.1,0.5-2.7,1.4c-0.6,1-0.8,2.1-0.8,3.5
		v0.5c0,1.4,0.3,2.6,0.8,3.5C304,380.5,304.9,381,306.2,381z"/>
	<path class="st2" d="M313.8,375.6c0-2,0.6-3.7,1.7-5c1.1-1.3,2.6-2,4.5-2c1.9,0,3.4,0.7,4.5,2s1.7,3,1.7,5.1v0.3
		c0,2.1-0.6,3.7-1.7,5.1s-2.6,2-4.5,2c-1.9,0-3.4-0.7-4.5-2c-1.1-1.3-1.7-3-1.7-5V375.6z M316.3,375.9c0,1.5,0.3,2.7,0.9,3.6
		s1.5,1.4,2.7,1.4c1.2,0,2.1-0.5,2.7-1.4c0.6-1,0.9-2.2,0.9-3.6v-0.3c0-1.4-0.3-2.6-0.9-3.6s-1.5-1.4-2.7-1.4
		c-1.2,0-2.1,0.5-2.7,1.4s-0.9,2.2-0.9,3.6V375.9z"/>
	<path class="st2" d="M335.7,371.1l-1.3-0.1c-0.7,0-1.2,0.2-1.7,0.5c-0.5,0.3-0.8,0.8-1.1,1.3v9.9h-2.5v-13.8h2.2l0.2,2
		c0.4-0.7,0.9-1.3,1.4-1.7c0.6-0.4,1.2-0.6,2-0.6c0.2,0,0.4,0,0.5,0c0.2,0,0.3,0.1,0.4,0.1L335.7,371.1z"/>
	<path class="st2" d="M337.8,376c0-2.2,0.5-4,1.4-5.4s2.3-2,4-2c0.8,0,1.5,0.1,2.1,0.4c0.6,0.3,1.2,0.7,1.6,1.3v-7.6h2.5v19.9h-1.9
		l-0.4-1.7c-0.5,0.7-1,1.2-1.7,1.5s-1.4,0.5-2.3,0.5c-1.7,0-3-0.6-4-1.8c-1-1.2-1.4-2.8-1.4-4.8V376z M340.3,376.3
		c0,1.4,0.3,2.5,0.9,3.3s1.5,1.3,2.7,1.3c0.7,0,1.4-0.2,1.9-0.5c0.5-0.3,0.9-0.8,1.2-1.4v-6.4c-0.3-0.6-0.7-1-1.3-1.4
		c-0.5-0.3-1.1-0.5-1.9-0.5c-1.2,0-2.1,0.5-2.7,1.5c-0.6,1-0.9,2.3-0.9,3.9V376.3z"/>
	<path class="st2" d="M361.7,382.7c-0.1-0.4-0.2-0.8-0.2-1.1c0-0.3-0.1-0.6-0.1-1c-0.5,0.7-1.1,1.2-1.8,1.7
		c-0.8,0.4-1.6,0.7-2.4,0.7c-1.4,0-2.5-0.4-3.3-1.1c-0.8-0.7-1.1-1.7-1.1-3c0-1.3,0.5-2.3,1.6-3.1c1.1-0.7,2.5-1.1,4.3-1.1h2.7v-1.4
		c0-0.8-0.2-1.4-0.7-1.9s-1.2-0.7-2.1-0.7c-0.8,0-1.5,0.2-2,0.6s-0.8,0.9-0.8,1.5l-2.4,0l0-0.1c-0.1-1,0.4-1.9,1.4-2.8
		c1-0.8,2.3-1.2,3.9-1.2c1.6,0,2.8,0.4,3.8,1.2c1,0.8,1.4,1.9,1.4,3.4v6.6c0,0.5,0,1,0.1,1.4c0.1,0.5,0.1,0.9,0.3,1.4H361.7z
		 M357.5,380.8c0.9,0,1.7-0.2,2.5-0.7s1.2-1,1.4-1.6v-2.2h-2.8c-1,0-1.8,0.3-2.4,0.8c-0.6,0.5-0.9,1.1-0.9,1.8
		c0,0.6,0.2,1.1,0.6,1.5C356.2,380.7,356.8,380.8,357.5,380.8z"/>
	<path class="st2" d="M369.8,368.9l0.2,2.1c0.5-0.7,1-1.3,1.7-1.7c0.7-0.4,1.5-0.6,2.4-0.6c1.5,0,2.6,0.4,3.5,1.3
		c0.8,0.9,1.2,2.2,1.2,4v8.7h-2.5V374c0-1.2-0.2-2.1-0.7-2.6c-0.5-0.5-1.2-0.8-2.2-0.8c-0.8,0-1.4,0.2-2,0.5c-0.5,0.3-1,0.7-1.3,1.3
		v10.2h-2.5v-13.8H369.8z"/>
	<path class="st2" d="M387.9,381c0.8,0,1.5-0.3,2-0.8s0.9-1.1,0.9-1.9h2.3l0,0.1c0,1.2-0.5,2.2-1.5,3.2c-1.1,0.9-2.3,1.4-3.7,1.4
		c-1.9,0-3.4-0.7-4.5-2c-1.1-1.3-1.6-3-1.6-4.9v-0.5c0-1.9,0.5-3.6,1.6-4.9c1.1-1.3,2.6-2,4.5-2c1.5,0,2.8,0.5,3.8,1.4
		c1,1,1.5,2.1,1.4,3.5l0,0.1h-2.3c0-0.8-0.3-1.6-0.8-2.1c-0.5-0.6-1.2-0.9-2.1-0.9c-1.2,0-2.1,0.5-2.7,1.4c-0.6,1-0.8,2.1-0.8,3.5
		v0.5c0,1.4,0.3,2.6,0.8,3.5C385.7,380.5,386.7,381,387.9,381z"/>
	<path class="st2" d="M401.8,382.9c-2,0-3.5-0.6-4.6-1.9c-1.1-1.3-1.7-2.9-1.7-5v-0.6c0-2,0.6-3.6,1.7-4.9c1.1-1.3,2.5-1.9,4.2-1.9
		c1.8,0,3.2,0.6,4.2,1.7c0.9,1.1,1.4,2.7,1.4,4.6v1.3h-8.8l0,0.1c0,1.4,0.3,2.5,0.9,3.4s1.5,1.3,2.8,1.3c0.9,0,1.6-0.1,2.2-0.4
		c0.6-0.2,1.2-0.6,1.7-1l1,1.6c-0.5,0.5-1.1,0.9-2,1.2C403.9,382.8,402.9,382.9,401.8,382.9z M401.4,370.6c-0.9,0-1.6,0.3-2.2,1
		c-0.6,0.7-0.9,1.5-1.1,2.6l0,0.1h6.2v-0.2c0-1-0.2-1.8-0.7-2.5C403.2,370.9,402.4,370.6,401.4,370.6z"/>
	<path class="st2" d="M115.6,407.7l0.3,1.8h0.1l0.3-1.8l2.8-8.8h2l2.8,8.8l0.4,2h0.1l0.4-2l2-8.8h2.6l-4,13.8h-2l-2.7-8.4l-0.5-2.2
		H120l-0.5,2.2l-2.7,8.4h-2l-4-13.8h2.6L115.6,407.7z"/>
	<path class="st2" d="M134.5,395.4H132v-2.6h2.5V395.4z M134.5,412.7H132v-13.8h2.5V412.7z"/>
	<path class="st2" d="M141.9,395.6v3.3h2.6v1.9h-2.6v8.4c0,0.6,0.1,1.1,0.4,1.4c0.3,0.3,0.6,0.4,1.1,0.4c0.1,0,0.3,0,0.5-0.1
		c0.2,0,0.3-0.1,0.4-0.1l0.3,1.7c-0.2,0.2-0.5,0.3-0.8,0.4c-0.4,0.1-0.7,0.1-1.1,0.1c-1,0-1.8-0.3-2.4-0.9c-0.6-0.6-0.9-1.6-0.9-2.9
		v-8.4h-2.2v-1.9h2.2v-3.3H141.9z"/>
	<path class="st2" d="M149.7,400.8c0.5-0.7,1.1-1.2,1.8-1.5c0.7-0.4,1.5-0.6,2.3-0.6c1.5,0,2.6,0.4,3.4,1.3c0.8,0.9,1.2,2.2,1.2,4.1
		v8.6h-2.5V404c0-1.1-0.2-2-0.7-2.5c-0.5-0.5-1.2-0.8-2.2-0.8c-0.7,0-1.4,0.1-2,0.4c-0.6,0.3-1,0.7-1.3,1.2v10.3h-2.5v-19.9h2.5
		V400.8z"/>
	<path class="st2" d="M172,395.6v3.3h2.6v1.9H172v8.4c0,0.6,0.1,1.1,0.4,1.4c0.3,0.3,0.6,0.4,1.1,0.4c0.1,0,0.3,0,0.5-0.1
		c0.2,0,0.3-0.1,0.4-0.1l0.3,1.7c-0.2,0.2-0.5,0.3-0.8,0.4c-0.4,0.1-0.7,0.1-1.1,0.1c-1,0-1.8-0.3-2.4-0.9c-0.6-0.6-0.9-1.6-0.9-2.9
		v-8.4h-2.2v-1.9h2.2v-3.3H172z"/>
	<path class="st2" d="M179.8,400.8c0.5-0.7,1.1-1.2,1.8-1.5c0.7-0.4,1.5-0.6,2.3-0.6c1.5,0,2.6,0.4,3.4,1.3c0.8,0.9,1.2,2.2,1.2,4.1
		v8.6h-2.5V404c0-1.1-0.2-2-0.7-2.5c-0.5-0.5-1.2-0.8-2.2-0.8c-0.7,0-1.4,0.1-2,0.4c-0.6,0.3-1,0.7-1.3,1.2v10.3h-2.5v-19.9h2.5
		V400.8z"/>
	<path class="st2" d="M197.9,413c-2,0-3.5-0.6-4.6-1.9c-1.1-1.3-1.7-2.9-1.7-5v-0.6c0-2,0.6-3.6,1.7-4.9s2.5-1.9,4.2-1.9
		c1.8,0,3.2,0.6,4.2,1.7c0.9,1.1,1.4,2.7,1.4,4.6v1.3h-8.8l0,0.1c0,1.4,0.3,2.5,0.9,3.4c0.6,0.9,1.5,1.3,2.8,1.3
		c0.9,0,1.6-0.1,2.2-0.4c0.6-0.2,1.2-0.6,1.7-1l1,1.6c-0.5,0.5-1.1,0.9-2,1.2C200,412.8,199,413,197.9,413z M197.5,400.6
		c-0.9,0-1.6,0.3-2.2,1c-0.6,0.7-0.9,1.5-1.1,2.6l0,0.1h6.2v-0.2c0-1-0.2-1.8-0.7-2.5C199.3,401,198.5,400.6,197.5,400.6z"/>
	<path class="st2" d="M217.8,411c0.8,0,1.4-0.3,2-0.8c0.6-0.5,0.9-1.1,0.9-1.9h2.3l0,0.1c0,1.2-0.5,2.2-1.5,3.2
		c-1.1,0.9-2.3,1.4-3.7,1.4c-1.9,0-3.4-0.7-4.5-2s-1.6-3-1.6-4.9v-0.5c0-1.9,0.5-3.6,1.6-4.9c1.1-1.3,2.6-2,4.5-2
		c1.5,0,2.8,0.5,3.8,1.4c1,1,1.5,2.1,1.4,3.5l0,0.1h-2.3c0-0.8-0.3-1.6-0.8-2.1c-0.5-0.6-1.2-0.9-2.1-0.9c-1.2,0-2.1,0.5-2.7,1.4
		c-0.6,1-0.8,2.1-0.8,3.5v0.5c0,1.4,0.3,2.6,0.8,3.5S216.6,411,217.8,411z"/>
	<path class="st2" d="M225.4,405.7c0-2,0.6-3.7,1.7-5c1.1-1.3,2.6-2,4.5-2c1.9,0,3.4,0.7,4.5,2c1.1,1.3,1.7,3,1.7,5.1v0.3
		c0,2.1-0.6,3.7-1.7,5.1s-2.6,2-4.5,2s-3.4-0.7-4.5-2c-1.1-1.3-1.7-3-1.7-5V405.7z M227.9,406c0,1.5,0.3,2.7,0.9,3.6
		c0.6,1,1.5,1.4,2.7,1.4c1.2,0,2.1-0.5,2.7-1.4c0.6-1,0.9-2.2,0.9-3.6v-0.3c0-1.4-0.3-2.6-0.9-3.6s-1.5-1.4-2.7-1.4
		c-1.2,0-2.1,0.5-2.7,1.4c-0.6,1-0.9,2.2-0.9,3.6V406z"/>
	<path class="st2" d="M247.4,401.1l-1.3-0.1c-0.7,0-1.2,0.2-1.7,0.5c-0.5,0.3-0.8,0.8-1.1,1.3v9.9h-2.5v-13.8h2.2l0.2,2
		c0.4-0.7,0.9-1.3,1.4-1.7c0.6-0.4,1.2-0.6,2-0.6c0.2,0,0.4,0,0.5,0c0.2,0,0.3,0.1,0.4,0.1L247.4,401.1z"/>
	<path class="st2" d="M255.7,413c-2,0-3.5-0.6-4.6-1.9c-1.1-1.3-1.7-2.9-1.7-5v-0.6c0-2,0.6-3.6,1.7-4.9c1.1-1.3,2.5-1.9,4.2-1.9
		c1.8,0,3.2,0.6,4.2,1.7c0.9,1.1,1.4,2.7,1.4,4.6v1.3H252l0,0.1c0,1.4,0.3,2.5,0.9,3.4s1.5,1.3,2.8,1.3c0.9,0,1.6-0.1,2.2-0.4
		c0.6-0.2,1.2-0.6,1.7-1l1,1.6c-0.5,0.5-1.1,0.9-2,1.2C257.8,412.8,256.9,413,255.7,413z M255.3,400.6c-0.9,0-1.6,0.3-2.2,1
		c-0.6,0.7-0.9,1.5-1.1,2.6l0,0.1h6.2v-0.2c0-1-0.2-1.8-0.7-2.5C257.1,401,256.4,400.6,255.3,400.6z"/>
	<path class="st2" d="M281.9,406.3c0,2-0.5,3.6-1.4,4.8c-1,1.2-2.3,1.8-3.9,1.8c-0.9,0-1.6-0.1-2.2-0.4c-0.6-0.3-1.2-0.7-1.6-1.3
		v6.7h-2.5v-19.1h1.9l0.4,1.8c0.5-0.7,1-1.2,1.7-1.5s1.5-0.5,2.3-0.5c1.7,0,3,0.7,4,2s1.4,3.1,1.4,5.4V406.3z M279.4,406.1
		c0-1.6-0.3-2.9-0.9-3.9c-0.6-1-1.5-1.5-2.7-1.5c-0.7,0-1.3,0.2-1.8,0.5c-0.5,0.3-0.9,0.8-1.2,1.3v6.7c0.3,0.6,0.7,1,1.2,1.3
		c0.5,0.3,1.1,0.5,1.9,0.5c1.2,0,2.1-0.4,2.7-1.3c0.6-0.9,0.9-2,0.9-3.4V406.1z"/>
	<path class="st2" d="M291.6,401.1l-1.3-0.1c-0.7,0-1.2,0.2-1.7,0.5c-0.5,0.3-0.8,0.8-1.1,1.3v9.9H285v-13.8h2.2l0.2,2
		c0.4-0.7,0.9-1.3,1.4-1.7c0.6-0.4,1.2-0.6,2-0.6c0.2,0,0.4,0,0.5,0c0.2,0,0.3,0.1,0.4,0.1L291.6,401.1z"/>
	<path class="st2" d="M296.9,395.4h-2.5v-2.6h2.5V395.4z M296.9,412.7h-2.5v-13.8h2.5V412.7z"/>
	<path class="st2" d="M303,398.9l0.2,2.1c0.5-0.7,1-1.3,1.7-1.7c0.7-0.4,1.5-0.6,2.4-0.6c1.5,0,2.6,0.4,3.5,1.3
		c0.8,0.9,1.2,2.2,1.2,4v8.7h-2.5V404c0-1.2-0.2-2.1-0.7-2.6c-0.5-0.5-1.2-0.8-2.2-0.8c-0.8,0-1.4,0.2-2,0.5c-0.5,0.3-1,0.7-1.3,1.3
		v10.2h-2.5v-13.8H303z"/>
	<path class="st2" d="M321.1,411c0.8,0,1.5-0.3,2-0.8s0.9-1.1,0.9-1.9h2.3l0,0.1c0,1.2-0.5,2.2-1.5,3.2c-1.1,0.9-2.3,1.4-3.7,1.4
		c-1.9,0-3.4-0.7-4.5-2c-1.1-1.3-1.6-3-1.6-4.9v-0.5c0-1.9,0.5-3.6,1.6-4.9c1.1-1.3,2.6-2,4.5-2c1.5,0,2.8,0.5,3.8,1.4
		c1,1,1.5,2.1,1.4,3.5l0,0.1H324c0-0.8-0.3-1.6-0.8-2.1c-0.5-0.6-1.2-0.9-2.1-0.9c-1.2,0-2.1,0.5-2.7,1.4c-0.6,1-0.8,2.1-0.8,3.5
		v0.5c0,1.4,0.3,2.6,0.8,3.5C318.9,410.5,319.8,411,321.1,411z"/>
	<path class="st2" d="M332,395.4h-2.5v-2.6h2.5V395.4z M332,412.7h-2.5v-13.8h2.5V412.7z"/>
	<path class="st2" d="M347.6,406.3c0,2-0.5,3.6-1.4,4.8c-1,1.2-2.3,1.8-3.9,1.8c-0.9,0-1.6-0.1-2.2-0.4c-0.6-0.3-1.2-0.7-1.6-1.3
		v6.7h-2.5v-19.1h1.9l0.4,1.8c0.5-0.7,1-1.2,1.7-1.5s1.5-0.5,2.3-0.5c1.7,0,3,0.7,4,2s1.4,3.1,1.4,5.4V406.3z M345.1,406.1
		c0-1.6-0.3-2.9-0.9-3.9c-0.6-1-1.5-1.5-2.7-1.5c-0.7,0-1.3,0.2-1.8,0.5c-0.5,0.3-0.9,0.8-1.2,1.3v6.7c0.3,0.6,0.7,1,1.2,1.3
		c0.5,0.3,1.1,0.5,1.9,0.5c1.2,0,2.1-0.4,2.7-1.3c0.6-0.9,0.9-2,0.9-3.4V406.1z"/>
	<path class="st2" d="M353.4,412.7h-2.5v-19.9h2.5V412.7z"/>
	<path class="st2" d="M363,413c-2,0-3.5-0.6-4.6-1.9c-1.1-1.3-1.7-2.9-1.7-5v-0.6c0-2,0.6-3.6,1.7-4.9c1.1-1.3,2.5-1.9,4.2-1.9
		c1.8,0,3.2,0.6,4.2,1.7c0.9,1.1,1.4,2.7,1.4,4.6v1.3h-8.8l0,0.1c0,1.4,0.3,2.5,0.9,3.4s1.5,1.3,2.8,1.3c0.9,0,1.6-0.1,2.2-0.4
		c0.6-0.2,1.2-0.6,1.7-1l1,1.6c-0.5,0.5-1.1,0.9-2,1.2C365.1,412.8,364.1,413,363,413z M362.6,400.6c-0.9,0-1.6,0.3-2.2,1
		c-0.6,0.7-0.9,1.5-1.1,2.6l0,0.1h6.2v-0.2c0-1-0.2-1.8-0.7-2.5C364.4,401,363.6,400.6,362.6,400.6z"/>
	<path class="st2" d="M379,409c0-0.6-0.2-1-0.6-1.4s-1.2-0.7-2.4-0.9c-1.6-0.3-2.9-0.8-3.7-1.5c-0.9-0.6-1.3-1.5-1.3-2.5
		c0-1.1,0.5-2.1,1.4-2.9c1-0.8,2.2-1.2,3.7-1.2c1.6,0,2.8,0.4,3.8,1.3c1,0.8,1.4,1.8,1.4,3l0,0.1h-2.4c0-0.6-0.3-1.1-0.8-1.6
		c-0.5-0.5-1.2-0.7-2-0.7c-0.9,0-1.5,0.2-2,0.6c-0.4,0.4-0.7,0.9-0.7,1.4c0,0.5,0.2,1,0.6,1.3c0.4,0.3,1.2,0.6,2.3,0.8
		c1.7,0.4,3,0.9,3.9,1.5c0.9,0.7,1.3,1.5,1.3,2.6c0,1.2-0.5,2.2-1.5,3c-1,0.8-2.3,1.2-3.9,1.2c-1.8,0-3.1-0.4-4.2-1.3
		c-1-0.9-1.5-1.9-1.4-3.1l0-0.1h2.4c0,0.9,0.4,1.5,1,2c0.6,0.4,1.3,0.6,2.2,0.6c0.9,0,1.6-0.2,2.1-0.6
		C378.7,410.1,379,409.6,379,409z"/>
	<path class="st2" d="M387.4,412.7h-2.5v-2.6h2.5V412.7z"/>
</g>
<circle class="st3" cx="248.3" cy="104.3" r="58.3"/>
<g>
	<g>
		<path class="st1" d="M280.1,76.4c-13.7-3.9-27.5,4.4-41.2,0.2v25.3c13.7,4.2,27.5-3.9,41.2,0c0.2,0.1,0.5,0,0.6-0.2
			c0-0.1,0-0.1,0-0.2V77.2C280.7,76.8,280.4,76.5,280.1,76.4z"/>
		<path class="st1" d="M238.9,131.1h-2.5V76.6c0-1.4-1.1-2.5-2.5-2.5c-1.4,0-2.5,1.1-2.5,2.5v54.5h-2.5c-1.4,0-2.5,1.1-2.5,2.5v1.3
			h15.2v-1.3C241.4,132.2,240.3,131.1,238.9,131.1z"/>
	</g>
</g>
</svg>
