<?xml version="1.0" encoding="utf-8"?>
<!-- Generator: Adobe Illustrator 25.0.0, SVG Export Plug-In . SVG Version: 6.00 Build 0)  -->
<svg version="1.1" id="Layer_1" xmlns="http://www.w3.org/2000/svg" xmlns:xlink="http://www.w3.org/1999/xlink" x="0px" y="0px"
	 viewBox="0 0 500 500" style="enable-background:new 0 0 500 500;" xml:space="preserve">
<style type="text/css">
	.st0{fill:#335DAB;}
	.st1{fill:#FFFFFF;}
	.st2{fill:#2D2D2B;}
	.st3{fill:#F6A400;}
	.st4{fill-rule:evenodd;clip-rule:evenodd;fill:#FFFFFF;}
</style>
<rect x="0" y="0" class="st0" width="500" height="500"/>
<rect x="56.7" y="106.1" class="st1" width="383.1" height="333.9"/>
<g>
	<path class="st0" d="M164.8,199.8v-24.7h6.5l5.1,9c1.5,2.6,2.9,5.7,4,8.4h0.1c-0.3-3.3-0.4-6.6-0.4-10.3v-7.2h5.1v24.7h-5.9
		l-5.3-9.5c-1.5-2.6-3.1-5.8-4.3-8.7h-0.1c0.2,3.3,0.3,6.8,0.3,10.8v7.4H164.8z"/>
	<path class="st0" d="M194.9,192.6c0.1,2.3,2.5,3.4,5,3.4c1.9,0,3.4-0.3,4.9-0.8l0.7,3.8c-1.8,0.8-4.1,1.1-6.5,1.1
		c-6.1,0-9.5-3.5-9.5-9.1c0-4.5,2.8-9.5,9-9.5c5.8,0,8,4.5,8,8.9c0,1-0.1,1.8-0.2,2.2H194.9z M201.4,188.8c0-1.4-0.6-3.6-3.1-3.6
		c-2.3,0-3.3,2.2-3.4,3.6H201.4z"/>
	<path class="st0" d="M227.5,194.1c0,2.3,0.1,4.2,0.1,5.7h-4.8l-0.3-2.5h-0.1c-0.7,1.1-2.4,2.9-5.6,2.9c-3.7,0-6.3-2.3-6.3-7.8
		v-10.5h5.6v9.6c0,2.6,0.8,4.2,2.8,4.2c1.5,0,2.5-1.1,2.8-1.9c0.1-0.3,0.2-0.7,0.2-1.2v-10.6h5.6V194.1z"/>
	<path class="st0" d="M238.9,177.1v4.8h4v4.1h-4v6.5c0,2.2,0.5,3.1,2.2,3.1c0.8,0,1.1,0,1.6-0.1l0,4.2c-0.7,0.3-2,0.5-3.6,0.5
		c-1.8,0-3.3-0.6-4.2-1.5c-1-1.1-1.5-2.8-1.5-5.3V186h-2.4v-4.1h2.4v-3.3L238.9,177.1z"/>
	<path class="st0" d="M246.8,187.8c0-2.6,0-4.4-0.1-5.9h4.8l0.2,3.3h0.1c0.9-2.6,3.1-3.7,4.8-3.7c0.5,0,0.8,0,1.2,0.1v5.2
		c-0.4-0.1-0.9-0.1-1.5-0.1c-2,0-3.4,1.1-3.8,2.8c-0.1,0.4-0.1,0.8-0.1,1.2v9.1h-5.6V187.8z"/>
	<path class="st0" d="M276.4,195.5c0,1.7,0.1,3.3,0.3,4.3h-5l-0.3-1.8h-0.1c-1.2,1.4-3,2.2-5.1,2.2c-3.6,0-5.8-2.6-5.8-5.5
		c0-4.6,4.2-6.8,10.5-6.8v-0.2c0-1-0.5-2.3-3.3-2.3c-1.8,0-3.8,0.6-4.9,1.4l-1-3.6c1.2-0.7,3.7-1.6,6.9-1.6c6,0,7.8,3.5,7.8,7.8
		V195.5z M271,191.4c-2.9,0-5.2,0.7-5.2,2.8c0,1.4,1,2.1,2.2,2.1c1.4,0,2.5-0.9,2.9-2c0.1-0.3,0.1-0.6,0.1-1V191.4z"/>
	<path class="st0" d="M281.5,173.8h5.6v26h-5.6V173.8z"/>
	<path class="st0" d="M298,177c0,1.5-1.1,2.8-3,2.8c-1.8,0-2.9-1.2-2.9-2.8c0-1.6,1.2-2.8,3-2.8C296.9,174.2,298,175.4,298,177z
		 M292.3,199.8v-17.9h5.6v17.9H292.3z"/>
	<path class="st0" d="M309.3,177.1v4.8h4v4.1h-4v6.5c0,2.2,0.5,3.1,2.2,3.1c0.8,0,1.1,0,1.6-0.1l0,4.2c-0.7,0.3-2,0.5-3.6,0.5
		c-1.8,0-3.3-0.6-4.2-1.5c-1-1.1-1.5-2.8-1.5-5.3V186h-2.4v-4.1h2.4v-3.3L309.3,177.1z"/>
	<path class="st0" d="M321.4,181.9l2.7,8.8c0.3,1,0.7,2.4,0.9,3.3h0.1c0.2-1,0.5-2.3,0.8-3.4l2.2-8.8h5.9l-4.2,11.8
		c-2.6,7.1-4.3,9.9-6.3,11.7c-1.9,1.7-4,2.3-5.3,2.5l-1.2-4.7c0.7-0.1,1.6-0.5,2.4-1c0.8-0.4,1.8-1.4,2.3-2.2
		c0.2-0.3,0.3-0.6,0.3-0.8c0-0.2,0-0.5-0.2-0.9l-6.6-16.4H321.4z"/>
	<path class="st2" d="M110.7,232.5h-2.5v-8.2h-9v8.2h-2.5v-18.6h2.5v8.4h9v-8.4h2.5V232.5z"/>
	<path class="st2" d="M123.4,230.4c-0.4,0.7-1,1.3-1.7,1.7c-0.7,0.4-1.5,0.6-2.4,0.6c-1.5,0-2.7-0.5-3.5-1.4s-1.3-2.5-1.3-4.5v-8.1
		h2.5v8.2c0,1.5,0.2,2.5,0.7,3c0.4,0.6,1.1,0.8,2,0.8c0.9,0,1.6-0.2,2.2-0.5s1-0.9,1.3-1.5v-9.9h2.5v13.8h-2.3L123.4,230.4z"/>
	<path class="st2" d="M131.8,218.7l0.2,1.8c0.5-0.7,1-1.2,1.7-1.5c0.7-0.4,1.5-0.5,2.4-0.5c0.9,0,1.7,0.2,2.4,0.6
		c0.7,0.4,1.2,1.1,1.5,1.9c0.4-0.8,1-1.4,1.7-1.9c0.7-0.5,1.5-0.7,2.5-0.7c1.4,0,2.5,0.5,3.3,1.4c0.8,1,1.2,2.4,1.2,4.4v8.3h-2.5
		v-8.3c0-1.4-0.2-2.3-0.7-2.9s-1.2-0.8-2.1-0.8c-0.9,0-1.6,0.3-2.1,0.9c-0.5,0.6-0.8,1.3-0.9,2.3v0.1v8.8h-2.5v-8.3
		c0-1.3-0.2-2.2-0.7-2.8c-0.5-0.6-1.2-0.9-2.1-0.9c-0.8,0-1.4,0.2-1.9,0.5c-0.5,0.3-0.9,0.8-1.1,1.3v10.2h-2.5v-13.8H131.8z"/>
	<path class="st2" d="M160.8,232.5c-0.1-0.4-0.2-0.8-0.2-1.1s-0.1-0.6-0.1-1c-0.5,0.7-1.1,1.2-1.8,1.7s-1.6,0.7-2.4,0.7
		c-1.4,0-2.5-0.4-3.3-1.1c-0.8-0.7-1.1-1.7-1.1-3c0-1.3,0.5-2.3,1.6-3.1c1.1-0.7,2.5-1.1,4.3-1.1h2.7V223c0-0.8-0.2-1.4-0.7-1.9
		c-0.5-0.5-1.2-0.7-2.1-0.7c-0.8,0-1.5,0.2-2,0.6s-0.8,0.9-0.8,1.5l-2.4,0l0-0.1c-0.1-1,0.4-1.9,1.4-2.8s2.3-1.2,3.9-1.2
		c1.6,0,2.8,0.4,3.8,1.2c1,0.8,1.4,1.9,1.4,3.4v6.6c0,0.5,0,1,0.1,1.4c0.1,0.5,0.1,0.9,0.3,1.4H160.8z M156.7,230.6
		c0.9,0,1.7-0.2,2.5-0.7c0.7-0.5,1.2-1,1.4-1.6v-2.2h-2.8c-1,0-1.8,0.3-2.4,0.8s-0.9,1.1-0.9,1.8c0,0.6,0.2,1.1,0.6,1.5
		C155.3,230.4,155.9,230.6,156.7,230.6z"/>
	<path class="st2" d="M169,218.7l0.2,2.1c0.5-0.7,1-1.3,1.7-1.7c0.7-0.4,1.5-0.6,2.4-0.6c1.5,0,2.6,0.4,3.5,1.3
		c0.8,0.9,1.2,2.2,1.2,4v8.7h-2.5v-8.7c0-1.2-0.2-2.1-0.7-2.6s-1.2-0.8-2.2-0.8c-0.8,0-1.4,0.2-2,0.5s-1,0.7-1.3,1.3v10.2h-2.5
		v-13.8H169z"/>
	<path class="st2" d="M184.3,215.1h-2.5v-2.6h2.5V215.1z M184.3,232.5h-2.5v-13.8h2.5V232.5z"/>
	<path class="st2" d="M191.6,215.3v3.3h2.6v1.9h-2.6v8.4c0,0.6,0.1,1.1,0.4,1.4s0.6,0.4,1.1,0.4c0.1,0,0.3,0,0.5-0.1
		c0.2,0,0.3-0.1,0.4-0.1l0.3,1.7c-0.2,0.2-0.5,0.3-0.8,0.4c-0.4,0.1-0.7,0.1-1.1,0.1c-1,0-1.8-0.3-2.4-0.9c-0.6-0.6-0.9-1.6-0.9-2.9
		v-8.4h-2.2v-1.9h2.2v-3.3H191.6z"/>
	<path class="st2" d="M205.4,232.5c-0.1-0.4-0.2-0.8-0.2-1.1s-0.1-0.6-0.1-1c-0.5,0.7-1.1,1.2-1.8,1.7s-1.6,0.7-2.4,0.7
		c-1.4,0-2.5-0.4-3.3-1.1c-0.8-0.7-1.1-1.7-1.1-3c0-1.3,0.5-2.3,1.6-3.1c1.1-0.7,2.5-1.1,4.3-1.1h2.7V223c0-0.8-0.2-1.4-0.7-1.9
		c-0.5-0.5-1.2-0.7-2.1-0.7c-0.8,0-1.5,0.2-2,0.6s-0.8,0.9-0.8,1.5l-2.4,0l0-0.1c-0.1-1,0.4-1.9,1.4-2.8s2.3-1.2,3.9-1.2
		c1.6,0,2.8,0.4,3.8,1.2c1,0.8,1.4,1.9,1.4,3.4v6.6c0,0.5,0,1,0.1,1.4c0.1,0.5,0.1,0.9,0.3,1.4H205.4z M201.3,230.6
		c0.9,0,1.7-0.2,2.5-0.7c0.7-0.5,1.2-1,1.4-1.6v-2.2h-2.8c-1,0-1.8,0.3-2.4,0.8s-0.9,1.1-0.9,1.8c0,0.6,0.2,1.1,0.6,1.5
		C199.9,230.4,200.5,230.6,201.3,230.6z"/>
	<path class="st2" d="M217.8,220.9l-1.3-0.1c-0.7,0-1.2,0.2-1.7,0.5c-0.5,0.3-0.8,0.8-1.1,1.3v9.9h-2.5v-13.8h2.2l0.2,2
		c0.4-0.7,0.9-1.3,1.4-1.7c0.6-0.4,1.2-0.6,2-0.6c0.2,0,0.4,0,0.5,0c0.2,0,0.3,0.1,0.4,0.1L217.8,220.9z"/>
	<path class="st2" d="M223.2,215.1h-2.5v-2.6h2.5V215.1z M223.2,232.5h-2.5v-13.8h2.5V232.5z"/>
	<path class="st2" d="M235.5,232.5c-0.1-0.4-0.2-0.8-0.2-1.1s-0.1-0.6-0.1-1c-0.5,0.7-1.1,1.2-1.8,1.7s-1.6,0.7-2.4,0.7
		c-1.4,0-2.5-0.4-3.3-1.1c-0.8-0.7-1.1-1.7-1.1-3c0-1.3,0.5-2.3,1.6-3.1c1.1-0.7,2.5-1.1,4.3-1.1h2.7V223c0-0.8-0.2-1.4-0.7-1.9
		c-0.5-0.5-1.2-0.7-2.1-0.7c-0.8,0-1.5,0.2-2,0.6s-0.8,0.9-0.8,1.5l-2.4,0l0-0.1c-0.1-1,0.4-1.9,1.4-2.8s2.3-1.2,3.9-1.2
		c1.6,0,2.8,0.4,3.8,1.2c1,0.8,1.4,1.9,1.4,3.4v6.6c0,0.5,0,1,0.1,1.4c0.1,0.5,0.1,0.9,0.3,1.4H235.5z M231.3,230.6
		c0.9,0,1.7-0.2,2.5-0.7c0.7-0.5,1.2-1,1.4-1.6v-2.2h-2.8c-1,0-1.8,0.3-2.4,0.8s-0.9,1.1-0.9,1.8c0,0.6,0.2,1.1,0.6,1.5
		C230,230.4,230.6,230.6,231.3,230.6z"/>
	<path class="st2" d="M243.6,218.7l0.2,2.1c0.5-0.7,1-1.3,1.7-1.7c0.7-0.4,1.5-0.6,2.4-0.6c1.5,0,2.6,0.4,3.5,1.3
		c0.8,0.9,1.2,2.2,1.2,4v8.7h-2.5v-8.7c0-1.2-0.2-2.1-0.7-2.6c-0.5-0.5-1.2-0.8-2.2-0.8c-0.8,0-1.4,0.2-2,0.5s-1,0.7-1.3,1.3v10.2
		h-2.5v-13.8H243.6z"/>
	<path class="st2" d="M271.2,232.5c-0.1-0.4-0.2-0.8-0.2-1.1s-0.1-0.6-0.1-1c-0.5,0.7-1.1,1.2-1.8,1.7s-1.6,0.7-2.4,0.7
		c-1.4,0-2.5-0.4-3.3-1.1c-0.8-0.7-1.1-1.7-1.1-3c0-1.3,0.5-2.3,1.6-3.1c1.1-0.7,2.5-1.1,4.3-1.1h2.7V223c0-0.8-0.2-1.4-0.7-1.9
		c-0.5-0.5-1.2-0.7-2.1-0.7c-0.8,0-1.5,0.2-2,0.6s-0.8,0.9-0.8,1.5l-2.4,0l0-0.1c-0.1-1,0.4-1.9,1.4-2.8s2.3-1.2,3.9-1.2
		c1.6,0,2.8,0.4,3.8,1.2c1,0.8,1.4,1.9,1.4,3.4v6.6c0,0.5,0,1,0.1,1.4c0.1,0.5,0.1,0.9,0.3,1.4H271.2z M267,230.6
		c0.9,0,1.7-0.2,2.5-0.7s1.2-1,1.4-1.6v-2.2h-2.8c-1,0-1.8,0.3-2.4,0.8c-0.6,0.5-0.9,1.1-0.9,1.8c0,0.6,0.2,1.1,0.6,1.5
		C265.7,230.4,266.3,230.6,267,230.6z"/>
	<path class="st2" d="M282.6,230.8c0.8,0,1.5-0.3,2-0.8c0.6-0.5,0.9-1.1,0.9-1.9h2.3l0,0.1c0,1.2-0.5,2.2-1.5,3.2
		c-1.1,0.9-2.3,1.4-3.7,1.4c-1.9,0-3.4-0.7-4.5-2c-1.1-1.3-1.6-3-1.6-4.9v-0.5c0-1.9,0.5-3.6,1.6-4.9s2.6-2,4.5-2
		c1.5,0,2.8,0.5,3.8,1.4c1,1,1.5,2.1,1.4,3.5l0,0.1h-2.3c0-0.8-0.3-1.6-0.8-2.1c-0.5-0.6-1.2-0.9-2.1-0.9c-1.2,0-2.1,0.5-2.7,1.4
		c-0.6,1-0.8,2.1-0.8,3.5v0.5c0,1.4,0.3,2.6,0.8,3.5C280.4,230.3,281.3,230.8,282.6,230.8z"/>
	<path class="st2" d="M294.3,215.3v3.3h2.6v1.9h-2.6v8.4c0,0.6,0.1,1.1,0.4,1.4s0.6,0.4,1.1,0.4c0.1,0,0.3,0,0.5-0.1
		c0.2,0,0.3-0.1,0.4-0.1l0.3,1.7c-0.2,0.2-0.5,0.3-0.8,0.4c-0.4,0.1-0.7,0.1-1.1,0.1c-1,0-1.8-0.3-2.4-0.9c-0.6-0.6-0.9-1.6-0.9-2.9
		v-8.4h-2.2v-1.9h2.2v-3.3H294.3z"/>
	<path class="st2" d="M299,225.4c0-2,0.6-3.7,1.7-5s2.6-2,4.5-2c1.9,0,3.4,0.7,4.5,2s1.7,3,1.7,5.1v0.3c0,2.1-0.6,3.7-1.7,5.1
		s-2.6,2-4.5,2c-1.9,0-3.4-0.7-4.5-2c-1.1-1.3-1.7-3-1.7-5V225.4z M301.5,225.7c0,1.5,0.3,2.7,0.9,3.6c0.6,1,1.5,1.4,2.7,1.4
		c1.2,0,2.1-0.5,2.7-1.4c0.6-1,0.9-2.2,0.9-3.6v-0.3c0-1.4-0.3-2.6-0.9-3.6s-1.5-1.4-2.7-1.4c-1.2,0-2.1,0.5-2.7,1.4
		s-0.9,2.2-0.9,3.6V225.7z"/>
	<path class="st2" d="M320.9,220.9l-1.3-0.1c-0.7,0-1.2,0.2-1.7,0.5c-0.5,0.3-0.8,0.8-1.1,1.3v9.9h-2.5v-13.8h2.2l0.2,2
		c0.4-0.7,0.9-1.3,1.4-1.7c0.6-0.4,1.2-0.6,2-0.6c0.2,0,0.4,0,0.5,0s0.3,0.1,0.4,0.1L320.9,220.9z"/>
	<path class="st2" d="M331.6,228.8c0-0.6-0.2-1-0.6-1.4c-0.4-0.3-1.2-0.7-2.4-0.9c-1.6-0.3-2.9-0.8-3.7-1.5
		c-0.9-0.6-1.3-1.5-1.3-2.5c0-1.1,0.5-2.1,1.4-2.9c1-0.8,2.2-1.2,3.7-1.2c1.6,0,2.8,0.4,3.8,1.3c1,0.9,1.4,1.8,1.4,3l0,0.1h-2.4
		c0-0.6-0.3-1.1-0.8-1.6c-0.5-0.5-1.2-0.7-2-0.7c-0.9,0-1.5,0.2-2,0.6c-0.4,0.4-0.7,0.9-0.7,1.4c0,0.5,0.2,1,0.6,1.3
		c0.4,0.3,1.2,0.6,2.3,0.8c1.7,0.4,3,0.9,3.9,1.5s1.3,1.5,1.3,2.6c0,1.2-0.5,2.2-1.5,3c-1,0.8-2.3,1.2-3.9,1.2
		c-1.8,0-3.1-0.4-4.2-1.3c-1-0.9-1.5-1.9-1.4-3.1l0-0.1h2.4c0,0.9,0.4,1.5,1,2s1.3,0.6,2.2,0.6c0.9,0,1.6-0.2,2.1-0.6
		C331.3,229.8,331.6,229.3,331.6,228.8z"/>
	<path class="st2" d="M346,218.7l0.2,1.8c0.5-0.7,1-1.2,1.7-1.5s1.5-0.5,2.4-0.5c0.9,0,1.7,0.2,2.4,0.6s1.2,1.1,1.5,1.9
		c0.4-0.8,1-1.4,1.7-1.9c0.7-0.5,1.5-0.7,2.5-0.7c1.4,0,2.5,0.5,3.3,1.4c0.8,1,1.2,2.4,1.2,4.4v8.3h-2.5v-8.3c0-1.4-0.2-2.3-0.7-2.9
		c-0.5-0.6-1.2-0.8-2.1-0.8c-0.9,0-1.6,0.3-2.1,0.9s-0.8,1.3-0.9,2.3v0.1v8.8H352v-8.3c0-1.3-0.2-2.2-0.7-2.8s-1.2-0.9-2.1-0.9
		c-0.8,0-1.4,0.2-1.9,0.5s-0.9,0.8-1.1,1.3v10.2h-2.5v-13.8H346z"/>
	<path class="st2" d="M375.3,230.4c-0.4,0.7-1,1.3-1.7,1.7c-0.7,0.4-1.5,0.6-2.4,0.6c-1.5,0-2.7-0.5-3.5-1.4s-1.3-2.5-1.3-4.5v-8.1
		h2.5v8.2c0,1.5,0.2,2.5,0.7,3s1.1,0.8,2,0.8c0.9,0,1.6-0.2,2.2-0.5c0.6-0.4,1-0.9,1.3-1.5v-9.9h2.5v13.8h-2.3L375.3,230.4z"/>
	<path class="st2" d="M389.4,228.8c0-0.6-0.2-1-0.6-1.4c-0.4-0.3-1.2-0.7-2.4-0.9c-1.6-0.3-2.9-0.8-3.7-1.5
		c-0.9-0.6-1.3-1.5-1.3-2.5c0-1.1,0.5-2.1,1.4-2.9c1-0.8,2.2-1.2,3.7-1.2c1.6,0,2.8,0.4,3.8,1.3c1,0.9,1.4,1.8,1.4,3l0,0.1h-2.4
		c0-0.6-0.3-1.1-0.8-1.6c-0.5-0.5-1.2-0.7-2-0.7c-0.9,0-1.5,0.2-2,0.6c-0.4,0.4-0.7,0.9-0.7,1.4c0,0.5,0.2,1,0.6,1.3
		c0.4,0.3,1.2,0.6,2.3,0.8c1.7,0.4,3,0.9,3.9,1.5s1.3,1.5,1.3,2.6c0,1.2-0.5,2.2-1.5,3c-1,0.8-2.3,1.2-3.9,1.2
		c-1.8,0-3.1-0.4-4.2-1.3c-1-0.9-1.5-1.9-1.4-3.1l0-0.1h2.4c0,0.9,0.4,1.5,1,2s1.3,0.6,2.2,0.6c0.9,0,1.6-0.2,2.1-0.6
		C389.2,229.8,389.4,229.3,389.4,228.8z"/>
	<path class="st2" d="M398.6,215.3v3.3h2.6v1.9h-2.6v8.4c0,0.6,0.1,1.1,0.4,1.4s0.6,0.4,1.1,0.4c0.1,0,0.3,0,0.5-0.1
		c0.2,0,0.3-0.1,0.4-0.1l0.3,1.7c-0.2,0.2-0.5,0.3-0.8,0.4c-0.4,0.1-0.7,0.1-1.1,0.1c-1,0-1.8-0.3-2.4-0.9c-0.6-0.6-0.9-1.6-0.9-2.9
		v-8.4h-2.2v-1.9h2.2v-3.3H398.6z"/>
	<path class="st2" d="M95.7,248.7l0.2,2.1c0.5-0.7,1-1.3,1.7-1.7c0.7-0.4,1.5-0.6,2.4-0.6c1.5,0,2.6,0.4,3.5,1.3
		c0.8,0.9,1.2,2.2,1.2,4v8.7h-2.5v-8.7c0-1.2-0.2-2.1-0.7-2.6c-0.5-0.5-1.2-0.8-2.2-0.8c-0.8,0-1.4,0.2-2,0.5s-1,0.7-1.3,1.3v10.2
		h-2.5v-13.8H95.7z"/>
	<path class="st2" d="M107.8,255.5c0-2,0.6-3.7,1.7-5c1.1-1.3,2.6-2,4.5-2c1.9,0,3.4,0.7,4.5,2c1.1,1.3,1.7,3,1.7,5.1v0.3
		c0,2.1-0.6,3.7-1.7,5.1s-2.6,2-4.5,2s-3.4-0.7-4.5-2c-1.1-1.3-1.7-3-1.7-5V255.5z M110.3,255.8c0,1.5,0.3,2.7,0.9,3.6
		c0.6,1,1.5,1.4,2.7,1.4c1.2,0,2.1-0.5,2.7-1.4c0.6-1,0.9-2.2,0.9-3.6v-0.3c0-1.4-0.3-2.6-0.9-3.6s-1.5-1.4-2.7-1.4
		c-1.2,0-2.1,0.5-2.7,1.4c-0.6,1-0.9,2.2-0.9,3.6V255.8z"/>
	<path class="st2" d="M126.7,245.4v3.3h2.6v1.9h-2.6v8.4c0,0.6,0.1,1.1,0.4,1.4c0.3,0.3,0.6,0.4,1.1,0.4c0.1,0,0.3,0,0.5-0.1
		c0.2,0,0.3-0.1,0.4-0.1l0.3,1.7c-0.2,0.2-0.5,0.3-0.8,0.4c-0.4,0.1-0.7,0.1-1.1,0.1c-1,0-1.8-0.3-2.4-0.9c-0.6-0.6-0.9-1.6-0.9-2.9
		v-8.4H122v-1.9h2.2v-3.3H126.7z"/>
	<path class="st2" d="M142,245.4v3.3h2.6v1.9H142v8.4c0,0.6,0.1,1.1,0.4,1.4c0.3,0.3,0.6,0.4,1.1,0.4c0.1,0,0.3,0,0.5-0.1
		c0.2,0,0.3-0.1,0.4-0.1l0.3,1.7c-0.2,0.2-0.5,0.3-0.8,0.4c-0.4,0.1-0.7,0.1-1.1,0.1c-1,0-1.8-0.3-2.4-0.9c-0.6-0.6-0.9-1.6-0.9-2.9
		v-8.4h-2.2v-1.9h2.2v-3.3H142z"/>
	<path class="st2" d="M155.8,262.5c-0.1-0.4-0.2-0.8-0.2-1.1c0-0.3-0.1-0.6-0.1-1c-0.5,0.7-1.1,1.2-1.8,1.7
		c-0.8,0.4-1.6,0.7-2.4,0.7c-1.4,0-2.5-0.4-3.3-1.1c-0.8-0.7-1.1-1.7-1.1-3c0-1.3,0.5-2.3,1.6-3.1c1.1-0.7,2.5-1.1,4.3-1.1h2.7v-1.4
		c0-0.8-0.2-1.4-0.7-1.9s-1.2-0.7-2.1-0.7c-0.8,0-1.5,0.2-2,0.6s-0.8,0.9-0.8,1.5l-2.4,0l0-0.1c-0.1-1,0.4-1.9,1.4-2.8
		c1-0.8,2.3-1.2,3.9-1.2c1.6,0,2.8,0.4,3.8,1.2c1,0.8,1.4,1.9,1.4,3.4v6.6c0,0.5,0,1,0.1,1.4c0.1,0.5,0.1,0.9,0.3,1.4H155.8z
		 M151.6,260.7c0.9,0,1.7-0.2,2.5-0.7c0.7-0.5,1.2-1,1.4-1.6v-2.2h-2.8c-1,0-1.8,0.3-2.4,0.8c-0.6,0.5-0.9,1.1-0.9,1.8
		c0,0.6,0.2,1.1,0.6,1.5C150.3,260.5,150.8,260.7,151.6,260.7z"/>
	<path class="st2" d="M165.5,256.1h-1.3v6.4h-2.5v-19.9h2.5v11.5h1.3l4.1-5.4h3l-5,6.4l5.4,7.4h-3L165.5,256.1z"/>
	<path class="st2" d="M180.8,262.8c-2,0-3.5-0.6-4.6-1.9c-1.1-1.3-1.7-2.9-1.7-5v-0.6c0-2,0.6-3.6,1.7-4.9s2.5-1.9,4.2-1.9
		c1.8,0,3.2,0.6,4.2,1.7c0.9,1.1,1.4,2.7,1.4,4.6v1.3h-8.8l0,0.1c0,1.4,0.3,2.5,0.9,3.4c0.6,0.9,1.5,1.3,2.8,1.3
		c0.9,0,1.6-0.1,2.2-0.4c0.6-0.2,1.2-0.6,1.7-1l1,1.6c-0.5,0.5-1.1,0.9-2,1.2C182.9,262.6,181.9,262.8,180.8,262.8z M180.4,250.4
		c-0.9,0-1.6,0.3-2.2,1c-0.6,0.7-0.9,1.5-1.1,2.6l0,0.1h6.2v-0.2c0-1-0.2-1.8-0.7-2.5C182.1,250.8,181.4,250.4,180.4,250.4z"/>
	<path class="st2" d="M203.2,258.8c0-0.6-0.2-1-0.6-1.4s-1.2-0.7-2.4-0.9c-1.6-0.3-2.9-0.8-3.7-1.5c-0.9-0.6-1.3-1.5-1.3-2.5
		c0-1.1,0.5-2.1,1.4-2.9c1-0.8,2.2-1.2,3.7-1.2c1.6,0,2.8,0.4,3.8,1.3c1,0.8,1.4,1.8,1.4,3l0,0.1h-2.4c0-0.6-0.3-1.1-0.8-1.6
		c-0.5-0.5-1.2-0.7-2-0.7c-0.9,0-1.5,0.2-2,0.6c-0.4,0.4-0.7,0.9-0.7,1.4c0,0.5,0.2,1,0.6,1.3c0.4,0.3,1.2,0.6,2.3,0.8
		c1.7,0.4,3,0.9,3.9,1.5c0.9,0.7,1.3,1.5,1.3,2.6c0,1.2-0.5,2.2-1.5,3c-1,0.8-2.3,1.2-3.9,1.2c-1.8,0-3.1-0.4-4.2-1.3
		c-1-0.9-1.5-1.9-1.4-3.1l0-0.1h2.4c0,0.9,0.4,1.5,1,2c0.6,0.4,1.3,0.6,2.2,0.6c0.9,0,1.6-0.2,2.1-0.6
		C203,259.9,203.2,259.4,203.2,258.8z"/>
	<path class="st2" d="M211.6,245.2h-2.5v-2.6h2.5V245.2z M211.6,262.5h-2.5v-13.8h2.5V262.5z"/>
	<path class="st2" d="M214.9,255.9c0-2.2,0.5-4,1.4-5.4c0.9-1.4,2.3-2,4-2c0.8,0,1.5,0.1,2.1,0.4c0.6,0.3,1.2,0.7,1.6,1.3v-7.6h2.5
		v19.9h-1.9l-0.4-1.7c-0.5,0.7-1,1.2-1.7,1.5s-1.4,0.5-2.3,0.5c-1.7,0-3-0.6-4-1.8c-1-1.2-1.4-2.8-1.4-4.8V255.9z M217.4,256.1
		c0,1.4,0.3,2.5,0.9,3.3s1.5,1.3,2.7,1.3c0.7,0,1.4-0.2,1.9-0.5s0.9-0.8,1.2-1.4v-6.4c-0.3-0.6-0.7-1-1.3-1.4s-1.1-0.5-1.9-0.5
		c-1.2,0-2.1,0.5-2.7,1.5c-0.6,1-0.9,2.3-0.9,3.9V256.1z"/>
	<path class="st2" d="M236,262.8c-2,0-3.5-0.6-4.6-1.9c-1.1-1.3-1.7-2.9-1.7-5v-0.6c0-2,0.6-3.6,1.7-4.9s2.5-1.9,4.2-1.9
		c1.8,0,3.2,0.6,4.2,1.7c0.9,1.1,1.4,2.7,1.4,4.6v1.3h-8.8l0,0.1c0,1.4,0.3,2.5,0.9,3.4c0.6,0.9,1.5,1.3,2.8,1.3
		c0.9,0,1.6-0.1,2.2-0.4c0.6-0.2,1.2-0.6,1.7-1l1,1.6c-0.5,0.5-1.1,0.9-2,1.2C238.1,262.6,237.1,262.8,236,262.8z M235.6,250.4
		c-0.9,0-1.6,0.3-2.2,1c-0.6,0.7-0.9,1.5-1.1,2.6l0,0.1h6.2v-0.2c0-1-0.2-1.8-0.7-2.5C237.4,250.8,236.6,250.4,235.6,250.4z"/>
	<path class="st2" d="M252,258.8c0-0.6-0.2-1-0.6-1.4c-0.4-0.3-1.2-0.7-2.4-0.9c-1.6-0.3-2.9-0.8-3.7-1.5c-0.9-0.6-1.3-1.5-1.3-2.5
		c0-1.1,0.5-2.1,1.4-2.9c1-0.8,2.2-1.2,3.7-1.2c1.6,0,2.8,0.4,3.8,1.3c1,0.8,1.4,1.8,1.4,3l0,0.1h-2.4c0-0.6-0.3-1.1-0.8-1.6
		c-0.5-0.5-1.2-0.7-2-0.7c-0.9,0-1.5,0.2-2,0.6c-0.4,0.4-0.7,0.9-0.7,1.4c0,0.5,0.2,1,0.6,1.3c0.4,0.3,1.2,0.6,2.3,0.8
		c1.7,0.4,3,0.9,3.9,1.5c0.9,0.7,1.3,1.5,1.3,2.6c0,1.2-0.5,2.2-1.5,3c-1,0.8-2.3,1.2-3.9,1.2c-1.8,0-3.1-0.4-4.2-1.3
		c-1-0.9-1.5-1.9-1.4-3.1l0-0.1h2.4c0,0.9,0.4,1.5,1,2c0.6,0.4,1.3,0.6,2.2,0.6c0.9,0,1.6-0.2,2.1-0.6
		C251.7,259.9,252,259.4,252,258.8z"/>
	<path class="st2" d="M266.8,245.2h-2.5v-2.6h2.5V245.2z M266.8,262.5h-2.5v-13.8h2.5V262.5z"/>
	<path class="st2" d="M272.9,248.7l0.2,2.1c0.5-0.7,1-1.3,1.7-1.7c0.7-0.4,1.5-0.6,2.4-0.6c1.5,0,2.6,0.4,3.5,1.3
		c0.8,0.9,1.2,2.2,1.2,4v8.7h-2.5v-8.7c0-1.2-0.2-2.1-0.7-2.6c-0.5-0.5-1.2-0.8-2.2-0.8c-0.8,0-1.4,0.2-2,0.5
		c-0.5,0.3-1,0.7-1.3,1.3v10.2h-2.5v-13.8H272.9z"/>
	<path class="st2" d="M294.6,250.6c0.5-0.7,1.1-1.2,1.8-1.5c0.7-0.4,1.5-0.6,2.3-0.6c1.5,0,2.6,0.4,3.4,1.3c0.8,0.9,1.2,2.2,1.2,4.1
		v8.6h-2.5v-8.7c0-1.1-0.2-2-0.7-2.5c-0.5-0.5-1.2-0.8-2.2-0.8c-0.7,0-1.4,0.1-2,0.4c-0.6,0.3-1,0.7-1.3,1.2v10.3H292v-19.9h2.5
		V250.6z"/>
	<path class="st2" d="M306.3,255.5c0-2,0.6-3.7,1.7-5c1.1-1.3,2.6-2,4.5-2c1.9,0,3.4,0.7,4.5,2s1.7,3,1.7,5.1v0.3
		c0,2.1-0.6,3.7-1.7,5.1s-2.6,2-4.5,2c-1.9,0-3.4-0.7-4.5-2c-1.1-1.3-1.7-3-1.7-5V255.5z M308.8,255.8c0,1.5,0.3,2.7,0.9,3.6
		s1.5,1.4,2.7,1.4c1.2,0,2.1-0.5,2.7-1.4c0.6-1,0.9-2.2,0.9-3.6v-0.3c0-1.4-0.3-2.6-0.9-3.6s-1.5-1.4-2.7-1.4
		c-1.2,0-2.1,0.5-2.7,1.4s-0.9,2.2-0.9,3.6V255.8z"/>
	<path class="st2" d="M329.8,258.8c0-0.6-0.2-1-0.6-1.4s-1.2-0.7-2.4-0.9c-1.6-0.3-2.9-0.8-3.7-1.5c-0.9-0.6-1.3-1.5-1.3-2.5
		c0-1.1,0.5-2.1,1.4-2.9c1-0.8,2.2-1.2,3.7-1.2c1.6,0,2.8,0.4,3.8,1.3c1,0.8,1.4,1.8,1.4,3l0,0.1h-2.4c0-0.6-0.3-1.1-0.8-1.6
		c-0.5-0.5-1.2-0.7-2-0.7c-0.9,0-1.5,0.2-2,0.6c-0.4,0.4-0.7,0.9-0.7,1.4c0,0.5,0.2,1,0.6,1.3c0.4,0.3,1.2,0.6,2.3,0.8
		c1.7,0.4,3,0.9,3.9,1.5c0.9,0.7,1.3,1.5,1.3,2.6c0,1.2-0.5,2.2-1.5,3c-1,0.8-2.3,1.2-3.9,1.2c-1.8,0-3.1-0.4-4.2-1.3
		c-1-0.9-1.5-1.9-1.4-3.1l0-0.1h2.4c0,0.9,0.4,1.5,1,2c0.6,0.4,1.3,0.6,2.2,0.6c0.9,0,1.6-0.2,2.1-0.6
		C329.5,259.9,329.8,259.4,329.8,258.8z"/>
	<path class="st2" d="M338.9,245.4v3.3h2.6v1.9h-2.6v8.4c0,0.6,0.1,1.1,0.4,1.4c0.3,0.3,0.6,0.4,1.1,0.4c0.1,0,0.3,0,0.5-0.1
		c0.2,0,0.3-0.1,0.4-0.1l0.3,1.7c-0.2,0.2-0.5,0.3-0.8,0.4c-0.4,0.1-0.7,0.1-1.1,0.1c-1,0-1.8-0.3-2.4-0.9c-0.6-0.6-0.9-1.6-0.9-2.9
		v-8.4h-2.2v-1.9h2.2v-3.3H338.9z"/>
	<path class="st2" d="M346.9,245.2h-2.5v-2.6h2.5V245.2z M346.9,262.5h-2.5v-13.8h2.5V262.5z"/>
	<path class="st2" d="M353.5,262.5H351v-19.9h2.5V262.5z"/>
	<path class="st2" d="M360.1,245.2h-2.5v-2.6h2.5V245.2z M360.1,262.5h-2.5v-13.8h2.5V262.5z"/>
	<path class="st2" d="M367.4,245.4v3.3h2.6v1.9h-2.6v8.4c0,0.6,0.1,1.1,0.4,1.4c0.3,0.3,0.6,0.4,1.1,0.4c0.1,0,0.3,0,0.5-0.1
		c0.2,0,0.3-0.1,0.4-0.1l0.3,1.7c-0.2,0.2-0.5,0.3-0.8,0.4c-0.4,0.1-0.7,0.1-1.1,0.1c-1,0-1.8-0.3-2.4-0.9c-0.6-0.6-0.9-1.6-0.9-2.9
		v-8.4h-2.2v-1.9h2.2v-3.3H367.4z"/>
	<path class="st2" d="M375.5,245.2h-2.5v-2.6h2.5V245.2z M375.5,262.5h-2.5v-13.8h2.5V262.5z"/>
	<path class="st2" d="M385,262.8c-2,0-3.5-0.6-4.6-1.9c-1.1-1.3-1.7-2.9-1.7-5v-0.6c0-2,0.6-3.6,1.7-4.9c1.1-1.3,2.5-1.9,4.2-1.9
		c1.8,0,3.2,0.6,4.2,1.7c0.9,1.1,1.4,2.7,1.4,4.6v1.3h-8.8l0,0.1c0,1.4,0.3,2.5,0.9,3.4s1.5,1.3,2.8,1.3c0.9,0,1.6-0.1,2.2-0.4
		c0.6-0.2,1.2-0.6,1.7-1l1,1.6c-0.5,0.5-1.1,0.9-2,1.2C387.2,262.6,386.2,262.8,385,262.8z M384.6,250.4c-0.9,0-1.6,0.3-2.2,1
		c-0.6,0.7-0.9,1.5-1.1,2.6l0,0.1h6.2v-0.2c0-1-0.2-1.8-0.7-2.5C386.4,250.8,385.7,250.4,384.6,250.4z"/>
	<path class="st2" d="M401,258.8c0-0.6-0.2-1-0.6-1.4s-1.2-0.7-2.4-0.9c-1.6-0.3-2.9-0.8-3.7-1.5c-0.9-0.6-1.3-1.5-1.3-2.5
		c0-1.1,0.5-2.1,1.4-2.9c1-0.8,2.2-1.2,3.7-1.2c1.6,0,2.8,0.4,3.8,1.3c1,0.8,1.4,1.8,1.4,3l0,0.1h-2.4c0-0.6-0.3-1.1-0.8-1.6
		c-0.5-0.5-1.2-0.7-2-0.7c-0.9,0-1.5,0.2-2,0.6c-0.4,0.4-0.7,0.9-0.7,1.4c0,0.5,0.2,1,0.6,1.3c0.4,0.3,1.2,0.6,2.3,0.8
		c1.7,0.4,3,0.9,3.9,1.5c0.9,0.7,1.3,1.5,1.3,2.6c0,1.2-0.5,2.2-1.5,3c-1,0.8-2.3,1.2-3.9,1.2c-1.8,0-3.1-0.4-4.2-1.3
		c-1-0.9-1.5-1.9-1.4-3.1l0-0.1h2.4c0,0.9,0.4,1.5,1,2c0.6,0.4,1.3,0.6,2.2,0.6c0.9,0,1.6-0.2,2.1-0.6
		C400.8,259.9,401,259.4,401,258.8z"/>
	<path class="st2" d="M94.1,285.5c0-2,0.6-3.7,1.7-5c1.1-1.3,2.6-2,4.5-2c1.9,0,3.4,0.7,4.5,2c1.1,1.3,1.7,3,1.7,5.1v0.3
		c0,2.1-0.6,3.7-1.7,5.1s-2.6,2-4.5,2s-3.4-0.7-4.5-2c-1.1-1.3-1.7-3-1.7-5V285.5z M96.6,285.8c0,1.5,0.3,2.7,0.9,3.6
		c0.6,1,1.5,1.4,2.7,1.4c1.2,0,2.1-0.5,2.7-1.4c0.6-1,0.9-2.2,0.9-3.6v-0.3c0-1.4-0.3-2.6-0.9-3.6s-1.5-1.4-2.7-1.4
		c-1.2,0-2.1,0.5-2.7,1.4c-0.6,1-0.9,2.2-0.9,3.6V285.8z"/>
	<path class="st2" d="M116,281l-1.3-0.1c-0.7,0-1.2,0.2-1.7,0.5c-0.5,0.3-0.8,0.8-1.1,1.3v9.9h-2.5v-13.8h2.2l0.2,2
		c0.4-0.7,0.9-1.3,1.4-1.7c0.6-0.4,1.2-0.6,2-0.6c0.2,0,0.4,0,0.5,0c0.2,0,0.3,0.1,0.4,0.1L116,281z"/>
	<path class="st2" d="M130.9,292.8c-2,0-3.5-0.6-4.6-1.9c-1.1-1.3-1.7-2.9-1.7-5v-0.6c0-2,0.6-3.6,1.7-4.9s2.5-1.9,4.2-1.9
		c1.8,0,3.2,0.6,4.2,1.7c0.9,1.1,1.4,2.7,1.4,4.6v1.3h-8.8l0,0.1c0,1.4,0.3,2.5,0.9,3.4c0.6,0.9,1.5,1.3,2.8,1.3
		c0.9,0,1.6-0.1,2.2-0.4c0.6-0.2,1.2-0.6,1.7-1l1,1.6c-0.5,0.5-1.1,0.9-2,1.2C133,292.7,132,292.8,130.9,292.8z M130.5,280.5
		c-0.9,0-1.6,0.3-2.2,1c-0.6,0.7-0.9,1.5-1.1,2.6l0,0.1h6.2v-0.2c0-1-0.2-1.8-0.7-2.5C132.2,280.8,131.5,280.5,130.5,280.5z"/>
	<path class="st2" d="M141.1,278.7l0.2,2.1c0.5-0.7,1-1.3,1.7-1.7c0.7-0.4,1.5-0.6,2.4-0.6c1.5,0,2.6,0.4,3.5,1.3
		c0.8,0.9,1.2,2.2,1.2,4v8.7h-2.5v-8.7c0-1.2-0.2-2.1-0.7-2.6c-0.5-0.5-1.2-0.8-2.2-0.8c-0.8,0-1.4,0.2-2,0.5s-1,0.7-1.3,1.3v10.2
		h-2.5v-13.8H141.1z"/>
	<path class="st2" d="M153.2,285.9c0-2.2,0.5-4,1.4-5.4s2.3-2,4-2c0.9,0,1.6,0.2,2.3,0.5c0.7,0.4,1.2,0.9,1.7,1.5l0.3-1.8h2v13.9
		c0,1.8-0.5,3.1-1.5,4.1c-1,0.9-2.5,1.4-4.5,1.4c-0.7,0-1.4-0.1-2.1-0.3s-1.4-0.4-2-0.7l0.4-2c0.5,0.3,1.1,0.5,1.8,0.6
		s1.4,0.2,2,0.2c1.2,0,2.1-0.3,2.7-0.8c0.6-0.6,0.8-1.4,0.8-2.5v-1.6c-0.5,0.6-1,1-1.6,1.3c-0.6,0.3-1.4,0.4-2.2,0.4
		c-1.7,0-3-0.6-3.9-1.8c-0.9-1.2-1.4-2.8-1.4-4.8V285.9z M155.7,286.2c0,1.4,0.3,2.5,0.9,3.3c0.6,0.8,1.4,1.3,2.6,1.3
		c0.8,0,1.4-0.2,1.9-0.5c0.5-0.3,0.9-0.8,1.3-1.5v-6.4c-0.3-0.6-0.7-1.1-1.3-1.4c-0.5-0.3-1.1-0.5-1.9-0.5c-1.2,0-2.1,0.5-2.7,1.5
		c-0.6,1-0.9,2.3-0.9,3.9V286.2z"/>
	<path class="st2" d="M177,292.5c-0.1-0.4-0.2-0.8-0.2-1.1c0-0.3-0.1-0.6-0.1-1c-0.5,0.7-1.1,1.2-1.8,1.7c-0.8,0.4-1.6,0.7-2.4,0.7
		c-1.4,0-2.5-0.4-3.3-1.1c-0.8-0.7-1.1-1.7-1.1-3c0-1.3,0.5-2.3,1.6-3.1c1.1-0.7,2.5-1.1,4.3-1.1h2.7v-1.4c0-0.8-0.2-1.4-0.7-1.9
		s-1.2-0.7-2.1-0.7c-0.8,0-1.5,0.2-2,0.6s-0.8,0.9-0.8,1.5l-2.4,0l0-0.1c-0.1-1,0.4-1.9,1.4-2.8c1-0.8,2.3-1.2,3.9-1.2
		c1.6,0,2.8,0.4,3.8,1.2c1,0.8,1.4,1.9,1.4,3.4v6.6c0,0.5,0,1,0.1,1.4c0.1,0.5,0.1,0.9,0.3,1.4H177z M172.8,290.7
		c0.9,0,1.7-0.2,2.5-0.7c0.7-0.5,1.2-1,1.4-1.6v-2.2h-2.8c-1,0-1.8,0.3-2.4,0.8c-0.6,0.5-0.9,1.1-0.9,1.8c0,0.6,0.2,1.1,0.6,1.5
		C171.5,290.5,172.1,290.7,172.8,290.7z"/>
	<path class="st2" d="M182.4,285.9c0-2.2,0.5-4,1.4-5.4s2.3-2,4-2c0.9,0,1.6,0.2,2.3,0.5c0.7,0.4,1.2,0.9,1.7,1.5l0.3-1.8h2v13.9
		c0,1.8-0.5,3.1-1.5,4.1c-1,0.9-2.5,1.4-4.5,1.4c-0.7,0-1.4-0.1-2.1-0.3s-1.4-0.4-2-0.7l0.4-2c0.5,0.3,1.1,0.5,1.8,0.6
		s1.4,0.2,2,0.2c1.2,0,2.1-0.3,2.7-0.8c0.6-0.6,0.8-1.4,0.8-2.5v-1.6c-0.5,0.6-1,1-1.6,1.3c-0.6,0.3-1.4,0.4-2.2,0.4
		c-1.7,0-3-0.6-3.9-1.8c-0.9-1.2-1.4-2.8-1.4-4.8V285.9z M184.9,286.2c0,1.4,0.3,2.5,0.9,3.3c0.6,0.8,1.4,1.3,2.6,1.3
		c0.8,0,1.4-0.2,1.9-0.5c0.5-0.3,0.9-0.8,1.3-1.5v-6.4c-0.3-0.6-0.7-1.1-1.3-1.4c-0.5-0.3-1.1-0.5-1.9-0.5c-1.2,0-2.1,0.5-2.7,1.5
		c-0.6,1-0.9,2.3-0.9,3.9V286.2z"/>
	<path class="st2" d="M203.4,292.8c-2,0-3.5-0.6-4.6-1.9c-1.1-1.3-1.7-2.9-1.7-5v-0.6c0-2,0.6-3.6,1.7-4.9s2.5-1.9,4.2-1.9
		c1.8,0,3.2,0.6,4.2,1.7c0.9,1.1,1.4,2.7,1.4,4.6v1.3h-8.8l0,0.1c0,1.4,0.3,2.5,0.9,3.4c0.6,0.9,1.5,1.3,2.8,1.3
		c0.9,0,1.6-0.1,2.2-0.4c0.6-0.2,1.2-0.6,1.7-1l1,1.6c-0.5,0.5-1.1,0.9-2,1.2C205.5,292.7,204.6,292.8,203.4,292.8z M203,280.5
		c-0.9,0-1.6,0.3-2.2,1c-0.6,0.7-0.9,1.5-1.1,2.6l0,0.1h6.2v-0.2c0-1-0.2-1.8-0.7-2.5C204.8,280.8,204.1,280.5,203,280.5z"/>
	<path class="st2" d="M220.6,275.2h-2.5v-2.6h2.5V275.2z M220.6,292.5h-2.5v-13.8h2.5V292.5z"/>
	<path class="st2" d="M226.7,278.7l0.2,2.1c0.5-0.7,1-1.3,1.7-1.7c0.7-0.4,1.5-0.6,2.4-0.6c1.5,0,2.6,0.4,3.5,1.3
		c0.8,0.9,1.2,2.2,1.2,4v8.7h-2.5v-8.7c0-1.2-0.2-2.1-0.7-2.6c-0.5-0.5-1.2-0.8-2.2-0.8c-0.8,0-1.4,0.2-2,0.5s-1,0.7-1.3,1.3v10.2
		h-2.5v-13.8H226.7z"/>
	<path class="st2" d="M251.3,290.8c0.8,0,1.5-0.3,2-0.8s0.9-1.1,0.9-1.9h2.3l0,0.1c0,1.2-0.5,2.2-1.5,3.2c-1.1,0.9-2.3,1.4-3.7,1.4
		c-1.9,0-3.4-0.7-4.5-2s-1.6-3-1.6-4.9v-0.5c0-1.9,0.5-3.6,1.6-4.9c1.1-1.3,2.6-2,4.5-2c1.5,0,2.8,0.5,3.8,1.4c1,1,1.5,2.1,1.4,3.5
		l0,0.1h-2.3c0-0.8-0.3-1.6-0.8-2.1c-0.5-0.6-1.2-0.9-2.1-0.9c-1.2,0-2.1,0.5-2.7,1.4c-0.6,1-0.8,2.1-0.8,3.5v0.5
		c0,1.4,0.3,2.6,0.8,3.5S250,290.8,251.3,290.8z"/>
	<path class="st2" d="M258.9,285.5c0-2,0.6-3.7,1.7-5c1.1-1.3,2.6-2,4.5-2c1.9,0,3.4,0.7,4.5,2s1.7,3,1.7,5.1v0.3
		c0,2.1-0.6,3.7-1.7,5.1s-2.6,2-4.5,2c-1.9,0-3.4-0.7-4.5-2c-1.1-1.3-1.7-3-1.7-5V285.5z M261.4,285.8c0,1.5,0.3,2.7,0.9,3.6
		s1.5,1.4,2.7,1.4c1.2,0,2.1-0.5,2.7-1.4c0.6-1,0.9-2.2,0.9-3.6v-0.3c0-1.4-0.3-2.6-0.9-3.6s-1.5-1.4-2.7-1.4
		c-1.2,0-2.1,0.5-2.7,1.4s-0.9,2.2-0.9,3.6V285.8z"/>
	<path class="st2" d="M276.6,278.7l0.2,2.1c0.5-0.7,1-1.3,1.7-1.7c0.7-0.4,1.5-0.6,2.4-0.6c1.5,0,2.6,0.4,3.5,1.3
		c0.8,0.9,1.2,2.2,1.2,4v8.7H283v-8.7c0-1.2-0.2-2.1-0.7-2.6c-0.5-0.5-1.2-0.8-2.2-0.8c-0.8,0-1.4,0.2-2,0.5c-0.5,0.3-1,0.7-1.3,1.3
		v10.2h-2.5v-13.8H276.6z"/>
	<path class="st2" d="M292.7,275.4v3.3h2.6v1.9h-2.6v8.4c0,0.6,0.1,1.1,0.4,1.4c0.3,0.3,0.6,0.4,1.1,0.4c0.1,0,0.3,0,0.5-0.1
		c0.2,0,0.3-0.1,0.4-0.1l0.3,1.7c-0.2,0.2-0.5,0.3-0.8,0.4c-0.4,0.1-0.7,0.1-1.1,0.1c-1,0-1.8-0.3-2.4-0.9c-0.6-0.6-0.9-1.6-0.9-2.9
		v-8.4H288v-1.9h2.2v-3.3H292.7z"/>
	<path class="st2" d="M304.5,281l-1.3-0.1c-0.7,0-1.2,0.2-1.7,0.5c-0.5,0.3-0.8,0.8-1.1,1.3v9.9H298v-13.8h2.2l0.2,2
		c0.4-0.7,0.9-1.3,1.4-1.7c0.6-0.4,1.2-0.6,2-0.6c0.2,0,0.4,0,0.5,0c0.2,0,0.3,0.1,0.4,0.1L304.5,281z"/>
	<path class="st2" d="M306.5,285.5c0-2,0.6-3.7,1.7-5c1.1-1.3,2.6-2,4.5-2c1.9,0,3.4,0.7,4.5,2s1.7,3,1.7,5.1v0.3
		c0,2.1-0.6,3.7-1.7,5.1s-2.6,2-4.5,2c-1.9,0-3.4-0.7-4.5-2c-1.1-1.3-1.7-3-1.7-5V285.5z M309,285.8c0,1.5,0.3,2.7,0.9,3.6
		s1.5,1.4,2.7,1.4c1.2,0,2.1-0.5,2.7-1.4c0.6-1,0.9-2.2,0.9-3.6v-0.3c0-1.4-0.3-2.6-0.9-3.6s-1.5-1.4-2.7-1.4
		c-1.2,0-2.1,0.5-2.7,1.4s-0.9,2.2-0.9,3.6V285.8z"/>
	<path class="st2" d="M326.6,288.5l0.2,1h0.1l0.2-1l3.2-9.7h2.6l-5.1,13.8h-1.9l-5.1-13.8h2.6L326.6,288.5z"/>
	<path class="st2" d="M340.8,292.8c-2,0-3.5-0.6-4.6-1.9c-1.1-1.3-1.7-2.9-1.7-5v-0.6c0-2,0.6-3.6,1.7-4.9c1.1-1.3,2.5-1.9,4.2-1.9
		c1.8,0,3.2,0.6,4.2,1.7c0.9,1.1,1.4,2.7,1.4,4.6v1.3h-8.8l0,0.1c0,1.4,0.3,2.5,0.9,3.4s1.5,1.3,2.8,1.3c0.9,0,1.6-0.1,2.2-0.4
		c0.6-0.2,1.2-0.6,1.7-1l1,1.6c-0.5,0.5-1.1,0.9-2,1.2C342.9,292.7,342,292.8,340.8,292.8z M340.4,280.5c-0.9,0-1.6,0.3-2.2,1
		c-0.6,0.7-0.9,1.5-1.1,2.6l0,0.1h6.2v-0.2c0-1-0.2-1.8-0.7-2.5C342.2,280.8,341.4,280.5,340.4,280.5z"/>
	<path class="st2" d="M355.3,281l-1.3-0.1c-0.7,0-1.2,0.2-1.7,0.5c-0.5,0.3-0.8,0.8-1.1,1.3v9.9h-2.5v-13.8h2.2l0.2,2
		c0.4-0.7,0.9-1.3,1.4-1.7c0.6-0.4,1.2-0.6,2-0.6c0.2,0,0.4,0,0.5,0c0.2,0,0.3,0.1,0.4,0.1L355.3,281z"/>
	<path class="st2" d="M365.9,288.8c0-0.6-0.2-1-0.6-1.4s-1.2-0.7-2.4-0.9c-1.6-0.3-2.9-0.8-3.7-1.5c-0.9-0.6-1.3-1.5-1.3-2.5
		c0-1.1,0.5-2.1,1.4-2.9c1-0.8,2.2-1.2,3.7-1.2c1.6,0,2.8,0.4,3.8,1.3c1,0.8,1.4,1.8,1.4,3l0,0.1h-2.4c0-0.6-0.3-1.1-0.8-1.6
		c-0.5-0.5-1.2-0.7-2-0.7c-0.9,0-1.5,0.2-2,0.6c-0.4,0.4-0.7,0.9-0.7,1.4c0,0.5,0.2,1,0.6,1.3c0.4,0.3,1.2,0.6,2.3,0.8
		c1.7,0.4,3,0.9,3.9,1.5c0.9,0.7,1.3,1.5,1.3,2.6c0,1.2-0.5,2.2-1.5,3c-1,0.8-2.3,1.2-3.9,1.2c-1.8,0-3.1-0.4-4.2-1.3
		c-1-0.9-1.5-1.9-1.4-3.1l0-0.1h2.4c0,0.9,0.4,1.5,1,2c0.6,0.4,1.3,0.6,2.2,0.6c0.9,0,1.6-0.2,2.1-0.6
		C365.7,289.9,365.9,289.4,365.9,288.8z"/>
	<path class="st2" d="M374.3,275.2h-2.5v-2.6h2.5V275.2z M374.3,292.5h-2.5v-13.8h2.5V292.5z"/>
	<path class="st2" d="M383.9,292.8c-2,0-3.5-0.6-4.6-1.9c-1.1-1.3-1.7-2.9-1.7-5v-0.6c0-2,0.6-3.6,1.7-4.9c1.1-1.3,2.5-1.9,4.2-1.9
		c1.8,0,3.2,0.6,4.2,1.7c0.9,1.1,1.4,2.7,1.4,4.6v1.3h-8.8l0,0.1c0,1.4,0.3,2.5,0.9,3.4s1.5,1.3,2.8,1.3c0.9,0,1.6-0.1,2.2-0.4
		c0.6-0.2,1.2-0.6,1.7-1l1,1.6c-0.5,0.5-1.1,0.9-2,1.2C386,292.7,385,292.8,383.9,292.8z M383.5,280.5c-0.9,0-1.6,0.3-2.2,1
		c-0.6,0.7-0.9,1.5-1.1,2.6l0,0.1h6.2v-0.2c0-1-0.2-1.8-0.7-2.5C385.3,280.8,384.5,280.5,383.5,280.5z"/>
	<path class="st2" d="M399.9,288.8c0-0.6-0.2-1-0.6-1.4s-1.2-0.7-2.4-0.9c-1.6-0.3-2.9-0.8-3.7-1.5c-0.9-0.6-1.3-1.5-1.3-2.5
		c0-1.1,0.5-2.1,1.4-2.9c1-0.8,2.2-1.2,3.7-1.2c1.6,0,2.8,0.4,3.8,1.3c1,0.8,1.4,1.8,1.4,3l0,0.1h-2.4c0-0.6-0.3-1.1-0.8-1.6
		c-0.5-0.5-1.2-0.7-2-0.7c-0.9,0-1.5,0.2-2,0.6c-0.4,0.4-0.7,0.9-0.7,1.4c0,0.5,0.2,1,0.6,1.3c0.4,0.3,1.2,0.6,2.3,0.8
		c1.7,0.4,3,0.9,3.9,1.5c0.9,0.7,1.3,1.5,1.3,2.6c0,1.2-0.5,2.2-1.5,3c-1,0.8-2.3,1.2-3.9,1.2c-1.8,0-3.1-0.4-4.2-1.3
		c-1-0.9-1.5-1.9-1.4-3.1l0-0.1h2.4c0,0.9,0.4,1.5,1,2c0.6,0.4,1.3,0.6,2.2,0.6c0.9,0,1.6-0.2,2.1-0.6
		C399.6,289.9,399.9,289.4,399.9,288.8z"/>
	<path class="st2" d="M83.3,315.6c0-2,0.6-3.7,1.7-5c1.1-1.3,2.6-2,4.5-2c1.9,0,3.4,0.7,4.5,2c1.1,1.3,1.7,3,1.7,5.1v0.3
		c0,2.1-0.6,3.7-1.7,5.1s-2.6,2-4.5,2s-3.4-0.7-4.5-2c-1.1-1.3-1.7-3-1.7-5V315.6z M85.8,315.8c0,1.5,0.3,2.7,0.9,3.6
		c0.6,1,1.5,1.4,2.7,1.4c1.2,0,2.1-0.5,2.7-1.4c0.6-1,0.9-2.2,0.9-3.6v-0.3c0-1.4-0.3-2.6-0.9-3.6s-1.5-1.4-2.7-1.4
		c-1.2,0-2.1,0.5-2.7,1.4c-0.6,1-0.9,2.2-0.9,3.6V315.8z"/>
	<path class="st2" d="M99.8,322.6v-11.9h-2.2v-1.9h2.2V307c0-1.5,0.4-2.6,1.2-3.4c0.8-0.8,1.8-1.2,3.2-1.2c0.3,0,0.6,0,0.9,0.1
		s0.6,0.1,1,0.2l-0.3,1.9c-0.2,0-0.3-0.1-0.6-0.1s-0.4,0-0.7,0c-0.7,0-1.3,0.2-1.6,0.7c-0.4,0.4-0.5,1.1-0.5,1.9v1.7h2.5v1.9h-2.5
		v11.9H99.8z"/>
	<path class="st2" d="M122.3,322.6c-0.1-0.4-0.2-0.8-0.2-1.1c0-0.3-0.1-0.6-0.1-1c-0.5,0.7-1.1,1.2-1.8,1.7
		c-0.8,0.4-1.6,0.7-2.4,0.7c-1.4,0-2.5-0.4-3.3-1.1c-0.8-0.7-1.1-1.7-1.1-3c0-1.3,0.5-2.3,1.6-3.1c1.1-0.7,2.5-1.1,4.3-1.1h2.7v-1.4
		c0-0.8-0.2-1.4-0.7-1.9s-1.2-0.7-2.1-0.7c-0.8,0-1.5,0.2-2,0.6s-0.8,0.9-0.8,1.5l-2.4,0l0-0.1c-0.1-1,0.4-1.9,1.4-2.8
		c1-0.8,2.3-1.2,3.9-1.2c1.6,0,2.8,0.4,3.8,1.2c1,0.8,1.4,1.9,1.4,3.4v6.6c0,0.5,0,1,0.1,1.4c0.1,0.5,0.1,0.9,0.3,1.4H122.3z
		 M118.1,320.8c0.9,0,1.7-0.2,2.5-0.7c0.7-0.5,1.2-1,1.4-1.6v-2.2h-2.8c-1,0-1.8,0.3-2.4,0.8c-0.6,0.5-0.9,1.1-0.9,1.8
		c0,0.6,0.2,1.1,0.6,1.5C116.8,320.6,117.4,320.8,118.1,320.8z"/>
	<path class="st2" d="M146.4,316.2c0,2-0.5,3.6-1.4,4.8c-1,1.2-2.3,1.8-3.9,1.8c-0.9,0-1.6-0.1-2.2-0.4c-0.6-0.3-1.2-0.7-1.6-1.3
		v6.7h-2.5v-19.1h1.9l0.4,1.8c0.5-0.7,1-1.2,1.7-1.5s1.5-0.5,2.3-0.5c1.7,0,3,0.7,4,2s1.4,3.1,1.4,5.4V316.2z M143.9,315.9
		c0-1.6-0.3-2.9-0.9-3.9c-0.6-1-1.5-1.5-2.7-1.5c-0.7,0-1.3,0.2-1.8,0.5s-0.9,0.8-1.2,1.3v6.7c0.3,0.6,0.7,1,1.2,1.3
		c0.5,0.3,1.1,0.5,1.9,0.5c1.2,0,2.1-0.4,2.7-1.3c0.6-0.9,0.9-2,0.9-3.4V315.9z"/>
	<path class="st2" d="M148.9,315.6c0-2,0.6-3.7,1.7-5c1.1-1.3,2.6-2,4.5-2c1.9,0,3.4,0.7,4.5,2c1.1,1.3,1.7,3,1.7,5.1v0.3
		c0,2.1-0.6,3.7-1.7,5.1s-2.6,2-4.5,2s-3.4-0.7-4.5-2c-1.1-1.3-1.7-3-1.7-5V315.6z M151.4,315.8c0,1.5,0.3,2.7,0.9,3.6
		c0.6,1,1.5,1.4,2.7,1.4c1.2,0,2.1-0.5,2.7-1.4c0.6-1,0.9-2.2,0.9-3.6v-0.3c0-1.4-0.3-2.6-0.9-3.6s-1.5-1.4-2.7-1.4
		c-1.2,0-2.1,0.5-2.7,1.4c-0.6,1-0.9,2.2-0.9,3.6V315.8z"/>
	<path class="st2" d="M167.1,322.6h-2.5v-19.9h2.5V322.6z"/>
	<path class="st2" d="M173.7,305.3h-2.5v-2.6h2.5V305.3z M173.7,322.6h-2.5v-13.8h2.5V322.6z"/>
	<path class="st2" d="M181,305.5v3.3h2.6v1.9H181v8.4c0,0.6,0.1,1.1,0.4,1.4c0.3,0.3,0.6,0.4,1.1,0.4c0.1,0,0.3,0,0.5-0.1
		c0.2,0,0.3-0.1,0.4-0.1l0.3,1.7c-0.2,0.2-0.5,0.3-0.8,0.4c-0.4,0.1-0.7,0.1-1.1,0.1c-1,0-1.8-0.3-2.4-0.9c-0.6-0.6-0.9-1.6-0.9-2.9
		v-8.4h-2.2v-1.9h2.2v-3.3H181z"/>
	<path class="st2" d="M189,305.3h-2.5v-2.6h2.5V305.3z M189,322.6h-2.5v-13.8h2.5V322.6z"/>
	<path class="st2" d="M198.4,320.9c0.8,0,1.4-0.3,2-0.8c0.6-0.5,0.9-1.1,0.9-1.9h2.3l0,0.1c0,1.2-0.5,2.2-1.5,3.2
		c-1.1,0.9-2.3,1.4-3.7,1.4c-1.9,0-3.4-0.7-4.5-2s-1.6-3-1.6-4.9v-0.5c0-1.9,0.5-3.6,1.6-4.9c1.1-1.3,2.6-2,4.5-2
		c1.5,0,2.8,0.5,3.8,1.4c1,1,1.5,2.1,1.4,3.5l0,0.1h-2.3c0-0.8-0.3-1.6-0.8-2.1c-0.5-0.6-1.2-0.9-2.1-0.9c-1.2,0-2.1,0.5-2.7,1.4
		c-0.6,1-0.8,2.1-0.8,3.5v0.5c0,1.4,0.3,2.6,0.8,3.5S197.1,320.9,198.4,320.9z"/>
	<path class="st2" d="M215.1,322.6c-0.1-0.4-0.2-0.8-0.2-1.1c0-0.3-0.1-0.6-0.1-1c-0.5,0.7-1.1,1.2-1.8,1.7
		c-0.8,0.4-1.6,0.7-2.4,0.7c-1.4,0-2.5-0.4-3.3-1.1c-0.8-0.7-1.1-1.7-1.1-3c0-1.3,0.5-2.3,1.6-3.1c1.1-0.7,2.5-1.1,4.3-1.1h2.7v-1.4
		c0-0.8-0.2-1.4-0.7-1.9s-1.2-0.7-2.1-0.7c-0.8,0-1.5,0.2-2,0.6s-0.8,0.9-0.8,1.5l-2.4,0l0-0.1c-0.1-1,0.4-1.9,1.4-2.8
		c1-0.8,2.3-1.2,3.9-1.2c1.6,0,2.8,0.4,3.8,1.2c1,0.8,1.4,1.9,1.4,3.4v6.6c0,0.5,0,1,0.1,1.4c0.1,0.5,0.1,0.9,0.3,1.4H215.1z
		 M210.9,320.8c0.9,0,1.7-0.2,2.5-0.7c0.7-0.5,1.2-1,1.4-1.6v-2.2H212c-1,0-1.8,0.3-2.4,0.8c-0.6,0.5-0.9,1.1-0.9,1.8
		c0,0.6,0.2,1.1,0.6,1.5C209.6,320.6,210.1,320.8,210.9,320.8z"/>
	<path class="st2" d="M223.7,322.6h-2.5v-19.9h2.5V322.6z"/>
	<path class="st2" d="M229.7,322l-1.9,3.9h-1.5l0.9-4v-2.1h2.5V322z"/>
	<path class="st2" d="M245.7,311l-1.3-0.1c-0.7,0-1.2,0.2-1.7,0.5c-0.5,0.3-0.8,0.8-1.1,1.3v9.9h-2.5v-13.8h2.2l0.2,2
		c0.4-0.7,0.9-1.3,1.4-1.7c0.6-0.4,1.2-0.6,2-0.6c0.2,0,0.4,0,0.5,0c0.2,0,0.3,0.1,0.4,0.1L245.7,311z"/>
	<path class="st2" d="M256.8,322.6c-0.1-0.4-0.2-0.8-0.2-1.1c0-0.3-0.1-0.6-0.1-1c-0.5,0.7-1.1,1.2-1.8,1.7
		c-0.8,0.4-1.6,0.7-2.4,0.7c-1.4,0-2.5-0.4-3.3-1.1c-0.8-0.7-1.1-1.7-1.1-3c0-1.3,0.5-2.3,1.6-3.1c1.1-0.7,2.5-1.1,4.3-1.1h2.7v-1.4
		c0-0.8-0.2-1.4-0.7-1.9s-1.2-0.7-2.1-0.7c-0.8,0-1.5,0.2-2,0.6s-0.8,0.9-0.8,1.5l-2.4,0l0-0.1c-0.1-1,0.4-1.9,1.4-2.8
		c1-0.8,2.3-1.2,3.9-1.2c1.6,0,2.8,0.4,3.8,1.2c1,0.8,1.4,1.9,1.4,3.4v6.6c0,0.5,0,1,0.1,1.4c0.1,0.5,0.1,0.9,0.3,1.4H256.8z
		 M252.6,320.8c0.9,0,1.7-0.2,2.5-0.7s1.2-1,1.4-1.6v-2.2h-2.8c-1,0-1.8,0.3-2.4,0.8c-0.6,0.5-0.9,1.1-0.9,1.8
		c0,0.6,0.2,1.1,0.6,1.5C251.3,320.6,251.9,320.8,252.6,320.8z"/>
	<path class="st2" d="M268.2,320.9c0.8,0,1.5-0.3,2-0.8s0.9-1.1,0.9-1.9h2.3l0,0.1c0,1.2-0.5,2.2-1.5,3.2c-1.1,0.9-2.3,1.4-3.7,1.4
		c-1.9,0-3.4-0.7-4.5-2c-1.1-1.3-1.6-3-1.6-4.9v-0.5c0-1.9,0.5-3.6,1.6-4.9c1.1-1.3,2.6-2,4.5-2c1.5,0,2.8,0.5,3.8,1.4
		c1,1,1.5,2.1,1.4,3.5l0,0.1h-2.3c0-0.8-0.3-1.6-0.8-2.1c-0.5-0.6-1.2-0.9-2.1-0.9c-1.2,0-2.1,0.5-2.7,1.4c-0.6,1-0.8,2.1-0.8,3.5
		v0.5c0,1.4,0.3,2.6,0.8,3.5C266,320.4,266.9,320.9,268.2,320.9z"/>
	<path class="st2" d="M279.1,305.3h-2.5v-2.6h2.5V305.3z M279.1,322.6h-2.5v-13.8h2.5V322.6z"/>
	<path class="st2" d="M291.4,322.6c-0.1-0.4-0.2-0.8-0.2-1.1c0-0.3-0.1-0.6-0.1-1c-0.5,0.7-1.1,1.2-1.8,1.7
		c-0.8,0.4-1.6,0.7-2.4,0.7c-1.4,0-2.5-0.4-3.3-1.1c-0.8-0.7-1.1-1.7-1.1-3c0-1.3,0.5-2.3,1.6-3.1c1.1-0.7,2.5-1.1,4.3-1.1h2.7v-1.4
		c0-0.8-0.2-1.4-0.7-1.9s-1.2-0.7-2.1-0.7c-0.8,0-1.5,0.2-2,0.6s-0.8,0.9-0.8,1.5l-2.4,0l0-0.1c-0.1-1,0.4-1.9,1.4-2.8
		c1-0.8,2.3-1.2,3.9-1.2c1.6,0,2.8,0.4,3.8,1.2c1,0.8,1.4,1.9,1.4,3.4v6.6c0,0.5,0,1,0.1,1.4c0.1,0.5,0.1,0.9,0.3,1.4H291.4z
		 M287.2,320.8c0.9,0,1.7-0.2,2.5-0.7s1.2-1,1.4-1.6v-2.2h-2.8c-1,0-1.8,0.3-2.4,0.8c-0.6,0.5-0.9,1.1-0.9,1.8
		c0,0.6,0.2,1.1,0.6,1.5C285.9,320.6,286.5,320.8,287.2,320.8z"/>
	<path class="st2" d="M300,322.6h-2.5v-19.9h2.5V322.6z"/>
	<path class="st2" d="M306.1,322l-1.9,3.9h-1.5l0.9-4v-2.1h2.5V322z"/>
	<path class="st2" d="M322,311l-1.3-0.1c-0.7,0-1.2,0.2-1.7,0.5c-0.5,0.3-0.8,0.8-1.1,1.3v9.9h-2.5v-13.8h2.2l0.2,2
		c0.4-0.7,0.9-1.3,1.4-1.7c0.6-0.4,1.2-0.6,2-0.6c0.2,0,0.4,0,0.5,0c0.2,0,0.3,0.1,0.4,0.1L322,311z"/>
	<path class="st2" d="M330.4,322.9c-2,0-3.5-0.6-4.6-1.9c-1.1-1.3-1.7-2.9-1.7-5v-0.6c0-2,0.6-3.6,1.7-4.9c1.1-1.3,2.5-1.9,4.2-1.9
		c1.8,0,3.2,0.6,4.2,1.7c0.9,1.1,1.4,2.7,1.4,4.6v1.3h-8.8l0,0.1c0,1.4,0.3,2.5,0.9,3.4s1.5,1.3,2.8,1.3c0.9,0,1.6-0.1,2.2-0.4
		c0.6-0.2,1.2-0.6,1.7-1l1,1.6c-0.5,0.5-1.1,0.9-2,1.2C332.5,322.7,331.5,322.9,330.4,322.9z M330,310.5c-0.9,0-1.6,0.3-2.2,1
		c-0.6,0.7-0.9,1.5-1.1,2.6l0,0.1h6.2V314c0-1-0.2-1.8-0.7-2.5C331.8,310.8,331,310.5,330,310.5z"/>
	<path class="st2" d="M341.1,322.6h-2.5v-19.9h2.5V322.6z"/>
	<path class="st2" d="M347.6,305.3h-2.5v-2.6h2.5V305.3z M347.6,322.6h-2.5v-13.8h2.5V322.6z"/>
	<path class="st2" d="M351.1,315.9c0-2.2,0.5-4,1.4-5.4s2.3-2,4-2c0.9,0,1.6,0.2,2.3,0.5c0.7,0.4,1.2,0.9,1.7,1.5l0.3-1.8h2v13.9
		c0,1.8-0.5,3.1-1.5,4.1c-1,0.9-2.5,1.4-4.5,1.4c-0.7,0-1.4-0.1-2.1-0.3s-1.4-0.4-2-0.7l0.4-2c0.5,0.3,1.1,0.5,1.8,0.6
		c0.7,0.2,1.4,0.2,2,0.2c1.2,0,2.1-0.3,2.7-0.8s0.8-1.4,0.8-2.5v-1.6c-0.5,0.6-1,1-1.6,1.3c-0.6,0.3-1.4,0.4-2.2,0.4
		c-1.7,0-3-0.6-3.9-1.8c-0.9-1.2-1.4-2.8-1.4-4.8V315.9z M353.6,316.2c0,1.4,0.3,2.5,0.9,3.3c0.6,0.8,1.4,1.3,2.6,1.3
		c0.8,0,1.4-0.2,1.9-0.5c0.5-0.3,0.9-0.8,1.3-1.5v-6.4c-0.3-0.6-0.7-1.1-1.3-1.4c-0.5-0.3-1.1-0.5-1.9-0.5c-1.2,0-2.1,0.5-2.7,1.5
		c-0.6,1-0.9,2.3-0.9,3.9V316.2z"/>
	<path class="st2" d="M369.1,305.3h-2.5v-2.6h2.5V305.3z M369.1,322.6h-2.5v-13.8h2.5V322.6z"/>
	<path class="st2" d="M372.3,315.6c0-2,0.6-3.7,1.7-5c1.1-1.3,2.6-2,4.5-2c1.9,0,3.4,0.7,4.5,2s1.7,3,1.7,5.1v0.3
		c0,2.1-0.6,3.7-1.7,5.1s-2.6,2-4.5,2c-1.9,0-3.4-0.7-4.5-2c-1.1-1.3-1.7-3-1.7-5V315.6z M374.9,315.8c0,1.5,0.3,2.7,0.9,3.6
		s1.5,1.4,2.7,1.4c1.2,0,2.1-0.5,2.7-1.4c0.6-1,0.9-2.2,0.9-3.6v-0.3c0-1.4-0.3-2.6-0.9-3.6s-1.5-1.4-2.7-1.4
		c-1.2,0-2.1,0.5-2.7,1.4s-0.9,2.2-0.9,3.6V315.8z"/>
	<path class="st2" d="M396.5,320.5c-0.4,0.7-1,1.3-1.7,1.7c-0.7,0.4-1.5,0.6-2.4,0.6c-1.5,0-2.7-0.5-3.5-1.4s-1.3-2.5-1.3-4.5v-8.1
		h2.5v8.2c0,1.5,0.2,2.5,0.7,3c0.4,0.6,1.1,0.8,2,0.8c0.9,0,1.6-0.2,2.2-0.5c0.6-0.4,1-0.9,1.3-1.5v-9.9h2.5v13.8h-2.3L396.5,320.5z
		"/>
	<path class="st2" d="M410.6,318.9c0-0.6-0.2-1-0.6-1.4s-1.2-0.7-2.4-0.9c-1.6-0.3-2.9-0.8-3.7-1.5c-0.9-0.6-1.3-1.5-1.3-2.5
		c0-1.1,0.5-2.1,1.4-2.9c1-0.8,2.2-1.2,3.7-1.2c1.6,0,2.8,0.4,3.8,1.3c1,0.8,1.4,1.8,1.4,3l0,0.1h-2.4c0-0.6-0.3-1.1-0.8-1.6
		c-0.5-0.5-1.2-0.7-2-0.7c-0.9,0-1.5,0.2-2,0.6c-0.4,0.4-0.7,0.9-0.7,1.4c0,0.5,0.2,1,0.6,1.3c0.4,0.3,1.2,0.6,2.3,0.8
		c1.7,0.4,3,0.9,3.9,1.5c0.9,0.7,1.3,1.5,1.3,2.6c0,1.2-0.5,2.2-1.5,3c-1,0.8-2.3,1.2-3.9,1.2c-1.8,0-3.1-0.4-4.2-1.3
		c-1-0.9-1.5-1.9-1.4-3.1l0-0.1h2.4c0,0.9,0.4,1.5,1,2c0.6,0.4,1.3,0.6,2.2,0.6c0.9,0,1.6-0.2,2.1-0.6
		C410.4,319.9,410.6,319.5,410.6,318.9z"/>
	<path class="st2" d="M126,345.6c0-2,0.6-3.7,1.7-5c1.1-1.3,2.6-2,4.5-2c1.9,0,3.4,0.7,4.5,2c1.1,1.3,1.7,3,1.7,5.1v0.3
		c0,2.1-0.6,3.7-1.7,5.1s-2.6,2-4.5,2s-3.4-0.7-4.5-2c-1.1-1.3-1.7-3-1.7-5V345.6z M128.5,345.9c0,1.5,0.3,2.7,0.9,3.6
		c0.6,1,1.5,1.4,2.7,1.4c1.2,0,2.1-0.5,2.7-1.4c0.6-1,0.9-2.2,0.9-3.6v-0.3c0-1.4-0.3-2.6-0.9-3.6s-1.5-1.4-2.7-1.4
		c-1.2,0-2.1,0.5-2.7,1.4c-0.6,1-0.9,2.2-0.9,3.6V345.9z"/>
	<path class="st2" d="M147.9,341l-1.3-0.1c-0.7,0-1.2,0.2-1.7,0.5c-0.5,0.3-0.8,0.8-1.1,1.3v9.9h-2.5v-13.8h2.2l0.2,2
		c0.4-0.7,0.9-1.3,1.4-1.7c0.6-0.4,1.2-0.6,2-0.6c0.2,0,0.4,0,0.5,0c0.2,0,0.3,0.1,0.4,0.1L147.9,341z"/>
	<path class="st2" d="M159.7,335.3h-2.5v-2.6h2.5V335.3z M159.7,352.6h-2.5v-13.8h2.5V352.6z"/>
	<path class="st2" d="M163,346c0-2.2,0.5-4,1.4-5.4c0.9-1.4,2.3-2,4-2c0.8,0,1.5,0.1,2.1,0.4c0.6,0.3,1.2,0.7,1.6,1.3v-7.6h2.5v19.9
		h-1.9l-0.4-1.7c-0.5,0.7-1,1.2-1.7,1.5s-1.4,0.5-2.3,0.5c-1.7,0-3-0.6-4-1.8c-1-1.2-1.4-2.8-1.4-4.8V346z M165.5,346.2
		c0,1.4,0.3,2.5,0.9,3.3s1.5,1.3,2.7,1.3c0.7,0,1.4-0.2,1.9-0.5s0.9-0.8,1.2-1.4v-6.4c-0.3-0.6-0.7-1-1.3-1.4s-1.1-0.5-1.9-0.5
		c-1.2,0-2.1,0.5-2.7,1.5c-0.6,1-0.9,2.3-0.9,3.9V346.2z"/>
	<path class="st2" d="M184.2,352.9c-2,0-3.5-0.6-4.6-1.9c-1.1-1.3-1.7-2.9-1.7-5v-0.6c0-2,0.6-3.6,1.7-4.9s2.5-1.9,4.2-1.9
		c1.8,0,3.2,0.6,4.2,1.7c0.9,1.1,1.4,2.7,1.4,4.6v1.3h-8.8l0,0.1c0,1.4,0.3,2.5,0.9,3.4c0.6,0.9,1.5,1.3,2.8,1.3
		c0.9,0,1.6-0.1,2.2-0.4c0.6-0.2,1.2-0.6,1.7-1l1,1.6c-0.5,0.5-1.1,0.9-2,1.2C186.3,352.7,185.3,352.9,184.2,352.9z M183.8,340.5
		c-0.9,0-1.6,0.3-2.2,1c-0.6,0.7-0.9,1.5-1.1,2.6l0,0.1h6.2V344c0-1-0.2-1.8-0.7-2.5C185.6,340.9,184.8,340.5,183.8,340.5z"/>
	<path class="st2" d="M191.5,345.6c0-2,0.6-3.7,1.7-5c1.1-1.3,2.6-2,4.5-2c1.9,0,3.4,0.7,4.5,2c1.1,1.3,1.7,3,1.7,5.1v0.3
		c0,2.1-0.6,3.7-1.7,5.1s-2.6,2-4.5,2s-3.4-0.7-4.5-2c-1.1-1.3-1.7-3-1.7-5V345.6z M194.1,345.9c0,1.5,0.3,2.7,0.9,3.6
		c0.6,1,1.5,1.4,2.7,1.4c1.2,0,2.1-0.5,2.7-1.4c0.6-1,0.9-2.2,0.9-3.6v-0.3c0-1.4-0.3-2.6-0.9-3.6s-1.5-1.4-2.7-1.4
		c-1.2,0-2.1,0.5-2.7,1.4c-0.6,1-0.9,2.2-0.9,3.6V345.9z"/>
	<path class="st2" d="M209.7,352.6h-2.5v-19.9h2.5V352.6z"/>
	<path class="st2" d="M213,345.6c0-2,0.6-3.7,1.7-5c1.1-1.3,2.6-2,4.5-2c1.9,0,3.4,0.7,4.5,2c1.1,1.3,1.7,3,1.7,5.1v0.3
		c0,2.1-0.6,3.7-1.7,5.1s-2.6,2-4.5,2s-3.4-0.7-4.5-2c-1.1-1.3-1.7-3-1.7-5V345.6z M215.5,345.9c0,1.5,0.3,2.7,0.9,3.6
		c0.6,1,1.5,1.4,2.7,1.4c1.2,0,2.1-0.5,2.7-1.4c0.6-1,0.9-2.2,0.9-3.6v-0.3c0-1.4-0.3-2.6-0.9-3.6s-1.5-1.4-2.7-1.4
		c-1.2,0-2.1,0.5-2.7,1.4c-0.6,1-0.9,2.2-0.9,3.6V345.9z"/>
	<path class="st2" d="M228,346c0-2.2,0.5-4,1.4-5.4s2.3-2,4-2c0.9,0,1.6,0.2,2.3,0.5c0.7,0.4,1.2,0.9,1.7,1.5l0.3-1.8h2v13.9
		c0,1.8-0.5,3.1-1.5,4.1c-1,0.9-2.5,1.4-4.5,1.4c-0.7,0-1.4-0.1-2.1-0.3s-1.4-0.4-2-0.7l0.4-2c0.5,0.3,1.1,0.5,1.8,0.6
		s1.4,0.2,2,0.2c1.2,0,2.1-0.3,2.7-0.8c0.6-0.6,0.8-1.4,0.8-2.5v-1.6c-0.5,0.6-1,1-1.6,1.3c-0.6,0.3-1.4,0.4-2.2,0.4
		c-1.7,0-3-0.6-3.9-1.8c-0.9-1.2-1.4-2.8-1.4-4.8V346z M230.5,346.2c0,1.4,0.3,2.5,0.9,3.3c0.6,0.8,1.4,1.3,2.6,1.3
		c0.8,0,1.4-0.2,1.9-0.5c0.5-0.3,0.9-0.8,1.3-1.5v-6.4c-0.3-0.6-0.7-1.1-1.3-1.4c-0.5-0.3-1.1-0.5-1.9-0.5c-1.2,0-2.1,0.5-2.7,1.5
		c-0.6,1-0.9,2.3-0.9,3.9V346.2z"/>
	<path class="st2" d="M246,335.3h-2.5v-2.6h2.5V335.3z M246,352.6h-2.5v-13.8h2.5V352.6z"/>
	<path class="st2" d="M255.3,350.9c0.8,0,1.5-0.3,2-0.8s0.9-1.1,0.9-1.9h2.3l0,0.1c0,1.2-0.5,2.2-1.5,3.2s-2.3,1.4-3.7,1.4
		c-1.9,0-3.4-0.7-4.5-2c-1.1-1.3-1.6-3-1.6-4.9v-0.5c0-1.9,0.5-3.6,1.6-4.9c1.1-1.3,2.6-2,4.5-2c1.5,0,2.8,0.5,3.8,1.4
		c1,1,1.5,2.1,1.4,3.5l0,0.1h-2.3c0-0.8-0.3-1.6-0.8-2.1c-0.5-0.6-1.2-0.9-2.1-0.9c-1.2,0-2.1,0.5-2.7,1.4c-0.6,1-0.8,2.1-0.8,3.5
		v0.5c0,1.4,0.3,2.6,0.8,3.5C253.2,350.5,254.1,350.9,255.3,350.9z"/>
	<path class="st2" d="M272,352.6c-0.1-0.4-0.2-0.8-0.2-1.1c0-0.3-0.1-0.6-0.1-1c-0.5,0.7-1.1,1.2-1.8,1.7c-0.8,0.4-1.6,0.7-2.4,0.7
		c-1.4,0-2.5-0.4-3.3-1.1c-0.8-0.7-1.1-1.7-1.1-3c0-1.3,0.5-2.3,1.6-3.1c1.1-0.7,2.5-1.1,4.3-1.1h2.7v-1.4c0-0.8-0.2-1.4-0.7-1.9
		s-1.2-0.7-2.1-0.7c-0.8,0-1.5,0.2-2,0.6s-0.8,0.9-0.8,1.5l-2.4,0l0-0.1c-0.1-1,0.4-1.9,1.4-2.8c1-0.8,2.3-1.2,3.9-1.2
		c1.6,0,2.8,0.4,3.8,1.2c1,0.8,1.4,1.9,1.4,3.4v6.6c0,0.5,0,1,0.1,1.4c0.1,0.5,0.1,0.9,0.3,1.4H272z M267.8,350.8
		c0.9,0,1.7-0.2,2.5-0.7s1.2-1,1.4-1.6v-2.2h-2.8c-1,0-1.8,0.3-2.4,0.8c-0.6,0.5-0.9,1.1-0.9,1.8c0,0.6,0.2,1.1,0.6,1.5
		C266.5,350.6,267.1,350.8,267.8,350.8z"/>
	<path class="st2" d="M280.6,352.6h-2.5v-19.9h2.5V352.6z"/>
	<path class="st2" d="M293.2,338.8l0.2,2.1c0.5-0.7,1-1.3,1.7-1.7c0.7-0.4,1.5-0.6,2.4-0.6c1.5,0,2.6,0.4,3.5,1.3
		c0.8,0.9,1.2,2.2,1.2,4v8.7h-2.5V344c0-1.2-0.2-2.1-0.7-2.6c-0.5-0.5-1.2-0.8-2.2-0.8c-0.8,0-1.4,0.2-2,0.5c-0.5,0.3-1,0.7-1.3,1.3
		v10.2h-2.5v-13.8H293.2z"/>
	<path class="st2" d="M314.3,352.6c-0.1-0.4-0.2-0.8-0.2-1.1c0-0.3-0.1-0.6-0.1-1c-0.5,0.7-1.1,1.2-1.8,1.7
		c-0.8,0.4-1.6,0.7-2.4,0.7c-1.4,0-2.5-0.4-3.3-1.1c-0.8-0.7-1.1-1.7-1.1-3c0-1.3,0.5-2.3,1.6-3.1c1.1-0.7,2.5-1.1,4.3-1.1h2.7v-1.4
		c0-0.8-0.2-1.4-0.7-1.9s-1.2-0.7-2.1-0.7c-0.8,0-1.5,0.2-2,0.6s-0.8,0.9-0.8,1.5l-2.4,0l0-0.1c-0.1-1,0.4-1.9,1.4-2.8
		c1-0.8,2.3-1.2,3.9-1.2c1.6,0,2.8,0.4,3.8,1.2c1,0.8,1.4,1.9,1.4,3.4v6.6c0,0.5,0,1,0.1,1.4c0.1,0.5,0.1,0.9,0.3,1.4H314.3z
		 M310.1,350.8c0.9,0,1.7-0.2,2.5-0.7s1.2-1,1.4-1.6v-2.2h-2.8c-1,0-1.8,0.3-2.4,0.8c-0.6,0.5-0.9,1.1-0.9,1.8
		c0,0.6,0.2,1.1,0.6,1.5C308.8,350.6,309.4,350.8,310.1,350.8z"/>
	<path class="st2" d="M323.6,335.5v3.3h2.6v1.9h-2.6v8.4c0,0.6,0.1,1.1,0.4,1.4c0.3,0.3,0.6,0.4,1.1,0.4c0.1,0,0.3,0,0.5-0.1
		c0.2,0,0.3-0.1,0.4-0.1l0.3,1.7c-0.2,0.2-0.5,0.3-0.8,0.4c-0.4,0.1-0.7,0.1-1.1,0.1c-1,0-1.8-0.3-2.4-0.9c-0.6-0.6-0.9-1.6-0.9-2.9
		v-8.4h-2.2v-1.9h2.2v-3.3H323.6z"/>
	<path class="st2" d="M337.7,350.6c-0.4,0.7-1,1.3-1.7,1.7c-0.7,0.4-1.5,0.6-2.4,0.6c-1.5,0-2.7-0.5-3.5-1.4s-1.3-2.5-1.3-4.5v-8.1
		h2.5v8.2c0,1.5,0.2,2.5,0.7,3c0.4,0.6,1.1,0.8,2,0.8c0.9,0,1.6-0.2,2.2-0.5c0.6-0.4,1-0.9,1.3-1.5v-9.9h2.5v13.8h-2.3L337.7,350.6z
		"/>
	<path class="st2" d="M350.3,341L349,341c-0.7,0-1.2,0.2-1.7,0.5c-0.5,0.3-0.8,0.8-1.1,1.3v9.9h-2.5v-13.8h2.2l0.2,2
		c0.4-0.7,0.9-1.3,1.4-1.7c0.6-0.4,1.2-0.6,2-0.6c0.2,0,0.4,0,0.5,0c0.2,0,0.3,0.1,0.4,0.1L350.3,341z"/>
	<path class="st2" d="M358.7,352.9c-2,0-3.5-0.6-4.6-1.9c-1.1-1.3-1.7-2.9-1.7-5v-0.6c0-2,0.6-3.6,1.7-4.9c1.1-1.3,2.5-1.9,4.2-1.9
		c1.8,0,3.2,0.6,4.2,1.7c0.9,1.1,1.4,2.7,1.4,4.6v1.3H355l0,0.1c0,1.4,0.3,2.5,0.9,3.4s1.5,1.3,2.8,1.3c0.9,0,1.6-0.1,2.2-0.4
		c0.6-0.2,1.2-0.6,1.7-1l1,1.6c-0.5,0.5-1.1,0.9-2,1.2C360.8,352.7,359.8,352.9,358.7,352.9z M358.3,340.5c-0.9,0-1.6,0.3-2.2,1
		c-0.6,0.7-0.9,1.5-1.1,2.6l0,0.1h6.2V344c0-1-0.2-1.8-0.7-2.5C360.1,340.9,359.3,340.5,358.3,340.5z"/>
	<path class="st2" d="M369.4,352.6h-2.5v-2.6h2.5V352.6z"/>
</g>
<circle class="st3" cx="248.3" cy="104.3" r="58.3"/>
<g>
	<g>
		<path class="st4" d="M226,119.9h43.8c3.3,0,6-1.8,6-4.1s-2.7-4.1-6-4.1H226c-3.3,0-6,1.8-6,4.1S222.7,119.9,226,119.9z"/>
	</g>
	<g>
		<path class="st4" d="M226,97h43.8c3.3,0,6-1.8,6-4.1s-2.7-4.1-6-4.1H226c-3.3,0-6,1.8-6,4.1S222.7,97,226,97z"/>
	</g>
</g>
</svg>
