<?xml version="1.0" encoding="UTF-8"?>
<svg id="Layer_1" data-name="Layer 1" xmlns="http://www.w3.org/2000/svg" viewBox="0 0 255.60004 117.79999">
  <defs>
    <style>
      .cls-1 {
        fill: #df510b;
      }

      .cls-1, .cls-2, .cls-3, .cls-4, .cls-5, .cls-6, .cls-7, .cls-8, .cls-9, .cls-10, .cls-11, .cls-12, .cls-13, .cls-14, .cls-15 {
        stroke-width: 0px;
      }

      .cls-2 {
        fill: #1447ad;
      }

      .cls-3 {
        fill: #053891;
      }

      .cls-4 {
        fill: #fbd023;
      }

      .cls-5 {
        fill: #eda252;
      }

      .cls-6 {
        fill: #028832;
      }

      .cls-7 {
        fill: #04af2f;
      }

      .cls-8 {
        fill: #cd1225;
      }

      .cls-9 {
        fill: #e1e1e3;
      }

      .cls-10 {
        fill: #000;
      }

      .cls-11 {
        fill: #0738a6;
      }

      .cls-12 {
        fill: #fbdc1d;
      }

      .cls-13 {
        fill: #d9131a;
      }

      .cls-14 {
        fill: #444;
      }

      .cls-16 {
        fill: none;
        stroke: #eda252;
        stroke-linecap: round;
        stroke-linejoin: round;
        stroke-width: .4px;
      }

      .cls-15 {
        fill: #fff;
      }
    </style>
  </defs>
  <path class="cls-9" d="M22.8,113.8l-.2,1-.4.7-1.4-.5-1.5-1-.8-.3,1.6,1.7,1.1.8,1.3.8,1,.2.8.4h.6c0,.1.5.2.5.2l.8-.5.2-.6.6.5h.9l.3-.8-1.4-.4-1.4-.9-.6-1.1-.5-.7-.7-.2-.8.6h0v.10001ZM33.2,111.7l-.9-.4-1,.9.6.7.7-.7.5.5,1.2-.4.2-.5-.8-.7-.5.6ZM157.10001,107.9l-.2.6v.8h1.39999l.39999-.7v-.3l-.89999-.2-.60001-.4v.3h-.10001l.00002-.10001ZM255.60001,101.3l-1.60001,1.4-.79999,1v.5h1l.5.5h.89999v-3.5h0v.1ZM233.3,97.3l.3,1.2v.9l.3,1.2h.60001l.2.1.89999-.9.3.4.39999-1.1.39999-.5.3-1.6h-.60001l-.8.2-.60001.2-.89999-.5h-.60001c0-.1-.2.5-.2.5h0l.00002-.09999ZM140.39999,61.3v.7l-.60001.8h-.39999c0-.1.10001.4.10001.4l-.3.6-.89999.7-.60001.7h-.39999l-.39999.2-.60001.2h-.5l-.2.8-.39999.7v1.1l.2.8.2.6v.8c-.10001,0-.60001.9-.60001.9v.4l-.5.2-.2.9v.9l.39999,1v1.1l.3.7.8.4.60001.3.89999-.5.8-.3.5-1.4.5-1.7.7-2.3.60001-1.7.39999-1.4v-1c.10001,0,.39999-.3.39999-.3v-.5c.10001,0,0-.9,0-.9l.2-.3.3.7.2-.3v-.6c.10001,0-.10001-.6-.10001-.6v-1.4c-.10001,0-.39999-.8-.39999-.8l-.3-.5-.39999-.5-.39999.5h0l.09999-.09998ZM236.10001,59.6v.3l-.3.7-.3.6v.4c.10001,0,0,.2,0,.2l-.2.9v1.6c.10001,0-.3.9-.3.9l-.2.7-.3.5-.3.7-.7.4-.89999-.4v-.4c-.10001,0-.60001-.3-.60001-.3h-.3l-.7-.7-.5-.4-.8-.4-.8-.7v-.3l.39999-.6.3-.6v-.5h.3l.39999-.5.3-.6-.39999-.6-.3.2h-.39999l-.60001.2-.60001-.4h-.3c0,.1-.89999-.2-.89999-.2l-.5-.5-.7-.3-.60001.2.7.4v.6l-.89999.2h-.5c0-.1-.60001.3-.60001.3l-.5.7v.3c.10001,0-.3.3-.3.3l-.60001,1,.2.7h-.60001c0-.1-.60001-.1-.60001-.1l-.5-.7-.7-.6-.5.2-.5.2v.3l-.5-.1v.3l-.60001.2-.3.5-.60001.6-.2.9-.39999-.3-.39999.6.3.6-.39999.2-.39999-1-.8,1v.7l-.2.5-.60001.6-.3.7-.60001.5-1.10001.4h-.90001l-.2.3h-.60001c0,.1-.8.6-.8.6l-.3-.2h-.5l-.8.5-.60001.5-.89999.4-.5.8v-.9l-.5.9v.7l-.2.6-.2.3-.2.7.2.4v.4l.39999,1v.6l-.3-.5-.5-.4.2,1.2-.39999-.5v.5l.5,1v1l.39999.5v.4l.3.8v.7c-.10001,0,0,.7,0,.7l.39999,1.3v.8l-.2.9v.5l-.2.3-.5.2v.7c-.10001,0,.39999.2.39999.2l.89999.8h1.39999l.5-.4.60001-.4h.3l.7-.6h.7l.7-.2.89999.2h.60001c0-.1.89999-.1.89999-.1l.39999-.5.3-.7.89999-.3,1.2-.7h.89999l1.2-.3,1.39999-.5h1.8c0-.1.89999.5.89999.5h.7l1.2.8-.2.3.39999.5.5.9v.7c-.10001,0,.5.5.5.5l.60001-1,.7-.4,1-1.1v.9l-.60001.6-.3.8-.60001.7.89999-.2.60001-.9v1l-.39999.6.89999.2.39999.5v.7c.10001,0,.10001,1,.10001,1l.5.8.89999.4h.60001l.5.3.8.4,1.10001-1,.60001-.2-.3.7.60001.2.7.6.7-.6.60001-.5,1-.5h1.10001l.7-.5v-.4l.39999-.9.39999-1,.5-.7.5-1.1.5-.6.60001-1,.89999-.6.7-1.2.39999-.9v-.7c.10001,0,.60001-1.1.60001-1.1l.3-.6.2-1.1-.3-1.1.2-.8v-1.7l-.60001-1-.39999-.5-.60001-.8v-1.3l-.3.2-.3-.5-.39999.3-.2-1.3-.5-.8.2-.3-.60001-.5-.7-.6-1-.6-.2-.8.2-.6-.2-1-.2-.2v-.6c-.10001,0-.2-1-.2-1v-.5c.10001,0-.3-.5-.3-.5l-.3-.5-.7.4-.3-.9v-1.1l-.3-.6v-.5l-.3-.2v-.8l-.3-.6-.39999.5h-.39984ZM212.39999,57.8l1.3.8h.39999v-.3l-.3-.4-.5-.4-1,.2h0l.10001.1ZM254.20001,57.9l.20001.2h.60001c0,.1.39999,0,.39999,0v-.3c-.10001,0-.5-.2-.5-.2l-.70001-.2v.5h0ZM255.20001,56.3l.20001.7.20001.3v-1h-.40002ZM220.39999,56.4h-.7l-.89999.3v.3c-.10001,0-1.2.5-1.2.5l-.5.7v.4c-.10001,0,0,.1,0,.1l.89999-.3.7-.9.89999-.3,1.10001-.5.39999-.3-.39999-.2-.3.2h0ZM211.10001,56.5h-.60001l-.39999.7h.60001l.7-.2,1.2-.2-.2-.5h-.60001l-.39999-.2-.3.4h0ZM215.60001,56.5h-.7l-.60001-.3-.8.2v.4l1.3.2,1.60001-.3.2-.7-.89999.4h0l-.10001.09999ZM252.89999,55.3l.39999.4.5.4.79999.5v-.2l-.20001-.4-.79999-.5-.5-.3-.20001.1h.00003ZM251.10001,54.5l.39999.5.39999.3h.20001l-.39999-.5-.60001-.5v.2h0ZM198.60001,54.6h.89999l.2.6,1.89999.5.39999-.2h.8c0,.1,1.2.6,1.2.6l.89999.2h2l1.10001.5,1.2-.5-1.2-.7-1.5-.2-.39999-.8-1.89999-.6-.2.5h-2c0-.1-.10001-.5-.10001-.5h-.39999l-.8-.5h-1.2l-.7,1.1h-.2ZM228.3,53.3l-.2.4v.9l.60001-.8v-.6l-.2-.3-.2.4h-.00002ZM249.2,52.6l.2.9.39999.8.39999.5h.3c0-.1.2-.5.2-.5l-.5-.4-.5-.8-.3-.3v-.3c-.10001,0-.2.1-.2.1h.00002ZM246.10001,51.4v.7l-.5.4-.3.4h-.60001v-.5h-.10001l-.2.6h-1.5v.4c-.10001,0,.5.3.5.3l.8.3h.60001l.5-.3.60001-.3.2-.3h.5l.39999-.8v-.7l-.2-.2h-.7ZM219.89999,50.3l.2.5.7.2.39999-.4-.2-.4h-1l-.09999.1ZM222.10001,49.9l-.2.7h2.2l.89999.6-.39999-.9-1.10001-.3h-1.3l-.09999-.1ZM245.3,49.7l.7.3.60001.5.5.4.2.5.2.7.3-.3v-.6c-.10001,0-.5-.4-.5-.4l-.39999-.5-.39999-.3-.39999-.3-.60001-.3-.3.3h.09999ZM225.89999,47.3l-1.39999.3.39999.6.89999.2.39999.7h1.5v.3h-.60001l-1.10001.4.8.6v.5l.2.4h.39999l.3-.7,1.5,1.1h.89999l2,1.1.5,1,.2,1.3-.7.3-.5,1h1.3l.3-.4,1,.2.89999,1h1.10001l.60001.2.8-.4v-.9l.60001-.4.89999-.3,1.3.5.5,1,.60001.7.8.8,1,.2h.89999c0,.1.2.4.2.4h.7l.10001-.4-1.10001-.5.3-.2-.8-.2v-.5h-.5l-.60001-1.3-.89999-.8-.2-.8h.89999c0-.1-.2-.8-.2-.8l-1.7-.7v-.7c-.10001,0-.7-.6-.7-.6l-.7-.6-1.89999-.7-1.8-.8-1.10001-.2-.8-.4-.89999-.4h-.89999l-1.2.7-.89999,1.2-1.10001-.7-.3-1.9-.2-.4-1.60001-.5-.5.4h0l.10001.10001ZM217.89999,45.4h-1.2l-1.3-.1-.8-.3-.89999.9-.2.5-.5,1.8v.9c-.10001,0-.60001.8-.60001.8l.3.8h.39999v1.2c.10001,0-.2,1.1-.2,1.1l.39999.3.7-.2v-3.1l.60001-.4v1.2l.60001.7v.5c-.10001,0,.10001.3.10001.3l1-.5-.5,1,.39999.4.60001-.3v-.8l-.89999-1.4.2-.4-.89999-1.5.89999-.5.39999-.7.39999.2v-.5l-1.8.4-.60001.5-.89999-1v-.9c.10001,0,1-.2,1-.2h1.7l1,.2.8-.2.8-1.2-.2-.3-1,.9h0l.2-.1ZM221.5,44.4l-.2.9.3,1.5.39999.8h.3c0-.1-.39999-.8-.39999-.8l.2-.7h.5c0,.1,0-.9,0-.9v-.5h-.7v-.6l-.39999.4h0l-.00002-.1ZM188.3,40.7l1.10001,1.3.8.7.60001,1,.89999.7.39999.9.3,1,.89999,1,.8,1.7.5.9.8,1,.39999.7,1.3,1,.8,1h1.10001v-1.9l.3-1.5-.5-.8h-.8l-.39999-.8-.2-.8h-.39999l-.60001-.4.39999-1-.8-.5-.60001-1-.89999-.8h-1.10001l-1-1.3-.60001-.5-.8-.8-.89999-1.2-1.60001-.2h-.7l.10001.5h0l.39999.09999ZM210.2,38.3l-.5.9-.8.8-.89999.7-.39999.4-.5.8-.7.9-1.2.3-.39999.2-.2,1-.8.2-.8-.4-.60001.8v1.1c-.10001,0,0,1,0,1l.5,1,.5.3v1.6c.10001,0,1,.1,1,.1h.7l.39999.5,1.2-.4.5.4h.7l.39999.8,1.2-.5v.4c.10001,0,.60001-1.8.60001-1.8v-1.2l1-.8v-1.1l.3-.8h1.2c0-.1-1.2-1.2-1.2-1.2l.2-.5-.8-1.1.60001-1.1.8-.4-.2-.6h.7v-.5l-.89999-.3-.7-.3v-.5l-.60001-.6h-.39999l.09999-.10001ZM219.10001,35.9h-.7l-.10001.6-.8.3-.39999-.5-.5.5-.60001.3-.39999,1,.2.3.7-.7h.5l.3-.4.7.6-.3.6.3.8,1.2.7.3-.6-.39999-.9.5-.6.39999,1.2.3-1.1v-.7l-.2-.8v-.4l-.2-.6-.89999-.6v.9h.10001l-.00002.1ZM172.10001,36.8l.2,1.7.5.9.89999-.3.39999-.3v-1.2c.10001,0-.39999-1.2-.39999-1.2l-.5-.8-.7-.7s-.39999,1.9-.39999,1.9ZM26.9,33.8v.5l-.3.3h.2c0,.1.9,0,.9,0v-.9h-.2l-.6.2h0v-.1ZM216.89999,34.4v-.8c.10001,0-.39999,0-.39999,0v.7l-.3.3-.2.3.7.8.3-.3.3-.8.39999-.4v-1.1l-.7,1.2h0l-.10001.1ZM212.39999,34.2l-.60001.8-.7.7-.5.8,1.3-1.1.5-.8.60001-.7-.2-1-.5,1.2h0l.09999.1ZM215.5,33v1.1l.60001-.4.39999-.5v-.5h-.7l-.60001-.4.2.6h0l.10001.10001ZM218.39999,32.6v.5h-.60001l.2.7h.3v.9l.5-.3-.3-.7v-.4l.8.3-.39999-1.3-.3-.5h-1l.7.9h0l.10001-.1ZM214.10001,31.5l.5.6.2-1-.39999-.4h-.89999l.60001.9h0l-.00002-.1ZM2.1,27.7h-.3c0,.1-.5.2-.5.2h-.5c0-.1-.2,0-.2,0h0c0-.1-.3,0-.3,0l-.2.2H.1v3H.1v-.3h.4l.2.4h-.2v.2c-.1,0,.4.5.4.5l.4.4.2.4.5.5.3.4-.2.2.3.2-.2.4v.4l.1.2h.3c0,.1.2.5.2.5l.2-.3v-.3l.2.2v.3l.4.2.4.2.3.3v.5l.2.2.6.3v.2c.1,0,.1-.3.1-.3h.7c0,.1.4.2.4.2l.2.5h.3l.1-.1.2.7h.5l.1-.2.3-.2-.5-.6v-.2h.3l.4-.3.2-.4h.4l.5.2.2.4h.3l-.3.4.2.6.3.3.4.6v1c.1,0,0,.3,0,.3l.2,1.1-.2.7.4.3-.4.6-.4.7h-.5l-.2.5v.6h-.3v.4c.1,0-.6.5-.6.5l-.6.2v.5l-.3.8-.2.7-.4.2.2,1.1-.2.3.6.5.4-.5.2.5-.5.9-.8.8-.3.8.5,1.1-.3.5.7.5.8.8.3.9.4.5,1,2.4,1.1,2.2.9,1.6v.3c-.1,0,.3,1,.3,1l.8.7,1.9,1.3,2.1,1.2v.5c.1,0,1.2.7,1.2.7l.3,1.7.2,2v2.7c-.1,0-.3,2.6-.3,2.6v2.4l-.5,1.5.2,1.6-.2,1,.4,1.9-.2,1.9-.5,2.1-.4,2.1h-.4l.2,1.5.4,1.3-.4.9v2.5l-.1,1.9.6.2v-1.7c.1,0,.8.4.8.4l-.2,2.8-1.1-.5v2.3l-.8,1.2,1.5.4-.9,1.1-.2,1.4.5,2.4.6,1v.8c-.1,0,.3.9.3.9l1.3.8,1.2,1,1.1.5h.4v-1.4l.8-.5.4-.4h1.3l-.8-.8-.5-1.5.3-.7.8-.6.4-1.7,1-.8.2-1.3-1-.3-1.1-1,.2-1,.7-.7h.9v-.7c.1,0,.1-1.4.1-1.4l.7-.8.9-.4-.4-.7-.5.4-.7-.4-.3-1.3.4-.3,1,.5,1-.2.5-.5-.2-.7v-1c.1,0-.2-.8-.2-.8h1.1c0,.1,2-.1,2-.1l1.4-.7.8-1.7v-.6l-.7-.6v-.9l-1.3-1.1v-.7l.7.7h.7l1,.5h.5c0-.1.8.1.8.1l1.1-.7.4-.8.6-.7.4-1.2.7-.6.8-1,1-2.2.7-.7.2-.6v-1.3c.1,0,0-.7,0-.7v-.9l.9-1.2,1.2-1,1.1-.4.7-.6,1.6-.5h1.1l.2-.7.8-.5v-1.3c.1,0,1.1-1.6,1.1-1.6v-1.6c.1,0,.4-.5.4-.5v-.8l.3-1.9v-2.2c-.1,0,.2-.9.2-.9h.3l.7-1.1.6-1.3,1.4-1.7.5-.8.4-2-.2-.7-.4-1.5-.4-.4h-.9l-.8-.4-1.3-1.3-1.5-1h-1.5l-2-.6-1.2.4.2-.7-.5-.7-1.7-.7-1.3-.4-.8.8v-1.2l-1.9-.2-.3-.4.8-1v-.8l-.6-.2-.6-2.1-.2-.7h-.3l-.2-.4-1.1-1-.8-.3h-.3c0-.1-1.1-.5-1.1-.5h-.8l-.1.3-1.2-.2-.4-.4-.5-.6h-.4v-.6l-.6-.8-.7-.4-.4-.3h-.5l-.1-.9-.8-.6h-.8l-.3-.7.9-.3h-2.5v.3l-.6.4-.8-.2-.6-.5h-1.1c0,.1-.9.1-.9.1v-.4l-.7-.7h-.7l-.3-.9-.4.4v.6c.1,0-1.2.5-1.2.5v.9l.3.4-.2.9h-.5l-.4-.9.5-.7v-.6l-.3-.5h.6v-.4l.2-.4-.3-.3h-.4l-.5.5-.4.3-.8.6h-.8v.2h-.6l-.6.6-.2,1v.4l-.5.1-.8.8h-.5l-.4-.4-.3-.4-.4-.2h-.6v-.2h-.6l-.4.3-.6.2-.4.3h-.5l-.3-.2h-.5v-.2l-.3-.4-.5-.5-.4-.5-.2-.7v-.2c-.1,0-.2-.3-.2-.3l.2-.3v-.8h.2v-2c.1,0,.4-.4.4-.4v-.7h0c0-.1-.2-.5-.2-.5l-.4-.2-.3-.3-.3-.2h-.2l-.5-.2h-.2c0,.1-.3.1-.3.1h-.2l-.3-.1h-.1v.1l.2.49998ZM0,25.9v-.3.3ZM213.3,25.6v1.9l-.39999-.4v1.1c.10001,0,.3.5.3.5l.60001.7v-.4c.10001,0,.39999.3.39999.3l-.3.3v.5l.5.3.89999-.2.7.7.2-.4.39999.6.8.6v-.5l-.3-.3v-.7l-1.3-.7h-.39999c0,.1-.60001,0-.60001,0l-.3-1v-1l.7-.4.2-1-.39999-.9v-.5c.10001,0,0-.3,0-.3l-.3.3-.7-.4h-.60001l-.2,1.1h0l.10002.20001ZM21.5,24.7v.5h1.4l.3-.3-.2-.2h-.5c0-.1-.8-.1-.8-.1v.2h-.2v-.1ZM10.3,24.6v.3c-.1,0,.4.4.4.4l.6.2.3-.2h.7l-.1-.4-.5-.3h-.7c0-.1-.2-.2-.2-.2h-.4l-.1.2ZM15.3,23.1l.6.2v.5l.4.5-.4.3h-.8c0-.1-.9-.3-.9-.3v.4c-.1,0,.4.4.4.4l.5-.2h1.1l.7.2v.4l.3.2.5-.8.4-.2v.3h.5l.2-.2h.8l.5.3.4-.5-.5-.4h-.5v-.4h-.6l-.2-.4h-.3l-.6-.3h-.8v.2c-.1,0-1-.2-1-.2h-.6l-.2.3h0l.1-.3ZM201.60001,22.9l-.5.5v1c.10001,0,1,.4,1,.4l.8-.6.2-.7.39999-.5-.3-.5h-.60001l-1.10001.3h0l.10002.1ZM.9,20.9H0v4.6l.2-.5v-.3h-.2v-.2h.2l.2.3.3-.9.2-.5-.2-.2.3-.7.6-.7v-.6l-.2-.3-.6.1.1-.1ZM6.3,18.9h-.8c0,.1-.5.4-.5.4l-.5.3-.2.4-.6.4h.4c0,.1.5,0,.5,0l.2-.3h.4l.8-.7h1l-.4.4.3.2,1.3.2.3.3.9.3h.6l.2.7.3.4h.6l.4.4-.7.7h1.5c0-.1.7,0,.7,0h.7l.7-.2v-.3c.1,0-.6-.5-.6-.5h-.8l.1-.4-.6-.2h-.3l-.6-.5-.8-.8-.3-.3h-1c0,.1-.4-.3-.4-.3l-.9-.4h-1.7c0-.1-.3,0-.3,0h0l.1-.2ZM10.6,17.1l.4.4.2.7h.3v-.8l-.3-1h-.3l-.3.7h0ZM212.8,17.1l-.5,1.2.2.9.60001,1,.3-1,.39999-2v-.7l-.39999-.4-.7.9h0l.09999.1ZM10.2,14.3v.5l1.1-.2v-.3h-1.2.1ZM11.5,14.2l.4.5v.6l.1.2.2-.9-.8-.6v.1l.1.1ZM0,11.3h.2c0-.1-.2-.3-.2-.3v.3ZM0,10.8v-.3H0v.4-.1ZM224,5.3h-.60001c0-.1-.39999.6-.39999.6v.6l.8.4v-.8c.10001,0,.60001-.3.60001-.3l.5.4.39999-.8-.2-.4-.8-.3-.3.5h0v.1ZM123.9,3.4h-.7l-.1.3h-.5l.2.6.5.2,1-.5h0v-.3l.60001-.6-.89999.4-.10001-.1ZM113.7,3.5l1.2.2v.2h1.4c0-.1.1-.5.1-.5l-.5.2v-.2h-1.5l-.6-.4-.2.6h0l.1-.1ZM0,.1v9.9h.3c0-.1.8-.2.8-.2h.9c0,.1,1.2,0,1.2,0l.6.3.4.6h.2l1.1-.5.4.2.7,1.1.2.7-.3.8v.5c.1,0,.5,1,.5,1l.4,1.1.4.3v.5c.1,0,.6.1.6.1h.3c0-.1.3-.9.3-.9v-.5l.2-.8-.4-1.4v-.5l-.3-.9-.2-1.1v-.9c-.1,0,.1-.9.1-.9l.6-.8.6-.6,1.2-.8.2-.4.6-.5h.5l.7-.8,1.1-.4.7-1v-1.8h-.3V.3H.10001L0,.1ZM14.8.1l-.4.8h0l.5-.8h-.3.2ZM81.5.1v.3l-.1,1,.5-.2.5.2.4-.3.9.2.3.8.4.4h.5c0,.1.4-.4.4-.4l.6-.5h2.2l.7-1,.8-.3v-.3h-8l-.10001.1ZM102.7.1v.3l1.3.7h.5c0,.1.8.6.8.6l.2-.7-.2-.4.2-.6h-2.8v.1ZM111.4.1v.3l.5,1,.8.6h.7l-.4-1.2h.6c0-.1-.3-.8-.3-.8h-1.9v.1ZM113.4.1l.8.3V.1h-.8ZM125.60001,63.2v-.4l-.2-.3v-.5l-.3-.9.3-.7v-1.4l-.39999-.8h0v-.4l.5.6v1.2l.39999.5h0l-.3,1.1v1.4c.10001,0,.10001.2.10001.2h.2l.2.7v.2l-.39999-.5-.2.3-.2-.3h0l.29999.00002ZM121.9,56.7h-.3v-.5l-.2-.3v-.7c-.1,0-.8-.6-.8-.6l-.3-.8.2-.5-.3-.7.2-1.9h0l.4,1.1h0v.6l.2.2v.5l.2.5-.2.5.8.8v.7l.6,1.2v.2h0l-.2-.2h0l-.29999-.1ZM122.8,49.3l.2-.8v-1.2l.5-.7.60001-.2.39999-.3.5.2h0l.2.5v.9l-.60001.5-.3.5.39999.4-.60001.3h-.1c0-.1-.6,0-.6,0l-.5.3-.3-.5h0l.20003.1ZM143.7.1l.2.9v.3l-1.60001.3-1.39999-.2-.7-.7-1-.3V0h-22.4l.3.3.6,1.3h1.1l1,.7.7-.2.2-.5h1.1l.8.7,1.5-.2.60001-.8.89999.3h.60001c0-.1-.39999.4-.39999.4l.39999.6-.2.5v1h.10001l-.5.9-.3,1.1h0v.3c-.10001,0-.3,1-.3,1l-.2.6h0l-.3.5-.5.3h-.8l-.8-.4-.2.4-.3-.6-.7-.2h-.9c0,.1-.4.5-.4.5l-.8.4-.5-.2-1-.4-1-.3h-1.3l-.3-.4h-1c0-.1-.3-.4-.3-.4h-.4l-.4-.6-1.4-.3-.7.2-.7.6-.3.6.3,1-.5.6-.5.3-1.1-.6-1.4-.5-.9-.2-.5-1.1-1.3-.6-.8-.2h-.4c0,.1-1.2-.3-1.2-.3l-.4-.2-.3-.6h-.5l-.2-.7.7-.7v-1.1c.1,0-.2-.3-.2-.3v-.6l.5-.6v-.2l-.9.5v-.7l-.7-.2-1.1.5h-.7l-.4-.2h-1.1l-.9.5-.5-.2h-1.7l-1.7.3-1,.4-.6.5-1.1.2-1,.7h-.4l-1-.3h-.9l-.6-.5h-.7l-.3.8-.7,1.3-.8.5-1,.6-.7.9v.7c-.1,0-.5,1.1-.5,1.1l.2,1.6-.8,1.1-.5.3-.8.9h-.9c0,.1-.5.6-.5.6h0l-.7,1.3-.7.5-.4.8v.7l-.3.7-.3.2-.6.8-.4.9v.4l-.3.6-.4.3v.6l-.1.5.5.5.3.6v.6c-.1,0,0,.6,0,.6v2.3l-.3.6v.6l-.2.6-.5.8-.4.2.5.4.4.9v.5c-.1,0,0,.9,0,.9v.3l.4.2v.2l.2.3h.4l.6.6.3.2.2.3v.5c.1,0,.4.2.4.2l.3.2.4.5.4.7v.9c.1,0,.3.4.3.4l.5.6.7.5h.3l.7.8.9.7.9.9,1.1.6h.5l1-.4.7-.3,1.2-.2h.7l.7.2h.5l.9.3.9-.3.6-.4,1.6-.7.8-.2h.8c0-.1,1.7-.1,1.7-.1l.7.8.3.9.6.7h.8l.4-.2h.4l1.1-.4v.3l.2.2.2.5.5.2.4.8-.2.9-.3,1.3.2.2-.2.9-.2.9-.2.4v.4l.6,1.2.7,1,1.1,1.2.8,1.2.3.9v.4c.1,0,0,.2,0,.2l.5.8.2.8.3,1.1-.3.5v.2l.2.7.3.7.3.4v1.6l-.3.5-.6.8-.2.5-.3,1.1v.5l-.4,1.1-.2,1.1v.8l.1.9.8,1.2.2.8.5,1.5.5,1,.4.5v.7c.1,0,.1,1.5.1,1.5l.3,1.9.2.9.2,1.2.4.9.7.9.7,1.6h0l.5,1.1.6,1.2v1l-.3.2.3.9v.8l.1.3v-.2l.5.6h.3l.4.5h.5l.6-.5.9-.2,1.1-.5h1l1.1.2.5-.2.6.2v-.4h.7l1.1-.5.8-.6.7-.8,1.2-1.3.6-.9.3-.7.4-.6.2-.2.7-.6.3-.6.2-1,.3-.9v-.7c.1,0-.2,0-.2,0v-.5l.4-.5,1.2-.7.89999-.4.39999-.4.2-.5-.2-.2.2-.6v-1.2h-.10001v-.4l-.2-.7-.5-.9v-.9c.10001,0,.5-.3.5-.3l.7-.9.39999-.2,1.2-1.3,1.2-.6.89999-.5.7-.8.39999-.8.3-.9-.2-.6v-2.9c-.10001,0,0-1.2,0-1.2l-.2-.5-.39999-.3-.39999-1.2-.39999-.7v-1l.3-.7v-.3l-.7-.4v-.7l.39999-1.5.39999-.4.2-.8.3-.5v-.8h.5l.2-.5.7-.5.2-.3.2-.6,1.10001-1.4,1-.9,1.5-1.2,1-1,1.2-1.6.89999-1.3.89999-1.7.60001-1.5.5-1.3.3-1.3.2-.4v-1.6h-.39999l-.5.4h-.5c0,.1-.5.3-.5.3h-.90001l-.39999.2h-.5l-.89999.5h-1.10001c0,.1-1,.5-1,.5h-.5l-.5-.5-.2-.5-.3-.2-.39999-.3.60001-.3v-.5l-.2-.4-.5-.4-.3-.4-.60001-.7-.60001-.7-1.39999-1.1-.60001-.6-.3-1.1-.60001-1.4-.60001-.5-.39999-.3-.39999-1.5-.2-1.2.2-.2-.39999-1.2-.2-.2-1.2-1.1v-.8l.10001-.2-1-1.4-.39999-.7-.39999-.7-.8-1.9-.7-1.3-.5-1.3h0c0-.1.8,1.7.8,1.7l.5.6.4.4.2-.2.2-.6.2-.9.3-.5v1.1l-.2.7h.5l.60001.8.60001,1,.39999.9.3.3.3.6v.3l.3.7.60001.3.5.5.60001,1.4v.7l.10001.9.7,1.2.5.2.7.8.3,1,.60001,1,.5.4v.5l.39999.4v.5c.10001,0,.2.5.2.5v.2c-.10001,0,0,.5,0,.5h-.2l.3.5.2.9.2.3v.7l.3.7h1.5l.10001-.3h.3l.2-.4h.3l.89999-.1.60001-.2.60001-.5h.7l.89999-.8,1.60001-.6,1-.5v-.4l.2-.5.7-.3h.5l.7-.5h.60001c0,.1.5-.2.5-.2v-.5l.39999-.3h.60001l.2-.2v-.6l.7-.5h.60001c0-.1-.2-.9-.2-.9v-.6c.10001,0,.3-.3.3-.3h.5l.3-.8.39999-.4v-.3c.10001,0,.5-.7.5-.7v-.3h-.39999c0-.1-.3-.6-.3-.6l-.5-.7-.60001-.2-.8-.2-.60001-.5-.5-.8-.2-1v-.2c.10001,0,.2-.5.2-.5h-.10001c0-.1-.3.3-.3.3l-.60001.8-.7.8-.60001.8h-1.40001l-.8.2v-.3h-.2l-.2-.5.2-.7v-.7l-.39999-.4h-.3c0,.1-.2.8-.2.8v.9c.10001,0,0-.3,0-.3v-.4c-.10001,0-.5-.4-.5-.4v-.4c-.10001,0,0-.4,0-.4v-.5l-.8-.5-.2-.4-.5-.3-.39999-1.1-.39999-.9v-.3l-.2-.6h.60001l.39999-.4.7.4.5-.2.8,1.7.7,1.2,1,.4,1.10001,1,1.3.4,1-.6.8-.2.5.2.5,1.5,1.2.2,1.10001.3,1.89999.4,1.39999-.2h1.60001l1.89999-.2.8.9.39999.9.8.3,1.3,1,.3.5-.5.4,1.39999,1.5h.7c0,.1,1.39999-.6,1.39999-.6l.3,1.1v1.5l.5,1.5.5,2.3,1,1.6.2.8.3,1.5.60001,1.2.39999.6.39999,1.2.5,1.7,1,1.1.39999-.3.3-.8.89999-.3-.3-.4.39999-.9h.5v-2.1l.39999-1.1v-1c-.10001,0-.39999-1.6-.39999-1.6l.3-.9h.5l.89999-.5.5-.3v-.5l.89999-.8.7-.8,1.10001-1.4,1.39999-.8.5-.7v-.9c-.10001,0,1.10001-.2,1.10001-.2h.7v-.4c.10001,0,.5.1.5.1h.3c0,.1.10001,0,.10001,0l.39999.2.3-.7v-.5c-.10001,0,.8,0,.8,0l.5.7.2.6v.6c.10001,0,.39999.6.39999.6l.8,1,.60001.2v.4l.8,1.4.3,1.1-.3,1.5.60001.3h.60001c0,.1,1.10001-.8,1.10001-.8l.60001-.6.5,1,.3,1.5.39999,1.4.39999.6v1.3l.39999.7-.3.9v.9c.10001,0-.10001,1.1-.10001,1.1v.7l.10001.7v-.7c.10001,0,.7.6.7.6l.60001.7.2.6.39999.5.2.5v.9c-.10001,0,.3.6.3.6l.2,1,.60001.8v.6c.10001,0,1.39999.9,1.39999.9l1,.9h.7v-.5l-.39999-1-.39999-.3v-.7l-.2-.4v-.5c.10001,0,0-.8,0-.8l-.39999-.8-.60001-.7h-.2c0-.1-.60001-.7-.60001-.7h-.60001c0-.1-.60001-.8-.60001-.8l-.2-1-.39999-1.1h-.7l-.10001-.9.3-1,.5-1.7v-1.3h.89999v.9c-.10001,0,.8,0,.8,0l.89999.5.60001,1.2.39999.6.89999.2.8.7-.3.8.39999.8,1.2-1.1.8-1,1.10001-.8.8-.8v-2.1l-.60001-2.2-.7-1-1-.7-1.10001-1.6-.89999-1.3.2-.8.8-1.1,1.3-1,.5-.2,1.39999.4-.2.5.3.9h.60001l.2-1.4,1.10001-.2,1.39999-.6.5-.6.39999.4.60001-.5h1.10001c0-.1,1.3-1.2,1.3-1.2l1.3-1.1.8-1.5.60001-1.6.60001-1.4h.60001c0-.1.10001-1.1.10001-1.1v-1l-.60001-.4-.3-.7.60001-.4v-.9c-.10001,0-.89999-1-.89999-1l-.8-1.2-.60001-1.3-1.2-.7.39999-.9.89999-.7.39999-.7,1.39999-.4-.3-.7h-.60001l-1-.5-1,.9-.89999-.4v-.6h-65.09999l.70003-.80002ZM214.8.1h0v.3h.3V.1h-.5.2ZM215.5.1l.39999.2.89999,1.1-.7.2.7,1.4v1l.2.7h.89999c0-.1.7-.7.7-.7l.89999-.2.3-.7-.3-1.5-.39999-.8-.39999-.6h-3l-.19998-.1ZM228.5.1h0l-1.2,1.4-.8-.6-.60001,2.3-1.10001-.3-1.89999.4-.60001.9-.89999.7-.39999.8-.89999.4.60001.9.7.4v1.1l.5.5.60001-.5.3-2.2-1.2-.9h1.2l1.10001-.6,1.7-.3.2,1,.8.5,1.2-1.5h1.8l1.2-.7.39999-.9-.3-.7.2-1.1-.2-1h-2.40001Z"/>
  <polygon class="cls-5" points="21.4 45 21.2 45.2 21 44.5 20.7 44.1 20.4 44.5 18.4 44.5 18.4 45.2 19 45.4 19 45.8 18.8 45.7 18.2 45.9 18.2 46.7 18.6 47.2 18.8 47.8 18.8 48.4 18.3 51.6 17.8 51 17.5 50.9 18.1 49.7 17.4 49.2 16.7 49.3 16.4 49.1 15.8 49.4 15 49.2 14.4 48 13.9 47.7 13.6 47.1 12.9 46.6 12.6 46.7 12.2 46.4 11.7 46 11.4 46.2 10.5 46 10.3 45.5 10.1 45.6 9.1 44.9 8.9 44.5 9.3 44.4 9.3 43.8 9.5 43.4 10 43.3 10.5 42.6 10.9 42 10.5 41.7 10.7 41 10.5 39.9 10.7 39.6 10.6 38.6 10.2 38 10.3 37.4 10.6 37.5 10.8 37.1 10.6 36.4 10.8 36.3 11.3 36.3 12.1 35.5 12.5 35.4 12.5 35 12.7 34 13.3 33.4 14 33.4 14.1 33.1 14.9 33.2 15.7 32.6 16.1 32.4 16.6 31.8 17 31.9 17.2 32.2 17 32.6 16.4 32.8 16.1 33.4 15.7 33.7 15.4 34.2 15.2 35 14.9 35.7 15.5 35.8 15.6 36.3 15.8 36.6 15.9 37.1 15.7 37.5 15.8 37.7 16 37.8 16.2 38.3 17.6 38.1 18.2 38.3 18.9 39.3 19.3 39.2 20 39.3 20.6 39.1 21 39.3 20.8 40 20.5 40.4 20.5 41.2 20.6 42 20.9 42.3 21 42.6 20.5 43.2 20.8 43.4 21.1 43.9 21.4 45"/>
  <polygon class="cls-16" points="21.5 45.1 21.3 45.2 21.1 44.5 20.8 44.1 20.5 44.5 18.4 44.5 18.4 45.3 19 45.4 19 45.8 18.8 45.7 18.2 45.9 18.2 46.8 18.7 47.2 18.8 47.9 18.8 48.4 18.4 51.7 17.8 51.1 17.5 51 18.2 49.8 17.4 49.3 16.8 49.4 16.4 49.1 15.8 49.5 15 49.3 14.4 48.1 13.9 47.8 13.6 47.2 12.9 46.6 12.6 46.7 12.2 46.5 11.7 46.1 11.4 46.3 10.5 46.1 10.2 45.6 10 45.6 9 44.9 8.8 44.5 9.2 44.5 9.2 43.9 9.4 43.4 9.9 43.4 10.4 42.6 10.8 42 10.4 41.7 10.6 41 10.4 39.9 10.6 39.6 10.5 38.6 10.1 37.9 10.2 37.4 10.6 37.5 10.8 37.1 10.6 36.4 10.7 36.2 11.2 36.3 12 35.4 12.5 35.3 12.5 34.9 12.7 33.9 13.3 33.3 14 33.3 14.1 33 14.9 33.1 15.7 32.5 16.1 32.3 16.6 31.7 17 31.8 17.3 32.1 17.1 32.5 16.4 32.7 16.1 33.3 15.7 33.6 15.4 34.1 15.2 34.9 14.9 35.6 15.5 35.7 15.6 36.3 15.8 36.5 15.9 37 15.7 37.5 15.8 37.7 16 37.8 16.3 38.2 17.6 38.1 18.2 38.3 18.9 39.3 19.4 39.2 20.1 39.2 20.7 39.1 21.1 39.3 20.9 39.9 20.6 40.3 20.5 41.2 20.7 42 21 42.3 21.1 42.6 20.5 43.2 20.9 43.5 21.2 43.9 21.5 45.1"/>
  <polygon class="cls-5" points="105.3 19.2 105.6 21.1 106 21.4 106 21.8 106.4 22.2 106.2 22.7 105.9 25.2 105.8 26.8 104.5 27.9 104.1 29.5 104.5 29.9 104.5 30.7 105.2 30.7 105.1 31.3 104.8 31.4 104.8 31.7 104.6 31.8 103.9 30.5 103.6 30.4 102.8 31.1 102.1 30.7 101.5 30.7 101.2 30.8 100.6 30.8 100 31.3 99.5 31.3 98.2 30.7 97.7 31 97.2 31 96.8 30.5 95.8 30.1 94.7 30.2 94.4 30.5 94.3 31.2 94 31.7 93.9 32.7 93.2 32 92.8 32 92.4 32.4 92.5 31.6 91.3 31.3 91.2 30.7 90.7 29.9 90.5 29.4 90.6 28.8 91.3 28.8 91.7 28.3 93 28.2 93.9 28 94 27.3 94.6 26.5 94.6 23.7 96 23.2 99 20.8 102.4 18.4 104 19 104.6 19.6 105.3 19.2"/>
  <polygon class="cls-16" points="105.4 19.1 105.7 21 106.1 21.4 106.1 21.7 106.5 22.2 106.3 22.7 105.9 25.2 105.9 26.8 104.6 27.9 104.2 29.5 104.6 30 104.6 30.8 105.3 30.8 105.2 31.4 104.9 31.4 104.8 31.8 104.7 31.8 103.9 30.5 103.7 30.5 102.9 31.1 102.1 30.8 101.5 30.7 101.2 30.9 100.6 30.9 100 31.4 99.5 31.4 98.2 30.8 97.7 31.1 97.2 31.1 96.8 30.6 95.8 30.1 94.7 30.3 94.4 30.6 94.2 31.2 93.9 31.7 93.9 32.8 93.1 32.1 92.7 32.1 92.4 32.5 92.4 31.6 91.2 31.4 91.2 30.8 90.6 30 90.4 29.4 90.5 28.9 91.2 28.8 91.6 28.4 93 28.3 93.9 28.1 94 27.3 94.6 26.5 94.5 23.7 96 23.1 99 20.7 102.5 18.3 104.1 18.9 104.7 19.6 105.4 19.1"/>
  <polygon class="cls-5" points="215.2 24.8 215.10001 25.3 215.5 26.2 215.3 27.2 214.7 27.6 214.60001 28.6 214.89999 29.5 215.5 29.7 215.89999 29.5 217.3 30.2 217.2 30.8 217.60001 31.1 217.5 31.7 216.60001 31.1 216.2 30.5 216 30.9 215.3 30.2 214.39999 30.4 213.89999 30.1 213.89999 29.6 214.2 29.3 213.89999 29 213.8 29.4 213.2 28.8 213 28.2 212.89999 27.1 213.3 27.5 213.3 25.6 213.5 24.5 214.10001 24.5 214.8 24.8 215.10001 24.5 215.2 24.8"/>
  <polygon class="cls-16" points="215.2 24.7 215.10001 25.3 215.5 26.2 215.3 27.2 214.7 27.6 214.60001 28.6 214.89999 29.6 215.5 29.7 216 29.6 217.39999 30.2 217.3 30.9 217.7 31.2 217.60001 31.8 216.7 31.2 216.3 30.5 216 31 215.3 30.2 214.39999 30.4 213.8 30.1 213.8 29.6 214.10001 29.3 213.8 29 213.7 29.5 213.10001 28.8 212.89999 28.2 212.8 27.1 213.2 27.5 213.2 25.5 213.5 24.4 214.10001 24.4 214.8 24.8 215.10001 24.4 215.2 24.7"/>
  <polygon class="cls-5" points="220.10001 36.6 220.2 37.4 220.3 38 220 39.1 219.60001 37.9 219.10001 38.5 219.5 39.4 219.2 39.9 218 39.2 217.60001 38.4 217.89999 37.8 217.3 37.3 217 37.8 216.5 37.7 215.8 38.4 215.60001 38 215.89999 37 216.60001 36.7 217.10001 36.2 217.5 36.8 218.3 36.5 218.39999 35.9 219.10001 35.9 219 35 219.89999 35.5 220 36.1 220.10001 36.6"/>
  <polygon class="cls-16" points="220.2 36.5 220.3 37.4 220.39999 38 220.10001 39.2 219.60001 37.9 219.2 38.5 219.5 39.4 219.2 40 218 39.3 217.60001 38.4 217.89999 37.8 217.2 37.3 216.89999 37.8 216.39999 37.7 215.7 38.4 215.5 38 215.89999 37 216.5 36.7 217.10001 36.2 217.5 36.8 218.3 36.4 218.39999 35.9 219.2 35.8 219.10001 34.9 220 35.5 220.10001 36.1 220.2 36.5"/>
  <polygon class="cls-5" points="212 35.5 210.60001 36.6 211.10001 35.8 211.8 35.1 212.39999 34.2 212.89999 33.1 213.10001 34 212.5 34.7 212 35.5"/>
  <polygon class="cls-16" points="212 35.5 210.5 36.7 211.10001 35.9 211.8 35.1 212.39999 34.2 213 33 213.2 34 212.5 34.7 212 35.5"/>
  <polygon class="cls-5" points="216.10001 34.7 216.39999 34.4 216.39999 33.6 217 33.6 216.89999 34.4 217.60001 33.2 217.5 34.4 217.2 34.8 216.89999 35.5 216.60001 35.9 215.89999 35 216.10001 34.7"/>
  <polygon class="cls-16" points="216 34.7 216.3 34.4 216.39999 33.6 217 33.5 216.89999 34.4 217.7 33.1 217.60001 34.3 217.2 34.8 216.89999 35.6 216.60001 36 215.8 35.1 216 34.7"/>
  <polygon class="cls-5" points="219 32.1 219.3 33.4 218.5 33.1 218.60001 33.5 218.89999 34.3 218.39999 34.5 218.3 33.7 218 33.6 217.8 32.9 218.39999 33 218.39999 32.6 217.7 31.6 218.7 31.7 219 32.1"/>
  <polygon class="cls-16" points="219 32.1 219.39999 33.5 218.5 33.1 218.60001 33.6 218.89999 34.3 218.39999 34.6 218.3 33.7 217.89999 33.7 217.7 32.9 218.39999 33 218.3 32.5 217.60001 31.5 218.7 31.6 219 32.1"/>
  <polygon class="cls-5" points="215.5 33 215.3 32.4 215.89999 32.8 216.60001 32.8 216.60001 33.3 216.10001 33.8 215.5 34.2 215.39999 33.6 215.5 33"/>
  <polygon class="cls-16" points="215.39999 33 215.2 32.3 215.89999 32.8 216.7 32.8 216.7 33.3 216.2 33.9 215.39999 34.3 215.39999 33.7 215.39999 33"/>
  <polygon class="cls-5" points="214.10001 31.5 213.60001 30.6 214.39999 30.6 214.8 31 214.60001 32.1 214.10001 31.5"/>
  <polygon class="cls-16" points="214.10001 31.5 213.5 30.5 214.5 30.5 214.89999 31 214.7 32.2 214.10001 31.5"/>
  <polygon class="cls-5" points="121.9 42.4 121 41.6 120.8 41.1 120.2 41.3 119.8 41.3 119.5 41.5 119 41.3 118.4 40.3 118.2 40 117.4 39.5 117.2 38.8 116.8 38.3 116.1 37.7 116 37.3 115.5 36.8 114.8 36.3 115.1 36.2 115.4 36 115.7 34.9 116 34.4 116.7 34.2 116.9 34.5 117.4 35.2 117.7 35.3 118.1 35.1 118.8 35.2 119 35.4 120 35.4 120 35.2 120.5 34.9 120.6 34.6 121 34.3 121.9 35 122.4 34.9 122.9 34.1 123.5 33.4 123.4 32.7 123.1 32.3 123.8 32.3 123.8 32 124.3 32.1 124.2 33 124.3 33.8 124.89999 34.3 125 34.7 125 35.3 125.10001 35.3 125.10001 36.3 125 36.6 124.39999 36.6 124.10001 37.3 124.7 37.4 125.3 38 125.39999 38.5 125.89999 38.7 126.5 40 125.8 40.8 125.2 41.5 124.60001 42 123.9 42 123 42.3 122.4 42.1 121.9 42.4"/>
  <polygon class="cls-16" points="122 42.5 121.1 41.7 120.8 41.2 120.2 41.4 119.7 41.3 119.5 41.5 119 41.4 118.3 40.4 118.2 40 117.4 39.5 117.1 38.8 116.7 38.3 116 37.7 116 37.3 115.4 36.8 114.7 36.3 115 36.2 115.3 36 115.6 34.9 115.9 34.3 116.6 34.1 116.8 34.5 117.4 35.2 117.7 35.3 118 35.1 118.8 35.1 118.9 35.4 120 35.4 120 35.1 120.5 34.9 120.6 34.5 121 34.3 121.9 35 122.5 34.9 123 34 123.5 33.3 123.4 32.6 123.2 32.3 123.8 32.2 123.9 31.9 124.39999 32 124.2 32.9 124.39999 33.8 124.89999 34.3 125.10001 34.7 125 35.3 125.2 35.3 125.2 36.2 125.10001 36.6 124.5 36.6 124.2 37.3 124.8 37.4 125.3 38 125.5 38.5 126 38.8 126.60001 40.1 125.89999 40.9 125.3 41.6 124.60001 42.1 123.9 42.1 123.1 42.4 122.4 42.1 122 42.5"/>
  <g>
    <path class="cls-14" d="M23.09318,52.26212c-.17383.08984-.55762.17969-1.04346.17969-1.2832,0-2.06299-.80273-2.06299-2.03223,0-1.33105.92334-2.13477,2.15869-2.13477.48584,0,.8335.10156.98389.17969l-.16211.58789c-.19189-.08398-.45557-.15625-.7915-.15625-.82178,0-1.41553.51562-1.41553,1.4873,0,.8877.52197,1.45703,1.40918,1.45703.30029,0,.61182-.05957.80371-.14941l.12012.58105Z"/>
    <path class="cls-14" d="M26.37541,50.89494c0,1.07324-.75586,1.55371-1.49951,1.55371-.82715,0-1.46289-.57031-1.46289-1.50586,0-.95898.62939-1.54688,1.51123-1.54688.86914,0,1.45117.61133,1.45117,1.49902ZM24.17472,50.92521c0,.56348.27588.98926.72559.98926.41943,0,.71338-.41406.71338-1.00098,0-.45605-.2041-.97754-.70752-.97754-.52197,0-.73145.50293-.73145.98926Z"/>
    <path class="cls-14" d="M26.98283,48.12443h.74316v4.25781h-.74316v-4.25781Z"/>
    <path class="cls-14" d="M31.30119,50.89494c0,1.07324-.75586,1.55371-1.49951,1.55371-.82715,0-1.46289-.57031-1.46289-1.50586,0-.95898.62939-1.54688,1.51123-1.54688.86914,0,1.45117.61133,1.45117,1.49902ZM29.1005,50.92521c0,.56348.27588.98926.72559.98926.41943,0,.71338-.41406.71338-1.00098,0-.45605-.2041-.97754-.70752-.97754-.52197,0-.73145.50293-.73145.98926Z"/>
    <path class="cls-14" d="M31.90861,50.33146c0-.33594-.00635-.61816-.02441-.86914h.63574l.03027.43164h.01758c.14404-.22852.4082-.49805.8999-.49805.38379,0,.68359.21582.80957.54004h.01172c.10205-.16211.22217-.28223.35986-.36621.16211-.11426.34766-.17383.58789-.17383.48535,0,.97754.33008.97754,1.26562v1.7207h-.71973v-1.61328c0-.48535-.16797-.77344-.52197-.77344-.25195,0-.4375.17969-.51562.38965-.01807.07227-.03613.16211-.03613.24609v1.75098h-.71924v-1.69141c0-.40723-.16211-.69531-.50391-.69531-.27588,0-.46191.21582-.52783.41992-.02979.07227-.04199.15625-.04199.23926v1.72754h-.71924v-2.05078Z"/>
    <path class="cls-14" d="M36.97257,52.38224c.01221-.19824.02441-.52148.02441-.82129v-3.43652h.7373v1.73926h.01221c.17969-.28223.49756-.46777.93555-.46777.71338,0,1.22314.59375,1.21729,1.48145,0,1.04883-.66602,1.57129-1.3252,1.57129-.37793,0-.71387-.14453-.92383-.50391h-.01172l-.03613.4375h-.62988ZM37.73429,51.17716c0,.05957.00586.12012.01807.17383.07812.29395.33594.51562.65381.51562.46143,0,.74365-.37207.74365-.95996,0-.51562-.24609-.93555-.73779-.93555-.2998,0-.56982.2168-.65381.54004-.01172.05371-.02393.12012-.02393.19238v.47363Z"/>
    <path class="cls-14" d="M41.29191,48.64591c0,.22266-.16162.39648-.41943.39648-.24609,0-.40771-.17383-.40771-.39648,0-.22754.16748-.40137.41357-.40137.25195,0,.40771.17383.41357.40137ZM40.50675,52.38224v-2.91992h.74316v2.91992h-.74316Z"/>
    <path class="cls-14" d="M43.68595,52.38224l-.04834-.32422h-.01758c-.18018.22852-.48584.39062-.86377.39062-.58789,0-.91748-.42578-.91748-.87012,0-.7373.65381-1.10938,1.73291-1.10352v-.04785c0-.19141-.07764-.50977-.59375-.50977-.2876,0-.5874.08984-.78516.21582l-.14404-.47949c.21582-.13184.59375-.25781,1.05518-.25781.93555,0,1.20557.59375,1.20557,1.22949v1.05566c0,.26367.01172.52148.04199.70117h-.66553ZM43.58976,50.95548c-.52148-.0127-1.01953.10156-1.01953.54492,0,.28809.18604.41992.41992.41992.29395,0,.50977-.19141.57568-.40137.01807-.05469.02393-.11426.02393-.16211v-.40137Z"/>
  </g>
  <g>
    <path class="cls-14" d="M221.59153,29.67803c.26367-.04785.62988-.08301,1.12695-.08301.54004,0,.93555.11328,1.19336.3291.24023.19824.39551.51562.39551.89355,0,.38379-.11914.70215-.34766.91797-.29395.29395-.75488.43164-1.27734.43164-.1377,0-.26367-.00586-.35938-.02441v1.52344h-.73145v-3.98828ZM222.32297,31.56182c.08984.02344.20996.0293.35938.0293.55176,0,.8877-.26953.8877-.74316,0-.4502-.31152-.68945-.82129-.68945-.2041,0-.34766.01758-.42578.03613v1.36719Z"/>
    <path class="cls-14" d="M224.89719,29.4085h.74316v1.73926h.0127c.08984-.1377.20996-.25195.36523-.33594.14453-.08398.31836-.13184.50391-.13184.49805,0,1.01953.33008,1.01953,1.26562v1.7207h-.7373v-1.63672c0-.42578-.15625-.74414-.56348-.74414-.28809,0-.49219.19238-.57031.41406-.02344.05957-.03027.1377-.03027.22168v1.74512h-.74316v-4.25781Z"/>
    <path class="cls-14" d="M229.11497,29.92998c0,.22266-.16211.39648-.41992.39648-.24609,0-.40723-.17383-.40723-.39648,0-.22754.16699-.40137.41309-.40137.25195,0,.4082.17383.41406.40137ZM228.32981,33.66631v-2.91992h.74316v2.91992h-.74316Z"/>
    <path class="cls-14" d="M229.86497,29.4085h.74316v4.25781h-.74316v-4.25781Z"/>
    <path class="cls-14" d="M232.19211,29.92998c0,.22266-.16113.39648-.41895.39648-.24609,0-.4082-.17383-.4082-.39648,0-.22754.16797-.40137.41406-.40137.25195,0,.40723.17383.41309.40137ZM231.40696,33.66631v-2.91992h.74316v2.91992h-.74316Z"/>
    <path class="cls-14" d="M232.94309,31.71709c0-.38379-.01172-.69531-.02441-.9707h.64844l.03613.44922h.01172c.21582-.33008.55762-.51562,1.00098-.51562.67188,0,1.22949.5752,1.22949,1.4873,0,1.05566-.66602,1.56543-1.33105,1.56543-.36621,0-.67188-.15625-.82129-.39062h-.0127v1.51172h-.7373v-3.13672ZM233.68039,32.44268c0,.07227.00586.13867.02441.2041.07227.2998.33594.51562.64746.51562.46777,0,.74414-.38965.74414-.96484,0-.5166-.25195-.93555-.72559-.93555-.30664,0-.58789.22168-.66016.54492-.01758.06055-.03027.12598-.03027.18652v.44922Z"/>
    <path class="cls-14" d="M236.45286,31.71709c0-.38379-.01172-.69531-.02441-.9707h.64844l.03613.44922h.01172c.21582-.33008.55762-.51562,1.00098-.51562.67188,0,1.22949.5752,1.22949,1.4873,0,1.05566-.66602,1.56543-1.33105,1.56543-.36621,0-.67188-.15625-.82129-.39062h-.0127v1.51172h-.7373v-3.13672ZM237.19016,32.44268c0,.07227.00586.13867.02441.2041.07227.2998.33594.51562.64746.51562.46777,0,.74414-.38965.74414-.96484,0-.5166-.25195-.93555-.72559-.93555-.30664,0-.58789.22168-.66016.54492-.01758.06055-.03027.12598-.03027.18652v.44922Z"/>
    <path class="cls-14" d="M240.74875,29.92998c0,.22266-.16211.39648-.41992.39648-.24609,0-.40723-.17383-.40723-.39648,0-.22754.16699-.40137.41309-.40137.25195,0,.4082.17383.41406.40137ZM239.9636,33.66631v-2.91992h.74316v2.91992h-.74316Z"/>
    <path class="cls-14" d="M241.49875,31.61553c0-.33594-.00586-.61816-.02441-.86914h.64844l.03613.4375h.01758c.12598-.22852.44336-.50391.92969-.50391.50977,0,1.03711.33008,1.03711,1.25293v1.7334h-.7373v-1.64941c0-.41992-.15625-.7373-.55762-.7373-.29395,0-.49805.20996-.57617.43164-.02344.06641-.03027.15625-.03027.24023v1.71484h-.74316v-2.05078Z"/>
    <path class="cls-14" d="M245.45286,32.41338c.01758.52734.43164.75488.89941.75488.3418,0,.58789-.04785.80957-.13184l.10742.50977c-.25195.10254-.59961.17969-1.01953.17969-.94727,0-1.50488-.58105-1.50488-1.47461,0-.80957.49219-1.57129,1.42773-1.57129.94727,0,1.25879.7793,1.25879,1.4209,0,.13867-.01172.24609-.02344.3125h-1.95508ZM246.73606,31.89776c.00586-.27051-.11426-.71387-.60547-.71387-.45605,0-.64844.41309-.67773.71387h1.2832Z"/>
    <path class="cls-14" d="M247.99094,32.98858c.16797.10254.48633.20996.75.20996.32324,0,.46777-.13184.46777-.32422,0-.19727-.12012-.2998-.48047-.42578-.56934-.19727-.80859-.50977-.80273-.85156,0-.51562.42578-.91699,1.10352-.91699.32324,0,.60547.08398.77344.17383l-.14453.52148c-.12598-.07129-.35938-.16797-.61719-.16797-.26367,0-.4082.12598-.4082.30664,0,.18555.1377.27539.50977.40723.52832.19238.77344.46191.7793.89355,0,.52734-.41309.91113-1.18652.91113-.35449,0-.67188-.08398-.8877-.20312l.14355-.53418Z"/>
  </g>
  <g>
    <path class="cls-14" d="M102.48254,48.97072c.23975.1377.59961.25781.97754.25781.47363,0,.73779-.22168.73779-.55176,0-.30566-.2041-.48535-.71973-.6709-.66553-.24023-1.09131-.59375-1.09131-1.17578,0-.66016.55127-1.16309,1.42725-1.16309.4375,0,.76123.0957.97119.20312l-.17969.59375c-.14404-.07715-.42578-.19141-.80371-.19141-.46777,0-.67139.25195-.67139.48535,0,.3125.2334.45605.77344.66602.70166.26367,1.04346.61719,1.04346,1.19922,0,.64746-.4917,1.21094-1.53516,1.21094-.42578,0-.86963-.11914-1.09131-.25195l.16162-.61133Z"/>
    <path class="cls-14" d="M108.39709,48.28713c0,1.07324-.75586,1.55371-1.49951,1.55371-.82715,0-1.46289-.57031-1.46289-1.50586,0-.95898.62939-1.54688,1.51123-1.54688.86914,0,1.45117.61133,1.45117,1.49902ZM106.1964,48.3174c0,.56348.27588.98926.72559.98926.41943,0,.71338-.41406.71338-1.00098,0-.45605-.2041-.97754-.70752-.97754-.52197,0-.73145.50293-.73145.98926Z"/>
    <path class="cls-14" d="M111.61925,48.89846c0,.34863.01221.63574.02393.87598h-.64746l-.03613-.44336h-.01172c-.12598.20996-.41406.50977-.93555.50977-.53369,0-1.01953-.31836-1.01953-1.27148v-1.71484h.73779v1.58887c0,.48535.15576.79688.54541.79688.29395,0,.48584-.20898.56396-.39551.02393-.06543.04199-.14355.04199-.22754v-1.7627h.7373v2.04395Z"/>
    <path class="cls-14" d="M113.26379,46.02053v.83398h.70166v.55078h-.70166v1.29004c0,.35352.09619.53906.37793.53906.12598,0,.22168-.01758.2876-.03516l.01221.56348c-.10791.04199-.2998.07129-.53369.07129-.27002,0-.49756-.08984-.63574-.23926-.15576-.16797-.22803-.43164-.22803-.81543v-1.37402h-.41943v-.55078h.41943v-.66016l.71973-.17383Z"/>
    <path class="cls-14" d="M114.52453,45.51662h.74316v1.73926h.01221c.08984-.1377.20996-.25195.36572-.33594.14404-.08398.31787-.13184.50391-.13184.49756,0,1.01953.33008,1.01953,1.26562v1.7207h-.73779v-1.63672c0-.42578-.15576-.74414-.56348-.74414-.28809,0-.49219.19238-.56982.41406-.02393.05957-.03027.1377-.03027.22168v1.74512h-.74316v-4.25781Z"/>
    <path class="cls-14" d="M102.48254,54.97072c.23975.1377.59961.25781.97754.25781.47363,0,.73779-.22168.73779-.55176,0-.30566-.2041-.48535-.71973-.6709-.66553-.24023-1.09131-.59375-1.09131-1.17578,0-.66016.55127-1.16309,1.42725-1.16309.4375,0,.76123.0957.97119.20312l-.17969.59375c-.14404-.07715-.42578-.19141-.80371-.19141-.46777,0-.67139.25195-.67139.48535,0,.3125.2334.45605.77344.66602.70166.26367,1.04346.61719,1.04346,1.19922,0,.64746-.4917,1.21094-1.53516,1.21094-.42578,0-.86963-.11914-1.09131-.25195l.16162-.61133Z"/>
    <path class="cls-14" d="M108.19884,54.89846c0,.34863.01221.63574.02393.87598h-.64746l-.03613-.44336h-.01172c-.12598.20996-.41406.50977-.93555.50977-.53369,0-1.01953-.31836-1.01953-1.27148v-1.71484h.73779v1.58887c0,.48535.15576.79688.54541.79688.29395,0,.48584-.20898.56396-.39551.02393-.06543.04199-.14355.04199-.22754v-1.7627h.7373v2.04395Z"/>
    <path class="cls-14" d="M111.69103,51.51662v3.43652c0,.2998.01172.62305.02393.82129h-.65967l-.02979-.46191h-.01221c-.17383.32422-.52783.52832-.95361.52832-.69531,0-1.24707-.59375-1.24707-1.49316-.00586-.97754.60547-1.55957,1.30713-1.55957.40186,0,.68945.16797.82178.38379h.01172v-1.65527h.73779ZM110.95324,54.07131c0-.05957-.00586-.13184-.01807-.19141-.06592-.28809-.2998-.52246-.63525-.52246-.47412,0-.73779.41992-.73779.96582,0,.5332.26367.92383.73145.92383.2998,0,.56396-.2041.63574-.52246.01807-.06543.02393-.1377.02393-.21582v-.4375Z"/>
    <path class="cls-14" d="M114.12755,55.77443l-.04834-.32422h-.01758c-.18018.22852-.48584.39062-.86377.39062-.58789,0-.91748-.42578-.91748-.87012,0-.7373.65381-1.10938,1.73291-1.10352v-.04785c0-.19141-.07764-.50977-.59375-.50977-.2876,0-.5874.08984-.78516.21582l-.14404-.47949c.21582-.13184.59375-.25781,1.05518-.25781.93555,0,1.20557.59375,1.20557,1.22949v1.05566c0,.26367.01172.52148.04199.70117h-.66553ZM114.03136,54.34768c-.52148-.0127-1.01953.10156-1.01953.54492,0,.28809.18604.41992.41992.41992.29395,0,.50977-.19141.57568-.40137.01807-.05469.02393-.11426.02393-.16211v-.40137Z"/>
    <path class="cls-14" d="M115.53283,53.72365c0-.33594-.00635-.61816-.02441-.86914h.64795l.03564.4375h.01807c.12598-.22852.44385-.50391.92969-.50391.50977,0,1.0376.33008,1.0376,1.25293v1.7334h-.73779v-1.64941c0-.41992-.15576-.7373-.55762-.7373-.29395,0-.49756.20996-.57568.43164-.02393.06641-.03027.15625-.03027.24023v1.71484h-.74316v-2.05078Z"/>
  </g>
  <g>
    <path class="cls-14" d="M77.33252,23.54474v-4.04199h.83936l1.04346,1.7334c.27002.44922.50391.91699.68994,1.35547h.01172c-.04785-.54004-.06592-1.06152-.06592-1.67969v-1.40918h.68359v4.04199h-.76172l-1.05518-1.77539c-.25781-.44336-.52783-.94141-.72559-1.39648l-.01807.00586c.02979.52148.03613,1.05566.03613,1.7207v1.44531h-.67773Z"/>
    <path class="cls-14" d="M82.17969,19.80842c0,.22266-.16162.39648-.41943.39648-.24609,0-.40771-.17383-.40771-.39648,0-.22754.16748-.40137.41357-.40137.25195,0,.40771.17383.41357.40137ZM81.39453,23.54474v-2.91992h.74316v2.91992h-.74316Z"/>
    <path class="cls-14" d="M85.59912,20.62482c-.01221.19727-.02393.4375-.02393.83887v1.65527c0,.61133-.12598,1.0498-.43213,1.3252-.30566.26953-.72559.35352-1.12744.35352-.37158,0-.76758-.07715-1.01904-.2334l.16162-.55762c.18604.10742.49805.22168.85156.22168.47998,0,.83984-.25195.83984-.88184v-.25195h-.01221c-.16797.25781-.46777.43262-.85156.43262-.72559,0-1.24121-.59961-1.24121-1.42773,0-.95898.62354-1.54102,1.3252-1.54102.44385,0,.70752.21582.8457.45605h.01172l.03027-.38965h.6416ZM84.8374,21.79377c0-.06641-.00586-.1377-.02393-.19824-.07812-.26953-.28809-.47363-.59961-.47363-.41406,0-.71973.36035-.71973.9541,0,.49707.25195.89941.71338.89941.27588,0,.51611-.18066.6001-.44434.01758-.07812.02979-.17969.02979-.26367v-.47363Z"/>
    <path class="cls-14" d="M86.89014,22.29182c.01807.52734.43164.75488.89941.75488.3418,0,.58789-.04785.80957-.13184l.10791.50977c-.25195.10254-.59961.17969-1.01953.17969-.94727,0-1.50488-.58105-1.50488-1.47461,0-.80957.4917-1.57129,1.42725-1.57129.94727,0,1.25928.7793,1.25928,1.4209,0,.13867-.01221.24609-.02393.3125h-1.95508ZM88.17334,21.77619c.00586-.27051-.11377-.71387-.60547-.71387-.45605,0-.64795.41309-.67773.71387h1.2832Z"/>
    <path class="cls-14" d="M89.46484,21.56623c0-.39648-.00635-.67773-.02441-.94141h.64209l.02393.55762h.02393c.14404-.41406.48584-.62402.79736-.62402.07227,0,.11426.00586.17383.01758v.69629c-.05957-.0127-.12598-.02441-.21582-.02441-.35352,0-.59375.22754-.65967.55762-.01172.06641-.02393.14453-.02393.22852v1.51074h-.7373v-1.97852Z"/>
  </g>
  <g>
    <g>
      <path class="cls-1" d="M100.67002,20.15411h-8.01751c.5847-1.65022,2.16118-2.8347,4.00876-2.8347,1.84774,0,3.42407,1.18448,4.00876,2.8347Z"/>
      <path class="cls-7" d="M100.67002,22.98865c-.58469,1.65006-2.16102,2.8347-4.00876,2.8347-1.84758,0-3.42405-1.18464-4.00876-2.8347h8.01751Z"/>
      <path class="cls-15" d="M100.91323,21.57138c0,.49701-.08545.97381-.24321,1.41727h-8.01751c-.15776-.44346-.24321-.92026-.24321-1.41727s.08545-.97381.24321-1.41727h8.01751c.15776.44346.24321.92026.24321,1.41727Z"/>
    </g>
    <path class="cls-1" d="M97.80712,21.57138c0,.6328-.51304,1.14584-1.14602,1.14584-.6328,0-1.14584-.51304-1.14584-1.14584,0-.63296.51304-1.146,1.14584-1.146.63298,0,1.14602.51304,1.14602,1.146Z"/>
  </g>
  <g>
    <g>
      <path class="cls-10" d="M118.00897,38.61193h-8.01658c.03367-.09475.07038-.18773.11015-.27927.17697-.40544.41536-.77753.70297-1.10554.77995-.88831,1.92315-1.44957,3.19541-1.44957,1.74152,0,3.24174,1.05247,3.89777,2.55511.0399.09154.07661.18452.11028.27927Z"/>
      <path class="cls-13" d="M118.25265,40.02912c0,.44488-.0691.87436-.19671,1.27788-.01507.04697-.03046.09346-.04697.13931h-8.01658c-.0165-.04585-.0319-.09234-.04696-.13931-.12763-.40351-.19672-.833-.19672-1.27788,0-.44536.0691-.87468.19719-1.27836.01459-.04633.02999-.09282.04649-.13883h8.01658c.01651.04601.0319.0925.04649.13883.12809.40367.19719.833.19719,1.27836Z"/>
      <path class="cls-6" d="M118.00897,41.4463c-.03367.09491-.07038.18773-.11028.27927-.65603,1.50264-2.15624,2.55527-3.89777,2.55527-1.27226,0-2.41546-.56175-3.19541-1.44957-.28761-.32801-.526-.70026-.70297-1.1057-.03977-.09154-.07649-.18436-.11015-.27927h8.01658Z"/>
    </g>
    <g>
      <path class="cls-15" d="M118.05546,38.75076h-8.10956c.01459-.04633.02999-.09282.04649-.13883.03367-.09475.07038-.18773.11015-.27927h7.79614c.0399.09154.07661.18452.11028.27927.01651.04601.0319.0925.04649.13883Z"/>
      <path class="cls-15" d="M118.05594,41.30699c-.01507.04697-.03046.09346-.04697.13931-.03367.09491-.07038.18773-.11028.27927h-7.79614c-.03977-.09154-.07649-.18436-.11015-.27927-.0165-.04585-.0319-.09234-.04696-.13931h8.11051Z"/>
    </g>
    <path class="cls-2" d="M115.65427,40.02912l-2.21093,1.27788-.24111.13931-.48334.27927-1.91338,1.1057c-.28761-.32801-.526-.70026-.70297-1.1057-.03977-.09154-.07649-.18436-.11015-.27927-.0165-.04585-.0319-.09234-.04696-.13931-.12763-.40351-.19672-.833-.19672-1.27788,0-.44536.0691-.87468.19719-1.27836.01459-.04633.02999-.09282.04649-.13883.03367-.09475.07038-.18773.11015-.27927.17697-.40544.41536-.77753.70297-1.10554l1.91338,1.10554.48334.27927.24031.13883,2.21173,1.27836Z"/>
    <polygon class="cls-12" points="111.43363 38.75942 112.00467 39.54336 112.9268 39.24261 112.35752 40.02799 112.92857 40.8121 112.00579 40.51343 111.43651 41.29881 111.43539 40.32875 110.51261 40.03008 111.43476 39.72933 111.43363 38.75942"/>
  </g>
  <g>
    <path class="cls-8" d="M25.20687,44.8209h-7.34511c.73829,1.26175,2.10795,2.11131,3.67223,2.11131h.00048c1.56445,0,2.93394-.84956,3.6724-2.11131Z"/>
    <path class="cls-4" d="M17.28235,42.68025v.00737h8.50378c0-.0024.00016-.00497.00016-.00737,0-2.34459-1.90738-4.25197-4.25197-4.25197s-4.25197,1.90738-4.25197,4.25197Z"/>
    <path class="cls-3" d="M17.86176,44.8209h7.34511c.36682-.62719.57797-1.35603.57925-2.13328h-8.50378c.00128.77725.21243,1.50609.57941,2.13328Z"/>
  </g>
  <g>
    <g>
      <path class="cls-11" d="M223.30199,25.0102h-8.50394c0-1.0437.37803-2.00071,1.00476-2.74138.78009-.92319,1.94622-1.51035,3.24697-1.51035,2.34444,0,4.25221,1.90728,4.25221,4.25173Z"/>
      <path class="cls-8" d="M223.30199,25.0102c0,2.34444-1.90777,4.25173-4.25221,4.25173-1.30074,0-2.46687-.58731-3.24697-1.51035-.62673-.74067-1.00476-1.69768-1.00476-2.74138h8.50394Z"/>
    </g>
    <g>
      <path class="cls-15" d="M220.54859,25.0102l-4.74578,2.74138c-.62673-.74067-1.00476-1.69768-1.00476-2.74138s.37803-2.00071,1.00476-2.74138l4.74578,2.74138Z"/>
      <g>
        <path class="cls-4" d="M218.49211,25.0868l.07259-.0766-.07259-.0766-.57802.0383c-.0008-.01298-.00208-.0258-.00385-.03846l.51937-.06586-.06458-.06827-.46024.1c-.01505-.07708-.04535-.14871-.08766-.21153l.39614-.2548-.00256-.09391-.41391.32066c-.00787-.01026-.01602-.02035-.02454-.02997l.43604-.38171-.00287-.10544-.10546-.00272-.3817.43588c-.00961-.00849-.01957-.01667-.02982-.02452l.32066-.41392-.09407-.00256-.25464.39614c-.06298-.04231-.13461-.07259-.21153-.0875l.1-.4604-.06827-.06458-.06602.51937c-.01266-.0016-.02548-.00288-.03846-.00385l.03846-.57802-.0766-.07259-.0766.07259.0383.57802c-.01282.00096-.0258.00224-.03846.00385l-.06586-.51937-.06827.06458.1.4604c-.07708.0149-.14871.04519-.21153.0875l-.2548-.39614-.09391.00256.32068.41392c-.01027.00785-.02037.01602-.02998.02452l-.38155-.43588-.1056.00272-.00272.1056.43588.38155c-.00849.00961-.01667.01971-.02452.02997l-.41391-.32066-.00258.09391.39614.2548c-.04231.06282-.07259.13445-.08748.21153l-.46025-.1-.06474.06827.51937.06586c-.0016.01266-.00288.02564-.00385.03846l-.57802-.0383-.07259.0766.07259.0766.57802-.03846c.00096.01298.00224.0258.00385.03846l-.51937.06602.06474.06827.46025-.1c.01489.07708.04517.14871.08748.21153l-.39614.25464.00258.09407.41391-.32066c.00785.01026.01602.02019.02452.02981l-.43588.38171.00272.10544.1056.00288.38155-.43604c.00978.00849.01971.01667.02998.02452l-.32068.41392.09391.00256.2548-.39614c.06282.04231.13445.07259.21153.0875l-.1.4604.06827.06458.06586-.51937c.01266.00176.02564.00304.03846.00385l-.0383.57802.0766.07259.0766-.07259-.03846-.57802c.01298-.0008.0258-.00208.03846-.00385l.06602.51937.06827-.06458-.1-.4604c.07692-.0149.14871-.04519.21153-.0875l.25464.39614.09407-.00256-.32066-.41392c.01026-.00785.02021-.01602.02982-.02452l.3817.43604.10546-.00288.00287-.10544-.43604-.38171c.00851-.00961.01667-.01955.02454-.02981l.41391.32066.00256-.09407-.39614-.25464c.04231-.06282.07261-.13445.08766-.21153l.46024.1.06458-.06827-.51937-.06602c.00176-.01266.00304-.02548.00385-.03846l.57802.03846Z"/>
        <g>
          <polygon class="cls-4" points="219.74798 24.70653 219.74766 24.93841 219.96833 25.01036 219.7475 25.08183 219.74718 25.31387 219.61113 25.1259 219.39047 25.19737 219.527 25.00988 219.39095 24.82207 219.61145 24.89402 219.74798 24.70653"/>
          <g>
            <polygon class="cls-4" points="216.27811 26.99617 216.10504 27.15049 216.19831 27.36298 215.998 27.24599 215.82477 27.40031 215.87428 27.17356 215.67397 27.05658 215.90473 27.0335 215.95409 26.80691 216.04735 27.01924 216.27811 26.99617"/>
            <polygon class="cls-4" points="215.82575 22.62008 215.99848 22.77472 216.19913 22.65838 216.1052 22.87039 216.27811 23.02519 216.04735 23.00164 215.95345 23.21381 215.90473 22.98689 215.67397 22.96334 215.87444 22.84684 215.82575 22.62008"/>
          </g>
        </g>
      </g>
    </g>
  </g>
</svg>