<?xml version="1.0" encoding="utf-8"?>
<!-- Generator: Adobe Illustrator 25.0.0, SVG Export Plug-In . SVG Version: 6.00 Build 0)  -->
<svg version="1.1" id="Layer_1" xmlns="http://www.w3.org/2000/svg" xmlns:xlink="http://www.w3.org/1999/xlink" x="0px" y="0px"
	 viewBox="0 0 124 125" style="enable-background:new 0 0 124 125;" xml:space="preserve">
<style type="text/css">
	.st0{fill:#F6A400;}
	.st1{fill:#FFFFFF;}
</style>
<circle class="st0" cx="62.3" cy="62.3" r="58.3"/>
<path class="st1" d="M68.1,67.8l9.7-9.6c1-1.1,2.7-1.1,3.7,0c1,1.1,1,2.8,0,3.8l-4.8,4.6c-0.6,0.6-0.6,1.6,0,2.2
	c0.6,0.6,1.6,0.6,2.2,0l6-6.4V42.2c0-2.1,1.7-3.8,3.8-3.8s3.8,1.7,3.8,3.8v22.1c0,1-0.4,2-1.1,2.7L77.2,81.6V93H65.7V73.9
	C65.7,71.4,66.4,69.5,68.1,67.8z"/>
<path class="st1" d="M55.8,67.8l-9.7-9.6c-1-1.1-2.7-1.1-3.7,0c-1,1.1-1,2.8,0,3.8l4.8,4.6c0.6,0.6,0.6,1.6,0,2.2
	c-0.6,0.6-1.6,0.6-2.2,0l-6-6.4V42.2c0-2.1-1.7-3.8-3.8-3.8c-2.1,0-3.8,1.7-3.8,3.8v22.1c0,1,0.4,2,1.1,2.7l14.1,14.6V93h11.4V73.9
	C58.1,71.4,57.5,69.5,55.8,67.8z"/>
<circle class="st1" cx="61.9" cy="43.4" r="11.4"/>
</svg>
