<?xml version="1.0" encoding="utf-8"?>
<!-- Generator: Adobe Illustrator 25.0.0, SVG Export Plug-In . SVG Version: 6.00 Build 0)  -->
<svg version="1.1" id="Layer_1" xmlns="http://www.w3.org/2000/svg" xmlns:xlink="http://www.w3.org/1999/xlink" x="0px" y="0px"
	 viewBox="0 0 124 125" style="enable-background:new 0 0 124 125;" xml:space="preserve">
<style type="text/css">
	.st0{fill:#F6A400;}
	.st1{fill:#FFFFFF;}
</style>
<circle class="st0" cx="62.3" cy="62.3" r="58.3"/>
<path class="st1" d="M91.6,42.5c-1.2-1.2-2.8-2-4.6-1.9c-1.7,0-3.3,0.7-4.6,1.9l-28,28.2L41.5,60.6c-1.4-1.1-3.1-1.5-4.8-1.3
	c-1.7,0.2-3.2,1.1-4.3,2.4c-2.2,2.8-1.7,6.9,1.1,9.1l16.7,13.1c1.1,0.9,2.5,1.4,4,1.4c0.3,0,0.5,0,0.8-0.1c1.1-0.1,2.2-0.6,3-1.2
	c1.2-0.3,2.2-0.9,3.1-1.7l30.4-30.6c1.2-1.2,1.9-2.9,1.9-4.6C93.5,45.3,92.8,43.7,91.6,42.5z"/>
</svg>
