<?xml version="1.0" encoding="utf-8"?>
<!-- Generator: Adobe Illustrator 25.0.0, SVG Export Plug-In . SVG Version: 6.00 Build 0)  -->
<svg version="1.1" id="Layer_1" xmlns="http://www.w3.org/2000/svg" xmlns:xlink="http://www.w3.org/1999/xlink" x="0px" y="0px"
	 viewBox="0 0 124 125" style="enable-background:new 0 0 124 125;" xml:space="preserve">
<style type="text/css">
	.st0{fill:#F6A400;}
	.st1{fill:#FFFFFF;}
</style>
<circle class="st0" cx="62.3" cy="62.3" r="58.3"/>
<g>
	<path class="st1" d="M41.8,74.5l-9.2,9.2c-2.1,2.1-2.1,5.4,0,7.5c2.1,2.1,5.4,2.1,7.5,0l9.2-9.2C46.4,79.9,43.8,77.4,41.8,74.5z"/>
	<path class="st1" d="M67,31c-14.2,0-25.7,11.5-25.7,25.7S52.8,82.4,67,82.4s25.7-11.5,25.7-25.7S81.2,31,67,31z M81.2,69.8
		c-2.1,2.3-4.7,4.1-7.7,5.1c-0.8,0.3-1.7,0.5-2.6,0.7C69.6,75.9,68.3,76,67,76s-2.6-0.1-3.9-0.4c-0.9-0.2-1.7-0.4-2.6-0.7
		c-3-1-5.6-2.8-7.7-5.1c-3.2-3.4-5.1-8-5.1-13.1c0-10.6,8.6-19.3,19.3-19.3s19.3,8.6,19.3,19.3C86.3,61.8,84.4,66.4,81.2,69.8z"/>
</g>
</svg>
